<?xml version="1.0" encoding="utf-8" standalone="no"?>
<!DOCTYPE svg PUBLIC "-//W3C//DTD SVG 1.1//EN"
  "http://www.w3.org/Graphics/SVG/1.1/DTD/svg11.dtd">
<!-- Created with matplotlib (https://matplotlib.org/) -->
<svg height="288pt" version="1.1" viewBox="0 0 432 288" width="432pt" xmlns="http://www.w3.org/2000/svg" xmlns:xlink="http://www.w3.org/1999/xlink">
 <metadata>
  <rdf:RDF xmlns:cc="http://creativecommons.org/ns#" xmlns:dc="http://purl.org/dc/elements/1.1/" xmlns:rdf="http://www.w3.org/1999/02/22-rdf-syntax-ns#">
   <cc:Work>
    <dc:type rdf:resource="http://purl.org/dc/dcmitype/StillImage"/>
    <dc:date>2020-12-09T11:15:08.050400</dc:date>
    <dc:format>image/svg+xml</dc:format>
    <dc:creator>
     <cc:Agent>
      <dc:title>Matplotlib v3.3.2, https://matplotlib.org/</dc:title>
     </cc:Agent>
    </dc:creator>
   </cc:Work>
  </rdf:RDF>
 </metadata>
 <defs>
  <style type="text/css">*{stroke-linecap:butt;stroke-linejoin:round;}</style>
 </defs>
 <g id="figure_1">
  <g id="patch_1">
   <path d="M 0 288 
L 432 288 
L 432 0 
L 0 0 
z
" style="fill:#ffffff;"/>
  </g>
  <g id="axes_1">
   <g id="patch_2">
    <path d="M 53.74375 246.84375 
L 421.2 246.84375 
L 421.2 25.918125 
L 53.74375 25.918125 
z
" style="fill:#ffffff;"/>
   </g>
   <g id="PathCollection_1">
    <defs>
     <path d="M 0 3 
C 0.795609 3 1.55874 2.683901 2.12132 2.12132 
C 2.683901 1.55874 3 0.795609 3 0 
C 3 -0.795609 2.683901 -1.55874 2.12132 -2.12132 
C 1.55874 -2.683901 0.795609 -3 0 -3 
C -0.795609 -3 -1.55874 -2.683901 -2.12132 -2.12132 
C -2.683901 -1.55874 -3 -0.795609 -3 0 
C -3 0.795609 -2.683901 1.55874 -2.12132 2.12132 
C -1.55874 2.683901 -0.795609 3 0 3 
z
" id="m583dfbdb7f" style="stroke:#ff0000;"/>
    </defs>
    <g clip-path="url(#p8b00c5ecf3)">
     <use style="fill:#ff0000;stroke:#ff0000;" x="326.059088" xlink:href="#m583dfbdb7f" y="141.798364"/>
    </g>
   </g>
   <g id="matplotlib.axis_1">
    <g id="xtick_1">
     <g id="line2d_1">
      <defs>
       <path d="M 0 0 
L 0 3.5 
" id="m1d5c5dbd36" style="stroke:#000000;stroke-width:0.8;"/>
      </defs>
      <g>
       <use style="stroke:#000000;stroke-width:0.8;" x="83.982107" xlink:href="#m1d5c5dbd36" y="246.84375"/>
      </g>
     </g>
     <g id="text_1">
      <!-- 0.90 -->
      <g transform="translate(72.849295 261.442187)scale(0.1 -0.1)">
       <defs>
        <path d="M 31.78125 66.40625 
Q 24.171875 66.40625 20.328125 58.90625 
Q 16.5 51.421875 16.5 36.375 
Q 16.5 21.390625 20.328125 13.890625 
Q 24.171875 6.390625 31.78125 6.390625 
Q 39.453125 6.390625 43.28125 13.890625 
Q 47.125 21.390625 47.125 36.375 
Q 47.125 51.421875 43.28125 58.90625 
Q 39.453125 66.40625 31.78125 66.40625 
z
M 31.78125 74.21875 
Q 44.046875 74.21875 50.515625 64.515625 
Q 56.984375 54.828125 56.984375 36.375 
Q 56.984375 17.96875 50.515625 8.265625 
Q 44.046875 -1.421875 31.78125 -1.421875 
Q 19.53125 -1.421875 13.0625 8.265625 
Q 6.59375 17.96875 6.59375 36.375 
Q 6.59375 54.828125 13.0625 64.515625 
Q 19.53125 74.21875 31.78125 74.21875 
z
" id="DejaVuSans-48"/>
        <path d="M 10.6875 12.40625 
L 21 12.40625 
L 21 0 
L 10.6875 0 
z
" id="DejaVuSans-46"/>
        <path d="M 10.984375 1.515625 
L 10.984375 10.5 
Q 14.703125 8.734375 18.5 7.8125 
Q 22.3125 6.890625 25.984375 6.890625 
Q 35.75 6.890625 40.890625 13.453125 
Q 46.046875 20.015625 46.78125 33.40625 
Q 43.953125 29.203125 39.59375 26.953125 
Q 35.25 24.703125 29.984375 24.703125 
Q 19.046875 24.703125 12.671875 31.3125 
Q 6.296875 37.9375 6.296875 49.421875 
Q 6.296875 60.640625 12.9375 67.421875 
Q 19.578125 74.21875 30.609375 74.21875 
Q 43.265625 74.21875 49.921875 64.515625 
Q 56.59375 54.828125 56.59375 36.375 
Q 56.59375 19.140625 48.40625 8.859375 
Q 40.234375 -1.421875 26.421875 -1.421875 
Q 22.703125 -1.421875 18.890625 -0.6875 
Q 15.09375 0.046875 10.984375 1.515625 
z
M 30.609375 32.421875 
Q 37.25 32.421875 41.125 36.953125 
Q 45.015625 41.5 45.015625 49.421875 
Q 45.015625 57.28125 41.125 61.84375 
Q 37.25 66.40625 30.609375 66.40625 
Q 23.96875 66.40625 20.09375 61.84375 
Q 16.21875 57.28125 16.21875 49.421875 
Q 16.21875 41.5 20.09375 36.953125 
Q 23.96875 32.421875 30.609375 32.421875 
z
" id="DejaVuSans-57"/>
       </defs>
       <use xlink:href="#DejaVuSans-48"/>
       <use x="63.623047" xlink:href="#DejaVuSans-46"/>
       <use x="95.410156" xlink:href="#DejaVuSans-57"/>
       <use x="159.033203" xlink:href="#DejaVuSans-48"/>
      </g>
     </g>
    </g>
    <g id="xtick_2">
     <g id="line2d_2">
      <g>
       <use style="stroke:#000000;stroke-width:0.8;" x="154.558486" xlink:href="#m1d5c5dbd36" y="246.84375"/>
      </g>
     </g>
     <g id="text_2">
      <!-- 0.92 -->
      <g transform="translate(143.425674 261.442187)scale(0.1 -0.1)">
       <defs>
        <path d="M 19.1875 8.296875 
L 53.609375 8.296875 
L 53.609375 0 
L 7.328125 0 
L 7.328125 8.296875 
Q 12.9375 14.109375 22.625 23.890625 
Q 32.328125 33.6875 34.8125 36.53125 
Q 39.546875 41.84375 41.421875 45.53125 
Q 43.3125 49.21875 43.3125 52.78125 
Q 43.3125 58.59375 39.234375 62.25 
Q 35.15625 65.921875 28.609375 65.921875 
Q 23.96875 65.921875 18.8125 64.3125 
Q 13.671875 62.703125 7.8125 59.421875 
L 7.8125 69.390625 
Q 13.765625 71.78125 18.9375 73 
Q 24.125 74.21875 28.421875 74.21875 
Q 39.75 74.21875 46.484375 68.546875 
Q 53.21875 62.890625 53.21875 53.421875 
Q 53.21875 48.921875 51.53125 44.890625 
Q 49.859375 40.875 45.40625 35.40625 
Q 44.1875 33.984375 37.640625 27.21875 
Q 31.109375 20.453125 19.1875 8.296875 
z
" id="DejaVuSans-50"/>
       </defs>
       <use xlink:href="#DejaVuSans-48"/>
       <use x="63.623047" xlink:href="#DejaVuSans-46"/>
       <use x="95.410156" xlink:href="#DejaVuSans-57"/>
       <use x="159.033203" xlink:href="#DejaVuSans-50"/>
      </g>
     </g>
    </g>
    <g id="xtick_3">
     <g id="line2d_3">
      <g>
       <use style="stroke:#000000;stroke-width:0.8;" x="225.134865" xlink:href="#m1d5c5dbd36" y="246.84375"/>
      </g>
     </g>
     <g id="text_3">
      <!-- 0.94 -->
      <g transform="translate(214.002053 261.442187)scale(0.1 -0.1)">
       <defs>
        <path d="M 37.796875 64.3125 
L 12.890625 25.390625 
L 37.796875 25.390625 
z
M 35.203125 72.90625 
L 47.609375 72.90625 
L 47.609375 25.390625 
L 58.015625 25.390625 
L 58.015625 17.1875 
L 47.609375 17.1875 
L 47.609375 0 
L 37.796875 0 
L 37.796875 17.1875 
L 4.890625 17.1875 
L 4.890625 26.703125 
z
" id="DejaVuSans-52"/>
       </defs>
       <use xlink:href="#DejaVuSans-48"/>
       <use x="63.623047" xlink:href="#DejaVuSans-46"/>
       <use x="95.410156" xlink:href="#DejaVuSans-57"/>
       <use x="159.033203" xlink:href="#DejaVuSans-52"/>
      </g>
     </g>
    </g>
    <g id="xtick_4">
     <g id="line2d_4">
      <g>
       <use style="stroke:#000000;stroke-width:0.8;" x="295.711245" xlink:href="#m1d5c5dbd36" y="246.84375"/>
      </g>
     </g>
     <g id="text_4">
      <!-- 0.96 -->
      <g transform="translate(284.578432 261.442187)scale(0.1 -0.1)">
       <defs>
        <path d="M 33.015625 40.375 
Q 26.375 40.375 22.484375 35.828125 
Q 18.609375 31.296875 18.609375 23.390625 
Q 18.609375 15.53125 22.484375 10.953125 
Q 26.375 6.390625 33.015625 6.390625 
Q 39.65625 6.390625 43.53125 10.953125 
Q 47.40625 15.53125 47.40625 23.390625 
Q 47.40625 31.296875 43.53125 35.828125 
Q 39.65625 40.375 33.015625 40.375 
z
M 52.59375 71.296875 
L 52.59375 62.3125 
Q 48.875 64.0625 45.09375 64.984375 
Q 41.3125 65.921875 37.59375 65.921875 
Q 27.828125 65.921875 22.671875 59.328125 
Q 17.53125 52.734375 16.796875 39.40625 
Q 19.671875 43.65625 24.015625 45.921875 
Q 28.375 48.1875 33.59375 48.1875 
Q 44.578125 48.1875 50.953125 41.515625 
Q 57.328125 34.859375 57.328125 23.390625 
Q 57.328125 12.15625 50.6875 5.359375 
Q 44.046875 -1.421875 33.015625 -1.421875 
Q 20.359375 -1.421875 13.671875 8.265625 
Q 6.984375 17.96875 6.984375 36.375 
Q 6.984375 53.65625 15.1875 63.9375 
Q 23.390625 74.21875 37.203125 74.21875 
Q 40.921875 74.21875 44.703125 73.484375 
Q 48.484375 72.75 52.59375 71.296875 
z
" id="DejaVuSans-54"/>
       </defs>
       <use xlink:href="#DejaVuSans-48"/>
       <use x="63.623047" xlink:href="#DejaVuSans-46"/>
       <use x="95.410156" xlink:href="#DejaVuSans-57"/>
       <use x="159.033203" xlink:href="#DejaVuSans-54"/>
      </g>
     </g>
    </g>
    <g id="xtick_5">
     <g id="line2d_5">
      <g>
       <use style="stroke:#000000;stroke-width:0.8;" x="366.287624" xlink:href="#m1d5c5dbd36" y="246.84375"/>
      </g>
     </g>
     <g id="text_5">
      <!-- 0.98 -->
      <g transform="translate(355.154811 261.442187)scale(0.1 -0.1)">
       <defs>
        <path d="M 31.78125 34.625 
Q 24.75 34.625 20.71875 30.859375 
Q 16.703125 27.09375 16.703125 20.515625 
Q 16.703125 13.921875 20.71875 10.15625 
Q 24.75 6.390625 31.78125 6.390625 
Q 38.8125 6.390625 42.859375 10.171875 
Q 46.921875 13.96875 46.921875 20.515625 
Q 46.921875 27.09375 42.890625 30.859375 
Q 38.875 34.625 31.78125 34.625 
z
M 21.921875 38.8125 
Q 15.578125 40.375 12.03125 44.71875 
Q 8.5 49.078125 8.5 55.328125 
Q 8.5 64.0625 14.71875 69.140625 
Q 20.953125 74.21875 31.78125 74.21875 
Q 42.671875 74.21875 48.875 69.140625 
Q 55.078125 64.0625 55.078125 55.328125 
Q 55.078125 49.078125 51.53125 44.71875 
Q 48 40.375 41.703125 38.8125 
Q 48.828125 37.15625 52.796875 32.3125 
Q 56.78125 27.484375 56.78125 20.515625 
Q 56.78125 9.90625 50.3125 4.234375 
Q 43.84375 -1.421875 31.78125 -1.421875 
Q 19.734375 -1.421875 13.25 4.234375 
Q 6.78125 9.90625 6.78125 20.515625 
Q 6.78125 27.484375 10.78125 32.3125 
Q 14.796875 37.15625 21.921875 38.8125 
z
M 18.3125 54.390625 
Q 18.3125 48.734375 21.84375 45.5625 
Q 25.390625 42.390625 31.78125 42.390625 
Q 38.140625 42.390625 41.71875 45.5625 
Q 45.3125 48.734375 45.3125 54.390625 
Q 45.3125 60.0625 41.71875 63.234375 
Q 38.140625 66.40625 31.78125 66.40625 
Q 25.390625 66.40625 21.84375 63.234375 
Q 18.3125 60.0625 18.3125 54.390625 
z
" id="DejaVuSans-56"/>
       </defs>
       <use xlink:href="#DejaVuSans-48"/>
       <use x="63.623047" xlink:href="#DejaVuSans-46"/>
       <use x="95.410156" xlink:href="#DejaVuSans-57"/>
       <use x="159.033203" xlink:href="#DejaVuSans-56"/>
      </g>
     </g>
    </g>
    <g id="text_6">
     <!-- $\omega$ -->
     <g transform="translate(233.271875 275.120313)scale(0.1 -0.1)">
      <defs>
       <path d="M 21.390625 -1.421875 
Q 1.125 -1.421875 6.78125 27.59375 
Q 8.984375 39.0625 19.625 54.6875 
L 29.296875 54.6875 
Q 19.234375 39.0625 17 27.34375 
Q 12.796875 6.203125 23.734375 6.203125 
Q 33.84375 6.203125 38.71875 32.46875 
L 47.015625 32.46875 
Q 41.703125 6.0625 51.8125 6.203125 
Q 62.703125 6.296875 66.796875 27.34375 
Q 69.046875 39.0625 65.140625 54.6875 
L 74.8125 54.6875 
Q 79.296875 39.0625 77.09375 27.59375 
Q 71.53125 -1.46875 51.21875 -1.421875 
Q 37.9375 -1.375 39.109375 13.1875 
Q 34.28125 -1.421875 21.390625 -1.421875 
z
" id="DejaVuSans-Oblique-969"/>
      </defs>
      <use transform="translate(0 0.3125)" xlink:href="#DejaVuSans-Oblique-969"/>
     </g>
    </g>
   </g>
   <g id="matplotlib.axis_2">
    <g id="ytick_1">
     <g id="line2d_6">
      <defs>
       <path d="M 0 0 
L -3.5 0 
" id="ma9c2e7165a" style="stroke:#000000;stroke-width:0.8;"/>
      </defs>
      <g>
       <use style="stroke:#000000;stroke-width:0.8;" x="53.74375" xlink:href="#ma9c2e7165a" y="243.283305"/>
      </g>
     </g>
     <g id="text_7">
      <!-- 0.70 -->
      <g transform="translate(24.478125 247.082523)scale(0.1 -0.1)">
       <defs>
        <path d="M 8.203125 72.90625 
L 55.078125 72.90625 
L 55.078125 68.703125 
L 28.609375 0 
L 18.3125 0 
L 43.21875 64.59375 
L 8.203125 64.59375 
z
" id="DejaVuSans-55"/>
       </defs>
       <use xlink:href="#DejaVuSans-48"/>
       <use x="63.623047" xlink:href="#DejaVuSans-46"/>
       <use x="95.410156" xlink:href="#DejaVuSans-55"/>
       <use x="159.033203" xlink:href="#DejaVuSans-48"/>
      </g>
     </g>
    </g>
    <g id="ytick_2">
     <g id="line2d_7">
      <g>
       <use style="stroke:#000000;stroke-width:0.8;" x="53.74375" xlink:href="#ma9c2e7165a" y="205.668427"/>
      </g>
     </g>
     <g id="text_8">
      <!-- 0.75 -->
      <g transform="translate(24.478125 209.467646)scale(0.1 -0.1)">
       <defs>
        <path d="M 10.796875 72.90625 
L 49.515625 72.90625 
L 49.515625 64.59375 
L 19.828125 64.59375 
L 19.828125 46.734375 
Q 21.96875 47.46875 24.109375 47.828125 
Q 26.265625 48.1875 28.421875 48.1875 
Q 40.625 48.1875 47.75 41.5 
Q 54.890625 34.8125 54.890625 23.390625 
Q 54.890625 11.625 47.5625 5.09375 
Q 40.234375 -1.421875 26.90625 -1.421875 
Q 22.3125 -1.421875 17.546875 -0.640625 
Q 12.796875 0.140625 7.71875 1.703125 
L 7.71875 11.625 
Q 12.109375 9.234375 16.796875 8.0625 
Q 21.484375 6.890625 26.703125 6.890625 
Q 35.15625 6.890625 40.078125 11.328125 
Q 45.015625 15.765625 45.015625 23.390625 
Q 45.015625 31 40.078125 35.4375 
Q 35.15625 39.890625 26.703125 39.890625 
Q 22.75 39.890625 18.8125 39.015625 
Q 14.890625 38.140625 10.796875 36.28125 
z
" id="DejaVuSans-53"/>
       </defs>
       <use xlink:href="#DejaVuSans-48"/>
       <use x="63.623047" xlink:href="#DejaVuSans-46"/>
       <use x="95.410156" xlink:href="#DejaVuSans-55"/>
       <use x="159.033203" xlink:href="#DejaVuSans-53"/>
      </g>
     </g>
    </g>
    <g id="ytick_3">
     <g id="line2d_8">
      <g>
       <use style="stroke:#000000;stroke-width:0.8;" x="53.74375" xlink:href="#ma9c2e7165a" y="168.053549"/>
      </g>
     </g>
     <g id="text_9">
      <!-- 0.80 -->
      <g transform="translate(24.478125 171.852768)scale(0.1 -0.1)">
       <use xlink:href="#DejaVuSans-48"/>
       <use x="63.623047" xlink:href="#DejaVuSans-46"/>
       <use x="95.410156" xlink:href="#DejaVuSans-56"/>
       <use x="159.033203" xlink:href="#DejaVuSans-48"/>
      </g>
     </g>
    </g>
    <g id="ytick_4">
     <g id="line2d_9">
      <g>
       <use style="stroke:#000000;stroke-width:0.8;" x="53.74375" xlink:href="#ma9c2e7165a" y="130.438671"/>
      </g>
     </g>
     <g id="text_10">
      <!-- 0.85 -->
      <g transform="translate(24.478125 134.23789)scale(0.1 -0.1)">
       <use xlink:href="#DejaVuSans-48"/>
       <use x="63.623047" xlink:href="#DejaVuSans-46"/>
       <use x="95.410156" xlink:href="#DejaVuSans-56"/>
       <use x="159.033203" xlink:href="#DejaVuSans-53"/>
      </g>
     </g>
    </g>
    <g id="ytick_5">
     <g id="line2d_10">
      <g>
       <use style="stroke:#000000;stroke-width:0.8;" x="53.74375" xlink:href="#ma9c2e7165a" y="92.823794"/>
      </g>
     </g>
     <g id="text_11">
      <!-- 0.90 -->
      <g transform="translate(24.478125 96.623012)scale(0.1 -0.1)">
       <use xlink:href="#DejaVuSans-48"/>
       <use x="63.623047" xlink:href="#DejaVuSans-46"/>
       <use x="95.410156" xlink:href="#DejaVuSans-57"/>
       <use x="159.033203" xlink:href="#DejaVuSans-48"/>
      </g>
     </g>
    </g>
    <g id="ytick_6">
     <g id="line2d_11">
      <g>
       <use style="stroke:#000000;stroke-width:0.8;" x="53.74375" xlink:href="#ma9c2e7165a" y="55.208916"/>
      </g>
     </g>
     <g id="text_12">
      <!-- 0.95 -->
      <g transform="translate(24.478125 59.008135)scale(0.1 -0.1)">
       <use xlink:href="#DejaVuSans-48"/>
       <use x="63.623047" xlink:href="#DejaVuSans-46"/>
       <use x="95.410156" xlink:href="#DejaVuSans-57"/>
       <use x="159.033203" xlink:href="#DejaVuSans-53"/>
      </g>
     </g>
    </g>
    <g id="text_13">
     <!-- $\lambda$ -->
     <g transform="translate(18.398438 139.380937)rotate(-90)scale(0.1 -0.1)">
      <defs>
       <path d="M 36.71875 67.4375 
L 48.828125 0 
L 39.3125 0 
L 31.84375 40.4375 
L 5.125 0 
L -4.390625 0 
L 29.734375 52.4375 
L 28.03125 62.109375 
Q 26.953125 68.265625 21.734375 68.265625 
L 17.046875 68.265625 
L 18.5 75.984375 
L 24.21875 75.875 
Q 35.203125 75.734375 36.71875 67.4375 
z
" id="DejaVuSans-Oblique-955"/>
      </defs>
      <use transform="translate(0 0.015625)" xlink:href="#DejaVuSans-Oblique-955"/>
     </g>
    </g>
   </g>
   <g id="line2d_12">
    <path clip-path="url(#p8b00c5ecf3)" d="M 83.982107 168.053549 
L 87.106466 170.868247 
L 90.55035 173.663931 
L 94.312591 176.43998 
L 98.392061 179.195739 
L 103.359242 182.270814 
L 108.724867 185.318169 
L 114.487291 188.336554 
L 120.644828 191.324546 
L 127.947782 194.606934 
L 135.733757 197.84728 
L 143.999942 201.042629 
L 152.743216 204.189488 
L 161.960041 207.283686 
L 172.640636 210.620483 
L 183.8829 213.879267 
L 195.679094 217.049725 
L 208.019708 220.118714 
L 220.892834 223.069154 
L 233.045158 225.629699 
L 245.610746 228.051328 
L 257.258015 230.087451 
L 269.208092 231.957643 
L 280.067024 233.44909 
L 291.128355 234.740936 
L 300.953438 235.667971 
L 309.466879 236.275545 
L 318.047444 236.670256 
L 325.234089 236.800397 
L 332.437644 236.709437 
L 338.200321 236.444626 
L 343.950504 235.974648 
L 349.674403 235.259198 
L 353.940185 234.531364 
L 358.173562 233.61067 
L 362.364839 232.465322 
L 366.50267 231.056934 
L 369.225034 229.949281 
L 371.913228 228.688096 
L 374.562176 227.255009 
L 377.166187 225.629147 
L 379.718869 223.786838 
L 382.213041 221.701324 
L 384.640626 219.342519 
L 386.992544 216.676867 
L 389.258614 213.667395 
L 391.42744 210.274 
L 393.486331 206.454277 
L 395.421245 202.164895 
L 397.216796 197.363907 
L 398.85635 192.01416 
L 400.322242 186.087901 
L 401.596163 179.572663 
L 402.659743 172.477756 
L 403.495332 164.840557 
L 404.086965 156.731075 
L 404.421402 148.25289 
L 404.489145 139.539331 
L 404.285232 130.744209 
L 403.809679 122.028529 
L 403.06747 113.545767 
L 402.068112 105.428829 
L 400.824832 97.781144 
L 399.353585 90.673139 
L 397.672021 84.143293 
L 395.798547 78.202608 
L 393.751559 72.840659 
L 391.548864 68.031871 
L 389.2073 63.741114 
L 386.742507 59.928191 
L 384.168823 56.551153 
L 381.499268 53.568581 
L 378.745587 50.941021 
L 375.91832 48.631796 
L 373.026907 46.607404 
L 370.079776 44.837593 
L 367.084453 43.295285 
L 364.047658 41.956375 
L 360.975396 40.799482 
L 357.873035 39.805687 
L 353.173432 38.584775 
L 348.430992 37.645209 
L 343.657819 36.946649 
L 338.864258 36.455513 
L 332.456314 36.075438 
L 326.045581 35.960199 
L 319.646772 36.066292 
L 311.683479 36.457561 
L 303.777441 37.086359 
L 295.944527 37.910504 
L 286.659565 39.11104 
L 277.516344 40.500478 
L 267.047238 42.314413 
L 255.364972 44.590951 
L 244.003085 47.039284 
L 231.622498 49.954769 
L 219.682063 53.00415 
L 208.192987 56.158435 
L 195.966154 59.759328 
L 184.313261 63.438803 
L 173.238519 67.178661 
L 162.743975 70.964621 
L 152.830051 74.785328 
L 143.495941 78.631625 
L 134.739919 82.496049 
L 127.351776 85.984426 
L 120.427806 89.478734 
L 113.965633 92.975765 
L 107.962695 96.47276 
L 102.416299 99.967332 
L 97.323665 103.457403 
L 93.175528 106.554431 
L 89.381678 109.645322 
L 85.940113 112.729055 
L 82.84884 115.804703 
L 80.105887 118.871429 
L 77.990004 121.546888 
L 76.138034 124.214451 
L 74.548717 126.873674 
L 73.220819 129.52414 
L 72.153134 132.165458 
L 71.344483 134.797254 
L 70.793716 137.419173 
L 70.499713 140.030873 
L 70.461382 142.632026 
L 70.677664 145.222311 
L 71.14753 147.801413 
L 71.869981 150.369022 
L 72.844045 152.92483 
L 74.068782 155.468528 
L 75.543277 157.999805 
L 77.266643 160.518345 
L 79.238015 163.023821 
L 81.456553 165.515901 
L 84.293627 168.347143 
L 87.451267 171.159886 
L 90.928303 173.953554 
L 94.723587 176.727528 
L 98.835983 179.481138 
L 103.840069 182.553703 
L 109.242448 185.598437 
L 115.041475 188.614068 
L 121.235453 191.599169 
L 128.578698 194.878155 
L 136.404744 198.114877 
L 144.710751 201.30633 
L 153.49357 204.448974 
L 162.749624 207.538575 
L 173.472936 210.869763 
L 184.757395 214.122265 
L 196.595135 217.285555 
L 208.976472 220.346206 
L 220.693836 223.025042 
L 232.839088 225.587704 
L 245.397871 228.011873 
L 257.039317 230.050791 
L 268.983922 231.92438 
L 279.838377 233.419575 
L 290.895688 234.71605 
L 300.717738 235.648146 
L 309.229031 236.261053 
L 317.807974 236.662321 
L 324.993762 236.799139 
L 332.197015 236.716303 
L 337.959938 236.459311 
L 343.710891 235.998655 
L 349.436185 235.294385 
L 353.703504 234.576461 
L 357.938919 233.667291 
L 362.132816 232.535415 
L 366.273946 231.142813 
L 368.998946 230.047227 
L 371.690175 228.799542 
L 374.342605 227.381582 
L 376.9506 225.772699 
L 379.507828 223.949459 
L 382.007178 221.885361 
L 384.44065 219.550611 
L 386.799256 216.911943 
L 389.072908 213.932664 
L 391.250318 210.57293 
L 393.318903 206.790475 
L 395.264736 202.541967 
L 397.072541 197.785232 
L 398.725783 192.482551 
L 400.206868 186.605179 
L 401.497524 180.139139 
L 402.579358 173.091663 
L 403.434627 165.497576 
L 404.047182 157.424038 
L 404.403518 148.97193 
L 404.493789 140.272377 
L 404.312633 131.477947 
L 403.859643 122.749594 
L 403.139401 114.241965 
L 402.161061 106.090075 
L 400.937577 98.400059 
L 399.484714 91.245099 
L 397.820018 84.666212 
L 395.961867 78.676476 
L 393.92868 73.267013 
L 391.738332 68.413258 
L 389.407753 64.080747 
L 386.952689 60.229523 
L 384.387588 56.817693 
L 381.725579 53.803723 
L 378.978508 51.147955 
L 376.157017 48.813468 
L 373.270627 46.766489 
L 370.32785 44.976499 
L 367.336288 43.416137 
L 364.302722 42.061093 
L 361.233212 40.889757 
L 358.133177 39.883008 
L 353.436366 38.645074 
L 348.695989 37.69094 
L 343.924246 36.979891 
L 339.131574 36.478005 
L 334.326948 36.156875 
L 327.915391 35.969292 
L 321.511742 36.014768 
L 315.12891 36.256067 
L 307.195918 36.787713 
L 299.329576 37.531736 
L 289.997621 38.653648 
L 280.801397 39.979328 
L 270.264492 41.733275 
L 259.952533 43.666925 
L 248.461774 46.052095 
L 237.301006 48.586261 
L 225.155153 51.577749 
L 213.455952 54.686584 
L 202.212675 57.887666 
L 190.262549 61.529105 
L 178.888708 65.239763 
L 168.094239 69.003485 
L 157.880348 72.807507 
L 148.246821 76.641607 
L 139.192373 80.497506 
L 130.714917 84.368415 
L 123.576324 87.860405 
L 116.900654 91.356542 
L 110.685424 94.853871 
L 104.927997 98.349841 
L 99.625627 101.842238 
L 95.292162 104.942018 
L 91.314028 108.036239 
L 87.689223 111.12382 
L 84.415744 114.203788 
L 81.49161 117.27526 
L 78.91486 120.337432 
L 76.94365 123.008624 
L 75.23566 125.671672 
L 73.789644 128.326149 
L 72.604384 130.971653 
L 71.678687 133.607801 
L 71.011391 136.234232 
L 70.60136 138.850597 
L 70.447493 141.456562 
L 70.548714 144.051803 
L 70.903981 146.636003 
L 71.512282 149.208848 
L 72.372632 151.770032 
L 73.484077 154.319247 
L 74.84569 156.856182 
L 76.456572 159.380522 
L 78.315848 161.891948 
L 80.422668 164.390131 
L 83.132514 167.228541 
L 86.163396 170.048673 
L 89.514133 172.849963 
L 93.183571 175.631809 
L 97.170569 178.393562 
L 102.034118 181.475643 
L 107.296531 184.530305 
L 112.956177 187.556331 
L 119.011376 190.552346 
L 126.201171 193.844161 
L 133.874612 197.09457 
L 142.028939 200.300707 
L 150.661119 203.459231 
L 159.767724 206.566142 
L 170.328238 209.918375 
L 181.451874 213.194484 
L 193.131224 216.384685 
L 205.357185 219.476485 
L 218.118416 222.453739 
L 230.172051 225.043263 
L 242.642625 227.499674 
L 255.512785 229.795019 
L 267.419196 231.692015 
L 278.242312 233.2128 
L 289.271441 234.541045 
L 299.072124 235.507727 
L 308.991608 236.246596 
L 317.568926 236.654359 
L 324.753852 236.797802 
L 331.95679 236.722995 
L 337.719946 236.473762 
L 343.471648 236.022322 
L 349.198316 235.329131 
L 353.467153 234.621033 
L 357.704573 233.723253 
L 361.901051 232.604674 
L 366.045437 231.227695 
L 370.124623 229.546766 
L 372.800328 228.230481 
L 375.434964 226.735637 
L 378.022616 225.040456 
L 380.55664 223.120278 
L 383.029565 220.947237 
L 385.432996 218.490103 
L 387.757497 215.714185 
L 389.992493 212.581421 
L 392.126166 209.050792 
L 394.145377 205.079435 
L 396.035633 200.624143 
L 397.781117 195.644132 
L 399.364818 190.104804 
L 400.768806 183.982809 
L 401.974676 177.272175 
L 402.964201 169.990966 
L 403.72018 162.187025 
L 404.227437 153.941641 
L 404.473876 145.369023 
L 404.451435 136.610579 
L 404.15678 127.824135 
L 403.591609 119.169813 
L 402.762481 110.795491 
L 401.680245 102.824994 
L 400.35915 95.350921 
L 398.815828 88.432724 
L 397.068279 82.099124 
L 395.134984 76.353277 
L 393.034194 71.179029 
L 390.783428 66.547053 
L 388.399144 62.420095 
L 385.896555 58.757055 
L 383.289558 55.515945 
L 380.590738 52.65593 
L 377.811437 50.138327 
L 374.961809 47.927556 
L 372.050949 45.991172 
L 369.086972 44.300011 
L 366.077127 42.828007 
L 363.027887 41.551989 
L 359.945035 40.451427 
L 355.268904 39.090422 
L 350.543915 38.031184 
L 345.783045 37.229978 
L 340.997381 36.650388 
L 336.19643 36.26201 
L 329.785368 35.998172 
L 323.37798 35.979876 
L 316.987882 36.167449 
L 309.041706 36.643235 
L 301.158448 37.341328 
L 291.802235 38.418303 
L 282.578303 39.707648 
L 272.005652 41.427507 
L 261.655078 43.333908 
L 250.117503 45.694281 
L 238.907751 48.208805 
L 226.704882 51.182865 
L 214.947203 54.278048 
L 203.644427 57.468373 
L 191.627395 61.100487 
L 180.186138 64.803977 
L 169.324 68.562222 
L 159.042379 72.362112 
L 149.341208 76.193164 
L 140.219312 80.046895 
L 131.674687 83.916362 
L 124.47593 87.407573 
L 117.740404 90.903347 
L 111.465649 94.400672 
L 105.649046 97.896948 
L 100.287859 101.389923 
L 95.379286 104.877624 
L 91.393784 107.971973 
L 87.761651 111.059703 
L 84.480888 114.139838 
L 81.54951 117.211495 
L 78.965556 120.273868 
L 76.988076 122.945247 
L 75.273845 125.608494 
L 73.821619 128.263179 
L 72.630176 130.9089 
L 71.698325 133.545274 
L 71.024901 136.171939 
L 70.60877 138.788546 
L 70.448828 141.394762 
L 70.544 143.99026 
L 70.893242 146.574726 
L 71.495541 149.147846 
L 72.349912 151.709311 
L 73.455401 154.258814 
L 74.81108 156.796044 
L 76.416048 159.320689 
L 78.269432 161.832426 
L 80.37038 164.330927 
L 83.073539 167.169711 
L 86.097758 169.990229 
L 89.441858 172.791916 
L 93.104682 175.574172 
L 97.08509 178.33635 
L 101.941253 181.418927 
L 107.196312 184.474107 
L 112.848632 187.500672 
L 118.896539 190.497257 
L 126.078271 193.78974 
L 133.743691 197.040858 
L 141.89005 200.247764 
L 150.51431 203.407104 
L 159.613055 206.514907 
L 170.164998 209.868209 
L 181.280171 213.145538 
L 192.951183 216.337127 
L 205.168957 219.430517 
L 217.922186 222.409628 
L 229.968757 225.001169 
L 242.432527 227.460009 
L 255.296199 229.758277 
L 267.197133 231.658564 
L 278.015749 233.18294 
L 289.04081 234.515593 
L 298.838392 235.487108 
L 308.755322 236.231972 
L 317.330999 236.646167 
L 324.515044 236.796156 
L 331.717645 236.729299 
L 337.481008 236.487726 
L 343.233429 236.045399 
L 348.96143 235.36315 
L 353.231748 234.664747 
L 357.471135 233.778221 
L 361.670146 232.672777 
L 365.81773 231.3112 
L 369.900896 229.648432 
L 372.57976 228.34607 
L 375.218015 226.866835 
L 377.809803 225.189177 
L 380.348545 223.288687 
L 382.826842 221.137768 
L 385.236379 218.705486 
L 387.567811 215.957436 
L 389.810663 212.855812 
L 391.953221 209.359821 
L 393.982459 205.426705 
L 395.883997 201.01319 
L 397.642124 196.078171 
L 399.23992 190.586358 
L 400.659518 184.513248 
L 401.882529 177.851173 
L 402.89068 170.615965 
L 403.666653 162.852794 
L 404.19506 154.640155 
L 404.463511 146.089662 
L 404.46358 137.340819 
L 404.191524 128.550593 
L 403.648622 119.879447 
L 402.841047 111.476815 
L 401.77932 103.468852 
L 400.477448 95.950889 
L 398.951904 88.985088 
L 397.220611 82.602543 
L 395.302036 76.808307 
L 393.214473 71.587597 
L 390.975519 66.911965 
L 388.601726 62.744637 
L 386.108415 59.044707 
L 383.509593 55.770183 
L 380.817957 52.880023 
L 378.04494 50.335412 
L 375.200798 48.10045 
L 372.294706 46.14245 
L 369.334859 44.431969 
L 366.328573 42.942694 
L 363.282382 41.651224 
L 360.202123 40.536821 
L 357.093018 39.581134 
L 352.385373 38.410257 
L 347.637047 37.513459 
L 342.859822 36.851647 
L 338.063783 36.392224 
L 331.654618 36.047982 
L 325.244656 35.962589 
L 318.848269 36.093749 
L 310.889922 36.510985 
L 302.990572 37.161046 
L 293.610895 38.19113 
L 284.359887 39.442645 
L 273.752071 41.127082 
L 263.363336 43.005222 
L 251.779345 45.339923 
L 240.520915 47.834142 
L 228.26129 50.790207 
L 216.445326 53.871302 
L 205.083194 57.050534 
L 192.999368 60.673036 
L 181.490772 64.369133 
L 170.561016 68.121722 
L 160.211697 71.917331 
L 150.442898 75.745215 
L 141.253557 79.596681 
L 132.641755 83.464626 
L 125.382821 86.954997 
L 118.587422 90.450358 
L 112.253123 93.947634 
L 106.377322 97.444178 
L 100.957298 100.937691 
L 95.990252 104.426174 
L 91.953084 107.521396 
L 88.269576 110.610152 
L 84.937729 113.691449 
L 81.955554 116.764392 
L 79.321087 119.828164 
L 77.299637 122.500852 
L 75.541647 125.165483 
L 74.045866 127.821622 
L 72.81107 130.468861 
L 71.836062 133.106817 
L 71.119674 135.735123 
L 70.660765 138.353428 
L 70.458227 140.961395 
L 70.51098 143.558699 
L 70.817975 146.145022 
L 71.378193 148.720052 
L 72.190645 151.283477 
L 73.254372 153.834992 
L 74.568441 156.374287 
L 76.131948 158.901048 
L 77.944014 161.414956 
L 80.003783 163.915684 
L 82.660049 166.757083 
L 85.637549 169.580296 
L 88.935099 172.384763 
L 92.55154 175.169888 
L 96.485731 177.935033 
L 101.290097 181.021075 
L 106.493567 184.079867 
L 112.094513 187.110213 
L 118.091264 190.110761 
L 125.216428 193.407901 
L 132.825585 196.663977 
L 140.916012 199.876193 
L 149.484716 203.041274 
L 158.528318 206.155301 
L 168.042974 209.21362 
L 179.047786 212.506622 
L 190.610001 215.715969 
L 202.720913 218.829815 
L 215.369732 221.83294 
L 227.324036 224.450253 
L 239.698753 226.9399 
L 252.4775 229.275772 
L 264.306514 231.217641 
L 276.426037 232.971666 
L 287.422352 234.334895 
L 297.197936 235.339602 
L 307.096617 236.125812 
L 315.660418 236.584094 
L 322.837889 236.778928 
L 330.037645 236.766497 
L 337.242361 236.501357 
L 342.99548 236.068077 
L 348.724788 235.396668 
L 352.996562 234.707868 
L 357.237886 233.832491 
L 361.439394 232.740042 
L 365.590131 231.393702 
L 369.677224 229.748899 
L 372.359205 228.460307 
L 375.001033 226.996512 
L 377.596905 225.336187 
L 380.140308 223.45516 
L 382.623914 221.326138 
L 385.039485 218.918432 
L 387.377767 216.197932 
L 389.628382 213.127109 
L 391.779723 209.66542 
L 393.818876 205.770178 
L 395.731571 201.398095 
L 397.502206 196.50776 
L 399.113952 191.063218 
L 400.549007 185.038872 
L 401.789007 178.425422 
L 402.815642 171.236459 
L 403.611474 163.514573 
L 404.160919 155.33542 
L 404.451297 146.807999 
L 404.473822 138.069831 
L 404.224345 129.276931 
L 403.703726 120.590058 
L 402.91775 112.160028 
L 401.876605 104.115313 
L 400.594047 96.553951 
L 399.086384 89.540822 
L 397.371454 83.109443 
L 395.46771 77.266793 
L 393.393483 71.999488 
L 391.166442 67.279991 
L 388.803237 63.072042 
L 386.319293 59.334953 
L 383.728728 56.026733 
L 381.044344 53.106207 
L 378.277676 50.534344 
L 375.439075 48.274989 
L 372.537801 46.295182 
L 369.582127 44.565209 
L 366.579443 43.058483 
L 363.536337 41.751429 
L 360.458703 40.623058 
L 357.351811 39.654843 
L 352.646804 38.467511 
L 347.900408 37.556634 
L 343.124505 36.882739 
L 338.329267 36.412901 
L 331.92049 36.056874 
L 325.51026 35.96166 
L 319.113062 36.084577 
L 311.153072 36.49326 
L 303.251505 37.136314 
L 293.868562 38.159567 
L 284.613761 39.405577 
L 274.000998 41.084865 
L 263.606879 42.9589 
L 252.016327 45.289874 
L 240.751007 47.781149 
L 228.483338 50.734608 
L 216.659109 53.813662 
L 205.288553 56.991287 
L 193.195245 60.612397 
L 181.677086 64.307422 
L 170.737724 68.059191 
L 160.378787 71.854183 
L 150.600378 75.681604 
L 141.401453 79.532738 
L 132.780104 83.40046 
L 125.512617 86.890705 
L 118.708707 90.386002 
L 112.365945 93.883267 
L 106.481728 97.379845 
L 101.053339 100.873434 
L 96.077981 104.362025 
L 92.033469 107.457369 
L 88.342658 110.546267 
L 85.003549 113.627727 
L 82.014153 116.700851 
L 79.372506 119.764819 
L 77.344806 122.437692 
L 75.580595 125.102518 
L 74.078622 127.758862 
L 72.837664 130.406316 
L 71.856521 133.044495 
L 71.134025 135.673033 
L 70.669036 138.291578 
L 70.460442 140.899794 
L 70.507165 143.497355 
L 70.808154 146.083941 
L 71.362391 148.65924 
L 72.168886 151.222944 
L 73.226676 153.774744 
L 74.534831 156.31433 
L 76.092444 158.84139 
L 77.898637 161.355606 
L 79.952554 163.856649 
L 82.602155 166.698418 
L 85.573013 169.522012 
L 88.863947 172.326873 
L 92.473796 175.112404 
L 96.401418 177.877969 
L 101.19842 180.9645 
L 106.394557 184.023803 
L 111.9882 187.054683 
L 117.97768 190.055792 
L 125.094801 193.353587 
L 132.69596 196.610365 
L 140.778434 199.823329 
L 149.339238 202.989218 
L 158.375007 206.104139 
L 167.881895 209.163426 
L 178.878245 212.457592 
L 190.432123 215.668283 
L 202.534851 218.783684 
L 215.175652 221.788586 
L 227.122873 224.407842 
L 239.490746 226.899798 
L 252.262948 229.238456 
L 264.086415 231.183437 
L 276.200792 232.94128 
L 287.192982 234.308786 
L 296.965389 235.318094 
L 306.861412 236.110041 
L 315.423462 236.574448 
L 322.599933 236.775493 
L 329.7992 236.77057 
L 337.004065 236.514669 
L 342.757857 236.09033 
L 348.488442 235.429664 
L 352.761645 234.750371 
L 357.004874 233.886022 
L 361.208844 232.806445 
L 365.362695 231.475207 
L 369.45367 229.848185 
L 372.138732 228.57322 
L 374.784092 227.124696 
L 377.384003 225.481508 
L 379.932011 223.619742 
L 382.420861 221.512351 
L 384.842396 219.128956 
L 387.187449 216.435729 
L 389.44574 213.395425 
L 391.605767 209.967673 
L 393.654724 206.109967 
L 395.578458 201.77897 
L 397.36147 196.932992 
L 398.98703 191.535476 
L 400.437401 185.559731 
L 401.694243 178.994855 
L 402.739213 171.852344 
L 403.554768 164.172164 
L 404.125129 156.027165 
L 404.437339 147.523686 
L 404.482255 138.797203 
L 404.255324 130.0027 
L 403.756988 121.301087 
L 402.992638 112.844559 
L 401.972128 104.763791 
L 400.708956 97.159516 
L 399.219258 90.099345 
L 397.520782 83.619234 
L 395.631961 77.728133 
L 393.571159 72.414105 
L 391.356116 67.650568 
L 389.003574 63.401807 
L 386.529067 59.627361 
L 383.946819 56.285255 
L 381.269742 53.334188 
L 378.509477 50.734898 
L 375.676463 48.450994 
L 372.780051 46.449234 
L 369.828589 44.69965 
L 366.829534 43.175422 
L 363.789541 41.852685 
L 360.714558 40.710274 
L 357.609903 39.729468 
L 352.907569 38.525601 
L 348.163135 37.600588 
L 343.388589 36.914535 
L 338.59419 36.43419 
L 332.185838 36.066302 
L 325.775374 35.961209 
L 319.377396 36.075824 
L 311.415795 36.475908 
L 303.512039 37.111923 
L 294.12586 38.128313 
L 284.867292 39.368794 
L 274.249613 41.042911 
L 263.850137 42.912827 
L 252.253053 45.240064 
L 240.980868 47.728385 
L 228.705187 50.679227 
L 216.872719 53.756235 
L 205.493768 56.932249 
L 193.391007 60.551963 
L 181.863314 64.245914 
L 170.914375 67.996859 
L 160.545848 71.791224 
L 150.757855 75.618183 
L 141.549371 79.468986 
L 132.918501 83.336481 
L 125.642484 86.8266 
L 118.830087 90.321832 
L 112.478883 93.819083 
L 106.586274 97.315694 
L 101.149544 100.809353 
L 96.165896 104.298051 
L 92.114058 107.393516 
L 88.415963 110.482557 
L 85.069611 113.564178 
L 82.073013 116.637482 
L 79.424204 119.701646 
L 77.390269 122.374703 
L 75.619854 125.039722 
L 74.111706 127.69627 
L 72.864601 130.343938 
L 71.877339 132.98234 
L 71.148752 135.611108 
L 70.677698 138.229892 
L 70.463066 140.838354 
L 70.503775 143.436167 
L 70.798775 146.023015 
L 71.347045 148.598584 
L 72.147596 151.162564 
L 73.199466 153.714648 
L 74.501721 156.254526 
L 76.053457 158.781884 
L 77.853792 161.296406 
L 79.901871 163.797763 
L 82.544824 166.639901 
L 85.509059 169.463875 
L 88.793394 172.269128 
L 92.396667 175.055064 
L 96.317738 177.821047 
L 101.107397 180.908066 
L 106.296221 183.967879 
L 111.882582 186.999291 
L 117.864809 190.000958 
L 124.973912 193.299411 
L 132.567094 196.556885 
L 140.64164 199.7706 
L 149.194566 202.937295 
L 158.222509 206.053078 
L 167.721643 209.113322 
L 178.709566 212.40868 
L 190.255125 215.620695 
L 202.349672 218.737611 
L 214.982485 221.744323 
L 226.922632 224.365485 
L 239.283669 226.859725 
L 252.049344 229.201177 
L 263.86726 231.149213 
L 275.9765 232.91088 
L 286.964557 234.282593 
L 296.733786 235.296494 
L 306.627146 236.094132 
L 315.187427 236.564586 
L 322.362879 236.771776 
L 329.56164 236.774311 
L 336.76662 236.527518 
L 342.52106 236.112048 
L 348.252888 235.462002 
L 352.52749 234.792113 
L 356.772589 233.938672 
L 360.978976 232.871807 
L 365.135884 231.555455 
L 369.230672 229.945981 
L 371.918765 228.684461 
L 374.5676 227.251008 
L 377.171484 225.624736 
L 379.72403 223.781965 
L 382.218048 221.69594 
L 384.64546 219.336533 
L 386.997186 216.670211 
L 389.263042 213.659991 
L 391.43163 210.265783 
L 393.490256 206.44517 
L 395.424876 202.154821 
L 397.220103 197.352801 
L 398.859297 192.00195 
L 400.324795 186.074577 
L 401.598288 179.558243 
L 402.661406 172.462305 
L 403.496502 164.824205 
L 404.087616 156.713995 
L 404.421515 148.23535 
L 404.488711 139.521639 
L 404.284252 130.726697 
L 403.808162 122.011521 
L 403.065439 113.529522 
L 402.065593 105.413557 
L 400.821859 97.767014 
L 399.350195 90.660236 
L 397.668253 84.131648 
L 395.79444 78.192207 
L 393.74715 72.831452 
L 391.54419 68.023786 
L 389.202394 63.734067 
L 386.737402 59.922085 
L 384.163545 56.545909 
L 381.493844 53.564102 
L 378.740039 50.937217 
L 375.91267 48.628593 
L 373.021168 46.604736 
L 370.073963 44.835405 
L 367.078581 43.293528 
L 364.04174 41.954999 
L 360.969443 40.798447 
L 357.867058 39.80496 
L 353.167439 38.584438 
L 348.425005 37.645183 
L 343.651847 36.946899 
L 338.858312 36.455999 
L 332.450418 36.076182 
L 326.03975 35.961149 
L 319.641014 36.067428 
L 311.677828 36.458883 
L 303.771909 37.087828 
L 295.939122 37.912093 
L 286.654324 39.112746 
L 277.511274 40.50228 
L 267.042377 42.316302 
L 255.360357 44.592913 
L 243.998721 47.041301 
L 231.618421 49.956835 
L 219.678275 53.006253 
L 208.189491 56.160562 
L 195.962982 59.761472 
L 184.310413 63.440957 
L 173.235993 67.18082 
L 162.741768 70.966786 
L 152.828161 74.787493 
L 143.494367 78.633784 
L 134.738658 82.498201 
L 127.350794 85.98657 
L 120.427101 89.480869 
L 113.965202 92.97789 
L 107.962535 96.474876 
L 102.416408 99.969439 
L 97.32404 103.459499 
L 93.176138 106.556517 
L 89.382522 109.647398 
L 85.94119 112.731117 
L 82.850148 115.806753 
L 80.107423 118.873465 
L 77.99174 121.548913 
L 76.139967 124.216465 
L 74.550847 126.875676 
L 73.223144 129.526131 
L 72.155654 132.167436 
L 71.347195 134.799221 
L 70.79662 137.421128 
L 70.502806 140.032817 
L 70.464665 142.633958 
L 70.681136 145.22423 
L 71.15119 147.80332 
L 71.873828 150.370916 
L 72.848079 152.926711 
L 74.073001 155.470396 
L 75.547681 158.001659 
L 77.271231 160.520183 
L 79.242786 163.025645 
L 81.461506 165.51771 
L 84.298787 168.348933 
L 87.456633 171.161657 
L 90.933873 173.955308 
L 94.729361 176.729261 
L 98.841958 179.48285 
L 103.84627 182.555393 
L 109.248873 185.600101 
L 115.04812 188.615705 
L 121.242318 191.600779 
L 128.585804 194.87973 
L 136.412087 198.116416 
L 144.718335 201.30784 
L 153.50139 204.45045 
L 162.75768 207.540013 
L 173.481245 210.871154 
L 184.76595 214.123599 
L 196.60393 217.286825 
L 208.985501 220.347406 
L 220.703066 223.026161 
L 232.84851 225.588729 
L 245.407473 228.01279 
L 257.049066 230.051585 
L 268.993803 231.925027 
L 279.848358 233.42006 
L 290.905748 234.716336 
L 300.727851 235.648232 
L 309.239168 236.26091 
L 317.818108 236.661893 
L 325.003875 236.798434 
L 332.207084 236.715256 
L 337.969949 236.457935 
L 343.720825 235.996899 
L 349.446018 235.292177 
L 353.713241 234.573853 
L 357.948537 233.664212 
L 362.14229 232.531777 
L 366.283248 231.138528 
L 369.008117 230.042455 
L 371.699197 228.794219 
L 374.351461 227.375648 
L 376.959268 225.766086 
L 379.516286 223.942086 
L 382.015403 221.877131 
L 384.448614 219.541425 
L 386.806925 216.901685 
L 389.080248 213.921212 
L 391.257288 210.560152 
L 393.325461 206.776235 
L 395.270833 202.526132 
L 397.078126 197.767678 
L 398.730799 192.463179 
L 400.211258 186.583936 
L 401.501229 180.116021 
L 402.58232 173.06676 
L 403.436793 165.471076 
L 404.048506 157.396242 
L 404.403966 148.943244 
L 404.493341 140.243291 
L 404.311287 131.449026 
L 403.857409 122.721293 
L 403.136308 114.214806 
L 402.157151 106.064418 
L 400.9329 98.376192 
L 399.47933 91.223197 
L 397.813991 84.646342 
L 395.95526 78.658625 
L 393.921555 73.251103 
L 391.73075 68.399204 
L 389.399768 64.068382 
L 386.944352 60.218708 
L 384.378945 56.808277 
L 381.716671 53.795564 
L 378.969375 51.14092 
L 376.14769 48.807434 
L 373.261137 46.761344 
L 370.318223 44.972145 
L 367.326544 43.41251 
L 364.292882 42.058103 
L 361.223296 40.887335 
L 358.123201 39.881098 
L 353.426327 38.643837 
L 348.685917 37.690273 
L 343.914169 36.979703 
L 339.121516 36.478206 
L 334.316922 36.157423 
L 327.905431 35.970229 
L 321.50187 36.016027 
L 315.119142 36.257594 
L 307.186299 36.789529 
L 299.320125 37.533785 
L 289.988391 38.655919 
L 280.792405 39.981776 
L 270.255791 41.735889 
L 259.944138 43.669672 
L 248.45374 46.054959 
L 237.293342 48.589213 
L 225.147914 51.580774 
L 213.44914 54.689669 
L 202.206295 57.890794 
L 190.256649 61.532268 
L 178.883289 65.242949 
L 168.0893 69.006683 
L 157.875886 72.810712 
L 148.242832 76.644817 
L 139.188854 80.500715 
L 130.711865 84.371621 
L 123.573689 87.863604 
L 116.898433 91.359732 
L 110.683616 94.857048 
L 104.926596 98.353005 
L 99.624631 101.845387 
L 95.291521 104.945156 
L 91.313742 108.039363 
L 87.689288 111.126931 
L 84.416159 114.206884 
L 81.492371 117.278341 
L 78.915966 120.340498 
L 76.945056 123.011675 
L 75.237364 125.674708 
L 73.791645 128.329171 
L 72.606679 130.974659 
L 71.681276 133.61079 
L 71.014272 136.237203 
L 70.604533 138.853551 
L 70.450954 141.459499 
L 70.552463 144.054722 
L 70.908016 146.638903 
L 71.516601 149.211732 
L 72.377234 151.772898 
L 73.488961 154.322094 
L 74.850855 156.859011 
L 76.462016 159.383332 
L 78.321571 161.894739 
L 80.428668 164.392902 
L 83.138831 167.231289 
L 86.170026 170.051397 
L 89.521077 172.852663 
L 93.190826 175.634483 
L 97.178135 178.396211 
L 102.042031 181.478261 
L 107.30479 184.532893 
L 112.964779 187.558885 
L 119.020319 190.554865 
L 126.210493 193.846642 
L 133.884308 197.097007 
L 142.03901 200.303105 
L 150.67156 203.46158 
L 159.778523 206.568427 
L 170.339428 209.920588 
L 181.463459 213.196639 
L 193.143189 216.386754 
L 205.36951 219.47843 
L 218.131099 222.455585 
L 230.185045 225.044991 
L 242.655908 227.501235 
L 255.526339 229.796404 
L 267.432974 231.69321 
L 278.256264 233.213761 
L 289.285536 234.541735 
L 299.086318 235.508124 
L 309.005868 236.246629 
L 317.583208 236.654011 
L 324.768121 236.797047 
L 331.971017 236.721782 
L 337.734109 236.47208 
L 343.485717 236.020104 
L 349.212253 235.326263 
L 353.480961 234.617584 
L 357.718228 233.719152 
L 361.914518 232.599807 
L 366.058674 231.221913 
L 370.137587 229.539927 
L 372.813079 228.222828 
L 375.447477 226.727073 
L 378.034859 225.030879 
L 380.56858 223.109542 
L 383.041164 220.93521 
L 385.444209 218.476639 
L 387.768277 215.699108 
L 390.002787 212.564536 
L 392.135915 209.031947 
L 394.154517 205.058413 
L 396.044092 200.600768 
L 397.788818 195.618222 
L 399.37168 190.076243 
L 400.774744 183.95155 
L 401.979608 177.23828 
L 402.968046 169.954573 
L 403.722866 162.148435 
L 404.2289 153.901375 
L 404.474073 145.327699 
L 404.450344 136.568933 
L 404.154403 127.782934 
L 403.587971 119.12979 
L 402.75763 110.757303 
L 401.674247 102.789129 
L 400.352085 95.317717 
L 398.807783 88.40236 
L 397.059344 82.07165 
L 395.125248 76.328631 
L 393.023743 71.157082 
L 390.772346 66.527632 
L 388.387507 62.402995 
L 385.88443 58.742078 
L 383.27701 55.502895 
L 380.577827 52.64456 
L 377.79821 50.128497 
L 374.948313 47.919083 
L 372.037223 45.983917 
L 369.073052 44.293842 
L 366.063046 42.822798 
L 363.013672 41.547639 
L 359.930712 40.447844 
L 355.25446 39.087844 
L 350.529392 38.029466 
L 345.768481 37.228992 
L 340.982807 36.650028 
L 336.181872 36.262187 
L 329.770868 35.998952 
L 323.363571 35.981157 
L 316.973592 36.169147 
L 309.027597 36.64536 
L 301.144547 37.3438 
L 291.788613 38.421107 
L 282.564985 39.71072 
L 271.992711 41.430829 
L 261.642534 43.337428 
L 250.105431 45.697979 
L 238.896166 48.212637 
L 226.693856 51.186815 
L 214.936743 54.282087 
L 203.634539 57.472481 
L 191.618145 61.104652 
L 180.177528 64.808181 
L 169.31603 68.56645 
L 159.035046 72.366355 
L 149.334507 76.197416 
L 140.21324 80.05115 
L 131.669239 83.920616 
L 124.47104 87.411822 
L 117.736068 90.907587 
L 111.461864 94.404899 
L 105.645806 97.901161 
L 100.285162 101.394119 
L 95.377126 104.881803 
L 91.392098 107.976134 
L 87.760436 111.063847 
L 84.48014 114.143964 
L 81.549225 117.215602 
L 78.965733 120.277956 
L 76.988653 122.949317 
L 75.274822 125.612545 
L 73.822992 128.267212 
L 72.631944 130.912912 
L 71.700486 133.549265 
L 71.027453 136.175909 
L 70.611711 138.792496 
L 70.452155 141.398689 
L 70.547712 143.994167 
L 70.897337 146.578609 
L 71.500017 149.151706 
L 72.354768 151.713148 
L 73.460634 154.262627 
L 74.816689 156.799833 
L 76.422032 159.324452 
L 78.275789 161.836164 
L 80.377107 164.33464 
L 83.080689 167.173394 
L 86.105328 169.993881 
L 89.449846 172.795538 
L 93.113087 175.577762 
L 97.09391 178.339906 
L 101.950537 181.422443 
L 107.206055 184.477581 
L 112.858832 187.504101 
L 118.907194 190.50064 
L 126.089428 193.793072 
L 133.755344 197.044133 
L 141.902198 200.25098 
L 150.526946 203.410254 
L 159.62617 206.517978 
L 170.178647 209.871215 
L 181.294346 213.148463 
L 192.965861 216.339927 
L 205.184118 219.433169 
L 217.937838 222.412182 
L 229.984832 225.003562 
L 242.448989 227.462173 
L 255.313041 229.760269 
L 267.214283 231.660281 
L 278.033139 233.184368 
L 289.058414 234.516708 
L 298.85615 235.487862 
L 308.773196 236.232309 
L 317.348928 236.646019 
L 324.532983 236.795523 
L 331.735556 236.728087 
L 337.498857 236.485932 
L 343.25118 236.042935 
L 348.979036 235.359872 
L 353.249208 234.660744 
L 357.488417 233.7734 
L 361.687207 232.666988 
L 365.834518 231.304269 
L 369.917356 229.640172 
L 372.595962 228.336788 
L 375.233928 226.85641 
L 377.825387 225.177474 
L 380.363759 223.275542 
L 382.841637 221.12304 
L 385.250702 218.688952 
L 387.581603 215.938864 
L 389.823855 212.834964 
L 391.965739 209.336477 
L 393.994221 205.400588 
L 395.894912 200.984063 
L 397.652093 196.045817 
L 399.248839 190.550596 
L 400.667277 184.474003 
L 401.889021 177.808507 
L 402.895803 170.570048 
L 403.670308 162.804035 
L 404.197168 154.589144 
L 404.464015 146.037184 
L 404.462446 137.287793 
L 404.188752 128.497995 
L 403.644239 119.828242 
L 402.835111 111.4278 
L 401.771912 103.422691 
L 400.468664 95.908031 
L 398.941853 88.945785 
L 397.209406 82.566883 
L 395.28979 76.776235 
L 393.201298 71.558958 
L 390.961518 66.88654 
L 388.586997 62.722176 
L 386.093047 59.024946 
L 383.493668 55.752858 
L 380.801545 52.864886 
L 378.028107 50.322239 
L 375.183601 48.089046 
L 372.277199 46.132602 
L 369.317087 44.423506 
L 366.31058 42.935436 
L 363.264198 41.645094 
L 360.183784 40.53168 
L 357.074554 39.576874 
L 352.366765 38.407168 
L 347.618347 37.511365 
L 342.841072 36.850407 
L 338.04502 36.391719 
L 331.635885 36.048308 
L 325.225999 35.963605 
L 318.829726 36.095343 
L 310.871566 36.513174 
L 302.972442 37.163721 
L 293.593078 38.194275 
L 284.342418 39.446168 
L 273.735044 41.130954 
L 263.346779 43.009371 
L 251.763353 45.34432 
L 240.505508 47.838733 
L 228.246559 50.794968 
L 216.431285 53.876192 
L 205.069851 57.055524 
L 192.986806 60.67811 
L 181.478995 64.374269 
L 170.550024 68.126902 
L 160.20149 71.922543 
L 150.433471 75.750446 
L 141.244907 79.601924 
L 132.633878 83.469873 
L 125.375635 86.960243 
L 118.580922 90.455598 
L 112.247305 93.952866 
L 106.372181 97.449397 
L 100.95283 100.942896 
L 95.986451 104.431363 
L 91.949873 107.526568 
L 88.266951 110.615305 
L 84.935685 113.696582 
L 81.954089 116.769505 
L 79.320197 119.833255 
L 77.299247 122.505923 
L 75.541754 125.170533 
L 74.046467 127.826651 
L 72.812164 130.473868 
L 71.837646 133.111802 
L 71.121745 135.740084 
L 70.663322 138.358365 
L 70.461266 140.966309 
L 70.514501 143.563587 
L 70.821974 146.149885 
L 71.382668 148.724888 
L 72.195595 151.288287 
L 73.259794 153.839775 
L 74.574334 156.379042 
L 76.13831 158.905774 
L 77.950843 161.419653 
L 80.011077 163.920351 
L 82.667873 166.761716 
L 85.645899 169.584892 
L 88.943974 172.389323 
L 92.560938 175.17441 
L 96.49565 177.939516 
L 101.300598 181.025512 
L 106.504648 184.084257 
L 112.106171 187.114552 
L 118.103497 190.115049 
L 125.229294 193.412126 
L 132.839081 196.668138 
L 140.930133 199.880284 
L 149.499456 203.045289 
L 158.543672 206.159235 
L 168.058932 209.217459 
L 179.064402 212.510353 
L 190.627264 215.719579 
L 202.738807 218.833276 
L 215.38824 221.836235 
L 227.343084 224.453373 
L 239.718315 226.942802 
L 252.497549 229.278417 
L 264.32697 231.219998 
L 276.44686 232.97367 
L 287.443461 234.336507 
L 297.219254 235.34079 
L 307.118096 236.126477 
L 315.681987 236.584202 
L 322.85949 236.778467 
L 330.059232 236.765353 
L 337.263876 236.499374 
L 343.016887 236.065283 
L 348.746032 235.392904 
L 353.01764 234.703244 
L 357.258756 233.826872 
L 361.460006 232.733266 
L 365.610425 231.385568 
L 369.697133 229.739171 
L 372.378812 228.449356 
L 375.020298 226.984195 
L 377.615783 225.32234 
L 380.158748 223.43959 
L 382.641859 221.308637 
L 385.05687 218.898768 
L 387.394521 216.175844 
L 389.644424 213.102316 
L 391.794964 209.637623 
L 393.833217 205.739067 
L 395.744903 201.363368 
L 397.514411 196.469141 
L 399.124905 191.02049 
L 400.558577 184.991917 
L 401.797062 178.374268 
L 402.822053 171.181329 
L 403.616122 163.455917 
L 404.163704 155.273934 
L 404.452145 146.744609 
L 404.472691 138.005635 
L 404.221228 129.213095 
L 403.698653 120.527719 
L 402.910782 112.100242 
L 401.867837 104.058899 
L 400.583596 96.501491 
L 399.07438 89.492647 
L 397.358034 83.065666 
L 395.453013 77.227355 
L 393.377644 71.964208 
L 391.149587 67.248613 
L 388.785483 63.044272 
L 386.300747 59.310477 
L 383.709489 56.005237 
L 381.024499 53.087393 
L 378.257306 50.517933 
L 375.418251 48.260725 
L 372.516587 46.282833 
L 369.560579 44.554577 
L 366.557606 43.049411 
L 363.51426 41.743724 
L 360.436426 40.616584 
L 357.32937 39.649472 
L 352.624176 38.463588 
L 347.877656 37.553953 
L 343.101686 36.881111 
L 338.306429 36.412164 
L 331.89768 36.057158 
L 325.487537 35.962792 
L 319.090471 36.086415 
L 311.130702 36.495823 
L 303.229403 37.139473 
L 293.846833 38.163304 
L 284.592447 39.409777 
L 273.980214 41.089494 
L 263.586659 42.963868 
L 251.996785 45.295148 
L 240.732167 47.786661 
L 228.465312 50.740328 
L 216.641913 53.819542 
L 205.272198 56.99729 
L 193.179831 60.618503 
L 181.662618 64.313606 
L 170.724203 68.065431 
L 160.366211 71.860459 
L 150.588744 75.687907 
L 141.390756 79.539058 
L 132.770338 83.406785 
L 125.503685 86.89703 
L 118.700604 90.392322 
L 112.358664 93.889576 
L 106.475265 97.386141 
L 101.047688 100.879712 
L 96.073136 104.368283 
L 92.029335 107.463608 
L 88.339231 110.552485 
L 85.000824 113.633922 
L 82.012127 116.707021 
L 79.371173 119.770964 
L 77.344076 122.443813 
L 75.580466 125.108614 
L 74.079091 127.764933 
L 72.838727 130.412361 
L 71.858176 133.050513 
L 71.136268 135.679023 
L 70.671865 138.29754 
L 70.463854 140.905727 
L 70.511158 143.503257 
L 70.812726 146.089812 
L 71.367538 148.665081 
L 72.174605 151.228753 
L 73.232966 153.78052 
L 74.541689 156.320073 
L 76.099868 158.8471 
L 77.906625 161.361281 
L 79.961104 163.862287 
L 82.611344 166.704016 
L 85.582839 169.527567 
L 88.874407 172.332383 
L 92.484887 175.11787 
L 96.413138 177.883388 
L 101.210845 180.969864 
L 106.407683 184.029112 
L 112.002023 187.059931 
L 117.992197 190.060979 
L 125.110086 193.358703 
L 132.712005 196.615399 
L 140.795238 199.828287 
L 149.356787 202.994078 
L 158.393298 206.1089 
L 167.90092 209.16808 
L 178.898072 212.462126 
L 190.452726 215.672653 
L 202.556219 218.787886 
L 215.19777 221.792601 
L 227.14564 224.411628 
L 239.51414 226.903335 
L 252.286934 229.24168 
L 264.110894 231.18632 
L 276.225722 232.943745 
L 287.21826 234.310779 
L 296.990926 235.319591 
L 306.887151 236.110915 
L 315.449312 236.574644 
L 322.625829 236.775018 
L 329.825084 236.769281 
L 337.029868 236.512379 
L 342.783538 236.087082 
L 348.513934 235.425258 
L 352.786943 234.74494 
L 357.02993 233.879417 
L 361.233593 232.79845 
L 365.387071 231.465598 
L 369.477591 229.836685 
L 372.162296 228.560264 
L 374.807252 227.110112 
L 377.406705 225.465107 
L 379.954194 223.601288 
L 382.442457 221.491617 
L 384.863328 219.105652 
L 387.207633 216.409532 
L 389.465079 213.36598 
L 391.624154 209.934657 
L 393.672042 206.072991 
L 395.594575 201.73767 
L 397.376247 196.887041 
L 399.000315 191.484594 
L 400.449036 185.503776 
L 401.70407 178.933865 
L 402.747079 171.786537 
L 403.560528 164.102058 
L 404.128661 155.953573 
L 404.43855 147.447706 
L 404.48109 138.720147 
L 404.251772 129.925965 
L 403.751083 121.22606 
L 402.984453 112.772481 
L 401.961773 104.695683 
L 400.696567 97.096093 
L 399.20499 90.041031 
L 397.504799 83.566191 
L 395.614428 77.680307 
L 393.552237 72.371301 
L 391.335958 67.612486 
L 388.982324 63.368092 
L 386.506854 59.597635 
L 383.923765 56.259137 
L 381.245954 53.311312 
L 378.485049 50.714937 
L 375.651483 48.43363 
L 372.754595 46.434193 
L 369.802726 44.686681 
L 366.803325 43.164302 
L 363.76304 41.843216 
L 360.687814 40.702283 
L 357.582959 39.722799 
L 352.880396 38.520665 
L 348.135807 37.597133 
L 343.361169 36.912356 
L 338.566733 36.43311 
L 332.158405 36.066462 
L 325.748033 35.962399 
L 319.350202 36.077882 
L 311.388851 36.478867 
L 303.485407 37.115609 
L 294.099667 38.132697 
L 284.841591 39.373737 
L 274.224536 41.04838 
L 263.825729 42.91871 
L 252.229449 45.246315 
L 240.958101 47.734924 
L 228.683387 50.686019 
L 216.851906 53.763224 
L 205.473956 56.93939 
L 193.372317 60.559228 
L 181.84575 64.253271 
L 170.89794 68.004285 
L 160.530538 71.798701 
L 150.743668 75.625694 
L 141.536302 79.476517 
L 132.906543 83.34402 
L 125.631521 86.834138 
L 118.820113 90.329362 
L 112.469891 93.826602 
L 106.578256 97.323197 
L 101.142493 100.816839 
L 96.159806 104.305515 
L 92.108816 107.400958 
L 88.411565 110.489974 
L 85.066051 113.57157 
L 82.070286 116.644844 
L 79.422307 119.708977 
L 77.389093 122.382005 
L 75.619394 125.046996 
L 74.11196 127.703513 
L 72.865564 130.35115 
L 71.879009 132.989519 
L 71.151124 135.618254 
L 70.680769 138.237005 
L 70.466832 140.845433 
L 70.508234 143.443213 
L 70.803923 146.030025 
L 71.35288 148.605558 
L 72.154115 151.169501 
L 73.206665 153.721547 
L 74.5096 156.261385 
L 76.062011 158.788705 
L 77.86302 161.303186 
L 79.91177 163.804501 
L 82.555486 166.646589 
L 85.520481 169.470509 
L 88.805571 172.275705 
L 92.409596 175.061587 
L 96.33141 177.827509 
L 101.121898 180.914452 
L 106.311552 183.974196 
L 111.89874 187.005537 
L 117.88179 190.007129 
L 124.991802 193.305493 
L 132.585877 196.562863 
L 140.661322 199.776484 
L 149.215138 202.943074 
L 158.243967 206.058749 
L 167.743969 209.118861 
L 178.732836 212.414061 
L 190.279323 215.625899 
L 202.374783 218.742623 
L 215.008478 221.74909 
L 226.9494 224.37 
L 239.311175 226.863929 
L 252.07755 229.205015 
L 263.896053 231.152652 
L 276.005824 232.913813 
L 286.994294 234.284977 
L 296.763826 235.298276 
L 306.657424 236.095181 
L 315.217841 236.564852 
L 322.393349 236.771254 
L 329.592097 236.772826 
L 336.796984 236.524865 
L 342.551279 236.108262 
L 348.282886 235.456862 
L 352.557262 234.785776 
L 356.802077 233.930954 
L 361.008107 232.862472 
L 365.164582 231.544247 
L 369.258841 229.932563 
L 371.946518 228.669351 
L 374.594883 227.233998 
L 377.198234 225.605595 
L 379.750173 223.760436 
L 382.243504 221.671718 
L 384.67014 219.309331 
L 387.020993 216.63966 
L 389.285866 213.625696 
L 391.453347 210.22734 
L 393.510729 206.402121 
L 395.443954 202.106745 
L 397.237622 197.299295 
L 398.875083 191.942703 
L 400.338665 186.009392 
L 401.610055 179.487111 
L 402.670888 172.385474 
L 403.503527 164.742245 
L 404.092036 156.627825 
L 404.423217 148.146218 
L 404.487625 139.431044 
L 404.280356 130.636291 
L 403.801489 121.922956 
L 403.05607 113.444316 
L 402.053655 105.332929 
L 400.807511 97.691838 
L 399.333619 90.591038 
L 397.649641 84.068616 
L 395.773984 78.135307 
L 393.725041 72.780464 
L 391.520607 67.978378 
L 389.177507 63.693828 
L 386.711365 59.886579 
L 384.136502 56.51468 
L 381.465921 53.536727 
L 378.711351 50.9133 
L 375.883318 48.607769 
L 372.991244 46.586672 
L 370.043549 44.819804 
L 367.04775 43.280126 
L 364.010556 41.943569 
L 360.937964 40.788779 
L 357.835336 39.796867 
L 353.135438 38.578409 
L 348.392814 37.640915 
L 343.619541 36.944139 
L 338.825955 36.454539 
L 332.41808 36.07619 
L 326.007511 35.962377 
L 319.608941 36.069679 
L 311.64604 36.462188 
L 303.740477 37.091993 
L 294.35159 38.102329 
L 285.089846 39.337928 
L 274.467996 41.007484 
L 264.063961 42.873761 
L 252.461303 45.197693 
L 241.18325 47.6834 
L 228.900707 50.631922 
L 217.061175 53.707113 
L 205.675018 56.881694 
L 193.564137 60.500161 
L 182.028249 64.19315 
L 171.071075 67.943351 
L 160.694295 71.737152 
L 150.898054 75.563688 
L 141.681341 79.414182 
L 133.04227 83.281463 
L 125.758906 86.771457 
L 118.939196 90.266616 
L 112.580719 93.763841 
L 106.680878 97.260465 
L 101.236957 100.754175 
L 96.246161 104.242954 
L 92.188007 107.338513 
L 88.483632 110.427667 
L 85.131034 113.50942 
L 82.128225 116.582869 
L 79.47324 119.647195 
L 77.433928 122.320402 
L 75.658161 124.985582 
L 74.144687 127.642299 
L 72.89228 130.290145 
L 71.89974 132.92873 
L 71.165899 135.55769 
L 70.689612 138.176673 
L 70.469768 140.785342 
L 70.505288 143.383369 
L 70.795119 145.970436 
L 71.338241 148.546231 
L 72.133664 151.110444 
L 73.180423 153.662766 
L 74.477588 156.202889 
L 76.02425 158.730499 
L 77.81953 161.245278 
L 79.86257 163.7469 
L 82.152536 166.235025 
L 85.070956 169.061619 
L 88.309642 171.869572 
L 91.867432 174.658296 
L 95.74318 177.427162 
L 100.482044 180.517546 
L 105.620278 183.580867 
L 111.156255 186.615944 
L 117.088312 189.621454 
L 123.414732 192.595911 
L 130.904407 195.862372 
L 138.876047 199.085706 
L 147.326735 202.262766 
L 156.253194 205.389805 
L 165.651706 208.462362 
L 176.530126 211.772785 
L 187.967671 215.001847 
L 199.956027 218.138319 
L 211.323909 220.897292 
L 211.323909 220.897292 
" style="fill:none;stroke:#0000ff;stroke-linecap:square;stroke-width:1.5;"/>
   </g>
   <g id="patch_3">
    <path d="M 53.74375 246.84375 
L 53.74375 25.918125 
" style="fill:none;stroke:#000000;stroke-linecap:square;stroke-linejoin:miter;stroke-width:0.8;"/>
   </g>
   <g id="patch_4">
    <path d="M 421.2 246.84375 
L 421.2 25.918125 
" style="fill:none;stroke:#000000;stroke-linecap:square;stroke-linejoin:miter;stroke-width:0.8;"/>
   </g>
   <g id="patch_5">
    <path d="M 53.74375 246.84375 
L 421.2 246.84375 
" style="fill:none;stroke:#000000;stroke-linecap:square;stroke-linejoin:miter;stroke-width:0.8;"/>
   </g>
   <g id="patch_6">
    <path d="M 53.74375 25.918125 
L 421.2 25.918125 
" style="fill:none;stroke:#000000;stroke-linecap:square;stroke-linejoin:miter;stroke-width:0.8;"/>
   </g>
   <g id="text_14">
    <!-- $\omega_0=0.8, \lambda_0=0.9$ -->
    <g transform="translate(186.471875 19.918125)scale(0.12 -0.12)">
     <defs>
      <path d="M 10.59375 45.40625 
L 73.1875 45.40625 
L 73.1875 37.203125 
L 10.59375 37.203125 
z
M 10.59375 25.484375 
L 73.1875 25.484375 
L 73.1875 17.1875 
L 10.59375 17.1875 
z
" id="DejaVuSans-61"/>
      <path d="M 11.71875 12.40625 
L 22.015625 12.40625 
L 22.015625 4 
L 14.015625 -11.625 
L 7.71875 -11.625 
L 11.71875 4 
z
" id="DejaVuSans-44"/>
     </defs>
     <use transform="translate(0 0.015625)" xlink:href="#DejaVuSans-Oblique-969"/>
     <use transform="translate(83.740234 -16.390625)scale(0.7)" xlink:href="#DejaVuSans-48"/>
     <use transform="translate(150.493164 0.015625)" xlink:href="#DejaVuSans-61"/>
     <use transform="translate(253.764648 0.015625)" xlink:href="#DejaVuSans-48"/>
     <use transform="translate(317.387695 0.015625)" xlink:href="#DejaVuSans-46"/>
     <use transform="translate(346.549805 0.015625)" xlink:href="#DejaVuSans-56"/>
     <use transform="translate(410.172852 0.015625)" xlink:href="#DejaVuSans-44"/>
     <use transform="translate(461.442383 0.015625)" xlink:href="#DejaVuSans-Oblique-955"/>
     <use transform="translate(520.62207 -16.390625)scale(0.7)" xlink:href="#DejaVuSans-48"/>
     <use transform="translate(587.375 0.015625)" xlink:href="#DejaVuSans-61"/>
     <use transform="translate(690.646484 0.015625)" xlink:href="#DejaVuSans-48"/>
     <use transform="translate(754.269531 0.015625)" xlink:href="#DejaVuSans-46"/>
     <use transform="translate(786.056641 0.015625)" xlink:href="#DejaVuSans-57"/>
    </g>
   </g>
   <g id="legend_1">
    <g id="patch_7">
     <path d="M 340.7 64.09625 
L 414.2 64.09625 
Q 416.2 64.09625 416.2 62.09625 
L 416.2 32.918125 
Q 416.2 30.918125 414.2 30.918125 
L 340.7 30.918125 
Q 338.7 30.918125 338.7 32.918125 
L 338.7 62.09625 
Q 338.7 64.09625 340.7 64.09625 
z
" style="fill:#ffffff;opacity:0.8;stroke:#cccccc;stroke-linejoin:miter;"/>
    </g>
    <g id="line2d_13">
     <path d="M 342.7 39.016562 
L 362.7 39.016562 
" style="fill:none;stroke:#0000ff;stroke-linecap:square;stroke-width:1.5;"/>
    </g>
    <g id="line2d_14"/>
    <g id="text_15">
     <!-- plot -->
     <g transform="translate(370.7 42.516562)scale(0.1 -0.1)">
      <defs>
       <path d="M 18.109375 8.203125 
L 18.109375 -20.796875 
L 9.078125 -20.796875 
L 9.078125 54.6875 
L 18.109375 54.6875 
L 18.109375 46.390625 
Q 20.953125 51.265625 25.265625 53.625 
Q 29.59375 56 35.59375 56 
Q 45.5625 56 51.78125 48.09375 
Q 58.015625 40.1875 58.015625 27.296875 
Q 58.015625 14.40625 51.78125 6.484375 
Q 45.5625 -1.421875 35.59375 -1.421875 
Q 29.59375 -1.421875 25.265625 0.953125 
Q 20.953125 3.328125 18.109375 8.203125 
z
M 48.6875 27.296875 
Q 48.6875 37.203125 44.609375 42.84375 
Q 40.53125 48.484375 33.40625 48.484375 
Q 26.265625 48.484375 22.1875 42.84375 
Q 18.109375 37.203125 18.109375 27.296875 
Q 18.109375 17.390625 22.1875 11.75 
Q 26.265625 6.109375 33.40625 6.109375 
Q 40.53125 6.109375 44.609375 11.75 
Q 48.6875 17.390625 48.6875 27.296875 
z
" id="DejaVuSans-112"/>
       <path d="M 9.421875 75.984375 
L 18.40625 75.984375 
L 18.40625 0 
L 9.421875 0 
z
" id="DejaVuSans-108"/>
       <path d="M 30.609375 48.390625 
Q 23.390625 48.390625 19.1875 42.75 
Q 14.984375 37.109375 14.984375 27.296875 
Q 14.984375 17.484375 19.15625 11.84375 
Q 23.34375 6.203125 30.609375 6.203125 
Q 37.796875 6.203125 41.984375 11.859375 
Q 46.1875 17.53125 46.1875 27.296875 
Q 46.1875 37.015625 41.984375 42.703125 
Q 37.796875 48.390625 30.609375 48.390625 
z
M 30.609375 56 
Q 42.328125 56 49.015625 48.375 
Q 55.71875 40.765625 55.71875 27.296875 
Q 55.71875 13.875 49.015625 6.21875 
Q 42.328125 -1.421875 30.609375 -1.421875 
Q 18.84375 -1.421875 12.171875 6.21875 
Q 5.515625 13.875 5.515625 27.296875 
Q 5.515625 40.765625 12.171875 48.375 
Q 18.84375 56 30.609375 56 
z
" id="DejaVuSans-111"/>
       <path d="M 18.3125 70.21875 
L 18.3125 54.6875 
L 36.8125 54.6875 
L 36.8125 47.703125 
L 18.3125 47.703125 
L 18.3125 18.015625 
Q 18.3125 11.328125 20.140625 9.421875 
Q 21.96875 7.515625 27.59375 7.515625 
L 36.8125 7.515625 
L 36.8125 0 
L 27.59375 0 
Q 17.1875 0 13.234375 3.875 
Q 9.28125 7.765625 9.28125 18.015625 
L 9.28125 47.703125 
L 2.6875 47.703125 
L 2.6875 54.6875 
L 9.28125 54.6875 
L 9.28125 70.21875 
z
" id="DejaVuSans-116"/>
      </defs>
      <use xlink:href="#DejaVuSans-112"/>
      <use x="63.476562" xlink:href="#DejaVuSans-108"/>
      <use x="91.259766" xlink:href="#DejaVuSans-111"/>
      <use x="152.441406" xlink:href="#DejaVuSans-116"/>
     </g>
    </g>
    <g id="PathCollection_2">
     <g>
      <use style="fill:#ff0000;stroke:#ff0000;" x="352.7" xlink:href="#m583dfbdb7f" y="55.391562"/>
     </g>
    </g>
    <g id="text_16">
     <!-- ($\omega^*,\lambda^*$) -->
     <g transform="translate(370.7 58.016562)scale(0.1 -0.1)">
      <defs>
       <path d="M 31 75.875 
Q 24.46875 64.65625 21.28125 53.65625 
Q 18.109375 42.671875 18.109375 31.390625 
Q 18.109375 20.125 21.3125 9.0625 
Q 24.515625 -2 31 -13.1875 
L 23.1875 -13.1875 
Q 15.875 -1.703125 12.234375 9.375 
Q 8.59375 20.453125 8.59375 31.390625 
Q 8.59375 42.28125 12.203125 53.3125 
Q 15.828125 64.359375 23.1875 75.875 
z
" id="DejaVuSans-40"/>
       <path d="M 47.015625 60.890625 
L 29.5 51.421875 
L 47.015625 41.890625 
L 44.1875 37.109375 
L 27.78125 47.015625 
L 27.78125 28.609375 
L 22.21875 28.609375 
L 22.21875 47.015625 
L 5.8125 37.109375 
L 2.984375 41.890625 
L 20.515625 51.421875 
L 2.984375 60.890625 
L 5.8125 65.71875 
L 22.21875 55.8125 
L 22.21875 74.21875 
L 27.78125 74.21875 
L 27.78125 55.8125 
L 44.1875 65.71875 
z
" id="DejaVuSans-42"/>
       <path d="M 8.015625 75.875 
L 15.828125 75.875 
Q 23.140625 64.359375 26.78125 53.3125 
Q 30.421875 42.28125 30.421875 31.390625 
Q 30.421875 20.453125 26.78125 9.375 
Q 23.140625 -1.703125 15.828125 -13.1875 
L 8.015625 -13.1875 
Q 14.5 -2 17.703125 9.0625 
Q 20.90625 20.125 20.90625 31.390625 
Q 20.90625 42.671875 17.703125 53.65625 
Q 14.5 64.65625 8.015625 75.875 
z
" id="DejaVuSans-41"/>
      </defs>
      <use transform="translate(0 0.765625)" xlink:href="#DejaVuSans-40"/>
      <use transform="translate(39.013672 0.765625)" xlink:href="#DejaVuSans-Oblique-969"/>
      <use transform="translate(140.857747 39.046875)scale(0.7)" xlink:href="#DejaVuSans-42"/>
      <use transform="translate(192.229818 0.765625)" xlink:href="#DejaVuSans-44"/>
      <use transform="translate(243.499349 0.765625)" xlink:href="#DejaVuSans-Oblique-955"/>
      <use transform="translate(323.76444 39.046875)scale(0.7)" xlink:href="#DejaVuSans-42"/>
      <use transform="translate(375.13651 0.765625)" xlink:href="#DejaVuSans-41"/>
     </g>
    </g>
   </g>
  </g>
 </g>
 <defs>
  <clipPath id="p8b00c5ecf3">
   <rect height="220.925625" width="367.45625" x="53.74375" y="25.918125"/>
  </clipPath>
 </defs>
</svg>
