<?xml version="1.0" encoding="utf-8" standalone="no"?>
<!DOCTYPE svg PUBLIC "-//W3C//DTD SVG 1.1//EN"
  "http://www.w3.org/Graphics/SVG/1.1/DTD/svg11.dtd">
<!-- Created with matplotlib (https://matplotlib.org/) -->
<svg height="288pt" version="1.1" viewBox="0 0 432 288" width="432pt" xmlns="http://www.w3.org/2000/svg" xmlns:xlink="http://www.w3.org/1999/xlink">
 <metadata>
  <rdf:RDF xmlns:cc="http://creativecommons.org/ns#" xmlns:dc="http://purl.org/dc/elements/1.1/" xmlns:rdf="http://www.w3.org/1999/02/22-rdf-syntax-ns#">
   <cc:Work>
    <dc:type rdf:resource="http://purl.org/dc/dcmitype/StillImage"/>
    <dc:date>2020-12-10T11:32:25.040287</dc:date>
    <dc:format>image/svg+xml</dc:format>
    <dc:creator>
     <cc:Agent>
      <dc:title>Matplotlib v3.3.2, https://matplotlib.org/</dc:title>
     </cc:Agent>
    </dc:creator>
   </cc:Work>
  </rdf:RDF>
 </metadata>
 <defs>
  <style type="text/css">*{stroke-linecap:butt;stroke-linejoin:round;}</style>
 </defs>
 <g id="figure_1">
  <g id="patch_1">
   <path d="M 0 288 
L 432 288 
L 432 0 
L 0 0 
z
" style="fill:#ffffff;"/>
  </g>
  <g id="patch_2">
   <path d="M 10.8 277.2 
L 421.2 277.2 
L 421.2 25.918125 
L 10.8 25.918125 
z
" style="fill:#ffffff;"/>
  </g>
  <g id="pane3d_1">
   <g id="patch_3">
    <path d="M 116.989398 174.127086 
L 255.259781 137.198767 
L 257.027192 41.062246 
L 111.734323 75.915482 
" style="fill:#f2f2f2;opacity:0.5;stroke:#f2f2f2;stroke-linejoin:miter;"/>
   </g>
  </g>
  <g id="pane3d_2">
   <g id="patch_4">
    <path d="M 255.259781 137.198767 
L 326.622608 220.119682 
L 332.398026 119.513159 
L 257.027192 41.062246 
" style="fill:#e6e6e6;opacity:0.5;stroke:#e6e6e6;stroke-linejoin:miter;"/>
   </g>
  </g>
  <g id="pane3d_3">
   <g id="patch_5">
    <path d="M 116.989398 174.127086 
L 178.694258 264.001715 
L 326.622608 220.119682 
L 255.259781 137.198767 
" style="fill:#ececec;opacity:0.5;stroke:#ececec;stroke-linejoin:miter;"/>
   </g>
  </g>
  <g id="axis3d_1">
   <g id="line2d_1">
    <path d="M 116.989398 174.127086 
L 178.694258 264.001715 
" style="fill:none;stroke:#000000;stroke-linecap:square;stroke-width:0.8;"/>
   </g>
   <g id="text_1">
    <!-- $\omega$ -->
    <g transform="translate(114.169511 241.339329)rotate(-304.472166)scale(0.1 -0.1)">
     <defs>
      <path d="M 21.390625 -1.421875 
Q 1.125 -1.421875 6.78125 27.59375 
Q 8.984375 39.0625 19.625 54.6875 
L 29.296875 54.6875 
Q 19.234375 39.0625 17 27.34375 
Q 12.796875 6.203125 23.734375 6.203125 
Q 33.84375 6.203125 38.71875 32.46875 
L 47.015625 32.46875 
Q 41.703125 6.0625 51.8125 6.203125 
Q 62.703125 6.296875 66.796875 27.34375 
Q 69.046875 39.0625 65.140625 54.6875 
L 74.8125 54.6875 
Q 79.296875 39.0625 77.09375 27.59375 
Q 71.53125 -1.46875 51.21875 -1.421875 
Q 37.9375 -1.375 39.109375 13.1875 
Q 34.28125 -1.421875 21.390625 -1.421875 
z
" id="DejaVuSans-Oblique-969"/>
     </defs>
     <use transform="translate(0 0.3125)" xlink:href="#DejaVuSans-Oblique-969"/>
    </g>
   </g>
   <g id="Line3DCollection_1">
    <path d="M 121.126578 180.15299 
L 260.060024 142.776469 
L 262.076474 46.317871 
" style="fill:none;stroke:#b0b0b0;stroke-width:0.8;"/>
    <path d="M 132.020942 196.020896 
L 272.689721 157.451701 
L 275.375526 60.160397 
" style="fill:none;stroke:#b0b0b0;stroke-width:0.8;"/>
    <path d="M 143.272772 212.40946 
L 285.717573 172.589573 
L 289.115311 74.461668 
" style="fill:none;stroke:#b0b0b0;stroke-width:0.8;"/>
    <path d="M 154.899955 229.344735 
L 299.162707 188.212312 
L 303.318109 89.244872 
" style="fill:none;stroke:#b0b0b0;stroke-width:0.8;"/>
    <path d="M 166.921593 246.854543 
L 313.045499 204.343593 
L 318.007725 104.534789 
" style="fill:none;stroke:#b0b0b0;stroke-width:0.8;"/>
   </g>
   <g id="xtick_1">
    <g id="line2d_2">
     <path d="M 122.281609 179.842259 
L 118.814324 180.775044 
" style="fill:none;stroke:#000000;stroke-linecap:square;stroke-width:0.8;"/>
    </g>
    <g id="text_2">
     <!-- 0.7 -->
     <g transform="translate(100.918917 199.388871)scale(0.1 -0.1)">
      <defs>
       <path d="M 31.78125 66.40625 
Q 24.171875 66.40625 20.328125 58.90625 
Q 16.5 51.421875 16.5 36.375 
Q 16.5 21.390625 20.328125 13.890625 
Q 24.171875 6.390625 31.78125 6.390625 
Q 39.453125 6.390625 43.28125 13.890625 
Q 47.125 21.390625 47.125 36.375 
Q 47.125 51.421875 43.28125 58.90625 
Q 39.453125 66.40625 31.78125 66.40625 
z
M 31.78125 74.21875 
Q 44.046875 74.21875 50.515625 64.515625 
Q 56.984375 54.828125 56.984375 36.375 
Q 56.984375 17.96875 50.515625 8.265625 
Q 44.046875 -1.421875 31.78125 -1.421875 
Q 19.53125 -1.421875 13.0625 8.265625 
Q 6.59375 17.96875 6.59375 36.375 
Q 6.59375 54.828125 13.0625 64.515625 
Q 19.53125 74.21875 31.78125 74.21875 
z
" id="DejaVuSans-48"/>
       <path d="M 10.6875 12.40625 
L 21 12.40625 
L 21 0 
L 10.6875 0 
z
" id="DejaVuSans-46"/>
       <path d="M 8.203125 72.90625 
L 55.078125 72.90625 
L 55.078125 68.703125 
L 28.609375 0 
L 18.3125 0 
L 43.21875 64.59375 
L 8.203125 64.59375 
z
" id="DejaVuSans-55"/>
      </defs>
      <use xlink:href="#DejaVuSans-48"/>
      <use x="63.623047" xlink:href="#DejaVuSans-46"/>
      <use x="95.410156" xlink:href="#DejaVuSans-55"/>
     </g>
    </g>
   </g>
   <g id="xtick_2">
    <g id="line2d_3">
     <path d="M 133.191111 195.700053 
L 129.678346 196.663199 
" style="fill:none;stroke:#000000;stroke-linecap:square;stroke-width:0.8;"/>
    </g>
    <g id="text_3">
     <!-- 0.8 -->
     <g transform="translate(111.606302 215.430884)scale(0.1 -0.1)">
      <defs>
       <path d="M 31.78125 34.625 
Q 24.75 34.625 20.71875 30.859375 
Q 16.703125 27.09375 16.703125 20.515625 
Q 16.703125 13.921875 20.71875 10.15625 
Q 24.75 6.390625 31.78125 6.390625 
Q 38.8125 6.390625 42.859375 10.171875 
Q 46.921875 13.96875 46.921875 20.515625 
Q 46.921875 27.09375 42.890625 30.859375 
Q 38.875 34.625 31.78125 34.625 
z
M 21.921875 38.8125 
Q 15.578125 40.375 12.03125 44.71875 
Q 8.5 49.078125 8.5 55.328125 
Q 8.5 64.0625 14.71875 69.140625 
Q 20.953125 74.21875 31.78125 74.21875 
Q 42.671875 74.21875 48.875 69.140625 
Q 55.078125 64.0625 55.078125 55.328125 
Q 55.078125 49.078125 51.53125 44.71875 
Q 48 40.375 41.703125 38.8125 
Q 48.828125 37.15625 52.796875 32.3125 
Q 56.78125 27.484375 56.78125 20.515625 
Q 56.78125 9.90625 50.3125 4.234375 
Q 43.84375 -1.421875 31.78125 -1.421875 
Q 19.734375 -1.421875 13.25 4.234375 
Q 6.78125 9.90625 6.78125 20.515625 
Q 6.78125 27.484375 10.78125 32.3125 
Q 14.796875 37.15625 21.921875 38.8125 
z
M 18.3125 54.390625 
Q 18.3125 48.734375 21.84375 45.5625 
Q 25.390625 42.390625 31.78125 42.390625 
Q 38.140625 42.390625 41.71875 45.5625 
Q 45.3125 48.734375 45.3125 54.390625 
Q 45.3125 60.0625 41.71875 63.234375 
Q 38.140625 66.40625 31.78125 66.40625 
Q 25.390625 66.40625 21.84375 63.234375 
Q 18.3125 60.0625 18.3125 54.390625 
z
" id="DejaVuSans-56"/>
      </defs>
      <use xlink:href="#DejaVuSans-48"/>
      <use x="63.623047" xlink:href="#DejaVuSans-46"/>
      <use x="95.410156" xlink:href="#DejaVuSans-56"/>
     </g>
    </g>
   </g>
   <g id="xtick_3">
    <g id="line2d_4">
     <path d="M 144.458459 212.078005 
L 140.899071 213.073018 
" style="fill:none;stroke:#000000;stroke-linecap:square;stroke-width:0.8;"/>
    </g>
    <g id="text_4">
     <!-- 0.9 -->
     <g transform="translate(122.644057 231.99881)scale(0.1 -0.1)">
      <defs>
       <path d="M 10.984375 1.515625 
L 10.984375 10.5 
Q 14.703125 8.734375 18.5 7.8125 
Q 22.3125 6.890625 25.984375 6.890625 
Q 35.75 6.890625 40.890625 13.453125 
Q 46.046875 20.015625 46.78125 33.40625 
Q 43.953125 29.203125 39.59375 26.953125 
Q 35.25 24.703125 29.984375 24.703125 
Q 19.046875 24.703125 12.671875 31.3125 
Q 6.296875 37.9375 6.296875 49.421875 
Q 6.296875 60.640625 12.9375 67.421875 
Q 19.578125 74.21875 30.609375 74.21875 
Q 43.265625 74.21875 49.921875 64.515625 
Q 56.59375 54.828125 56.59375 36.375 
Q 56.59375 19.140625 48.40625 8.859375 
Q 40.234375 -1.421875 26.421875 -1.421875 
Q 22.703125 -1.421875 18.890625 -0.6875 
Q 15.09375 0.046875 10.984375 1.515625 
z
M 30.609375 32.421875 
Q 37.25 32.421875 41.125 36.953125 
Q 45.015625 41.5 45.015625 49.421875 
Q 45.015625 57.28125 41.125 61.84375 
Q 37.25 66.40625 30.609375 66.40625 
Q 23.96875 66.40625 20.09375 61.84375 
Q 16.21875 57.28125 16.21875 49.421875 
Q 16.21875 41.5 20.09375 36.953125 
Q 23.96875 32.421875 30.609375 32.421875 
z
" id="DejaVuSans-57"/>
      </defs>
      <use xlink:href="#DejaVuSans-48"/>
      <use x="63.623047" xlink:href="#DejaVuSans-46"/>
      <use x="95.410156" xlink:href="#DejaVuSans-57"/>
     </g>
    </g>
   </g>
   <g id="xtick_4">
    <g id="line2d_5">
     <path d="M 156.101554 229.002133 
L 152.494362 230.030622 
" style="fill:none;stroke:#000000;stroke-linecap:square;stroke-width:0.8;"/>
    </g>
    <g id="text_5">
     <!-- 1.0 -->
     <g transform="translate(134.049698 249.118943)scale(0.1 -0.1)">
      <defs>
       <path d="M 12.40625 8.296875 
L 28.515625 8.296875 
L 28.515625 63.921875 
L 10.984375 60.40625 
L 10.984375 69.390625 
L 28.421875 72.90625 
L 38.28125 72.90625 
L 38.28125 8.296875 
L 54.390625 8.296875 
L 54.390625 0 
L 12.40625 0 
z
" id="DejaVuSans-49"/>
      </defs>
      <use xlink:href="#DejaVuSans-49"/>
      <use x="63.623047" xlink:href="#DejaVuSans-46"/>
      <use x="95.410156" xlink:href="#DejaVuSans-48"/>
     </g>
    </g>
   </g>
   <g id="xtick_5">
    <g id="line2d_6">
     <path d="M 168.13951 246.500222 
L 164.48329 247.563904 
" style="fill:none;stroke:#000000;stroke-linecap:square;stroke-width:0.8;"/>
    </g>
    <g id="text_6">
     <!-- 1.1 -->
     <g transform="translate(145.841931 266.819357)scale(0.1 -0.1)">
      <use xlink:href="#DejaVuSans-49"/>
      <use x="63.623047" xlink:href="#DejaVuSans-46"/>
      <use x="95.410156" xlink:href="#DejaVuSans-49"/>
     </g>
    </g>
   </g>
  </g>
  <g id="axis3d_2">
   <g id="line2d_7">
    <path d="M 326.622608 220.119682 
L 178.694258 264.001715 
" style="fill:none;stroke:#000000;stroke-linecap:square;stroke-width:0.8;"/>
   </g>
   <g id="text_7">
    <!-- $\lambda$ -->
    <g transform="translate(265.771744 281.736293)rotate(-16.522665)scale(0.1 -0.1)">
     <defs>
      <path d="M 36.71875 67.4375 
L 48.828125 0 
L 39.3125 0 
L 31.84375 40.4375 
L 5.125 0 
L -4.390625 0 
L 29.734375 52.4375 
L 28.03125 62.109375 
Q 26.953125 68.265625 21.734375 68.265625 
L 17.046875 68.265625 
L 18.5 75.984375 
L 24.21875 75.875 
Q 35.203125 75.734375 36.71875 67.4375 
z
" id="DejaVuSans-Oblique-955"/>
     </defs>
     <use transform="translate(0 0.015625)" xlink:href="#DejaVuSans-Oblique-955"/>
    </g>
   </g>
   <g id="Line3DCollection_2">
    <path d="M 136.538319 69.965434 
L 140.556628 167.83291 
L 203.980298 256.500767 
" style="fill:none;stroke:#b0b0b0;stroke-width:0.8;"/>
    <path d="M 159.709199 64.407143 
L 162.586254 161.949386 
L 227.589524 249.497236 
" style="fill:none;stroke:#b0b0b0;stroke-width:0.8;"/>
    <path d="M 182.586854 58.919191 
L 184.350454 156.136751 
L 250.888651 242.585693 
" style="fill:none;stroke:#b0b0b0;stroke-width:0.8;"/>
    <path d="M 205.176814 53.500252 
L 205.853995 150.39373 
L 273.883748 235.764339 
" style="fill:none;stroke:#b0b0b0;stroke-width:0.8;"/>
    <path d="M 227.484472 48.149032 
L 227.101533 144.719082 
L 296.580728 229.03142 
" style="fill:none;stroke:#b0b0b0;stroke-width:0.8;"/>
    <path d="M 249.515087 42.86427 
L 248.097613 139.111591 
L 318.985351 222.385227 
" style="fill:none;stroke:#b0b0b0;stroke-width:0.8;"/>
   </g>
   <g id="xtick_6">
    <g id="line2d_8">
     <path d="M 203.426968 255.727199 
L 205.089387 258.051301 
" style="fill:none;stroke:#000000;stroke-linecap:square;stroke-width:0.8;"/>
    </g>
    <g id="text_8">
     <!-- 0.75 -->
     <g transform="translate(199.022057 281.177231)scale(0.1 -0.1)">
      <defs>
       <path d="M 10.796875 72.90625 
L 49.515625 72.90625 
L 49.515625 64.59375 
L 19.828125 64.59375 
L 19.828125 46.734375 
Q 21.96875 47.46875 24.109375 47.828125 
Q 26.265625 48.1875 28.421875 48.1875 
Q 40.625 48.1875 47.75 41.5 
Q 54.890625 34.8125 54.890625 23.390625 
Q 54.890625 11.625 47.5625 5.09375 
Q 40.234375 -1.421875 26.90625 -1.421875 
Q 22.3125 -1.421875 17.546875 -0.640625 
Q 12.796875 0.140625 7.71875 1.703125 
L 7.71875 11.625 
Q 12.109375 9.234375 16.796875 8.0625 
Q 21.484375 6.890625 26.703125 6.890625 
Q 35.15625 6.890625 40.078125 11.328125 
Q 45.015625 15.765625 45.015625 23.390625 
Q 45.015625 31 40.078125 35.4375 
Q 35.15625 39.890625 26.703125 39.890625 
Q 22.75 39.890625 18.8125 39.015625 
Q 14.890625 38.140625 10.796875 36.28125 
z
" id="DejaVuSans-53"/>
      </defs>
      <use xlink:href="#DejaVuSans-48"/>
      <use x="63.623047" xlink:href="#DejaVuSans-46"/>
      <use x="95.410156" xlink:href="#DejaVuSans-55"/>
      <use x="159.033203" xlink:href="#DejaVuSans-53"/>
     </g>
    </g>
   </g>
   <g id="xtick_7">
    <g id="line2d_9">
     <path d="M 227.022724 248.733857 
L 228.725596 251.027322 
" style="fill:none;stroke:#000000;stroke-linecap:square;stroke-width:0.8;"/>
    </g>
    <g id="text_9">
     <!-- 0.80 -->
     <g transform="translate(222.669757 274.036859)scale(0.1 -0.1)">
      <use xlink:href="#DejaVuSans-48"/>
      <use x="63.623047" xlink:href="#DejaVuSans-46"/>
      <use x="95.410156" xlink:href="#DejaVuSans-56"/>
      <use x="159.033203" xlink:href="#DejaVuSans-48"/>
     </g>
    </g>
   </g>
   <g id="xtick_8">
    <g id="line2d_10">
     <path d="M 250.308781 241.832305 
L 252.050902 244.095734 
" style="fill:none;stroke:#000000;stroke-linecap:square;stroke-width:0.8;"/>
    </g>
    <g id="text_10">
     <!-- 0.85 -->
     <g transform="translate(246.005814 266.990586)scale(0.1 -0.1)">
      <use xlink:href="#DejaVuSans-48"/>
      <use x="63.623047" xlink:href="#DejaVuSans-46"/>
      <use x="95.410156" xlink:href="#DejaVuSans-56"/>
      <use x="159.033203" xlink:href="#DejaVuSans-53"/>
     </g>
    </g>
   </g>
   <g id="xtick_9">
    <g id="line2d_11">
     <path d="M 273.291197 235.020746 
L 275.071401 237.254726 
" style="fill:none;stroke:#000000;stroke-linecap:square;stroke-width:0.8;"/>
    </g>
    <g id="text_11">
     <!-- 0.90 -->
     <g transform="translate(269.036348 260.036566)scale(0.1 -0.1)">
      <use xlink:href="#DejaVuSans-48"/>
      <use x="63.623047" xlink:href="#DejaVuSans-46"/>
      <use x="95.410156" xlink:href="#DejaVuSans-57"/>
      <use x="159.033203" xlink:href="#DejaVuSans-48"/>
     </g>
    </g>
   </g>
   <g id="xtick_10">
    <g id="line2d_12">
     <path d="M 295.975872 228.297433 
L 297.793028 230.502534 
" style="fill:none;stroke:#000000;stroke-linecap:square;stroke-width:0.8;"/>
    </g>
    <g id="text_12">
     <!-- 0.95 -->
     <g transform="translate(291.767321 253.172998)scale(0.1 -0.1)">
      <use xlink:href="#DejaVuSans-48"/>
      <use x="63.623047" xlink:href="#DejaVuSans-46"/>
      <use x="95.410156" xlink:href="#DejaVuSans-57"/>
      <use x="159.033203" xlink:href="#DejaVuSans-53"/>
     </g>
    </g>
   </g>
   <g id="xtick_11">
    <g id="line2d_13">
     <path d="M 318.368554 221.66066 
L 320.221565 223.837439 
" style="fill:none;stroke:#000000;stroke-linecap:square;stroke-width:0.8;"/>
    </g>
    <g id="text_13">
     <!-- 1.00 -->
     <g transform="translate(314.204538 246.398128)scale(0.1 -0.1)">
      <use xlink:href="#DejaVuSans-49"/>
      <use x="63.623047" xlink:href="#DejaVuSans-46"/>
      <use x="95.410156" xlink:href="#DejaVuSans-48"/>
      <use x="159.033203" xlink:href="#DejaVuSans-48"/>
     </g>
    </g>
   </g>
  </g>
  <g id="axis3d_3">
   <g id="line2d_14">
    <path d="M 326.622608 220.119682 
L 332.398026 119.513159 
" style="fill:none;stroke:#000000;stroke-linecap:square;stroke-width:0.8;"/>
   </g>
   <g id="Line3DCollection_3">
    <path d="M 327.262107 208.979739 
L 255.456242 126.512471 
L 116.406262 163.228917 
" style="fill:none;stroke:#b0b0b0;stroke-width:0.8;"/>
    <path d="M 328.337518 190.246321 
L 255.786192 108.56519 
L 115.42634 144.915243 
" style="fill:none;stroke:#b0b0b0;stroke-width:0.8;"/>
    <path d="M 329.434588 171.135602 
L 256.122235 90.286445 
L 114.427591 126.24972 
" style="fill:none;stroke:#b0b0b0;stroke-width:0.8;"/>
    <path d="M 330.553978 151.63607 
L 256.464543 71.666969 
L 113.409468 107.22211 
" style="fill:none;stroke:#b0b0b0;stroke-width:0.8;"/>
    <path d="M 331.696377 131.735735 
L 256.813292 52.697143 
L 112.371401 87.821774 
" style="fill:none;stroke:#b0b0b0;stroke-width:0.8;"/>
   </g>
   <g id="xtick_12">
    <g id="line2d_15">
     <path d="M 326.637134 208.261972 
L 328.51472 210.418333 
" style="fill:none;stroke:#000000;stroke-linecap:square;stroke-width:0.8;"/>
    </g>
    <g id="text_14">
     <!-- −0.04 -->
     <g transform="translate(331.425686 220.806237)scale(0.1 -0.1)">
      <defs>
       <path d="M 10.59375 35.5 
L 73.1875 35.5 
L 73.1875 27.203125 
L 10.59375 27.203125 
z
" id="DejaVuSans-8722"/>
       <path d="M 37.796875 64.3125 
L 12.890625 25.390625 
L 37.796875 25.390625 
z
M 35.203125 72.90625 
L 47.609375 72.90625 
L 47.609375 25.390625 
L 58.015625 25.390625 
L 58.015625 17.1875 
L 47.609375 17.1875 
L 47.609375 0 
L 37.796875 0 
L 37.796875 17.1875 
L 4.890625 17.1875 
L 4.890625 26.703125 
z
" id="DejaVuSans-52"/>
      </defs>
      <use xlink:href="#DejaVuSans-8722"/>
      <use x="83.789062" xlink:href="#DejaVuSans-48"/>
      <use x="147.412109" xlink:href="#DejaVuSans-46"/>
      <use x="179.199219" xlink:href="#DejaVuSans-48"/>
      <use x="242.822266" xlink:href="#DejaVuSans-52"/>
     </g>
    </g>
   </g>
   <g id="xtick_13">
    <g id="line2d_16">
     <path d="M 327.705548 189.534824 
L 329.604181 191.672379 
" style="fill:none;stroke:#000000;stroke-linecap:square;stroke-width:0.8;"/>
    </g>
    <g id="text_15">
     <!-- −0.02 -->
     <g transform="translate(332.700729 202.036091)scale(0.1 -0.1)">
      <defs>
       <path d="M 19.1875 8.296875 
L 53.609375 8.296875 
L 53.609375 0 
L 7.328125 0 
L 7.328125 8.296875 
Q 12.9375 14.109375 22.625 23.890625 
Q 32.328125 33.6875 34.8125 36.53125 
Q 39.546875 41.84375 41.421875 45.53125 
Q 43.3125 49.21875 43.3125 52.78125 
Q 43.3125 58.59375 39.234375 62.25 
Q 35.15625 65.921875 28.609375 65.921875 
Q 23.96875 65.921875 18.8125 64.3125 
Q 13.671875 62.703125 7.8125 59.421875 
L 7.8125 69.390625 
Q 13.765625 71.78125 18.9375 73 
Q 24.125 74.21875 28.421875 74.21875 
Q 39.75 74.21875 46.484375 68.546875 
Q 53.21875 62.890625 53.21875 53.421875 
Q 53.21875 48.921875 51.53125 44.890625 
Q 49.859375 40.875 45.40625 35.40625 
Q 44.1875 33.984375 37.640625 27.21875 
Q 31.109375 20.453125 19.1875 8.296875 
z
" id="DejaVuSans-50"/>
      </defs>
      <use xlink:href="#DejaVuSans-8722"/>
      <use x="83.789062" xlink:href="#DejaVuSans-48"/>
      <use x="147.412109" xlink:href="#DejaVuSans-46"/>
      <use x="179.199219" xlink:href="#DejaVuSans-48"/>
      <use x="242.822266" xlink:href="#DejaVuSans-50"/>
     </g>
    </g>
   </g>
   <g id="xtick_14">
    <g id="line2d_17">
     <path d="M 328.795464 170.430774 
L 330.715616 172.548325 
" style="fill:none;stroke:#000000;stroke-linecap:square;stroke-width:0.8;"/>
    </g>
    <g id="text_16">
     <!-- 0.00 -->
     <g transform="translate(338.191406 182.886293)scale(0.1 -0.1)">
      <use xlink:href="#DejaVuSans-48"/>
      <use x="63.623047" xlink:href="#DejaVuSans-46"/>
      <use x="95.410156" xlink:href="#DejaVuSans-48"/>
      <use x="159.033203" xlink:href="#DejaVuSans-48"/>
     </g>
    </g>
   </g>
   <g id="xtick_15">
    <g id="line2d_18">
     <path d="M 329.90754 150.93833 
L 331.849697 153.034615 
" style="fill:none;stroke:#000000;stroke-linecap:square;stroke-width:0.8;"/>
    </g>
    <g id="text_17">
     <!-- 0.02 -->
     <g transform="translate(339.518819 163.345209)scale(0.1 -0.1)">
      <use xlink:href="#DejaVuSans-48"/>
      <use x="63.623047" xlink:href="#DejaVuSans-46"/>
      <use x="95.410156" xlink:href="#DejaVuSans-48"/>
      <use x="159.033203" xlink:href="#DejaVuSans-50"/>
     </g>
    </g>
   </g>
   <g id="xtick_16">
    <g id="line2d_19">
     <path d="M 331.042456 131.045525 
L 333.007123 133.119218 
" style="fill:none;stroke:#000000;stroke-linecap:square;stroke-width:0.8;"/>
    </g>
    <g id="text_18">
     <!-- 0.04 -->
     <g transform="translate(340.873635 143.400721)scale(0.1 -0.1)">
      <use xlink:href="#DejaVuSans-48"/>
      <use x="63.623047" xlink:href="#DejaVuSans-46"/>
      <use x="95.410156" xlink:href="#DejaVuSans-48"/>
      <use x="159.033203" xlink:href="#DejaVuSans-52"/>
     </g>
    </g>
   </g>
  </g>
  <g id="axes_1">
   <g id="line2d_20">
    <path clip-path="url(#p93c038ecde)" d="M 148.627802 133.486399 
L 162.002285 128.735646 
L 178.417398 123.152354 
L 197.258668 116.99506 
L 217.304495 110.688178 
L 233.515628 105.810657 
L 241.283885 103.640957 
L 246.06401 102.488628 
L 249.340276 101.944801 
L 251.052186 101.852769 
L 252.901172 102.043473 
L 255.117281 102.879202 
L 258.369266 105.302834 
L 263.750443 110.749981 
L 270.657249 118.445454 
L 282.420205 132.105496 
L 290.094458 141.351831 
L 295.15452 147.708195 
L 299.948939 154.136739 
L 302.820699 158.424756 
L 304.573189 161.464811 
L 305.618775 163.715596 
L 306.190059 165.435986 
L 306.428031 166.78294 
L 306.423076 167.857101 
L 306.235801 168.725962 
L 305.773537 169.644212 
L 305.1295 170.356034 
L 304.349731 170.912714 
L 303.231957 171.443661 
L 301.735837 171.900264 
L 299.837834 172.251917 
L 297.231785 172.501839 
L 293.880996 172.596124 
L 289.456716 172.496121 
L 283.300133 172.115933 
L 275.093531 171.367677 
L 263.929928 170.112581 
L 248.069447 168.087181 
L 226.153241 165.049912 
L 201.566045 161.424144 
L 183.341879 158.5324 
L 170.806897 156.330574 
L 162.092843 154.588537 
L 155.649553 153.087348 
L 150.821572 151.745472 
L 147.236331 150.531118 
L 144.574758 149.408872 
L 142.584429 148.333688 
L 141.177968 147.321383 
L 140.255221 146.391902 
L 139.666093 145.482781 
L 139.366234 144.603158 
L 139.306717 143.76354 
L 139.464256 142.873985 
L 139.85744 141.929789 
L 140.506369 140.92588 
L 141.553798 139.733723 
L 142.976023 138.45298 
L 145.015211 136.931351 
L 147.600988 135.279228 
L 151.110289 133.311877 
L 155.414336 131.153391 
L 161.073561 128.574806 
L 167.885702 125.717986 
L 176.661307 122.294296 
L 187.103285 118.470498 
L 199.401553 114.206436 
L 213.74744 109.474176 
L 227.790539 105.071793 
L 236.732423 102.446908 
L 242.080136 101.042244 
L 244.82608 100.44366 
L 247.653481 100.032769 
L 249.131274 99.978138 
L 250.706703 100.130161 
L 252.49486 100.68027 
L 254.770331 102.039454 
L 258.047647 104.920632 
L 262.624322 109.719629 
L 267.772439 115.501036 
L 276.549569 125.785725 
L 282.556571 133.135419 
L 288.161139 140.423595 
L 291.44671 145.14566 
L 293.427658 148.418578 
L 294.609701 150.802137 
L 295.268903 152.602543 
L 295.567949 154.00043 
L 295.608733 155.108999 
L 295.458262 156.002722 
L 295.037341 156.945988 
L 294.430111 157.67819 
L 293.68517 158.253374 
L 292.610142 158.806944 
L 291.165784 159.291654 
L 289.329889 159.678502 
L 286.806926 159.977885 
L 283.562267 160.13844 
L 278.968551 160.122806 
L 273.004871 159.865065 
L 264.748248 159.266963 
L 253.651108 158.226563 
L 238.377243 156.559065 
L 219.142113 154.228454 
L 201.238138 151.846728 
L 187.724734 149.836111 
L 178.180756 148.206142 
L 171.024277 146.76871 
L 165.78317 145.502503 
L 161.848499 144.337131 
L 158.897475 143.241393 
L 156.79267 142.239474 
L 155.281428 141.29188 
L 154.265047 140.41847 
L 153.586796 139.561327 
L 153.20313 138.729484 
L 153.06597 137.933309 
L 153.143914 137.087598 
L 153.455813 136.187606 
L 154.022171 135.228181 
L 154.977065 134.085635 
L 156.307016 132.854459 
L 158.246829 131.386905 
L 160.738091 129.787802 
L 164.154004 127.876165 
L 168.380579 125.769911 
L 173.982537 123.242141 
L 180.776559 120.427892 
L 189.592294 117.038244 
L 200.154264 113.235118 
L 212.666575 108.984666 
L 225.082688 104.993418 
L 235.452504 101.881418 
L 241.59486 100.258437 
L 245.429365 99.496437 
L 248.110609 99.275513 
L 249.544505 99.372326 
L 251.121856 99.752116 
L 252.997544 100.658618 
L 255.472566 102.52782 
L 258.893557 105.835616 
L 263.140365 110.430832 
L 271.450216 120.0211 
L 277.555658 127.422296 
L 281.748558 132.759707 
L 285.776832 138.283386 
L 288.185237 142.016701 
L 289.631789 144.682946 
L 290.465388 146.667499 
L 290.885786 148.19148 
L 291.015028 149.390152 
L 290.931732 150.350706 
L 290.688767 151.131811 
L 290.178559 151.963086 
L 289.509035 152.613591 
L 288.508337 153.23941 
L 287.134325 153.790143 
L 285.364425 154.236413 
L 282.91129 154.595755 
L 279.739111 154.815482 
L 275.537334 154.870572 
L 269.992002 154.713387 
L 262.498446 154.271188 
L 252.191391 153.428423 
L 238.345116 152.06316 
L 221.38712 150.166247 
L 205.031916 148.120067 
L 192.661904 146.362459 
L 183.433057 144.837092 
L 176.576176 143.485276 
L 171.607683 142.294484 
L 167.749788 141.147055 
L 165.025313 140.12024 
L 162.988814 139.126097 
L 161.55068 138.18162 
L 160.60837 137.307805 
L 160.008514 136.44751 
L 159.705893 135.610247 
L 159.65054 134.806905 
L 159.819602 133.951648 
L 160.232923 133.0395 
L 160.912125 132.065051 
L 162.007345 130.902091 
L 163.495274 129.646145 
L 165.631967 128.145694 
L 168.347703 126.507022 
L 172.044697 124.543582 
L 176.595973 122.375305 
L 182.606823 119.76734 
L 189.87847 116.858013 
L 199.296255 113.349132 
L 210.558917 109.41436 
L 222.83968 105.373339 
L 233.544516 102.084053 
L 239.301611 100.484767 
L 242.886707 99.637276 
L 245.347454 99.203603 
L 247.917147 99.023928 
L 249.291412 99.133156 
L 250.796674 99.50342 
L 252.560693 100.338428 
L 254.819504 101.985437 
L 257.852115 104.833777 
L 261.629405 108.85238 
L 269.35687 117.711668 
L 275.269676 124.861837 
L 279.390468 130.100676 
L 283.370997 135.555502 
L 285.754319 139.250526 
L 287.184875 141.890846 
L 288.00763 143.856372 
L 288.420684 145.365904 
L 288.545182 146.553459 
L 288.459159 147.505446 
L 288.215077 148.27999 
L 287.705376 149.104987 
L 287.038171 149.751431 
L 286.042354 150.374582 
L 284.67643 150.9248 
L 282.918268 151.373205 
L 280.482871 151.738383 
L 277.335235 151.968476 
L 273.167841 152.040082 
L 267.362247 151.894776 
L 259.624873 151.458848 
L 249.116277 150.627865 
L 235.148017 149.286628 
L 219.054845 147.517698 
L 204.399021 145.691677 
L 193.329847 144.102007 
L 185.042877 142.699243 
L 178.815751 141.427672 
L 174.216144 140.271715 
L 170.853545 139.214812 
L 168.396883 138.233059 
L 166.587052 137.290199 
L 165.329527 136.40495 
L 164.458506 135.523233 
L 163.969451 134.735004 
L 163.731989 133.979358 
L 163.704124 133.175491 
L 163.904406 132.318756 
L 164.35308 131.40409 
L 165.07222 130.425981 
L 166.217816 129.257482 
L 167.763214 127.994281 
L 169.972407 126.483639 
L 173.057643 124.67454 
L 176.92929 122.677347 
L 182.119613 120.275306 
L 188.474716 117.59493 
L 196.140418 114.60332 
L 205.274381 111.268455 
L 216.038185 107.568261 
L 227.54133 103.849427 
L 236.068101 101.30122 
L 241.738366 99.83151 
L 245.287069 99.166218 
L 247.771563 98.995528 
L 249.095348 99.093744 
L 250.533636 99.424529 
L 252.189813 100.155992 
L 254.251923 101.570125 
L 256.960255 104.007795 
L 260.365042 107.544259 
L 267.690171 115.85952 
L 273.549955 122.910702 
L 277.696003 128.159263 
L 281.720883 133.649022 
L 284.134602 137.369108 
L 285.584879 140.024881 
L 286.420997 141.999913 
L 286.843724 143.515494 
L 286.97573 144.707098 
L 286.895938 145.661989 
L 286.657333 146.438794 
L 286.154281 147.266294 
L 285.493358 147.915009 
L 284.505215 148.540972 
L 283.148516 149.094748 
L 281.401345 149.547692 
L 278.980561 149.919336 
L 275.851537 150.15816 
L 271.708923 150.241858 
L 265.938695 150.114055 
L 258.25072 149.701977 
L 247.815086 148.903158 
L 234.256842 147.631856 
L 218.885259 145.968012 
L 205.193885 144.272268 
L 194.753679 142.768847 
L 186.809745 141.408402 
L 180.897267 140.176541 
L 176.575765 139.062217 
L 173.2978 137.996236 
L 170.929931 137.002244 
L 169.213711 136.044564 
L 168.050728 135.142983 
L 167.331908 134.320648 
L 166.912869 133.519884 
L 166.745344 132.751192 
L 166.794602 131.932464 
L 167.079853 131.058895 
L 167.622058 130.125256 
L 168.553741 129.010491 
L 169.865255 127.806007 
L 171.791786 126.366286 
L 174.279105 124.793056 
L 177.704368 122.9069 
L 181.958462 120.822665 
L 187.616206 118.31423 
L 194.499409 115.514481 
L 202.758301 112.391528 
L 212.550828 108.918817 
L 223.080686 105.401723 
L 233.005368 102.305427 
L 239.457047 100.495872 
L 242.823309 99.703957 
L 245.133071 99.295232 
L 247.535225 99.102222 
L 248.804965 99.163675 
L 250.166511 99.417984 
L 251.696711 99.994449 
L 253.536548 101.110969 
L 255.890156 103.063976 
L 258.887384 106.038119 
L 262.343294 109.795187 
L 269.014643 117.522956 
L 274.110024 123.752678 
L 279.103846 130.2808 
L 282.087047 134.618455 
L 283.888103 137.65568 
L 284.95316 139.87954 
L 285.53302 141.565501 
L 285.777492 142.878603 
L 285.781072 143.923121 
L 285.606136 144.767962 
L 285.167242 145.663456 
L 284.554474 146.362627 
L 283.611773 147.035495 
L 282.295632 147.630246 
L 280.583777 148.117833 
L 278.470103 148.486358 
L 275.387268 148.772093 
L 271.286938 148.897016 
L 265.863382 148.817892 
L 258.528389 148.469423 
L 248.749287 147.768897 
L 235.824422 146.607957 
L 221.040839 145.054166 
L 207.61319 143.426293 
L 197.165565 141.944119 
L 189.448641 140.637542 
L 183.527843 139.416078 
L 179.205077 138.308217 
L 175.931223 137.246153 
L 173.571479 136.254091 
L 171.8666 135.296918 
L 170.717073 134.394773 
L 170.012609 133.571162 
L 169.609236 132.768548 
L 169.458135 131.99759 
L 169.526201 131.175985 
L 169.832838 130.298892 
L 170.399204 129.36104 
L 171.361238 128.240738 
L 172.707079 127.029765 
L 174.676322 125.581748 
L 177.211921 123.998962 
L 180.696633 122.10092 
L 185.017617 120.003326 
L 190.756423 117.478996 
L 197.729263 114.662559 
L 206.084708 111.523903 
L 215.975854 108.04146 
L 226.587059 104.53566 
L 235.510643 101.810051 
L 240.818175 100.38256 
L 244.129727 99.672853 
L 246.414576 99.3634 
L 247.597822 99.306301 
L 248.829235 99.360234 
L 250.142674 99.58955 
L 251.602469 100.104534 
L 253.324357 101.087408 
L 255.479405 102.790828 
L 258.203298 105.409415 
L 261.398112 108.819874 
L 267.823996 116.199153 
L 272.902959 122.376787 
L 277.951262 128.943319 
L 280.982814 133.323607 
L 282.817344 136.390802 
L 283.905554 138.634908 
L 284.502065 140.334824 
L 284.75908 141.657876 
L 284.772549 142.709758 
L 284.605745 143.560261 
L 284.175909 144.46159 
L 283.57089 145.165354 
L 282.636753 145.842915 
L 281.32993 146.442418 
L 279.628245 146.934912 
L 277.525767 147.308647 
L 274.458104 147.601263 
L 270.377231 147.734795 
L 264.979435 147.666639 
L 257.68075 147.332494 
L 247.954927 146.649923 
L 235.409014 145.537855 
L 221.303561 144.065514 
L 208.524162 142.51503 
L 198.67165 141.107066 
L 191.261269 139.836804 
L 185.617037 138.652788 
L 181.358931 137.536127 
L 178.306223 136.518016 
L 176.122422 135.578363 
L 174.547745 134.682921 
L 173.405775 133.780369 
L 172.71019 132.955738 
L 172.317052 132.151623 
L 172.177072 131.378817 
L 172.258197 130.55487 
L 172.579951 129.674917 
L 173.163613 128.733671 
L 174.147564 127.608947 
L 175.518302 126.392855 
L 177.51851 124.938402 
L 180.088915 123.348365 
L 183.615975 121.441578 
L 187.983663 119.334575 
L 193.777324 116.799785 
L 200.807895 113.973681 
L 209.220644 110.828584 
L 219.16149 107.349368 
L 228.856006 104.170919 
L 236.659691 101.814511 
L 241.851245 100.457066 
L 245.095133 99.821747 
L 247.34555 99.598252 
L 248.521135 99.606833 
L 249.758235 99.752945 
L 251.100705 100.115768 
L 252.627595 100.825613 
L 254.466043 102.077465 
L 256.762561 104.085575 
L 259.555519 106.910438 
L 265.719508 113.815214 
L 270.987161 120.127162 
L 276.372922 127.026652 
L 279.631321 131.641429 
L 281.610048 134.858791 
L 282.793257 137.201475 
L 283.455276 138.968736 
L 283.759441 140.339604 
L 283.80815 141.426614 
L 283.66858 142.303714 
L 283.266709 143.231609 
L 282.683276 143.955149 
L 281.770322 144.65126 
L 280.709578 145.178023 
L 279.297402 145.648182 
L 277.249881 146.07939 
L 274.516206 146.403489 
L 270.786478 146.59282 
L 266.046008 146.600707 
L 259.409562 146.370954 
L 250.628493 145.828341 
L 239.26406 144.895675 
L 225.932296 143.57885 
L 213.271127 142.114677 
L 203.001021 140.713748 
L 195.21639 139.43824 
L 189.445533 138.283747 
L 185.062439 137.195632 
L 181.737507 136.149509 
L 179.335584 135.170174 
L 177.594538 134.22365 
L 176.414508 133.330331 
L 175.684824 132.513927 
L 175.258957 131.717689 
L 175.087913 130.952352 
L 175.136256 130.136291 
L 175.423282 129.264707 
L 175.970009 128.332384 
L 176.909966 127.218331 
L 178.233124 126.01384 
L 180.176153 124.573424 
L 182.683402 122.999024 
L 186.1334 121.111521 
L 190.413692 119.026693 
L 196.09829 116.520072 
L 203.000998 113.727857 
L 211.261718 110.624688 
L 221.018407 107.200206 
L 230.522429 104.088055 
L 238.160309 101.811583 
L 242.20274 100.777994 
L 245.344936 100.168858 
L 247.522794 99.953766 
L 248.657813 99.957841 
L 249.847254 100.086094 
L 251.127071 100.405003 
L 252.560301 101.021019 
L 254.247519 102.092008 
L 256.312133 103.802112 
L 258.817115 106.246356 
L 261.650278 109.280534 
L 267.281485 115.758528 
L 271.821405 121.30506 
L 276.44591 127.366787 
L 279.26968 131.494196 
L 280.989832 134.418233 
L 282.009583 136.573384 
L 282.562824 138.214216 
L 282.791618 139.496101 
L 282.786458 140.518285 
L 282.60747 141.34682 
L 282.168184 142.22703 
L 281.559015 142.916064 
L 280.62469 143.581234 
L 279.322551 144.171748 
L 277.630783 144.659012 
L 275.27397 145.067058 
L 272.217593 145.343933 
L 268.164054 145.470693 
L 262.814286 145.405162 
L 255.594522 145.083496 
L 245.99567 144.422285 
L 233.947666 143.362124 
L 221.252837 142.027303 
L 210.100658 140.641217 
L 201.496525 139.362198 
L 194.988165 138.187698 
L 189.951105 137.063575 
L 186.22688 136.016106 
L 183.478344 135.024718 
L 181.440082 134.055806 
L 180.107324 133.197148 
L 179.16864 132.33916 
L 178.624484 131.570168 
L 178.319246 130.746482 
L 178.268021 129.953619 
L 178.447759 129.107146 
L 178.878696 128.202048 
L 179.582837 127.232889 
L 180.714788 126.073738 
L 182.249349 124.819464 
L 184.449144 123.318521 
L 187.525681 121.52056 
L 191.387787 119.536246 
L 196.562181 117.152387 
L 202.887574 114.498748 
L 210.496047 111.55054 
L 219.520168 108.294 
L 229.202527 105.039955 
L 236.395434 102.816477 
L 241.182704 101.506705 
L 244.165496 100.837752 
L 246.212446 100.507756 
L 248.337066 100.367099 
L 249.451291 100.422275 
L 250.626867 100.615372 
L 251.902564 101.0164 
L 253.342246 101.731651 
L 255.037864 102.904762 
L 257.083037 104.676696 
L 259.495147 107.079324 
L 264.814085 112.978411 
L 269.543213 118.626687 
L 274.574807 125.074726 
L 277.69485 129.502784 
L 279.610828 132.628165 
L 280.762649 134.919 
L 281.408418 136.654181 
L 281.704549 138.003913 
L 281.750115 139.076415 
L 281.610531 139.943305 
L 281.211826 140.862016 
L 280.633992 141.579776 
L 279.730329 142.27186 
L 278.680631 142.797006 
L 277.038993 143.332282 
L 274.994556 143.743551 
L 272.275667 144.054642 
L 268.576296 144.238359 
L 263.58776 144.243643 
L 257.028292 144.015613 
L 248.374267 143.484876 
L 237.219653 142.568269 
L 225.054278 141.345912 
L 214.100769 140.03162 
L 205.42426 138.780514 
L 198.636578 137.584537 
L 193.564384 136.472414 
L 189.812377 135.433682 
L 187.041689 134.448859 
L 184.985272 133.48509 
L 183.63895 132.630142 
L 182.688765 131.775218 
L 182.13579 131.008529 
L 181.822428 130.186934 
L 181.764463 129.395792 
L 181.937955 128.550913 
L 182.363066 127.647316 
L 183.061696 126.679611 
L 184.187701 125.522096 
L 185.716217 124.26959 
L 187.908749 122.770935 
L 190.975753 120.976217 
L 194.82525 118.996492 
L 199.98017 116.620104 
L 206.276246 113.978354 
L 213.839476 111.049918 
L 222.791894 107.829166 
L 231.520349 104.914193 
L 238.536597 102.786555 
L 243.199188 101.591126 
L 246.11125 101.050274 
L 248.127147 100.866717 
L 250.263872 100.980106 
L 251.420664 101.236793 
L 252.683634 101.712091 
L 254.112653 102.505035 
L 255.784403 103.73591 
L 257.761401 105.501191 
L 260.030727 107.790384 
L 264.899404 113.21366 
L 269.215339 118.389627 
L 273.876305 124.401146 
L 276.809065 128.602714 
L 278.623442 131.601443 
L 279.71596 133.815373 
L 280.325237 135.500686 
L 280.59817 136.816418 
L 280.628795 137.864839 
L 280.479668 138.714174 
L 280.073775 139.616205 
L 279.492949 140.322407 
L 278.589365 141.004712 
L 277.319707 141.611692 
L 275.662164 142.114676 
L 273.611284 142.502043 
L 270.616746 142.815288 
L 266.632933 142.976843 
L 261.36738 142.945621 
L 254.260777 142.65922 
L 245.12045 142.054805 
L 234.170892 141.105715 
L 222.866482 139.907415 
L 213.298637 138.683317 
L 205.671314 137.495533 
L 199.84051 136.37289 
L 195.422433 135.30409 
L 192.237381 134.323117 
L 189.811685 133.353686 
L 188.163388 132.478321 
L 186.95561 131.593246 
L 186.206247 130.782616 
L 185.765635 129.990695 
L 185.583924 129.228516 
L 185.62404 128.414973 
L 185.905192 127.545333 
L 186.448219 126.614478 
L 187.386248 125.50167 
L 188.709172 124.298277 
L 190.652804 122.859351 
L 193.159829 121.287438 
L 196.605617 119.405034 
L 200.87288 117.329796 
L 206.525022 114.842571 
L 213.362392 112.086531 
L 221.501266 109.052334 
L 230.251374 106.032034 
L 237.608599 103.718401 
L 242.879931 102.298424 
L 245.630119 101.73261 
L 247.520754 101.482608 
L 249.488784 101.429537 
L 250.523018 101.527029 
L 251.613383 101.753437 
L 252.789569 102.163346 
L 254.095654 102.832185 
L 255.588446 103.852073 
L 257.320531 105.306333 
L 259.302299 107.21673 
L 263.686236 111.974187 
L 267.796735 116.833032 
L 272.436908 122.750381 
L 275.431779 126.984063 
L 277.308929 130.02945 
L 278.452562 132.283571 
L 279.102181 134.000596 
L 279.407278 135.341038 
L 279.464104 136.408885 
L 279.336841 137.273735 
L 278.955289 138.192079 
L 278.39495 138.911063 
L 277.513312 139.605972 
L 276.48573 140.134838 
L 274.875209 140.676219 
L 272.866681 141.095225 
L 270.193469 141.416574 
L 266.555312 141.613964 
L 261.651006 141.636812 
L 255.209882 141.429642 
L 246.733845 140.920777 
L 236.429135 140.070294 
L 225.731883 138.964623 
L 216.467966 137.792396 
L 209.119876 136.649894 
L 203.536987 135.572007 
L 199.32983 134.551756 
L 196.159516 133.571557 
L 193.754959 132.600237 
L 192.130677 131.72134 
L 191.029838 130.902487 
L 190.285184 130.091814 
L 189.850991 129.299257 
L 189.676872 128.536025 
L 189.726344 127.720987 
L 190.018622 126.849434 
L 190.57452 125.916288 
L 191.528803 124.800559 
L 192.869841 123.593966 
L 194.83514 122.151408 
L 197.364966 120.576093 
L 200.835637 118.690873 
L 205.125642 116.614872 
L 210.796025 114.131395 
L 217.637888 111.388616 
L 225.754397 108.388764 
L 233.670071 105.697612 
L 240.027704 103.760466 
L 244.249406 102.692324 
L 246.883726 102.216171 
L 248.701581 102.049273 
L 250.607731 102.111122 
L 251.61842 102.28299 
L 252.691971 102.597138 
L 253.857758 103.106613 
L 255.154715 103.877759 
L 256.624804 104.979622 
L 258.294253 106.456807 
L 262.111995 110.393779 
L 265.975435 114.834146 
L 270.650857 120.673352 
L 273.795776 125.015285 
L 275.808011 128.176091 
L 277.056332 130.522708 
L 277.785666 132.310158 
L 278.152335 133.704167 
L 278.25782 134.813315 
L 278.169958 135.710575 
L 277.830779 136.6623 
L 277.30471 137.406794 
L 276.458243 138.126105 
L 275.460084 138.673723 
L 274.119768 139.166819 
L 272.164997 139.626286 
L 269.545373 139.983329 
L 266.244898 140.20221 
L 261.700498 140.268717 
L 255.634197 140.117847 
L 247.834453 139.689986 
L 238.481489 138.952809 
L 228.682935 137.965452 
L 219.737524 136.845772 
L 212.681863 135.748009 
L 207.158276 134.669804 
L 203.021218 133.642293 
L 199.930157 132.650051 
L 197.737533 131.723829 
L 196.175579 130.83357 
L 195.137527 130.00245 
L 194.458846 129.178328 
L 194.092248 128.371599 
L 193.985644 127.593947 
L 194.109375 126.762844 
L 194.483048 125.873526 
L 195.127845 124.920876 
L 196.190096 123.781425 
L 197.649122 122.548981 
L 199.756019 121.075678 
L 202.439762 119.467549 
L 206.091709 117.544984 
L 210.575034 115.431726 
L 216.463648 112.912088 
L 223.5223 110.147588 
L 231.146217 107.404098 
L 237.576303 105.296857 
L 242.191639 103.965991 
L 245.412007 103.210721 
L 247.915488 102.81575 
L 249.647702 102.715709 
L 251.470871 102.855303 
L 252.440178 103.067589 
L 253.469839 103.418188 
L 254.584004 103.951271 
L 255.811831 104.717722 
L 257.180938 105.764937 
L 258.703871 107.117268 
L 262.102492 110.603763 
L 265.530564 114.527814 
L 269.781231 119.836036 
L 272.725498 123.910837 
L 274.64575 126.937491 
L 275.851506 129.212268 
L 276.561945 130.958693 
L 276.921838 132.328032 
L 277.027136 133.421771 
L 276.942867 134.309171 
L 276.611825 135.25294 
L 276.096058 135.993042 
L 275.264113 136.709769 
L 274.281496 137.256701 
L 272.960597 137.750404 
L 271.03254 138.211994 
L 268.44733 138.572665 
L 265.189671 138.796328 
L 260.705499 138.868911 
L 254.725408 138.724308 
L 247.052861 138.299971 
L 238.163243 137.582514 
L 229.134955 136.637669 
L 221.193476 135.59227 
L 214.831815 134.53989 
L 209.93637 133.514072 
L 206.342249 132.552261 
L 203.561013 131.586058 
L 201.627904 130.694771 
L 200.277333 129.84892 
L 199.332728 128.999324 
L 198.791803 128.234873 
L 198.515147 127.498435 
L 198.455158 126.711865 
L 198.630166 125.87074 
L 199.059944 124.970313 
L 199.765792 124.005505 
L 200.90173 122.851409 
L 202.440512 121.603307 
L 204.641775 120.111978 
L 207.709872 118.33071 
L 211.543044 116.374344 
L 216.645154 114.04279 
L 222.825836 111.482735 
L 229.558598 108.93008 
L 236.626745 106.493093 
L 241.562544 104.989237 
L 245.288332 104.052417 
L 247.609819 103.632999 
L 250.022351 103.44443 
L 251.718245 103.557871 
L 253.548664 104.013571 
L 254.546808 104.435655 
L 255.624762 105.033157 
L 256.802229 105.841753 
L 258.092887 106.887367 
L 260.984957 109.668208 
L 264.038323 113.028793 
L 268.102638 117.973722 
L 271.090384 122.005538 
L 273.108248 125.083568 
L 274.40973 127.425053 
L 275.202018 129.232329 
L 275.629775 130.652673 
L 275.791381 131.788207 
L 275.706508 132.978536 
L 275.373536 133.899487 
L 274.86171 134.624592 
L 274.03965 135.329298 
L 273.070294 135.868827 
L 271.768045 136.357336 
L 269.867761 136.815648 
L 267.320316 137.175323 
L 263.838906 137.410948 
L 259.418475 137.472921 
L 253.538956 137.319857 
L 246.299172 136.904488 
L 237.898061 136.198472 
L 229.658014 135.287613 
L 222.490413 134.275092 
L 216.852083 133.258989 
L 212.606525 132.279079 
L 209.413145 131.326012 
L 207.127482 130.432321 
L 205.478165 129.570784 
L 204.360056 128.76489 
L 203.603074 127.964718 
L 203.160526 127.180735 
L 202.981052 126.424595 
L 203.026951 125.616243 
L 203.317037 124.751212 
L 203.87153 123.824734 
L 204.824158 122.717084 
L 206.1619 121.520013 
L 208.119032 120.090847 
L 210.631935 118.533918 
L 214.067287 116.67796 
L 218.293558 114.646923 
L 223.843041 112.242885 
L 229.925311 109.847111 
L 236.340358 107.552755 
L 241.503347 105.917439 
L 245.637695 104.843378 
L 248.525083 104.340117 
L 250.788045 104.217664 
L 252.377371 104.364086 
L 254.082913 104.818047 
L 255.984841 105.747134 
L 258.179119 107.340642 
L 260.686166 109.667852 
L 263.340893 112.515524 
L 267.004038 116.902009 
L 269.827933 120.667044 
L 271.803098 123.637732 
L 273.110588 125.94152 
L 273.926597 127.740242 
L 274.383513 129.164062 
L 274.574945 130.307779 
L 274.528032 131.511125 
L 274.230051 132.44494 
L 273.750348 133.181821 
L 272.965053 133.899443 
L 272.029505 134.450021 
L 270.764951 134.949707 
L 268.911611 135.42013 
L 266.419734 135.791565 
L 263.275552 136.026549 
L 258.948498 136.110543 
L 253.465675 135.984608 
L 246.655566 135.602219 
L 238.981312 134.950556 
L 231.458121 134.094308 
L 224.966586 133.13689 
L 219.932961 132.182585 
L 216.030943 131.229033 
L 213.137887 130.307532 
L 210.979299 129.393699 
L 209.459006 128.509574 
L 208.466429 127.680364 
L 207.883156 126.933157 
L 207.566117 126.21266 
L 207.463108 125.442663 
L 207.591864 124.619009 
L 207.97142 123.737272 
L 208.62214 122.792771 
L 209.689654 121.663739 
L 211.150493 120.444191 
L 213.251915 118.989701 
L 216.188964 117.257661 
L 219.860012 115.364227 
L 224.327563 113.304125 
L 229.647741 111.084356 
L 235.306038 108.943137 
L 240.49161 107.188425 
L 244.855374 105.939533 
L 247.475223 105.36717 
L 249.508077 105.084559 
L 251.623231 105.034919 
L 253.107426 105.219708 
L 254.691511 105.681155 
L 256.431563 106.543496 
L 258.386623 107.933953 
L 260.562981 109.894729 
L 262.852832 112.289812 
L 266.087967 116.100036 
L 268.69102 119.530628 
L 270.580932 122.338363 
L 271.869314 124.568417 
L 272.695535 126.33645 
L 273.273274 128.15788 
L 273.425803 129.537441 
L 273.280255 130.603301 
L 272.920257 131.440993 
L 272.402148 132.108603 
L 271.590448 132.764299 
L 270.442225 133.357847 
L 268.935039 133.859154 
L 266.820773 134.293054 
L 264.068458 134.605668 
L 260.417003 134.77732 
L 255.617907 134.761351 
L 249.744292 134.513794 
L 242.691796 133.985911 
L 235.718022 133.245866 
L 229.465904 132.367772 
L 224.421556 131.446146 
L 220.50585 130.51624 
L 217.59872 129.612495 
L 215.426016 128.713129 
L 213.892041 127.841042 
L 212.886543 127.02196 
L 212.244915 126.206363 
L 211.938993 125.488409 
L 211.847724 124.720837 
L 211.988654 123.899633 
L 212.38054 123.02055 
L 213.043359 122.07914 
L 214.12339 120.954435 
L 215.5948 119.740713 
L 217.703902 118.295374 
L 220.641586 116.578483 
L 224.300178 114.709118 
L 228.734223 112.688646 
L 233.986835 110.538256 
L 239.5347 108.517685 
L 243.996134 107.123942 
L 246.956986 106.383591 
L 249.423677 105.96334 
L 251.344845 105.839727 
L 252.6748 105.90902 
L 254.064436 106.161201 
L 255.542865 106.671462 
L 257.147885 107.52995 
L 258.909755 108.813475 
L 260.81609 110.529346 
L 262.78404 112.57136 
L 265.569639 115.832853 
L 267.867341 118.856466 
L 269.586437 121.411953 
L 271.093736 124.095272 
L 271.922406 126.116211 
L 272.271081 127.653852 
L 272.279547 128.842488 
L 272.042628 129.775853 
L 271.625005 130.518852 
L 270.916027 131.247895 
L 270.054401 131.811067 
L 268.875386 132.325441 
L 267.131803 132.813295 
L 264.772833 133.202383 
L 261.78607 133.452691 
L 257.931877 133.548208 
L 252.992589 133.445081 
L 247.075985 133.100707 
L 240.623026 132.507472 
L 234.562123 131.737889 
L 229.440218 130.877195 
L 225.432713 129.996694 
L 222.274294 129.08393 
L 220.023936 128.217193 
L 218.411114 127.374889 
L 217.328879 126.58281 
L 216.608543 125.793586 
L 216.202226 125.018535 
L 216.057381 124.26997 
L 216.139297 123.469171 
L 216.466027 122.612179 
L 217.056719 121.694887 
L 218.047237 120.599853 
L 219.417694 119.419512 
L 221.400188 118.016249 
L 224.177337 116.353633 
L 227.646555 114.550498 
L 231.854763 112.613867 
L 236.834322 110.576176 
L 241.574895 108.872469 
L 245.198821 107.767921 
L 247.932758 107.112952 
L 250.20936 106.760254 
L 251.980227 106.675965 
L 253.830276 106.850044 
L 255.130148 107.181828 
L 256.507143 107.752998 
L 257.982992 108.623173 
L 259.566057 109.829181 
L 261.231602 111.352805 
L 263.73302 114.028538 
L 265.984354 116.783824 
L 267.805443 119.294187 
L 269.526182 122.067934 
L 270.566598 124.222107 
L 271.096931 125.885203 
L 271.25557 127.179745 
L 271.142563 128.199628 
L 270.828318 129.012837 
L 270.362551 129.668131 
L 269.62055 130.317932 
L 268.558301 130.911565 
L 267.152038 131.417225 
L 265.167256 131.858507 
L 262.573431 132.179065 
L 259.127325 132.356359 
L 254.857384 132.344909 
L 249.600066 132.105563 
L 243.76536 131.6204 
L 238.028342 130.927256 
L 232.979254 130.097096 
L 229.03682 129.233522 
L 226.09208 128.380669 
L 223.874582 127.524141 
L 222.291907 126.689034 
L 221.23667 125.902159 
L 220.541967 125.117183 
L 220.159529 124.345786 
L 220.036431 123.600547 
L 220.140043 122.803339 
L 220.488013 121.950482 
L 221.098939 121.038233 
L 222.109834 119.950462 
L 223.497106 118.780002 
L 225.491623 117.392243 
L 228.269917 115.755218 
L 231.720792 113.992723 
L 235.879982 112.123791 
L 240.327729 110.366872 
L 244.407108 108.986171 
L 247.835966 108.0689 
L 250.41723 107.622314 
L 252.572571 107.516911 
L 254.262219 107.68995 
L 255.438986 107.983497 
L 256.670131 108.465662 
L 257.967536 109.176048 
L 259.335323 110.140801 
L 260.759735 111.355305 
L 262.914468 113.533836 
L 264.920436 115.885402 
L 267.105717 118.841953 
L 268.639895 121.329077 
L 269.596864 123.319233 
L 270.100751 124.890526 
L 270.262946 126.133775 
L 270.169124 127.125116 
L 269.882165 127.922762 
L 269.320342 128.7123 
L 268.590796 129.326924 
L 267.554719 129.892375 
L 266.188333 130.376687 
L 264.2636 130.800595 
L 261.751505 131.107544 
L 258.418972 131.272259 
L 254.300214 131.2465 
L 249.252458 130.985708 
L 243.921159 130.492162 
L 238.718739 129.789794 
L 234.392759 128.988881 
L 230.92798 128.125152 
L 228.408593 127.279573 
L 226.567889 126.438651 
L 225.304942 125.62985 
L 224.506878 124.881529 
L 224.01898 124.145791 
L 223.790672 123.434928 
L 223.778376 122.674623 
L 223.998713 121.861586 
L 224.469129 120.992502 
L 225.307223 119.957205 
L 226.502179 118.844731 
L 228.259905 117.528193 
L 230.514973 116.112953 
L 233.578814 114.461023 
L 237.302852 112.716337 
L 241.306707 111.083959 
L 244.990926 109.804921 
L 248.093173 108.947978 
L 250.4282 108.506747 
L 252.370602 108.34643 
L 253.879634 108.407869 
L 255.4484 108.700212 
L 257.097823 109.310782 
L 258.251939 109.93792 
L 260.062088 111.243296 
L 261.916885 112.943753 
L 263.704901 114.88608 
L 265.774758 117.50949 
L 267.340673 119.868701 
L 268.397378 121.843688 
L 269.020527 123.448189 
L 269.300101 124.740761 
L 269.314288 125.783487 
L 269.124408 126.629083 
L 268.776878 127.319106 
L 268.173017 128.010766 
L 267.263441 128.649302 
L 266.020522 129.198953 
L 264.435922 129.640466 
L 262.296488 129.993788 
L 259.364446 130.225816 
L 255.656099 130.274499 
L 251.253849 130.103844 
L 246.308257 129.68705 
L 241.454849 129.053697 
L 237.422452 128.316775 
L 234.194455 127.518915 
L 231.717851 126.692178 
L 229.912531 125.865718 
L 228.678484 125.068532 
L 227.903373 124.329846 
L 227.43482 123.60308 
L 227.222317 122.900777 
L 227.223856 122.149821 
L 227.455476 121.347318 
L 227.93386 120.490451 
L 228.775712 119.471495 
L 229.967337 118.379437 
L 231.710336 117.092146 
L 234.161876 115.587492 
L 237.218366 113.991253 
L 240.897719 112.340985 
L 244.43437 110.991709 
L 247.553685 110.021203 
L 250.048358 109.453018 
L 252.224374 109.186327 
L 254.034099 109.204329 
L 255.440616 109.422229 
L 256.900331 109.880003 
L 258.421813 110.636536 
L 259.999321 111.725301 
L 261.595774 113.121271 
L 263.138673 114.728624 
L 264.966868 116.967119 
L 266.40914 119.069407 
L 267.431724 120.899352 
L 268.073228 122.431715 
L 268.397642 123.694028 
L 268.468305 124.729111 
L 268.338814 125.578744 
L 267.959509 126.433496 
L 267.39634 127.108089 
L 266.541212 127.736151 
L 265.365232 128.280799 
L 263.858782 128.720931 
L 261.817865 129.074636 
L 259.234486 129.296119 
L 255.915219 129.35788 
L 251.711154 129.199601 
L 247.212854 128.80376 
L 242.807185 128.192375 
L 239.184858 127.479605 
L 236.321838 126.710894 
L 234.158008 125.92093 
L 232.607834 125.140855 
L 231.495301 124.335881 
L 230.828736 123.589181 
L 230.463438 122.85436 
L 230.347444 122.144525 
L 230.448576 121.386184 
L 230.782373 120.576976 
L 231.445494 119.61568 
L 232.437495 118.586955 
L 233.934273 117.376852 
L 235.881722 116.087589 
L 238.545796 114.603641 
L 241.788094 113.073443 
L 244.927071 111.821982 
L 248.071827 110.809139 
L 250.707315 110.210073 
L 252.68331 109.981641 
L 254.320893 109.997461 
L 256.015311 110.275091 
L 257.328949 110.712958 
L 258.680375 111.389387 
L 260.059354 112.321317 
L 261.436498 113.488089 
L 263.182659 115.294422 
L 264.704026 117.188731 
L 265.909603 118.984773 
L 266.940992 120.943619 
L 267.496414 122.547137 
L 267.666625 123.830965 
L 267.538999 124.852407 
L 267.184547 125.665527 
L 266.657578 126.314536 
L 265.854136 126.924505 
L 264.744329 127.457856 
L 263.317172 127.891678 
L 261.377945 128.241707 
L 258.71027 128.470682 
L 255.33699 128.510284 
L 251.356005 128.316554 
L 247.139878 127.879156 
L 243.251037 127.250529 
L 240.118141 126.530436 
L 237.703645 125.76394 
L 235.936146 124.986977 
L 234.721472 124.232083 
L 233.894701 123.463279 
L 233.444288 122.766371 
L 233.230576 122.015326 
L 233.256626 121.290796 
L 233.504645 120.518298 
L 234.058513 119.601888 
L 234.924814 118.623269 
L 236.261775 117.475676 
L 238.023604 116.258574 
L 240.451224 114.867394 
L 243.148662 113.566621 
L 245.985525 112.41899 
L 248.831557 111.502404 
L 251.216948 110.966619 
L 253.00313 110.759668 
L 254.478789 110.759856 
L 255.996385 110.968527 
L 257.556677 111.451835 
L 258.751645 112.030111 
L 259.957003 112.805494 
L 261.541129 114.118536 
L 263.022656 115.651846 
L 264.595305 117.653784 
L 265.757355 119.526104 
L 266.494257 121.14687 
L 266.85383 122.493541 
L 266.903844 123.591463 
L 266.709022 124.48006 
L 266.323374 125.197846 
L 265.668087 125.879404 
L 264.854805 126.406503 
L 263.593904 126.9257 
L 262.01054 127.321781 
L 259.929188 127.609461 
L 257.162648 127.752917 
L 253.764728 127.690738 
L 250.059384 127.399229 
L 246.396214 126.894882 
L 243.249111 126.253116 
L 240.656094 125.505727 
L 238.73746 124.72565 
L 237.40776 123.949377 
L 236.562516 123.210338 
L 236.053075 122.469788 
L 235.830767 121.741601 
L 235.84249 121.039673 
L 236.069001 120.292316 
L 236.589176 119.40771 
L 237.409623 118.466202 
L 238.679217 117.36764 
L 240.352019 116.211312 
L 242.651666 114.905709 
L 245.19633 113.709811 
L 247.857891 112.691362 
L 250.205302 112.005155 
L 252.39841 111.594891 
L 254.03409 111.485282 
L 255.720957 111.607509 
L 257.103343 111.930814 
L 258.507792 112.501397 
L 259.916528 113.342118 
L 261.292609 114.434552 
L 262.579215 115.710329 
L 263.966626 117.409273 
L 265.028091 119.052618 
L 265.737499 120.525857 
L 266.118589 121.787709 
L 266.218245 122.841903 
L 266.087325 123.711575 
L 265.771706 124.424691 
L 265.202478 125.110636 
L 264.474105 125.647259 
L 263.475412 126.124534 
L 262.02536 126.556872 
L 260.091154 126.879302 
L 257.683207 127.048974 
L 254.666162 127.032451 
L 251.335327 126.795995 
L 247.850893 126.323468 
L 244.866621 125.700299 
L 242.550786 125.008179 
L 240.744515 124.240953 
L 239.511293 123.474615 
L 238.747107 122.744117 
L 238.31004 122.012257 
L 238.151159 121.293458 
L 238.217204 120.601921 
L 238.538783 119.783405 
L 239.13793 118.912589 
L 240.136336 117.897181 
L 241.507544 116.829087 
L 243.442891 115.622876 
L 245.839611 114.41517 
L 248.426627 113.379393 
L 250.794939 112.675622 
L 252.771241 112.307805 
L 254.542525 112.202632 
L 256.062492 112.333151 
L 257.299761 112.625269 
L 258.54624 113.115384 
L 259.785127 113.817292 
L 260.987995 114.71827 
L 262.379244 116.054342 
L 263.56595 117.497462 
L 264.484959 118.914415 
L 265.204998 120.455315 
L 265.50343 121.561693 
L 265.563476 122.502612 
L 265.423656 123.291568 
L 265.042699 124.064643 
L 264.479063 124.679567 
L 263.646876 125.235594 
L 262.527899 125.702932 
L 260.958621 126.094265 
L 258.925552 126.35354 
L 256.282641 126.443628 
L 253.288989 126.316773 
L 250.086169 125.957262 
L 247.157408 125.409678 
L 244.735211 124.73558 
L 242.943058 124.014028 
L 241.704801 123.28758 
L 240.922598 122.59257 
L 240.456919 121.895262 
L 240.260973 121.210319 
L 240.298421 120.476254 
L 240.585235 119.693343 
L 241.136605 118.863189 
L 242.064948 117.900076 
L 243.344491 116.89465 
L 245.150423 115.772678 
L 247.38096 114.6718 
L 249.546683 113.836391 
L 251.708009 113.23417 
L 253.505342 112.944521 
L 255.109351 112.893145 
L 256.478029 113.043841 
L 257.861519 113.417392 
L 259.238116 114.045762 
L 260.571611 114.928981 
L 261.808671 116.020076 
L 263.079375 117.479211 
L 264.03768 118.942993 
L 264.649955 120.287693 
L 264.93153 121.45437 
L 264.925036 122.432194 
L 264.680884 123.235156 
L 264.246585 123.886146 
L 263.553384 124.485041 
L 262.577724 124.997903 
L 261.315666 125.4028 
L 259.621639 125.708085 
L 257.33978 125.871527 
L 254.690942 125.830464 
L 251.796294 125.565556 
L 248.968934 125.085109 
L 246.612163 124.46505 
L 244.855834 123.78797 
L 243.63192 123.100049 
L 242.795481 122.38111 
L 242.339216 121.711902 
L 242.142834 121.054877 
L 242.170133 120.351847 
L 242.435686 119.604081 
L 242.952951 118.814398 
L 243.826418 117.903793 
L 245.155525 116.875319 
L 246.881713 115.840422 
L 248.804007 114.9341 
L 250.812411 114.212423 
L 252.803262 113.731678 
L 254.447139 113.54484 
L 255.903207 113.577698 
L 257.381806 113.846801 
L 258.610613 114.286039 
L 259.809763 114.93242 
L 260.94344 115.768235 
L 262.155266 116.951227 
L 263.13587 118.217031 
L 263.837787 119.451372 
L 264.250416 120.577073 
L 264.39284 121.558424 
L 264.299839 122.389286 
L 264.010479 123.079375 
L 263.473779 123.728056 
L 262.770474 124.234033 
L 261.686563 124.713722 
L 260.319634 125.06786 
L 258.544475 125.301629 
L 256.237203 125.372193 
L 253.637789 125.227327 
L 251.032554 124.870594 
L 248.689444 124.339286 
L 246.805104 123.693606 
L 245.469855 123.013621 
L 244.60226 122.342311 
L 244.069956 121.655684 
L 243.830729 120.970533 
L 243.836036 120.302626 
L 244.067234 119.594037 
L 244.596567 118.7723 
L 245.426263 117.915106 
L 246.682842 116.958073 
L 248.30546 116.012799 
L 250.100361 115.209288 
L 251.961772 114.601283 
L 253.791867 114.237942 
L 255.290128 114.145402 
L 256.825684 114.286885 
L 258.144455 114.640558 
L 259.431476 115.232226 
L 260.641181 116.049956 
L 261.717249 117.039954 
L 262.730099 118.300038 
L 263.426186 119.544278 
L 263.791572 120.677072 
L 263.859107 121.524172 
L 263.728325 122.249844 
L 263.365864 122.950768 
L 262.821465 123.511619 
L 262.028212 124.006264 
L 260.851534 124.444319 
L 259.264706 124.76141 
L 257.289733 124.911326 
L 254.998804 124.862243 
L 252.514964 124.589317 
L 250.250173 124.128581 
L 248.40577 123.543364 
L 247.002805 122.869671 
L 246.089519 122.186664 
L 245.571793 121.53386 
L 245.333845 120.882657 
L 245.329083 120.248976 
L 245.538167 119.578762 
L 246.027366 118.805309 
L 246.797949 118.004382 
L 247.965001 117.120117 
L 249.467913 116.262064 
L 251.285527 115.494383 
L 253.009414 114.999393 
L 254.687563 114.748408 
L 256.243789 114.756676 
L 257.620912 115.000128 
L 258.781914 115.41274 
L 259.890172 116.016825 
L 261.061301 116.92873 
L 262.034954 117.982668 
L 262.755352 119.074748 
L 263.196248 120.115649 
L 263.362679 121.049402 
L 263.281419 121.852175 
L 262.989231 122.521847 
L 262.524387 123.067692 
L 261.826831 123.557532 
L 260.77071 123.999847 
L 259.324892 124.328871 
L 257.506793 124.495452 
L 255.38522 124.464936 
L 253.081309 124.210708 
L 250.987406 123.766748 
L 249.297106 123.196904 
L 248.100993 122.583333 
L 247.2802 121.922543 
L 246.833317 121.29185 
L 246.65199 120.664658 
L 246.705206 119.994521 
L 247.006481 119.28741 
L 247.566203 118.55265 
L 248.478237 117.736934 
L 249.703113 116.936282 
L 251.225734 116.200091 
L 252.854297 115.64887 
L 254.489756 115.329304 
L 255.870097 115.262224 
L 257.276426 115.420426 
L 258.491035 115.778162 
L 259.647071 116.349549 
L 260.69327 117.109517 
L 261.575321 117.999354 
L 262.324866 119.076634 
L 262.765559 120.11741 
L 262.89916 120.941993 
L 262.817899 121.661897 
L 262.550341 122.271536 
L 262.056112 122.839083 
L 261.312 123.329555 
L 260.314914 123.717074 
L 258.963975 124.001809 
L 257.15464 124.137374 
L 255.081277 124.059482 
L 252.997388 123.76476 
L 251.145755 123.289584 
L 249.700451 122.696488 
L 248.730677 122.067529 
L 248.159639 121.448338 
L 247.879886 120.820509 
L 247.849227 120.202393 
L 248.047708 119.54987 
L 248.485014 118.872115 
L 249.240632 118.120327 
L 250.385262 117.322965 
L 251.727722 116.64966 
L 253.312277 116.106401 
L 254.778985 115.824401 
L 256.171921 115.768651 
L 257.428993 115.924845 
L 258.658772 116.305591 
L 259.806323 116.912482 
L 260.80822 117.706818 
L 261.603132 118.613942 
L 262.147139 119.546471 
L 262.423893 120.430645 
L 262.443651 121.21972 
L 262.234556 121.892809 
L 261.832857 122.446934 
L 261.197114 122.936832 
L 260.319449 123.333994 
L 259.105556 123.637175 
L 257.567177 123.795101 
L 255.654914 123.760785 
L 253.715292 123.508545 
L 251.983607 123.073814 
L 250.630089 122.519213 
L 249.723321 121.926343 
L 249.192008 121.34149 
L 248.935204 120.749088 
L 248.912525 120.167639 
L 249.104827 119.556852 
L 249.568811 118.869299 
L 250.301606 118.178949 
L 251.392455 117.462769 
L 252.769088 116.836187 
L 254.253451 116.411499 
L 255.603588 116.238236 
L 256.863601 116.276961 
L 258.116563 116.540867 
L 259.175427 116.977852 
L 260.130595 117.589071 
L 261.01722 118.427571 
L 261.647381 119.336962 
L 261.989899 120.227249 
L 262.053914 120.949732 
L 261.910656 121.581224 
L 261.536419 122.17231 
L 260.978892 122.639449 
L 260.110165 123.056851 
L 258.904863 123.362024 
L 257.387092 123.504968 
L 255.635158 123.448477 
L 253.783307 123.16402 
L 252.251606 122.716347 
L 251.091912 122.157332 
L 250.356383 121.567621 
L 249.970501 120.992311 
L 249.842506 120.416106 
L 249.948442 119.805788 
L 250.298262 119.173986 
L 250.956838 118.486547 
L 251.900173 117.829526 
L 253.106778 117.253677 
L 254.418055 116.856806 
L 255.740357 116.672127 
L 256.991805 116.708733 
L 258.10868 116.94281 
L 259.162121 117.377731 
L 260.092478 117.991979 
L 260.841182 118.731768 
L 261.36281 119.524727 
L 261.635055 120.301245 
L 261.660692 121.010129 
L 261.461897 121.622629 
L 261.071716 122.128246 
L 260.45828 122.566281 
L 259.538207 122.933999 
L 258.304203 123.173967 
L 256.800272 123.240674 
L 255.125484 123.099939 
L 253.513784 122.748679 
L 252.242942 122.255443 
L 251.393227 121.70496 
L 250.907768 121.14892 
L 250.698894 120.580594 
L 250.728969 120.021563 
L 250.983083 119.441877 
L 251.515772 118.81022 
L 252.382949 118.160284 
L 253.530654 117.596181 
L 254.805206 117.217255 
L 256.104454 117.061579 
L 257.336615 117.13999 
L 258.428765 117.425637 
L 259.427478 117.914651 
L 260.264203 118.568961 
L 260.878982 119.319564 
L 261.234247 120.087579 
L 261.321829 120.80692 
L 261.159643 121.435498 
L 260.782258 121.954101 
L 260.168296 122.393956 
L 259.247859 122.748284 
L 258.025835 122.961177 
L 256.561603 122.989186 
L 254.971647 122.800335 
L 253.563314 122.420426 
L 252.497329 121.913623 
L 251.833 121.362325 
L 251.507223 120.815791 
L 251.439951 120.266998 
L 251.612641 119.69299 
L 252.031201 119.113236 
L 252.752746 118.513782 
L 253.734955 117.986863 
L 254.935855 117.597531 
L 256.186766 117.429831 
L 257.387109 117.499463 
L 258.454311 117.782768 
L 259.413686 118.270934 
L 260.189809 118.91857 
L 260.721046 119.649701 
L 260.974137 120.382348 
L 260.962368 120.994681 
L 260.740315 121.524709 
L 260.290517 121.997021 
L 259.60866 122.37783 
L 258.64018 122.656524 
L 257.332397 122.784769 
L 255.849055 122.699388 
L 254.416341 122.395417 
L 253.298383 121.939425 
L 252.576802 121.417669 
L 252.203442 120.885365 
L 252.102627 120.382996 
L 252.221904 119.857173 
L 252.566814 119.326487 
L 253.186669 118.778469 
L 254.11523 118.265998 
L 255.187517 117.917283 
L 256.393686 117.762874 
L 257.554538 117.850405 
L 258.578664 118.154281 
L 259.471934 118.65794 
L 260.154714 119.304939 
L 260.568685 120.012169 
L 260.691358 120.643047 
L 260.576804 121.208707 
L 260.252771 121.682336 
L 259.705302 122.082127 
L 258.880493 122.396004 
L 257.791578 122.570559 
L 256.435425 122.557537 
L 255.085604 122.328412 
L 253.949978 121.918174 
L 253.201542 121.423124 
L 252.806784 120.904349 
L 252.697358 120.406582 
L 252.82298 119.886349 
L 253.188317 119.367 
L 253.837509 118.847167 
L 254.725983 118.415255 
L 255.801644 118.135383 
L 256.903552 118.07305 
L 257.931901 118.228052 
L 258.876912 118.596689 
L 259.648424 119.144436 
L 260.140194 119.745791 
L 260.38322 120.367425 
L 260.371661 120.948395 
L 260.126006 121.447694 
L 259.683954 121.844702 
L 258.980756 122.171744 
L 257.956008 122.381117 
L 256.726577 122.399193 
L 255.426972 122.195914 
L 254.382613 121.823519 
L 253.662614 121.340432 
L 253.314183 120.858786 
L 253.229952 120.365315 
L 253.37582 119.888267 
L 253.774537 119.387091 
L 254.461488 118.906255 
L 255.3793 118.539359 
L 256.458395 118.356181 
L 257.525768 118.409517 
L 258.473512 118.680609 
L 259.275372 119.146132 
L 259.812464 119.697365 
L 260.101226 120.290719 
L 260.134213 120.816857 
L 259.955123 121.2814 
L 259.555469 121.688686 
L 258.890589 122.02086 
L 257.969105 122.221694 
L 256.797522 122.242084 
L 255.622877 122.049497 
L 254.645834 121.677681 
L 254.026256 121.219711 
L 253.738075 120.738593 
L 253.717599 120.280404 
L 253.926298 119.815131 
L 254.397407 119.345248 
L 255.152301 118.927527 
L 256.111238 118.660608 
L 257.116469 118.609929 
L 258.053687 118.776125 
L 258.882473 119.147134 
L 259.504698 119.674065 
L 259.834964 120.232855 
L 259.902385 120.744369 
L 259.747322 121.201141 
L 259.364825 121.599091 
L 258.718818 121.915669 
L 257.826977 122.094736 
L 256.713195 122.087377 
L 255.625467 121.866793 
L 254.796419 121.491919 
L 254.306986 121.04734 
L 254.123867 120.592226 
L 254.180881 120.169327 
L 254.471915 119.725327 
L 255.027721 119.303328 
L 255.849182 118.973033 
L 256.771447 118.834782 
L 257.733122 118.916241 
L 258.563232 119.206123 
L 259.212537 119.666968 
L 259.581983 120.186093 
L 259.68572 120.67866 
L 259.559062 121.125212 
L 259.229606 121.490955 
L 258.660384 121.788355 
L 257.816125 121.968355 
L 256.762584 121.958282 
L 255.746466 121.733219 
L 254.996697 121.354223 
L 254.604277 120.932329 
L 254.492485 120.509072 
L 254.608952 120.098461 
L 254.966701 119.684033 
L 255.583233 119.318829 
L 256.43665 119.081664 
L 257.341632 119.057886 
L 258.172066 119.244346 
L 258.864729 119.617756 
L 259.302327 120.083939 
L 259.480093 120.585303 
L 259.402329 121.023712 
L 259.111391 121.3881 
L 258.57926 121.682979 
L 257.779712 121.857214 
L 256.786553 121.839183 
L 255.845414 121.606814 
L 255.180023 121.223816 
L 254.871092 120.802399 
L 254.839157 120.41047 
L 255.029027 120.019276 
L 255.461202 119.646841 
L 256.134785 119.355871 
L 256.999628 119.229863 
L 257.851064 119.328746 
L 258.560528 119.621048 
L 259.064585 120.057909 
L 259.284312 120.527516 
L 259.24513 120.951442 
L 258.986144 121.308376 
L 258.486535 121.595138 
L 257.729135 121.75876 
L 256.796208 121.72926 
L 255.932203 121.488251 
L 255.371828 121.12101 
L 255.139473 120.727481 
L 255.162436 120.348524 
L 255.409723 119.982757 
L 255.924632 119.643325 
L 256.671243 119.430234 
L 257.513758 119.427345 
L 258.266359 119.643374 
L 258.810109 120.014373 
L 259.087887 120.446396 
L 259.106452 120.855752 
L 258.89826 121.210142 
L 258.447402 121.498347 
L 257.74169 121.664674 
L 256.867117 121.638884 
L 256.065565 121.403469 
L 255.565011 121.044007 
L 255.388406 120.661302 
L 255.465281 120.299557 
L 255.786296 119.949094 
L 256.350304 119.673309 
L 257.102518 119.553168 
L 257.883744 119.653543 
L 258.5088 119.949054 
L 258.878953 120.351775 
L 258.969464 120.763625 
L 258.817648 121.113795 
L 258.445646 121.393172 
L 257.832018 121.569743 
L 257.014301 121.569751 
L 256.253665 121.359572 
L 255.779118 121.021438 
L 255.621147 120.65681 
L 255.714825 120.314094 
L 256.049411 119.992905 
L 256.641997 119.753004 
L 257.365662 119.696126 
L 258.070841 119.855565 
L 258.580586 120.182761 
L 258.816124 120.57933 
L 258.785333 120.934181 
L 258.539282 121.228066 
L 258.051079 121.448292 
L 257.330606 121.519436 
L 256.57625 121.38112 
L 256.045555 121.081513 
L 255.836628 120.730479 
L 255.892729 120.404881 
L 256.187586 120.098038 
L 256.734147 119.870753 
L 257.437293 119.823097 
L 258.107593 119.99955 
L 258.555773 120.339466 
L 258.703389 120.713919 
L 258.59953 121.03178 
L 258.279116 121.285841 
L 257.710871 121.440341 
L 256.977106 121.407298 
L 256.349534 121.167502 
L 256.052898 120.844804 
L 256.040054 120.523493 
L 256.254503 120.23609 
L 256.726905 119.999925 
L 257.369866 119.927342 
L 258.002894 120.067992 
L 258.437266 120.371839 
L 258.586698 120.718308 
L 258.490789 121.016211 
L 258.166191 121.259657 
L 257.600354 121.38877 
L 256.904563 121.319283 
L 256.377228 121.058377 
L 256.186189 120.749612 
L 256.24909 120.461458 
L 256.539015 120.20353 
L 257.070439 120.038451 
L 257.704502 120.06998 
L 258.228426 120.309127 
L 258.467933 120.6441 
L 258.429811 120.944973 
L 258.175709 121.181808 
L 257.690356 121.32578 
L 257.040901 121.288669 
L 256.518636 121.050199 
L 256.331639 120.751083 
L 256.402586 120.481793 
L 256.707846 120.241584 
L 257.242975 120.115057 
L 257.839708 120.197271 
L 258.259868 120.461361 
L 258.385842 120.770097 
L 258.265892 121.032747 
L 257.926134 121.22554 
L 257.354506 121.283539 
L 256.775744 121.127276 
L 256.485199 120.844151 
L 256.491679 120.579646 
L 256.719198 120.348419 
L 257.187056 120.201371 
L 257.759957 120.251388 
L 258.176002 120.491383 
L 258.299071 120.786201 
L 258.17776 121.027714 
L 257.834397 121.202232 
L 257.283346 121.22979 
L 256.771486 121.045493 
L 256.579207 120.773073 
L 256.654451 120.530486 
L 256.958459 120.331885 
L 257.47041 120.267204 
L 257.968438 120.416549 
L 258.209659 120.695791 
L 258.168559 120.94369 
L 257.899195 121.136342 
L 257.404049 121.200507 
L 256.894729 121.052361 
L 256.684196 120.79003 
L 256.756551 120.556749 
L 257.059964 120.374696 
L 257.552366 120.338056 
L 257.993107 120.510846 
L 258.15083 120.779429 
L 258.042319 121.002882 
L 257.710942 121.148654 
L 257.203379 121.130178 
L 256.833729 120.91926 
L 256.786894 120.67836 
L 256.97814 120.481277 
L 257.397592 120.383466 
L 257.865524 120.494132 
L 258.081367 120.741 
L 258.015843 120.961969 
L 257.728886 121.110524 
L 257.252154 121.104673 
L 256.904898 120.906342 
L 256.876017 120.676997 
L 257.083334 120.499125 
L 257.507437 120.437936 
L 257.910883 120.586119 
L 258.028009 120.826403 
L 257.892086 121.010756 
L 257.535135 121.105272 
L 257.097593 121.006523 
L 256.928563 120.783539 
L 257.032567 120.594612 
L 257.367819 120.481298 
L 257.793932 120.563259 
L 257.977386 120.78714 
L 257.885936 120.972309 
L 257.574549 121.076969 
L 257.151701 120.994418 
L 256.993722 120.779692 
L 257.110579 120.605197 
L 257.451832 120.519078 
L 257.831485 120.636096 
L 257.925961 120.852106 
L 257.765708 121.00826 
L 257.393005 121.045696 
L 257.080533 120.881708 
L 257.089931 120.689976 
L 257.33274 120.565423 
L 257.717768 120.609598 
L 257.889821 120.809759 
L 257.781703 120.971434 
L 257.461079 121.031767 
L 257.140726 120.894427 
L 257.134943 120.710489 
L 257.362445 120.594656 
L 257.722125 120.647374 
L 257.849617 120.843712 
L 257.708788 120.981318 
L 257.369925 120.996205 
L 257.15163 120.825967 
L 257.234637 120.674618 
L 257.531323 120.618406 
L 257.802609 120.76163 
L 257.763271 120.925475 
L 257.500147 120.997144 
L 257.212598 120.875491 
L 257.238564 120.714181 
L 257.49134 120.64042 
L 257.768234 120.761465 
L 257.73864 120.917506 
L 257.487058 120.980709 
L 257.235067 120.851596 
L 257.295905 120.709392 
L 257.568882 120.671249 
L 257.760603 120.821995 
L 257.658028 120.943928 
L 257.368877 120.938664 
L 257.266623 120.782706 
L 257.269093 120.777452 
L 257.440475 120.68535 
L 257.709336 120.764453 
L 257.699016 120.901847 
L 257.688644 120.910022 
L 257.4442 120.947111 
L 257.290173 120.803805 
L 257.290764 120.80138 
L 257.430605 120.705757 
L 257.688433 120.771469 
L 257.682998 120.894361 
L 257.66396 120.908702 
L 257.424313 120.929009 
L 257.317628 120.801796 
L 257.32837 120.781019 
L 257.511446 120.716682 
L 257.69441 120.836517 
L 257.577455 120.929037 
L 257.346633 120.859257 
L 257.386868 120.756415 
L 257.409897 120.74571 
L 257.644201 120.775477 
L 257.660864 120.875657 
L 257.625308 120.902892 
L 257.40056 120.892078 
L 257.366974 120.797252 
L 257.406586 120.763671 
L 257.624679 120.777674 
L 257.650053 120.868261 
L 257.60617 120.901071 
L 257.394385 120.871273 
L 257.396057 120.788632 
L 257.443418 120.76295 
L 257.64224 120.817239 
L 257.597607 120.895351 
L 257.560315 120.906102 
L 257.392436 120.838566 
L 257.393162 120.821713 
L 257.521096 120.764492 
L 257.633797 120.840864 
L 257.606162 120.881614 
L 257.423256 120.868307 
L 257.420711 120.802167 
L 257.484281 120.774579 
L 257.622123 120.834325 
L 257.608128 120.8696 
L 257.443432 120.873458 
L 257.426331 120.813616 
L 257.503886 120.78087 
L 257.612159 120.838945 
L 257.43072 120.837361 
L 257.560455 120.802767 
" style="fill:none;stroke:#0000ff;stroke-linecap:square;stroke-width:0.35;"/>
   </g>
   <g id="text_19">
    <!-- $\omega_0=0.75, \lambda_0=0.75, d_0=0.1$ -->
    <g transform="translate(131.52 19.918125)scale(0.12 -0.12)">
     <defs>
      <path d="M 10.59375 45.40625 
L 73.1875 45.40625 
L 73.1875 37.203125 
L 10.59375 37.203125 
z
M 10.59375 25.484375 
L 73.1875 25.484375 
L 73.1875 17.1875 
L 10.59375 17.1875 
z
" id="DejaVuSans-61"/>
      <path d="M 11.71875 12.40625 
L 22.015625 12.40625 
L 22.015625 4 
L 14.015625 -11.625 
L 7.71875 -11.625 
L 11.71875 4 
z
" id="DejaVuSans-44"/>
      <path d="M 41.796875 8.203125 
Q 38.1875 3.46875 33.25 1.015625 
Q 28.328125 -1.421875 22.3125 -1.421875 
Q 14.109375 -1.421875 9.34375 4.171875 
Q 4.59375 9.765625 4.59375 19.484375 
Q 4.59375 27.59375 7.46875 34.9375 
Q 10.359375 42.28125 15.828125 48.09375 
Q 19.4375 51.953125 23.96875 53.96875 
Q 28.515625 56 33.5 56 
Q 38.765625 56 42.796875 53.453125 
Q 46.828125 50.921875 49.03125 46.1875 
L 54.890625 75.984375 
L 63.921875 75.984375 
L 49.125 0 
L 40.09375 0 
z
M 13.921875 21.09375 
Q 13.921875 14.015625 17.109375 10.0625 
Q 20.3125 6.109375 25.984375 6.109375 
Q 30.171875 6.109375 33.765625 8.125 
Q 37.359375 10.15625 40.09375 14.109375 
Q 42.96875 18.21875 44.625 23.578125 
Q 46.296875 28.953125 46.296875 34.1875 
Q 46.296875 40.96875 43.09375 44.765625 
Q 39.890625 48.578125 34.28125 48.578125 
Q 30.03125 48.578125 26.359375 46.578125 
Q 22.703125 44.578125 20.125 40.828125 
Q 17.28125 36.765625 15.59375 31.390625 
Q 13.921875 26.03125 13.921875 21.09375 
z
" id="DejaVuSans-Oblique-100"/>
     </defs>
     <use transform="translate(0 0.015625)" xlink:href="#DejaVuSans-Oblique-969"/>
     <use transform="translate(83.740234 -16.390625)scale(0.7)" xlink:href="#DejaVuSans-48"/>
     <use transform="translate(150.493164 0.015625)" xlink:href="#DejaVuSans-61"/>
     <use transform="translate(253.764648 0.015625)" xlink:href="#DejaVuSans-48"/>
     <use transform="translate(317.387695 0.015625)" xlink:href="#DejaVuSans-46"/>
     <use transform="translate(341.424805 0.015625)" xlink:href="#DejaVuSans-55"/>
     <use transform="translate(405.047852 0.015625)" xlink:href="#DejaVuSans-53"/>
     <use transform="translate(468.670898 0.015625)" xlink:href="#DejaVuSans-44"/>
     <use transform="translate(519.94043 0.015625)" xlink:href="#DejaVuSans-Oblique-955"/>
     <use transform="translate(579.120117 -16.390625)scale(0.7)" xlink:href="#DejaVuSans-48"/>
     <use transform="translate(645.873047 0.015625)" xlink:href="#DejaVuSans-61"/>
     <use transform="translate(749.144531 0.015625)" xlink:href="#DejaVuSans-48"/>
     <use transform="translate(812.767578 0.015625)" xlink:href="#DejaVuSans-46"/>
     <use transform="translate(836.804688 0.015625)" xlink:href="#DejaVuSans-55"/>
     <use transform="translate(900.427734 0.015625)" xlink:href="#DejaVuSans-53"/>
     <use transform="translate(964.050781 0.015625)" xlink:href="#DejaVuSans-44"/>
     <use transform="translate(1015.320312 0.015625)" xlink:href="#DejaVuSans-Oblique-100"/>
     <use transform="translate(1078.796875 -16.390625)scale(0.7)" xlink:href="#DejaVuSans-48"/>
     <use transform="translate(1145.549805 0.015625)" xlink:href="#DejaVuSans-61"/>
     <use transform="translate(1248.821289 0.015625)" xlink:href="#DejaVuSans-48"/>
     <use transform="translate(1312.444336 0.015625)" xlink:href="#DejaVuSans-46"/>
     <use transform="translate(1344.231445 0.015625)" xlink:href="#DejaVuSans-49"/>
    </g>
   </g>
  </g>
 </g>
 <defs>
  <clipPath id="p93c038ecde">
   <rect height="251.281875" width="251.281875" x="90.359062" y="25.918125"/>
  </clipPath>
 </defs>
</svg>
