<?xml version="1.0" encoding="utf-8" standalone="no"?>
<!DOCTYPE svg PUBLIC "-//W3C//DTD SVG 1.1//EN"
  "http://www.w3.org/Graphics/SVG/1.1/DTD/svg11.dtd">
<!-- Created with matplotlib (https://matplotlib.org/) -->
<svg height="316.8pt" version="1.1" viewBox="0 0 504 316.8" width="504pt" xmlns="http://www.w3.org/2000/svg" xmlns:xlink="http://www.w3.org/1999/xlink">
 <defs>
  <style type="text/css">
*{stroke-linecap:butt;stroke-linejoin:round;}
  </style>
 </defs>
 <g id="figure_1">
  <g id="patch_1">
   <path d="M 0 316.8 
L 504 316.8 
L 504 0 
L 0 0 
z
" style="fill:#ffffff;"/>
  </g>
  <g id="axes_1">
   <g id="patch_2">
    <path d="M 53.74375 275.64375 
L 456.61875 275.64375 
L 456.61875 25.918125 
L 53.74375 25.918125 
z
" style="fill:#ffffff;"/>
   </g>
   <g id="matplotlib.axis_1">
    <g id="xtick_1">
     <g id="line2d_1">
      <defs>
       <path d="M 0 0 
L 0 3.5 
" id="mec8ed1a4a2" style="stroke:#000000;stroke-width:0.8;"/>
      </defs>
      <g>
       <use style="stroke:#000000;stroke-width:0.8;" x="53.74375" xlink:href="#mec8ed1a4a2" y="275.64375"/>
      </g>
     </g>
     <g id="text_1">
      <!-- 0 -->
      <defs>
       <path d="M 31.78125 66.40625 
Q 24.171875 66.40625 20.328125 58.90625 
Q 16.5 51.421875 16.5 36.375 
Q 16.5 21.390625 20.328125 13.890625 
Q 24.171875 6.390625 31.78125 6.390625 
Q 39.453125 6.390625 43.28125 13.890625 
Q 47.125 21.390625 47.125 36.375 
Q 47.125 51.421875 43.28125 58.90625 
Q 39.453125 66.40625 31.78125 66.40625 
z
M 31.78125 74.21875 
Q 44.046875 74.21875 50.515625 64.515625 
Q 56.984375 54.828125 56.984375 36.375 
Q 56.984375 17.96875 50.515625 8.265625 
Q 44.046875 -1.421875 31.78125 -1.421875 
Q 19.53125 -1.421875 13.0625 8.265625 
Q 6.59375 17.96875 6.59375 36.375 
Q 6.59375 54.828125 13.0625 64.515625 
Q 19.53125 74.21875 31.78125 74.21875 
z
" id="DejaVuSans-48"/>
      </defs>
      <g transform="translate(50.5625 290.242188)scale(0.1 -0.1)">
       <use xlink:href="#DejaVuSans-48"/>
      </g>
     </g>
    </g>
    <g id="xtick_2">
     <g id="line2d_2">
      <g>
       <use style="stroke:#000000;stroke-width:0.8;" x="133.528877" xlink:href="#mec8ed1a4a2" y="275.64375"/>
      </g>
     </g>
     <g id="text_2">
      <!-- 20 -->
      <defs>
       <path d="M 19.1875 8.296875 
L 53.609375 8.296875 
L 53.609375 0 
L 7.328125 0 
L 7.328125 8.296875 
Q 12.9375 14.109375 22.625 23.890625 
Q 32.328125 33.6875 34.8125 36.53125 
Q 39.546875 41.84375 41.421875 45.53125 
Q 43.3125 49.21875 43.3125 52.78125 
Q 43.3125 58.59375 39.234375 62.25 
Q 35.15625 65.921875 28.609375 65.921875 
Q 23.96875 65.921875 18.8125 64.3125 
Q 13.671875 62.703125 7.8125 59.421875 
L 7.8125 69.390625 
Q 13.765625 71.78125 18.9375 73 
Q 24.125 74.21875 28.421875 74.21875 
Q 39.75 74.21875 46.484375 68.546875 
Q 53.21875 62.890625 53.21875 53.421875 
Q 53.21875 48.921875 51.53125 44.890625 
Q 49.859375 40.875 45.40625 35.40625 
Q 44.1875 33.984375 37.640625 27.21875 
Q 31.109375 20.453125 19.1875 8.296875 
z
" id="DejaVuSans-50"/>
      </defs>
      <g transform="translate(127.166377 290.242188)scale(0.1 -0.1)">
       <use xlink:href="#DejaVuSans-50"/>
       <use x="63.623047" xlink:href="#DejaVuSans-48"/>
      </g>
     </g>
    </g>
    <g id="xtick_3">
     <g id="line2d_3">
      <g>
       <use style="stroke:#000000;stroke-width:0.8;" x="213.314004" xlink:href="#mec8ed1a4a2" y="275.64375"/>
      </g>
     </g>
     <g id="text_3">
      <!-- 40 -->
      <defs>
       <path d="M 37.796875 64.3125 
L 12.890625 25.390625 
L 37.796875 25.390625 
z
M 35.203125 72.90625 
L 47.609375 72.90625 
L 47.609375 25.390625 
L 58.015625 25.390625 
L 58.015625 17.1875 
L 47.609375 17.1875 
L 47.609375 0 
L 37.796875 0 
L 37.796875 17.1875 
L 4.890625 17.1875 
L 4.890625 26.703125 
z
" id="DejaVuSans-52"/>
      </defs>
      <g transform="translate(206.951504 290.242188)scale(0.1 -0.1)">
       <use xlink:href="#DejaVuSans-52"/>
       <use x="63.623047" xlink:href="#DejaVuSans-48"/>
      </g>
     </g>
    </g>
    <g id="xtick_4">
     <g id="line2d_4">
      <g>
       <use style="stroke:#000000;stroke-width:0.8;" x="293.099132" xlink:href="#mec8ed1a4a2" y="275.64375"/>
      </g>
     </g>
     <g id="text_4">
      <!-- 60 -->
      <defs>
       <path d="M 33.015625 40.375 
Q 26.375 40.375 22.484375 35.828125 
Q 18.609375 31.296875 18.609375 23.390625 
Q 18.609375 15.53125 22.484375 10.953125 
Q 26.375 6.390625 33.015625 6.390625 
Q 39.65625 6.390625 43.53125 10.953125 
Q 47.40625 15.53125 47.40625 23.390625 
Q 47.40625 31.296875 43.53125 35.828125 
Q 39.65625 40.375 33.015625 40.375 
z
M 52.59375 71.296875 
L 52.59375 62.3125 
Q 48.875 64.0625 45.09375 64.984375 
Q 41.3125 65.921875 37.59375 65.921875 
Q 27.828125 65.921875 22.671875 59.328125 
Q 17.53125 52.734375 16.796875 39.40625 
Q 19.671875 43.65625 24.015625 45.921875 
Q 28.375 48.1875 33.59375 48.1875 
Q 44.578125 48.1875 50.953125 41.515625 
Q 57.328125 34.859375 57.328125 23.390625 
Q 57.328125 12.15625 50.6875 5.359375 
Q 44.046875 -1.421875 33.015625 -1.421875 
Q 20.359375 -1.421875 13.671875 8.265625 
Q 6.984375 17.96875 6.984375 36.375 
Q 6.984375 53.65625 15.1875 63.9375 
Q 23.390625 74.21875 37.203125 74.21875 
Q 40.921875 74.21875 44.703125 73.484375 
Q 48.484375 72.75 52.59375 71.296875 
z
" id="DejaVuSans-54"/>
      </defs>
      <g transform="translate(286.736632 290.242188)scale(0.1 -0.1)">
       <use xlink:href="#DejaVuSans-54"/>
       <use x="63.623047" xlink:href="#DejaVuSans-48"/>
      </g>
     </g>
    </g>
    <g id="xtick_5">
     <g id="line2d_5">
      <g>
       <use style="stroke:#000000;stroke-width:0.8;" x="372.884259" xlink:href="#mec8ed1a4a2" y="275.64375"/>
      </g>
     </g>
     <g id="text_5">
      <!-- 80 -->
      <defs>
       <path d="M 31.78125 34.625 
Q 24.75 34.625 20.71875 30.859375 
Q 16.703125 27.09375 16.703125 20.515625 
Q 16.703125 13.921875 20.71875 10.15625 
Q 24.75 6.390625 31.78125 6.390625 
Q 38.8125 6.390625 42.859375 10.171875 
Q 46.921875 13.96875 46.921875 20.515625 
Q 46.921875 27.09375 42.890625 30.859375 
Q 38.875 34.625 31.78125 34.625 
z
M 21.921875 38.8125 
Q 15.578125 40.375 12.03125 44.71875 
Q 8.5 49.078125 8.5 55.328125 
Q 8.5 64.0625 14.71875 69.140625 
Q 20.953125 74.21875 31.78125 74.21875 
Q 42.671875 74.21875 48.875 69.140625 
Q 55.078125 64.0625 55.078125 55.328125 
Q 55.078125 49.078125 51.53125 44.71875 
Q 48 40.375 41.703125 38.8125 
Q 48.828125 37.15625 52.796875 32.3125 
Q 56.78125 27.484375 56.78125 20.515625 
Q 56.78125 9.90625 50.3125 4.234375 
Q 43.84375 -1.421875 31.78125 -1.421875 
Q 19.734375 -1.421875 13.25 4.234375 
Q 6.78125 9.90625 6.78125 20.515625 
Q 6.78125 27.484375 10.78125 32.3125 
Q 14.796875 37.15625 21.921875 38.8125 
z
M 18.3125 54.390625 
Q 18.3125 48.734375 21.84375 45.5625 
Q 25.390625 42.390625 31.78125 42.390625 
Q 38.140625 42.390625 41.71875 45.5625 
Q 45.3125 48.734375 45.3125 54.390625 
Q 45.3125 60.0625 41.71875 63.234375 
Q 38.140625 66.40625 31.78125 66.40625 
Q 25.390625 66.40625 21.84375 63.234375 
Q 18.3125 60.0625 18.3125 54.390625 
z
" id="DejaVuSans-56"/>
      </defs>
      <g transform="translate(366.521759 290.242188)scale(0.1 -0.1)">
       <use xlink:href="#DejaVuSans-56"/>
       <use x="63.623047" xlink:href="#DejaVuSans-48"/>
      </g>
     </g>
    </g>
    <g id="xtick_6">
     <g id="line2d_6">
      <g>
       <use style="stroke:#000000;stroke-width:0.8;" x="452.669386" xlink:href="#mec8ed1a4a2" y="275.64375"/>
      </g>
     </g>
     <g id="text_6">
      <!-- 100 -->
      <defs>
       <path d="M 12.40625 8.296875 
L 28.515625 8.296875 
L 28.515625 63.921875 
L 10.984375 60.40625 
L 10.984375 69.390625 
L 28.421875 72.90625 
L 38.28125 72.90625 
L 38.28125 8.296875 
L 54.390625 8.296875 
L 54.390625 0 
L 12.40625 0 
z
" id="DejaVuSans-49"/>
      </defs>
      <g transform="translate(443.125636 290.242188)scale(0.1 -0.1)">
       <use xlink:href="#DejaVuSans-49"/>
       <use x="63.623047" xlink:href="#DejaVuSans-48"/>
       <use x="127.246094" xlink:href="#DejaVuSans-48"/>
      </g>
     </g>
    </g>
    <g id="text_7">
     <!-- Time (years) -->
     <defs>
      <path d="M -0.296875 72.90625 
L 61.375 72.90625 
L 61.375 64.59375 
L 35.5 64.59375 
L 35.5 0 
L 25.59375 0 
L 25.59375 64.59375 
L -0.296875 64.59375 
z
" id="DejaVuSans-84"/>
      <path d="M 9.421875 54.6875 
L 18.40625 54.6875 
L 18.40625 0 
L 9.421875 0 
z
M 9.421875 75.984375 
L 18.40625 75.984375 
L 18.40625 64.59375 
L 9.421875 64.59375 
z
" id="DejaVuSans-105"/>
      <path d="M 52 44.1875 
Q 55.375 50.25 60.0625 53.125 
Q 64.75 56 71.09375 56 
Q 79.640625 56 84.28125 50.015625 
Q 88.921875 44.046875 88.921875 33.015625 
L 88.921875 0 
L 79.890625 0 
L 79.890625 32.71875 
Q 79.890625 40.578125 77.09375 44.375 
Q 74.3125 48.1875 68.609375 48.1875 
Q 61.625 48.1875 57.5625 43.546875 
Q 53.515625 38.921875 53.515625 30.90625 
L 53.515625 0 
L 44.484375 0 
L 44.484375 32.71875 
Q 44.484375 40.625 41.703125 44.40625 
Q 38.921875 48.1875 33.109375 48.1875 
Q 26.21875 48.1875 22.15625 43.53125 
Q 18.109375 38.875 18.109375 30.90625 
L 18.109375 0 
L 9.078125 0 
L 9.078125 54.6875 
L 18.109375 54.6875 
L 18.109375 46.1875 
Q 21.1875 51.21875 25.484375 53.609375 
Q 29.78125 56 35.6875 56 
Q 41.65625 56 45.828125 52.96875 
Q 50 49.953125 52 44.1875 
z
" id="DejaVuSans-109"/>
      <path d="M 56.203125 29.59375 
L 56.203125 25.203125 
L 14.890625 25.203125 
Q 15.484375 15.921875 20.484375 11.0625 
Q 25.484375 6.203125 34.421875 6.203125 
Q 39.59375 6.203125 44.453125 7.46875 
Q 49.3125 8.734375 54.109375 11.28125 
L 54.109375 2.78125 
Q 49.265625 0.734375 44.1875 -0.34375 
Q 39.109375 -1.421875 33.890625 -1.421875 
Q 20.796875 -1.421875 13.15625 6.1875 
Q 5.515625 13.8125 5.515625 26.8125 
Q 5.515625 40.234375 12.765625 48.109375 
Q 20.015625 56 32.328125 56 
Q 43.359375 56 49.78125 48.890625 
Q 56.203125 41.796875 56.203125 29.59375 
z
M 47.21875 32.234375 
Q 47.125 39.59375 43.09375 43.984375 
Q 39.0625 48.390625 32.421875 48.390625 
Q 24.90625 48.390625 20.390625 44.140625 
Q 15.875 39.890625 15.1875 32.171875 
z
" id="DejaVuSans-101"/>
      <path id="DejaVuSans-32"/>
      <path d="M 31 75.875 
Q 24.46875 64.65625 21.28125 53.65625 
Q 18.109375 42.671875 18.109375 31.390625 
Q 18.109375 20.125 21.3125 9.0625 
Q 24.515625 -2 31 -13.1875 
L 23.1875 -13.1875 
Q 15.875 -1.703125 12.234375 9.375 
Q 8.59375 20.453125 8.59375 31.390625 
Q 8.59375 42.28125 12.203125 53.3125 
Q 15.828125 64.359375 23.1875 75.875 
z
" id="DejaVuSans-40"/>
      <path d="M 32.171875 -5.078125 
Q 28.375 -14.84375 24.75 -17.8125 
Q 21.140625 -20.796875 15.09375 -20.796875 
L 7.90625 -20.796875 
L 7.90625 -13.28125 
L 13.1875 -13.28125 
Q 16.890625 -13.28125 18.9375 -11.515625 
Q 21 -9.765625 23.484375 -3.21875 
L 25.09375 0.875 
L 2.984375 54.6875 
L 12.5 54.6875 
L 29.59375 11.921875 
L 46.6875 54.6875 
L 56.203125 54.6875 
z
" id="DejaVuSans-121"/>
      <path d="M 34.28125 27.484375 
Q 23.390625 27.484375 19.1875 25 
Q 14.984375 22.515625 14.984375 16.5 
Q 14.984375 11.71875 18.140625 8.90625 
Q 21.296875 6.109375 26.703125 6.109375 
Q 34.1875 6.109375 38.703125 11.40625 
Q 43.21875 16.703125 43.21875 25.484375 
L 43.21875 27.484375 
z
M 52.203125 31.203125 
L 52.203125 0 
L 43.21875 0 
L 43.21875 8.296875 
Q 40.140625 3.328125 35.546875 0.953125 
Q 30.953125 -1.421875 24.3125 -1.421875 
Q 15.921875 -1.421875 10.953125 3.296875 
Q 6 8.015625 6 15.921875 
Q 6 25.140625 12.171875 29.828125 
Q 18.359375 34.515625 30.609375 34.515625 
L 43.21875 34.515625 
L 43.21875 35.40625 
Q 43.21875 41.609375 39.140625 45 
Q 35.0625 48.390625 27.6875 48.390625 
Q 23 48.390625 18.546875 47.265625 
Q 14.109375 46.140625 10.015625 43.890625 
L 10.015625 52.203125 
Q 14.9375 54.109375 19.578125 55.046875 
Q 24.21875 56 28.609375 56 
Q 40.484375 56 46.34375 49.84375 
Q 52.203125 43.703125 52.203125 31.203125 
z
" id="DejaVuSans-97"/>
      <path d="M 41.109375 46.296875 
Q 39.59375 47.171875 37.8125 47.578125 
Q 36.03125 48 33.890625 48 
Q 26.265625 48 22.1875 43.046875 
Q 18.109375 38.09375 18.109375 28.8125 
L 18.109375 0 
L 9.078125 0 
L 9.078125 54.6875 
L 18.109375 54.6875 
L 18.109375 46.1875 
Q 20.953125 51.171875 25.484375 53.578125 
Q 30.03125 56 36.53125 56 
Q 37.453125 56 38.578125 55.875 
Q 39.703125 55.765625 41.0625 55.515625 
z
" id="DejaVuSans-114"/>
      <path d="M 44.28125 53.078125 
L 44.28125 44.578125 
Q 40.484375 46.53125 36.375 47.5 
Q 32.28125 48.484375 27.875 48.484375 
Q 21.1875 48.484375 17.84375 46.4375 
Q 14.5 44.390625 14.5 40.28125 
Q 14.5 37.15625 16.890625 35.375 
Q 19.28125 33.59375 26.515625 31.984375 
L 29.59375 31.296875 
Q 39.15625 29.25 43.1875 25.515625 
Q 47.21875 21.78125 47.21875 15.09375 
Q 47.21875 7.46875 41.1875 3.015625 
Q 35.15625 -1.421875 24.609375 -1.421875 
Q 20.21875 -1.421875 15.453125 -0.5625 
Q 10.6875 0.296875 5.421875 2 
L 5.421875 11.28125 
Q 10.40625 8.6875 15.234375 7.390625 
Q 20.0625 6.109375 24.8125 6.109375 
Q 31.15625 6.109375 34.5625 8.28125 
Q 37.984375 10.453125 37.984375 14.40625 
Q 37.984375 18.0625 35.515625 20.015625 
Q 33.0625 21.96875 24.703125 23.78125 
L 21.578125 24.515625 
Q 13.234375 26.265625 9.515625 29.90625 
Q 5.8125 33.546875 5.8125 39.890625 
Q 5.8125 47.609375 11.28125 51.796875 
Q 16.75 56 26.8125 56 
Q 31.78125 56 36.171875 55.265625 
Q 40.578125 54.546875 44.28125 53.078125 
z
" id="DejaVuSans-115"/>
      <path d="M 8.015625 75.875 
L 15.828125 75.875 
Q 23.140625 64.359375 26.78125 53.3125 
Q 30.421875 42.28125 30.421875 31.390625 
Q 30.421875 20.453125 26.78125 9.375 
Q 23.140625 -1.703125 15.828125 -13.1875 
L 8.015625 -13.1875 
Q 14.5 -2 17.703125 9.0625 
Q 20.90625 20.125 20.90625 31.390625 
Q 20.90625 42.671875 17.703125 53.65625 
Q 14.5 64.65625 8.015625 75.875 
z
" id="DejaVuSans-41"/>
     </defs>
     <g transform="translate(223.696875 303.920313)scale(0.1 -0.1)">
      <use xlink:href="#DejaVuSans-84"/>
      <use x="57.958984" xlink:href="#DejaVuSans-105"/>
      <use x="85.742188" xlink:href="#DejaVuSans-109"/>
      <use x="183.154297" xlink:href="#DejaVuSans-101"/>
      <use x="244.677734" xlink:href="#DejaVuSans-32"/>
      <use x="276.464844" xlink:href="#DejaVuSans-40"/>
      <use x="315.478516" xlink:href="#DejaVuSans-121"/>
      <use x="374.658203" xlink:href="#DejaVuSans-101"/>
      <use x="436.181641" xlink:href="#DejaVuSans-97"/>
      <use x="497.460938" xlink:href="#DejaVuSans-114"/>
      <use x="538.574219" xlink:href="#DejaVuSans-115"/>
      <use x="590.673828" xlink:href="#DejaVuSans-41"/>
     </g>
    </g>
   </g>
   <g id="matplotlib.axis_2">
    <g id="ytick_1">
     <g id="line2d_7">
      <defs>
       <path d="M 0 0 
L -3.5 0 
" id="mb7ffd23ee6" style="stroke:#000000;stroke-width:0.8;"/>
      </defs>
      <g>
       <use style="stroke:#000000;stroke-width:0.8;" x="53.74375" xlink:href="#mb7ffd23ee6" y="271.223478"/>
      </g>
     </g>
     <g id="text_8">
      <!-- 0.70 -->
      <defs>
       <path d="M 10.6875 12.40625 
L 21 12.40625 
L 21 0 
L 10.6875 0 
z
" id="DejaVuSans-46"/>
       <path d="M 8.203125 72.90625 
L 55.078125 72.90625 
L 55.078125 68.703125 
L 28.609375 0 
L 18.3125 0 
L 43.21875 64.59375 
L 8.203125 64.59375 
z
" id="DejaVuSans-55"/>
      </defs>
      <g style="fill:#1f77b4;" transform="translate(24.478125 275.022697)scale(0.1 -0.1)">
       <use xlink:href="#DejaVuSans-48"/>
       <use x="63.623047" xlink:href="#DejaVuSans-46"/>
       <use x="95.410156" xlink:href="#DejaVuSans-55"/>
       <use x="159.033203" xlink:href="#DejaVuSans-48"/>
      </g>
     </g>
    </g>
    <g id="ytick_2">
     <g id="line2d_8">
      <g>
       <use style="stroke:#000000;stroke-width:0.8;" x="53.74375" xlink:href="#mb7ffd23ee6" y="231.001381"/>
      </g>
     </g>
     <g id="text_9">
      <!-- 0.75 -->
      <defs>
       <path d="M 10.796875 72.90625 
L 49.515625 72.90625 
L 49.515625 64.59375 
L 19.828125 64.59375 
L 19.828125 46.734375 
Q 21.96875 47.46875 24.109375 47.828125 
Q 26.265625 48.1875 28.421875 48.1875 
Q 40.625 48.1875 47.75 41.5 
Q 54.890625 34.8125 54.890625 23.390625 
Q 54.890625 11.625 47.5625 5.09375 
Q 40.234375 -1.421875 26.90625 -1.421875 
Q 22.3125 -1.421875 17.546875 -0.640625 
Q 12.796875 0.140625 7.71875 1.703125 
L 7.71875 11.625 
Q 12.109375 9.234375 16.796875 8.0625 
Q 21.484375 6.890625 26.703125 6.890625 
Q 35.15625 6.890625 40.078125 11.328125 
Q 45.015625 15.765625 45.015625 23.390625 
Q 45.015625 31 40.078125 35.4375 
Q 35.15625 39.890625 26.703125 39.890625 
Q 22.75 39.890625 18.8125 39.015625 
Q 14.890625 38.140625 10.796875 36.28125 
z
" id="DejaVuSans-53"/>
      </defs>
      <g style="fill:#1f77b4;" transform="translate(24.478125 234.8006)scale(0.1 -0.1)">
       <use xlink:href="#DejaVuSans-48"/>
       <use x="63.623047" xlink:href="#DejaVuSans-46"/>
       <use x="95.410156" xlink:href="#DejaVuSans-55"/>
       <use x="159.033203" xlink:href="#DejaVuSans-53"/>
      </g>
     </g>
    </g>
    <g id="ytick_3">
     <g id="line2d_9">
      <g>
       <use style="stroke:#000000;stroke-width:0.8;" x="53.74375" xlink:href="#mb7ffd23ee6" y="190.779284"/>
      </g>
     </g>
     <g id="text_10">
      <!-- 0.80 -->
      <g style="fill:#1f77b4;" transform="translate(24.478125 194.578503)scale(0.1 -0.1)">
       <use xlink:href="#DejaVuSans-48"/>
       <use x="63.623047" xlink:href="#DejaVuSans-46"/>
       <use x="95.410156" xlink:href="#DejaVuSans-56"/>
       <use x="159.033203" xlink:href="#DejaVuSans-48"/>
      </g>
     </g>
    </g>
    <g id="ytick_4">
     <g id="line2d_10">
      <g>
       <use style="stroke:#000000;stroke-width:0.8;" x="53.74375" xlink:href="#mb7ffd23ee6" y="150.557187"/>
      </g>
     </g>
     <g id="text_11">
      <!-- 0.85 -->
      <g style="fill:#1f77b4;" transform="translate(24.478125 154.356406)scale(0.1 -0.1)">
       <use xlink:href="#DejaVuSans-48"/>
       <use x="63.623047" xlink:href="#DejaVuSans-46"/>
       <use x="95.410156" xlink:href="#DejaVuSans-56"/>
       <use x="159.033203" xlink:href="#DejaVuSans-53"/>
      </g>
     </g>
    </g>
    <g id="ytick_5">
     <g id="line2d_11">
      <g>
       <use style="stroke:#000000;stroke-width:0.8;" x="53.74375" xlink:href="#mb7ffd23ee6" y="110.33509"/>
      </g>
     </g>
     <g id="text_12">
      <!-- 0.90 -->
      <defs>
       <path d="M 10.984375 1.515625 
L 10.984375 10.5 
Q 14.703125 8.734375 18.5 7.8125 
Q 22.3125 6.890625 25.984375 6.890625 
Q 35.75 6.890625 40.890625 13.453125 
Q 46.046875 20.015625 46.78125 33.40625 
Q 43.953125 29.203125 39.59375 26.953125 
Q 35.25 24.703125 29.984375 24.703125 
Q 19.046875 24.703125 12.671875 31.3125 
Q 6.296875 37.9375 6.296875 49.421875 
Q 6.296875 60.640625 12.9375 67.421875 
Q 19.578125 74.21875 30.609375 74.21875 
Q 43.265625 74.21875 49.921875 64.515625 
Q 56.59375 54.828125 56.59375 36.375 
Q 56.59375 19.140625 48.40625 8.859375 
Q 40.234375 -1.421875 26.421875 -1.421875 
Q 22.703125 -1.421875 18.890625 -0.6875 
Q 15.09375 0.046875 10.984375 1.515625 
z
M 30.609375 32.421875 
Q 37.25 32.421875 41.125 36.953125 
Q 45.015625 41.5 45.015625 49.421875 
Q 45.015625 57.28125 41.125 61.84375 
Q 37.25 66.40625 30.609375 66.40625 
Q 23.96875 66.40625 20.09375 61.84375 
Q 16.21875 57.28125 16.21875 49.421875 
Q 16.21875 41.5 20.09375 36.953125 
Q 23.96875 32.421875 30.609375 32.421875 
z
" id="DejaVuSans-57"/>
      </defs>
      <g style="fill:#1f77b4;" transform="translate(24.478125 114.134308)scale(0.1 -0.1)">
       <use xlink:href="#DejaVuSans-48"/>
       <use x="63.623047" xlink:href="#DejaVuSans-46"/>
       <use x="95.410156" xlink:href="#DejaVuSans-57"/>
       <use x="159.033203" xlink:href="#DejaVuSans-48"/>
      </g>
     </g>
    </g>
    <g id="ytick_6">
     <g id="line2d_12">
      <g>
       <use style="stroke:#000000;stroke-width:0.8;" x="53.74375" xlink:href="#mb7ffd23ee6" y="70.112993"/>
      </g>
     </g>
     <g id="text_13">
      <!-- 0.95 -->
      <g style="fill:#1f77b4;" transform="translate(24.478125 73.912211)scale(0.1 -0.1)">
       <use xlink:href="#DejaVuSans-48"/>
       <use x="63.623047" xlink:href="#DejaVuSans-46"/>
       <use x="95.410156" xlink:href="#DejaVuSans-57"/>
       <use x="159.033203" xlink:href="#DejaVuSans-53"/>
      </g>
     </g>
    </g>
    <g id="ytick_7">
     <g id="line2d_13">
      <g>
       <use style="stroke:#000000;stroke-width:0.8;" x="53.74375" xlink:href="#mb7ffd23ee6" y="29.890896"/>
      </g>
     </g>
     <g id="text_14">
      <!-- 1.00 -->
      <g style="fill:#1f77b4;" transform="translate(24.478125 33.690114)scale(0.1 -0.1)">
       <use xlink:href="#DejaVuSans-49"/>
       <use x="63.623047" xlink:href="#DejaVuSans-46"/>
       <use x="95.410156" xlink:href="#DejaVuSans-48"/>
       <use x="159.033203" xlink:href="#DejaVuSans-48"/>
      </g>
     </g>
    </g>
    <g id="text_15">
     <!-- $\omega$ -->
     <defs>
      <path d="M 21.390625 -1.421875 
Q 1.125 -1.421875 6.78125 27.59375 
Q 8.984375 39.0625 19.625 54.6875 
L 29.296875 54.6875 
Q 19.234375 39.0625 17 27.34375 
Q 12.796875 6.203125 23.734375 6.203125 
Q 33.84375 6.203125 38.71875 32.46875 
L 47.015625 32.46875 
Q 41.703125 6.0625 51.8125 6.203125 
Q 62.703125 6.296875 66.796875 27.34375 
Q 69.046875 39.0625 65.140625 54.6875 
L 74.8125 54.6875 
Q 79.296875 39.0625 77.09375 27.59375 
Q 71.53125 -1.46875 51.21875 -1.421875 
Q 37.9375 -1.375 39.109375 13.1875 
Q 34.28125 -1.421875 21.390625 -1.421875 
z
" id="DejaVuSans-Oblique-969"/>
     </defs>
     <g style="fill:#1f77b4;" transform="translate(18.398438 154.980937)rotate(-90)scale(0.1 -0.1)">
      <use transform="translate(0 0.3125)" xlink:href="#DejaVuSans-Oblique-969"/>
     </g>
    </g>
   </g>
   <g id="line2d_14">
    <path clip-path="url(#p62037e85c5)" d="M 53.74375 190.779284 
L 56.85537 219.173177 
L 59.288816 239.468273 
L 61.004197 252.078671 
L 62.161081 259.112795 
L 62.91904 262.541469 
L 63.39775 263.898337 
L 63.716891 264.280842 
L 63.916354 264.23466 
L 64.115817 263.910786 
L 64.355172 263.061626 
L 64.63442 261.233452 
L 64.95356 257.576832 
L 65.312593 250.375643 
L 65.671627 237.79459 
L 66.03066 216.400689 
L 66.469478 174.180115 
L 67.307222 88.966854 
L 67.74604 66.909193 
L 68.144965 56.632035 
L 68.543891 51.636182 
L 68.863032 49.928616 
L 69.102387 49.537054 
L 69.261957 49.595153 
L 69.46142 49.956274 
L 69.780561 51.063915 
L 70.259271 53.619473 
L 71.01723 59.077156 
L 72.174114 69.242189 
L 74.208635 89.408314 
L 83.902528 187.685946 
L 87.093933 217.013387 
L 89.567272 237.838219 
L 91.362437 251.221505 
L 92.559214 258.649233 
L 93.357066 262.369844 
L 93.875669 263.885014 
L 94.19481 264.277952 
L 94.394272 264.240122 
L 94.593735 263.92649 
L 94.833091 263.092991 
L 95.112338 261.289674 
L 95.431479 257.674933 
L 95.790512 250.549536 
L 96.149545 238.095768 
L 96.508578 216.901546 
L 96.947396 174.936537 
L 97.825033 86.755512 
L 98.263851 65.770552 
L 98.662777 56.053848 
L 99.02181 51.690006 
L 99.34095 49.949184 
L 99.580306 49.539803 
L 99.739876 49.588431 
L 99.939339 49.93976 
L 100.258479 51.035279 
L 100.73719 53.578246 
L 101.455256 58.706301 
L 102.61214 68.806357 
L 104.606769 88.523025 
L 114.619802 189.897091 
L 117.771315 218.707144 
L 120.204761 239.049095 
L 121.960034 251.988655 
L 123.116918 259.041882 
L 123.874877 262.492732 
L 124.39348 263.948157 
L 124.712621 264.288443 
L 124.912083 264.208451 
L 125.111546 263.843021 
L 125.350902 262.930221 
L 125.63015 261.000786 
L 125.94929 257.173481 
L 126.308323 249.662881 
L 126.667356 236.561877 
L 127.026389 214.358989 
L 127.465208 171.140681 
L 128.263059 89.881797 
L 128.701877 67.38305 
L 129.100803 56.87392 
L 129.499728 51.744612 
L 129.818869 49.970304 
L 130.058224 49.542996 
L 130.217794 49.582088 
L 130.417257 49.923568 
L 130.736398 51.006938 
L 131.215109 53.537274 
L 131.933175 58.653775 
L 133.050166 68.372447 
L 134.96501 87.232188 
L 145.456754 193.225797 
L 148.528481 221.084189 
L 150.882142 240.560139 
L 152.55763 252.74437 
L 153.674622 259.425639 
L 154.432581 262.752106 
L 154.911291 264.006503 
L 155.190539 264.286682 
L 155.390002 264.215212 
L 155.589465 263.860235 
L 155.82882 262.96347 
L 156.108068 261.059573 
L 156.427209 257.275364 
L 156.786242 249.842965 
L 157.145275 236.873332 
L 157.504308 214.873911 
L 157.943126 171.901026 
L 158.78087 87.626974 
L 159.219688 66.218482 
L 159.618614 56.281052 
L 160.017539 51.48079 
L 160.33668 49.871159 
L 160.576035 49.532111 
L 160.735606 49.618196 
L 160.974961 50.119007 
L 161.333994 51.519566 
L 161.89249 54.783967 
L 162.730234 61.209299 
L 164.046688 73.234764 
L 166.480135 97.843816 
L 173.900152 173.627648 
L 177.330912 206.102973 
L 180.123392 230.529015 
L 182.197805 246.842517 
L 183.594045 256.245 
L 184.511574 261.134256 
L 185.149855 263.466171 
L 185.54878 264.209261 
L 185.788136 264.277565 
L 185.987598 264.052619 
L 186.226954 263.354434 
L 186.506202 261.765374 
L 186.825342 258.509876 
L 187.144483 252.948069 
L 187.503516 242.260984 
L 187.862549 223.892687 
L 188.261475 190.121819 
L 189.418359 78.521129 
L 189.857177 61.604524 
L 190.256103 53.978125 
L 190.615136 50.730867 
L 190.894384 49.70043 
L 191.093847 49.531611 
L 191.253417 49.663053 
L 191.492772 50.219133 
L 191.851805 51.681588 
L 192.410301 55.009972 
L 193.248045 61.490449 
L 194.604392 73.943796 
L 197.157516 99.844483 
L 204.2185 172.000223 
L 207.689153 204.95018 
L 210.481632 229.475666 
L 212.556046 245.914573 
L 213.992178 255.719731 
L 214.9496 260.923152 
L 215.587881 263.33781 
L 215.986806 264.159334 
L 216.226162 264.290538 
L 216.425624 264.130839 
L 216.66498 263.531758 
L 216.944228 262.098863 
L 217.263368 259.103747 
L 217.582509 253.944438 
L 217.941542 243.99818 
L 218.300575 226.841488 
L 218.699501 194.84029 
L 219.976063 74.837493 
L 220.374988 60.746143 
L 220.773914 53.560722 
L 221.132947 50.550716 
L 221.412195 49.643696 
L 221.611658 49.541507 
L 221.811121 49.791372 
L 222.090368 50.607874 
L 222.529187 52.709352 
L 223.20736 57.264937 
L 224.244567 65.990144 
L 225.959947 82.578706 
L 230.308237 127.567333 
L 234.855989 173.498667 
L 238.286749 205.982718 
L 241.079229 230.419218 
L 243.153642 246.745984 
L 244.549882 256.165254 
L 245.507303 261.253006 
L 246.105692 263.430236 
L 246.504617 264.19585 
L 246.743973 264.282246 
L 246.943436 264.076107 
L 247.182791 263.406485 
L 247.462039 261.862542 
L 247.781179 258.682398 
L 248.10032 253.237249 
L 248.459353 242.765095 
L 248.818386 224.746937 
L 249.217312 191.477283 
L 250.414089 77.129595 
L 250.813014 61.95845 
L 251.21194 54.151874 
L 251.570973 50.807804 
L 251.890114 49.654192 
L 252.089576 49.539041 
L 252.249147 49.705725 
L 252.528395 50.439672 
L 252.92732 52.231435 
L 253.525709 56.037922 
L 254.443238 63.440174 
L 255.959155 77.727901 
L 259.030882 109.25346 
L 264.775412 167.945157 
L 268.32585 201.899371 
L 271.198114 227.352471 
L 273.352313 244.628846 
L 274.86823 255.144493 
L 275.865544 260.676591 
L 276.503825 263.182202 
L 276.942643 264.143031 
L 277.181999 264.291495 
L 277.381462 264.149658 
L 277.620817 263.577657 
L 277.900065 262.18732 
L 278.219205 259.262894 
L 278.538346 254.212556 
L 278.897379 244.46658 
L 279.256412 227.639663 
L 279.655338 196.137424 
L 280.971792 73.589595 
L 281.370718 60.090287 
L 281.769644 53.244716 
L 282.128677 50.418123 
L 282.407925 49.606874 
L 282.607387 49.556525 
L 282.80685 49.848162 
L 283.125991 50.869996 
L 283.604702 53.336505 
L 284.322768 58.394726 
L 285.43976 68.06689 
L 287.354603 86.896605 
L 297.966024 194.041533 
L 301.037752 221.836059 
L 303.391413 241.233762 
L 305.027008 253.053866 
L 306.144 259.666215 
L 306.862066 262.775503 
L 307.340777 264.017504 
L 307.620025 264.287637 
L 307.819488 264.207105 
L 308.018951 263.841008 
L 308.258306 262.927192 
L 308.537554 260.996146 
L 308.856694 257.166142 
L 309.215727 249.650684 
L 309.57476 236.541604 
L 309.933794 214.326427 
L 310.372612 171.093993 
L 311.170463 89.855108 
L 311.609281 67.369936 
L 312.008207 56.867838 
L 312.407133 51.742522 
L 312.726273 49.970188 
L 312.965628 49.543922 
L 313.125199 49.583566 
L 313.324661 49.92561 
L 313.643802 51.009662 
L 314.122513 53.540691 
L 314.840579 58.657822 
L 315.957571 68.376965 
L 317.872414 87.236964 
L 328.364158 193.229931 
L 331.435885 221.087907 
L 333.789547 240.563357 
L 335.465034 252.746947 
L 336.582026 259.427482 
L 337.339985 262.753071 
L 337.818696 264.006576 
L 338.097943 264.286025 
L 338.297406 264.213874 
L 338.496869 263.858084 
L 338.736225 262.960086 
L 339.015472 261.054221 
L 339.334613 257.266697 
L 339.693646 249.828352 
L 340.052679 236.848792 
L 340.411712 214.834171 
L 340.85053 171.843282 
L 341.688274 87.594977 
L 342.127092 66.202671 
L 342.526018 56.273584 
L 342.924944 51.478088 
L 343.244084 49.870831 
L 343.48344 49.53305 
L 343.64301 49.619807 
L 343.882365 50.121434 
L 344.241398 51.522898 
L 344.799894 54.788223 
L 345.637638 61.214333 
L 346.954093 73.24035 
L 349.387539 97.849658 
L 356.807556 173.632999 
L 360.238316 206.107894 
L 363.030796 230.533435 
L 365.105209 246.846293 
L 366.501449 256.247957 
L 367.418978 261.136241 
L 368.057259 263.467016 
L 368.456184 264.209028 
L 368.69554 264.276469 
L 368.895003 264.050627 
L 369.134358 263.351087 
L 369.413606 261.759887 
L 369.732746 258.500832 
L 370.051887 252.933537 
L 370.41092 242.236407 
L 370.769953 223.851901 
L 371.168879 190.058387 
L 372.325763 78.490179 
L 372.764581 61.58972 
L 373.163507 53.971465 
L 373.52254 50.72855 
L 373.801788 49.700354 
L 374.001251 49.532739 
L 374.160821 49.664969 
L 374.400176 50.222004 
L 374.759209 51.685527 
L 375.317705 55.014992 
L 376.155449 61.496384 
L 377.511796 73.950384 
L 380.06492 99.851349 
L 387.125904 172.006521 
L 390.596557 204.955991 
L 393.389037 229.480936 
L 395.46345 245.919126 
L 396.899582 255.723379 
L 397.857004 260.925702 
L 398.495285 263.33909 
L 398.89421 264.159443 
L 399.133566 264.289697 
L 399.333029 264.129029 
L 399.572384 263.528459 
L 399.851632 262.093238 
L 400.170772 259.094259 
L 400.489913 253.929012 
L 400.848946 243.971833 
L 401.207979 226.797313 
L 401.606905 194.769605 
L 402.883467 74.804957 
L 403.282392 60.729435 
L 403.681318 53.553026 
L 404.040351 50.547871 
L 404.319599 49.643374 
L 404.519062 49.542547 
L 404.718525 49.79351 
L 404.997773 50.611215 
L 405.436591 52.714033 
L 406.114764 57.270895 
L 407.151971 65.997114 
L 408.867351 82.586327 
L 413.215641 127.575042 
L 417.763393 173.505892 
L 421.194154 205.989399 
L 423.986633 230.425267 
L 426.061046 246.751232 
L 427.457286 256.16947 
L 428.414708 261.25593 
L 429.013096 263.431806 
L 429.412022 264.196055 
L 429.651377 264.281372 
L 429.85084 264.074094 
L 430.090195 263.402774 
L 430.369443 261.856127 
L 430.688584 258.671506 
L 431.007724 253.219456 
L 431.366757 242.734602 
L 431.72579 224.695873 
L 432.124716 191.396736 
L 433.321493 77.09045 
L 433.720418 61.938092 
L 434.119344 54.142342 
L 434.478377 50.804066 
L 434.797518 49.653737 
L 434.996981 49.5401 
L 435.156551 49.707771 
L 435.435799 50.443108 
L 435.834724 52.236301 
L 436.433113 56.044174 
L 437.350642 63.447604 
L 438.866559 77.736167 
L 441.938287 109.262052 
L 447.682816 167.953217 
L 451.233254 201.906848 
L 454.105518 227.35927 
L 456.259717 244.634795 
L 456.658643 247.574842 
L 456.658643 247.574842 
" style="fill:none;stroke:#1f77b4;stroke-linecap:square;stroke-width:1.5;"/>
   </g>
   <g id="line2d_15">
    <path clip-path="url(#p62037e85c5)" d="M 53.74375 110.33509 
L 54.581494 108.310225 
L 55.538915 105.385372 
L 56.616015 101.324657 
L 57.772899 96.066655 
L 59.049461 89.206973 
L 60.485593 80.205415 
L 62.081296 68.721429 
L 64.235494 51.399061 
L 65.671627 40.493036 
L 66.19023 37.930676 
L 66.469478 37.317258 
L 66.629048 37.286656 
L 66.788618 37.503188 
L 67.027974 38.267956 
L 67.426899 40.484262 
L 68.105073 45.798086 
L 72.533147 83.150065 
L 73.929387 92.146978 
L 75.205949 98.956538 
L 76.362834 103.967693 
L 77.40004 107.537704 
L 78.357462 110.072379 
L 79.195206 111.70107 
L 79.953164 112.707846 
L 80.591445 113.216007 
L 81.189834 113.413395 
L 81.74833 113.356249 
L 82.306826 113.067998 
L 82.905214 112.504729 
L 83.583388 111.550728 
L 84.341346 110.090958 
L 85.218983 107.886424 
L 86.176404 104.858158 
L 87.253503 100.682476 
L 88.45028 95.101029 
L 89.766735 87.839158 
L 91.202867 78.623779 
L 92.838462 66.620597 
L 96.588363 38.247385 
L 96.907504 37.371933 
L 97.106967 37.283004 
L 97.266537 37.489272 
L 97.505892 38.240116 
L 97.904818 40.43978 
L 98.582992 45.740677 
L 103.050959 83.382835 
L 104.447198 92.341338 
L 105.72376 99.115726 
L 106.880645 104.095446 
L 107.917851 107.637765 
L 108.875273 110.147321 
L 109.713017 111.754381 
L 110.431083 112.700832 
L 111.069364 113.212212 
L 111.667752 113.41259 
L 112.226248 113.358211 
L 112.784744 113.072703 
L 113.383133 112.512352 
L 114.061306 111.561629 
L 114.819265 110.105494 
L 115.696901 107.905128 
L 116.654323 104.881362 
L 117.731422 100.710684 
L 118.928199 95.134708 
L 120.244654 87.878704 
L 121.680786 78.669412 
L 123.316381 66.67226 
L 127.066282 38.27393 
L 127.385422 37.381381 
L 127.584885 37.279778 
L 127.744456 37.475787 
L 127.983811 38.21267 
L 128.382737 40.395585 
L 129.06091 45.683442 
L 133.528877 83.336266 
L 134.925117 92.30244 
L 136.201679 99.083852 
L 137.358563 104.069847 
L 138.39577 107.617696 
L 139.353192 110.132267 
L 140.190935 111.743645 
L 140.909002 112.693748 
L 141.547283 113.208338 
L 142.145671 113.411696 
L 142.704167 113.360075 
L 143.262663 113.077303 
L 143.861051 112.51986 
L 144.539225 111.572406 
L 145.297184 110.119892 
L 146.17482 107.92368 
L 147.132241 104.904399 
L 148.209341 100.738706 
L 149.406118 95.16818 
L 150.722572 87.918024 
L 152.158704 78.714798 
L 153.7943 66.723662 
L 157.544201 38.300667 
L 157.903234 37.338223 
L 158.102696 37.300255 
L 158.302159 37.646887 
L 158.581407 38.725204 
L 159.020225 41.461314 
L 159.857969 48.432274 
L 163.169052 77.139124 
L 164.645077 87.592511 
L 165.961531 95.399889 
L 167.158308 101.25061 
L 168.2753 105.653183 
L 169.272614 108.735483 
L 170.190143 110.876486 
L 170.987994 112.205643 
L 171.706061 112.984193 
L 172.304449 113.334228 
L 172.862945 113.418303 
L 173.421441 113.270133 
L 174.019829 112.855763 
L 174.65811 112.124666 
L 175.376176 110.948435 
L 176.174028 109.206017 
L 177.091557 106.640788 
L 178.128763 103.025162 
L 179.245755 98.292109 
L 180.482425 92.052743 
L 181.838772 84.032255 
L 183.354689 73.683003 
L 185.149855 59.797052 
L 187.702979 39.93267 
L 188.181689 37.763365 
L 188.460937 37.279801 
L 188.620508 37.33153 
L 188.81997 37.740959 
L 189.139111 39.105602 
L 189.657714 42.615709 
L 190.694921 51.624059 
L 193.248045 73.962608 
L 194.763962 85.168664 
L 196.12031 93.60204 
L 197.356979 99.960303 
L 198.473971 104.622659 
L 199.511177 108.048742 
L 200.428706 110.367066 
L 201.26645 111.909228 
L 201.984516 112.800791 
L 202.622797 113.263925 
L 203.181293 113.417474 
L 203.739789 113.338205 
L 204.298285 113.028004 
L 204.936566 112.392993 
L 205.654632 111.32394 
L 206.452484 109.699543 
L 207.33012 107.386849 
L 208.327434 104.096773 
L 209.444426 99.585362 
L 210.641203 93.796701 
L 211.957657 86.3129 
L 213.433682 76.587649 
L 215.149062 63.693962 
L 218.38036 38.89599 
L 218.779286 37.484177 
L 219.018641 37.272768 
L 219.178211 37.438119 
L 219.417567 38.13298 
L 219.7766 40.008479 
L 220.414881 44.834731 
L 222.130261 60.29033 
L 223.965319 75.801157 
L 225.441344 86.460815 
L 226.797691 94.676973 
L 228.03436 100.838029 
L 229.151352 105.324966 
L 230.148666 108.481264 
L 231.066195 110.689202 
L 231.864047 112.075694 
L 232.582113 112.905185 
L 233.220394 113.313753 
L 233.77889 113.420001 
L 234.337386 113.293821 
L 234.895881 112.93708 
L 235.534162 112.249303 
L 236.252229 111.121396 
L 237.05008 109.432193 
L 237.967609 106.92757 
L 238.964923 103.530121 
L 240.081915 98.899989 
L 241.318584 92.772464 
L 242.674931 84.87074 
L 244.190849 74.644945 
L 245.946122 61.193638 
L 248.738601 39.554218 
L 249.177419 37.687825 
L 249.456667 37.271258 
L 249.616237 37.364491 
L 249.8157 37.823711 
L 250.134841 39.253325 
L 250.653444 42.824995 
L 251.730543 52.232694 
L 254.203882 73.857186 
L 255.7198 85.079101 
L 257.076147 93.527269 
L 258.312816 99.898986 
L 259.429808 104.57332 
L 260.467015 108.010331 
L 261.384544 110.338158 
L 262.222287 111.888865 
L 262.940354 112.787655 
L 263.578635 113.257143 
L 264.137131 113.416199 
L 264.695626 113.342391 
L 265.254122 113.037608 
L 265.892403 112.408741 
L 266.570577 111.415351 
L 267.368428 109.821383 
L 268.246065 107.541843 
L 269.243379 104.289045 
L 270.320478 99.993429 
L 271.517255 94.280871 
L 272.833709 86.878511 
L 274.309734 77.239442 
L 275.985222 64.744392 
L 279.37609 38.76748 
L 279.775015 37.434188 
L 279.974478 37.270231 
L 280.134049 37.41524 
L 280.373404 38.081976 
L 280.732437 39.925848 
L 281.330825 44.390237 
L 282.846743 58.007224 
L 284.801478 74.7571 
L 286.277503 85.574196 
L 287.633851 93.939912 
L 288.87052 100.236689 
L 289.987512 104.844335 
L 291.024718 108.220508 
L 291.942247 110.495436 
L 292.740099 111.939306 
L 293.458165 112.819775 
L 294.096446 113.273157 
L 294.654942 113.418251 
L 295.213438 113.330599 
L 295.771933 113.012081 
L 296.410215 112.367641 
L 297.128281 111.288072 
L 297.926132 109.652096 
L 298.803768 107.326787 
L 299.801082 104.022524 
L 300.918074 99.495428 
L 302.114851 93.690249 
L 303.431306 86.188784 
L 304.907331 76.444877 
L 306.622711 63.53319 
L 309.814116 38.992983 
L 310.213042 37.524957 
L 310.452397 37.269587 
L 310.611967 37.404455 
L 310.851323 38.057095 
L 311.210356 39.885032 
L 311.808744 44.335813 
L 313.284769 57.585011 
L 315.239505 74.388909 
L 316.755422 85.530144 
L 318.111769 93.903212 
L 319.348439 100.206668 
L 320.46543 104.820256 
L 321.502637 108.201851 
L 322.420166 110.481493 
L 323.218017 111.929401 
L 323.936083 112.813457 
L 324.574364 113.269991 
L 325.13286 113.41782 
L 325.691356 113.332878 
L 326.249852 113.017049 
L 326.888133 112.375659 
L 327.606199 111.299491 
L 328.404051 109.667259 
L 329.281687 107.34603 
L 330.279001 104.046355 
L 331.395993 99.524334 
L 332.59277 93.724501 
L 333.909224 86.228752 
L 335.385249 76.490882 
L 337.100629 63.585018 
L 340.292034 39.025643 
L 340.69096 37.53923 
L 340.930316 37.26936 
L 341.089886 37.394101 
L 341.329241 38.032616 
L 341.688274 39.844522 
L 342.286663 44.281577 
L 343.762688 57.525611 
L 345.757316 74.653628 
L 347.273233 85.754389 
L 348.62958 94.089875 
L 349.86625 100.3592 
L 350.983242 104.942422 
L 352.020448 108.296318 
L 352.937977 110.551877 
L 353.735828 111.979157 
L 354.453895 112.844887 
L 355.092176 113.285312 
L 355.650671 113.419176 
L 356.209167 113.320385 
L 356.767663 112.990817 
L 357.405944 112.33385 
L 358.12401 111.240308 
L 358.921862 109.588945 
L 359.799498 107.246873 
L 360.796812 103.923761 
L 361.913804 99.375824 
L 363.150473 93.337678 
L 364.506821 85.531015 
L 365.982845 75.688977 
L 367.698226 62.683457 
L 370.730061 39.264443 
L 371.168879 37.553842 
L 371.408234 37.269547 
L 371.567804 37.384176 
L 371.767267 37.868803 
L 372.086408 39.331199 
L 372.605011 42.933647 
L 373.68211 52.358628 
L 376.155449 73.96715 
L 377.671367 85.172388 
L 379.027714 93.605017 
L 380.264383 99.962606 
L 381.381375 104.624367 
L 382.418582 108.049908 
L 383.336111 110.367761 
L 384.173854 111.909502 
L 384.891921 112.80071 
L 385.530202 113.263532 
L 386.088698 113.41681 
L 386.647193 113.337272 
L 387.205689 113.026806 
L 387.84397 112.391494 
L 388.562036 111.322107 
L 389.359888 109.697341 
L 390.237524 107.384246 
L 391.234838 104.093716 
L 392.35183 99.581808 
L 393.548607 93.792622 
L 394.865062 86.308264 
L 396.341086 76.58243 
L 398.056467 63.688199 
L 401.287764 38.892584 
L 401.68669 37.482831 
L 401.926045 37.273009 
L 402.085616 37.439448 
L 402.324971 38.135801 
L 402.684004 40.01296 
L 403.322285 44.840641 
L 405.077558 60.654956 
L 406.912616 76.117357 
L 408.388641 86.728616 
L 409.705095 94.680505 
L 410.941765 100.840799 
L 412.058756 105.32706 
L 413.056071 108.482767 
L 413.973599 110.69017 
L 414.771451 112.076204 
L 415.489517 112.905289 
L 416.127798 113.3135 
L 416.686294 113.419439 
L 417.24479 113.292952 
L 417.803286 112.935907 
L 418.441567 112.247786 
L 419.159633 111.119494 
L 419.957484 109.429869 
L 420.875013 106.924766 
L 421.872327 103.526798 
L 422.989319 98.896097 
L 424.225988 92.767954 
L 425.582336 84.865575 
L 427.098253 74.639104 
L 428.853526 61.1872 
L 431.646005 39.549908 
L 432.084823 37.685734 
L 432.364071 37.27115 
L 432.523642 37.3656 
L 432.723104 37.826267 
L 433.042245 39.257742 
L 433.560848 42.831147 
L 434.637947 52.239772 
L 437.111286 73.863233 
L 438.627204 85.084141 
L 439.983551 93.531379 
L 441.22022 99.902253 
L 442.337212 104.575839 
L 443.374419 108.012169 
L 444.291948 110.339403 
L 445.129692 111.889578 
L 445.847758 112.787919 
L 446.486039 113.257012 
L 447.044535 113.415725 
L 447.603031 113.341578 
L 448.161527 113.03646 
L 448.799808 112.407211 
L 449.477981 111.413419 
L 450.275832 109.818984 
L 451.153469 107.538935 
L 452.150783 104.285564 
L 453.227882 99.989339 
L 454.424659 94.276118 
L 455.741114 86.873049 
L 456.658643 81.041784 
L 456.658643 81.041784 
" style="fill:none;stroke:#ff7f0e;stroke-linecap:square;stroke-width:1.5;"/>
   </g>
   <g id="patch_3">
    <path d="M 53.74375 275.64375 
L 53.74375 25.918125 
" style="fill:none;stroke:#000000;stroke-linecap:square;stroke-linejoin:miter;stroke-width:0.8;"/>
   </g>
   <g id="patch_4">
    <path d="M 456.61875 275.64375 
L 456.61875 25.918125 
" style="fill:none;stroke:#000000;stroke-linecap:square;stroke-linejoin:miter;stroke-width:0.8;"/>
   </g>
   <g id="patch_5">
    <path d="M 53.74375 275.64375 
L 456.61875 275.64375 
" style="fill:none;stroke:#000000;stroke-linecap:square;stroke-linejoin:miter;stroke-width:0.8;"/>
   </g>
   <g id="patch_6">
    <path d="M 53.74375 25.918125 
L 456.61875 25.918125 
" style="fill:none;stroke:#000000;stroke-linecap:square;stroke-linejoin:miter;stroke-width:0.8;"/>
   </g>
   <g id="text_16">
    <!-- $\omega_0=0.8, \lambda_0=0.9$ -->
    <defs>
     <path d="M 10.59375 45.40625 
L 73.1875 45.40625 
L 73.1875 37.203125 
L 10.59375 37.203125 
z
M 10.59375 25.484375 
L 73.1875 25.484375 
L 73.1875 17.1875 
L 10.59375 17.1875 
z
" id="DejaVuSans-61"/>
     <path d="M 11.71875 12.40625 
L 22.015625 12.40625 
L 22.015625 4 
L 14.015625 -11.625 
L 7.71875 -11.625 
L 11.71875 4 
z
" id="DejaVuSans-44"/>
     <path d="M 36.71875 67.4375 
L 48.828125 0 
L 39.3125 0 
L 31.84375 40.4375 
L 5.125 0 
L -4.390625 0 
L 29.734375 52.4375 
L 28.03125 62.109375 
Q 26.953125 68.265625 21.734375 68.265625 
L 17.046875 68.265625 
L 18.5 75.984375 
L 24.21875 75.875 
Q 35.203125 75.734375 36.71875 67.4375 
z
" id="DejaVuSans-Oblique-955"/>
    </defs>
    <g transform="translate(204.18125 19.918125)scale(0.12 -0.12)">
     <use transform="translate(0 0.015625)" xlink:href="#DejaVuSans-Oblique-969"/>
     <use transform="translate(83.740234 -16.390625)scale(0.7)" xlink:href="#DejaVuSans-48"/>
     <use transform="translate(150.493164 0.015625)" xlink:href="#DejaVuSans-61"/>
     <use transform="translate(253.764648 0.015625)" xlink:href="#DejaVuSans-48"/>
     <use transform="translate(317.387695 0.015625)" xlink:href="#DejaVuSans-46"/>
     <use transform="translate(346.549805 0.015625)" xlink:href="#DejaVuSans-56"/>
     <use transform="translate(410.172852 0.015625)" xlink:href="#DejaVuSans-44"/>
     <use transform="translate(461.442383 0.015625)" xlink:href="#DejaVuSans-Oblique-955"/>
     <use transform="translate(520.62207 -16.390625)scale(0.7)" xlink:href="#DejaVuSans-48"/>
     <use transform="translate(587.375 0.015625)" xlink:href="#DejaVuSans-61"/>
     <use transform="translate(690.646484 0.015625)" xlink:href="#DejaVuSans-48"/>
     <use transform="translate(754.269531 0.015625)" xlink:href="#DejaVuSans-46"/>
     <use transform="translate(786.056641 0.015625)" xlink:href="#DejaVuSans-57"/>
    </g>
   </g>
  </g>
  <g id="axes_2">
   <g id="matplotlib.axis_3">
    <g id="ytick_8">
     <g id="line2d_16">
      <defs>
       <path d="M 0 0 
L 3.5 0 
" id="m399a4d967a" style="stroke:#000000;stroke-width:0.8;"/>
      </defs>
      <g>
       <use style="stroke:#000000;stroke-width:0.8;" x="456.61875" xlink:href="#m399a4d967a" y="275.64375"/>
      </g>
     </g>
     <g id="text_17">
      <!-- 0.0 -->
      <g style="fill:#ff7f0e;" transform="translate(463.61875 279.442969)scale(0.1 -0.1)">
       <use xlink:href="#DejaVuSans-48"/>
       <use x="63.623047" xlink:href="#DejaVuSans-46"/>
       <use x="95.410156" xlink:href="#DejaVuSans-48"/>
      </g>
     </g>
    </g>
    <g id="ytick_9">
     <g id="line2d_17">
      <g>
       <use style="stroke:#000000;stroke-width:0.8;" x="456.61875" xlink:href="#m399a4d967a" y="225.698625"/>
      </g>
     </g>
     <g id="text_18">
      <!-- 0.2 -->
      <g style="fill:#ff7f0e;" transform="translate(463.61875 229.497844)scale(0.1 -0.1)">
       <use xlink:href="#DejaVuSans-48"/>
       <use x="63.623047" xlink:href="#DejaVuSans-46"/>
       <use x="95.410156" xlink:href="#DejaVuSans-50"/>
      </g>
     </g>
    </g>
    <g id="ytick_10">
     <g id="line2d_18">
      <g>
       <use style="stroke:#000000;stroke-width:0.8;" x="456.61875" xlink:href="#m399a4d967a" y="175.7535"/>
      </g>
     </g>
     <g id="text_19">
      <!-- 0.4 -->
      <g style="fill:#ff7f0e;" transform="translate(463.61875 179.552719)scale(0.1 -0.1)">
       <use xlink:href="#DejaVuSans-48"/>
       <use x="63.623047" xlink:href="#DejaVuSans-46"/>
       <use x="95.410156" xlink:href="#DejaVuSans-52"/>
      </g>
     </g>
    </g>
    <g id="ytick_11">
     <g id="line2d_19">
      <g>
       <use style="stroke:#000000;stroke-width:0.8;" x="456.61875" xlink:href="#m399a4d967a" y="125.808375"/>
      </g>
     </g>
     <g id="text_20">
      <!-- 0.6 -->
      <g style="fill:#ff7f0e;" transform="translate(463.61875 129.607594)scale(0.1 -0.1)">
       <use xlink:href="#DejaVuSans-48"/>
       <use x="63.623047" xlink:href="#DejaVuSans-46"/>
       <use x="95.410156" xlink:href="#DejaVuSans-54"/>
      </g>
     </g>
    </g>
    <g id="ytick_12">
     <g id="line2d_20">
      <g>
       <use style="stroke:#000000;stroke-width:0.8;" x="456.61875" xlink:href="#m399a4d967a" y="75.86325"/>
      </g>
     </g>
     <g id="text_21">
      <!-- 0.8 -->
      <g style="fill:#ff7f0e;" transform="translate(463.61875 79.662469)scale(0.1 -0.1)">
       <use xlink:href="#DejaVuSans-48"/>
       <use x="63.623047" xlink:href="#DejaVuSans-46"/>
       <use x="95.410156" xlink:href="#DejaVuSans-56"/>
      </g>
     </g>
    </g>
    <g id="ytick_13">
     <g id="line2d_21">
      <g>
       <use style="stroke:#000000;stroke-width:0.8;" x="456.61875" xlink:href="#m399a4d967a" y="25.918125"/>
      </g>
     </g>
     <g id="text_22">
      <!-- 1.0 -->
      <g style="fill:#ff7f0e;" transform="translate(463.61875 29.717344)scale(0.1 -0.1)">
       <use xlink:href="#DejaVuSans-49"/>
       <use x="63.623047" xlink:href="#DejaVuSans-46"/>
       <use x="95.410156" xlink:href="#DejaVuSans-48"/>
      </g>
     </g>
    </g>
    <g id="text_23">
     <!-- $\lambda$ -->
     <g style="fill:#ff7f0e;" transform="translate(491.120312 153.780937)rotate(-90)scale(0.1 -0.1)">
      <use transform="translate(0 0.015625)" xlink:href="#DejaVuSans-Oblique-955"/>
     </g>
    </g>
   </g>
   <g id="patch_7">
    <path d="M 53.74375 275.64375 
L 53.74375 25.918125 
" style="fill:none;stroke:#000000;stroke-linecap:square;stroke-linejoin:miter;stroke-width:0.8;"/>
   </g>
   <g id="patch_8">
    <path d="M 456.61875 275.64375 
L 456.61875 25.918125 
" style="fill:none;stroke:#000000;stroke-linecap:square;stroke-linejoin:miter;stroke-width:0.8;"/>
   </g>
   <g id="patch_9">
    <path d="M 53.74375 275.64375 
L 456.61875 275.64375 
" style="fill:none;stroke:#000000;stroke-linecap:square;stroke-linejoin:miter;stroke-width:0.8;"/>
   </g>
   <g id="patch_10">
    <path d="M 53.74375 25.918125 
L 456.61875 25.918125 
" style="fill:none;stroke:#000000;stroke-linecap:square;stroke-linejoin:miter;stroke-width:0.8;"/>
   </g>
  </g>
 </g>
 <defs>
  <clipPath id="p62037e85c5">
   <rect height="249.725625" width="402.875" x="53.74375" y="25.918125"/>
  </clipPath>
 </defs>
</svg>
