<?xml version="1.0" encoding="utf-8" standalone="no"?>
<!DOCTYPE svg PUBLIC "-//W3C//DTD SVG 1.1//EN"
  "http://www.w3.org/Graphics/SVG/1.1/DTD/svg11.dtd">
<!-- Created with matplotlib (https://matplotlib.org/) -->
<svg height="288pt" version="1.1" viewBox="0 0 432 288" width="432pt" xmlns="http://www.w3.org/2000/svg" xmlns:xlink="http://www.w3.org/1999/xlink">
 <metadata>
  <rdf:RDF xmlns:cc="http://creativecommons.org/ns#" xmlns:dc="http://purl.org/dc/elements/1.1/" xmlns:rdf="http://www.w3.org/1999/02/22-rdf-syntax-ns#">
   <cc:Work>
    <dc:type rdf:resource="http://purl.org/dc/dcmitype/StillImage"/>
    <dc:date>2020-12-05T00:10:21.562849</dc:date>
    <dc:format>image/svg+xml</dc:format>
    <dc:creator>
     <cc:Agent>
      <dc:title>Matplotlib v3.3.2, https://matplotlib.org/</dc:title>
     </cc:Agent>
    </dc:creator>
   </cc:Work>
  </rdf:RDF>
 </metadata>
 <defs>
  <style type="text/css">*{stroke-linecap:butt;stroke-linejoin:round;}</style>
 </defs>
 <g id="figure_1">
  <g id="patch_1">
   <path d="M 0 288 
L 432 288 
L 432 0 
L 0 0 
z
" style="fill:#ffffff;"/>
  </g>
  <g id="axes_1">
   <g id="patch_2">
    <path d="M 53.74375 246.84375 
L 421.2 246.84375 
L 421.2 11.071341 
L 53.74375 11.071341 
z
" style="fill:#ffffff;"/>
   </g>
   <g id="matplotlib.axis_1">
    <g id="xtick_1">
     <g id="line2d_1">
      <defs>
       <path d="M 0 0 
L 0 3.5 
" id="meda7053e16" style="stroke:#000000;stroke-width:0.8;"/>
      </defs>
      <g>
       <use style="stroke:#000000;stroke-width:0.8;" x="70.446307" xlink:href="#meda7053e16" y="246.84375"/>
      </g>
     </g>
     <g id="text_1">
      <!-- 0 -->
      <g transform="translate(67.265057 261.442187)scale(0.1 -0.1)">
       <defs>
        <path d="M 31.78125 66.40625 
Q 24.171875 66.40625 20.328125 58.90625 
Q 16.5 51.421875 16.5 36.375 
Q 16.5 21.390625 20.328125 13.890625 
Q 24.171875 6.390625 31.78125 6.390625 
Q 39.453125 6.390625 43.28125 13.890625 
Q 47.125 21.390625 47.125 36.375 
Q 47.125 51.421875 43.28125 58.90625 
Q 39.453125 66.40625 31.78125 66.40625 
z
M 31.78125 74.21875 
Q 44.046875 74.21875 50.515625 64.515625 
Q 56.984375 54.828125 56.984375 36.375 
Q 56.984375 17.96875 50.515625 8.265625 
Q 44.046875 -1.421875 31.78125 -1.421875 
Q 19.53125 -1.421875 13.0625 8.265625 
Q 6.59375 17.96875 6.59375 36.375 
Q 6.59375 54.828125 13.0625 64.515625 
Q 19.53125 74.21875 31.78125 74.21875 
z
" id="DejaVuSans-48"/>
       </defs>
       <use xlink:href="#DejaVuSans-48"/>
      </g>
     </g>
    </g>
    <g id="xtick_2">
     <g id="line2d_2">
      <g>
       <use style="stroke:#000000;stroke-width:0.8;" x="137.263216" xlink:href="#meda7053e16" y="246.84375"/>
      </g>
     </g>
     <g id="text_2">
      <!-- 20 -->
      <g transform="translate(130.900716 261.442187)scale(0.1 -0.1)">
       <defs>
        <path d="M 19.1875 8.296875 
L 53.609375 8.296875 
L 53.609375 0 
L 7.328125 0 
L 7.328125 8.296875 
Q 12.9375 14.109375 22.625 23.890625 
Q 32.328125 33.6875 34.8125 36.53125 
Q 39.546875 41.84375 41.421875 45.53125 
Q 43.3125 49.21875 43.3125 52.78125 
Q 43.3125 58.59375 39.234375 62.25 
Q 35.15625 65.921875 28.609375 65.921875 
Q 23.96875 65.921875 18.8125 64.3125 
Q 13.671875 62.703125 7.8125 59.421875 
L 7.8125 69.390625 
Q 13.765625 71.78125 18.9375 73 
Q 24.125 74.21875 28.421875 74.21875 
Q 39.75 74.21875 46.484375 68.546875 
Q 53.21875 62.890625 53.21875 53.421875 
Q 53.21875 48.921875 51.53125 44.890625 
Q 49.859375 40.875 45.40625 35.40625 
Q 44.1875 33.984375 37.640625 27.21875 
Q 31.109375 20.453125 19.1875 8.296875 
z
" id="DejaVuSans-50"/>
       </defs>
       <use xlink:href="#DejaVuSans-50"/>
       <use x="63.623047" xlink:href="#DejaVuSans-48"/>
      </g>
     </g>
    </g>
    <g id="xtick_3">
     <g id="line2d_3">
      <g>
       <use style="stroke:#000000;stroke-width:0.8;" x="204.080125" xlink:href="#meda7053e16" y="246.84375"/>
      </g>
     </g>
     <g id="text_3">
      <!-- 40 -->
      <g transform="translate(197.717625 261.442187)scale(0.1 -0.1)">
       <defs>
        <path d="M 37.796875 64.3125 
L 12.890625 25.390625 
L 37.796875 25.390625 
z
M 35.203125 72.90625 
L 47.609375 72.90625 
L 47.609375 25.390625 
L 58.015625 25.390625 
L 58.015625 17.1875 
L 47.609375 17.1875 
L 47.609375 0 
L 37.796875 0 
L 37.796875 17.1875 
L 4.890625 17.1875 
L 4.890625 26.703125 
z
" id="DejaVuSans-52"/>
       </defs>
       <use xlink:href="#DejaVuSans-52"/>
       <use x="63.623047" xlink:href="#DejaVuSans-48"/>
      </g>
     </g>
    </g>
    <g id="xtick_4">
     <g id="line2d_4">
      <g>
       <use style="stroke:#000000;stroke-width:0.8;" x="270.897034" xlink:href="#meda7053e16" y="246.84375"/>
      </g>
     </g>
     <g id="text_4">
      <!-- 60 -->
      <g transform="translate(264.534534 261.442187)scale(0.1 -0.1)">
       <defs>
        <path d="M 33.015625 40.375 
Q 26.375 40.375 22.484375 35.828125 
Q 18.609375 31.296875 18.609375 23.390625 
Q 18.609375 15.53125 22.484375 10.953125 
Q 26.375 6.390625 33.015625 6.390625 
Q 39.65625 6.390625 43.53125 10.953125 
Q 47.40625 15.53125 47.40625 23.390625 
Q 47.40625 31.296875 43.53125 35.828125 
Q 39.65625 40.375 33.015625 40.375 
z
M 52.59375 71.296875 
L 52.59375 62.3125 
Q 48.875 64.0625 45.09375 64.984375 
Q 41.3125 65.921875 37.59375 65.921875 
Q 27.828125 65.921875 22.671875 59.328125 
Q 17.53125 52.734375 16.796875 39.40625 
Q 19.671875 43.65625 24.015625 45.921875 
Q 28.375 48.1875 33.59375 48.1875 
Q 44.578125 48.1875 50.953125 41.515625 
Q 57.328125 34.859375 57.328125 23.390625 
Q 57.328125 12.15625 50.6875 5.359375 
Q 44.046875 -1.421875 33.015625 -1.421875 
Q 20.359375 -1.421875 13.671875 8.265625 
Q 6.984375 17.96875 6.984375 36.375 
Q 6.984375 53.65625 15.1875 63.9375 
Q 23.390625 74.21875 37.203125 74.21875 
Q 40.921875 74.21875 44.703125 73.484375 
Q 48.484375 72.75 52.59375 71.296875 
z
" id="DejaVuSans-54"/>
       </defs>
       <use xlink:href="#DejaVuSans-54"/>
       <use x="63.623047" xlink:href="#DejaVuSans-48"/>
      </g>
     </g>
    </g>
    <g id="xtick_5">
     <g id="line2d_5">
      <g>
       <use style="stroke:#000000;stroke-width:0.8;" x="337.713943" xlink:href="#meda7053e16" y="246.84375"/>
      </g>
     </g>
     <g id="text_5">
      <!-- 80 -->
      <g transform="translate(331.351443 261.442187)scale(0.1 -0.1)">
       <defs>
        <path d="M 31.78125 34.625 
Q 24.75 34.625 20.71875 30.859375 
Q 16.703125 27.09375 16.703125 20.515625 
Q 16.703125 13.921875 20.71875 10.15625 
Q 24.75 6.390625 31.78125 6.390625 
Q 38.8125 6.390625 42.859375 10.171875 
Q 46.921875 13.96875 46.921875 20.515625 
Q 46.921875 27.09375 42.890625 30.859375 
Q 38.875 34.625 31.78125 34.625 
z
M 21.921875 38.8125 
Q 15.578125 40.375 12.03125 44.71875 
Q 8.5 49.078125 8.5 55.328125 
Q 8.5 64.0625 14.71875 69.140625 
Q 20.953125 74.21875 31.78125 74.21875 
Q 42.671875 74.21875 48.875 69.140625 
Q 55.078125 64.0625 55.078125 55.328125 
Q 55.078125 49.078125 51.53125 44.71875 
Q 48 40.375 41.703125 38.8125 
Q 48.828125 37.15625 52.796875 32.3125 
Q 56.78125 27.484375 56.78125 20.515625 
Q 56.78125 9.90625 50.3125 4.234375 
Q 43.84375 -1.421875 31.78125 -1.421875 
Q 19.734375 -1.421875 13.25 4.234375 
Q 6.78125 9.90625 6.78125 20.515625 
Q 6.78125 27.484375 10.78125 32.3125 
Q 14.796875 37.15625 21.921875 38.8125 
z
M 18.3125 54.390625 
Q 18.3125 48.734375 21.84375 45.5625 
Q 25.390625 42.390625 31.78125 42.390625 
Q 38.140625 42.390625 41.71875 45.5625 
Q 45.3125 48.734375 45.3125 54.390625 
Q 45.3125 60.0625 41.71875 63.234375 
Q 38.140625 66.40625 31.78125 66.40625 
Q 25.390625 66.40625 21.84375 63.234375 
Q 18.3125 60.0625 18.3125 54.390625 
z
" id="DejaVuSans-56"/>
       </defs>
       <use xlink:href="#DejaVuSans-56"/>
       <use x="63.623047" xlink:href="#DejaVuSans-48"/>
      </g>
     </g>
    </g>
    <g id="xtick_6">
     <g id="line2d_6">
      <g>
       <use style="stroke:#000000;stroke-width:0.8;" x="404.530852" xlink:href="#meda7053e16" y="246.84375"/>
      </g>
     </g>
     <g id="text_6">
      <!-- 100 -->
      <g transform="translate(394.987102 261.442187)scale(0.1 -0.1)">
       <defs>
        <path d="M 12.40625 8.296875 
L 28.515625 8.296875 
L 28.515625 63.921875 
L 10.984375 60.40625 
L 10.984375 69.390625 
L 28.421875 72.90625 
L 38.28125 72.90625 
L 38.28125 8.296875 
L 54.390625 8.296875 
L 54.390625 0 
L 12.40625 0 
z
" id="DejaVuSans-49"/>
       </defs>
       <use xlink:href="#DejaVuSans-49"/>
       <use x="63.623047" xlink:href="#DejaVuSans-48"/>
       <use x="127.246094" xlink:href="#DejaVuSans-48"/>
      </g>
     </g>
    </g>
    <g id="text_7">
     <!-- Years -->
     <g transform="translate(224.279687 275.120313)scale(0.1 -0.1)">
      <defs>
       <path d="M -0.203125 72.90625 
L 10.40625 72.90625 
L 30.609375 42.921875 
L 50.6875 72.90625 
L 61.28125 72.90625 
L 35.5 34.71875 
L 35.5 0 
L 25.59375 0 
L 25.59375 34.71875 
z
" id="DejaVuSans-89"/>
       <path d="M 56.203125 29.59375 
L 56.203125 25.203125 
L 14.890625 25.203125 
Q 15.484375 15.921875 20.484375 11.0625 
Q 25.484375 6.203125 34.421875 6.203125 
Q 39.59375 6.203125 44.453125 7.46875 
Q 49.3125 8.734375 54.109375 11.28125 
L 54.109375 2.78125 
Q 49.265625 0.734375 44.1875 -0.34375 
Q 39.109375 -1.421875 33.890625 -1.421875 
Q 20.796875 -1.421875 13.15625 6.1875 
Q 5.515625 13.8125 5.515625 26.8125 
Q 5.515625 40.234375 12.765625 48.109375 
Q 20.015625 56 32.328125 56 
Q 43.359375 56 49.78125 48.890625 
Q 56.203125 41.796875 56.203125 29.59375 
z
M 47.21875 32.234375 
Q 47.125 39.59375 43.09375 43.984375 
Q 39.0625 48.390625 32.421875 48.390625 
Q 24.90625 48.390625 20.390625 44.140625 
Q 15.875 39.890625 15.1875 32.171875 
z
" id="DejaVuSans-101"/>
       <path d="M 34.28125 27.484375 
Q 23.390625 27.484375 19.1875 25 
Q 14.984375 22.515625 14.984375 16.5 
Q 14.984375 11.71875 18.140625 8.90625 
Q 21.296875 6.109375 26.703125 6.109375 
Q 34.1875 6.109375 38.703125 11.40625 
Q 43.21875 16.703125 43.21875 25.484375 
L 43.21875 27.484375 
z
M 52.203125 31.203125 
L 52.203125 0 
L 43.21875 0 
L 43.21875 8.296875 
Q 40.140625 3.328125 35.546875 0.953125 
Q 30.953125 -1.421875 24.3125 -1.421875 
Q 15.921875 -1.421875 10.953125 3.296875 
Q 6 8.015625 6 15.921875 
Q 6 25.140625 12.171875 29.828125 
Q 18.359375 34.515625 30.609375 34.515625 
L 43.21875 34.515625 
L 43.21875 35.40625 
Q 43.21875 41.609375 39.140625 45 
Q 35.0625 48.390625 27.6875 48.390625 
Q 23 48.390625 18.546875 47.265625 
Q 14.109375 46.140625 10.015625 43.890625 
L 10.015625 52.203125 
Q 14.9375 54.109375 19.578125 55.046875 
Q 24.21875 56 28.609375 56 
Q 40.484375 56 46.34375 49.84375 
Q 52.203125 43.703125 52.203125 31.203125 
z
" id="DejaVuSans-97"/>
       <path d="M 41.109375 46.296875 
Q 39.59375 47.171875 37.8125 47.578125 
Q 36.03125 48 33.890625 48 
Q 26.265625 48 22.1875 43.046875 
Q 18.109375 38.09375 18.109375 28.8125 
L 18.109375 0 
L 9.078125 0 
L 9.078125 54.6875 
L 18.109375 54.6875 
L 18.109375 46.1875 
Q 20.953125 51.171875 25.484375 53.578125 
Q 30.03125 56 36.53125 56 
Q 37.453125 56 38.578125 55.875 
Q 39.703125 55.765625 41.0625 55.515625 
z
" id="DejaVuSans-114"/>
       <path d="M 44.28125 53.078125 
L 44.28125 44.578125 
Q 40.484375 46.53125 36.375 47.5 
Q 32.28125 48.484375 27.875 48.484375 
Q 21.1875 48.484375 17.84375 46.4375 
Q 14.5 44.390625 14.5 40.28125 
Q 14.5 37.15625 16.890625 35.375 
Q 19.28125 33.59375 26.515625 31.984375 
L 29.59375 31.296875 
Q 39.15625 29.25 43.1875 25.515625 
Q 47.21875 21.78125 47.21875 15.09375 
Q 47.21875 7.46875 41.1875 3.015625 
Q 35.15625 -1.421875 24.609375 -1.421875 
Q 20.21875 -1.421875 15.453125 -0.5625 
Q 10.6875 0.296875 5.421875 2 
L 5.421875 11.28125 
Q 10.40625 8.6875 15.234375 7.390625 
Q 20.0625 6.109375 24.8125 6.109375 
Q 31.15625 6.109375 34.5625 8.28125 
Q 37.984375 10.453125 37.984375 14.40625 
Q 37.984375 18.0625 35.515625 20.015625 
Q 33.0625 21.96875 24.703125 23.78125 
L 21.578125 24.515625 
Q 13.234375 26.265625 9.515625 29.90625 
Q 5.8125 33.546875 5.8125 39.890625 
Q 5.8125 47.609375 11.28125 51.796875 
Q 16.75 56 26.8125 56 
Q 31.78125 56 36.171875 55.265625 
Q 40.578125 54.546875 44.28125 53.078125 
z
" id="DejaVuSans-115"/>
      </defs>
      <use xlink:href="#DejaVuSans-89"/>
      <use x="47.833984" xlink:href="#DejaVuSans-101"/>
      <use x="109.357422" xlink:href="#DejaVuSans-97"/>
      <use x="170.636719" xlink:href="#DejaVuSans-114"/>
      <use x="211.75" xlink:href="#DejaVuSans-115"/>
     </g>
    </g>
   </g>
   <g id="matplotlib.axis_2">
    <g id="ytick_1">
     <g id="line2d_7">
      <defs>
       <path d="M 0 0 
L -3.5 0 
" id="mb5101d9031" style="stroke:#000000;stroke-width:0.8;"/>
      </defs>
      <g>
       <use style="stroke:#000000;stroke-width:0.8;" x="53.74375" xlink:href="#mb5101d9031" y="242.670457"/>
      </g>
     </g>
     <g id="text_8">
      <!-- 0.70 -->
      <g transform="translate(24.478125 246.469676)scale(0.1 -0.1)">
       <defs>
        <path d="M 10.6875 12.40625 
L 21 12.40625 
L 21 0 
L 10.6875 0 
z
" id="DejaVuSans-46"/>
        <path d="M 8.203125 72.90625 
L 55.078125 72.90625 
L 55.078125 68.703125 
L 28.609375 0 
L 18.3125 0 
L 43.21875 64.59375 
L 8.203125 64.59375 
z
" id="DejaVuSans-55"/>
       </defs>
       <use xlink:href="#DejaVuSans-48"/>
       <use x="63.623047" xlink:href="#DejaVuSans-46"/>
       <use x="95.410156" xlink:href="#DejaVuSans-55"/>
       <use x="159.033203" xlink:href="#DejaVuSans-48"/>
      </g>
     </g>
    </g>
    <g id="ytick_2">
     <g id="line2d_8">
      <g>
       <use style="stroke:#000000;stroke-width:0.8;" x="53.74375" xlink:href="#mb5101d9031" y="204.695737"/>
      </g>
     </g>
     <g id="text_9">
      <!-- 0.75 -->
      <g transform="translate(24.478125 208.494956)scale(0.1 -0.1)">
       <defs>
        <path d="M 10.796875 72.90625 
L 49.515625 72.90625 
L 49.515625 64.59375 
L 19.828125 64.59375 
L 19.828125 46.734375 
Q 21.96875 47.46875 24.109375 47.828125 
Q 26.265625 48.1875 28.421875 48.1875 
Q 40.625 48.1875 47.75 41.5 
Q 54.890625 34.8125 54.890625 23.390625 
Q 54.890625 11.625 47.5625 5.09375 
Q 40.234375 -1.421875 26.90625 -1.421875 
Q 22.3125 -1.421875 17.546875 -0.640625 
Q 12.796875 0.140625 7.71875 1.703125 
L 7.71875 11.625 
Q 12.109375 9.234375 16.796875 8.0625 
Q 21.484375 6.890625 26.703125 6.890625 
Q 35.15625 6.890625 40.078125 11.328125 
Q 45.015625 15.765625 45.015625 23.390625 
Q 45.015625 31 40.078125 35.4375 
Q 35.15625 39.890625 26.703125 39.890625 
Q 22.75 39.890625 18.8125 39.015625 
Q 14.890625 38.140625 10.796875 36.28125 
z
" id="DejaVuSans-53"/>
       </defs>
       <use xlink:href="#DejaVuSans-48"/>
       <use x="63.623047" xlink:href="#DejaVuSans-46"/>
       <use x="95.410156" xlink:href="#DejaVuSans-55"/>
       <use x="159.033203" xlink:href="#DejaVuSans-53"/>
      </g>
     </g>
    </g>
    <g id="ytick_3">
     <g id="line2d_9">
      <g>
       <use style="stroke:#000000;stroke-width:0.8;" x="53.74375" xlink:href="#mb5101d9031" y="166.721017"/>
      </g>
     </g>
     <g id="text_10">
      <!-- 0.80 -->
      <g transform="translate(24.478125 170.520235)scale(0.1 -0.1)">
       <use xlink:href="#DejaVuSans-48"/>
       <use x="63.623047" xlink:href="#DejaVuSans-46"/>
       <use x="95.410156" xlink:href="#DejaVuSans-56"/>
       <use x="159.033203" xlink:href="#DejaVuSans-48"/>
      </g>
     </g>
    </g>
    <g id="ytick_4">
     <g id="line2d_10">
      <g>
       <use style="stroke:#000000;stroke-width:0.8;" x="53.74375" xlink:href="#mb5101d9031" y="128.746296"/>
      </g>
     </g>
     <g id="text_11">
      <!-- 0.85 -->
      <g transform="translate(24.478125 132.545515)scale(0.1 -0.1)">
       <use xlink:href="#DejaVuSans-48"/>
       <use x="63.623047" xlink:href="#DejaVuSans-46"/>
       <use x="95.410156" xlink:href="#DejaVuSans-56"/>
       <use x="159.033203" xlink:href="#DejaVuSans-53"/>
      </g>
     </g>
    </g>
    <g id="ytick_5">
     <g id="line2d_11">
      <g>
       <use style="stroke:#000000;stroke-width:0.8;" x="53.74375" xlink:href="#mb5101d9031" y="90.771576"/>
      </g>
     </g>
     <g id="text_12">
      <!-- 0.90 -->
      <g transform="translate(24.478125 94.570795)scale(0.1 -0.1)">
       <defs>
        <path d="M 10.984375 1.515625 
L 10.984375 10.5 
Q 14.703125 8.734375 18.5 7.8125 
Q 22.3125 6.890625 25.984375 6.890625 
Q 35.75 6.890625 40.890625 13.453125 
Q 46.046875 20.015625 46.78125 33.40625 
Q 43.953125 29.203125 39.59375 26.953125 
Q 35.25 24.703125 29.984375 24.703125 
Q 19.046875 24.703125 12.671875 31.3125 
Q 6.296875 37.9375 6.296875 49.421875 
Q 6.296875 60.640625 12.9375 67.421875 
Q 19.578125 74.21875 30.609375 74.21875 
Q 43.265625 74.21875 49.921875 64.515625 
Q 56.59375 54.828125 56.59375 36.375 
Q 56.59375 19.140625 48.40625 8.859375 
Q 40.234375 -1.421875 26.421875 -1.421875 
Q 22.703125 -1.421875 18.890625 -0.6875 
Q 15.09375 0.046875 10.984375 1.515625 
z
M 30.609375 32.421875 
Q 37.25 32.421875 41.125 36.953125 
Q 45.015625 41.5 45.015625 49.421875 
Q 45.015625 57.28125 41.125 61.84375 
Q 37.25 66.40625 30.609375 66.40625 
Q 23.96875 66.40625 20.09375 61.84375 
Q 16.21875 57.28125 16.21875 49.421875 
Q 16.21875 41.5 20.09375 36.953125 
Q 23.96875 32.421875 30.609375 32.421875 
z
" id="DejaVuSans-57"/>
       </defs>
       <use xlink:href="#DejaVuSans-48"/>
       <use x="63.623047" xlink:href="#DejaVuSans-46"/>
       <use x="95.410156" xlink:href="#DejaVuSans-57"/>
       <use x="159.033203" xlink:href="#DejaVuSans-48"/>
      </g>
     </g>
    </g>
    <g id="ytick_6">
     <g id="line2d_12">
      <g>
       <use style="stroke:#000000;stroke-width:0.8;" x="53.74375" xlink:href="#mb5101d9031" y="52.796856"/>
      </g>
     </g>
     <g id="text_13">
      <!-- 0.95 -->
      <g transform="translate(24.478125 56.596075)scale(0.1 -0.1)">
       <use xlink:href="#DejaVuSans-48"/>
       <use x="63.623047" xlink:href="#DejaVuSans-46"/>
       <use x="95.410156" xlink:href="#DejaVuSans-57"/>
       <use x="159.033203" xlink:href="#DejaVuSans-53"/>
      </g>
     </g>
    </g>
    <g id="ytick_7">
     <g id="line2d_13">
      <g>
       <use style="stroke:#000000;stroke-width:0.8;" x="53.74375" xlink:href="#mb5101d9031" y="14.822136"/>
      </g>
     </g>
     <g id="text_14">
      <!-- 1.00 -->
      <g transform="translate(24.478125 18.621354)scale(0.1 -0.1)">
       <use xlink:href="#DejaVuSans-49"/>
       <use x="63.623047" xlink:href="#DejaVuSans-46"/>
       <use x="95.410156" xlink:href="#DejaVuSans-48"/>
       <use x="159.033203" xlink:href="#DejaVuSans-48"/>
      </g>
     </g>
    </g>
    <g id="text_15">
     <!-- Rate -->
     <g transform="translate(18.398438 140.420045)rotate(-90)scale(0.1 -0.1)">
      <defs>
       <path d="M 44.390625 34.1875 
Q 47.5625 33.109375 50.5625 29.59375 
Q 53.5625 26.078125 56.59375 19.921875 
L 66.609375 0 
L 56 0 
L 46.6875 18.703125 
Q 43.0625 26.03125 39.671875 28.421875 
Q 36.28125 30.8125 30.421875 30.8125 
L 19.671875 30.8125 
L 19.671875 0 
L 9.8125 0 
L 9.8125 72.90625 
L 32.078125 72.90625 
Q 44.578125 72.90625 50.734375 67.671875 
Q 56.890625 62.453125 56.890625 51.90625 
Q 56.890625 45.015625 53.6875 40.46875 
Q 50.484375 35.9375 44.390625 34.1875 
z
M 19.671875 64.796875 
L 19.671875 38.921875 
L 32.078125 38.921875 
Q 39.203125 38.921875 42.84375 42.21875 
Q 46.484375 45.515625 46.484375 51.90625 
Q 46.484375 58.296875 42.84375 61.546875 
Q 39.203125 64.796875 32.078125 64.796875 
z
" id="DejaVuSans-82"/>
       <path d="M 18.3125 70.21875 
L 18.3125 54.6875 
L 36.8125 54.6875 
L 36.8125 47.703125 
L 18.3125 47.703125 
L 18.3125 18.015625 
Q 18.3125 11.328125 20.140625 9.421875 
Q 21.96875 7.515625 27.59375 7.515625 
L 36.8125 7.515625 
L 36.8125 0 
L 27.59375 0 
Q 17.1875 0 13.234375 3.875 
Q 9.28125 7.765625 9.28125 18.015625 
L 9.28125 47.703125 
L 2.6875 47.703125 
L 2.6875 54.6875 
L 9.28125 54.6875 
L 9.28125 70.21875 
z
" id="DejaVuSans-116"/>
      </defs>
      <use xlink:href="#DejaVuSans-82"/>
      <use x="67.232422" xlink:href="#DejaVuSans-97"/>
      <use x="128.511719" xlink:href="#DejaVuSans-116"/>
      <use x="167.720703" xlink:href="#DejaVuSans-101"/>
     </g>
    </g>
   </g>
   <g id="line2d_14">
    <path clip-path="url(#pfa993fc515)" d="M 70.446307 166.721017 
L 73.286025 195.82299 
L 75.424167 215.611136 
L 76.86073 227.055385 
L 77.796167 232.917112 
L 78.364111 235.313152 
L 78.731604 236.070798 
L 78.932054 236.100126 
L 79.099097 235.851217 
L 79.332956 234.964642 
L 79.600223 232.905289 
L 79.900899 228.592729 
L 80.201576 220.882012 
L 80.502252 207.473773 
L 80.836336 181.713447 
L 81.337463 120.255698 
L 81.83859 68.10212 
L 82.239491 47.284492 
L 82.606984 38.249574 
L 82.941069 34.570147 
L 83.208336 33.480337 
L 83.375379 33.371334 
L 83.542421 33.597148 
L 83.809689 34.50093 
L 84.21059 36.76658 
L 84.845351 41.779685 
L 85.881013 51.974708 
L 87.751886 72.947828 
L 95.569465 162.363402 
L 98.476 192.483065 
L 100.714367 213.524673 
L 102.251155 226.048393 
L 103.220001 232.352137 
L 103.854761 235.189659 
L 104.222254 236.029524 
L 104.422705 236.119911 
L 104.589747 235.934432 
L 104.790198 235.316119 
L 105.057466 233.597261 
L 105.358142 229.878926 
L 105.658818 223.151654 
L 105.959494 211.393731 
L 106.293578 188.490748 
L 106.69448 143.087432 
L 107.362649 68.509489 
L 107.76355 47.4803 
L 108.131043 38.340712 
L 108.465128 34.6077 
L 108.732396 33.49077 
L 108.899438 33.36926 
L 109.06648 33.585029 
L 109.333748 34.476432 
L 109.734649 36.729306 
L 110.36941 41.730333 
L 111.405072 51.91579 
L 113.275945 72.883199 
L 121.126932 162.663087 
L 124.033468 192.758355 
L 126.238426 213.475593 
L 127.775215 226.00749 
L 128.74406 232.321484 
L 129.378821 235.171406 
L 129.746314 236.022727 
L 129.946764 236.121604 
L 130.113807 235.944936 
L 130.314257 235.340013 
L 130.581525 233.645906 
L 130.882201 229.970477 
L 131.182877 223.313887 
L 131.483553 211.674865 
L 131.817638 188.983225 
L 132.218539 143.819479 
L 132.886708 68.919747 
L 133.28761 47.677759 
L 133.655103 38.432792 
L 133.989187 34.645922 
L 134.256455 33.501665 
L 134.423497 33.367577 
L 134.557131 33.508285 
L 134.79099 34.17796 
L 135.158483 36.048894 
L 135.726427 40.241481 
L 136.661864 49.073992 
L 138.265469 66.659832 
L 148.087555 177.79609 
L 150.693414 203.674289 
L 152.564288 220.245519 
L 153.800401 229.457519 
L 154.602204 233.971198 
L 155.10333 235.716705 
L 155.404007 236.121249 
L 155.571049 236.053753 
L 155.7715 235.614186 
L 156.005359 234.458913 
L 156.272626 231.958424 
L 156.573302 226.867249 
L 156.873979 217.857515 
L 157.208063 199.995966 
L 157.575556 165.451707 
L 158.57781 58.480674 
L 158.978711 42.75073 
L 159.346204 36.198611 
L 159.64688 33.933857 
L 159.880739 33.379737 
L 160.014373 33.407607 
L 160.214824 33.815487 
L 160.5155 35.065244 
L 160.983218 38.072507 
L 161.751613 44.708878 
L 163.021134 57.943866 
L 165.626994 87.983198 
L 170.938938 149.052314 
L 174.112741 182.900651 
L 176.584967 207.046903 
L 178.355615 222.350809 
L 179.491502 230.489368 
L 180.226488 234.381411 
L 180.694207 235.845994 
L 180.961474 236.126252 
L 181.128517 236.017838 
L 181.328967 235.516414 
L 181.562826 234.264348 
L 181.830094 231.603782 
L 182.13077 226.227857 
L 182.431446 216.740999 
L 182.765531 197.983846 
L 183.133024 162.138619 
L 184.068461 60.735205 
L 184.469362 43.797849 
L 184.836855 36.660635 
L 185.17094 33.958073 
L 185.404799 33.383536 
L 185.538433 33.402331 
L 185.705475 33.706024 
L 186.006151 34.867588 
L 186.473869 37.784358 
L 187.208855 44.022545 
L 188.41156 56.413565 
L 190.78356 83.606449 
L 196.596631 150.466702 
L 199.737026 183.86726 
L 202.209251 207.917997 
L 203.946491 222.833615 
L 205.082378 230.866982 
L 205.783956 234.495818 
L 206.218266 235.835129 
L 206.485533 236.125634 
L 206.652576 236.025451 
L 206.853026 235.536471 
L 207.086886 234.303899 
L 207.354153 231.675635 
L 207.654829 226.357267 
L 207.955505 216.96691 
L 208.28959 198.390372 
L 208.657083 162.802501 
L 209.59252 61.068125 
L 209.993421 43.953374 
L 210.360914 36.730112 
L 210.694999 33.982928 
L 210.928858 33.387845 
L 211.062492 33.39751 
L 211.229534 33.691763 
L 211.496802 34.67985 
L 211.931112 37.265173 
L 212.632689 43.038537 
L 213.768577 54.536676 
L 215.906718 78.849144 
L 222.454775 154.077772 
L 225.528353 186.524068 
L 227.933761 209.695589 
L 229.604184 223.829608 
L 230.673255 231.236446 
L 231.374832 234.736762 
L 231.809142 235.944022 
L 232.043001 236.125591 
L 232.210043 235.983307 
L 232.410494 235.430597 
L 232.677762 233.832798 
L 232.978438 230.324099 
L 233.279114 223.941691 
L 233.57979 212.763752 
L 233.913875 190.898519 
L 234.314776 146.713227 
L 235.016354 68.093402 
L 235.417255 47.280965 
L 235.784748 38.24853 
L 236.118833 34.570311 
L 236.3861 33.481089 
L 236.553143 33.372342 
L 236.720185 33.598375 
L 236.987452 34.502413 
L 237.388354 36.76832 
L 238.023114 41.781658 
L 239.058777 51.976844 
L 240.92965 72.950014 
L 248.747228 162.365238 
L 251.653764 192.48467 
L 253.89213 213.526014 
L 255.428919 226.049376 
L 256.397764 232.352671 
L 257.032525 235.189682 
L 257.400018 236.029039 
L 257.600469 236.119069 
L 257.767511 235.933216 
L 257.967962 235.314347 
L 258.235229 233.594483 
L 258.535906 229.874363 
L 258.836582 223.144211 
L 259.137258 211.381517 
L 259.471342 188.470254 
L 259.872244 143.058206 
L 260.540413 68.494373 
L 260.941314 47.473718 
L 261.308807 38.338268 
L 261.642892 34.607358 
L 261.910159 33.491429 
L 262.077202 33.370378 
L 262.244244 33.586508 
L 262.511512 34.478366 
L 262.912413 36.731692 
L 263.547174 41.733139 
L 264.582836 51.918898 
L 266.453709 72.886439 
L 274.304696 162.665887 
L 277.211232 192.760859 
L 279.41619 213.477742 
L 280.952979 226.00912 
L 281.921824 232.322487 
L 282.556584 235.171642 
L 282.924077 236.022298 
L 283.124528 236.120673 
L 283.29157 235.943487 
L 283.492021 235.337774 
L 283.759289 233.64221 
L 284.059965 229.9643 
L 284.360641 223.303654 
L 284.661317 211.657818 
L 284.995402 188.954391 
L 285.396303 143.77776 
L 286.064472 68.89759 
L 286.465373 47.667836 
L 286.832866 38.428798 
L 287.166951 34.644927 
L 287.434219 33.502163 
L 287.601261 33.368752 
L 287.734895 33.509901 
L 287.968754 34.180182 
L 288.336247 36.051774 
L 288.904191 40.244982 
L 289.839627 49.07799 
L 291.443233 66.664102 
L 301.265319 177.799671 
L 303.871178 203.677437 
L 305.742052 220.248142 
L 306.978165 229.459483 
L 307.779967 233.972277 
L 308.281094 235.716899 
L 308.58177 236.120611 
L 308.748813 236.052529 
L 308.949263 235.612051 
L 309.183123 234.455374 
L 309.45039 231.95258 
L 309.751066 226.857316 
L 310.051742 217.840822 
L 310.385827 199.96656 
L 310.75332 165.403855 
L 311.755574 58.459394 
L 312.156475 42.741507 
L 312.523968 36.195121 
L 312.824644 33.933111 
L 313.058503 33.38043 
L 313.192137 33.408937 
L 313.392588 33.817587 
L 313.693264 35.068195 
L 314.160982 38.076324 
L 314.929377 44.713469 
L 316.198898 57.948982 
L 318.804757 87.988489 
L 324.116702 149.057178 
L 327.290505 182.905082 
L 329.762731 207.050817 
L 331.533379 222.35405 
L 332.669266 230.491747 
L 333.404252 234.382742 
L 333.87197 235.846205 
L 334.139238 236.125526 
L 334.30628 236.016367 
L 334.506731 235.513812 
L 334.74059 234.259982 
L 335.007858 231.596509 
L 335.308534 226.215422 
L 335.60921 216.719958 
L 335.943295 197.94685 
L 336.310788 162.079401 
L 337.246224 60.707169 
L 337.647126 43.785381 
L 338.014619 36.655724 
L 338.348703 33.957039 
L 338.582562 33.384269 
L 338.716196 33.403846 
L 338.883239 33.708331 
L 339.183915 34.870987 
L 339.651633 37.788855 
L 340.386619 44.027996 
L 341.589323 56.419682 
L 343.961324 83.612836 
L 349.774395 150.472557 
L 352.914789 183.872601 
L 355.387015 207.922706 
L 357.124255 222.837507 
L 358.260142 230.869808 
L 358.96172 234.497409 
L 359.39603 235.835449 
L 359.663297 236.124852 
L 359.83034 236.023767 
L 360.03079 235.533451 
L 360.264649 234.29878 
L 360.531917 231.667048 
L 360.832593 226.342544 
L 361.133269 216.941967 
L 361.467354 198.346364 
L 361.834847 162.731724 
L 362.770284 61.034087 
L 363.171185 43.93819 
L 363.538678 36.723993 
L 363.872763 33.981488 
L 364.106622 33.388552 
L 364.240256 33.399166 
L 364.407298 33.694409 
L 364.674565 34.683701 
L 365.108875 37.270328 
L 365.810453 43.044888 
L 366.94634 54.543885 
L 369.11789 79.247157 
L 375.59913 153.718657 
L 378.672708 186.192518 
L 381.078117 209.397997 
L 382.748539 223.576219 
L 383.851018 231.239706 
L 384.552596 234.738464 
L 384.986906 235.944145 
L 385.220765 236.124505 
L 385.387807 235.981137 
L 385.588258 235.426774 
L 385.855526 233.825956 
L 386.156202 230.31208 
L 386.456878 223.921197 
L 386.757554 212.729129 
L 387.091638 190.838706 
L 387.49254 146.623242 
L 388.194117 68.044792 
L 388.595019 47.258424 
L 388.962512 38.238769 
L 389.296596 34.567043 
L 389.563864 33.481097 
L 389.730906 33.373857 
L 389.897949 33.6011 
L 390.165216 34.506618 
L 390.566118 36.774039 
L 391.200878 41.788789 
L 392.23654 51.985059 
L 394.107414 72.958817 
L 401.924992 162.373168 
L 404.497443 189.165331 
L 404.497443 189.165331 
" style="fill:none;stroke:#1f77b4;stroke-linecap:square;stroke-width:1.5;"/>
   </g>
   <g id="line2d_15">
    <path clip-path="url(#pfa993fc515)" d="M 70.446307 90.771576 
L 71.214701 88.65314 
L 72.083321 85.578823 
L 73.052166 81.30901 
L 74.154645 75.387936 
L 75.35735 67.668348 
L 76.727096 57.347969 
L 78.330702 43.464729 
L 80.569069 23.946391 
L 80.96997 22.08751 
L 81.203829 21.790054 
L 81.337463 21.936293 
L 81.537914 22.578711 
L 81.871998 24.575142 
L 82.47335 29.840525 
L 86.281914 65.893126 
L 87.518027 74.688442 
L 88.653915 81.265548 
L 89.689577 86.019123 
L 90.625013 89.312154 
L 91.426816 91.393216 
L 92.128394 92.662196 
L 92.729746 93.345752 
L 93.264281 93.643936 
L 93.732 93.668338 
L 94.199718 93.473919 
L 94.734253 92.98599 
L 95.335605 92.101133 
L 96.003774 90.704529 
L 96.772169 88.565571 
L 97.640789 85.468303 
L 98.643042 81.009449 
L 99.745521 75.026203 
L 100.981634 67.006303 
L 102.351381 56.578211 
L 103.988395 42.29253 
L 106.093128 23.981285 
L 106.494029 22.102729 
L 106.727888 21.789055 
L 106.861522 21.92554 
L 107.061973 22.554445 
L 107.396057 24.534364 
L 107.99741 29.786324 
L 111.805973 65.849527 
L 113.042086 74.65253 
L 114.177974 81.236689 
L 115.213636 85.99659 
L 116.149073 89.295223 
L 116.950875 91.381 
L 117.652453 92.654041 
L 118.253805 93.341033 
L 118.78834 93.642238 
L 119.256059 93.66926 
L 119.723777 93.477439 
L 120.258312 92.992455 
L 120.859665 92.110881 
L 121.527834 90.717892 
L 122.296228 88.583051 
L 123.164848 85.490387 
L 124.167102 81.036775 
L 125.269581 75.059191 
L 126.505693 67.045438 
L 127.87544 56.623671 
L 129.512454 42.343629 
L 131.617187 24.016305 
L 132.018088 22.118262 
L 132.251948 21.788452 
L 132.385581 21.915195 
L 132.586032 22.530559 
L 132.920117 24.493865 
L 133.521469 29.732286 
L 137.363441 66.066462 
L 138.599554 74.831051 
L 139.735441 81.379977 
L 140.771104 86.108283 
L 141.70654 89.378935 
L 142.508343 91.441162 
L 143.209921 92.69392 
L 143.811273 93.363752 
L 144.345808 93.649869 
L 144.813526 93.663809 
L 145.281245 93.459013 
L 145.81578 92.959321 
L 146.417132 92.061345 
L 147.11871 90.568398 
L 147.920513 88.280723 
L 148.822541 84.97373 
L 149.824795 80.399839 
L 150.927274 74.292398 
L 152.163386 66.137761 
L 153.566542 55.295078 
L 155.270373 40.240016 
L 157.107838 24.266506 
L 157.542148 22.134086 
L 157.776007 21.788268 
L 157.909641 21.905306 
L 158.110091 22.507129 
L 158.444176 24.453756 
L 159.045528 29.678537 
L 162.920909 66.282695 
L 164.157022 75.008832 
L 165.292909 81.522515 
L 166.328571 86.219224 
L 167.230599 89.362205 
L 168.032402 91.429118 
L 168.73398 92.685912 
L 169.335332 93.359159 
L 169.869867 93.648279 
L 170.337586 93.664822 
L 170.805304 93.462608 
L 171.339839 92.965843 
L 171.941192 92.071132 
L 172.642769 90.581958 
L 173.444572 88.298552 
L 174.3466 84.996306 
L 175.348854 80.427619 
L 176.451333 74.325798 
L 177.687446 66.177249 
L 179.057192 55.617247 
L 180.761024 40.599909 
L 182.631897 24.302812 
L 183.066207 22.150236 
L 183.300066 21.78849 
L 183.4337 21.895831 
L 183.634151 22.484076 
L 183.968235 24.413909 
L 184.536179 29.30296 
L 188.61201 67.519533 
L 189.848123 76.022651 
L 190.950602 82.167144 
L 191.952856 86.590214 
L 192.854884 89.641595 
L 193.656687 91.628539 
L 194.358264 92.816449 
L 194.959617 93.431418 
L 195.460743 93.662882 
L 195.928462 93.650662 
L 196.39618 93.419915 
L 196.930715 92.890808 
L 197.532068 91.960029 
L 198.233645 90.429171 
L 199.035448 88.098615 
L 199.937476 84.74393 
L 200.93973 80.117773 
L 202.075617 73.749825 
L 203.31173 65.497542 
L 204.714885 54.553125 
L 206.452125 39.105151 
L 208.155956 24.339229 
L 208.590266 22.166686 
L 208.824125 21.789094 
L 208.957759 21.886753 
L 209.15821 22.461394 
L 209.458886 24.139891 
L 209.993421 28.614683 
L 211.53021 44.199146 
L 213.167224 59.623373 
L 214.503563 70.186255 
L 215.706267 77.99517 
L 216.808746 83.738027 
L 217.777591 87.684589 
L 218.646211 90.364535 
L 219.414605 92.071039 
L 220.082774 93.056185 
L 220.650718 93.533651 
L 221.151845 93.683336 
L 221.619563 93.59545 
L 222.12069 93.259501 
L 222.688634 92.578919 
L 223.323395 91.444557 
L 224.058381 89.64287 
L 224.893592 86.965915 
L 225.829029 83.181478 
L 226.864691 78.035494 
L 228.033987 71.040684 
L 229.336916 61.815596 
L 230.806888 49.741867 
L 234.0141 22.543873 
L 234.314776 21.80461 
L 234.44841 21.834153 
L 234.615452 22.197314 
L 234.88272 23.454823 
L 235.350438 27.033477 
L 236.352692 36.949698 
L 238.424016 57.230332 
L 239.793763 68.438946 
L 241.029875 76.772608 
L 242.132354 82.767002 
L 243.134608 87.056008 
L 244.036636 89.989048 
L 244.838439 91.872681 
L 245.506608 92.930772 
L 246.10796 93.490941 
L 246.609087 93.677212 
L 247.076806 93.623178 
L 247.577932 93.323203 
L 248.112468 92.72948 
L 248.747228 91.660587 
L 249.448806 90.023767 
L 250.250609 87.573346 
L 251.152637 84.085355 
L 252.188299 79.137968 
L 253.324187 72.573163 
L 254.593708 63.867567 
L 256.030271 52.388243 
L 257.967962 34.868991 
L 259.204075 24.412225 
L 259.638385 22.200453 
L 259.872244 21.791514 
L 260.005878 21.869902 
L 260.206328 22.417313 
L 260.507004 24.064477 
L 261.04154 28.511141 
L 262.54492 43.749913 
L 264.215343 59.528215 
L 265.551681 70.107172 
L 266.754385 77.930864 
L 267.856864 83.687119 
L 268.82571 87.645238 
L 269.694329 90.33535 
L 270.462724 92.050693 
L 271.130893 93.043414 
L 271.698837 93.527239 
L 272.199963 93.68248 
L 272.667682 93.599735 
L 273.168809 93.269249 
L 273.736752 92.594806 
L 274.371513 91.467245 
L 275.106499 89.673355 
L 275.94171 87.005168 
L 276.877147 83.230434 
L 277.912809 78.095029 
L 279.082105 71.111886 
L 280.385035 61.899194 
L 281.855007 49.837662 
L 285.095627 22.454251 
L 285.362894 21.812533 
L 285.496528 21.822927 
L 285.663571 22.162722 
L 285.930838 23.389142 
L 286.365148 26.64362 
L 287.300585 35.802441 
L 289.505543 57.430007 
L 290.875289 68.605328 
L 292.077994 76.706025 
L 293.180473 82.713815 
L 294.182726 87.014782 
L 295.084755 89.958381 
L 295.886558 91.851232 
L 296.554727 92.916888 
L 297.156079 93.48378 
L 297.657206 93.675596 
L 298.124924 93.626693 
L 298.626051 93.33217 
L 299.160586 92.744215 
L 299.795347 91.68211 
L 300.496924 90.052722 
L 301.298727 87.610708 
L 302.200756 84.132067 
L 303.236418 79.195261 
L 304.372305 72.641818 
L 305.641826 63.948419 
L 307.07839 52.481497 
L 308.982672 35.279212 
L 310.252193 24.48542 
L 310.686503 22.235303 
L 310.920362 21.795463 
L 311.053996 21.854707 
L 311.221038 22.253798 
L 311.488306 23.558634 
L 311.956024 27.184661 
L 312.991686 37.469987 
L 315.029602 57.381424 
L 316.399349 68.564833 
L 317.602053 76.672868 
L 318.704532 82.687332 
L 319.706786 86.994259 
L 320.608814 89.943118 
L 321.410617 91.840561 
L 322.078786 92.909986 
L 322.680138 93.480229 
L 323.181265 93.674807 
L 323.648983 93.62846 
L 324.15011 93.336653 
L 324.684645 92.751571 
L 325.319406 91.692848 
L 326.020984 90.067163 
L 326.822787 87.629338 
L 327.724815 84.155354 
L 328.760477 79.22382 
L 329.896364 72.676038 
L 331.165886 63.988715 
L 332.602449 52.527979 
L 334.506731 35.329687 
L 335.809661 24.299626 
L 336.243971 22.148856 
L 336.47783 21.788519 
L 336.611464 21.896714 
L 336.811914 22.486148 
L 337.145999 24.417431 
L 337.713943 29.307598 
L 341.789774 67.52283 
L 343.025887 76.025195 
L 344.128366 82.169026 
L 345.13062 86.591508 
L 346.032648 89.64237 
L 346.834451 91.628863 
L 347.536028 92.816384 
L 348.13738 93.431026 
L 348.638507 93.66222 
L 349.106226 93.649749 
L 349.573944 93.418754 
L 350.108479 92.889366 
L 350.709831 91.958275 
L 351.411409 90.427057 
L 352.213212 88.096092 
L 353.11524 84.740955 
L 354.117494 80.114303 
L 355.253381 73.745809 
L 356.489494 65.492958 
L 357.892649 54.547963 
L 359.629889 39.099577 
L 361.33372 24.335383 
L 361.76803 22.164993 
L 362.001889 21.789088 
L 362.135523 21.887772 
L 362.335974 22.463846 
L 362.63665 24.143964 
L 363.171185 28.620162 
L 364.741382 44.541905 
L 366.378397 59.915762 
L 367.714735 70.428733 
L 368.917439 78.191839 
L 369.98651 83.740104 
L 370.955355 87.685991 
L 371.823975 90.365346 
L 372.592369 92.071336 
L 373.260538 93.056043 
L 373.828482 93.53314 
L 374.329609 93.682504 
L 374.797327 93.594321 
L 375.298454 93.258056 
L 375.866398 92.577119 
L 376.501158 91.442365 
L 377.236144 89.640229 
L 378.071356 86.962774 
L 379.006792 83.177784 
L 380.042455 78.0312 
L 381.21175 71.035731 
L 382.51468 61.809952 
L 383.984652 49.735568 
L 387.191864 22.541109 
L 387.49254 21.804244 
L 387.626174 21.834991 
L 387.793216 22.199611 
L 388.060484 23.459033 
L 388.528202 27.039572 
L 389.530456 36.956661 
L 391.60178 57.236112 
L 392.971526 68.443593 
L 394.207639 76.776213 
L 395.310118 82.76969 
L 396.312372 87.05788 
L 397.2144 89.990203 
L 398.016203 91.87321 
L 398.684372 92.930788 
L 399.285724 93.490501 
L 399.786851 93.676397 
L 400.254569 93.622016 
L 400.755696 93.321672 
L 401.290232 92.72756 
L 401.924992 91.658209 
L 402.62657 90.020888 
L 403.428373 87.569901 
L 404.330401 84.08128 
L 404.497443 83.350994 
L 404.497443 83.350994 
" style="fill:none;stroke:#ff7f0e;stroke-linecap:square;stroke-width:1.5;"/>
   </g>
   <g id="patch_3">
    <path d="M 53.74375 246.84375 
L 53.74375 11.071341 
" style="fill:none;stroke:#000000;stroke-linecap:square;stroke-linejoin:miter;stroke-width:0.8;"/>
   </g>
   <g id="patch_4">
    <path d="M 421.2 246.84375 
L 421.2 11.071341 
" style="fill:none;stroke:#000000;stroke-linecap:square;stroke-linejoin:miter;stroke-width:0.8;"/>
   </g>
   <g id="patch_5">
    <path d="M 53.74375 246.84375 
L 421.2 246.84375 
" style="fill:none;stroke:#000000;stroke-linecap:square;stroke-linejoin:miter;stroke-width:0.8;"/>
   </g>
   <g id="patch_6">
    <path d="M 53.74375 11.071341 
L 421.2 11.071341 
" style="fill:none;stroke:#000000;stroke-linecap:square;stroke-linejoin:miter;stroke-width:0.8;"/>
   </g>
   <g id="legend_1">
    <g id="patch_7">
     <path d="M 373.8 48.427591 
L 414.2 48.427591 
Q 416.2 48.427591 416.2 46.427591 
L 416.2 18.071341 
Q 416.2 16.071341 414.2 16.071341 
L 373.8 16.071341 
Q 371.8 16.071341 371.8 18.071341 
L 371.8 46.427591 
Q 371.8 48.427591 373.8 48.427591 
z
" style="fill:#ffffff;opacity:0.8;stroke:#cccccc;stroke-linejoin:miter;"/>
    </g>
    <g id="line2d_16">
     <path d="M 375.8 24.169778 
L 395.8 24.169778 
" style="fill:none;stroke:#1f77b4;stroke-linecap:square;stroke-width:1.5;"/>
    </g>
    <g id="line2d_17"/>
    <g id="text_16">
     <!-- $\lambda$ -->
     <g transform="translate(403.8 27.669778)scale(0.1 -0.1)">
      <defs>
       <path d="M 36.71875 67.4375 
L 48.828125 0 
L 39.3125 0 
L 31.84375 40.4375 
L 5.125 0 
L -4.390625 0 
L 29.734375 52.4375 
L 28.03125 62.109375 
Q 26.953125 68.265625 21.734375 68.265625 
L 17.046875 68.265625 
L 18.5 75.984375 
L 24.21875 75.875 
Q 35.203125 75.734375 36.71875 67.4375 
z
" id="DejaVuSans-Oblique-955"/>
      </defs>
      <use transform="translate(0 0.015625)" xlink:href="#DejaVuSans-Oblique-955"/>
     </g>
    </g>
    <g id="line2d_18">
     <path d="M 375.8 38.847903 
L 395.8 38.847903 
" style="fill:none;stroke:#ff7f0e;stroke-linecap:square;stroke-width:1.5;"/>
    </g>
    <g id="line2d_19"/>
    <g id="text_17">
     <!-- $\omega$ -->
     <g transform="translate(403.8 42.347903)scale(0.1 -0.1)">
      <defs>
       <path d="M 21.390625 -1.421875 
Q 1.125 -1.421875 6.78125 27.59375 
Q 8.984375 39.0625 19.625 54.6875 
L 29.296875 54.6875 
Q 19.234375 39.0625 17 27.34375 
Q 12.796875 6.203125 23.734375 6.203125 
Q 33.84375 6.203125 38.71875 32.46875 
L 47.015625 32.46875 
Q 41.703125 6.0625 51.8125 6.203125 
Q 62.703125 6.296875 66.796875 27.34375 
Q 69.046875 39.0625 65.140625 54.6875 
L 74.8125 54.6875 
Q 79.296875 39.0625 77.09375 27.59375 
Q 71.53125 -1.46875 51.21875 -1.421875 
Q 37.9375 -1.375 39.109375 13.1875 
Q 34.28125 -1.421875 21.390625 -1.421875 
z
" id="DejaVuSans-Oblique-969"/>
      </defs>
      <use transform="translate(0 0.3125)" xlink:href="#DejaVuSans-Oblique-969"/>
     </g>
    </g>
   </g>
  </g>
 </g>
 <defs>
  <clipPath id="pfa993fc515">
   <rect height="235.772409" width="367.45625" x="53.74375" y="11.071341"/>
  </clipPath>
 </defs>
</svg>
