<?xml version="1.0" encoding="utf-8" standalone="no"?>
<!DOCTYPE svg PUBLIC "-//W3C//DTD SVG 1.1//EN"
  "http://www.w3.org/Graphics/SVG/1.1/DTD/svg11.dtd">
<!-- Created with matplotlib (https://matplotlib.org/) -->
<svg height="316.8pt" version="1.1" viewBox="0 0 504 316.8" width="504pt" xmlns="http://www.w3.org/2000/svg" xmlns:xlink="http://www.w3.org/1999/xlink">
 <defs>
  <style type="text/css">
*{stroke-linecap:butt;stroke-linejoin:round;}
  </style>
 </defs>
 <g id="figure_1">
  <g id="patch_1">
   <path d="M 0 316.8 
L 504 316.8 
L 504 0 
L 0 0 
z
" style="fill:#ffffff;"/>
  </g>
  <g id="axes_1">
   <g id="patch_2">
    <path d="M 47.38125 275.64375 
L 450.25625 275.64375 
L 450.25625 25.918125 
L 47.38125 25.918125 
z
" style="fill:#ffffff;"/>
   </g>
   <g id="matplotlib.axis_1">
    <g id="xtick_1">
     <g id="line2d_1">
      <defs>
       <path d="M 0 0 
L 0 3.5 
" id="m415d301f5e" style="stroke:#000000;stroke-width:0.8;"/>
      </defs>
      <g>
       <use style="stroke:#000000;stroke-width:0.8;" x="47.38125" xlink:href="#m415d301f5e" y="275.64375"/>
      </g>
     </g>
     <g id="text_1">
      <!-- 0 -->
      <defs>
       <path d="M 31.78125 66.40625 
Q 24.171875 66.40625 20.328125 58.90625 
Q 16.5 51.421875 16.5 36.375 
Q 16.5 21.390625 20.328125 13.890625 
Q 24.171875 6.390625 31.78125 6.390625 
Q 39.453125 6.390625 43.28125 13.890625 
Q 47.125 21.390625 47.125 36.375 
Q 47.125 51.421875 43.28125 58.90625 
Q 39.453125 66.40625 31.78125 66.40625 
z
M 31.78125 74.21875 
Q 44.046875 74.21875 50.515625 64.515625 
Q 56.984375 54.828125 56.984375 36.375 
Q 56.984375 17.96875 50.515625 8.265625 
Q 44.046875 -1.421875 31.78125 -1.421875 
Q 19.53125 -1.421875 13.0625 8.265625 
Q 6.59375 17.96875 6.59375 36.375 
Q 6.59375 54.828125 13.0625 64.515625 
Q 19.53125 74.21875 31.78125 74.21875 
z
" id="DejaVuSans-48"/>
      </defs>
      <g transform="translate(44.2 290.242188)scale(0.1 -0.1)">
       <use xlink:href="#DejaVuSans-48"/>
      </g>
     </g>
    </g>
    <g id="xtick_2">
     <g id="line2d_2">
      <g>
       <use style="stroke:#000000;stroke-width:0.8;" x="114.306231" xlink:href="#m415d301f5e" y="275.64375"/>
      </g>
     </g>
     <g id="text_2">
      <!-- 50 -->
      <defs>
       <path d="M 10.796875 72.90625 
L 49.515625 72.90625 
L 49.515625 64.59375 
L 19.828125 64.59375 
L 19.828125 46.734375 
Q 21.96875 47.46875 24.109375 47.828125 
Q 26.265625 48.1875 28.421875 48.1875 
Q 40.625 48.1875 47.75 41.5 
Q 54.890625 34.8125 54.890625 23.390625 
Q 54.890625 11.625 47.5625 5.09375 
Q 40.234375 -1.421875 26.90625 -1.421875 
Q 22.3125 -1.421875 17.546875 -0.640625 
Q 12.796875 0.140625 7.71875 1.703125 
L 7.71875 11.625 
Q 12.109375 9.234375 16.796875 8.0625 
Q 21.484375 6.890625 26.703125 6.890625 
Q 35.15625 6.890625 40.078125 11.328125 
Q 45.015625 15.765625 45.015625 23.390625 
Q 45.015625 31 40.078125 35.4375 
Q 35.15625 39.890625 26.703125 39.890625 
Q 22.75 39.890625 18.8125 39.015625 
Q 14.890625 38.140625 10.796875 36.28125 
z
" id="DejaVuSans-53"/>
      </defs>
      <g transform="translate(107.943731 290.242188)scale(0.1 -0.1)">
       <use xlink:href="#DejaVuSans-53"/>
       <use x="63.623047" xlink:href="#DejaVuSans-48"/>
      </g>
     </g>
    </g>
    <g id="xtick_3">
     <g id="line2d_3">
      <g>
       <use style="stroke:#000000;stroke-width:0.8;" x="181.231212" xlink:href="#m415d301f5e" y="275.64375"/>
      </g>
     </g>
     <g id="text_3">
      <!-- 100 -->
      <defs>
       <path d="M 12.40625 8.296875 
L 28.515625 8.296875 
L 28.515625 63.921875 
L 10.984375 60.40625 
L 10.984375 69.390625 
L 28.421875 72.90625 
L 38.28125 72.90625 
L 38.28125 8.296875 
L 54.390625 8.296875 
L 54.390625 0 
L 12.40625 0 
z
" id="DejaVuSans-49"/>
      </defs>
      <g transform="translate(171.687462 290.242188)scale(0.1 -0.1)">
       <use xlink:href="#DejaVuSans-49"/>
       <use x="63.623047" xlink:href="#DejaVuSans-48"/>
       <use x="127.246094" xlink:href="#DejaVuSans-48"/>
      </g>
     </g>
    </g>
    <g id="xtick_4">
     <g id="line2d_4">
      <g>
       <use style="stroke:#000000;stroke-width:0.8;" x="248.156193" xlink:href="#m415d301f5e" y="275.64375"/>
      </g>
     </g>
     <g id="text_4">
      <!-- 150 -->
      <g transform="translate(238.612443 290.242188)scale(0.1 -0.1)">
       <use xlink:href="#DejaVuSans-49"/>
       <use x="63.623047" xlink:href="#DejaVuSans-53"/>
       <use x="127.246094" xlink:href="#DejaVuSans-48"/>
      </g>
     </g>
    </g>
    <g id="xtick_5">
     <g id="line2d_5">
      <g>
       <use style="stroke:#000000;stroke-width:0.8;" x="315.081174" xlink:href="#m415d301f5e" y="275.64375"/>
      </g>
     </g>
     <g id="text_5">
      <!-- 200 -->
      <defs>
       <path d="M 19.1875 8.296875 
L 53.609375 8.296875 
L 53.609375 0 
L 7.328125 0 
L 7.328125 8.296875 
Q 12.9375 14.109375 22.625 23.890625 
Q 32.328125 33.6875 34.8125 36.53125 
Q 39.546875 41.84375 41.421875 45.53125 
Q 43.3125 49.21875 43.3125 52.78125 
Q 43.3125 58.59375 39.234375 62.25 
Q 35.15625 65.921875 28.609375 65.921875 
Q 23.96875 65.921875 18.8125 64.3125 
Q 13.671875 62.703125 7.8125 59.421875 
L 7.8125 69.390625 
Q 13.765625 71.78125 18.9375 73 
Q 24.125 74.21875 28.421875 74.21875 
Q 39.75 74.21875 46.484375 68.546875 
Q 53.21875 62.890625 53.21875 53.421875 
Q 53.21875 48.921875 51.53125 44.890625 
Q 49.859375 40.875 45.40625 35.40625 
Q 44.1875 33.984375 37.640625 27.21875 
Q 31.109375 20.453125 19.1875 8.296875 
z
" id="DejaVuSans-50"/>
      </defs>
      <g transform="translate(305.537424 290.242188)scale(0.1 -0.1)">
       <use xlink:href="#DejaVuSans-50"/>
       <use x="63.623047" xlink:href="#DejaVuSans-48"/>
       <use x="127.246094" xlink:href="#DejaVuSans-48"/>
      </g>
     </g>
    </g>
    <g id="xtick_6">
     <g id="line2d_6">
      <g>
       <use style="stroke:#000000;stroke-width:0.8;" x="382.006154" xlink:href="#m415d301f5e" y="275.64375"/>
      </g>
     </g>
     <g id="text_6">
      <!-- 250 -->
      <g transform="translate(372.462404 290.242188)scale(0.1 -0.1)">
       <use xlink:href="#DejaVuSans-50"/>
       <use x="63.623047" xlink:href="#DejaVuSans-53"/>
       <use x="127.246094" xlink:href="#DejaVuSans-48"/>
      </g>
     </g>
    </g>
    <g id="xtick_7">
     <g id="line2d_7">
      <g>
       <use style="stroke:#000000;stroke-width:0.8;" x="448.931135" xlink:href="#m415d301f5e" y="275.64375"/>
      </g>
     </g>
     <g id="text_7">
      <!-- 300 -->
      <defs>
       <path d="M 40.578125 39.3125 
Q 47.65625 37.796875 51.625 33 
Q 55.609375 28.21875 55.609375 21.1875 
Q 55.609375 10.40625 48.1875 4.484375 
Q 40.765625 -1.421875 27.09375 -1.421875 
Q 22.515625 -1.421875 17.65625 -0.515625 
Q 12.796875 0.390625 7.625 2.203125 
L 7.625 11.71875 
Q 11.71875 9.328125 16.59375 8.109375 
Q 21.484375 6.890625 26.8125 6.890625 
Q 36.078125 6.890625 40.9375 10.546875 
Q 45.796875 14.203125 45.796875 21.1875 
Q 45.796875 27.640625 41.28125 31.265625 
Q 36.765625 34.90625 28.71875 34.90625 
L 20.21875 34.90625 
L 20.21875 43.015625 
L 29.109375 43.015625 
Q 36.375 43.015625 40.234375 45.921875 
Q 44.09375 48.828125 44.09375 54.296875 
Q 44.09375 59.90625 40.109375 62.90625 
Q 36.140625 65.921875 28.71875 65.921875 
Q 24.65625 65.921875 20.015625 65.03125 
Q 15.375 64.15625 9.8125 62.3125 
L 9.8125 71.09375 
Q 15.4375 72.65625 20.34375 73.4375 
Q 25.25 74.21875 29.59375 74.21875 
Q 40.828125 74.21875 47.359375 69.109375 
Q 53.90625 64.015625 53.90625 55.328125 
Q 53.90625 49.265625 50.4375 45.09375 
Q 46.96875 40.921875 40.578125 39.3125 
z
" id="DejaVuSans-51"/>
      </defs>
      <g transform="translate(439.387385 290.242188)scale(0.1 -0.1)">
       <use xlink:href="#DejaVuSans-51"/>
       <use x="63.623047" xlink:href="#DejaVuSans-48"/>
       <use x="127.246094" xlink:href="#DejaVuSans-48"/>
      </g>
     </g>
    </g>
    <g id="text_8">
     <!-- Time (years) -->
     <defs>
      <path d="M -0.296875 72.90625 
L 61.375 72.90625 
L 61.375 64.59375 
L 35.5 64.59375 
L 35.5 0 
L 25.59375 0 
L 25.59375 64.59375 
L -0.296875 64.59375 
z
" id="DejaVuSans-84"/>
      <path d="M 9.421875 54.6875 
L 18.40625 54.6875 
L 18.40625 0 
L 9.421875 0 
z
M 9.421875 75.984375 
L 18.40625 75.984375 
L 18.40625 64.59375 
L 9.421875 64.59375 
z
" id="DejaVuSans-105"/>
      <path d="M 52 44.1875 
Q 55.375 50.25 60.0625 53.125 
Q 64.75 56 71.09375 56 
Q 79.640625 56 84.28125 50.015625 
Q 88.921875 44.046875 88.921875 33.015625 
L 88.921875 0 
L 79.890625 0 
L 79.890625 32.71875 
Q 79.890625 40.578125 77.09375 44.375 
Q 74.3125 48.1875 68.609375 48.1875 
Q 61.625 48.1875 57.5625 43.546875 
Q 53.515625 38.921875 53.515625 30.90625 
L 53.515625 0 
L 44.484375 0 
L 44.484375 32.71875 
Q 44.484375 40.625 41.703125 44.40625 
Q 38.921875 48.1875 33.109375 48.1875 
Q 26.21875 48.1875 22.15625 43.53125 
Q 18.109375 38.875 18.109375 30.90625 
L 18.109375 0 
L 9.078125 0 
L 9.078125 54.6875 
L 18.109375 54.6875 
L 18.109375 46.1875 
Q 21.1875 51.21875 25.484375 53.609375 
Q 29.78125 56 35.6875 56 
Q 41.65625 56 45.828125 52.96875 
Q 50 49.953125 52 44.1875 
z
" id="DejaVuSans-109"/>
      <path d="M 56.203125 29.59375 
L 56.203125 25.203125 
L 14.890625 25.203125 
Q 15.484375 15.921875 20.484375 11.0625 
Q 25.484375 6.203125 34.421875 6.203125 
Q 39.59375 6.203125 44.453125 7.46875 
Q 49.3125 8.734375 54.109375 11.28125 
L 54.109375 2.78125 
Q 49.265625 0.734375 44.1875 -0.34375 
Q 39.109375 -1.421875 33.890625 -1.421875 
Q 20.796875 -1.421875 13.15625 6.1875 
Q 5.515625 13.8125 5.515625 26.8125 
Q 5.515625 40.234375 12.765625 48.109375 
Q 20.015625 56 32.328125 56 
Q 43.359375 56 49.78125 48.890625 
Q 56.203125 41.796875 56.203125 29.59375 
z
M 47.21875 32.234375 
Q 47.125 39.59375 43.09375 43.984375 
Q 39.0625 48.390625 32.421875 48.390625 
Q 24.90625 48.390625 20.390625 44.140625 
Q 15.875 39.890625 15.1875 32.171875 
z
" id="DejaVuSans-101"/>
      <path id="DejaVuSans-32"/>
      <path d="M 31 75.875 
Q 24.46875 64.65625 21.28125 53.65625 
Q 18.109375 42.671875 18.109375 31.390625 
Q 18.109375 20.125 21.3125 9.0625 
Q 24.515625 -2 31 -13.1875 
L 23.1875 -13.1875 
Q 15.875 -1.703125 12.234375 9.375 
Q 8.59375 20.453125 8.59375 31.390625 
Q 8.59375 42.28125 12.203125 53.3125 
Q 15.828125 64.359375 23.1875 75.875 
z
" id="DejaVuSans-40"/>
      <path d="M 32.171875 -5.078125 
Q 28.375 -14.84375 24.75 -17.8125 
Q 21.140625 -20.796875 15.09375 -20.796875 
L 7.90625 -20.796875 
L 7.90625 -13.28125 
L 13.1875 -13.28125 
Q 16.890625 -13.28125 18.9375 -11.515625 
Q 21 -9.765625 23.484375 -3.21875 
L 25.09375 0.875 
L 2.984375 54.6875 
L 12.5 54.6875 
L 29.59375 11.921875 
L 46.6875 54.6875 
L 56.203125 54.6875 
z
" id="DejaVuSans-121"/>
      <path d="M 34.28125 27.484375 
Q 23.390625 27.484375 19.1875 25 
Q 14.984375 22.515625 14.984375 16.5 
Q 14.984375 11.71875 18.140625 8.90625 
Q 21.296875 6.109375 26.703125 6.109375 
Q 34.1875 6.109375 38.703125 11.40625 
Q 43.21875 16.703125 43.21875 25.484375 
L 43.21875 27.484375 
z
M 52.203125 31.203125 
L 52.203125 0 
L 43.21875 0 
L 43.21875 8.296875 
Q 40.140625 3.328125 35.546875 0.953125 
Q 30.953125 -1.421875 24.3125 -1.421875 
Q 15.921875 -1.421875 10.953125 3.296875 
Q 6 8.015625 6 15.921875 
Q 6 25.140625 12.171875 29.828125 
Q 18.359375 34.515625 30.609375 34.515625 
L 43.21875 34.515625 
L 43.21875 35.40625 
Q 43.21875 41.609375 39.140625 45 
Q 35.0625 48.390625 27.6875 48.390625 
Q 23 48.390625 18.546875 47.265625 
Q 14.109375 46.140625 10.015625 43.890625 
L 10.015625 52.203125 
Q 14.9375 54.109375 19.578125 55.046875 
Q 24.21875 56 28.609375 56 
Q 40.484375 56 46.34375 49.84375 
Q 52.203125 43.703125 52.203125 31.203125 
z
" id="DejaVuSans-97"/>
      <path d="M 41.109375 46.296875 
Q 39.59375 47.171875 37.8125 47.578125 
Q 36.03125 48 33.890625 48 
Q 26.265625 48 22.1875 43.046875 
Q 18.109375 38.09375 18.109375 28.8125 
L 18.109375 0 
L 9.078125 0 
L 9.078125 54.6875 
L 18.109375 54.6875 
L 18.109375 46.1875 
Q 20.953125 51.171875 25.484375 53.578125 
Q 30.03125 56 36.53125 56 
Q 37.453125 56 38.578125 55.875 
Q 39.703125 55.765625 41.0625 55.515625 
z
" id="DejaVuSans-114"/>
      <path d="M 44.28125 53.078125 
L 44.28125 44.578125 
Q 40.484375 46.53125 36.375 47.5 
Q 32.28125 48.484375 27.875 48.484375 
Q 21.1875 48.484375 17.84375 46.4375 
Q 14.5 44.390625 14.5 40.28125 
Q 14.5 37.15625 16.890625 35.375 
Q 19.28125 33.59375 26.515625 31.984375 
L 29.59375 31.296875 
Q 39.15625 29.25 43.1875 25.515625 
Q 47.21875 21.78125 47.21875 15.09375 
Q 47.21875 7.46875 41.1875 3.015625 
Q 35.15625 -1.421875 24.609375 -1.421875 
Q 20.21875 -1.421875 15.453125 -0.5625 
Q 10.6875 0.296875 5.421875 2 
L 5.421875 11.28125 
Q 10.40625 8.6875 15.234375 7.390625 
Q 20.0625 6.109375 24.8125 6.109375 
Q 31.15625 6.109375 34.5625 8.28125 
Q 37.984375 10.453125 37.984375 14.40625 
Q 37.984375 18.0625 35.515625 20.015625 
Q 33.0625 21.96875 24.703125 23.78125 
L 21.578125 24.515625 
Q 13.234375 26.265625 9.515625 29.90625 
Q 5.8125 33.546875 5.8125 39.890625 
Q 5.8125 47.609375 11.28125 51.796875 
Q 16.75 56 26.8125 56 
Q 31.78125 56 36.171875 55.265625 
Q 40.578125 54.546875 44.28125 53.078125 
z
" id="DejaVuSans-115"/>
      <path d="M 8.015625 75.875 
L 15.828125 75.875 
Q 23.140625 64.359375 26.78125 53.3125 
Q 30.421875 42.28125 30.421875 31.390625 
Q 30.421875 20.453125 26.78125 9.375 
Q 23.140625 -1.703125 15.828125 -13.1875 
L 8.015625 -13.1875 
Q 14.5 -2 17.703125 9.0625 
Q 20.90625 20.125 20.90625 31.390625 
Q 20.90625 42.671875 17.703125 53.65625 
Q 14.5 64.65625 8.015625 75.875 
z
" id="DejaVuSans-41"/>
     </defs>
     <g transform="translate(217.334375 303.920313)scale(0.1 -0.1)">
      <use xlink:href="#DejaVuSans-84"/>
      <use x="57.958984" xlink:href="#DejaVuSans-105"/>
      <use x="85.742188" xlink:href="#DejaVuSans-109"/>
      <use x="183.154297" xlink:href="#DejaVuSans-101"/>
      <use x="244.677734" xlink:href="#DejaVuSans-32"/>
      <use x="276.464844" xlink:href="#DejaVuSans-40"/>
      <use x="315.478516" xlink:href="#DejaVuSans-121"/>
      <use x="374.658203" xlink:href="#DejaVuSans-101"/>
      <use x="436.181641" xlink:href="#DejaVuSans-97"/>
      <use x="497.460938" xlink:href="#DejaVuSans-114"/>
      <use x="538.574219" xlink:href="#DejaVuSans-115"/>
      <use x="590.673828" xlink:href="#DejaVuSans-41"/>
     </g>
    </g>
   </g>
   <g id="matplotlib.axis_2">
    <g id="ytick_1">
     <g id="line2d_8">
      <defs>
       <path d="M 0 0 
L -3.5 0 
" id="md911f2c6ce" style="stroke:#000000;stroke-width:0.8;"/>
      </defs>
      <g>
       <use style="stroke:#000000;stroke-width:0.8;" x="47.38125" xlink:href="#md911f2c6ce" y="261.917533"/>
      </g>
     </g>
     <g id="text_9">
      <!-- 0.7 -->
      <defs>
       <path d="M 10.6875 12.40625 
L 21 12.40625 
L 21 0 
L 10.6875 0 
z
" id="DejaVuSans-46"/>
       <path d="M 8.203125 72.90625 
L 55.078125 72.90625 
L 55.078125 68.703125 
L 28.609375 0 
L 18.3125 0 
L 43.21875 64.59375 
L 8.203125 64.59375 
z
" id="DejaVuSans-55"/>
      </defs>
      <g transform="translate(24.478125 265.716752)scale(0.1 -0.1)">
       <use xlink:href="#DejaVuSans-48"/>
       <use x="63.623047" xlink:href="#DejaVuSans-46"/>
       <use x="95.410156" xlink:href="#DejaVuSans-55"/>
      </g>
     </g>
    </g>
    <g id="ytick_2">
     <g id="line2d_9">
      <g>
       <use style="stroke:#000000;stroke-width:0.8;" x="47.38125" xlink:href="#md911f2c6ce" y="213.165022"/>
      </g>
     </g>
     <g id="text_10">
      <!-- 0.8 -->
      <defs>
       <path d="M 31.78125 34.625 
Q 24.75 34.625 20.71875 30.859375 
Q 16.703125 27.09375 16.703125 20.515625 
Q 16.703125 13.921875 20.71875 10.15625 
Q 24.75 6.390625 31.78125 6.390625 
Q 38.8125 6.390625 42.859375 10.171875 
Q 46.921875 13.96875 46.921875 20.515625 
Q 46.921875 27.09375 42.890625 30.859375 
Q 38.875 34.625 31.78125 34.625 
z
M 21.921875 38.8125 
Q 15.578125 40.375 12.03125 44.71875 
Q 8.5 49.078125 8.5 55.328125 
Q 8.5 64.0625 14.71875 69.140625 
Q 20.953125 74.21875 31.78125 74.21875 
Q 42.671875 74.21875 48.875 69.140625 
Q 55.078125 64.0625 55.078125 55.328125 
Q 55.078125 49.078125 51.53125 44.71875 
Q 48 40.375 41.703125 38.8125 
Q 48.828125 37.15625 52.796875 32.3125 
Q 56.78125 27.484375 56.78125 20.515625 
Q 56.78125 9.90625 50.3125 4.234375 
Q 43.84375 -1.421875 31.78125 -1.421875 
Q 19.734375 -1.421875 13.25 4.234375 
Q 6.78125 9.90625 6.78125 20.515625 
Q 6.78125 27.484375 10.78125 32.3125 
Q 14.796875 37.15625 21.921875 38.8125 
z
M 18.3125 54.390625 
Q 18.3125 48.734375 21.84375 45.5625 
Q 25.390625 42.390625 31.78125 42.390625 
Q 38.140625 42.390625 41.71875 45.5625 
Q 45.3125 48.734375 45.3125 54.390625 
Q 45.3125 60.0625 41.71875 63.234375 
Q 38.140625 66.40625 31.78125 66.40625 
Q 25.390625 66.40625 21.84375 63.234375 
Q 18.3125 60.0625 18.3125 54.390625 
z
" id="DejaVuSans-56"/>
      </defs>
      <g transform="translate(24.478125 216.964241)scale(0.1 -0.1)">
       <use xlink:href="#DejaVuSans-48"/>
       <use x="63.623047" xlink:href="#DejaVuSans-46"/>
       <use x="95.410156" xlink:href="#DejaVuSans-56"/>
      </g>
     </g>
    </g>
    <g id="ytick_3">
     <g id="line2d_10">
      <g>
       <use style="stroke:#000000;stroke-width:0.8;" x="47.38125" xlink:href="#md911f2c6ce" y="164.41251"/>
      </g>
     </g>
     <g id="text_11">
      <!-- 0.9 -->
      <defs>
       <path d="M 10.984375 1.515625 
L 10.984375 10.5 
Q 14.703125 8.734375 18.5 7.8125 
Q 22.3125 6.890625 25.984375 6.890625 
Q 35.75 6.890625 40.890625 13.453125 
Q 46.046875 20.015625 46.78125 33.40625 
Q 43.953125 29.203125 39.59375 26.953125 
Q 35.25 24.703125 29.984375 24.703125 
Q 19.046875 24.703125 12.671875 31.3125 
Q 6.296875 37.9375 6.296875 49.421875 
Q 6.296875 60.640625 12.9375 67.421875 
Q 19.578125 74.21875 30.609375 74.21875 
Q 43.265625 74.21875 49.921875 64.515625 
Q 56.59375 54.828125 56.59375 36.375 
Q 56.59375 19.140625 48.40625 8.859375 
Q 40.234375 -1.421875 26.421875 -1.421875 
Q 22.703125 -1.421875 18.890625 -0.6875 
Q 15.09375 0.046875 10.984375 1.515625 
z
M 30.609375 32.421875 
Q 37.25 32.421875 41.125 36.953125 
Q 45.015625 41.5 45.015625 49.421875 
Q 45.015625 57.28125 41.125 61.84375 
Q 37.25 66.40625 30.609375 66.40625 
Q 23.96875 66.40625 20.09375 61.84375 
Q 16.21875 57.28125 16.21875 49.421875 
Q 16.21875 41.5 20.09375 36.953125 
Q 23.96875 32.421875 30.609375 32.421875 
z
" id="DejaVuSans-57"/>
      </defs>
      <g transform="translate(24.478125 168.211729)scale(0.1 -0.1)">
       <use xlink:href="#DejaVuSans-48"/>
       <use x="63.623047" xlink:href="#DejaVuSans-46"/>
       <use x="95.410156" xlink:href="#DejaVuSans-57"/>
      </g>
     </g>
    </g>
    <g id="ytick_4">
     <g id="line2d_11">
      <g>
       <use style="stroke:#000000;stroke-width:0.8;" x="47.38125" xlink:href="#md911f2c6ce" y="115.659999"/>
      </g>
     </g>
     <g id="text_12">
      <!-- 1.0 -->
      <g transform="translate(24.478125 119.459217)scale(0.1 -0.1)">
       <use xlink:href="#DejaVuSans-49"/>
       <use x="63.623047" xlink:href="#DejaVuSans-46"/>
       <use x="95.410156" xlink:href="#DejaVuSans-48"/>
      </g>
     </g>
    </g>
    <g id="ytick_5">
     <g id="line2d_12">
      <g>
       <use style="stroke:#000000;stroke-width:0.8;" x="47.38125" xlink:href="#md911f2c6ce" y="66.907487"/>
      </g>
     </g>
     <g id="text_13">
      <!-- 1.1 -->
      <g transform="translate(24.478125 70.706706)scale(0.1 -0.1)">
       <use xlink:href="#DejaVuSans-49"/>
       <use x="63.623047" xlink:href="#DejaVuSans-46"/>
       <use x="95.410156" xlink:href="#DejaVuSans-49"/>
      </g>
     </g>
    </g>
    <g id="text_14">
     <!-- Rates -->
     <defs>
      <path d="M 44.390625 34.1875 
Q 47.5625 33.109375 50.5625 29.59375 
Q 53.5625 26.078125 56.59375 19.921875 
L 66.609375 0 
L 56 0 
L 46.6875 18.703125 
Q 43.0625 26.03125 39.671875 28.421875 
Q 36.28125 30.8125 30.421875 30.8125 
L 19.671875 30.8125 
L 19.671875 0 
L 9.8125 0 
L 9.8125 72.90625 
L 32.078125 72.90625 
Q 44.578125 72.90625 50.734375 67.671875 
Q 56.890625 62.453125 56.890625 51.90625 
Q 56.890625 45.015625 53.6875 40.46875 
Q 50.484375 35.9375 44.390625 34.1875 
z
M 19.671875 64.796875 
L 19.671875 38.921875 
L 32.078125 38.921875 
Q 39.203125 38.921875 42.84375 42.21875 
Q 46.484375 45.515625 46.484375 51.90625 
Q 46.484375 58.296875 42.84375 61.546875 
Q 39.203125 64.796875 32.078125 64.796875 
z
" id="DejaVuSans-82"/>
      <path d="M 18.3125 70.21875 
L 18.3125 54.6875 
L 36.8125 54.6875 
L 36.8125 47.703125 
L 18.3125 47.703125 
L 18.3125 18.015625 
Q 18.3125 11.328125 20.140625 9.421875 
Q 21.96875 7.515625 27.59375 7.515625 
L 36.8125 7.515625 
L 36.8125 0 
L 27.59375 0 
Q 17.1875 0 13.234375 3.875 
Q 9.28125 7.765625 9.28125 18.015625 
L 9.28125 47.703125 
L 2.6875 47.703125 
L 2.6875 54.6875 
L 9.28125 54.6875 
L 9.28125 70.21875 
z
" id="DejaVuSans-116"/>
     </defs>
     <g transform="translate(18.398438 164.848125)rotate(-90)scale(0.1 -0.1)">
      <use xlink:href="#DejaVuSans-82"/>
      <use x="67.232422" xlink:href="#DejaVuSans-97"/>
      <use x="128.511719" xlink:href="#DejaVuSans-116"/>
      <use x="167.720703" xlink:href="#DejaVuSans-101"/>
      <use x="229.244141" xlink:href="#DejaVuSans-115"/>
     </g>
    </g>
   </g>
   <g id="line2d_13">
    <path clip-path="url(#p73e4685eeb)" d="M 47.38125 237.541278 
L 48.42528 253.900469 
L 48.438665 253.904025 
L 48.45205 253.84537 
L 48.492205 252.868405 
L 48.53236 246.145142 
L 48.93391 43.768554 
L 49.148069 37.753691 
L 49.255149 37.26929 
L 49.295304 37.324662 
L 49.415769 38.038496 
L 49.670084 41.273852 
L 50.205484 51.546953 
L 51.637679 84.609538 
L 54.595763 151.843498 
L 56.871212 198.421527 
L 59.052967 238.63267 
L 60.404851 260.266323 
L 60.471776 260.611702 
L 60.511931 260.286653 
L 60.565471 256.953196 
L 60.605626 238.407137 
L 60.833171 95.095842 
L 61.060716 77.703839 
L 61.274876 74.631715 
L 61.315031 74.590132 
L 61.355186 74.655384 
L 61.475651 75.351667 
L 61.743351 78.606224 
L 62.305521 88.829111 
L 63.871565 122.734236 
L 66.695799 182.462623 
L 68.957864 225.566232 
L 70.898688 258.613409 
L 71.286853 263.161233 
L 71.300238 263.118264 
L 71.353778 262.004221 
L 71.407318 253.837571 
L 71.808868 96.709511 
L 72.036413 91.095612 
L 72.130108 90.750389 
L 72.183648 90.830256 
L 72.317498 91.647355 
L 72.598583 95.119549 
L 73.200908 105.970591 
L 75.034652 144.633315 
L 77.684881 198.483641 
L 79.906791 239.171787 
L 81.40591 263.223842 
L 81.526375 264.125846 
L 81.56653 263.933882 
L 81.62007 262.048325 
L 81.67361 248.838656 
L 81.954695 113.426229 
L 82.18224 101.357169 
L 82.383015 99.494591 
L 82.44994 99.607104 
L 82.597175 100.590305 
L 82.90503 104.556755 
L 83.560895 116.498635 
L 86.184354 170.84789 
L 88.593653 217.52574 
L 90.695098 254.090854 
L 91.431272 264.272717 
L 91.444657 264.292585 
L 91.471427 264.211824 
L 91.524967 263.019488 
L 91.578507 255.814771 
L 91.698972 162.226634 
L 91.899747 116.570671 
L 92.127292 106.462021 
L 92.314682 105.073 
L 92.381607 105.220821 
L 92.542227 106.377606 
L 92.876852 110.857369 
L 93.599642 124.1913 
L 99.30165 235.743846 
L 100.93462 262.322759 
L 101.12201 263.98348 
L 101.14878 263.9107 
L 101.20232 262.812488 
L 101.25586 256.62226 
L 101.33617 196.398339 
L 101.52356 127.060018 
L 101.751104 111.934134 
L 101.951879 109.304708 
L 102.005419 109.253579 
L 102.045574 109.329914 
L 102.179424 110.122608 
L 102.460509 113.469335 
L 103.062834 123.917269 
L 104.896579 161.148897 
L 107.533423 212.739507 
L 109.675022 250.402394 
L 110.558432 263.213786 
L 110.598587 263.343994 
L 110.638742 263.143026 
L 110.692282 261.484584 
L 110.745822 252.401116 
L 111.133987 119.279525 
L 111.361532 113.319461 
L 111.468612 112.867261 
L 111.508767 112.904422 
L 111.615847 113.399259 
L 111.856777 115.895543 
L 112.352021 123.870135 
L 113.596826 148.468853 
L 116.79584 211.526647 
L 118.93744 249.262029 
L 119.834234 262.294311 
L 119.874389 262.437317 
L 119.914544 262.274885 
L 119.981469 259.978784 
L 120.035009 248.816685 
L 120.369634 125.692002 
L 120.597179 117.355074 
L 120.757799 116.357903 
L 120.771184 116.363797 
L 120.851494 116.601294 
L 121.038884 118.137009 
L 121.427049 123.649704 
L 122.297074 139.930947 
L 126.794432 227.21094 
L 128.614792 257.677797 
L 128.949417 261.294837 
L 128.962802 261.28193 
L 129.016342 260.682454 
L 129.083267 255.873684 
L 129.150192 223.827509 
L 129.364352 137.502432 
L 129.591897 122.638035 
L 129.806056 119.976079 
L 129.846211 119.948042 
L 129.886366 120.015088 
L 130.020216 120.769164 
L 130.301301 124.011904 
L 130.890241 133.945964 
L 132.643676 168.695671 
L 135.30729 219.742208 
L 137.288269 253.662021 
L 137.796899 259.922628 
L 137.823669 259.882884 
L 137.877209 259.112668 
L 137.944134 253.608855 
L 138.024444 211.53213 
L 138.225219 140.803968 
L 138.452764 126.350673 
L 138.653539 123.789532 
L 138.707079 123.733982 
L 138.747234 123.803445 
L 138.881084 124.557444 
L 139.162169 127.777385 
L 139.751109 137.628056 
L 141.504543 172.082612 
L 144.154772 222.434072 
L 146.015287 253.892206 
L 146.416837 258.335818 
L 146.456992 258.124695 
L 146.523917 255.970959 
L 146.590842 243.256137 
L 146.925467 136.870524 
L 147.153012 128.741207 
L 147.313631 127.738923 
L 147.327016 127.742322 
L 147.407326 127.960619 
L 147.581331 129.293864 
L 147.942726 134.135133 
L 148.745826 148.550789 
L 153.617965 240.120485 
L 154.675379 256.10166 
L 154.769074 256.531941 
L 154.809229 256.299051 
L 154.876154 254.190925 
L 154.943079 243.076862 
L 155.317859 138.906026 
L 155.545404 132.54811 
L 155.679254 131.945565 
L 155.706024 131.970567 
L 155.813104 132.412804 
L 156.040649 134.586851 
L 156.509124 141.641004 
L 157.646849 162.979856 
L 161.019868 226.634418 
L 162.585912 252.326869 
L 162.826842 254.532983 
L 162.853612 254.495609 
L 162.907152 253.865062 
L 162.974077 250.286903 
L 163.054387 227.584871 
L 163.308702 149.97329 
L 163.536247 138.308247 
L 163.737022 136.307054 
L 163.777177 136.300423 
L 163.817332 136.381078 
L 163.951182 137.140345 
L 164.232267 140.284209 
L 164.834591 150.08433 
L 166.628181 184.303778 
L 169.17133 231.046286 
L 170.442905 251.155144 
L 170.61691 252.349964 
L 170.64368 252.256883 
L 170.710605 251.046759 
L 170.790915 243.52941 
L 170.924765 189.642405 
L 171.138925 150.87997 
L 171.36647 142.005932 
L 171.55386 140.701358 
L 171.620785 140.818191 
L 171.768019 141.720761 
L 172.075874 145.313027 
L 172.731739 156.147794 
L 175.194579 202.641958 
L 177.336178 240.339589 
L 178.032198 249.832689 
L 178.085738 250.013834 
L 178.125893 249.900998 
L 178.192818 248.718713 
L 178.273128 242.219533 
L 178.393593 200.860487 
L 178.621138 156.057814 
L 178.848682 146.61456 
L 179.049457 145.090462 
L 179.116382 145.19902 
L 179.263617 146.075804 
L 179.571472 149.600139 
L 180.213952 160.040133 
L 182.476016 202.253028 
L 184.577461 239.022975 
L 185.206556 247.360628 
L 185.273481 247.544588 
L 185.313636 247.366039 
L 185.393946 245.517129 
L 185.474256 237.571816 
L 186.009655 151.609883 
L 186.223815 149.399655 
L 186.26397 149.384589 
L 186.304125 149.45276 
L 186.437975 150.150863 
L 186.71906 153.119747 
L 187.294615 162.035022 
L 188.9142 191.728424 
L 191.323499 234.452898 
L 192.059674 244.6389 
L 192.153369 244.984211 
L 192.193524 244.822573 
L 192.273834 243.223766 
L 192.367529 235.06328 
L 192.916313 155.632402 
L 193.130473 153.51956 
L 193.170628 153.507133 
L 193.210783 153.575457 
L 193.344633 154.261905 
L 193.625718 157.176786 
L 194.201273 165.949712 
L 195.807473 194.984566 
L 198.069537 234.430577 
L 198.671862 242.153922 
L 198.738787 242.364698 
L 198.778942 242.262444 
L 198.859252 241.05608 
L 198.952947 235.350513 
L 199.086797 206.858232 
L 199.341112 167.313994 
L 199.582042 158.683231 
L 199.782816 157.405435 
L 199.863126 157.572168 
L 200.037131 158.710564 
L 200.385141 162.819382 
L 201.121316 174.696035 
L 204.90927 238.894851 
L 205.056505 239.711139 
L 205.09666 239.632684 
L 205.17697 238.631644 
L 205.270665 234.243397 
L 205.39113 215.576495 
L 205.698985 170.04095 
L 205.939915 162.209256 
L 206.127305 161.05462 
L 206.19423 161.14593 
L 206.341465 161.930325 
L 206.635935 164.991768 
L 207.238259 174.024397 
L 209.031849 205.561505 
L 210.704973 233.121402 
L 211.093138 237.01043 
L 211.133293 237.055488 
L 211.173448 236.934133 
L 211.253758 235.879451 
L 211.360838 230.799604 
L 211.508073 208.797283 
L 211.802543 172.694133 
L 212.043473 165.505427 
L 212.230863 164.43076 
L 212.297788 164.52474 
L 212.445023 165.293576 
L 212.739493 168.285328 
L 213.341818 177.141246 
L 215.122022 207.888347 
L 216.594372 231.395 
L 216.942382 234.419878 
L 216.969152 234.423767 
L 216.995922 234.358581 
L 217.076232 233.565734 
L 217.183312 229.852069 
L 217.317161 215.769268 
L 217.691941 174.275268 
L 217.932871 168.329296 
L 218.106876 167.528614 
L 218.120261 167.53517 
L 218.213956 167.779617 
L 218.414731 169.17636 
L 218.802896 173.782152 
L 219.632766 186.845251 
L 222.309765 230.072133 
L 222.577465 231.848944 
L 222.631005 231.711906 
L 222.7247 230.549946 
L 222.845165 225.59344 
L 223.01917 206.161688 
L 223.34041 177.048455 
L 223.594725 171.087048 
L 223.76873 170.35198 
L 223.782115 170.359476 
L 223.87581 170.601115 
L 224.076585 171.958659 
L 224.464749 176.444421 
L 225.281234 189.006333 
L 227.730689 227.589609 
L 227.998388 229.333164 
L 228.051928 229.239375 
L 228.145623 228.313771 
L 228.266088 224.506073 
L 228.440093 209.563483 
L 228.814873 178.908915 
L 229.069188 173.568356 
L 229.229808 172.910448 
L 229.256578 172.921646 
L 229.363658 173.222157 
L 229.577818 174.725985 
L 229.992753 179.567985 
L 230.876163 193.072467 
L 232.924067 224.585516 
L 233.245307 226.892253 
L 233.285462 226.879282 
L 233.312232 226.80376 
L 233.405927 225.963019 
L 233.539777 222.165907 
L 233.727167 208.236832 
L 234.115332 180.76991 
L 234.369647 175.854533 
L 234.543652 175.222993 
L 234.557037 175.230725 
L 234.650732 175.456033 
L 234.851506 176.714769 
L 235.239671 180.925451 
L 236.029386 192.446493 
L 238.077291 222.840487 
L 238.358375 224.555583 
L 238.411915 224.498406 
L 238.50561 223.837968 
L 238.63946 220.876098 
L 238.82685 210.116758 
L 239.295325 181.61398 
L 239.54964 177.712829 
L 239.696875 177.304147 
L 239.723645 177.324103 
L 239.84411 177.689006 
L 240.071655 179.287291 
L 240.51336 184.308682 
L 241.463695 198.274638 
L 242.962814 219.792158 
L 243.297439 222.25835 
L 243.350979 222.318344 
L 243.391134 222.259873 
L 243.484829 221.665357 
L 243.618679 219.142414 
L 243.806069 210.430098 
L 244.341469 182.596879 
L 244.595784 179.440797 
L 244.716249 179.173905 
L 244.756404 179.203989 
L 244.876869 179.575915 
L 245.117799 181.251804 
L 245.572888 186.34344 
L 246.563378 200.541829 
L 247.834953 217.894641 
L 248.169578 220.147515 
L 248.223118 220.18343 
L 248.263273 220.114128 
L 248.370353 219.400176 
L 248.517588 216.572241 
L 248.731748 207.049879 
L 249.226992 184.515377 
L 249.494692 181.161933 
L 249.628542 180.852748 
L 249.655312 180.866368 
L 249.762392 181.123715 
L 249.976552 182.391625 
L 250.378102 186.421153 
L 251.194587 197.375617 
L 252.613396 216.12856 
L 252.934636 218.127319 
L 252.988176 218.165928 
L 253.028331 218.109208 
L 253.135411 217.501267 
L 253.296031 214.822514 
L 253.523576 206.12028 
L 254.045591 185.599564 
L 254.313291 182.627357 
L 254.447141 182.358547 
L 254.473911 182.374096 
L 254.594376 182.675694 
L 254.821921 184.041911 
L 255.236856 188.161326 
L 256.10688 199.531174 
L 257.28476 214.244798 
L 257.606 216.201165 
L 257.672925 216.262271 
L 257.71308 216.212226 
L 257.82016 215.679941 
L 257.98078 213.407381 
L 258.208325 206.229268 
L 258.797265 186.305707 
L 259.064965 183.881275 
L 259.18543 183.709381 
L 259.2122 183.728498 
L 259.332664 184.028521 
L 259.560209 185.341378 
L 259.975144 189.290131 
L 260.858554 200.36399 
L 261.902584 212.625018 
L 262.223824 214.424143 
L 262.290749 214.473657 
L 262.330904 214.424813 
L 262.437984 213.942537 
L 262.598604 211.970532 
L 262.826149 205.955091 
L 263.482013 186.938819 
L 263.736328 185.045426 
L 263.843408 184.917178 
L 263.883563 184.947449 
L 264.017413 185.305703 
L 264.271728 186.822053 
L 264.726818 191.181575 
L 265.918083 205.596524 
L 266.560562 211.820605 
L 266.828262 212.803578 
L 266.908572 212.711577 
L 267.029037 212.085137 
L 267.216427 209.588531 
L 267.497512 202.072871 
L 268.019527 188.640227 
L 268.300612 186.229065 
L 268.447847 186.001197 
L 268.474617 186.018106 
L 268.608467 186.326122 
L 268.849397 187.621507 
L 269.277717 191.398139 
L 270.281591 202.868825 
L 271.017766 210.029723 
L 271.312236 211.233915 
L 271.392546 211.209279 
L 271.405931 211.185669 
L 271.526396 210.680944 
L 271.713786 208.630292 
L 271.994871 202.399099 
L 272.583811 189.161326 
L 272.864896 187.135567 
L 272.998746 186.971897 
L 273.025516 186.988034 
L 273.159366 187.275861 
L 273.400295 188.489859 
L 273.828615 192.056099 
L 274.899415 203.569537 
L 275.515125 208.870013 
L 275.782825 209.792991 
L 275.87652 209.739349 
L 275.996985 209.277611 
L 276.184375 207.476553 
L 276.46546 202.148845 
L 277.107939 189.628949 
L 277.375639 187.9818 
L 277.509489 187.842877 
L 277.536259 187.859539 
L 277.670109 188.133519 
L 277.911039 189.275327 
L 278.325974 192.516465 
L 280.173104 208.412299 
L 280.266799 208.457764 
L 280.306954 208.413177 
L 280.427418 208.01337 
L 280.614808 206.467689 
L 280.895893 201.942556 
L 281.605298 190.000335 
L 281.872998 188.696615 
L 281.993463 188.628429 
L 282.020233 188.649575 
L 282.167468 188.970471 
L 282.421783 190.183728 
L 282.863488 193.562303 
L 284.483072 206.975922 
L 284.657077 207.232293 
L 284.683847 207.218483 
L 284.804312 206.948789 
L 284.978317 205.875143 
L 285.246017 202.516391 
L 286.129427 190.02946 
L 286.370357 189.329308 
L 286.490822 189.38067 
L 286.664827 189.82917 
L 286.959297 191.348438 
L 287.481311 195.429259 
L 288.712731 205.296333 
L 288.993816 206.090528 
L 289.114281 206.029736 
L 289.261516 205.534898 
L 289.475676 203.871664 
L 289.837071 198.857808 
L 290.412626 191.420164 
L 290.707096 190.050719 
L 290.854331 189.956486 
L 290.867715 189.96458 
L 291.01495 190.215074 
L 291.25588 191.159717 
L 291.670815 193.835521 
L 293.23686 204.874491 
L 293.42425 205.056541 
L 293.544715 204.856609 
L 293.732105 203.964338 
L 294.01319 201.256577 
L 294.950139 191.051159 
L 295.191069 190.516425 
L 295.324919 190.590697 
L 295.512309 191.056239 
L 295.833549 192.594598 
L 296.422489 196.761844 
L 297.359439 203.177972 
L 297.667294 204.078607 
L 297.801144 204.090638 
L 297.814529 204.076604 
L 297.961763 203.721558 
L 298.175923 202.504499 
L 298.523933 198.957281 
L 299.206568 192.081841 
L 299.487653 191.093961 
L 299.661658 191.046152 
L 299.822278 191.319855 
L 300.089978 192.310775 
L 300.545068 194.998312 
L 301.803257 202.795373 
L 302.057572 203.253491 
L 302.191422 203.165487 
L 302.365427 202.649461 
L 302.619742 201.040433 
L 303.128372 195.922937 
L 303.596847 192.298547 
L 303.877932 191.513042 
L 304.038552 191.509172 
L 304.212557 191.811692 
L 304.493642 192.833313 
L 304.988886 195.640366 
L 306.073071 201.877608 
L 306.354156 202.457327 
L 306.501391 202.41449 
L 306.662011 202.045768 
L 306.902941 200.830249 
L 307.317876 197.321017 
L 307.906816 192.811222 
L 308.201286 191.949073 
L 308.37529 191.904159 
L 308.549295 192.154989 
L 308.83038 193.060553 
L 309.31224 195.537715 
L 310.396425 201.23691 
L 310.67751 201.750555 
L 310.824745 201.705978 
L 310.99875 201.32994 
L 311.253065 200.133555 
L 311.72154 196.54991 
L 312.256939 193.050774 
L 312.551409 192.303498 
L 312.725414 192.275049 
L 312.912804 192.541358 
L 313.207274 193.457229 
L 313.715904 195.92749 
L 314.666239 200.520211 
L 314.974094 201.100326 
L 315.134714 201.072616 
L 315.308719 200.745542 
L 315.563033 199.702404 
L 316.018123 196.660309 
L 316.593678 193.290332 
L 316.888148 192.628273 
L 317.075538 192.614226 
L 317.262928 192.876744 
L 317.557398 193.737113 
L 318.079413 196.085457 
L 318.962822 199.965562 
L 319.270677 200.515006 
L 319.444682 200.49606 
L 319.632072 200.169527 
L 319.899772 199.153677 
L 320.408402 196.093246 
L 320.930417 193.486122 
L 321.224887 192.915782 
L 321.412277 192.915417 
L 321.613052 193.190061 
L 321.920907 194.051964 
L 322.496461 196.481959 
L 323.259406 199.478202 
L 323.580646 199.997269 
L 323.754651 199.973413 
L 323.942041 199.675774 
L 324.223126 198.711463 
L 324.771911 195.770359 
L 325.267156 193.651755 
L 325.561626 193.172736 
L 325.749016 193.190376 
L 325.963175 193.48127 
L 326.2978 194.390594 
L 326.96705 197.038253 
L 327.596145 199.139679 
L 327.904 199.537109 
L 328.09139 199.477257 
L 328.30555 199.101121 
L 328.613405 198.028322 
L 329.764514 193.512634 
L 329.992059 193.396623 
L 330.192834 193.553813 
L 330.473919 194.115016 
L 330.942394 195.636074 
L 331.906114 198.777532 
L 332.200584 199.11395 
L 332.387974 199.064185 
L 332.602134 198.734648 
L 332.923373 197.741293 
L 334.074483 193.723358 
L 334.315413 193.616263 
L 334.529573 193.784243 
L 334.824043 194.350204 
L 335.332673 195.901408 
L 336.175928 198.383062 
L 336.497167 198.734742 
L 336.697942 198.681165 
L 336.925487 198.346714 
L 337.260112 197.385963 
L 338.344297 193.954874 
L 338.598612 193.808392 
L 338.812772 193.932116 
L 339.107242 194.413949 
L 339.589102 195.71291 
L 340.485896 198.101097 
L 340.793751 198.39521 
L 341.007911 198.33716 
L 341.248841 197.999319 
L 341.610236 197.030675 
L 342.600726 194.180408 
L 342.881811 193.98531 
L 343.109356 194.085462 
L 343.403826 194.508515 
L 343.885685 195.673879 
L 344.78248 197.828597 
L 345.10372 198.094021 
L 345.331265 198.017824 
L 345.598965 197.638101 
L 346.000515 196.603127 
L 346.84377 194.403503 
L 347.151624 194.149285 
L 347.392554 194.216714 
L 347.687024 194.576826 
L 348.155499 195.578574 
L 349.092449 197.602731 
L 349.413689 197.823585 
L 349.654619 197.731002 
L 349.935704 197.340977 
L 350.390794 196.241185 
L 351.113583 194.567136 
L 351.434823 194.297257 
L 351.689138 194.347879 
L 351.983608 194.665329 
L 352.452083 195.563496 
L 353.389033 197.384444 
L 353.710273 197.580191 
L 353.964587 197.485237 
L 354.259057 197.101819 
L 354.754302 196.007251 
L 355.423552 194.658597 
L 355.758177 194.422088 
L 356.025877 194.492113 
L 356.347117 194.841225 
L 356.882517 195.824375 
L 357.658846 197.162307 
L 357.993471 197.361714 
L 358.261171 197.276209 
L 358.569026 196.912475 
L 359.091041 195.873315 
L 359.733521 194.741054 
L 360.068146 194.537474 
L 360.349231 194.614689 
L 360.697241 194.980572 
L 361.31295 196.036318 
L 361.968815 197.003937 
L 362.316825 197.169046 
L 362.59791 197.060776 
L 362.94592 196.644397 
L 364.33796 194.647204 
L 364.632429 194.701694 
L 364.980439 195.018529 
L 365.582764 195.939144 
L 366.265399 196.850197 
L 366.613409 196.995724 
L 366.907879 196.88776 
L 367.269274 196.487151 
L 368.594388 194.751069 
L 368.915628 194.782262 
L 369.277023 195.070943 
L 369.892733 195.916895 
L 370.561983 196.713037 
L 370.923378 196.840878 
L 371.244618 196.715198 
L 371.646167 196.278214 
L 372.797277 194.868134 
L 373.145287 194.839169 
L 373.506682 195.056225 
L 374.055467 195.700045 
L 374.858567 196.59065 
L 375.233346 196.702373 
L 375.567971 196.570945 
L 375.996291 196.132076 
L 377.053706 194.958617 
L 377.415101 194.907982 
L 377.789881 195.096593 
L 378.338666 195.668427 
L 379.168535 196.488969 
L 379.5567 196.577265 
L 379.918095 196.424634 
L 380.41334 195.928484 
L 381.283365 195.054374 
L 381.67153 194.970553 
L 382.059694 195.125882 
L 382.608479 195.628166 
L 383.478504 196.397166 
L 383.880054 196.464711 
L 384.268219 196.29431 
L 384.830389 195.758262 
L 385.579948 195.108196 
L 385.994883 195.03559 
L 386.409818 195.204716 
L 387.052298 195.7625 
L 387.788473 196.314357 
L 388.203408 196.363678 
L 388.618343 196.178967 
L 389.314362 195.558278 
L 389.930072 195.135428 
L 390.358392 195.101804 
L 390.813482 195.310073 
L 392.433067 196.285413 
L 392.861386 196.14364 
L 393.503866 195.648171 
L 394.213271 195.185469 
L 394.654976 195.150765 
L 395.136836 195.353541 
L 396.70288 196.209768 
L 397.15797 196.080802 
L 397.85399 195.598315 
L 398.55001 195.214779 
L 399.018485 195.207874 
L 399.540499 195.439341 
L 400.878999 196.138138 
L 401.347474 196.069251 
L 401.963184 195.72154 
L 402.846594 195.252464 
L 403.341838 195.252046 
L 403.917393 195.498956 
L 405.122043 196.072403 
L 405.630673 196.019538 
L 406.273153 195.696488 
L 407.169947 195.281141 
L 407.691962 195.298007 
L 408.321057 195.564066 
L 409.378472 196.014297 
L 409.913872 195.974912 
L 410.596506 195.66805 
L 411.493301 195.308062 
L 412.042086 195.339982 
L 412.764876 195.638065 
L 413.675055 195.967551 
L 414.237225 195.924662 
L 415.00017 195.60579 
L 415.83004 195.331775 
L 416.41898 195.385081 
L 417.329159 195.747357 
L 418.078719 195.933798 
L 418.681044 195.846304 
L 420.554943 195.373396 
L 421.304503 195.605544 
L 422.335148 195.893955 
L 422.977628 195.817015 
L 424.864912 195.397339 
L 425.694782 195.636346 
L 426.658502 195.861509 
L 427.341137 195.77363 
L 429.094571 195.408899 
L 429.924441 195.609635 
L 430.99524 195.832349 
L 431.731415 195.728636 
L 433.310845 195.421054 
L 434.140715 195.584291 
L 435.331979 195.8056 
L 436.121694 195.689352 
L 437.553889 195.435819 
L 438.410528 195.577712 
L 439.668718 195.781131 
L 440.525358 195.652505 
L 441.837087 195.45111 
L 442.747267 195.587576 
L 444.005457 195.758861 
L 444.955792 195.61581 
L 446.160441 195.466031 
L 447.164316 195.611764 
L 448.342196 195.738627 
L 449.39961 195.583643 
L 450.269635 195.477826 
L 450.269635 195.477826 
" style="fill:none;stroke:#1f77b4;stroke-linecap:square;stroke-width:1.5;"/>
   </g>
   <g id="line2d_14">
    <path clip-path="url(#p73e4685eeb)" d="M 47.38125 237.541278 
L 47.91665 192.138509 
L 48.572515 117.206538 
L 48.733135 120.331064 
L 51.102279 166.722366 
L 53.257263 204.691447 
L 54.917003 230.384847 
L 55.987803 243.934949 
L 56.683822 250.299448 
L 57.138912 252.763097 
L 57.419997 253.350898 
L 57.567232 253.308548 
L 57.727852 252.946411 
L 57.955397 251.791518 
L 58.249867 248.980686 
L 58.597877 243.302554 
L 58.999427 232.693046 
L 59.427747 215.075236 
L 59.896221 185.793598 
L 60.391466 139.690944 
L 60.619011 117.411298 
L 60.685936 118.313476 
L 64.192805 185.17778 
L 65.86593 212.351374 
L 66.963499 226.961363 
L 67.672904 233.820424 
L 68.141379 236.52841 
L 68.422464 237.180848 
L 68.569699 237.163231 
L 68.730319 236.819495 
L 68.957864 235.672099 
L 69.252334 232.828488 
L 69.600344 227.02126 
L 69.988509 216.51902 
L 70.416828 198.3856 
L 70.871918 168.919868 
L 71.447473 117.520745 
L 71.594708 120.072686 
L 74.137857 169.36366 
L 75.931447 199.929455 
L 77.122712 216.85748 
L 77.899041 225.096788 
L 78.407671 228.478971 
L 78.728911 229.430491 
L 78.889531 229.47256 
L 79.036766 229.215864 
L 79.250926 228.269796 
L 79.532011 225.821155 
L 79.866636 220.712189 
L 80.254801 210.951669 
L 80.669735 194.476865 
L 81.124825 166.649713 
L 81.70038 117.611128 
L 81.847615 120.044338 
L 84.471074 170.64669 
L 86.157584 198.94832 
L 87.255154 214.057336 
L 87.977943 221.303851 
L 88.446418 224.126883 
L 88.740888 224.841972 
L 88.888123 224.819693 
L 89.048743 224.461607 
L 89.276288 223.274459 
L 89.570758 220.337144 
L 89.918768 214.335401 
L 90.306933 203.45816 
L 90.735253 184.611672 
L 91.190342 153.918755 
L 91.632047 117.683969 
L 91.712357 118.93965 
L 95.165686 183.944977 
L 96.517571 204.770212 
L 97.387596 215.168485 
L 97.963151 219.770017 
L 98.33793 221.30282 
L 98.55209 221.499369 
L 98.68594 221.324306 
L 98.87333 220.640784 
L 99.127645 218.770249 
L 99.448885 214.53184 
L 99.823665 206.232581 
L 100.2386 191.482301 
L 100.680305 167.088036 
L 101.17555 126.162153 
L 101.3094 117.728972 
L 101.36294 118.370073 
L 102.406969 139.156419 
L 104.428104 176.603805 
L 105.860298 199.453773 
L 106.797248 211.235001 
L 107.412958 216.515315 
L 107.801123 218.304227 
L 108.028668 218.616952 
L 108.162518 218.497465 
L 108.336523 217.959656 
L 108.577453 216.398162 
L 108.885307 212.752038 
L 109.246702 205.507992 
L 109.648252 192.557881 
L 110.076572 171.123616 
L 110.558432 134.633098 
L 110.785977 117.795538 
L 110.839517 118.350355 
L 111.629232 134.06608 
L 113.677136 172.438322 
L 115.136101 196.016438 
L 116.086435 208.150283 
L 116.702145 213.551243 
L 117.103695 215.465939 
L 117.344625 215.800163 
L 117.478475 215.668729 
L 117.665865 215.048878 
L 117.92018 213.27093 
L 118.228035 209.382326 
L 118.58943 201.767361 
L 118.99098 188.270827 
L 119.432684 165.228488 
L 119.941314 125.399075 
L 120.075164 117.859049 
L 120.128704 118.484121 
L 120.958574 134.95286 
L 122.966323 172.365404 
L 124.358363 194.589062 
L 125.268543 205.938913 
L 125.857483 210.893139 
L 126.245647 212.598423 
L 126.459807 212.84055 
L 126.593657 212.691657 
L 126.781047 212.041724 
L 127.035362 210.211235 
L 127.356602 206.015752 
L 127.731382 197.762829 
L 128.146317 183.08684 
L 128.588022 158.909427 
L 129.150192 117.941072 
L 129.270657 119.676504 
L 132.442901 178.823603 
L 133.634165 196.53714 
L 134.39711 205.003785 
L 134.90574 208.553042 
L 135.22698 209.556836 
L 135.3876 209.606294 
L 135.534835 209.343975 
L 135.748995 208.366342 
L 136.03008 205.828988 
L 136.364705 200.534222 
L 136.752869 190.435409 
L 137.181189 172.787109 
L 137.649664 143.16977 
L 138.011059 118.030934 
L 138.077984 118.78015 
L 138.921239 135.388557 
L 140.835293 170.705289 
L 142.120253 190.706361 
L 142.950123 200.534957 
L 143.498908 204.728151 
L 143.846917 205.986585 
L 144.034307 206.085558 
L 144.181542 205.829475 
L 144.382317 204.941782 
L 144.650017 202.635944 
L 144.984642 197.561216 
L 145.359422 188.214543 
L 145.774357 171.972802 
L 146.229447 144.875388 
L 146.630997 118.140278 
L 146.697922 118.873002 
L 147.434096 133.284247 
L 149.334766 168.358216 
L 150.579571 187.628109 
L 151.38267 197.019508 
L 151.91807 201.012741 
L 152.252695 202.167475 
L 152.4267 202.24911 
L 152.56055 202.030938 
L 152.761325 201.186271 
L 153.029025 198.943154 
L 153.36365 193.960791 
L 153.73843 184.750743 
L 154.153365 168.742407 
L 154.621839 141.21638 
L 154.996619 118.27976 
L 155.036774 118.660464 
L 155.411554 125.755004 
L 157.459459 164.004047 
L 158.704263 183.435904 
L 159.507363 192.894351 
L 160.029378 196.832932 
L 160.364003 198.029685 
L 160.538008 198.132117 
L 160.551393 198.123363 
L 160.698628 197.857303 
L 160.912788 196.86229 
L 161.193873 194.280899 
L 161.528497 188.907279 
L 161.916662 178.70757 
L 162.344982 161.050862 
L 162.840227 130.399513 
L 163.067772 118.426747 
L 163.107927 118.653209 
L 163.348857 122.937419 
L 165.610921 164.749742 
L 166.735261 181.605968 
L 167.471436 189.698846 
L 167.953296 192.919018 
L 168.247765 193.749419 
L 168.395 193.764398 
L 168.542235 193.473186 
L 168.756395 192.433051 
L 169.03748 189.776356 
L 169.372105 184.289869 
L 169.76027 173.937471 
L 170.18859 156.143214 
L 170.85784 118.606111 
L 170.99169 120.200633 
L 174.378094 178.354271 
L 175.074114 185.720009 
L 175.529203 188.576362 
L 175.810288 189.271257 
L 175.957523 189.236112 
L 176.118143 188.838881 
L 176.345688 187.549178 
L 176.640158 184.395542 
L 176.988168 178.028477 
L 177.389718 166.197771 
L 177.844808 145.458975 
L 178.353438 118.804424 
L 178.420363 119.300243 
L 178.781757 125.810368 
L 180.695812 160.288438 
L 181.713072 174.894817 
L 182.382321 181.683108 
L 182.810641 184.170311 
L 183.078341 184.723467 
L 183.212191 184.650922 
L 183.372811 184.214085 
L 183.600356 182.857768 
L 183.894826 179.599897 
L 184.256221 172.771828 
L 184.657771 160.598001 
L 185.126246 138.907409 
L 185.554566 119.032732 
L 185.581336 119.147919 
L 185.728571 121.249167 
L 188.606345 169.652511 
L 189.288979 176.82175 
L 189.730684 179.533997 
L 190.011769 180.179904 
L 190.145619 180.128994 
L 190.306239 179.719726 
L 190.533784 178.406923 
L 190.828254 175.218085 
L 191.176264 168.822342 
L 191.577814 157.057257 
L 192.046289 136.260684 
L 192.447839 119.292906 
L 192.474609 119.355603 
L 192.595074 120.820207 
L 193.438328 136.124604 
L 194.803598 158.848912 
L 195.646853 169.571566 
L 196.195638 174.132193 
L 196.557032 175.603231 
L 196.744422 175.753377 
L 196.878272 175.561925 
L 197.065662 174.824686 
L 197.333362 172.687196 
L 197.654602 168.124934 
L 198.042767 159.052591 
L 198.484472 142.985734 
L 199.060027 119.583595 
L 199.113567 119.795452 
L 199.300957 122.445421 
L 201.763796 162.262827 
L 202.406276 168.676753 
L 202.821211 171.012086 
L 203.075526 171.505418 
L 203.209376 171.422682 
L 203.38338 170.914974 
L 203.62431 169.368457 
L 203.932165 165.725022 
L 204.29356 158.57274 
L 204.72188 145.252723 
L 205.404515 119.89924 
L 205.484825 120.323607 
L 205.73914 124.115044 
L 207.733504 156.214378 
L 208.429524 163.784202 
L 208.884614 166.72826 
L 209.165699 167.460417 
L 209.312934 167.441804 
L 209.473554 167.06266 
L 209.701099 165.805186 
L 209.995569 162.728631 
L 210.356963 156.288914 
L 210.785283 144.13195 
L 211.494688 120.244356 
L 211.561613 120.496107 
L 211.762388 123.085394 
L 214.077992 157.719073 
L 214.626777 162.207535 
L 214.974787 163.585282 
L 215.162177 163.729039 
L 215.296027 163.535467 
L 215.496802 162.727388 
L 215.764502 160.553705 
L 216.099127 155.772807 
L 216.500677 146.461186 
L 217.036077 128.033165 
L 217.343931 120.628524 
L 217.370701 120.620607 
L 217.397471 120.704349 
L 217.531321 121.976291 
L 218.053336 130.152872 
L 219.324911 149.285932 
L 220.020931 156.731012 
L 220.476021 159.584301 
L 220.757106 160.258977 
L 220.890955 160.228519 
L 221.051575 159.853712 
L 221.27912 158.618967 
L 221.57359 155.619685 
L 221.934985 149.416502 
L 222.37669 137.603937 
L 223.005785 121.006365 
L 223.059325 121.156432 
L 223.219945 122.737788 
L 223.84904 132.329274 
L 224.959994 148.043892 
L 225.602474 154.346135 
L 226.017409 156.62938 
L 226.271724 157.108296 
L 226.405574 157.027682 
L 226.579579 156.537914 
L 226.820509 155.058689 
L 227.128364 151.622239 
L 227.516529 144.446722 
L 228.038543 129.885114 
L 228.413323 121.547577 
L 228.466863 121.422866 
L 228.520403 121.572303 
L 228.681023 123.022829 
L 229.243193 131.119276 
L 230.354148 146.221119 
L 230.969858 151.898415 
L 231.371407 153.892431 
L 231.612337 154.241419 
L 231.746187 154.113221 
L 231.933577 153.501717 
L 232.187892 151.773611 
L 232.522517 147.706723 
L 232.937452 139.511024 
L 233.753937 121.855662 
L 233.767322 121.867446 
L 233.847632 122.199447 
L 234.061792 124.373422 
L 236.176621 149.657818 
L 236.564786 151.399001 
L 236.778946 151.653667 
L 236.912796 151.517446 
L 237.100186 150.903967 
L 237.354501 149.197655 
L 237.689126 145.229542 
L 238.117446 137.07341 
L 238.867005 122.317907 
L 238.90716 122.314107 
L 238.93393 122.371155 
L 239.06778 123.196957 
L 239.41579 127.265985 
L 240.80783 144.30549 
L 241.329845 148.099351 
L 241.66447 149.230313 
L 241.851859 149.313666 
L 241.999094 149.064288 
L 242.213254 148.156141 
L 242.507724 145.737607 
L 242.882504 140.503689 
L 243.431289 129.051754 
L 243.806069 123.018465 
L 243.899764 122.758772 
L 243.939919 122.811764 
L 244.060384 123.42277 
L 244.354854 126.435052 
L 245.934283 144.150922 
L 246.375988 146.645053 
L 246.657073 147.247429 
L 246.804308 147.200489 
L 246.964928 146.833308 
L 247.205858 145.606882 
L 247.527098 142.586195 
L 247.942033 136.237462 
L 248.745133 123.278548 
L 248.798673 123.221794 
L 248.852212 123.30682 
L 248.999447 124.105577 
L 249.347457 127.641125 
L 250.685957 141.970305 
L 251.154432 144.705305 
L 251.448902 145.390329 
L 251.596137 145.375678 
L 251.756757 145.058144 
L 251.984302 144.02373 
L 252.292157 141.439938 
L 252.693706 135.966592 
L 253.550346 123.720477 
L 253.603886 123.688126 
L 253.644041 123.743019 
L 253.777891 124.327982 
L 254.072361 126.903684 
L 255.611636 141.803553 
L 256.013185 143.502101 
L 256.24073 143.77474 
L 256.37458 143.667603 
L 256.56197 143.154793 
L 256.82967 141.630845 
L 257.17768 138.178641 
L 257.699695 130.373788 
L 258.16817 124.516478 
L 258.315405 124.147099 
L 258.342175 124.168658 
L 258.46264 124.547335 
L 258.716955 126.37804 
L 260.523929 141.649733 
L 260.818399 142.293848 
L 260.979019 142.274502 
L 261.153024 141.927622 
L 261.393954 140.846102 
L 261.715194 138.259865 
L 262.170284 132.546133 
L 262.799379 124.982671 
L 262.959998 124.601506 
L 262.986768 124.619768 
L 263.107233 124.948261 
L 263.348163 126.476529 
L 264.017413 132.734317 
L 264.753588 138.666016 
L 265.181908 140.60771 
L 265.449608 141.026544 
L 265.596843 140.954427 
L 265.784233 140.524578 
L 266.038548 139.298369 
L 266.386557 136.394033 
L 266.975497 129.151223 
L 267.390432 125.346747 
L 267.551052 125.047971 
L 267.564437 125.055546 
L 267.671517 125.274929 
L 267.885677 126.378469 
L 268.380922 130.484734 
L 269.277717 137.570862 
L 269.706037 139.455117 
L 269.973736 139.881382 
L 270.134356 139.814997 
L 270.321746 139.406232 
L 270.589446 138.170111 
L 270.950841 135.288017 
L 272.061796 125.478083 
L 272.155491 125.556326 
L 272.316111 126.09392 
L 272.637351 128.1523 
L 274.016005 137.864711 
L 274.364015 138.789708 
L 274.56479 138.861415 
L 274.72541 138.649347 
L 274.952955 137.91545 
L 275.274195 136.000079 
L 275.756055 131.518062 
L 276.35838 126.338343 
L 276.57254 125.893914 
L 276.67962 126.021153 
L 276.867009 126.695268 
L 277.241789 129.080268 
L 278.379514 136.654276 
L 278.754294 137.806549 
L 278.981839 137.982223 
L 279.142459 137.83925 
L 279.356619 137.284855 
L 279.664474 135.748556 
L 280.106179 132.225325 
L 280.815583 126.678136 
L 281.029743 126.292341 
L 281.150208 126.428665 
L 281.350983 127.11399 
L 281.739148 129.413359 
L 282.809948 135.963601 
L 283.184728 137.033842 
L 283.412273 137.190458 
L 283.572893 137.050915 
L 283.800438 136.481037 
L 284.108292 135.016651 
L 284.590152 131.434579 
L 285.219247 127.091345 
L 285.446792 126.671238 
L 285.567257 126.770272 
L 285.754647 127.297243 
L 286.116042 129.151259 
L 287.307307 135.683207 
L 287.655316 136.428785 
L 287.856091 136.4754 
L 288.043481 136.242558 
L 288.297796 135.487385 
L 288.659191 133.593073 
L 289.783531 127.064562 
L 289.930766 127.066588 
L 290.104771 127.409947 
L 290.399241 128.608865 
L 291.911745 135.651741 
L 292.16606 135.873579 
L 292.340065 135.769363 
L 292.56761 135.305448 
L 292.88885 134.033811 
L 293.410865 130.838553 
L 293.98642 127.747457 
L 294.22735 127.368252 
L 294.374584 127.468344 
L 294.588744 127.997107 
L 294.976909 129.705024 
L 296.047709 134.613992 
L 296.395719 135.266106 
L 296.609879 135.305365 
L 296.810654 135.071028 
L 297.078354 134.34749 
L 297.466519 132.559004 
L 298.430238 127.846606 
L 298.644398 127.689721 
L 298.805018 127.869672 
L 299.059333 128.577265 
L 299.567963 130.83232 
L 300.344293 134.034832 
L 300.705688 134.748141 
L 300.933233 134.831342 
L 301.134008 134.648548 
L 301.401707 134.028479 
L 301.789872 132.453656 
L 302.780362 128.128045 
L 302.994522 127.981895 
L 303.168527 128.156197 
L 303.436227 128.842299 
L 303.971627 131.016109 
L 304.694417 133.69585 
L 305.055811 134.334716 
L 305.283356 134.397976 
L 305.484131 134.218128 
L 305.751831 133.636215 
L 306.153381 132.133728 
L 307.090331 128.43576 
L 307.317876 128.251125 
L 307.491881 128.379071 
L 307.746196 128.920619 
L 308.214671 130.577386 
L 309.04454 133.418541 
L 309.405935 133.974245 
L 309.63348 134.009935 
L 309.84764 133.805679 
L 310.14211 133.157904 
L 310.5972 131.499205 
L 311.360145 128.776867 
L 311.627845 128.503711 
L 311.815235 128.603058 
L 312.069549 129.069021 
L 312.511254 130.449723 
L 313.394664 133.186843 
L 313.742674 133.648741 
L 313.983604 133.660903 
L 314.211149 133.427668 
L 314.519004 132.752717 
L 315.041019 130.948802 
L 315.656728 129.031112 
L 315.937813 128.738473 
L 316.138588 128.819813 
L 316.392903 129.228765 
L 316.834608 130.462863 
L 317.731403 132.964944 
L 318.079413 133.361642 
L 318.320343 133.353146 
L 318.574658 133.081473 
L 318.922667 132.309744 
L 320.234397 128.957312 
L 320.448557 129.013823 
L 320.702872 129.364725 
L 321.131192 130.421467 
L 322.068142 132.773899 
L 322.416151 133.106483 
L 322.670466 133.068428 
L 322.938166 132.765135 
L 323.312946 131.944531 
L 324.450671 129.202064 
L 324.691601 129.160853 
L 324.932531 129.379507 
L 325.293926 130.078953 
L 326.53873 132.756906 
L 326.8332 132.883639 
L 327.087515 132.754032 
L 327.39537 132.312336 
L 327.890615 131.129094 
L 328.60002 129.534371 
L 328.89449 129.323883 
L 329.13542 129.416439 
L 329.429889 129.810637 
L 329.978674 131.009486 
L 330.674694 132.376723 
L 331.036089 132.663284 
L 331.303789 132.620153 
L 331.598259 132.31925 
L 332.013194 131.527042 
L 332.976913 129.601963 
L 333.257998 129.486547 
L 333.512313 129.626655 
L 333.860323 130.124581 
L 335.265748 132.452516 
L 335.560218 132.459796 
L 335.854688 132.225021 
L 336.256238 131.576009 
L 337.327037 129.703673 
L 337.608122 129.641095 
L 337.889207 129.825509 
L 338.290757 130.412899 
L 339.415097 132.200958 
L 339.749722 132.319804 
L 340.044191 132.189615 
L 340.405586 131.754577 
L 341.797626 129.769162 
L 342.078711 129.846223 
L 342.426721 130.210646 
L 343.269976 131.572874 
L 343.76522 132.096543 
L 344.099845 132.166046 
L 344.421085 131.992348 
L 344.83602 131.470819 
L 345.946975 129.937113 
L 346.25483 129.90357 
L 346.57607 130.112346 
L 347.057929 130.744673 
L 347.941339 131.893401 
L 348.316119 132.041231 
L 348.637359 131.93846 
L 349.025524 131.556929 
L 350.377409 130.002545 
L 350.698648 130.068647 
L 351.086813 130.413086 
L 352.505623 131.911861 
L 352.853633 131.873107 
L 353.241798 131.578681 
L 353.951202 130.670801 
L 354.486602 130.16352 
L 354.834612 130.10442 
L 355.182622 130.278031 
L 355.704637 130.834687 
L 356.561277 131.714697 
L 356.962827 131.818221 
L 357.337607 131.67359 
L 357.819466 131.210259 
L 358.783186 130.246556 
L 359.157966 130.197094 
L 359.532746 130.38474 
L 360.135071 130.990182 
L 360.871246 131.639241 
L 361.28618 131.72318 
L 361.674345 131.570235 
L 362.209745 131.081457 
L 363.053 130.332647 
L 363.45455 130.27587 
L 363.8561 130.4607 
L 364.525349 131.075073 
L 365.194599 131.577263 
L 365.622919 131.635767 
L 366.037854 131.461398 
L 366.680334 130.898043 
L 367.362969 130.392886 
L 367.777904 130.351561 
L 368.206223 130.546237 
L 369.879348 131.567499 
L 370.321053 131.414063 
L 370.976918 130.902485 
L 371.672937 130.447719 
L 372.101257 130.419977 
L 372.569732 130.630545 
L 374.082237 131.504968 
L 374.537327 131.403336 
L 375.153036 130.999364 
L 375.982906 130.497608 
L 376.437996 130.484567 
L 376.946626 130.713036 
L 378.298511 131.441866 
L 378.78037 131.375497 
L 379.382695 131.039303 
L 380.30626 130.539882 
L 380.78812 130.546413 
L 381.35029 130.800901 
L 382.514784 131.380569 
L 383.023414 131.34662 
L 383.639124 131.053688 
L 384.629614 130.579141 
L 385.138244 130.602934 
L 385.767338 130.883841 
L 386.784598 131.331719 
L 387.319998 131.304754 
L 387.975863 131.02065 
L 388.939583 130.617341 
L 389.474982 130.650671 
L 390.184387 130.95298 
L 391.094567 131.29402 
L 391.656737 131.257743 
L 392.392912 130.95421 
L 393.262936 130.650418 
L 393.838491 130.700451 
L 394.695131 131.049746 
L 395.471461 131.265998 
L 396.073785 131.19421 
L 398.081535 130.715918 
L 398.911405 131.00876 
L 399.768044 131.233474 
L 400.397139 131.16162 
L 402.351349 130.737106 
L 403.221373 131.008613 
L 404.104783 131.206145 
L 404.787418 131.115367 
L 406.527467 130.744942 
L 407.330567 130.943097 
L 408.414752 131.180357 
L 409.137542 131.084833 
L 410.783896 130.764604 
L 411.613766 130.941356 
L 412.751491 131.15743 
L 413.52782 131.048448 
L 415.02694 130.782455 
L 415.88358 130.936824 
L 417.088229 131.136279 
L 417.931484 131.013847 
L 419.296754 130.800579 
L 420.206934 130.945906 
L 421.424968 131.116858 
L 422.348533 130.981689 
L 423.593338 130.817845 
L 424.570442 130.961775 
L 425.775092 131.098596 
L 426.819122 130.944917 
L 427.956846 130.835879 
L 429.094571 131.003268 
L 430.178756 131.078728 
L 431.544025 130.880541 
L 432.534515 130.870483 
L 434.957199 131.017287 
L 436.777559 130.875653 
L 439.414403 130.990198 
L 441.020603 130.881227 
L 443.884992 130.965365 
L 445.343956 130.891639 
L 448.181576 130.964832 
L 449.707465 130.903407 
L 450.269635 130.95442 
L 450.269635 130.95442 
" style="fill:none;stroke:#ff7f0e;stroke-linecap:square;stroke-width:1.5;"/>
   </g>
   <g id="patch_3">
    <path d="M 47.38125 275.64375 
L 47.38125 25.918125 
" style="fill:none;stroke:#000000;stroke-linecap:square;stroke-linejoin:miter;stroke-width:0.8;"/>
   </g>
   <g id="patch_4">
    <path d="M 450.25625 275.64375 
L 450.25625 25.918125 
" style="fill:none;stroke:#000000;stroke-linecap:square;stroke-linejoin:miter;stroke-width:0.8;"/>
   </g>
   <g id="patch_5">
    <path d="M 47.38125 275.64375 
L 450.25625 275.64375 
" style="fill:none;stroke:#000000;stroke-linecap:square;stroke-linejoin:miter;stroke-width:0.8;"/>
   </g>
   <g id="patch_6">
    <path d="M 47.38125 25.918125 
L 450.25625 25.918125 
" style="fill:none;stroke:#000000;stroke-linecap:square;stroke-linejoin:miter;stroke-width:0.8;"/>
   </g>
   <g id="text_15">
    <!-- $\omega_0=0.75, \lambda_0=0.75, d_0=0.1$ -->
    <defs>
     <path d="M 21.390625 -1.421875 
Q 1.125 -1.421875 6.78125 27.59375 
Q 8.984375 39.0625 19.625 54.6875 
L 29.296875 54.6875 
Q 19.234375 39.0625 17 27.34375 
Q 12.796875 6.203125 23.734375 6.203125 
Q 33.84375 6.203125 38.71875 32.46875 
L 47.015625 32.46875 
Q 41.703125 6.0625 51.8125 6.203125 
Q 62.703125 6.296875 66.796875 27.34375 
Q 69.046875 39.0625 65.140625 54.6875 
L 74.8125 54.6875 
Q 79.296875 39.0625 77.09375 27.59375 
Q 71.53125 -1.46875 51.21875 -1.421875 
Q 37.9375 -1.375 39.109375 13.1875 
Q 34.28125 -1.421875 21.390625 -1.421875 
z
" id="DejaVuSans-Oblique-969"/>
     <path d="M 10.59375 45.40625 
L 73.1875 45.40625 
L 73.1875 37.203125 
L 10.59375 37.203125 
z
M 10.59375 25.484375 
L 73.1875 25.484375 
L 73.1875 17.1875 
L 10.59375 17.1875 
z
" id="DejaVuSans-61"/>
     <path d="M 11.71875 12.40625 
L 22.015625 12.40625 
L 22.015625 4 
L 14.015625 -11.625 
L 7.71875 -11.625 
L 11.71875 4 
z
" id="DejaVuSans-44"/>
     <path d="M 36.71875 67.4375 
L 48.828125 0 
L 39.3125 0 
L 31.84375 40.4375 
L 5.125 0 
L -4.390625 0 
L 29.734375 52.4375 
L 28.03125 62.109375 
Q 26.953125 68.265625 21.734375 68.265625 
L 17.046875 68.265625 
L 18.5 75.984375 
L 24.21875 75.875 
Q 35.203125 75.734375 36.71875 67.4375 
z
" id="DejaVuSans-Oblique-955"/>
     <path d="M 41.796875 8.203125 
Q 38.1875 3.46875 33.25 1.015625 
Q 28.328125 -1.421875 22.3125 -1.421875 
Q 14.109375 -1.421875 9.34375 4.171875 
Q 4.59375 9.765625 4.59375 19.484375 
Q 4.59375 27.59375 7.46875 34.9375 
Q 10.359375 42.28125 15.828125 48.09375 
Q 19.4375 51.953125 23.96875 53.96875 
Q 28.515625 56 33.5 56 
Q 38.765625 56 42.796875 53.453125 
Q 46.828125 50.921875 49.03125 46.1875 
L 54.890625 75.984375 
L 63.921875 75.984375 
L 49.125 0 
L 40.09375 0 
z
M 13.921875 21.09375 
Q 13.921875 14.015625 17.109375 10.0625 
Q 20.3125 6.109375 25.984375 6.109375 
Q 30.171875 6.109375 33.765625 8.125 
Q 37.359375 10.15625 40.09375 14.109375 
Q 42.96875 18.21875 44.625 23.578125 
Q 46.296875 28.953125 46.296875 34.1875 
Q 46.296875 40.96875 43.09375 44.765625 
Q 39.890625 48.578125 34.28125 48.578125 
Q 30.03125 48.578125 26.359375 46.578125 
Q 22.703125 44.578125 20.125 40.828125 
Q 17.28125 36.765625 15.59375 31.390625 
Q 13.921875 26.03125 13.921875 21.09375 
z
" id="DejaVuSans-Oblique-100"/>
    </defs>
    <g transform="translate(164.33875 19.918125)scale(0.12 -0.12)">
     <use transform="translate(0 0.015625)" xlink:href="#DejaVuSans-Oblique-969"/>
     <use transform="translate(83.740234 -16.390625)scale(0.7)" xlink:href="#DejaVuSans-48"/>
     <use transform="translate(150.493164 0.015625)" xlink:href="#DejaVuSans-61"/>
     <use transform="translate(253.764648 0.015625)" xlink:href="#DejaVuSans-48"/>
     <use transform="translate(317.387695 0.015625)" xlink:href="#DejaVuSans-46"/>
     <use transform="translate(341.424805 0.015625)" xlink:href="#DejaVuSans-55"/>
     <use transform="translate(405.047852 0.015625)" xlink:href="#DejaVuSans-53"/>
     <use transform="translate(468.670898 0.015625)" xlink:href="#DejaVuSans-44"/>
     <use transform="translate(519.94043 0.015625)" xlink:href="#DejaVuSans-Oblique-955"/>
     <use transform="translate(579.120117 -16.390625)scale(0.7)" xlink:href="#DejaVuSans-48"/>
     <use transform="translate(645.873047 0.015625)" xlink:href="#DejaVuSans-61"/>
     <use transform="translate(749.144531 0.015625)" xlink:href="#DejaVuSans-48"/>
     <use transform="translate(812.767578 0.015625)" xlink:href="#DejaVuSans-46"/>
     <use transform="translate(836.804688 0.015625)" xlink:href="#DejaVuSans-55"/>
     <use transform="translate(900.427734 0.015625)" xlink:href="#DejaVuSans-53"/>
     <use transform="translate(964.050781 0.015625)" xlink:href="#DejaVuSans-44"/>
     <use transform="translate(1015.320312 0.015625)" xlink:href="#DejaVuSans-Oblique-100"/>
     <use transform="translate(1078.796875 -16.390625)scale(0.7)" xlink:href="#DejaVuSans-48"/>
     <use transform="translate(1145.549805 0.015625)" xlink:href="#DejaVuSans-61"/>
     <use transform="translate(1248.821289 0.015625)" xlink:href="#DejaVuSans-48"/>
     <use transform="translate(1312.444336 0.015625)" xlink:href="#DejaVuSans-46"/>
     <use transform="translate(1344.231445 0.015625)" xlink:href="#DejaVuSans-49"/>
    </g>
   </g>
   <g id="legend_1">
    <g id="patch_7">
     <path d="M 402.85625 77.9525 
L 443.25625 77.9525 
Q 445.25625 77.9525 445.25625 75.9525 
L 445.25625 32.918125 
Q 445.25625 30.918125 443.25625 30.918125 
L 402.85625 30.918125 
Q 400.85625 30.918125 400.85625 32.918125 
L 400.85625 75.9525 
Q 400.85625 77.9525 402.85625 77.9525 
z
" style="fill:#ffffff;opacity:0.8;stroke:#cccccc;stroke-linejoin:miter;"/>
    </g>
    <g id="line2d_15">
     <path d="M 404.85625 39.016562 
L 424.85625 39.016562 
" style="fill:none;stroke:#1f77b4;stroke-linecap:square;stroke-width:1.5;"/>
    </g>
    <g id="line2d_16"/>
    <g id="text_16">
     <!-- $\omega$ -->
     <g transform="translate(432.85625 42.516562)scale(0.1 -0.1)">
      <use transform="translate(0 0.3125)" xlink:href="#DejaVuSans-Oblique-969"/>
     </g>
    </g>
    <g id="line2d_17">
     <path d="M 404.85625 53.694687 
L 424.85625 53.694687 
" style="fill:none;stroke:#ff7f0e;stroke-linecap:square;stroke-width:1.5;"/>
    </g>
    <g id="line2d_18"/>
    <g id="text_17">
     <!-- $\lambda$ -->
     <g transform="translate(432.85625 57.194687)scale(0.1 -0.1)">
      <use transform="translate(0 0.015625)" xlink:href="#DejaVuSans-Oblique-955"/>
     </g>
    </g>
    <g id="line2d_19">
     <path d="M 404.85625 68.372812 
L 424.85625 68.372812 
" style="fill:none;stroke:#2ca02c;stroke-linecap:square;stroke-width:1.5;"/>
    </g>
    <g id="line2d_20"/>
    <g id="text_18">
     <!-- $d$ -->
     <g transform="translate(432.85625 71.872812)scale(0.1 -0.1)">
      <use transform="translate(0 0.015625)" xlink:href="#DejaVuSans-Oblique-100"/>
     </g>
    </g>
   </g>
  </g>
  <g id="axes_2">
   <g id="matplotlib.axis_3">
    <g id="ytick_6">
     <g id="line2d_21">
      <defs>
       <path d="M 0 0 
L 3.5 0 
" id="m5375df86a1" style="stroke:#000000;stroke-width:0.8;"/>
      </defs>
      <g>
       <use style="stroke:#000000;stroke-width:0.8;" x="450.25625" xlink:href="#m5375df86a1" y="272.634698"/>
      </g>
     </g>
     <g id="text_19">
      <!-- 0.00 -->
      <g style="fill:#2ca02c;" transform="translate(457.25625 276.433917)scale(0.1 -0.1)">
       <use xlink:href="#DejaVuSans-48"/>
       <use x="63.623047" xlink:href="#DejaVuSans-46"/>
       <use x="95.410156" xlink:href="#DejaVuSans-48"/>
       <use x="159.033203" xlink:href="#DejaVuSans-48"/>
      </g>
     </g>
    </g>
    <g id="ytick_7">
     <g id="line2d_22">
      <g>
       <use style="stroke:#000000;stroke-width:0.8;" x="450.25625" xlink:href="#m5375df86a1" y="243.255369"/>
      </g>
     </g>
     <g id="text_20">
      <!-- 0.25 -->
      <g style="fill:#2ca02c;" transform="translate(457.25625 247.054587)scale(0.1 -0.1)">
       <use xlink:href="#DejaVuSans-48"/>
       <use x="63.623047" xlink:href="#DejaVuSans-46"/>
       <use x="95.410156" xlink:href="#DejaVuSans-50"/>
       <use x="159.033203" xlink:href="#DejaVuSans-53"/>
      </g>
     </g>
    </g>
    <g id="ytick_8">
     <g id="line2d_23">
      <g>
       <use style="stroke:#000000;stroke-width:0.8;" x="450.25625" xlink:href="#m5375df86a1" y="213.876039"/>
      </g>
     </g>
     <g id="text_21">
      <!-- 0.50 -->
      <g style="fill:#2ca02c;" transform="translate(457.25625 217.675258)scale(0.1 -0.1)">
       <use xlink:href="#DejaVuSans-48"/>
       <use x="63.623047" xlink:href="#DejaVuSans-46"/>
       <use x="95.410156" xlink:href="#DejaVuSans-53"/>
       <use x="159.033203" xlink:href="#DejaVuSans-48"/>
      </g>
     </g>
    </g>
    <g id="ytick_9">
     <g id="line2d_24">
      <g>
       <use style="stroke:#000000;stroke-width:0.8;" x="450.25625" xlink:href="#m5375df86a1" y="184.49671"/>
      </g>
     </g>
     <g id="text_22">
      <!-- 0.75 -->
      <g style="fill:#2ca02c;" transform="translate(457.25625 188.295928)scale(0.1 -0.1)">
       <use xlink:href="#DejaVuSans-48"/>
       <use x="63.623047" xlink:href="#DejaVuSans-46"/>
       <use x="95.410156" xlink:href="#DejaVuSans-55"/>
       <use x="159.033203" xlink:href="#DejaVuSans-53"/>
      </g>
     </g>
    </g>
    <g id="ytick_10">
     <g id="line2d_25">
      <g>
       <use style="stroke:#000000;stroke-width:0.8;" x="450.25625" xlink:href="#m5375df86a1" y="155.11738"/>
      </g>
     </g>
     <g id="text_23">
      <!-- 1.00 -->
      <g style="fill:#2ca02c;" transform="translate(457.25625 158.916599)scale(0.1 -0.1)">
       <use xlink:href="#DejaVuSans-49"/>
       <use x="63.623047" xlink:href="#DejaVuSans-46"/>
       <use x="95.410156" xlink:href="#DejaVuSans-48"/>
       <use x="159.033203" xlink:href="#DejaVuSans-48"/>
      </g>
     </g>
    </g>
    <g id="ytick_11">
     <g id="line2d_26">
      <g>
       <use style="stroke:#000000;stroke-width:0.8;" x="450.25625" xlink:href="#m5375df86a1" y="125.738051"/>
      </g>
     </g>
     <g id="text_24">
      <!-- 1.25 -->
      <g style="fill:#2ca02c;" transform="translate(457.25625 129.537269)scale(0.1 -0.1)">
       <use xlink:href="#DejaVuSans-49"/>
       <use x="63.623047" xlink:href="#DejaVuSans-46"/>
       <use x="95.410156" xlink:href="#DejaVuSans-50"/>
       <use x="159.033203" xlink:href="#DejaVuSans-53"/>
      </g>
     </g>
    </g>
    <g id="ytick_12">
     <g id="line2d_27">
      <g>
       <use style="stroke:#000000;stroke-width:0.8;" x="450.25625" xlink:href="#m5375df86a1" y="96.358721"/>
      </g>
     </g>
     <g id="text_25">
      <!-- 1.50 -->
      <g style="fill:#2ca02c;" transform="translate(457.25625 100.15794)scale(0.1 -0.1)">
       <use xlink:href="#DejaVuSans-49"/>
       <use x="63.623047" xlink:href="#DejaVuSans-46"/>
       <use x="95.410156" xlink:href="#DejaVuSans-53"/>
       <use x="159.033203" xlink:href="#DejaVuSans-48"/>
      </g>
     </g>
    </g>
    <g id="ytick_13">
     <g id="line2d_28">
      <g>
       <use style="stroke:#000000;stroke-width:0.8;" x="450.25625" xlink:href="#m5375df86a1" y="66.979392"/>
      </g>
     </g>
     <g id="text_26">
      <!-- 1.75 -->
      <g style="fill:#2ca02c;" transform="translate(457.25625 70.77861)scale(0.1 -0.1)">
       <use xlink:href="#DejaVuSans-49"/>
       <use x="63.623047" xlink:href="#DejaVuSans-46"/>
       <use x="95.410156" xlink:href="#DejaVuSans-55"/>
       <use x="159.033203" xlink:href="#DejaVuSans-53"/>
      </g>
     </g>
    </g>
    <g id="ytick_14">
     <g id="line2d_29">
      <g>
       <use style="stroke:#000000;stroke-width:0.8;" x="450.25625" xlink:href="#m5375df86a1" y="37.600062"/>
      </g>
     </g>
     <g id="text_27">
      <!-- 2.00 -->
      <g style="fill:#2ca02c;" transform="translate(457.25625 41.399281)scale(0.1 -0.1)">
       <use xlink:href="#DejaVuSans-50"/>
       <use x="63.623047" xlink:href="#DejaVuSans-46"/>
       <use x="95.410156" xlink:href="#DejaVuSans-48"/>
       <use x="159.033203" xlink:href="#DejaVuSans-48"/>
      </g>
     </g>
    </g>
    <g id="text_28">
     <!-- Ratio -->
     <defs>
      <path d="M 30.609375 48.390625 
Q 23.390625 48.390625 19.1875 42.75 
Q 14.984375 37.109375 14.984375 27.296875 
Q 14.984375 17.484375 19.15625 11.84375 
Q 23.34375 6.203125 30.609375 6.203125 
Q 37.796875 6.203125 41.984375 11.859375 
Q 46.1875 17.53125 46.1875 27.296875 
Q 46.1875 37.015625 41.984375 42.703125 
Q 37.796875 48.390625 30.609375 48.390625 
z
M 30.609375 56 
Q 42.328125 56 49.015625 48.375 
Q 55.71875 40.765625 55.71875 27.296875 
Q 55.71875 13.875 49.015625 6.21875 
Q 42.328125 -1.421875 30.609375 -1.421875 
Q 18.84375 -1.421875 12.171875 6.21875 
Q 5.515625 13.875 5.515625 27.296875 
Q 5.515625 40.765625 12.171875 48.375 
Q 18.84375 56 30.609375 56 
z
" id="DejaVuSans-111"/>
     </defs>
     <g style="fill:#2ca02c;" transform="translate(491.120312 163.615312)rotate(-90)scale(0.1 -0.1)">
      <use xlink:href="#DejaVuSans-82"/>
      <use x="67.232422" xlink:href="#DejaVuSans-97"/>
      <use x="128.511719" xlink:href="#DejaVuSans-116"/>
      <use x="167.720703" xlink:href="#DejaVuSans-105"/>
      <use x="195.503906" xlink:href="#DejaVuSans-111"/>
     </g>
    </g>
   </g>
   <g id="line2d_30">
    <path clip-path="url(#p73e4685eeb)" d="M 47.38125 260.882966 
L 48.34497 198.722749 
L 48.55913 186.420909 
L 48.626055 186.579027 
L 48.706365 186.092238 
L 48.974065 182.502763 
L 50.981814 152.823275 
L 51.798299 144.634303 
L 52.494319 139.713646 
L 53.069873 137.07116 
L 53.524963 135.878835 
L 53.872973 135.487358 
L 54.140673 135.483649 
L 54.408373 135.729597 
L 54.756383 136.40515 
L 55.211473 137.847619 
L 55.827183 140.643794 
L 57.834932 150.498182 
L 58.075862 150.725595 
L 58.236482 150.608149 
L 58.437257 150.103619 
L 58.704957 148.711442 
L 59.039582 145.613829 
L 59.441132 139.587946 
L 59.922991 128.702308 
L 60.793016 108.265909 
L 61.074101 105.441594 
L 62.747226 87.193882 
L 63.470015 82.005016 
L 64.058955 79.203319 
L 64.540815 77.865612 
L 64.90221 77.417983 
L 65.16991 77.386974 
L 65.43761 77.60535 
L 65.772235 78.217313 
L 66.200555 79.520141 
L 66.762724 82.021811 
L 67.552439 86.674806 
L 68.944479 94.915963 
L 69.346029 96.085086 
L 69.573574 96.235911 
L 69.734194 96.064567 
L 69.948354 95.423778 
L 70.229438 93.768799 
L 70.590833 90.098862 
L 71.032538 83.068202 
L 71.420703 75.73831 
L 71.501013 76.084993 
L 71.527783 76.112726 
L 71.567938 76.041369 
L 71.715173 75.158334 
L 72.223803 70.19602 
L 73.267833 60.60531 
L 73.977237 56.032196 
L 74.552792 53.639702 
L 74.994497 52.615091 
L 75.329122 52.304057 
L 75.583437 52.331546 
L 75.851137 52.601586 
L 76.199147 53.311433 
L 76.640852 54.766962 
L 77.216406 57.501805 
L 78.019506 62.528497 
L 79.505241 71.94448 
L 79.906791 73.212536 
L 80.147721 73.411298 
L 80.308341 73.254557 
L 80.522501 72.63406 
L 80.803585 71.019587 
L 81.16498 67.472766 
L 81.67361 60.575432 
L 81.794075 61.029862 
L 81.861 60.872756 
L 82.061775 59.570073 
L 84.02937 44.523038 
L 84.591539 42.356962 
L 85.019859 41.460816 
L 85.341099 41.215086 
L 85.595414 41.27631 
L 85.876499 41.601997 
L 86.237894 42.407464 
L 86.706369 44.065896 
L 87.308694 47.111586 
L 88.165333 52.756821 
L 89.530603 61.740701 
L 89.958923 63.251617 
L 90.213238 63.531406 
L 90.373858 63.413202 
L 90.574633 62.899877 
L 90.842333 61.514534 
L 91.190342 58.419989 
L 91.591892 53.864871 
L 91.672202 54.28484 
L 91.725742 54.374206 
L 91.779282 54.27255 
L 91.953287 53.323911 
L 92.676077 47.467374 
L 93.492562 41.854255 
L 94.108272 39.032369 
L 94.590132 37.744137 
L 94.951526 37.313919 
L 95.219226 37.289215 
L 95.486926 37.511011 
L 95.821551 38.127058 
L 96.249871 39.443216 
L 96.798656 41.928503 
L 97.521446 46.335647 
L 99.529195 59.248937 
L 99.86382 60.011625 
L 100.05121 60.043834 
L 100.225215 59.77605 
L 100.466145 58.877288 
L 100.787385 56.636812 
L 101.269245 51.757474 
L 101.376325 52.268427 
L 101.41648 52.307674 
L 101.47002 52.216119 
L 101.644025 51.350963 
L 102.366814 45.984877 
L 103.143144 41.153313 
L 103.732084 38.760954 
L 104.187174 37.73014 
L 104.521799 37.43227 
L 104.776114 37.464879 
L 105.057199 37.757332 
L 105.405208 38.483491 
L 105.860298 40.013912 
L 106.435853 42.808173 
L 107.225568 47.873157 
L 108.885307 58.823875 
L 109.286857 60.063531 
L 109.514402 60.229994 
L 109.675022 60.06458 
L 109.889182 59.434663 
L 110.183652 57.730368 
L 110.585202 53.856831 
L 110.745822 52.419314 
L 110.799362 52.646971 
L 110.906442 53.004854 
L 110.946597 52.951988 
L 111.107217 52.28337 
L 111.669387 48.50567 
L 112.499256 43.568915 
L 113.074811 41.361187 
L 113.516516 40.427711 
L 113.837756 40.170921 
L 114.092071 40.218576 
L 114.373156 40.525755 
L 114.734551 41.30388 
L 115.189641 42.868865 
L 115.77858 45.771059 
L 116.595065 51.056019 
L 118.120955 61.098788 
L 118.53589 62.475473 
L 118.77682 62.701963 
L 118.93744 62.566125 
L 119.138215 62.032244 
L 119.419299 60.53758 
L 119.794079 57.150629 
L 120.035009 54.924876 
L 120.075164 55.099825 
L 120.195629 55.553379 
L 120.235784 55.515354 
L 120.383019 54.999766 
L 120.864879 52.129241 
L 121.708134 47.54448 
L 122.256919 45.66259 
L 122.671854 44.905728 
L 122.979708 44.722483 
L 123.234023 44.813406 
L 123.528493 45.188823 
L 123.903273 46.074869 
L 124.385133 47.850684 
L 125.000843 51.04603 
L 125.911023 57.113683 
L 127.115672 64.91716 
L 127.557377 66.504341 
L 127.811692 66.804322 
L 127.972312 66.704967 
L 128.173087 66.223133 
L 128.440787 64.897752 
L 128.802182 61.803407 
L 129.110037 58.809871 
L 129.163577 59.046009 
L 129.284042 59.479487 
L 129.324197 59.453544 
L 129.458047 59.070853 
L 129.872981 56.942424 
L 130.729621 52.819838 
L 131.251636 51.302443 
L 131.639801 50.752042 
L 131.920886 50.668289 
L 132.175201 50.819858 
L 132.483056 51.288208 
L 132.884606 52.353831 
L 133.393235 54.396008 
L 134.062485 58.095356 
L 135.320675 66.660795 
L 136.05685 70.823537 
L 136.4584 72.020894 
L 136.685945 72.174697 
L 136.846564 72.004797 
L 137.060724 71.373579 
L 137.355194 69.672545 
L 137.743359 65.933043 
L 137.970904 63.812538 
L 138.011059 63.967669 
L 138.171679 64.53391 
L 138.198449 64.516012 
L 138.332299 64.198982 
L 138.733849 62.452325 
L 139.536949 59.204048 
L 140.018809 58.087043 
L 140.366818 57.742266 
L 140.634518 57.747441 
L 140.915603 58.005535 
L 141.263613 58.677612 
L 141.705318 60.06994 
L 142.280873 62.709132 
L 143.070588 67.515813 
L 144.636632 77.259 
L 145.038182 78.44542 
L 145.265727 78.599954 
L 145.426347 78.433252 
L 145.640507 77.808974 
L 145.921592 76.218197 
L 146.309757 72.527357 
L 146.590842 69.784503 
L 146.630997 69.944983 
L 146.818387 70.571184 
L 146.831772 70.565047 
L 146.965622 70.328465 
L 147.353786 68.969903 
L 148.089961 66.591661 
L 148.531666 65.837247 
L 148.852906 65.669343 
L 149.120606 65.781558 
L 149.428461 66.193658 
L 149.816626 67.135491 
L 150.311871 68.982889 
L 150.95435 72.317265 
L 152.038535 79.364985 
L 152.895175 84.329016 
L 153.323495 85.69871 
L 153.564425 85.912378 
L 153.725045 85.777179 
L 153.92582 85.252298 
L 154.206905 83.777806 
L 154.568299 80.527373 
L 154.943079 76.612013 
L 154.996619 76.812786 
L 155.197394 77.488125 
L 155.317859 77.379887 
L 155.612329 76.660812 
L 156.388659 74.780344 
L 156.776824 74.374316 
L 157.057909 74.361781 
L 157.338994 74.593801 
L 157.687004 75.219833 
L 158.128708 76.538203 
L 158.690878 78.99369 
L 159.467208 83.506179 
L 161.019868 92.73123 
L 161.408032 93.810156 
L 161.635577 93.943849 
L 161.796197 93.766287 
L 162.010357 93.131316 
L 162.304827 91.429862 
L 162.692992 87.643693 
L 163.027617 84.18606 
L 163.067772 84.319068 
L 163.308702 85.180168 
L 163.455937 85.109246 
L 163.790562 84.54637 
L 164.379502 83.671864 
L 164.714127 83.528104 
L 164.995211 83.653117 
L 165.316451 84.083049 
L 165.718001 85.050891 
L 166.226631 86.930881 
L 166.895881 90.362234 
L 169.050865 102.215929 
L 169.318565 102.558578 
L 169.479185 102.485534 
L 169.666575 102.094956 
L 169.92089 100.974974 
L 170.255515 98.361595 
L 170.817685 92.391281 
L 170.91138 92.848261 
L 171.138925 93.540607 
L 171.326315 93.538364 
L 172.330189 93.083893 
L 172.638044 93.365103 
L 172.999439 94.034548 
L 173.454529 95.399613 
L 174.030084 97.897891 
L 174.846569 102.562801 
L 176.185068 110.207371 
L 176.600003 111.40992 
L 176.827548 111.577628 
L 176.988168 111.434556 
L 177.202328 110.858054 
L 177.483413 109.350047 
L 177.844808 106.055997 
L 178.313283 101.095928 
L 178.366823 101.301206 
L 178.661293 102.423828 
L 178.915607 102.581715 
L 179.598242 102.806066 
L 179.946252 103.256054 
L 180.361187 104.202399 
L 180.869817 105.979966 
L 181.525682 109.165998 
L 183.707436 120.570621 
L 183.961751 120.837641 
L 184.122371 120.738552 
L 184.323146 120.277422 
L 184.590846 119.005915 
L 184.938856 116.120262 
L 185.501026 110.151176 
L 185.581336 110.472134 
L 185.88919 111.693742 
L 186.250585 112.161284 
L 186.79937 112.880313 
L 187.241075 113.89285 
L 187.76309 115.700404 
L 188.43234 118.911145 
L 190.560554 129.875536 
L 190.828254 130.178334 
L 190.988874 130.090048 
L 191.189649 129.648413 
L 191.457349 128.413378 
L 191.805359 125.592414 
L 192.394299 119.416761 
L 192.487994 119.768626 
L 192.836003 121.227915 
L 193.518638 122.6303 
L 194.054038 124.126059 
L 194.656363 126.553405 
L 195.459463 130.832201 
L 196.851502 138.2911 
L 197.253052 139.333899 
L 197.480597 139.454154 
L 197.641217 139.284208 
L 197.855377 138.681656 
L 198.149847 137.065575 
L 198.524627 133.604249 
L 199.006487 128.749919 
L 199.046642 128.819182 
L 200.291446 133.141247 
L 200.920541 135.590552 
L 201.710256 139.660986 
L 203.209376 147.531258 
L 203.59754 148.466082 
L 203.8117 148.557503 
L 203.985705 148.357327 
L 204.21325 147.670081 
L 204.50772 145.978703 
L 204.90927 142.161553 
L 205.350975 138.024574 
L 205.377745 138.060228 
L 205.52498 138.800677 
L 205.966685 140.717888 
L 207.064254 144.918937 
L 207.934279 149.479825 
L 209.219239 156.151406 
L 209.634174 157.250427 
L 209.861719 157.398719 
L 210.022339 157.260907 
L 210.236499 156.719081 
L 210.517583 155.312486 
L 210.892363 152.134707 
L 211.441148 147.13186 
L 211.467918 147.168213 
L 211.601768 147.794668 
L 212.177323 150.466819 
L 213.207968 155.025245 
L 215.389722 165.593178 
L 215.657422 165.890147 
L 215.831427 165.802855 
L 216.032202 165.382703 
L 216.299902 164.224573 
L 216.661297 161.497424 
L 217.290391 155.980005 
L 217.343931 156.067067 
L 217.544706 157.088906 
L 218.280881 160.575286 
L 219.298141 165.692993 
L 220.703566 172.810051 
L 221.105115 173.835997 
L 221.346045 173.987839 
L 221.52005 173.827336 
L 221.747595 173.224697 
L 222.042065 171.711771 
L 222.443615 168.316862 
L 222.925475 164.504593 
L 222.9924 164.596326 
L 223.193175 165.576214 
L 224.317514 171.235378 
L 226.325264 181.054573 
L 226.659889 181.631912 
L 226.847279 181.638787 
L 227.034669 181.375258 
L 227.275599 180.590291 
L 227.596839 178.699008 
L 228.386553 172.651954 
L 228.480248 172.841816 
L 228.774718 174.356841 
L 231.157248 186.744142 
L 231.679262 188.491855 
L 231.987117 188.893775 
L 232.161122 188.844637 
L 232.361897 188.4986 
L 232.629597 187.502262 
L 232.990992 185.149139 
L 233.673627 180.390322 
L 233.687012 180.397824 
L 233.794092 180.663838 
L 234.168872 182.601739 
L 236.404166 194.067045 
L 236.872641 195.420806 
L 237.153726 195.688424 
L 237.327731 195.591492 
L 237.541891 195.156028 
L 237.822976 194.006798 
L 238.224526 191.260796 
L 238.77331 187.705692 
L 238.85362 187.741265 
L 238.867005 187.766124 
L 239.04101 188.413702 
L 240.21889 194.702495 
L 241.39677 200.4384 
L 241.865244 201.762517 
L 242.146329 202.027797 
L 242.320334 201.938622 
L 242.534494 201.525737 
L 242.815579 200.435185 
L 243.217129 197.854926 
L 243.752529 194.593225 
L 243.832839 194.569639 
L 243.859609 194.600775 
L 244.006844 195.037529 
L 244.502089 197.56346 
L 246.228753 206.196696 
L 246.710613 207.60363 
L 247.005083 207.923189 
L 247.192473 207.852399 
L 247.406633 207.473672 
L 247.687718 206.458755 
L 248.102653 203.970232 
L 248.624668 201.032379 
L 248.718363 200.981335 
L 248.758518 201.022552 
L 248.919137 201.478828 
L 249.387612 203.78329 
L 250.993812 211.648312 
L 251.489057 213.072375 
L 251.783527 213.390895 
L 251.970917 213.331189 
L 252.185077 212.979978 
L 252.466161 212.032075 
L 252.881096 209.725085 
L 253.403111 207.023858 
L 253.523576 206.96182 
L 253.550346 206.987814 
L 253.710966 207.386226 
L 254.112516 209.222717 
L 255.758871 216.988303 
L 256.227345 218.200228 
L 256.50843 218.448272 
L 256.69582 218.365241 
L 256.923365 217.966713 
L 257.23122 216.888653 
L 257.73985 214.094199 
L 258.11463 212.553725 
L 258.235095 212.501062 
L 258.261865 212.523617 
L 258.422485 212.875302 
L 258.78388 214.39454 
L 260.470389 221.956955 
L 260.898709 222.922285 
L 261.166409 223.101718 
L 261.367184 222.977793 
L 261.608114 222.509259 
L 261.942739 221.282119 
L 262.852918 217.610188 
L 262.986768 217.762226 
L 263.227698 218.508755 
L 263.923718 221.696938 
L 264.927593 225.924998 
L 265.409453 227.115566 
L 265.703923 227.369503 
L 265.904698 227.288808 
L 266.145628 226.894204 
L 266.466867 225.864549 
L 267.443972 222.324441 
L 267.591207 222.497667 
L 267.845522 223.256686 
L 268.554927 226.347068 
L 269.478492 229.992607 
L 269.946966 231.05838 
L 270.241436 231.276034 
L 270.455596 231.168766 
L 270.709911 230.728489 
L 271.057921 229.601942 
L 271.901176 226.65939 
L 272.048411 226.693608 
L 272.235801 227.048057 
L 272.610581 228.359864 
L 274.13647 234.092559 
L 274.53802 234.753591 
L 274.792335 234.826603 
L 275.006495 234.650653 
L 275.28758 234.080429 
L 275.7159 232.594966 
L 276.30484 230.690545 
L 276.49223 230.606893 
L 276.666235 230.823439 
L 276.960704 231.644375 
L 277.870884 235.171518 
L 278.553519 237.309859 
L 278.955069 237.971165 
L 279.222769 238.065546 
L 279.450314 237.897548 
L 279.731399 237.368909 
L 280.173104 235.962692 
L 280.735273 234.310717 
L 280.949433 234.206742 
L 281.123438 234.399514 
L 281.417908 235.140337 
L 282.194238 237.941069 
L 282.930413 240.202154 
L 283.345348 240.886445 
L 283.626433 240.998478 
L 283.853977 240.852593 
L 284.148447 240.346461 
L 284.603537 239.01911 
L 285.152322 237.578034 
L 285.366482 237.472425 
L 285.553872 237.651177 
L 285.848342 238.320701 
L 286.557747 240.682902 
L 287.320692 242.89859 
L 287.749011 243.551923 
L 288.030096 243.642908 
L 288.271026 243.481397 
L 288.578881 242.958407 
L 289.114281 241.486517 
L 289.569371 240.509742 
L 289.783531 240.437273 
L 289.984306 240.630237 
L 290.305546 241.333478 
L 291.215725 244.13833 
L 291.831435 245.587716 
L 292.206215 245.996325 
L 292.473915 246.003076 
L 292.741615 245.756035 
L 293.10301 245.0581 
L 294.026575 243.121562 
L 294.22735 243.138587 
L 294.454894 243.414093 
L 294.843059 244.312504 
L 296.235099 247.829993 
L 296.596494 248.15236 
L 296.864194 248.128155 
L 297.145279 247.852712 
L 297.546829 247.083954 
L 298.323158 245.568401 
L 298.564088 245.525821 
L 298.791633 245.73987 
L 299.153028 246.453978 
L 300.705688 249.917479 
L 301.040313 250.08618 
L 301.308013 249.982366 
L 301.629252 249.586823 
L 302.218192 248.399107 
L 302.673282 247.724978 
L 302.927597 247.688465 
L 303.168527 247.903759 
L 303.543307 248.594402 
L 305.015656 251.620852 
L 305.363666 251.796428 
L 305.644751 251.697989 
L 305.979376 251.313933 
L 307.210796 249.606837 
L 307.451726 249.746318 
L 307.786351 250.237592 
L 308.576065 251.944228 
L 309.20516 253.021118 
L 309.593325 253.305762 
L 309.90118 253.269384 
L 310.22242 252.986128 
L 310.744435 252.161352 
L 311.306605 251.404921 
L 311.58769 251.343928 
L 311.85539 251.527397 
L 312.243554 252.113518 
L 313.675749 254.541588 
L 314.023759 254.67402 
L 314.331614 254.561 
L 314.719779 254.143287 
L 315.750423 252.887784 
L 316.031508 252.930813 
L 316.352748 253.242907 
L 316.901533 254.162223 
L 317.784943 255.573717 
L 318.199878 255.857029 
L 318.534503 255.829841 
L 318.895897 255.551383 
L 319.645457 254.573686 
L 320.060392 254.261141 
L 320.354862 254.296868 
L 320.689487 254.591738 
L 321.265042 255.471472 
L 322.108297 256.677583 
L 322.523231 256.924328 
L 322.871241 256.883439 
L 323.259406 256.586952 
L 324.477441 255.465612 
L 324.785296 255.573507 
L 325.186846 255.988883 
L 326.712735 257.829613 
L 327.087515 257.854867 
L 327.47568 257.635919 
L 328.185085 256.889156 
L 328.666945 256.561457 
L 329.00157 256.590256 
L 329.37635 256.873777 
L 330.058984 257.750771 
L 330.768389 258.527958 
L 331.196709 258.699023 
L 331.571489 258.615404 
L 332.039964 258.254624 
L 332.950143 257.521798 
L 333.311538 257.540165 
L 333.699703 257.805027 
L 334.422493 258.644837 
L 335.105128 259.294753 
L 335.546833 259.427513 
L 335.948383 259.311567 
L 336.497167 258.884157 
L 337.219957 258.373924 
L 337.594737 258.371756 
L 337.996287 258.606 
L 338.719077 259.357057 
L 339.428482 259.959808 
L 339.870187 260.065439 
L 340.298506 259.934017 
L 340.954371 259.447963 
L 341.556696 259.107532 
L 341.958246 259.130668 
L 342.399951 259.398668 
L 344.03292 260.620665 
L 344.474625 260.559433 
L 345.036795 260.225945 
L 345.85328 259.763183 
L 346.2816 259.788021 
L 346.76346 260.0658 
L 348.262579 261.102727 
L 348.731054 261.069069 
L 349.306609 260.773377 
L 350.176634 260.334942 
L 350.618338 260.37097 
L 351.140353 260.661003 
L 352.492238 261.521134 
L 352.987483 261.512693 
L 353.576423 261.25146 
L 354.513372 260.836564 
L 354.981847 260.892741 
L 355.557402 261.209493 
L 356.721897 261.884169 
L 357.243912 261.898449 
L 357.846236 261.668549 
L 358.836726 261.279574 
L 359.331971 261.347623 
L 359.987836 261.6959 
L 360.99171 262.209411 
L 361.540495 262.227129 
L 362.182975 262.001188 
L 363.146695 261.669653 
L 363.682095 261.747028 
L 364.431654 262.124195 
L 365.315064 262.504642 
L 365.890619 262.504274 
L 366.626794 262.24773 
L 367.470049 262.01111 
L 368.032218 262.097217 
L 368.915628 262.510403 
L 369.705343 262.770079 
L 370.307668 262.729903 
L 372.275262 262.372143 
L 373.131902 262.720363 
L 373.988542 262.986099 
L 374.631022 262.944323 
L 376.545076 262.621623 
L 377.415101 262.932924 
L 378.325281 263.178757 
L 379.007915 263.119145 
L 380.73458 262.827177 
L 381.551065 263.065078 
L 382.621864 263.342599 
L 383.344654 263.27944 
L 385.017779 263.02385 
L 385.887803 263.250637 
L 386.958603 263.486777 
L 387.734933 263.407698 
L 389.247437 263.1907 
L 390.117462 263.380029 
L 391.295342 263.610916 
L 392.138597 263.51628 
L 393.503866 263.340341 
L 394.414046 263.51183 
L 395.645466 263.717774 
L 396.56903 263.605883 
L 397.813835 263.474682 
L 398.804325 263.648358 
L 399.982204 263.809481 
L 400.999464 263.685215 
L 402.150574 263.593602 
L 403.261528 263.778583 
L 404.372483 263.886774 
L 405.630673 263.728508 
L 406.647932 263.711472 
L 409.365087 263.889205 
L 410.864206 263.791318 
L 413.92937 263.921672 
L 415.21433 263.8716 
L 418.132259 263.99325 
L 419.564454 263.941694 
L 422.361918 264.051984 
L 423.927963 264.003851 
L 426.591577 264.102434 
L 428.304856 264.059102 
L 430.821236 264.145679 
L 432.695135 264.108276 
L 435.077664 264.180808 
L 437.085414 264.151076 
L 439.360863 264.209334 
L 441.475693 264.188149 
L 443.684217 264.231733 
L 445.852586 264.219239 
L 448.047726 264.24915 
L 450.22948 264.245935 
L 450.269635 264.248277 
L 450.269635 264.248277 
" style="fill:none;stroke:#2ca02c;stroke-linecap:square;stroke-width:1.5;"/>
   </g>
   <g id="patch_8">
    <path d="M 47.38125 275.64375 
L 47.38125 25.918125 
" style="fill:none;stroke:#000000;stroke-linecap:square;stroke-linejoin:miter;stroke-width:0.8;"/>
   </g>
   <g id="patch_9">
    <path d="M 450.25625 275.64375 
L 450.25625 25.918125 
" style="fill:none;stroke:#000000;stroke-linecap:square;stroke-linejoin:miter;stroke-width:0.8;"/>
   </g>
   <g id="patch_10">
    <path d="M 47.38125 275.64375 
L 450.25625 275.64375 
" style="fill:none;stroke:#000000;stroke-linecap:square;stroke-linejoin:miter;stroke-width:0.8;"/>
   </g>
   <g id="patch_11">
    <path d="M 47.38125 25.918125 
L 450.25625 25.918125 
" style="fill:none;stroke:#000000;stroke-linecap:square;stroke-linejoin:miter;stroke-width:0.8;"/>
   </g>
  </g>
 </g>
 <defs>
  <clipPath id="p73e4685eeb">
   <rect height="249.725625" width="402.875" x="47.38125" y="25.918125"/>
  </clipPath>
 </defs>
</svg>
