<?xml version="1.0" encoding="utf-8" standalone="no"?>
<!DOCTYPE svg PUBLIC "-//W3C//DTD SVG 1.1//EN"
  "http://www.w3.org/Graphics/SVG/1.1/DTD/svg11.dtd">
<!-- Created with matplotlib (https://matplotlib.org/) -->
<svg height="288pt" version="1.1" viewBox="0 0 432 288" width="432pt" xmlns="http://www.w3.org/2000/svg" xmlns:xlink="http://www.w3.org/1999/xlink">
 <metadata>
  <rdf:RDF xmlns:cc="http://creativecommons.org/ns#" xmlns:dc="http://purl.org/dc/elements/1.1/" xmlns:rdf="http://www.w3.org/1999/02/22-rdf-syntax-ns#">
   <cc:Work>
    <dc:type rdf:resource="http://purl.org/dc/dcmitype/StillImage"/>
    <dc:date>2020-12-09T11:09:29.583626</dc:date>
    <dc:format>image/svg+xml</dc:format>
    <dc:creator>
     <cc:Agent>
      <dc:title>Matplotlib v3.3.2, https://matplotlib.org/</dc:title>
     </cc:Agent>
    </dc:creator>
   </cc:Work>
  </rdf:RDF>
 </metadata>
 <defs>
  <style type="text/css">*{stroke-linecap:butt;stroke-linejoin:round;}</style>
 </defs>
 <g id="figure_1">
  <g id="patch_1">
   <path d="M 0 288 
L 432 288 
L 432 0 
L 0 0 
z
" style="fill:#ffffff;"/>
  </g>
  <g id="axes_1">
   <g id="patch_2">
    <path d="M 53.74375 246.84375 
L 414.971101 246.84375 
L 414.971101 25.918125 
L 53.74375 25.918125 
z
" style="fill:#ffffff;"/>
   </g>
   <g id="matplotlib.axis_1">
    <g id="xtick_1">
     <g id="line2d_1">
      <defs>
       <path d="M 0 0 
L 0 3.5 
" id="m03bbdd7615" style="stroke:#000000;stroke-width:0.8;"/>
      </defs>
      <g>
       <use style="stroke:#000000;stroke-width:0.8;" x="53.74375" xlink:href="#m03bbdd7615" y="246.84375"/>
      </g>
     </g>
     <g id="text_1">
      <!-- 0 -->
      <g transform="translate(50.5625 261.442187)scale(0.1 -0.1)">
       <defs>
        <path d="M 31.78125 66.40625 
Q 24.171875 66.40625 20.328125 58.90625 
Q 16.5 51.421875 16.5 36.375 
Q 16.5 21.390625 20.328125 13.890625 
Q 24.171875 6.390625 31.78125 6.390625 
Q 39.453125 6.390625 43.28125 13.890625 
Q 47.125 21.390625 47.125 36.375 
Q 47.125 51.421875 43.28125 58.90625 
Q 39.453125 66.40625 31.78125 66.40625 
z
M 31.78125 74.21875 
Q 44.046875 74.21875 50.515625 64.515625 
Q 56.984375 54.828125 56.984375 36.375 
Q 56.984375 17.96875 50.515625 8.265625 
Q 44.046875 -1.421875 31.78125 -1.421875 
Q 19.53125 -1.421875 13.0625 8.265625 
Q 6.59375 17.96875 6.59375 36.375 
Q 6.59375 54.828125 13.0625 64.515625 
Q 19.53125 74.21875 31.78125 74.21875 
z
" id="DejaVuSans-48"/>
       </defs>
       <use xlink:href="#DejaVuSans-48"/>
      </g>
     </g>
    </g>
    <g id="xtick_2">
     <g id="line2d_2">
      <g>
       <use style="stroke:#000000;stroke-width:0.8;" x="125.273919" xlink:href="#m03bbdd7615" y="246.84375"/>
      </g>
     </g>
     <g id="text_2">
      <!-- 20 -->
      <g transform="translate(118.911419 261.442187)scale(0.1 -0.1)">
       <defs>
        <path d="M 19.1875 8.296875 
L 53.609375 8.296875 
L 53.609375 0 
L 7.328125 0 
L 7.328125 8.296875 
Q 12.9375 14.109375 22.625 23.890625 
Q 32.328125 33.6875 34.8125 36.53125 
Q 39.546875 41.84375 41.421875 45.53125 
Q 43.3125 49.21875 43.3125 52.78125 
Q 43.3125 58.59375 39.234375 62.25 
Q 35.15625 65.921875 28.609375 65.921875 
Q 23.96875 65.921875 18.8125 64.3125 
Q 13.671875 62.703125 7.8125 59.421875 
L 7.8125 69.390625 
Q 13.765625 71.78125 18.9375 73 
Q 24.125 74.21875 28.421875 74.21875 
Q 39.75 74.21875 46.484375 68.546875 
Q 53.21875 62.890625 53.21875 53.421875 
Q 53.21875 48.921875 51.53125 44.890625 
Q 49.859375 40.875 45.40625 35.40625 
Q 44.1875 33.984375 37.640625 27.21875 
Q 31.109375 20.453125 19.1875 8.296875 
z
" id="DejaVuSans-50"/>
       </defs>
       <use xlink:href="#DejaVuSans-50"/>
       <use x="63.623047" xlink:href="#DejaVuSans-48"/>
      </g>
     </g>
    </g>
    <g id="xtick_3">
     <g id="line2d_3">
      <g>
       <use style="stroke:#000000;stroke-width:0.8;" x="196.804087" xlink:href="#m03bbdd7615" y="246.84375"/>
      </g>
     </g>
     <g id="text_3">
      <!-- 40 -->
      <g transform="translate(190.441587 261.442187)scale(0.1 -0.1)">
       <defs>
        <path d="M 37.796875 64.3125 
L 12.890625 25.390625 
L 37.796875 25.390625 
z
M 35.203125 72.90625 
L 47.609375 72.90625 
L 47.609375 25.390625 
L 58.015625 25.390625 
L 58.015625 17.1875 
L 47.609375 17.1875 
L 47.609375 0 
L 37.796875 0 
L 37.796875 17.1875 
L 4.890625 17.1875 
L 4.890625 26.703125 
z
" id="DejaVuSans-52"/>
       </defs>
       <use xlink:href="#DejaVuSans-52"/>
       <use x="63.623047" xlink:href="#DejaVuSans-48"/>
      </g>
     </g>
    </g>
    <g id="xtick_4">
     <g id="line2d_4">
      <g>
       <use style="stroke:#000000;stroke-width:0.8;" x="268.334256" xlink:href="#m03bbdd7615" y="246.84375"/>
      </g>
     </g>
     <g id="text_4">
      <!-- 60 -->
      <g transform="translate(261.971756 261.442187)scale(0.1 -0.1)">
       <defs>
        <path d="M 33.015625 40.375 
Q 26.375 40.375 22.484375 35.828125 
Q 18.609375 31.296875 18.609375 23.390625 
Q 18.609375 15.53125 22.484375 10.953125 
Q 26.375 6.390625 33.015625 6.390625 
Q 39.65625 6.390625 43.53125 10.953125 
Q 47.40625 15.53125 47.40625 23.390625 
Q 47.40625 31.296875 43.53125 35.828125 
Q 39.65625 40.375 33.015625 40.375 
z
M 52.59375 71.296875 
L 52.59375 62.3125 
Q 48.875 64.0625 45.09375 64.984375 
Q 41.3125 65.921875 37.59375 65.921875 
Q 27.828125 65.921875 22.671875 59.328125 
Q 17.53125 52.734375 16.796875 39.40625 
Q 19.671875 43.65625 24.015625 45.921875 
Q 28.375 48.1875 33.59375 48.1875 
Q 44.578125 48.1875 50.953125 41.515625 
Q 57.328125 34.859375 57.328125 23.390625 
Q 57.328125 12.15625 50.6875 5.359375 
Q 44.046875 -1.421875 33.015625 -1.421875 
Q 20.359375 -1.421875 13.671875 8.265625 
Q 6.984375 17.96875 6.984375 36.375 
Q 6.984375 53.65625 15.1875 63.9375 
Q 23.390625 74.21875 37.203125 74.21875 
Q 40.921875 74.21875 44.703125 73.484375 
Q 48.484375 72.75 52.59375 71.296875 
z
" id="DejaVuSans-54"/>
       </defs>
       <use xlink:href="#DejaVuSans-54"/>
       <use x="63.623047" xlink:href="#DejaVuSans-48"/>
      </g>
     </g>
    </g>
    <g id="xtick_5">
     <g id="line2d_5">
      <g>
       <use style="stroke:#000000;stroke-width:0.8;" x="339.864424" xlink:href="#m03bbdd7615" y="246.84375"/>
      </g>
     </g>
     <g id="text_5">
      <!-- 80 -->
      <g transform="translate(333.501924 261.442187)scale(0.1 -0.1)">
       <defs>
        <path d="M 31.78125 34.625 
Q 24.75 34.625 20.71875 30.859375 
Q 16.703125 27.09375 16.703125 20.515625 
Q 16.703125 13.921875 20.71875 10.15625 
Q 24.75 6.390625 31.78125 6.390625 
Q 38.8125 6.390625 42.859375 10.171875 
Q 46.921875 13.96875 46.921875 20.515625 
Q 46.921875 27.09375 42.890625 30.859375 
Q 38.875 34.625 31.78125 34.625 
z
M 21.921875 38.8125 
Q 15.578125 40.375 12.03125 44.71875 
Q 8.5 49.078125 8.5 55.328125 
Q 8.5 64.0625 14.71875 69.140625 
Q 20.953125 74.21875 31.78125 74.21875 
Q 42.671875 74.21875 48.875 69.140625 
Q 55.078125 64.0625 55.078125 55.328125 
Q 55.078125 49.078125 51.53125 44.71875 
Q 48 40.375 41.703125 38.8125 
Q 48.828125 37.15625 52.796875 32.3125 
Q 56.78125 27.484375 56.78125 20.515625 
Q 56.78125 9.90625 50.3125 4.234375 
Q 43.84375 -1.421875 31.78125 -1.421875 
Q 19.734375 -1.421875 13.25 4.234375 
Q 6.78125 9.90625 6.78125 20.515625 
Q 6.78125 27.484375 10.78125 32.3125 
Q 14.796875 37.15625 21.921875 38.8125 
z
M 18.3125 54.390625 
Q 18.3125 48.734375 21.84375 45.5625 
Q 25.390625 42.390625 31.78125 42.390625 
Q 38.140625 42.390625 41.71875 45.5625 
Q 45.3125 48.734375 45.3125 54.390625 
Q 45.3125 60.0625 41.71875 63.234375 
Q 38.140625 66.40625 31.78125 66.40625 
Q 25.390625 66.40625 21.84375 63.234375 
Q 18.3125 60.0625 18.3125 54.390625 
z
" id="DejaVuSans-56"/>
       </defs>
       <use xlink:href="#DejaVuSans-56"/>
       <use x="63.623047" xlink:href="#DejaVuSans-48"/>
      </g>
     </g>
    </g>
    <g id="xtick_6">
     <g id="line2d_6">
      <g>
       <use style="stroke:#000000;stroke-width:0.8;" x="411.394593" xlink:href="#m03bbdd7615" y="246.84375"/>
      </g>
     </g>
     <g id="text_6">
      <!-- 100 -->
      <g transform="translate(401.850843 261.442187)scale(0.1 -0.1)">
       <defs>
        <path d="M 12.40625 8.296875 
L 28.515625 8.296875 
L 28.515625 63.921875 
L 10.984375 60.40625 
L 10.984375 69.390625 
L 28.421875 72.90625 
L 38.28125 72.90625 
L 38.28125 8.296875 
L 54.390625 8.296875 
L 54.390625 0 
L 12.40625 0 
z
" id="DejaVuSans-49"/>
       </defs>
       <use xlink:href="#DejaVuSans-49"/>
       <use x="63.623047" xlink:href="#DejaVuSans-48"/>
       <use x="127.246094" xlink:href="#DejaVuSans-48"/>
      </g>
     </g>
    </g>
    <g id="text_7">
     <!-- Time (years) -->
     <g transform="translate(202.873051 275.120313)scale(0.1 -0.1)">
      <defs>
       <path d="M -0.296875 72.90625 
L 61.375 72.90625 
L 61.375 64.59375 
L 35.5 64.59375 
L 35.5 0 
L 25.59375 0 
L 25.59375 64.59375 
L -0.296875 64.59375 
z
" id="DejaVuSans-84"/>
       <path d="M 9.421875 54.6875 
L 18.40625 54.6875 
L 18.40625 0 
L 9.421875 0 
z
M 9.421875 75.984375 
L 18.40625 75.984375 
L 18.40625 64.59375 
L 9.421875 64.59375 
z
" id="DejaVuSans-105"/>
       <path d="M 52 44.1875 
Q 55.375 50.25 60.0625 53.125 
Q 64.75 56 71.09375 56 
Q 79.640625 56 84.28125 50.015625 
Q 88.921875 44.046875 88.921875 33.015625 
L 88.921875 0 
L 79.890625 0 
L 79.890625 32.71875 
Q 79.890625 40.578125 77.09375 44.375 
Q 74.3125 48.1875 68.609375 48.1875 
Q 61.625 48.1875 57.5625 43.546875 
Q 53.515625 38.921875 53.515625 30.90625 
L 53.515625 0 
L 44.484375 0 
L 44.484375 32.71875 
Q 44.484375 40.625 41.703125 44.40625 
Q 38.921875 48.1875 33.109375 48.1875 
Q 26.21875 48.1875 22.15625 43.53125 
Q 18.109375 38.875 18.109375 30.90625 
L 18.109375 0 
L 9.078125 0 
L 9.078125 54.6875 
L 18.109375 54.6875 
L 18.109375 46.1875 
Q 21.1875 51.21875 25.484375 53.609375 
Q 29.78125 56 35.6875 56 
Q 41.65625 56 45.828125 52.96875 
Q 50 49.953125 52 44.1875 
z
" id="DejaVuSans-109"/>
       <path d="M 56.203125 29.59375 
L 56.203125 25.203125 
L 14.890625 25.203125 
Q 15.484375 15.921875 20.484375 11.0625 
Q 25.484375 6.203125 34.421875 6.203125 
Q 39.59375 6.203125 44.453125 7.46875 
Q 49.3125 8.734375 54.109375 11.28125 
L 54.109375 2.78125 
Q 49.265625 0.734375 44.1875 -0.34375 
Q 39.109375 -1.421875 33.890625 -1.421875 
Q 20.796875 -1.421875 13.15625 6.1875 
Q 5.515625 13.8125 5.515625 26.8125 
Q 5.515625 40.234375 12.765625 48.109375 
Q 20.015625 56 32.328125 56 
Q 43.359375 56 49.78125 48.890625 
Q 56.203125 41.796875 56.203125 29.59375 
z
M 47.21875 32.234375 
Q 47.125 39.59375 43.09375 43.984375 
Q 39.0625 48.390625 32.421875 48.390625 
Q 24.90625 48.390625 20.390625 44.140625 
Q 15.875 39.890625 15.1875 32.171875 
z
" id="DejaVuSans-101"/>
       <path id="DejaVuSans-32"/>
       <path d="M 31 75.875 
Q 24.46875 64.65625 21.28125 53.65625 
Q 18.109375 42.671875 18.109375 31.390625 
Q 18.109375 20.125 21.3125 9.0625 
Q 24.515625 -2 31 -13.1875 
L 23.1875 -13.1875 
Q 15.875 -1.703125 12.234375 9.375 
Q 8.59375 20.453125 8.59375 31.390625 
Q 8.59375 42.28125 12.203125 53.3125 
Q 15.828125 64.359375 23.1875 75.875 
z
" id="DejaVuSans-40"/>
       <path d="M 32.171875 -5.078125 
Q 28.375 -14.84375 24.75 -17.8125 
Q 21.140625 -20.796875 15.09375 -20.796875 
L 7.90625 -20.796875 
L 7.90625 -13.28125 
L 13.1875 -13.28125 
Q 16.890625 -13.28125 18.9375 -11.515625 
Q 21 -9.765625 23.484375 -3.21875 
L 25.09375 0.875 
L 2.984375 54.6875 
L 12.5 54.6875 
L 29.59375 11.921875 
L 46.6875 54.6875 
L 56.203125 54.6875 
z
" id="DejaVuSans-121"/>
       <path d="M 34.28125 27.484375 
Q 23.390625 27.484375 19.1875 25 
Q 14.984375 22.515625 14.984375 16.5 
Q 14.984375 11.71875 18.140625 8.90625 
Q 21.296875 6.109375 26.703125 6.109375 
Q 34.1875 6.109375 38.703125 11.40625 
Q 43.21875 16.703125 43.21875 25.484375 
L 43.21875 27.484375 
z
M 52.203125 31.203125 
L 52.203125 0 
L 43.21875 0 
L 43.21875 8.296875 
Q 40.140625 3.328125 35.546875 0.953125 
Q 30.953125 -1.421875 24.3125 -1.421875 
Q 15.921875 -1.421875 10.953125 3.296875 
Q 6 8.015625 6 15.921875 
Q 6 25.140625 12.171875 29.828125 
Q 18.359375 34.515625 30.609375 34.515625 
L 43.21875 34.515625 
L 43.21875 35.40625 
Q 43.21875 41.609375 39.140625 45 
Q 35.0625 48.390625 27.6875 48.390625 
Q 23 48.390625 18.546875 47.265625 
Q 14.109375 46.140625 10.015625 43.890625 
L 10.015625 52.203125 
Q 14.9375 54.109375 19.578125 55.046875 
Q 24.21875 56 28.609375 56 
Q 40.484375 56 46.34375 49.84375 
Q 52.203125 43.703125 52.203125 31.203125 
z
" id="DejaVuSans-97"/>
       <path d="M 41.109375 46.296875 
Q 39.59375 47.171875 37.8125 47.578125 
Q 36.03125 48 33.890625 48 
Q 26.265625 48 22.1875 43.046875 
Q 18.109375 38.09375 18.109375 28.8125 
L 18.109375 0 
L 9.078125 0 
L 9.078125 54.6875 
L 18.109375 54.6875 
L 18.109375 46.1875 
Q 20.953125 51.171875 25.484375 53.578125 
Q 30.03125 56 36.53125 56 
Q 37.453125 56 38.578125 55.875 
Q 39.703125 55.765625 41.0625 55.515625 
z
" id="DejaVuSans-114"/>
       <path d="M 44.28125 53.078125 
L 44.28125 44.578125 
Q 40.484375 46.53125 36.375 47.5 
Q 32.28125 48.484375 27.875 48.484375 
Q 21.1875 48.484375 17.84375 46.4375 
Q 14.5 44.390625 14.5 40.28125 
Q 14.5 37.15625 16.890625 35.375 
Q 19.28125 33.59375 26.515625 31.984375 
L 29.59375 31.296875 
Q 39.15625 29.25 43.1875 25.515625 
Q 47.21875 21.78125 47.21875 15.09375 
Q 47.21875 7.46875 41.1875 3.015625 
Q 35.15625 -1.421875 24.609375 -1.421875 
Q 20.21875 -1.421875 15.453125 -0.5625 
Q 10.6875 0.296875 5.421875 2 
L 5.421875 11.28125 
Q 10.40625 8.6875 15.234375 7.390625 
Q 20.0625 6.109375 24.8125 6.109375 
Q 31.15625 6.109375 34.5625 8.28125 
Q 37.984375 10.453125 37.984375 14.40625 
Q 37.984375 18.0625 35.515625 20.015625 
Q 33.0625 21.96875 24.703125 23.78125 
L 21.578125 24.515625 
Q 13.234375 26.265625 9.515625 29.90625 
Q 5.8125 33.546875 5.8125 39.890625 
Q 5.8125 47.609375 11.28125 51.796875 
Q 16.75 56 26.8125 56 
Q 31.78125 56 36.171875 55.265625 
Q 40.578125 54.546875 44.28125 53.078125 
z
" id="DejaVuSans-115"/>
       <path d="M 8.015625 75.875 
L 15.828125 75.875 
Q 23.140625 64.359375 26.78125 53.3125 
Q 30.421875 42.28125 30.421875 31.390625 
Q 30.421875 20.453125 26.78125 9.375 
Q 23.140625 -1.703125 15.828125 -13.1875 
L 8.015625 -13.1875 
Q 14.5 -2 17.703125 9.0625 
Q 20.90625 20.125 20.90625 31.390625 
Q 20.90625 42.671875 17.703125 53.65625 
Q 14.5 64.65625 8.015625 75.875 
z
" id="DejaVuSans-41"/>
      </defs>
      <use xlink:href="#DejaVuSans-84"/>
      <use x="57.958984" xlink:href="#DejaVuSans-105"/>
      <use x="85.742188" xlink:href="#DejaVuSans-109"/>
      <use x="183.154297" xlink:href="#DejaVuSans-101"/>
      <use x="244.677734" xlink:href="#DejaVuSans-32"/>
      <use x="276.464844" xlink:href="#DejaVuSans-40"/>
      <use x="315.478516" xlink:href="#DejaVuSans-121"/>
      <use x="374.658203" xlink:href="#DejaVuSans-101"/>
      <use x="436.181641" xlink:href="#DejaVuSans-97"/>
      <use x="497.460938" xlink:href="#DejaVuSans-114"/>
      <use x="538.574219" xlink:href="#DejaVuSans-115"/>
      <use x="590.673828" xlink:href="#DejaVuSans-41"/>
     </g>
    </g>
   </g>
   <g id="matplotlib.axis_2">
    <g id="ytick_1">
     <g id="line2d_7">
      <defs>
       <path d="M 0 0 
L -3.5 0 
" id="m1797799f88" style="stroke:#000000;stroke-width:0.8;"/>
      </defs>
      <g>
       <use style="stroke:#000000;stroke-width:0.8;" x="53.74375" xlink:href="#m1797799f88" y="242.933253"/>
      </g>
     </g>
     <g id="text_8">
      <!-- 0.70 -->
      <g transform="translate(24.478125 246.732472)scale(0.1 -0.1)">
       <defs>
        <path d="M 10.6875 12.40625 
L 21 12.40625 
L 21 0 
L 10.6875 0 
z
" id="DejaVuSans-46"/>
        <path d="M 8.203125 72.90625 
L 55.078125 72.90625 
L 55.078125 68.703125 
L 28.609375 0 
L 18.3125 0 
L 43.21875 64.59375 
L 8.203125 64.59375 
z
" id="DejaVuSans-55"/>
       </defs>
       <use xlink:href="#DejaVuSans-48"/>
       <use x="63.623047" xlink:href="#DejaVuSans-46"/>
       <use x="95.410156" xlink:href="#DejaVuSans-55"/>
       <use x="159.033203" xlink:href="#DejaVuSans-48"/>
      </g>
     </g>
    </g>
    <g id="ytick_2">
     <g id="line2d_8">
      <g>
       <use style="stroke:#000000;stroke-width:0.8;" x="53.74375" xlink:href="#m1797799f88" y="207.349832"/>
      </g>
     </g>
     <g id="text_9">
      <!-- 0.75 -->
      <g transform="translate(24.478125 211.149051)scale(0.1 -0.1)">
       <defs>
        <path d="M 10.796875 72.90625 
L 49.515625 72.90625 
L 49.515625 64.59375 
L 19.828125 64.59375 
L 19.828125 46.734375 
Q 21.96875 47.46875 24.109375 47.828125 
Q 26.265625 48.1875 28.421875 48.1875 
Q 40.625 48.1875 47.75 41.5 
Q 54.890625 34.8125 54.890625 23.390625 
Q 54.890625 11.625 47.5625 5.09375 
Q 40.234375 -1.421875 26.90625 -1.421875 
Q 22.3125 -1.421875 17.546875 -0.640625 
Q 12.796875 0.140625 7.71875 1.703125 
L 7.71875 11.625 
Q 12.109375 9.234375 16.796875 8.0625 
Q 21.484375 6.890625 26.703125 6.890625 
Q 35.15625 6.890625 40.078125 11.328125 
Q 45.015625 15.765625 45.015625 23.390625 
Q 45.015625 31 40.078125 35.4375 
Q 35.15625 39.890625 26.703125 39.890625 
Q 22.75 39.890625 18.8125 39.015625 
Q 14.890625 38.140625 10.796875 36.28125 
z
" id="DejaVuSans-53"/>
       </defs>
       <use xlink:href="#DejaVuSans-48"/>
       <use x="63.623047" xlink:href="#DejaVuSans-46"/>
       <use x="95.410156" xlink:href="#DejaVuSans-55"/>
       <use x="159.033203" xlink:href="#DejaVuSans-53"/>
      </g>
     </g>
    </g>
    <g id="ytick_3">
     <g id="line2d_9">
      <g>
       <use style="stroke:#000000;stroke-width:0.8;" x="53.74375" xlink:href="#m1797799f88" y="171.766412"/>
      </g>
     </g>
     <g id="text_10">
      <!-- 0.80 -->
      <g transform="translate(24.478125 175.56563)scale(0.1 -0.1)">
       <use xlink:href="#DejaVuSans-48"/>
       <use x="63.623047" xlink:href="#DejaVuSans-46"/>
       <use x="95.410156" xlink:href="#DejaVuSans-56"/>
       <use x="159.033203" xlink:href="#DejaVuSans-48"/>
      </g>
     </g>
    </g>
    <g id="ytick_4">
     <g id="line2d_10">
      <g>
       <use style="stroke:#000000;stroke-width:0.8;" x="53.74375" xlink:href="#m1797799f88" y="136.182991"/>
      </g>
     </g>
     <g id="text_11">
      <!-- 0.85 -->
      <g transform="translate(24.478125 139.98221)scale(0.1 -0.1)">
       <use xlink:href="#DejaVuSans-48"/>
       <use x="63.623047" xlink:href="#DejaVuSans-46"/>
       <use x="95.410156" xlink:href="#DejaVuSans-56"/>
       <use x="159.033203" xlink:href="#DejaVuSans-53"/>
      </g>
     </g>
    </g>
    <g id="ytick_5">
     <g id="line2d_11">
      <g>
       <use style="stroke:#000000;stroke-width:0.8;" x="53.74375" xlink:href="#m1797799f88" y="100.599571"/>
      </g>
     </g>
     <g id="text_12">
      <!-- 0.90 -->
      <g transform="translate(24.478125 104.398789)scale(0.1 -0.1)">
       <defs>
        <path d="M 10.984375 1.515625 
L 10.984375 10.5 
Q 14.703125 8.734375 18.5 7.8125 
Q 22.3125 6.890625 25.984375 6.890625 
Q 35.75 6.890625 40.890625 13.453125 
Q 46.046875 20.015625 46.78125 33.40625 
Q 43.953125 29.203125 39.59375 26.953125 
Q 35.25 24.703125 29.984375 24.703125 
Q 19.046875 24.703125 12.671875 31.3125 
Q 6.296875 37.9375 6.296875 49.421875 
Q 6.296875 60.640625 12.9375 67.421875 
Q 19.578125 74.21875 30.609375 74.21875 
Q 43.265625 74.21875 49.921875 64.515625 
Q 56.59375 54.828125 56.59375 36.375 
Q 56.59375 19.140625 48.40625 8.859375 
Q 40.234375 -1.421875 26.421875 -1.421875 
Q 22.703125 -1.421875 18.890625 -0.6875 
Q 15.09375 0.046875 10.984375 1.515625 
z
M 30.609375 32.421875 
Q 37.25 32.421875 41.125 36.953125 
Q 45.015625 41.5 45.015625 49.421875 
Q 45.015625 57.28125 41.125 61.84375 
Q 37.25 66.40625 30.609375 66.40625 
Q 23.96875 66.40625 20.09375 61.84375 
Q 16.21875 57.28125 16.21875 49.421875 
Q 16.21875 41.5 20.09375 36.953125 
Q 23.96875 32.421875 30.609375 32.421875 
z
" id="DejaVuSans-57"/>
       </defs>
       <use xlink:href="#DejaVuSans-48"/>
       <use x="63.623047" xlink:href="#DejaVuSans-46"/>
       <use x="95.410156" xlink:href="#DejaVuSans-57"/>
       <use x="159.033203" xlink:href="#DejaVuSans-48"/>
      </g>
     </g>
    </g>
    <g id="ytick_6">
     <g id="line2d_12">
      <g>
       <use style="stroke:#000000;stroke-width:0.8;" x="53.74375" xlink:href="#m1797799f88" y="65.01615"/>
      </g>
     </g>
     <g id="text_13">
      <!-- 0.95 -->
      <g transform="translate(24.478125 68.815369)scale(0.1 -0.1)">
       <use xlink:href="#DejaVuSans-48"/>
       <use x="63.623047" xlink:href="#DejaVuSans-46"/>
       <use x="95.410156" xlink:href="#DejaVuSans-57"/>
       <use x="159.033203" xlink:href="#DejaVuSans-53"/>
      </g>
     </g>
    </g>
    <g id="ytick_7">
     <g id="line2d_13">
      <g>
       <use style="stroke:#000000;stroke-width:0.8;" x="53.74375" xlink:href="#m1797799f88" y="29.432729"/>
      </g>
     </g>
     <g id="text_14">
      <!-- 1.00 -->
      <g transform="translate(24.478125 33.231948)scale(0.1 -0.1)">
       <use xlink:href="#DejaVuSans-49"/>
       <use x="63.623047" xlink:href="#DejaVuSans-46"/>
       <use x="95.410156" xlink:href="#DejaVuSans-48"/>
       <use x="159.033203" xlink:href="#DejaVuSans-48"/>
      </g>
     </g>
    </g>
    <g id="text_15">
     <!-- Rate -->
     <g transform="translate(18.398438 147.843437)rotate(-90)scale(0.1 -0.1)">
      <defs>
       <path d="M 44.390625 34.1875 
Q 47.5625 33.109375 50.5625 29.59375 
Q 53.5625 26.078125 56.59375 19.921875 
L 66.609375 0 
L 56 0 
L 46.6875 18.703125 
Q 43.0625 26.03125 39.671875 28.421875 
Q 36.28125 30.8125 30.421875 30.8125 
L 19.671875 30.8125 
L 19.671875 0 
L 9.8125 0 
L 9.8125 72.90625 
L 32.078125 72.90625 
Q 44.578125 72.90625 50.734375 67.671875 
Q 56.890625 62.453125 56.890625 51.90625 
Q 56.890625 45.015625 53.6875 40.46875 
Q 50.484375 35.9375 44.390625 34.1875 
z
M 19.671875 64.796875 
L 19.671875 38.921875 
L 32.078125 38.921875 
Q 39.203125 38.921875 42.84375 42.21875 
Q 46.484375 45.515625 46.484375 51.90625 
Q 46.484375 58.296875 42.84375 61.546875 
Q 39.203125 64.796875 32.078125 64.796875 
z
" id="DejaVuSans-82"/>
       <path d="M 18.3125 70.21875 
L 18.3125 54.6875 
L 36.8125 54.6875 
L 36.8125 47.703125 
L 18.3125 47.703125 
L 18.3125 18.015625 
Q 18.3125 11.328125 20.140625 9.421875 
Q 21.96875 7.515625 27.59375 7.515625 
L 36.8125 7.515625 
L 36.8125 0 
L 27.59375 0 
Q 17.1875 0 13.234375 3.875 
Q 9.28125 7.765625 9.28125 18.015625 
L 9.28125 47.703125 
L 2.6875 47.703125 
L 2.6875 54.6875 
L 9.28125 54.6875 
L 9.28125 70.21875 
z
" id="DejaVuSans-116"/>
      </defs>
      <use xlink:href="#DejaVuSans-82"/>
      <use x="67.232422" xlink:href="#DejaVuSans-97"/>
      <use x="128.511719" xlink:href="#DejaVuSans-116"/>
      <use x="167.720703" xlink:href="#DejaVuSans-101"/>
     </g>
    </g>
   </g>
   <g id="line2d_14">
    <path clip-path="url(#p31aedad5cb)" d="M 53.74375 171.766412 
L 56.676487 198.116792 
L 58.929687 216.491551 
L 60.467586 227.396484 
L 61.469008 233.121056 
L 62.11278 235.729198 
L 62.541961 236.677354 
L 62.792316 236.7935 
L 62.971142 236.611361 
L 63.185732 236.019314 
L 63.436088 234.653977 
L 63.722209 231.841487 
L 64.044094 226.232539 
L 64.36598 216.383233 
L 64.687866 199.493813 
L 65.081282 164.941637 
L 66.011174 75.058113 
L 66.40459 58.794239 
L 66.798006 50.896606 
L 67.155657 47.740168 
L 67.441777 46.867031 
L 67.620603 46.833234 
L 67.799428 47.099896 
L 68.085549 48.014589 
L 68.550495 50.424772 
L 69.265797 55.536903 
L 70.410279 65.57864 
L 72.484654 86.080208 
L 80.138382 162.937601 
L 83.249945 191.531742 
L 85.68197 211.986725 
L 87.434459 224.996126 
L 88.578942 231.999628 
L 89.330009 235.357116 
L 89.794955 236.568224 
L 90.081076 236.801544 
L 90.259901 236.676437 
L 90.474492 236.170949 
L 90.724847 234.941811 
L 91.010968 232.356075 
L 91.332854 227.153231 
L 91.654739 217.986122 
L 91.976625 202.204774 
L 92.334276 173.001871 
L 93.442994 69.76561 
L 93.83641 56.154308 
L 94.19406 50.095071 
L 94.515946 47.592795 
L 94.766302 46.874249 
L 94.945127 46.829246 
L 95.123953 47.086882 
L 95.410073 47.990423 
L 95.875019 50.388299 
L 96.590321 55.489407 
L 97.734804 65.522735 
L 99.809179 86.019436 
L 107.498672 163.221383 
L 110.610234 191.794068 
L 113.04226 212.222979 
L 114.758984 224.955604 
L 115.903467 231.967971 
L 116.654533 235.336284 
L 117.119479 236.558494 
L 117.4056 236.801676 
L 117.584425 236.684486 
L 117.799016 236.191009 
L 118.049372 234.980721 
L 118.335492 232.426256 
L 118.657378 227.279271 
L 118.979264 218.205924 
L 119.30115 202.577973 
L 119.6588 173.599195 
L 120.803283 68.372666 
L 121.196699 55.468924 
L 121.55435 49.768163 
L 121.876236 47.459907 
L 122.126591 46.842916 
L 122.305417 46.853004 
L 122.520007 47.245494 
L 122.841893 48.428048 
L 123.342604 51.257768 
L 124.129436 57.188559 
L 125.416979 68.861977 
L 127.920535 94.007294 
L 134.000599 155.267758 
L 137.290987 186.018895 
L 139.901838 208.441744 
L 141.797388 222.935644 
L 143.049166 230.958222 
L 143.835997 234.781794 
L 144.336709 236.342892 
L 144.658594 236.783229 
L 144.83742 236.764281 
L 145.016245 236.504681 
L 145.266601 235.625837 
L 145.552721 233.617538 
L 145.874607 229.438482 
L 146.196493 221.983724 
L 146.518379 209.035776 
L 146.87603 184.255339 
L 147.412506 126.194036 
L 147.948982 78.2363 
L 148.342398 60.405848 
L 148.735814 51.643753 
L 149.093465 48.044615 
L 149.379585 46.946728 
L 149.558411 46.809254 
L 149.737236 46.99244 
L 149.987592 47.673277 
L 150.381008 49.485946 
L 150.989014 53.471538 
L 151.954672 61.474573 
L 153.599865 77.231577 
L 164.365156 183.710482 
L 167.011772 206.638132 
L 168.943087 221.621485 
L 170.266395 230.31206 
L 171.124757 234.61495 
L 171.661233 236.329908 
L 171.983119 236.780157 
L 172.161944 236.768397 
L 172.34077 236.517576 
L 172.591125 235.654798 
L 172.877246 233.672767 
L 173.199132 229.53985 
L 173.521017 222.161921 
L 173.842903 209.342361 
L 174.200554 184.775711 
L 174.701265 130.953303 
L 175.237741 80.899918 
L 175.631157 61.771495 
L 176.024573 52.285458 
L 176.382224 48.317211 
L 176.668345 47.033115 
L 176.882935 46.808375 
L 177.025996 46.924654 
L 177.276351 47.530403 
L 177.669767 49.259268 
L 178.277774 53.16467 
L 179.207666 60.783485 
L 180.781329 75.747207 
L 185.001609 118.823365 
L 189.186124 160.318704 
L 192.369217 189.741356 
L 194.872773 210.942392 
L 196.661027 224.345554 
L 197.841275 231.681069 
L 198.592341 235.144491 
L 199.057288 236.463763 
L 199.343408 236.792769 
L 199.522234 236.744395 
L 199.701059 236.448647 
L 199.951415 235.503762 
L 200.237535 233.387252 
L 200.559421 229.017612 
L 200.881307 221.245299 
L 201.203193 207.767527 
L 201.560843 182.116814 
L 202.16885 115.665791 
L 202.633796 76.785869 
L 203.027212 59.668223 
L 203.420628 51.300533 
L 203.778279 47.903064 
L 204.064399 46.907366 
L 204.243225 46.816973 
L 204.42205 47.038022 
L 204.708171 47.896516 
L 205.137352 50.031502 
L 205.816888 54.740267 
L 206.889841 63.971537 
L 208.78539 82.509744 
L 217.512071 169.75854 
L 220.516338 196.886237 
L 222.805304 215.669453 
L 224.378967 226.935425 
L 225.416155 232.945806 
L 226.095691 235.728887 
L 226.524872 236.676739 
L 226.775228 236.792667 
L 226.954053 236.610307 
L 227.168644 236.017957 
L 227.418999 234.652108 
L 227.70512 231.838786 
L 228.027006 226.228366 
L 228.348892 216.376595 
L 228.670777 199.483306 
L 229.064193 164.925798 
L 229.994085 75.050969 
L 230.387501 58.791209 
L 230.780917 50.89578 
L 231.138568 47.740405 
L 231.424689 46.867788 
L 231.603514 46.834224 
L 231.78234 47.101081 
L 232.06846 48.016004 
L 232.533406 50.426434 
L 233.248708 55.538773 
L 234.393191 65.580651 
L 236.467566 86.082254 
L 244.121294 162.93935 
L 247.232856 191.533288 
L 249.664882 211.988045 
L 251.417371 224.997142 
L 252.561854 232.000257 
L 253.31292 235.35728 
L 253.777867 236.567915 
L 254.063987 236.800817 
L 254.242813 236.675373 
L 254.457403 236.169382 
L 254.707759 234.939473 
L 254.993879 232.35244 
L 255.315765 227.147305 
L 255.637651 217.976419 
L 255.959537 202.188995 
L 256.317188 172.977534 
L 257.425905 69.755379 
L 257.819321 56.149826 
L 258.176972 50.09349 
L 258.498858 47.592747 
L 258.749213 46.874961 
L 258.928039 46.830367 
L 259.106864 47.088327 
L 259.392985 47.992279 
L 259.857931 50.390589 
L 260.573233 55.492078 
L 261.717715 65.525668 
L 263.79209 86.022472 
L 271.481583 163.224044 
L 274.593146 191.796465 
L 277.025171 212.225057 
L 278.741895 224.957277 
L 279.886378 231.969102 
L 280.637445 235.336751 
L 281.102391 236.558298 
L 281.388512 236.800884 
L 281.567337 236.683236 
L 281.781928 236.189046 
L 282.032283 234.977653 
L 282.318404 232.421379 
L 282.64029 227.27117 
L 282.962175 218.192449 
L 283.284061 202.555862 
L 283.641712 173.564768 
L 284.786195 68.358498 
L 285.179611 55.462589 
L 285.537261 49.765725 
L 285.859147 47.459567 
L 286.109503 46.843654 
L 286.288328 46.854321 
L 286.502919 47.247354 
L 286.824804 48.4305 
L 287.325516 51.260816 
L 288.112347 57.192125 
L 289.39989 68.865892 
L 291.903446 94.011316 
L 297.983511 155.271397 
L 301.273898 186.022199 
L 303.88475 208.444643 
L 305.780299 222.938069 
L 307.032077 230.960009 
L 307.818909 234.782804 
L 308.31962 236.343146 
L 308.641506 236.782726 
L 308.820331 236.763256 
L 308.999157 236.502984 
L 309.249512 235.62294 
L 309.535633 233.61269 
L 309.857519 229.430198 
L 310.179404 221.969792 
L 310.50129 209.012414 
L 310.858941 184.21658 
L 311.395417 126.145597 
L 311.931894 78.210756 
L 312.32531 60.393387 
L 312.718725 51.638441 
L 313.076376 48.042917 
L 313.362497 46.946853 
L 313.541322 46.810216 
L 313.720148 46.99407 
L 313.970503 47.675634 
L 314.363919 49.489109 
L 314.971926 53.475463 
L 315.937583 61.479107 
L 317.582777 77.236478 
L 328.348067 183.714684 
L 330.994684 206.641886 
L 332.925998 221.624662 
L 334.249306 230.314479 
L 335.107668 234.616422 
L 335.644144 236.330371 
L 335.96603 236.77972 
L 336.144856 236.767315 
L 336.323681 236.5157 
L 336.574037 235.651484 
L 336.860157 233.667105 
L 337.182043 229.530086 
L 337.503929 222.145366 
L 337.825815 209.314534 
L 338.183465 184.729292 
L 338.719942 126.807297 
L 339.256418 78.573342 
L 339.649834 60.578511 
L 340.04325 51.725068 
L 340.400901 48.079269 
L 340.687021 46.957779 
L 340.865847 46.809447 
L 341.008907 46.926393 
L 341.259263 47.533065 
L 341.652679 49.262959 
L 342.260685 53.169328 
L 343.190577 60.788896 
L 344.764241 75.753091 
L 348.984521 118.829237 
L 353.169036 160.324141 
L 356.352128 189.746321 
L 358.855684 210.946785 
L 360.643938 224.3492 
L 361.824186 231.683757 
L 362.575253 235.146053 
L 363.040199 236.464174 
L 363.32632 236.792181 
L 363.505145 236.742998 
L 363.683971 236.446268 
L 363.934326 235.499594 
L 364.220447 233.380151 
L 364.542333 229.005356 
L 364.864218 221.22451 
L 365.186104 207.732547 
L 365.543755 182.059117 
L 366.151761 115.599381 
L 366.616708 76.749844 
L 367.010123 59.650603 
L 367.403539 51.292973 
L 367.76119 47.900621 
L 368.047311 46.907518 
L 368.226136 46.818316 
L 368.404962 47.040332 
L 368.691082 47.900004 
L 369.120263 50.036177 
L 369.7998 54.74606 
L 370.872753 63.978166 
L 372.768302 82.516835 
L 381.494983 169.764879 
L 384.49925 196.891951 
L 386.788215 215.674439 
L 388.361879 226.939464 
L 389.399066 232.948641 
L 390.078603 235.730295 
L 390.507784 236.676713 
L 390.758139 236.791459 
L 390.936965 236.608041 
L 391.151555 236.014077 
L 391.401911 234.645697 
L 391.688032 231.828184 
L 392.009917 226.210259 
L 392.331803 216.345972 
L 392.653689 199.43269 
L 393.047105 164.846145 
L 393.976997 75.010509 
L 394.370413 58.771509 
L 394.763829 50.887399 
L 395.12148 47.737795 
L 395.4076 46.868105 
L 395.586426 46.835891 
L 395.765251 47.103834 
L 396.051372 48.020088 
L 396.516318 50.431974 
L 397.23162 55.545601 
L 398.376102 65.588426 
L 400.450477 86.09052 
L 408.104205 162.946869 
L 411.215768 191.54017 
L 413.647793 211.994159 
L 414.935336 221.756236 
L 414.935336 221.756236 
" style="fill:none;stroke:#1f77b4;stroke-linecap:square;stroke-width:1.5;"/>
   </g>
   <g id="line2d_15">
    <path clip-path="url(#p31aedad5cb)" d="M 53.74375 100.599571 
L 54.566347 98.614534 
L 55.496239 95.733809 
L 56.533427 91.73287 
L 57.677909 86.368152 
L 58.929687 79.384642 
L 60.324526 70.287822 
L 61.969719 57.977641 
L 64.652101 37.605851 
L 65.045517 36.162298 
L 65.260107 35.961872 
L 65.403167 36.098903 
L 65.617758 36.700866 
L 65.975409 38.571581 
L 66.583415 43.202234 
L 70.76793 77.773991 
L 72.055473 85.729727 
L 73.235721 91.692145 
L 74.308673 96.019833 
L 75.274331 99.040774 
L 76.132693 101.043774 
L 76.88376 102.278482 
L 77.527531 102.957601 
L 78.099772 103.270952 
L 78.636249 103.319107 
L 79.172725 103.131745 
L 79.744966 102.674541 
L 80.388738 101.845404 
L 81.104039 100.536745 
L 81.926636 98.532479 
L 82.856529 95.630249 
L 83.893716 91.605631 
L 85.038199 86.215238 
L 86.289977 79.204453 
L 87.684815 70.079111 
L 89.330009 57.741835 
L 91.976625 37.636214 
L 92.370041 36.174541 
L 92.584632 35.960936 
L 92.727692 36.088826 
L 92.942282 36.678129 
L 93.299933 38.53337 
L 93.90794 43.15181 
L 98.12822 77.975108 
L 99.415763 85.895818 
L 100.59601 91.826219 
L 101.668963 96.125269 
L 102.63462 99.120918 
L 103.492982 101.101837 
L 104.244049 102.317527 
L 104.887821 102.980558 
L 105.460062 103.279764 
L 105.996538 103.314785 
L 106.533014 103.114401 
L 107.105256 102.643425 
L 107.749027 101.798931 
L 108.464329 100.473365 
L 109.286926 98.449848 
L 110.216818 95.526093 
L 111.254006 91.477778 
L 112.398488 86.061695 
L 113.650266 79.023628 
L 115.045104 69.86979 
L 116.690298 57.505603 
L 119.30115 37.66672 
L 119.694565 36.187092 
L 119.909156 35.960371 
L 120.052216 36.079133 
L 120.266807 36.655747 
L 120.588693 38.27203 
L 121.160934 42.503789 
L 122.806128 57.117083 
L 124.522852 71.276992 
L 125.91769 80.972299 
L 127.169468 88.168244 
L 128.313951 93.497612 
L 129.351138 97.311136 
L 130.28103 99.92391 
L 131.103627 101.611275 
L 131.818929 102.610056 
L 132.426935 103.120992 
L 132.999177 103.321359 
L 133.535653 103.264585 
L 134.072129 102.973193 
L 134.680136 102.361764 
L 135.359672 101.327959 
L 136.110739 99.758936 
L 136.969101 97.422912 
L 137.934758 94.11018 
L 139.007711 89.589849 
L 140.187959 83.614191 
L 141.511267 75.699747 
L 142.977635 65.521944 
L 144.873185 50.637938 
L 146.446849 38.703395 
L 146.94756 36.380257 
L 147.197915 35.967042 
L 147.340976 36.021894 
L 147.519801 36.395066 
L 147.805922 37.616716 
L 148.270868 40.735718 
L 149.27229 49.358091 
L 151.561256 69.029879 
L 152.991859 79.32222 
L 154.243637 86.811544 
L 155.38812 92.407034 
L 156.425307 96.457598 
L 157.390964 99.37236 
L 158.249326 101.282664 
L 159.000393 102.437529 
L 159.644165 103.049103 
L 160.216406 103.303066 
L 160.752882 103.296069 
L 161.289359 103.054031 
L 161.8616 102.538998 
L 162.505371 101.645371 
L 163.256438 100.186109 
L 164.079035 98.077924 
L 165.008927 95.059505 
L 166.046115 90.906981 
L 167.190597 85.377969 
L 168.47814 77.998971 
L 169.908744 68.430931 
L 171.625468 55.316406 
L 173.878668 38.11378 
L 174.307849 36.299373 
L 174.558205 35.960406 
L 174.701265 36.060988 
L 174.915856 36.612191 
L 175.237741 38.199571 
L 175.809983 42.405604 
L 177.383646 56.378797 
L 179.10037 70.642663 
L 180.495209 80.441846 
L 181.746987 87.733256 
L 182.891469 93.149114 
L 183.928657 97.039642 
L 184.858549 99.720164 
L 185.681146 101.466432 
L 186.396448 102.515676 
L 187.040219 103.09192 
L 187.612461 103.314817 
L 188.148937 103.278968 
L 188.685413 103.008324 
L 189.257654 102.463034 
L 189.901426 101.53566 
L 190.652493 100.037394 
L 191.510855 97.781416 
L 192.476512 94.557704 
L 193.549465 90.134897 
L 194.729712 84.264338 
L 196.017255 76.690653 
L 197.483624 66.661825 
L 199.271878 52.766663 
L 201.131662 38.560105 
L 201.596609 36.41459 
L 201.846964 35.97232 
L 201.990024 36.009028 
L 202.16885 36.36028 
L 202.454971 37.553102 
L 202.919917 40.644605 
L 203.885574 48.928492 
L 206.246069 69.216526 
L 207.676673 79.478622 
L 208.928451 86.940554 
L 210.072933 92.511157 
L 211.110121 96.53954 
L 212.040013 99.341369 
L 212.898375 101.260424 
L 213.649442 102.422827 
L 214.293213 103.040778 
L 214.865455 103.300349 
L 215.401931 103.29856 
L 215.938407 103.061685 
L 216.510649 102.552114 
L 217.15442 101.664577 
L 217.905487 100.212355 
L 218.728084 98.111804 
L 219.657976 95.10192 
L 220.695164 90.95879 
L 221.839646 85.439957 
L 223.127189 78.072049 
L 224.557793 68.515448 
L 226.274517 55.411219 
L 228.527717 38.180054 
L 228.956898 36.330479 
L 229.207254 35.961927 
L 229.350314 36.044394 
L 229.564904 36.570094 
L 229.88679 38.128246 
L 230.459032 42.308122 
L 231.99693 55.95605 
L 233.749419 70.552189 
L 235.144258 80.366034 
L 236.396036 87.67095 
L 237.540518 93.099051 
L 238.577706 97.000484 
L 239.507598 99.690602 
L 240.330195 101.445213 
L 241.045497 102.501604 
L 241.689268 103.0842 
L 242.261509 103.312682 
L 242.797986 103.282021 
L 243.334462 103.01652 
L 243.906703 102.476671 
L 244.550475 101.555365 
L 245.301542 100.064113 
L 246.159904 97.816069 
L 247.089796 94.733105 
L 248.126983 90.509542 
L 249.307231 84.712644 
L 250.594774 77.216532 
L 252.025377 67.52813 
L 253.777867 54.01909 
L 255.816476 38.418923 
L 256.281422 36.346428 
L 256.531778 35.96324 
L 256.674838 36.036692 
L 256.889429 36.549632 
L 257.211315 38.093073 
L 257.747791 41.967133 
L 259.106864 53.985412 
L 260.966648 69.680794 
L 262.361487 79.634902 
L 263.613265 87.06936 
L 264.757747 92.615007 
L 265.794935 96.621153 
L 266.724827 99.403413 
L 267.583189 101.304719 
L 268.334256 102.451835 
L 268.978027 103.056854 
L 269.550269 103.305052 
L 270.086745 103.292702 
L 270.623221 103.045357 
L 271.195463 102.524711 
L 271.839234 101.624823 
L 272.590301 100.158326 
L 273.412898 98.042296 
L 274.34279 95.015106 
L 275.379977 90.852929 
L 276.52446 85.31346 
L 277.812003 77.923075 
L 279.242607 68.343307 
L 280.959331 55.218296 
L 283.176766 38.246576 
L 283.641712 36.268637 
L 283.892068 35.960461 
L 284.035128 36.07974 
L 284.249718 36.657066 
L 284.571604 38.274137 
L 285.143845 42.506557 
L 286.789039 57.119878 
L 288.505763 71.279241 
L 289.900602 80.974048 
L 291.15238 88.169545 
L 292.296862 93.498512 
L 293.33405 97.31168 
L 294.263942 99.924143 
L 295.086539 101.611239 
L 295.801841 102.60979 
L 296.409847 103.120534 
L 296.982088 103.320722 
L 297.518565 103.263781 
L 298.055041 102.972225 
L 298.663047 102.360611 
L 299.342584 101.326603 
L 300.093651 99.757356 
L 300.952013 97.421082 
L 301.91767 94.108072 
L 302.990623 89.587439 
L 304.17087 83.611458 
L 305.494178 75.696671 
L 306.960547 65.518533 
L 308.856096 50.634326 
L 310.42976 38.700801 
L 310.930471 36.379083 
L 311.180827 35.966941 
L 311.323887 36.022454 
L 311.502713 36.396414 
L 311.788833 37.619083 
L 312.289544 41.016777 
L 313.362497 50.331149 
L 315.508402 68.752879 
L 316.939005 79.089712 
L 318.226548 86.813476 
L 319.371031 92.408468 
L 320.408219 96.458589 
L 321.373876 99.372949 
L 322.232238 101.282901 
L 322.983305 102.437464 
L 323.627076 103.048784 
L 324.199318 103.302522 
L 324.735794 103.295317 
L 325.27227 103.053073 
L 325.844511 102.537823 
L 326.488283 101.643953 
L 327.23935 100.184411 
L 328.061947 98.075924 
L 328.991839 95.057167 
L 330.029026 90.904272 
L 331.173509 85.374861 
L 332.461052 77.995431 
L 333.891655 68.426956 
L 335.608379 55.312071 
L 337.825815 38.313414 
L 338.290761 36.29808 
L 338.541116 35.960434 
L 338.684177 36.061815 
L 338.898767 36.614132 
L 339.220653 38.202765 
L 339.792894 42.409882 
L 341.366558 56.383254 
L 343.083282 70.646353 
L 344.47812 80.444802 
L 345.729898 87.735546 
L 346.874381 93.150803 
L 347.911568 97.040799 
L 348.841461 99.720855 
L 349.664058 101.466718 
L 350.379359 102.515615 
L 351.023131 103.091553 
L 351.595372 103.314179 
L 352.131848 103.278079 
L 352.668325 103.007187 
L 353.240566 102.461634 
L 353.884337 101.533968 
L 354.635404 100.035365 
L 355.493766 97.779005 
L 356.459424 94.55487 
L 357.532376 90.1316 
L 358.712624 84.260545 
L 360.000167 76.686343 
L 361.466535 66.656988 
L 363.25479 52.761442 
L 365.114574 38.556397 
L 365.57952 36.412802 
L 365.829876 35.972076 
L 365.972936 36.009744 
L 366.151761 36.362153 
L 366.437882 37.556486 
L 366.902828 40.649402 
L 367.868485 48.934028 
L 370.228981 69.221096 
L 371.659584 79.4823 
L 372.911362 86.943438 
L 374.055845 92.513323 
L 375.093032 96.54107 
L 376.022925 99.342341 
L 376.881287 101.26089 
L 377.632353 102.422858 
L 378.276125 103.040442 
L 378.848366 103.299689 
L 379.384843 103.297601 
L 379.921319 103.060429 
L 380.49356 102.550545 
L 381.137332 101.662658 
L 381.888399 100.210033 
L 382.710995 98.109046 
L 383.640888 95.098679 
L 384.678075 90.95502 
L 385.822558 85.435612 
L 387.110101 78.067084 
L 388.540704 68.509857 
L 390.257428 55.405107 
L 392.510629 38.175925 
L 392.93981 36.328566 
L 393.190165 35.961864 
L 393.333225 36.045461 
L 393.547816 36.572749 
L 393.869702 38.132704 
L 394.441943 42.314157 
L 395.979842 55.962404 
L 397.732331 70.557479 
L 399.127169 80.370309 
L 400.378947 87.6743 
L 401.52343 93.10157 
L 402.560617 97.002264 
L 403.490509 99.691733 
L 404.313106 101.445781 
L 405.028408 102.50169 
L 405.67218 103.083859 
L 406.244421 103.311965 
L 406.780897 103.280955 
L 407.317373 103.015109 
L 407.889615 102.474894 
L 408.533386 101.553182 
L 409.284453 100.061459 
L 410.142815 97.812884 
L 411.072707 94.729351 
L 412.109895 90.505163 
L 413.290143 84.707572 
L 414.577686 77.210732 
L 414.935336 74.918135 
L 414.935336 74.918135 
" style="fill:none;stroke:#ff7f0e;stroke-linecap:square;stroke-width:1.5;"/>
   </g>
   <g id="patch_3">
    <path d="M 53.74375 246.84375 
L 53.74375 25.918125 
" style="fill:none;stroke:#000000;stroke-linecap:square;stroke-linejoin:miter;stroke-width:0.8;"/>
   </g>
   <g id="patch_4">
    <path d="M 414.971101 246.84375 
L 414.971101 25.918125 
" style="fill:none;stroke:#000000;stroke-linecap:square;stroke-linejoin:miter;stroke-width:0.8;"/>
   </g>
   <g id="patch_5">
    <path d="M 53.74375 246.84375 
L 414.971101 246.84375 
" style="fill:none;stroke:#000000;stroke-linecap:square;stroke-linejoin:miter;stroke-width:0.8;"/>
   </g>
   <g id="patch_6">
    <path d="M 53.74375 25.918125 
L 414.971101 25.918125 
" style="fill:none;stroke:#000000;stroke-linecap:square;stroke-linejoin:miter;stroke-width:0.8;"/>
   </g>
   <g id="text_16">
    <!-- $\omega_0=0.8, \lambda_0=0.9$ -->
    <g transform="translate(183.357426 19.918125)scale(0.12 -0.12)">
     <defs>
      <path d="M 21.390625 -1.421875 
Q 1.125 -1.421875 6.78125 27.59375 
Q 8.984375 39.0625 19.625 54.6875 
L 29.296875 54.6875 
Q 19.234375 39.0625 17 27.34375 
Q 12.796875 6.203125 23.734375 6.203125 
Q 33.84375 6.203125 38.71875 32.46875 
L 47.015625 32.46875 
Q 41.703125 6.0625 51.8125 6.203125 
Q 62.703125 6.296875 66.796875 27.34375 
Q 69.046875 39.0625 65.140625 54.6875 
L 74.8125 54.6875 
Q 79.296875 39.0625 77.09375 27.59375 
Q 71.53125 -1.46875 51.21875 -1.421875 
Q 37.9375 -1.375 39.109375 13.1875 
Q 34.28125 -1.421875 21.390625 -1.421875 
z
" id="DejaVuSans-Oblique-969"/>
      <path d="M 10.59375 45.40625 
L 73.1875 45.40625 
L 73.1875 37.203125 
L 10.59375 37.203125 
z
M 10.59375 25.484375 
L 73.1875 25.484375 
L 73.1875 17.1875 
L 10.59375 17.1875 
z
" id="DejaVuSans-61"/>
      <path d="M 11.71875 12.40625 
L 22.015625 12.40625 
L 22.015625 4 
L 14.015625 -11.625 
L 7.71875 -11.625 
L 11.71875 4 
z
" id="DejaVuSans-44"/>
      <path d="M 36.71875 67.4375 
L 48.828125 0 
L 39.3125 0 
L 31.84375 40.4375 
L 5.125 0 
L -4.390625 0 
L 29.734375 52.4375 
L 28.03125 62.109375 
Q 26.953125 68.265625 21.734375 68.265625 
L 17.046875 68.265625 
L 18.5 75.984375 
L 24.21875 75.875 
Q 35.203125 75.734375 36.71875 67.4375 
z
" id="DejaVuSans-Oblique-955"/>
     </defs>
     <use transform="translate(0 0.015625)" xlink:href="#DejaVuSans-Oblique-969"/>
     <use transform="translate(83.740234 -16.390625)scale(0.7)" xlink:href="#DejaVuSans-48"/>
     <use transform="translate(150.493164 0.015625)" xlink:href="#DejaVuSans-61"/>
     <use transform="translate(253.764648 0.015625)" xlink:href="#DejaVuSans-48"/>
     <use transform="translate(317.387695 0.015625)" xlink:href="#DejaVuSans-46"/>
     <use transform="translate(346.549805 0.015625)" xlink:href="#DejaVuSans-56"/>
     <use transform="translate(410.172852 0.015625)" xlink:href="#DejaVuSans-44"/>
     <use transform="translate(461.442383 0.015625)" xlink:href="#DejaVuSans-Oblique-955"/>
     <use transform="translate(520.62207 -16.390625)scale(0.7)" xlink:href="#DejaVuSans-48"/>
     <use transform="translate(587.375 0.015625)" xlink:href="#DejaVuSans-61"/>
     <use transform="translate(690.646484 0.015625)" xlink:href="#DejaVuSans-48"/>
     <use transform="translate(754.269531 0.015625)" xlink:href="#DejaVuSans-46"/>
     <use transform="translate(786.056641 0.015625)" xlink:href="#DejaVuSans-57"/>
    </g>
   </g>
   <g id="legend_1">
    <g id="patch_7">
     <path d="M 367.571101 152.559062 
L 407.971101 152.559062 
Q 409.971101 152.559062 409.971101 150.559062 
L 409.971101 122.202812 
Q 409.971101 120.202812 407.971101 120.202812 
L 367.571101 120.202812 
Q 365.571101 120.202812 365.571101 122.202812 
L 365.571101 150.559062 
Q 365.571101 152.559062 367.571101 152.559062 
z
" style="fill:#ffffff;opacity:0.8;stroke:#cccccc;stroke-linejoin:miter;"/>
    </g>
    <g id="line2d_16">
     <path d="M 369.571101 128.30125 
L 389.571101 128.30125 
" style="fill:none;stroke:#1f77b4;stroke-linecap:square;stroke-width:1.5;"/>
    </g>
    <g id="line2d_17"/>
    <g id="text_17">
     <!-- $\omega$ -->
     <g transform="translate(397.571101 131.80125)scale(0.1 -0.1)">
      <use transform="translate(0 0.3125)" xlink:href="#DejaVuSans-Oblique-969"/>
     </g>
    </g>
    <g id="line2d_18">
     <path d="M 369.571101 142.979375 
L 389.571101 142.979375 
" style="fill:none;stroke:#ff7f0e;stroke-linecap:square;stroke-width:1.5;"/>
    </g>
    <g id="line2d_19"/>
    <g id="text_18">
     <!-- $\lambda$ -->
     <g transform="translate(397.571101 146.479375)scale(0.1 -0.1)">
      <use transform="translate(0 0.015625)" xlink:href="#DejaVuSans-Oblique-955"/>
     </g>
    </g>
   </g>
  </g>
 </g>
 <defs>
  <clipPath id="p31aedad5cb">
   <rect height="220.925625" width="361.227351" x="53.74375" y="25.918125"/>
  </clipPath>
 </defs>
</svg>
