<?xml version="1.0" encoding="utf-8" standalone="no"?>
<!DOCTYPE svg PUBLIC "-//W3C//DTD SVG 1.1//EN"
  "http://www.w3.org/Graphics/SVG/1.1/DTD/svg11.dtd">
<!-- Created with matplotlib (https://matplotlib.org/) -->
<svg height="316.8pt" version="1.1" viewBox="0 0 504 316.8" width="504pt" xmlns="http://www.w3.org/2000/svg" xmlns:xlink="http://www.w3.org/1999/xlink">
 <metadata>
  <rdf:RDF xmlns:cc="http://creativecommons.org/ns#" xmlns:dc="http://purl.org/dc/elements/1.1/" xmlns:rdf="http://www.w3.org/1999/02/22-rdf-syntax-ns#">
   <cc:Work>
    <dc:type rdf:resource="http://purl.org/dc/dcmitype/StillImage"/>
    <dc:date>2020-12-13T14:41:52.171605</dc:date>
    <dc:format>image/svg+xml</dc:format>
    <dc:creator>
     <cc:Agent>
      <dc:title>Matplotlib v3.3.2, https://matplotlib.org/</dc:title>
     </cc:Agent>
    </dc:creator>
   </cc:Work>
  </rdf:RDF>
 </metadata>
 <defs>
  <style type="text/css">*{stroke-linecap:butt;stroke-linejoin:round;}</style>
 </defs>
 <g id="figure_1">
  <g id="patch_1">
   <path d="M 0 316.8 
L 504 316.8 
L 504 0 
L 0 0 
z
" style="fill:#ffffff;"/>
  </g>
  <g id="axes_1">
   <g id="patch_2">
    <path d="M 47.38125 275.64375 
L 450.25625 275.64375 
L 450.25625 25.918125 
L 47.38125 25.918125 
z
" style="fill:#ffffff;"/>
   </g>
   <g id="matplotlib.axis_1">
    <g id="xtick_1">
     <g id="line2d_1">
      <defs>
       <path d="M 0 0 
L 0 3.5 
" id="m2d40ab89b7" style="stroke:#000000;stroke-width:0.8;"/>
      </defs>
      <g>
       <use style="stroke:#000000;stroke-width:0.8;" x="47.38125" xlink:href="#m2d40ab89b7" y="275.64375"/>
      </g>
     </g>
     <g id="text_1">
      <!-- 0 -->
      <g transform="translate(44.2 290.242188)scale(0.1 -0.1)">
       <defs>
        <path d="M 31.78125 66.40625 
Q 24.171875 66.40625 20.328125 58.90625 
Q 16.5 51.421875 16.5 36.375 
Q 16.5 21.390625 20.328125 13.890625 
Q 24.171875 6.390625 31.78125 6.390625 
Q 39.453125 6.390625 43.28125 13.890625 
Q 47.125 21.390625 47.125 36.375 
Q 47.125 51.421875 43.28125 58.90625 
Q 39.453125 66.40625 31.78125 66.40625 
z
M 31.78125 74.21875 
Q 44.046875 74.21875 50.515625 64.515625 
Q 56.984375 54.828125 56.984375 36.375 
Q 56.984375 17.96875 50.515625 8.265625 
Q 44.046875 -1.421875 31.78125 -1.421875 
Q 19.53125 -1.421875 13.0625 8.265625 
Q 6.59375 17.96875 6.59375 36.375 
Q 6.59375 54.828125 13.0625 64.515625 
Q 19.53125 74.21875 31.78125 74.21875 
z
" id="DejaVuSans-48"/>
       </defs>
       <use xlink:href="#DejaVuSans-48"/>
      </g>
     </g>
    </g>
    <g id="xtick_2">
     <g id="line2d_2">
      <g>
       <use style="stroke:#000000;stroke-width:0.8;" x="114.306231" xlink:href="#m2d40ab89b7" y="275.64375"/>
      </g>
     </g>
     <g id="text_2">
      <!-- 50 -->
      <g transform="translate(107.943731 290.242188)scale(0.1 -0.1)">
       <defs>
        <path d="M 10.796875 72.90625 
L 49.515625 72.90625 
L 49.515625 64.59375 
L 19.828125 64.59375 
L 19.828125 46.734375 
Q 21.96875 47.46875 24.109375 47.828125 
Q 26.265625 48.1875 28.421875 48.1875 
Q 40.625 48.1875 47.75 41.5 
Q 54.890625 34.8125 54.890625 23.390625 
Q 54.890625 11.625 47.5625 5.09375 
Q 40.234375 -1.421875 26.90625 -1.421875 
Q 22.3125 -1.421875 17.546875 -0.640625 
Q 12.796875 0.140625 7.71875 1.703125 
L 7.71875 11.625 
Q 12.109375 9.234375 16.796875 8.0625 
Q 21.484375 6.890625 26.703125 6.890625 
Q 35.15625 6.890625 40.078125 11.328125 
Q 45.015625 15.765625 45.015625 23.390625 
Q 45.015625 31 40.078125 35.4375 
Q 35.15625 39.890625 26.703125 39.890625 
Q 22.75 39.890625 18.8125 39.015625 
Q 14.890625 38.140625 10.796875 36.28125 
z
" id="DejaVuSans-53"/>
       </defs>
       <use xlink:href="#DejaVuSans-53"/>
       <use x="63.623047" xlink:href="#DejaVuSans-48"/>
      </g>
     </g>
    </g>
    <g id="xtick_3">
     <g id="line2d_3">
      <g>
       <use style="stroke:#000000;stroke-width:0.8;" x="181.231212" xlink:href="#m2d40ab89b7" y="275.64375"/>
      </g>
     </g>
     <g id="text_3">
      <!-- 100 -->
      <g transform="translate(171.687462 290.242188)scale(0.1 -0.1)">
       <defs>
        <path d="M 12.40625 8.296875 
L 28.515625 8.296875 
L 28.515625 63.921875 
L 10.984375 60.40625 
L 10.984375 69.390625 
L 28.421875 72.90625 
L 38.28125 72.90625 
L 38.28125 8.296875 
L 54.390625 8.296875 
L 54.390625 0 
L 12.40625 0 
z
" id="DejaVuSans-49"/>
       </defs>
       <use xlink:href="#DejaVuSans-49"/>
       <use x="63.623047" xlink:href="#DejaVuSans-48"/>
       <use x="127.246094" xlink:href="#DejaVuSans-48"/>
      </g>
     </g>
    </g>
    <g id="xtick_4">
     <g id="line2d_4">
      <g>
       <use style="stroke:#000000;stroke-width:0.8;" x="248.156193" xlink:href="#m2d40ab89b7" y="275.64375"/>
      </g>
     </g>
     <g id="text_4">
      <!-- 150 -->
      <g transform="translate(238.612443 290.242188)scale(0.1 -0.1)">
       <use xlink:href="#DejaVuSans-49"/>
       <use x="63.623047" xlink:href="#DejaVuSans-53"/>
       <use x="127.246094" xlink:href="#DejaVuSans-48"/>
      </g>
     </g>
    </g>
    <g id="xtick_5">
     <g id="line2d_5">
      <g>
       <use style="stroke:#000000;stroke-width:0.8;" x="315.081174" xlink:href="#m2d40ab89b7" y="275.64375"/>
      </g>
     </g>
     <g id="text_5">
      <!-- 200 -->
      <g transform="translate(305.537424 290.242188)scale(0.1 -0.1)">
       <defs>
        <path d="M 19.1875 8.296875 
L 53.609375 8.296875 
L 53.609375 0 
L 7.328125 0 
L 7.328125 8.296875 
Q 12.9375 14.109375 22.625 23.890625 
Q 32.328125 33.6875 34.8125 36.53125 
Q 39.546875 41.84375 41.421875 45.53125 
Q 43.3125 49.21875 43.3125 52.78125 
Q 43.3125 58.59375 39.234375 62.25 
Q 35.15625 65.921875 28.609375 65.921875 
Q 23.96875 65.921875 18.8125 64.3125 
Q 13.671875 62.703125 7.8125 59.421875 
L 7.8125 69.390625 
Q 13.765625 71.78125 18.9375 73 
Q 24.125 74.21875 28.421875 74.21875 
Q 39.75 74.21875 46.484375 68.546875 
Q 53.21875 62.890625 53.21875 53.421875 
Q 53.21875 48.921875 51.53125 44.890625 
Q 49.859375 40.875 45.40625 35.40625 
Q 44.1875 33.984375 37.640625 27.21875 
Q 31.109375 20.453125 19.1875 8.296875 
z
" id="DejaVuSans-50"/>
       </defs>
       <use xlink:href="#DejaVuSans-50"/>
       <use x="63.623047" xlink:href="#DejaVuSans-48"/>
       <use x="127.246094" xlink:href="#DejaVuSans-48"/>
      </g>
     </g>
    </g>
    <g id="xtick_6">
     <g id="line2d_6">
      <g>
       <use style="stroke:#000000;stroke-width:0.8;" x="382.006154" xlink:href="#m2d40ab89b7" y="275.64375"/>
      </g>
     </g>
     <g id="text_6">
      <!-- 250 -->
      <g transform="translate(372.462404 290.242188)scale(0.1 -0.1)">
       <use xlink:href="#DejaVuSans-50"/>
       <use x="63.623047" xlink:href="#DejaVuSans-53"/>
       <use x="127.246094" xlink:href="#DejaVuSans-48"/>
      </g>
     </g>
    </g>
    <g id="xtick_7">
     <g id="line2d_7">
      <g>
       <use style="stroke:#000000;stroke-width:0.8;" x="448.931135" xlink:href="#m2d40ab89b7" y="275.64375"/>
      </g>
     </g>
     <g id="text_7">
      <!-- 300 -->
      <g transform="translate(439.387385 290.242188)scale(0.1 -0.1)">
       <defs>
        <path d="M 40.578125 39.3125 
Q 47.65625 37.796875 51.625 33 
Q 55.609375 28.21875 55.609375 21.1875 
Q 55.609375 10.40625 48.1875 4.484375 
Q 40.765625 -1.421875 27.09375 -1.421875 
Q 22.515625 -1.421875 17.65625 -0.515625 
Q 12.796875 0.390625 7.625 2.203125 
L 7.625 11.71875 
Q 11.71875 9.328125 16.59375 8.109375 
Q 21.484375 6.890625 26.8125 6.890625 
Q 36.078125 6.890625 40.9375 10.546875 
Q 45.796875 14.203125 45.796875 21.1875 
Q 45.796875 27.640625 41.28125 31.265625 
Q 36.765625 34.90625 28.71875 34.90625 
L 20.21875 34.90625 
L 20.21875 43.015625 
L 29.109375 43.015625 
Q 36.375 43.015625 40.234375 45.921875 
Q 44.09375 48.828125 44.09375 54.296875 
Q 44.09375 59.90625 40.109375 62.90625 
Q 36.140625 65.921875 28.71875 65.921875 
Q 24.65625 65.921875 20.015625 65.03125 
Q 15.375 64.15625 9.8125 62.3125 
L 9.8125 71.09375 
Q 15.4375 72.65625 20.34375 73.4375 
Q 25.25 74.21875 29.59375 74.21875 
Q 40.828125 74.21875 47.359375 69.109375 
Q 53.90625 64.015625 53.90625 55.328125 
Q 53.90625 49.265625 50.4375 45.09375 
Q 46.96875 40.921875 40.578125 39.3125 
z
" id="DejaVuSans-51"/>
       </defs>
       <use xlink:href="#DejaVuSans-51"/>
       <use x="63.623047" xlink:href="#DejaVuSans-48"/>
       <use x="127.246094" xlink:href="#DejaVuSans-48"/>
      </g>
     </g>
    </g>
    <g id="text_8">
     <!-- Time (years) -->
     <g transform="translate(217.334375 303.920313)scale(0.1 -0.1)">
      <defs>
       <path d="M -0.296875 72.90625 
L 61.375 72.90625 
L 61.375 64.59375 
L 35.5 64.59375 
L 35.5 0 
L 25.59375 0 
L 25.59375 64.59375 
L -0.296875 64.59375 
z
" id="DejaVuSans-84"/>
       <path d="M 9.421875 54.6875 
L 18.40625 54.6875 
L 18.40625 0 
L 9.421875 0 
z
M 9.421875 75.984375 
L 18.40625 75.984375 
L 18.40625 64.59375 
L 9.421875 64.59375 
z
" id="DejaVuSans-105"/>
       <path d="M 52 44.1875 
Q 55.375 50.25 60.0625 53.125 
Q 64.75 56 71.09375 56 
Q 79.640625 56 84.28125 50.015625 
Q 88.921875 44.046875 88.921875 33.015625 
L 88.921875 0 
L 79.890625 0 
L 79.890625 32.71875 
Q 79.890625 40.578125 77.09375 44.375 
Q 74.3125 48.1875 68.609375 48.1875 
Q 61.625 48.1875 57.5625 43.546875 
Q 53.515625 38.921875 53.515625 30.90625 
L 53.515625 0 
L 44.484375 0 
L 44.484375 32.71875 
Q 44.484375 40.625 41.703125 44.40625 
Q 38.921875 48.1875 33.109375 48.1875 
Q 26.21875 48.1875 22.15625 43.53125 
Q 18.109375 38.875 18.109375 30.90625 
L 18.109375 0 
L 9.078125 0 
L 9.078125 54.6875 
L 18.109375 54.6875 
L 18.109375 46.1875 
Q 21.1875 51.21875 25.484375 53.609375 
Q 29.78125 56 35.6875 56 
Q 41.65625 56 45.828125 52.96875 
Q 50 49.953125 52 44.1875 
z
" id="DejaVuSans-109"/>
       <path d="M 56.203125 29.59375 
L 56.203125 25.203125 
L 14.890625 25.203125 
Q 15.484375 15.921875 20.484375 11.0625 
Q 25.484375 6.203125 34.421875 6.203125 
Q 39.59375 6.203125 44.453125 7.46875 
Q 49.3125 8.734375 54.109375 11.28125 
L 54.109375 2.78125 
Q 49.265625 0.734375 44.1875 -0.34375 
Q 39.109375 -1.421875 33.890625 -1.421875 
Q 20.796875 -1.421875 13.15625 6.1875 
Q 5.515625 13.8125 5.515625 26.8125 
Q 5.515625 40.234375 12.765625 48.109375 
Q 20.015625 56 32.328125 56 
Q 43.359375 56 49.78125 48.890625 
Q 56.203125 41.796875 56.203125 29.59375 
z
M 47.21875 32.234375 
Q 47.125 39.59375 43.09375 43.984375 
Q 39.0625 48.390625 32.421875 48.390625 
Q 24.90625 48.390625 20.390625 44.140625 
Q 15.875 39.890625 15.1875 32.171875 
z
" id="DejaVuSans-101"/>
       <path id="DejaVuSans-32"/>
       <path d="M 31 75.875 
Q 24.46875 64.65625 21.28125 53.65625 
Q 18.109375 42.671875 18.109375 31.390625 
Q 18.109375 20.125 21.3125 9.0625 
Q 24.515625 -2 31 -13.1875 
L 23.1875 -13.1875 
Q 15.875 -1.703125 12.234375 9.375 
Q 8.59375 20.453125 8.59375 31.390625 
Q 8.59375 42.28125 12.203125 53.3125 
Q 15.828125 64.359375 23.1875 75.875 
z
" id="DejaVuSans-40"/>
       <path d="M 32.171875 -5.078125 
Q 28.375 -14.84375 24.75 -17.8125 
Q 21.140625 -20.796875 15.09375 -20.796875 
L 7.90625 -20.796875 
L 7.90625 -13.28125 
L 13.1875 -13.28125 
Q 16.890625 -13.28125 18.9375 -11.515625 
Q 21 -9.765625 23.484375 -3.21875 
L 25.09375 0.875 
L 2.984375 54.6875 
L 12.5 54.6875 
L 29.59375 11.921875 
L 46.6875 54.6875 
L 56.203125 54.6875 
z
" id="DejaVuSans-121"/>
       <path d="M 34.28125 27.484375 
Q 23.390625 27.484375 19.1875 25 
Q 14.984375 22.515625 14.984375 16.5 
Q 14.984375 11.71875 18.140625 8.90625 
Q 21.296875 6.109375 26.703125 6.109375 
Q 34.1875 6.109375 38.703125 11.40625 
Q 43.21875 16.703125 43.21875 25.484375 
L 43.21875 27.484375 
z
M 52.203125 31.203125 
L 52.203125 0 
L 43.21875 0 
L 43.21875 8.296875 
Q 40.140625 3.328125 35.546875 0.953125 
Q 30.953125 -1.421875 24.3125 -1.421875 
Q 15.921875 -1.421875 10.953125 3.296875 
Q 6 8.015625 6 15.921875 
Q 6 25.140625 12.171875 29.828125 
Q 18.359375 34.515625 30.609375 34.515625 
L 43.21875 34.515625 
L 43.21875 35.40625 
Q 43.21875 41.609375 39.140625 45 
Q 35.0625 48.390625 27.6875 48.390625 
Q 23 48.390625 18.546875 47.265625 
Q 14.109375 46.140625 10.015625 43.890625 
L 10.015625 52.203125 
Q 14.9375 54.109375 19.578125 55.046875 
Q 24.21875 56 28.609375 56 
Q 40.484375 56 46.34375 49.84375 
Q 52.203125 43.703125 52.203125 31.203125 
z
" id="DejaVuSans-97"/>
       <path d="M 41.109375 46.296875 
Q 39.59375 47.171875 37.8125 47.578125 
Q 36.03125 48 33.890625 48 
Q 26.265625 48 22.1875 43.046875 
Q 18.109375 38.09375 18.109375 28.8125 
L 18.109375 0 
L 9.078125 0 
L 9.078125 54.6875 
L 18.109375 54.6875 
L 18.109375 46.1875 
Q 20.953125 51.171875 25.484375 53.578125 
Q 30.03125 56 36.53125 56 
Q 37.453125 56 38.578125 55.875 
Q 39.703125 55.765625 41.0625 55.515625 
z
" id="DejaVuSans-114"/>
       <path d="M 44.28125 53.078125 
L 44.28125 44.578125 
Q 40.484375 46.53125 36.375 47.5 
Q 32.28125 48.484375 27.875 48.484375 
Q 21.1875 48.484375 17.84375 46.4375 
Q 14.5 44.390625 14.5 40.28125 
Q 14.5 37.15625 16.890625 35.375 
Q 19.28125 33.59375 26.515625 31.984375 
L 29.59375 31.296875 
Q 39.15625 29.25 43.1875 25.515625 
Q 47.21875 21.78125 47.21875 15.09375 
Q 47.21875 7.46875 41.1875 3.015625 
Q 35.15625 -1.421875 24.609375 -1.421875 
Q 20.21875 -1.421875 15.453125 -0.5625 
Q 10.6875 0.296875 5.421875 2 
L 5.421875 11.28125 
Q 10.40625 8.6875 15.234375 7.390625 
Q 20.0625 6.109375 24.8125 6.109375 
Q 31.15625 6.109375 34.5625 8.28125 
Q 37.984375 10.453125 37.984375 14.40625 
Q 37.984375 18.0625 35.515625 20.015625 
Q 33.0625 21.96875 24.703125 23.78125 
L 21.578125 24.515625 
Q 13.234375 26.265625 9.515625 29.90625 
Q 5.8125 33.546875 5.8125 39.890625 
Q 5.8125 47.609375 11.28125 51.796875 
Q 16.75 56 26.8125 56 
Q 31.78125 56 36.171875 55.265625 
Q 40.578125 54.546875 44.28125 53.078125 
z
" id="DejaVuSans-115"/>
       <path d="M 8.015625 75.875 
L 15.828125 75.875 
Q 23.140625 64.359375 26.78125 53.3125 
Q 30.421875 42.28125 30.421875 31.390625 
Q 30.421875 20.453125 26.78125 9.375 
Q 23.140625 -1.703125 15.828125 -13.1875 
L 8.015625 -13.1875 
Q 14.5 -2 17.703125 9.0625 
Q 20.90625 20.125 20.90625 31.390625 
Q 20.90625 42.671875 17.703125 53.65625 
Q 14.5 64.65625 8.015625 75.875 
z
" id="DejaVuSans-41"/>
      </defs>
      <use xlink:href="#DejaVuSans-84"/>
      <use x="57.958984" xlink:href="#DejaVuSans-105"/>
      <use x="85.742188" xlink:href="#DejaVuSans-109"/>
      <use x="183.154297" xlink:href="#DejaVuSans-101"/>
      <use x="244.677734" xlink:href="#DejaVuSans-32"/>
      <use x="276.464844" xlink:href="#DejaVuSans-40"/>
      <use x="315.478516" xlink:href="#DejaVuSans-121"/>
      <use x="374.658203" xlink:href="#DejaVuSans-101"/>
      <use x="436.181641" xlink:href="#DejaVuSans-97"/>
      <use x="497.460938" xlink:href="#DejaVuSans-114"/>
      <use x="538.574219" xlink:href="#DejaVuSans-115"/>
      <use x="590.673828" xlink:href="#DejaVuSans-41"/>
     </g>
    </g>
   </g>
   <g id="matplotlib.axis_2">
    <g id="ytick_1">
     <g id="line2d_8">
      <defs>
       <path d="M 0 0 
L -3.5 0 
" id="m2a06f97e25" style="stroke:#000000;stroke-width:0.8;"/>
      </defs>
      <g>
       <use style="stroke:#000000;stroke-width:0.8;" x="47.38125" xlink:href="#m2a06f97e25" y="261.91753"/>
      </g>
     </g>
     <g id="text_9">
      <!-- 0.7 -->
      <g transform="translate(24.478125 265.716748)scale(0.1 -0.1)">
       <defs>
        <path d="M 10.6875 12.40625 
L 21 12.40625 
L 21 0 
L 10.6875 0 
z
" id="DejaVuSans-46"/>
        <path d="M 8.203125 72.90625 
L 55.078125 72.90625 
L 55.078125 68.703125 
L 28.609375 0 
L 18.3125 0 
L 43.21875 64.59375 
L 8.203125 64.59375 
z
" id="DejaVuSans-55"/>
       </defs>
       <use xlink:href="#DejaVuSans-48"/>
       <use x="63.623047" xlink:href="#DejaVuSans-46"/>
       <use x="95.410156" xlink:href="#DejaVuSans-55"/>
      </g>
     </g>
    </g>
    <g id="ytick_2">
     <g id="line2d_9">
      <g>
       <use style="stroke:#000000;stroke-width:0.8;" x="47.38125" xlink:href="#m2a06f97e25" y="213.165019"/>
      </g>
     </g>
     <g id="text_10">
      <!-- 0.8 -->
      <g transform="translate(24.478125 216.964238)scale(0.1 -0.1)">
       <defs>
        <path d="M 31.78125 34.625 
Q 24.75 34.625 20.71875 30.859375 
Q 16.703125 27.09375 16.703125 20.515625 
Q 16.703125 13.921875 20.71875 10.15625 
Q 24.75 6.390625 31.78125 6.390625 
Q 38.8125 6.390625 42.859375 10.171875 
Q 46.921875 13.96875 46.921875 20.515625 
Q 46.921875 27.09375 42.890625 30.859375 
Q 38.875 34.625 31.78125 34.625 
z
M 21.921875 38.8125 
Q 15.578125 40.375 12.03125 44.71875 
Q 8.5 49.078125 8.5 55.328125 
Q 8.5 64.0625 14.71875 69.140625 
Q 20.953125 74.21875 31.78125 74.21875 
Q 42.671875 74.21875 48.875 69.140625 
Q 55.078125 64.0625 55.078125 55.328125 
Q 55.078125 49.078125 51.53125 44.71875 
Q 48 40.375 41.703125 38.8125 
Q 48.828125 37.15625 52.796875 32.3125 
Q 56.78125 27.484375 56.78125 20.515625 
Q 56.78125 9.90625 50.3125 4.234375 
Q 43.84375 -1.421875 31.78125 -1.421875 
Q 19.734375 -1.421875 13.25 4.234375 
Q 6.78125 9.90625 6.78125 20.515625 
Q 6.78125 27.484375 10.78125 32.3125 
Q 14.796875 37.15625 21.921875 38.8125 
z
M 18.3125 54.390625 
Q 18.3125 48.734375 21.84375 45.5625 
Q 25.390625 42.390625 31.78125 42.390625 
Q 38.140625 42.390625 41.71875 45.5625 
Q 45.3125 48.734375 45.3125 54.390625 
Q 45.3125 60.0625 41.71875 63.234375 
Q 38.140625 66.40625 31.78125 66.40625 
Q 25.390625 66.40625 21.84375 63.234375 
Q 18.3125 60.0625 18.3125 54.390625 
z
" id="DejaVuSans-56"/>
       </defs>
       <use xlink:href="#DejaVuSans-48"/>
       <use x="63.623047" xlink:href="#DejaVuSans-46"/>
       <use x="95.410156" xlink:href="#DejaVuSans-56"/>
      </g>
     </g>
    </g>
    <g id="ytick_3">
     <g id="line2d_10">
      <g>
       <use style="stroke:#000000;stroke-width:0.8;" x="47.38125" xlink:href="#m2a06f97e25" y="164.412508"/>
      </g>
     </g>
     <g id="text_11">
      <!-- 0.9 -->
      <g transform="translate(24.478125 168.211727)scale(0.1 -0.1)">
       <defs>
        <path d="M 10.984375 1.515625 
L 10.984375 10.5 
Q 14.703125 8.734375 18.5 7.8125 
Q 22.3125 6.890625 25.984375 6.890625 
Q 35.75 6.890625 40.890625 13.453125 
Q 46.046875 20.015625 46.78125 33.40625 
Q 43.953125 29.203125 39.59375 26.953125 
Q 35.25 24.703125 29.984375 24.703125 
Q 19.046875 24.703125 12.671875 31.3125 
Q 6.296875 37.9375 6.296875 49.421875 
Q 6.296875 60.640625 12.9375 67.421875 
Q 19.578125 74.21875 30.609375 74.21875 
Q 43.265625 74.21875 49.921875 64.515625 
Q 56.59375 54.828125 56.59375 36.375 
Q 56.59375 19.140625 48.40625 8.859375 
Q 40.234375 -1.421875 26.421875 -1.421875 
Q 22.703125 -1.421875 18.890625 -0.6875 
Q 15.09375 0.046875 10.984375 1.515625 
z
M 30.609375 32.421875 
Q 37.25 32.421875 41.125 36.953125 
Q 45.015625 41.5 45.015625 49.421875 
Q 45.015625 57.28125 41.125 61.84375 
Q 37.25 66.40625 30.609375 66.40625 
Q 23.96875 66.40625 20.09375 61.84375 
Q 16.21875 57.28125 16.21875 49.421875 
Q 16.21875 41.5 20.09375 36.953125 
Q 23.96875 32.421875 30.609375 32.421875 
z
" id="DejaVuSans-57"/>
       </defs>
       <use xlink:href="#DejaVuSans-48"/>
       <use x="63.623047" xlink:href="#DejaVuSans-46"/>
       <use x="95.410156" xlink:href="#DejaVuSans-57"/>
      </g>
     </g>
    </g>
    <g id="ytick_4">
     <g id="line2d_11">
      <g>
       <use style="stroke:#000000;stroke-width:0.8;" x="47.38125" xlink:href="#m2a06f97e25" y="115.659997"/>
      </g>
     </g>
     <g id="text_12">
      <!-- 1.0 -->
      <g transform="translate(24.478125 119.459216)scale(0.1 -0.1)">
       <use xlink:href="#DejaVuSans-49"/>
       <use x="63.623047" xlink:href="#DejaVuSans-46"/>
       <use x="95.410156" xlink:href="#DejaVuSans-48"/>
      </g>
     </g>
    </g>
    <g id="ytick_5">
     <g id="line2d_12">
      <g>
       <use style="stroke:#000000;stroke-width:0.8;" x="47.38125" xlink:href="#m2a06f97e25" y="66.907487"/>
      </g>
     </g>
     <g id="text_13">
      <!-- 1.1 -->
      <g transform="translate(24.478125 70.706705)scale(0.1 -0.1)">
       <use xlink:href="#DejaVuSans-49"/>
       <use x="63.623047" xlink:href="#DejaVuSans-46"/>
       <use x="95.410156" xlink:href="#DejaVuSans-49"/>
      </g>
     </g>
    </g>
    <g id="text_14">
     <!-- Rates -->
     <g transform="translate(18.398438 164.848125)rotate(-90)scale(0.1 -0.1)">
      <defs>
       <path d="M 44.390625 34.1875 
Q 47.5625 33.109375 50.5625 29.59375 
Q 53.5625 26.078125 56.59375 19.921875 
L 66.609375 0 
L 56 0 
L 46.6875 18.703125 
Q 43.0625 26.03125 39.671875 28.421875 
Q 36.28125 30.8125 30.421875 30.8125 
L 19.671875 30.8125 
L 19.671875 0 
L 9.8125 0 
L 9.8125 72.90625 
L 32.078125 72.90625 
Q 44.578125 72.90625 50.734375 67.671875 
Q 56.890625 62.453125 56.890625 51.90625 
Q 56.890625 45.015625 53.6875 40.46875 
Q 50.484375 35.9375 44.390625 34.1875 
z
M 19.671875 64.796875 
L 19.671875 38.921875 
L 32.078125 38.921875 
Q 39.203125 38.921875 42.84375 42.21875 
Q 46.484375 45.515625 46.484375 51.90625 
Q 46.484375 58.296875 42.84375 61.546875 
Q 39.203125 64.796875 32.078125 64.796875 
z
" id="DejaVuSans-82"/>
       <path d="M 18.3125 70.21875 
L 18.3125 54.6875 
L 36.8125 54.6875 
L 36.8125 47.703125 
L 18.3125 47.703125 
L 18.3125 18.015625 
Q 18.3125 11.328125 20.140625 9.421875 
Q 21.96875 7.515625 27.59375 7.515625 
L 36.8125 7.515625 
L 36.8125 0 
L 27.59375 0 
Q 17.1875 0 13.234375 3.875 
Q 9.28125 7.765625 9.28125 18.015625 
L 9.28125 47.703125 
L 2.6875 47.703125 
L 2.6875 54.6875 
L 9.28125 54.6875 
L 9.28125 70.21875 
z
" id="DejaVuSans-116"/>
      </defs>
      <use xlink:href="#DejaVuSans-82"/>
      <use x="67.232422" xlink:href="#DejaVuSans-97"/>
      <use x="128.511719" xlink:href="#DejaVuSans-116"/>
      <use x="167.720703" xlink:href="#DejaVuSans-101"/>
      <use x="229.244141" xlink:href="#DejaVuSans-115"/>
     </g>
    </g>
   </g>
   <g id="line2d_13">
    <path clip-path="url(#p9f76f61a4a)" d="M 47.38125 237.541274 
L 48.42528 253.900465 
L 48.438665 253.904021 
L 48.45205 253.845366 
L 48.492205 252.868401 
L 48.53236 246.145139 
L 48.93391 43.768554 
L 49.148069 37.753691 
L 49.255149 37.26929 
L 49.295304 37.324662 
L 49.415769 38.038496 
L 49.670084 41.273852 
L 50.205484 51.546953 
L 51.637679 84.609537 
L 54.595763 151.843496 
L 56.871212 198.421525 
L 59.052967 238.632666 
L 60.404851 260.26632 
L 60.471776 260.611698 
L 60.511931 260.28665 
L 60.565471 256.953192 
L 60.605626 238.407132 
L 60.833171 95.095841 
L 61.060716 77.703838 
L 61.274876 74.631712 
L 61.315031 74.59013 
L 61.355186 74.655383 
L 61.475651 75.351665 
L 61.743351 78.606222 
L 62.305521 88.829109 
L 63.871565 122.734233 
L 66.695799 182.462619 
L 68.957864 225.566227 
L 70.898688 258.613391 
L 71.286853 263.161225 
L 71.300238 263.118258 
L 71.353778 262.004239 
L 71.407318 253.837792 
L 71.808868 96.709523 
L 72.036413 91.095597 
L 72.130108 90.75037 
L 72.183648 90.830234 
L 72.317498 91.647331 
L 72.598583 95.119519 
L 73.200908 105.97056 
L 75.034652 144.633284 
L 77.684881 198.483611 
L 79.906791 239.171758 
L 81.40591 263.223817 
L 81.526375 264.125844 
L 81.56653 263.933904 
L 81.62007 262.04848 
L 81.67361 248.839951 
L 81.954695 113.426252 
L 82.18224 101.357021 
L 82.383015 99.494398 
L 82.44994 99.606906 
L 82.597175 100.590094 
L 82.90503 104.556535 
L 83.560895 116.498408 
L 86.184354 170.847684 
L 88.593653 217.525551 
L 90.695098 254.090665 
L 91.431272 264.272693 
L 91.444657 264.292585 
L 91.471427 264.211923 
L 91.524967 263.020126 
L 91.578507 255.81907 
L 91.698972 162.23415 
L 91.899747 116.572062 
L 92.127292 106.462423 
L 92.314682 105.073152 
L 92.381607 105.220921 
L 92.542227 106.377624 
L 92.876852 110.8573 
L 93.599642 124.191169 
L 99.30165 235.743715 
L 100.93462 262.32269 
L 101.12201 263.983481 
L 101.14878 263.910734 
L 101.20232 262.81272 
L 101.25586 256.623537 
L 101.33617 196.402168 
L 101.52356 127.060379 
L 101.751104 111.933979 
L 101.951879 109.304437 
L 102.005419 109.25329 
L 102.045574 109.329615 
L 102.179424 110.122286 
L 102.460509 113.468986 
L 103.062834 123.916906 
L 104.896579 161.14855 
L 107.533423 212.739198 
L 109.675022 250.402133 
L 110.558432 263.213737 
L 110.598587 263.344053 
L 110.638742 263.143321 
L 110.692282 261.485869 
L 110.745822 252.408428 
L 111.133987 119.280182 
L 111.361532 113.319239 
L 111.468612 112.866865 
L 111.508767 112.903977 
L 111.615847 113.398718 
L 111.856777 115.894873 
L 112.352021 123.869363 
L 113.596826 148.468044 
L 116.79584 211.525918 
L 118.93744 249.261396 
L 119.834234 262.294152 
L 119.874389 262.437403 
L 119.914544 262.275458 
L 119.981469 259.982459 
L 120.035009 248.836686 
L 120.369634 125.694946 
L 120.597179 117.355401 
L 120.757799 116.357595 
L 120.771184 116.363455 
L 120.851494 116.60077 
L 121.038884 118.136216 
L 121.427049 123.648661 
L 122.297074 139.929767 
L 126.794432 227.209911 
L 128.614792 257.676976 
L 128.949417 261.294934 
L 128.962802 261.282198 
L 129.016342 260.684121 
L 129.083267 255.884413 
L 129.150192 223.87953 
L 129.364352 137.510656 
L 129.591897 122.639535 
L 129.806056 119.975994 
L 129.846211 119.947795 
L 129.886366 120.014703 
L 130.020216 120.768447 
L 130.301301 124.010816 
L 130.890241 133.944617 
L 132.643676 168.69428 
L 135.30729 219.740966 
L 137.288269 253.660968 
L 137.796899 259.922624 
L 137.823669 259.883283 
L 137.877209 259.114857 
L 137.944134 253.622365 
L 138.024444 211.586587 
L 138.225219 140.812982 
L 138.452764 126.352315 
L 138.653539 123.789455 
L 138.707079 123.733655 
L 138.747234 123.802961 
L 138.881084 124.556573 
L 139.162169 127.776084 
L 139.751109 137.62644 
L 141.504543 172.080918 
L 144.154772 222.432546 
L 146.015287 253.890976 
L 146.416837 258.336006 
L 146.456992 258.125826 
L 146.523917 255.977236 
L 146.590842 243.293029 
L 146.925467 136.876591 
L 147.153012 128.742176 
L 147.313631 127.738641 
L 147.327016 127.74197 
L 147.407326 127.959908 
L 147.581331 129.292647 
L 147.942726 134.13342 
L 148.745826 148.54877 
L 153.617965 240.11875 
L 154.675379 256.100855 
L 154.769074 256.532213 
L 154.809229 256.30047 
L 154.876154 254.198142 
L 154.943079 243.114477 
L 155.317859 138.911773 
L 155.545404 132.548899 
L 155.679254 131.945215 
L 155.706024 131.970055 
L 155.813104 132.41178 
L 156.040649 134.585188 
L 156.509124 141.638804 
L 157.646849 162.977404 
L 161.019868 226.632226 
L 162.585912 252.325269 
L 162.826842 254.533025 
L 162.853612 254.496289 
L 162.907152 253.868206 
L 162.974077 250.300942 
L 163.054387 227.652503 
L 163.308702 149.986378 
L 163.536247 138.310948 
L 163.737022 136.307072 
L 163.777177 136.300132 
L 163.817332 136.380521 
L 163.951182 137.139128 
L 164.232267 140.282246 
L 164.834591 150.081801 
L 166.628181 184.301095 
L 169.17133 231.043885 
L 170.442905 251.153631 
L 170.61691 252.350234 
L 170.64368 252.257915 
L 170.710605 251.052044 
L 170.790915 243.557898 
L 170.924765 189.696512 
L 171.138925 150.890622 
L 171.36647 142.007951 
L 171.55386 140.701044 
L 171.620785 140.817391 
L 171.768019 141.719216 
L 172.075874 145.310678 
L 172.731739 156.144878 
L 175.194579 202.639007 
L 177.336178 240.337054 
L 178.032198 249.83188 
L 178.085738 250.013926 
L 178.125893 249.902275 
L 178.192818 248.724438 
L 178.273128 242.246201 
L 178.393593 200.925622 
L 178.621138 156.070755 
L 178.848682 146.617245 
L 179.049457 145.090243 
L 179.116382 145.198251 
L 179.263617 146.074192 
L 179.571472 149.597611 
L 180.213952 160.03696 
L 182.476016 202.249771 
L 184.577461 239.020187 
L 185.206556 247.359723 
L 185.273481 247.544926 
L 185.313636 247.367747 
L 185.393946 245.525527 
L 185.474256 237.605218 
L 186.009655 151.613842 
L 186.223815 149.399802 
L 186.26397 149.38433 
L 186.304125 149.452151 
L 186.437975 150.149374 
L 186.71906 153.117251 
L 187.294615 162.031766 
L 188.9142 191.724917 
L 191.323499 234.449833 
L 192.059674 244.637598 
L 192.153369 244.984489 
L 192.193524 244.824163 
L 192.273834 243.231227 
L 192.367529 235.095398 
L 192.916313 155.63676 
L 193.130473 153.519998 
L 193.170628 153.507144 
L 193.210783 153.575099 
L 193.344633 154.260624 
L 193.625718 157.174431 
L 194.201273 165.946538 
L 195.807473 194.981092 
L 198.069537 234.42765 
L 198.671862 242.152888 
L 198.738787 242.364746 
L 198.778942 242.263554 
L 198.859252 241.06146 
L 198.952947 235.371347 
L 199.086797 206.908878 
L 199.341112 167.326653 
L 199.582042 158.685934 
L 199.782816 157.405265 
L 199.863126 157.571336 
L 200.037131 158.708766 
L 200.385141 162.816622 
L 201.121316 174.692634 
L 204.90927 238.893126 
L 205.056505 239.711172 
L 205.09666 239.633693 
L 205.17697 238.636316 
L 205.270665 234.259565 
L 205.39113 215.620847 
L 205.698985 170.0528 
L 205.939915 162.211774 
L 206.127305 161.054425 
L 206.19423 161.145143 
L 206.341465 161.928604 
L 206.635935 164.989033 
L 207.238259 174.020899 
L 209.031849 205.557824 
L 210.704973 233.118595 
L 211.093138 237.009967 
L 211.133293 237.05579 
L 211.173448 236.935479 
L 211.253758 235.88452 
L 211.360838 230.817353 
L 211.508073 208.8389 
L 211.802543 172.705429 
L 212.043473 165.507789 
L 212.230863 164.430418 
L 212.297788 164.523792 
L 212.445023 165.291667 
L 212.739493 168.282358 
L 213.341818 177.13747 
L 215.122022 207.884409 
L 216.594372 231.392179 
L 216.942382 234.419764 
L 216.969152 234.424201 
L 216.995922 234.359697 
L 217.076232 233.570001 
L 217.183312 229.865905 
L 217.317161 215.804949 
L 217.691941 174.285557 
L 217.932871 168.331563 
L 218.106876 167.528387 
L 218.120261 167.534806 
L 218.213956 167.778441 
L 218.414731 169.174035 
L 218.802896 173.778746 
L 219.632766 186.841164 
L 222.309765 230.069565 
L 222.577465 231.849082 
L 222.631005 231.713352 
L 222.7247 230.555366 
L 222.845165 225.610291 
L 223.01917 206.196148 
L 223.34041 177.058918 
L 223.594725 171.089297 
L 223.76873 170.351754 
L 223.782115 170.359113 
L 223.87581 170.59993 
L 224.076585 171.956296 
L 224.464749 176.440928 
L 225.281234 189.00212 
L 227.730689 227.586982 
L 227.998388 229.333169 
L 228.051928 229.240558 
L 228.145623 228.318288 
L 228.266088 224.519309 
L 228.440093 209.593492 
L 228.814873 178.91867 
L 229.069188 173.570599 
L 229.229808 172.910421 
L 229.256578 172.92134 
L 229.363658 173.220924 
L 229.577818 174.723536 
L 229.992753 179.564387 
L 230.876163 193.068177 
L 232.924067 224.582621 
L 233.245307 226.892057 
L 233.285462 226.879828 
L 233.312232 226.804896 
L 233.405927 225.967119 
L 233.539777 222.178184 
L 233.727167 208.263052 
L 234.115332 180.778968 
L 234.369647 175.856709 
L 234.543652 175.222833 
L 234.557037 175.23043 
L 234.650732 175.454924 
L 234.851506 176.712454 
L 235.239671 180.921945 
L 236.029386 192.44222 
L 238.077291 222.83787 
L 238.358375 224.555506 
L 238.411915 224.499303 
L 238.50561 223.841348 
L 238.63946 220.885743 
L 238.82685 210.138322 
L 239.295325 181.621334 
L 239.54964 177.714486 
L 239.696875 177.304 
L 239.723645 177.323697 
L 239.830725 177.627397 
L 240.044885 179.049428 
L 240.45982 183.611037 
L 241.329845 196.205811 
L 242.989584 220.070128 
L 243.310824 222.286054 
L 243.364364 222.310087 
L 243.391134 222.260738 
L 243.484829 221.668427 
L 243.618679 219.150642 
L 243.806069 210.448074 
L 244.341469 182.60299 
L 244.595784 179.442022 
L 244.716249 179.173767 
L 244.756404 179.203484 
L 244.876869 179.57451 
L 245.117799 181.249211 
L 245.572888 186.339745 
L 246.563378 200.537578 
L 247.834953 217.891815 
L 248.169578 220.147047 
L 248.223118 220.183682 
L 248.263273 220.115032 
L 248.370353 219.403442 
L 248.517588 216.580646 
L 248.731748 207.066621 
L 249.226992 184.521632 
L 249.494692 181.163286 
L 249.628542 180.85264 
L 249.655312 180.866021 
L 249.762392 181.122553 
L 249.976552 182.389328 
L 250.378102 186.417709 
L 251.194587 197.371463 
L 252.613396 216.125888 
L 252.934636 218.126863 
L 252.988176 218.166133 
L 253.028331 218.109997 
L 253.135411 217.504095 
L 253.296031 214.829955 
L 253.523576 206.134721 
L 254.045591 185.605156 
L 254.313291 182.628617 
L 254.447141 182.35845 
L 254.473911 182.373774 
L 254.594376 182.674509 
L 254.821921 184.039596 
L 255.236856 188.157916 
L 256.10688 199.527134 
L 257.28476 214.242205 
L 257.606 216.200612 
L 257.672925 216.26246 
L 257.71308 216.212936 
L 257.82016 215.682411 
L 257.98078 213.413614 
L 258.208325 206.241341 
L 258.797265 186.310423 
L 259.064965 183.882291 
L 259.18543 183.709294 
L 259.2122 183.728201 
L 259.332664 184.027417 
L 259.560209 185.339195 
L 259.975144 189.286873 
L 260.858554 200.360131 
L 261.902584 212.622567 
L 262.223824 214.423647 
L 262.290749 214.473839 
L 262.330904 214.425461 
L 262.437984 213.94472 
L 262.598604 211.975843 
L 262.826149 205.965195 
L 263.482013 186.942582 
L 263.736328 185.046182 
L 263.843408 184.917042 
L 263.883563 184.947025 
L 264.017413 185.304464 
L 264.271728 186.819744 
L 264.726818 191.178272 
L 265.918083 205.593072 
L 266.560562 211.818747 
L 266.828262 212.80358 
L 266.908572 212.712431 
L 267.029037 212.087612 
L 267.216427 209.594287 
L 267.497512 202.082497 
L 268.019527 188.644456 
L 268.300612 186.230085 
L 268.447847 186.001047 
L 268.474617 186.017775 
L 268.595082 186.278959 
L 268.822627 187.437658 
L 269.224177 190.853578 
L 270.080816 200.530819 
L 270.964226 209.652344 
L 271.285466 211.200977 
L 271.365776 211.239397 
L 271.405931 211.186335 
L 271.526396 210.682993 
L 271.713786 208.635057 
L 271.994871 202.407317 
L 272.583811 189.164928 
L 272.864896 187.136387 
L 272.998746 186.971754 
L 273.025516 186.987722 
L 273.159366 187.274815 
L 273.400295 188.487856 
L 273.828615 192.05315 
L 274.899415 203.566409 
L 275.515125 208.868324 
L 275.782825 209.792847 
L 275.87652 209.739985 
L 275.996985 209.279465 
L 276.184375 207.480706 
L 276.46546 202.155919 
L 277.107939 189.63199 
L 277.375639 187.982525 
L 277.509489 187.842725 
L 277.536259 187.859232 
L 277.670109 188.132529 
L 277.911039 189.273433 
L 278.325974 192.513684 
L 280.173104 208.411891 
L 280.266799 208.458004 
L 280.306954 208.413729 
L 280.427418 208.014985 
L 280.614808 206.471251 
L 280.895893 201.948626 
L 281.605298 190.002827 
L 281.872998 188.69711 
L 281.993463 188.628222 
L 282.020233 188.649227 
L 282.167468 188.969445 
L 282.421783 190.181844 
L 282.863488 193.559598 
L 284.483072 206.975048 
L 284.657077 207.232412 
L 284.683847 207.218783 
L 284.790927 206.997684 
L 284.964932 205.991501 
L 285.219247 202.941553 
L 286.169582 189.830233 
L 286.397127 189.320075 
L 286.517592 189.422266 
L 286.704982 189.984871 
L 287.026222 191.791812 
L 287.628546 196.736985 
L 288.659191 205.028065 
L 288.967046 206.066714 
L 289.074126 206.082157 
L 289.100896 206.051298 
L 289.234746 205.663788 
L 289.435521 204.274256 
L 289.756761 200.128059 
L 290.439396 191.225167 
L 290.720481 190.027929 
L 290.867715 189.964334 
L 290.8811 189.974957 
L 291.028335 190.25056 
L 291.28265 191.296488 
L 291.724355 194.241392 
L 293.18332 204.72787 
L 293.410865 205.06249 
L 293.53133 204.893346 
L 293.705335 204.13956 
L 293.973035 201.736728 
L 295.017064 190.808737 
L 295.231224 190.513387 
L 295.365074 190.656863 
L 295.579234 191.307651 
L 295.940629 193.256553 
L 296.703574 198.935792 
L 297.386209 203.294451 
L 297.680679 204.09143 
L 297.814529 204.077001 
L 297.961763 203.722741 
L 298.175923 202.50689 
L 298.523933 198.960992 
L 299.206568 192.083577 
L 299.487653 191.094375 
L 299.661658 191.045876 
L 299.822278 191.319049 
L 300.089978 192.3093 
L 300.545068 194.996217 
L 301.803257 202.794422 
L 302.057572 203.253443 
L 302.191422 203.166024 
L 302.365427 202.650837 
L 302.619742 201.042992 
L 303.128372 195.926081 
L 303.596847 192.299979 
L 303.877932 191.513316 
L 304.038552 191.508879 
L 304.212557 191.810884 
L 304.493642 192.831881 
L 304.988886 195.638382 
L 306.073071 201.876593 
L 306.354156 202.457173 
L 306.501391 202.414899 
L 306.662011 202.04685 
L 306.902941 200.832325 
L 307.317876 197.323935 
L 307.906816 192.81266 
L 308.201286 191.949421 
L 308.37529 191.903941 
L 308.549295 192.15429 
L 308.83038 193.059263 
L 309.31224 195.535902 
L 310.396425 201.235997 
L 310.67751 201.750429 
L 310.824745 201.706356 
L 310.99875 201.330962 
L 311.253065 200.135472 
L 311.72154 196.552452 
L 312.256939 193.052029 
L 312.551409 192.303789 
L 312.725414 192.274831 
L 312.912804 192.540673 
L 313.207274 193.455993 
L 313.715904 195.925803 
L 314.666239 200.519293 
L 314.974094 201.100166 
L 315.134714 201.072943 
L 315.308719 200.746435 
L 315.563033 199.704077 
L 316.018123 196.662568 
L 316.593678 193.291443 
L 316.888148 192.628529 
L 317.075538 192.613991 
L 317.262928 192.876089 
L 317.557398 193.735962 
L 318.079413 196.083906 
L 318.962822 199.964707 
L 319.270677 200.514831 
L 319.444682 200.496356 
L 319.632072 200.170359 
L 319.899772 199.155212 
L 320.408402 196.095204 
L 320.930417 193.487089 
L 321.224887 192.915991 
L 321.412277 192.915186 
L 321.613052 193.189426 
L 321.920907 194.05087 
L 322.496461 196.480537 
L 323.259406 199.477414 
L 323.580646 199.997124 
L 323.754651 199.973689 
L 323.942041 199.676525 
L 324.223126 198.712849 
L 324.771911 195.772055 
L 325.267156 193.652584 
L 325.561626 193.172892 
L 325.749016 193.190139 
L 325.963175 193.480649 
L 326.2978 194.389542 
L 326.96705 197.036989 
L 327.596145 199.13902 
L 327.904 199.537024 
L 328.09139 199.477581 
L 328.30555 199.10192 
L 328.613405 198.029676 
L 329.764514 193.513006 
L 329.992059 193.396546 
L 330.192834 193.553386 
L 330.473919 194.114202 
L 330.942394 195.634924 
L 331.906114 198.776954 
L 332.200584 199.113868 
L 332.387974 199.064467 
L 332.602134 198.735349 
L 332.923373 197.742499 
L 334.074483 193.723699 
L 334.315413 193.616179 
L 334.529573 193.783824 
L 334.824043 194.34943 
L 335.332673 195.900349 
L 336.175928 198.382504 
L 336.497167 198.734667 
L 336.697942 198.681437 
L 336.925487 198.347377 
L 337.260112 197.387065 
L 338.344297 193.955247 
L 338.598612 193.808359 
L 338.812772 193.931775 
L 339.107242 194.413273 
L 339.589102 195.71196 
L 340.485896 198.10061 
L 340.793751 198.395142 
L 341.007911 198.337423 
L 341.248841 197.999944 
L 341.610236 197.031688 
L 342.600726 194.180815 
L 342.881811 193.985315 
L 343.109356 194.085169 
L 343.403826 194.507913 
L 343.885685 195.673021 
L 344.78248 197.828159 
L 345.10372 198.09398 
L 345.331265 198.018096 
L 345.598965 197.638721 
L 346.000515 196.604069 
L 346.84377 194.403946 
L 347.151624 194.149335 
L 347.392554 194.216476 
L 347.687024 194.576301 
L 348.155499 195.577806 
L 349.092449 197.602352 
L 349.413689 197.823566 
L 349.654619 197.731279 
L 349.935704 197.341568 
L 350.390794 196.242039 
L 351.113583 194.567569 
L 351.434823 194.297327 
L 351.689138 194.347673 
L 351.983608 194.664862 
L 352.452083 195.562804 
L 353.389033 197.384105 
L 353.710273 197.580176 
L 353.964587 197.4855 
L 354.259057 197.102368 
L 354.754302 196.008013 
L 355.423552 194.658976 
L 355.758177 194.42213 
L 356.025877 194.491897 
L 356.347117 194.840764 
L 356.882517 195.823738 
L 357.658846 197.161984 
L 357.993471 197.361689 
L 358.261171 197.276446 
L 358.569026 196.912974 
L 359.091041 195.87399 
L 359.733521 194.741385 
L 360.068146 194.537504 
L 360.349231 194.614478 
L 360.697241 194.980131 
L 361.31295 196.03575 
L 361.968815 197.003658 
L 362.316825 197.169049 
L 362.59791 197.061022 
L 362.94592 196.644888 
L 364.33796 194.647256 
L 364.632429 194.701517 
L 364.980439 195.018141 
L 365.582764 195.938631 
L 366.265399 196.849948 
L 366.613409 196.995729 
L 366.907879 196.887991 
L 367.269274 196.487604 
L 368.594388 194.751148 
L 368.915628 194.782114 
L 369.277023 195.070594 
L 369.892733 195.916433 
L 370.561983 196.712813 
L 370.923378 196.840892 
L 371.244618 196.715431 
L 371.646167 196.278645 
L 372.797277 194.868269 
L 373.145287 194.839079 
L 373.506682 195.05594 
L 374.055467 195.699625 
L 374.858567 196.590449 
L 375.233346 196.702395 
L 375.567971 196.571168 
L 375.996291 196.132475 
L 377.053706 194.958761 
L 377.415101 194.907918 
L 377.789881 195.096343 
L 378.338666 195.66805 
L 379.168535 196.488797 
L 379.5567 196.5773 
L 379.918095 196.42486 
L 380.41334 195.928858 
L 381.283365 195.054538 
L 381.67153 194.970517 
L 382.059694 195.125667 
L 382.608479 195.627828 
L 383.478504 196.397018 
L 383.880054 196.464757 
L 384.268219 196.294534 
L 384.830389 195.758601 
L 385.579948 195.108343 
L 385.994883 195.035545 
L 386.409818 195.204506 
L 387.052298 195.762194 
L 387.788473 196.314214 
L 388.203408 196.363714 
L 388.618343 196.179194 
L 389.314362 195.558632 
L 389.930072 195.135584 
L 390.358392 195.101747 
L 390.813482 195.309828 
L 392.433067 196.285415 
L 392.861386 196.143835 
L 393.503866 195.648494 
L 394.213271 195.185622 
L 394.654976 195.150733 
L 395.136836 195.353332 
L 396.70288 196.20974 
L 397.15797 196.080956 
L 397.85399 195.598588 
L 398.55001 195.214905 
L 399.018485 195.207832 
L 399.540499 195.439144 
L 400.878999 196.138065 
L 401.347474 196.069341 
L 401.963184 195.721773 
L 402.846594 195.252583 
L 403.341838 195.252003 
L 403.917393 195.498765 
L 405.122043 196.072325 
L 405.630673 196.019624 
L 406.273153 195.696705 
L 407.169947 195.281243 
L 407.691962 195.297946 
L 408.321057 195.563865 
L 409.378472 196.014224 
L 409.913872 195.974984 
L 410.596506 195.668198 
L 411.493301 195.308114 
L 412.042086 195.339941 
L 412.764876 195.637937 
L 413.675055 195.967467 
L 414.237225 195.924706 
L 415.00017 195.605977 
L 415.83004 195.33185 
L 416.41898 195.384999 
L 417.329159 195.747209 
L 418.078719 195.93378 
L 418.681044 195.84638 
L 420.554943 195.373373 
L 421.304503 195.60545 
L 422.335148 195.893899 
L 422.977628 195.817079 
L 424.878297 195.399341 
L 425.721552 195.645635 
L 426.671887 195.861919 
L 427.354522 195.770079 
L 429.067801 195.406218 
L 429.870901 195.592582 
L 430.99524 195.832327 
L 431.71803 195.732247 
L 433.32423 195.421917 
L 434.167485 195.591749 
L 435.331979 195.805561 
L 436.121694 195.689441 
L 437.553889 195.435834 
L 438.410528 195.577595 
L 439.682103 195.780814 
L 440.552128 195.646215 
L 441.837087 195.451124 
L 442.747267 195.58747 
L 444.005457 195.758843 
L 444.955792 195.61591 
L 446.160441 195.466039 
L 447.164316 195.611666 
L 448.342196 195.738634 
L 449.39961 195.583732 
L 450.269635 195.477842 
L 450.269635 195.477842 
" style="fill:none;stroke:#1f77b4;stroke-linecap:square;stroke-width:1.5;"/>
   </g>
   <g id="line2d_14">
    <path clip-path="url(#p9f76f61a4a)" d="M 47.38125 237.541274 
L 47.91665 192.138506 
L 48.572515 117.206537 
L 48.733135 120.331063 
L 51.102279 166.722364 
L 53.257263 204.691444 
L 54.917003 230.384843 
L 55.987803 243.934946 
L 56.683822 250.299444 
L 57.138912 252.763093 
L 57.419997 253.350894 
L 57.567232 253.308544 
L 57.727852 252.946408 
L 57.955397 251.791515 
L 58.249867 248.980683 
L 58.597877 243.30255 
L 58.999427 232.693043 
L 59.427747 215.075233 
L 59.896221 185.793596 
L 60.391466 139.690942 
L 60.619011 117.411297 
L 60.685936 118.313475 
L 64.192805 185.177777 
L 65.86593 212.351372 
L 66.963499 226.961361 
L 67.672904 233.820421 
L 68.141379 236.528408 
L 68.422464 237.180846 
L 68.569699 237.163229 
L 68.730319 236.819494 
L 68.957864 235.672098 
L 69.252334 232.828489 
L 69.600344 227.021261 
L 69.988509 216.519022 
L 70.416828 198.385606 
L 70.871918 168.919901 
L 71.447473 117.520745 
L 71.594708 120.072672 
L 74.137857 169.363646 
L 75.931447 199.929443 
L 77.122712 216.857473 
L 77.899041 225.096782 
L 78.407671 228.478961 
L 78.728911 229.430493 
L 78.889531 229.472561 
L 79.036766 229.215868 
L 79.250926 228.26981 
L 79.532011 225.821175 
L 79.866636 220.712222 
L 80.254801 210.951721 
L 80.669735 194.476966 
L 81.124825 166.649861 
L 81.70038 117.611131 
L 81.847615 120.044294 
L 84.471074 170.646655 
L 86.157584 198.948303 
L 87.255154 214.057347 
L 87.977943 221.303896 
L 88.446418 224.12696 
L 88.740888 224.84208 
L 88.888123 224.819822 
L 89.048743 224.46176 
L 89.276288 223.274651 
L 89.570758 220.337399 
L 89.918768 214.335752 
L 90.306933 203.458651 
L 90.735253 184.612423 
L 91.190342 153.91989 
L 91.632047 117.683904 
L 91.712357 118.939377 
L 95.165686 183.944731 
L 96.517571 204.769995 
L 97.387596 215.168299 
L 97.963151 219.769867 
L 98.33793 221.302701 
L 98.55209 221.499271 
L 98.68594 221.324223 
L 98.87333 220.640723 
L 99.127645 218.770222 
L 99.448885 214.531868 
L 99.823665 206.232694 
L 100.2386 191.482518 
L 100.680305 167.088371 
L 101.17555 126.162601 
L 101.3094 117.728965 
L 101.36294 118.369988 
L 102.406969 139.156327 
L 104.428104 176.603734 
L 105.860298 199.453743 
L 106.797248 211.235033 
L 107.412958 216.515412 
L 107.801123 218.304384 
L 108.028668 218.617162 
L 108.162518 218.497708 
L 108.336523 217.959941 
L 108.577453 216.398526 
L 108.885307 212.752521 
L 109.246702 205.508654 
L 109.648252 192.558799 
L 110.076572 171.124913 
L 110.558432 134.634871 
L 110.785977 117.795593 
L 110.839517 118.35002 
L 111.629232 134.065693 
L 113.677136 172.437997 
L 115.136101 196.016215 
L 116.086435 208.150206 
L 116.702145 213.551332 
L 117.103695 215.466187 
L 117.344625 215.800531 
L 117.478475 215.669173 
L 117.665865 215.04944 
L 117.92018 213.271685 
L 118.228035 209.383367 
L 118.58943 201.768832 
L 118.99098 188.272927 
L 119.432684 165.231523 
L 119.941314 125.402972 
L 120.075164 117.858994 
L 120.128704 118.483351 
L 120.958574 134.951977 
L 122.966323 172.364642 
L 124.358363 194.588475 
L 125.268543 205.938556 
L 125.857483 210.893032 
L 126.245647 212.598551 
L 126.459807 212.84084 
L 126.593657 212.692059 
L 126.781047 212.042302 
L 127.035362 210.212099 
L 127.356602 206.017062 
L 127.731382 197.764814 
L 128.146317 183.089824 
L 128.588022 158.913823 
L 129.150192 117.941219 
L 129.270657 119.67527 
L 132.442901 178.822565 
L 133.634165 196.536341 
L 134.39711 205.003265 
L 134.90574 208.552812 
L 135.22698 209.556853 
L 135.3876 209.60645 
L 135.534835 209.344278 
L 135.748995 208.366895 
L 136.03008 205.829937 
L 136.364705 200.53576 
L 136.752869 190.437835 
L 137.181189 172.790864 
L 137.649664 143.175352 
L 138.011059 118.030998 
L 138.077984 118.778907 
L 138.921239 135.387132 
L 140.835293 170.704068 
L 142.120253 190.705425 
L 142.950123 200.534374 
L 143.498908 204.727942 
L 143.846917 205.986706 
L 144.034307 206.085892 
L 144.181542 205.829996 
L 144.382317 204.942594 
L 144.650017 202.637219 
L 144.984642 197.563209 
L 145.359422 188.21758 
L 145.774357 171.977323 
L 146.229447 144.88197 
L 146.630997 118.140292 
L 146.697922 118.871492 
L 147.434096 133.282471 
L 149.334766 168.356699 
L 150.579571 187.626948 
L 151.38267 197.018782 
L 151.91807 201.012472 
L 152.252695 202.167594 
L 152.4267 202.249471 
L 152.56055 202.031506 
L 152.761325 201.187191 
L 153.029025 198.94463 
L 153.36365 193.963132 
L 153.73843 184.754327 
L 154.153365 168.747788 
L 154.621839 141.22423 
L 154.996619 118.279415 
L 155.036774 118.658931 
L 155.411554 125.752827 
L 157.459459 164.002183 
L 158.704263 183.434475 
L 159.507363 192.893451 
L 160.029378 196.832571 
L 160.364003 198.029789 
L 160.538008 198.132512 
L 160.551393 198.123783 
L 160.698628 197.858001 
L 160.912788 196.86345 
L 161.193873 194.282782 
L 161.528497 188.910234 
L 161.916662 178.712132 
L 162.344982 161.057716 
L 162.840227 130.40897 
L 163.067772 118.427031 
L 163.107927 118.651712 
L 163.348857 122.934848 
L 165.610921 164.747563 
L 166.735261 181.604308 
L 167.471436 189.697798 
L 167.953296 192.918576 
L 168.247765 193.749462 
L 168.395 193.764723 
L 168.542235 193.473826 
L 168.756395 192.434212 
L 169.03748 189.778331 
L 169.372105 184.293042 
L 169.76027 173.942427 
L 170.18859 156.150669 
L 170.85784 118.606486 
L 170.99169 120.198076 
L 174.378094 178.352543 
L 175.074114 185.718982 
L 175.529203 188.576014 
L 175.810288 189.27145 
L 175.957523 189.236635 
L 176.118143 188.839805 
L 176.345688 187.550754 
L 176.640158 184.398128 
L 176.988168 178.032546 
L 177.389718 166.204026 
L 177.844808 145.468243 
L 178.353438 118.804674 
L 178.420363 119.298048 
L 178.781757 125.807192 
L 180.695812 160.285797 
L 181.713072 174.892878 
L 182.382321 181.681967 
L 182.810641 184.169911 
L 183.078341 184.723656 
L 183.212191 184.65145 
L 183.372811 184.215064 
L 183.600356 182.859479 
L 183.894826 179.602737 
L 184.256221 172.776404 
L 184.657771 160.604999 
L 185.126246 138.9176 
L 185.554566 119.032578 
L 185.581336 119.146564 
L 185.728571 121.245978 
L 188.606345 169.650269 
L 189.288979 176.820357 
L 189.730684 179.533408 
L 190.011769 180.179971 
L 190.145619 180.129421 
L 190.306239 179.720631 
L 190.533784 178.408604 
L 190.828254 175.220963 
L 191.176264 168.826967 
L 191.577814 157.064398 
L 192.046289 136.270972 
L 192.447839 119.293116 
L 192.474609 119.354559 
L 192.595074 120.817088 
L 193.438328 136.121035 
L 194.803598 158.84601 
L 195.646853 169.56949 
L 196.195638 174.130968 
L 196.557032 175.602769 
L 196.744422 175.753392 
L 196.878272 175.562319 
L 197.065662 174.825671 
L 197.333362 172.689163 
L 197.654602 168.128334 
L 198.042767 159.05809 
L 198.484472 142.994028 
L 199.060027 119.583858 
L 199.113567 119.793876 
L 199.300957 122.442232 
L 201.763796 162.260602 
L 202.406276 168.675407 
L 202.821211 171.011548 
L 203.075526 171.505502 
L 203.209376 171.423139 
L 203.38338 170.915969 
L 203.62431 169.370307 
L 203.932165 165.728172 
L 204.29356 158.577742 
L 204.72188 145.260296 
L 205.404515 119.899443 
L 205.484825 120.321602 
L 205.73914 124.111662 
L 207.733504 156.211879 
L 208.429524 163.782639 
L 208.884614 166.727596 
L 209.165699 167.460464 
L 209.312934 167.44228 
L 209.473554 167.063655 
L 209.701099 165.807014 
L 209.995569 162.731719 
L 210.356963 156.293886 
L 210.785283 144.139478 
L 211.508073 120.244717 
L 211.561613 120.494434 
L 211.762388 123.082049 
L 214.091377 157.854069 
L 214.626777 162.206528 
L 214.974787 163.585158 
L 215.162177 163.729482 
L 215.296027 163.536358 
L 215.496802 162.729026 
L 215.764502 160.556491 
L 216.099127 155.777295 
L 216.500677 146.468051 
L 217.036077 128.041843 
L 217.343931 120.629024 
L 217.370701 120.620228 
L 217.397471 120.703242 
L 217.531321 121.973284 
L 218.053336 130.149022 
L 219.324911 149.283005 
L 220.020931 156.729174 
L 220.476021 159.583507 
L 220.757106 160.259003 
L 220.890955 160.22899 
L 221.051575 159.85477 
L 221.27912 158.620961 
L 221.57359 155.623084 
L 221.934985 149.421934 
L 222.37669 137.611913 
L 223.005785 121.00635 
L 223.059325 121.155091 
L 223.219945 122.734584 
L 223.84904 132.325381 
L 224.959994 148.041001 
L 225.602474 154.344383 
L 226.017409 156.628672 
L 226.271724 157.108381 
L 226.405574 157.028238 
L 226.579579 156.539143 
L 226.820509 155.060971 
L 227.128364 151.62606 
L 227.516529 144.452761 
L 228.025158 130.305363 
L 228.413323 121.548942 
L 228.466863 121.422739 
L 228.520403 121.571007 
L 228.681023 123.019721 
L 229.229808 130.913481 
L 230.354148 146.218211 
L 230.969858 151.896674 
L 231.371407 153.891756 
L 231.612337 154.241526 
L 231.746187 154.113815 
L 231.933577 153.503058 
L 232.187892 151.776097 
L 232.522517 147.710939 
L 232.937452 139.517521 
L 233.753937 121.855554 
L 233.767322 121.867053 
L 233.847632 122.197682 
L 234.061792 124.370051 
L 236.176621 149.656171 
L 236.564786 151.398425 
L 236.778946 151.653802 
L 236.912796 151.518071 
L 237.100186 150.905344 
L 237.354501 149.200167 
L 237.689126 145.233738 
L 238.117446 137.079748 
L 238.867005 122.31831 
L 238.90716 122.313737 
L 238.93393 122.370327 
L 239.06778 123.194541 
L 239.41579 127.262343 
L 240.821215 144.425832 
L 241.34323 148.16509 
L 241.677855 149.249979 
L 241.851859 149.313972 
L 241.999094 149.065147 
L 242.213254 148.157885 
L 242.507724 145.740703 
L 242.882504 140.508626 
L 243.431289 129.058026 
L 243.806069 123.020106 
L 243.899764 122.758699 
L 243.939919 122.811065 
L 244.060384 123.42069 
L 244.354854 126.431664 
L 245.934283 144.148882 
L 246.375988 146.644118 
L 246.657073 147.247371 
L 246.804308 147.200947 
L 246.964928 146.834377 
L 247.205858 145.608954 
L 247.527098 142.589726 
L 247.942033 136.242809 
L 248.745133 123.279247 
L 248.798673 123.221681 
L 248.852212 123.305995 
L 248.999447 124.103368 
L 249.347457 127.637763 
L 250.685957 141.968138 
L 251.154432 144.704263 
L 251.448902 145.390181 
L 251.596137 145.376033 
L 251.756757 145.059091 
L 251.984302 144.025588 
L 252.292157 141.443124 
L 252.693706 135.971422 
L 253.550346 123.720989 
L 253.603886 123.68795 
L 253.644041 123.742374 
L 253.777891 124.32613 
L 254.072361 126.900642 
L 255.611636 141.801849 
L 256.013185 143.501446 
L 256.24073 143.774798 
L 256.37458 143.668119 
L 256.56197 143.155997 
L 256.82967 141.633108 
L 257.17768 138.182308 
L 257.699695 130.378601 
L 258.16817 124.518089 
L 258.315405 124.147004 
L 258.342175 124.168285 
L 258.46264 124.545914 
L 258.716955 126.375402 
L 260.523929 141.648684 
L 260.818399 142.293635 
L 260.979019 142.274803 
L 261.153024 141.928519 
L 261.393954 140.847884 
L 261.715194 138.26286 
L 262.170284 132.550395 
L 262.799379 124.984161 
L 262.959998 124.601403 
L 262.986768 124.619425 
L 263.107233 124.946992 
L 263.348163 126.474159 
L 264.017413 132.731526 
L 264.753588 138.664243 
L 265.181908 140.606929 
L 265.449608 141.02652 
L 265.596843 140.954861 
L 265.784233 140.525632 
L 266.038548 139.300308 
L 266.386557 136.39715 
L 266.975497 129.154984 
L 267.390432 125.347979 
L 267.551052 125.047833 
L 267.564437 125.055303 
L 267.671517 125.273932 
L 267.885677 126.376457 
L 268.380922 130.482048 
L 269.277717 137.569134 
L 269.706037 139.454334 
L 269.973736 139.88132 
L 270.134356 139.815411 
L 270.321746 139.407233 
L 270.589446 138.171984 
L 270.950841 135.290986 
L 272.061796 125.478131 
L 272.155491 125.555748 
L 272.316111 126.092495 
L 272.637351 128.149997 
L 274.016005 137.863546 
L 274.364015 138.789373 
L 274.56479 138.861627 
L 274.72541 138.650024 
L 274.952955 137.916812 
L 275.274195 136.002388 
L 275.756055 131.521247 
L 276.35838 126.339642 
L 276.57254 125.893845 
L 276.67962 126.020478 
L 276.867009 126.693784 
L 277.241789 129.078039 
L 278.379514 136.652986 
L 278.754294 137.80607 
L 278.981839 137.982317 
L 279.142459 137.839777 
L 279.356619 137.28598 
L 279.664474 135.750525 
L 280.106179 132.228137 
L 280.815583 126.679262 
L 281.029743 126.292282 
L 281.150208 126.428012 
L 281.350983 127.112584 
L 281.739148 129.411289 
L 282.809948 135.96239 
L 283.184728 137.033398 
L 283.412273 137.190555 
L 283.572893 137.051418 
L 283.800438 136.48213 
L 284.108292 135.018508 
L 284.590152 131.437145 
L 285.219247 127.092439 
L 285.446792 126.67124 
L 285.567257 126.769744 
L 285.754647 127.296056 
L 286.116042 129.14941 
L 287.307307 135.682238 
L 287.655316 136.428517 
L 287.856091 136.475588 
L 288.043481 136.243192 
L 288.297796 135.488625 
L 288.659191 133.595055 
L 289.783531 127.064842 
L 289.930766 127.066274 
L 290.091386 127.371142 
L 290.372471 128.475327 
L 291.22911 133.225562 
L 291.751125 135.298698 
L 292.072365 135.841907 
L 292.27314 135.835128 
L 292.473915 135.542362 
L 292.755 134.648512 
L 293.15655 132.51061 
L 294.03996 127.604676 
L 294.25412 127.368364 
L 294.401354 127.510876 
L 294.628899 128.136406 
L 295.057219 130.119195 
L 295.994169 134.454612 
L 296.355564 135.226376 
L 296.583109 135.316685 
L 296.770499 135.139733 
L 297.024814 134.529828 
L 297.386209 132.989772 
L 298.497163 127.746979 
L 298.671168 127.702682 
L 298.845173 127.949566 
L 299.126258 128.827545 
L 299.795508 131.912323 
L 300.397833 134.180591 
L 300.745843 134.784359 
L 300.960003 134.821212 
L 301.160778 134.606258 
L 301.428477 133.944729 
L 301.830027 132.257251 
L 302.753592 128.17597 
L 302.981137 127.978927 
L 303.141757 128.113169 
L 303.382687 128.671037 
L 303.837777 130.430191 
L 304.707802 133.729368 
L 305.069196 134.345842 
L 305.296741 134.393079 
L 305.510901 134.177799 
L 305.791986 133.517911 
L 306.220306 131.8323 
L 307.050176 128.511109 
L 307.304491 128.250676 
L 307.478496 128.361109 
L 307.719426 128.846295 
L 308.147746 130.313534 
L 309.07131 133.478125 
L 309.41932 133.983212 
L 309.646865 134.004132 
L 309.87441 133.76445 
L 310.182265 133.040251 
L 310.664125 131.218478 
L 311.34676 128.803882 
L 311.61446 128.505645 
L 311.80185 128.588136 
L 312.042779 129.004116 
L 312.457714 130.260404 
L 313.421434 133.23884 
L 313.769444 133.662944 
L 313.996989 133.65396 
L 314.237919 133.385325 
L 314.559159 132.638547 
L 315.134714 130.597176 
L 315.670113 129.007141 
L 315.951198 128.736502 
L 316.151973 128.833049 
L 316.406288 129.257476 
L 316.861378 130.547435 
L 317.718018 132.940332 
L 318.066028 133.354918 
L 318.306958 133.360157 
L 318.547888 133.122971 
L 318.882513 132.41995 
L 319.498222 130.45509 
L 320.006852 129.164377 
L 320.274552 128.949595 
L 320.488712 129.049905 
L 320.769797 129.498502 
L 321.278427 130.84648 
L 322.041372 132.730968 
L 322.402766 133.101591 
L 322.657081 133.076771 
L 322.924781 132.786942 
L 323.286176 132.016241 
L 324.477441 129.184128 
L 324.704986 129.16634 
L 324.945916 129.397958 
L 325.307311 130.110004 
L 326.525345 132.744066 
L 326.8332 132.883669 
L 327.087515 132.754334 
L 327.39537 132.31293 
L 327.890615 131.129929 
L 328.60002 129.534768 
L 328.89449 129.323906 
L 329.13542 129.416165 
L 329.429889 129.810082 
L 329.978674 131.008752 
L 330.674694 132.376326 
L 331.036089 132.663211 
L 331.303789 132.620341 
L 331.598259 132.319705 
L 332.013194 131.527751 
L 332.976913 129.602242 
L 333.257998 129.486506 
L 333.512313 129.626345 
L 333.860323 130.124013 
L 335.265748 132.452386 
L 335.560218 132.459925 
L 335.854688 132.225395 
L 336.256238 131.576623 
L 337.327037 129.703876 
L 337.608122 129.641015 
L 337.889207 129.825176 
L 338.290757 130.412343 
L 339.415097 132.200725 
L 339.749722 132.319831 
L 340.044191 132.189872 
L 340.405586 131.755063 
L 341.797626 129.769192 
L 342.078711 129.846012 
L 342.426721 130.210212 
L 343.256591 131.552843 
L 343.751835 132.088351 
L 344.08646 132.168261 
L 344.4077 132.004345 
L 344.80925 131.512526 
L 345.973745 129.924725 
L 346.2816 129.911862 
L 346.60284 130.139017 
L 347.111469 130.826021 
L 347.927954 131.882854 
L 348.302734 132.040861 
L 348.623974 131.947109 
L 349.012139 131.574275 
L 350.390794 130.000732 
L 350.712033 130.075997 
L 351.100198 130.428424 
L 352.478853 131.905369 
L 352.826863 131.884219 
L 353.201643 131.619983 
L 353.817353 130.846935 
L 354.446447 130.185931 
L 354.807842 130.100294 
L 355.155852 130.257195 
L 355.651097 130.76871 
L 356.574662 131.722143 
L 356.976212 131.817071 
L 357.350992 131.664599 
L 357.846236 131.179184 
L 358.769801 130.253045 
L 359.144581 130.194501 
L 359.519361 130.374334 
L 360.108301 130.960177 
L 360.857861 131.632222 
L 361.272795 131.724548 
L 361.66096 131.579152 
L 362.182975 131.110469 
L 363.066385 130.326832 
L 363.45455 130.27581 
L 363.8561 130.460474 
L 364.525349 131.074769 
L 365.194599 131.577134 
L 365.622919 131.635817 
L 366.037854 131.461606 
L 366.680334 130.898341 
L 367.362969 130.393002 
L 367.777904 130.351497 
L 368.206223 130.54602 
L 369.879348 131.567528 
L 370.321053 131.414245 
L 370.976918 130.902752 
L 371.672937 130.447819 
L 372.101257 130.41991 
L 372.569732 130.630336 
L 374.095622 131.505153 
L 374.550712 131.397342 
L 375.179806 130.978969 
L 375.982906 130.497693 
L 376.437996 130.484495 
L 376.946626 130.712835 
L 378.298511 131.441836 
L 378.78037 131.375611 
L 379.382695 131.039516 
L 380.30626 130.53995 
L 380.78812 130.546333 
L 381.35029 130.800709 
L 382.514784 131.380519 
L 383.023414 131.346709 
L 383.639124 131.053877 
L 384.642999 130.57691 
L 385.151629 130.606416 
L 385.794108 130.898788 
L 386.771213 131.329456 
L 387.306613 131.308178 
L 387.949093 131.035357 
L 388.952967 130.615519 
L 389.488367 130.654131 
L 390.211157 130.966441 
L 391.094567 131.293956 
L 391.656737 131.257827 
L 392.392912 130.954394 
L 393.262936 130.650471 
L 393.838491 130.700358 
L 394.695131 131.049578 
L 395.471461 131.26595 
L 396.073785 131.194298 
L 398.081535 130.715856 
L 398.911405 131.008614 
L 399.768044 131.233428 
L 400.397139 131.161696 
L 402.351349 130.737062 
L 403.221373 131.008481 
L 404.104783 131.206109 
L 404.787418 131.115451 
L 406.527467 130.744921 
L 407.330567 130.942975 
L 408.414752 131.180328 
L 409.137542 131.084918 
L 410.783896 130.764588 
L 411.613766 130.941285 
L 412.751491 131.157409 
L 413.52782 131.048509 
L 415.02694 130.782461 
L 415.88358 130.936722 
L 417.088229 131.13627 
L 417.931484 131.013915 
L 419.296754 130.800569 
L 420.206934 130.945859 
L 421.424968 131.116849 
L 422.348533 130.981752 
L 423.593338 130.817856 
L 424.570442 130.961688 
L 425.775092 131.098602 
L 426.819122 130.944998 
L 427.956846 130.835863 
L 429.094571 131.003193 
L 430.178756 131.078742 
L 431.53064 130.88226 
L 432.52113 130.869083 
L 434.983969 131.013576 
L 436.750789 130.873449 
L 439.467943 130.98291 
L 441.007218 130.880334 
L 443.925147 130.960382 
L 445.357341 130.892485 
L 448.154806 130.967884 
L 449.707465 130.90338 
L 450.269635 130.954369 
L 450.269635 130.954369 
" style="fill:none;stroke:#ff7f0e;stroke-linecap:square;stroke-width:1.5;"/>
   </g>
   <g id="patch_3">
    <path d="M 47.38125 275.64375 
L 47.38125 25.918125 
" style="fill:none;stroke:#000000;stroke-linecap:square;stroke-linejoin:miter;stroke-width:0.8;"/>
   </g>
   <g id="patch_4">
    <path d="M 450.25625 275.64375 
L 450.25625 25.918125 
" style="fill:none;stroke:#000000;stroke-linecap:square;stroke-linejoin:miter;stroke-width:0.8;"/>
   </g>
   <g id="patch_5">
    <path d="M 47.38125 275.64375 
L 450.25625 275.64375 
" style="fill:none;stroke:#000000;stroke-linecap:square;stroke-linejoin:miter;stroke-width:0.8;"/>
   </g>
   <g id="patch_6">
    <path d="M 47.38125 25.918125 
L 450.25625 25.918125 
" style="fill:none;stroke:#000000;stroke-linecap:square;stroke-linejoin:miter;stroke-width:0.8;"/>
   </g>
   <g id="text_15">
    <!-- $\omega_0=0.75, \lambda_0=0.75, d_0=0.1$ -->
    <g transform="translate(164.33875 19.918125)scale(0.12 -0.12)">
     <defs>
      <path d="M 21.390625 -1.421875 
Q 1.125 -1.421875 6.78125 27.59375 
Q 8.984375 39.0625 19.625 54.6875 
L 29.296875 54.6875 
Q 19.234375 39.0625 17 27.34375 
Q 12.796875 6.203125 23.734375 6.203125 
Q 33.84375 6.203125 38.71875 32.46875 
L 47.015625 32.46875 
Q 41.703125 6.0625 51.8125 6.203125 
Q 62.703125 6.296875 66.796875 27.34375 
Q 69.046875 39.0625 65.140625 54.6875 
L 74.8125 54.6875 
Q 79.296875 39.0625 77.09375 27.59375 
Q 71.53125 -1.46875 51.21875 -1.421875 
Q 37.9375 -1.375 39.109375 13.1875 
Q 34.28125 -1.421875 21.390625 -1.421875 
z
" id="DejaVuSans-Oblique-969"/>
      <path d="M 10.59375 45.40625 
L 73.1875 45.40625 
L 73.1875 37.203125 
L 10.59375 37.203125 
z
M 10.59375 25.484375 
L 73.1875 25.484375 
L 73.1875 17.1875 
L 10.59375 17.1875 
z
" id="DejaVuSans-61"/>
      <path d="M 11.71875 12.40625 
L 22.015625 12.40625 
L 22.015625 4 
L 14.015625 -11.625 
L 7.71875 -11.625 
L 11.71875 4 
z
" id="DejaVuSans-44"/>
      <path d="M 36.71875 67.4375 
L 48.828125 0 
L 39.3125 0 
L 31.84375 40.4375 
L 5.125 0 
L -4.390625 0 
L 29.734375 52.4375 
L 28.03125 62.109375 
Q 26.953125 68.265625 21.734375 68.265625 
L 17.046875 68.265625 
L 18.5 75.984375 
L 24.21875 75.875 
Q 35.203125 75.734375 36.71875 67.4375 
z
" id="DejaVuSans-Oblique-955"/>
      <path d="M 41.796875 8.203125 
Q 38.1875 3.46875 33.25 1.015625 
Q 28.328125 -1.421875 22.3125 -1.421875 
Q 14.109375 -1.421875 9.34375 4.171875 
Q 4.59375 9.765625 4.59375 19.484375 
Q 4.59375 27.59375 7.46875 34.9375 
Q 10.359375 42.28125 15.828125 48.09375 
Q 19.4375 51.953125 23.96875 53.96875 
Q 28.515625 56 33.5 56 
Q 38.765625 56 42.796875 53.453125 
Q 46.828125 50.921875 49.03125 46.1875 
L 54.890625 75.984375 
L 63.921875 75.984375 
L 49.125 0 
L 40.09375 0 
z
M 13.921875 21.09375 
Q 13.921875 14.015625 17.109375 10.0625 
Q 20.3125 6.109375 25.984375 6.109375 
Q 30.171875 6.109375 33.765625 8.125 
Q 37.359375 10.15625 40.09375 14.109375 
Q 42.96875 18.21875 44.625 23.578125 
Q 46.296875 28.953125 46.296875 34.1875 
Q 46.296875 40.96875 43.09375 44.765625 
Q 39.890625 48.578125 34.28125 48.578125 
Q 30.03125 48.578125 26.359375 46.578125 
Q 22.703125 44.578125 20.125 40.828125 
Q 17.28125 36.765625 15.59375 31.390625 
Q 13.921875 26.03125 13.921875 21.09375 
z
" id="DejaVuSans-Oblique-100"/>
     </defs>
     <use transform="translate(0 0.015625)" xlink:href="#DejaVuSans-Oblique-969"/>
     <use transform="translate(83.740234 -16.390625)scale(0.7)" xlink:href="#DejaVuSans-48"/>
     <use transform="translate(150.493164 0.015625)" xlink:href="#DejaVuSans-61"/>
     <use transform="translate(253.764648 0.015625)" xlink:href="#DejaVuSans-48"/>
     <use transform="translate(317.387695 0.015625)" xlink:href="#DejaVuSans-46"/>
     <use transform="translate(341.424805 0.015625)" xlink:href="#DejaVuSans-55"/>
     <use transform="translate(405.047852 0.015625)" xlink:href="#DejaVuSans-53"/>
     <use transform="translate(468.670898 0.015625)" xlink:href="#DejaVuSans-44"/>
     <use transform="translate(519.94043 0.015625)" xlink:href="#DejaVuSans-Oblique-955"/>
     <use transform="translate(579.120117 -16.390625)scale(0.7)" xlink:href="#DejaVuSans-48"/>
     <use transform="translate(645.873047 0.015625)" xlink:href="#DejaVuSans-61"/>
     <use transform="translate(749.144531 0.015625)" xlink:href="#DejaVuSans-48"/>
     <use transform="translate(812.767578 0.015625)" xlink:href="#DejaVuSans-46"/>
     <use transform="translate(836.804688 0.015625)" xlink:href="#DejaVuSans-55"/>
     <use transform="translate(900.427734 0.015625)" xlink:href="#DejaVuSans-53"/>
     <use transform="translate(964.050781 0.015625)" xlink:href="#DejaVuSans-44"/>
     <use transform="translate(1015.320312 0.015625)" xlink:href="#DejaVuSans-Oblique-100"/>
     <use transform="translate(1078.796875 -16.390625)scale(0.7)" xlink:href="#DejaVuSans-48"/>
     <use transform="translate(1145.549805 0.015625)" xlink:href="#DejaVuSans-61"/>
     <use transform="translate(1248.821289 0.015625)" xlink:href="#DejaVuSans-48"/>
     <use transform="translate(1312.444336 0.015625)" xlink:href="#DejaVuSans-46"/>
     <use transform="translate(1344.231445 0.015625)" xlink:href="#DejaVuSans-49"/>
    </g>
   </g>
   <g id="legend_1">
    <g id="patch_7">
     <path d="M 402.85625 77.9525 
L 443.25625 77.9525 
Q 445.25625 77.9525 445.25625 75.9525 
L 445.25625 32.918125 
Q 445.25625 30.918125 443.25625 30.918125 
L 402.85625 30.918125 
Q 400.85625 30.918125 400.85625 32.918125 
L 400.85625 75.9525 
Q 400.85625 77.9525 402.85625 77.9525 
z
" style="fill:#ffffff;opacity:0.8;stroke:#cccccc;stroke-linejoin:miter;"/>
    </g>
    <g id="line2d_15">
     <path d="M 404.85625 39.016562 
L 424.85625 39.016562 
" style="fill:none;stroke:#1f77b4;stroke-linecap:square;stroke-width:1.5;"/>
    </g>
    <g id="line2d_16"/>
    <g id="text_16">
     <!-- $\omega$ -->
     <g transform="translate(432.85625 42.516562)scale(0.1 -0.1)">
      <use transform="translate(0 0.3125)" xlink:href="#DejaVuSans-Oblique-969"/>
     </g>
    </g>
    <g id="line2d_17">
     <path d="M 404.85625 53.694687 
L 424.85625 53.694687 
" style="fill:none;stroke:#ff7f0e;stroke-linecap:square;stroke-width:1.5;"/>
    </g>
    <g id="line2d_18"/>
    <g id="text_17">
     <!-- $\lambda$ -->
     <g transform="translate(432.85625 57.194687)scale(0.1 -0.1)">
      <use transform="translate(0 0.015625)" xlink:href="#DejaVuSans-Oblique-955"/>
     </g>
    </g>
    <g id="line2d_19">
     <path d="M 404.85625 68.372812 
L 424.85625 68.372812 
" style="fill:none;stroke:#006400;stroke-linecap:square;stroke-width:1.5;"/>
    </g>
    <g id="line2d_20"/>
    <g id="text_18">
     <!-- $d$ -->
     <g transform="translate(432.85625 71.872812)scale(0.1 -0.1)">
      <use transform="translate(0 0.015625)" xlink:href="#DejaVuSans-Oblique-100"/>
     </g>
    </g>
   </g>
  </g>
  <g id="axes_2">
   <g id="matplotlib.axis_3">
    <g id="ytick_6">
     <g id="line2d_21">
      <defs>
       <path d="M 0 0 
L 3.5 0 
" id="m46f374fd91" style="stroke:#000000;stroke-width:0.8;"/>
      </defs>
      <g>
       <use style="stroke:#000000;stroke-width:0.8;" x="450.25625" xlink:href="#m46f374fd91" y="272.634701"/>
      </g>
     </g>
     <g id="text_19">
      <!-- 0.00 -->
      <g style="fill:#006400;" transform="translate(457.25625 276.433919)scale(0.1 -0.1)">
       <use xlink:href="#DejaVuSans-48"/>
       <use x="63.623047" xlink:href="#DejaVuSans-46"/>
       <use x="95.410156" xlink:href="#DejaVuSans-48"/>
       <use x="159.033203" xlink:href="#DejaVuSans-48"/>
      </g>
     </g>
    </g>
    <g id="ytick_7">
     <g id="line2d_22">
      <g>
       <use style="stroke:#000000;stroke-width:0.8;" x="450.25625" xlink:href="#m46f374fd91" y="243.255371"/>
      </g>
     </g>
     <g id="text_20">
      <!-- 0.25 -->
      <g style="fill:#006400;" transform="translate(457.25625 247.05459)scale(0.1 -0.1)">
       <use xlink:href="#DejaVuSans-48"/>
       <use x="63.623047" xlink:href="#DejaVuSans-46"/>
       <use x="95.410156" xlink:href="#DejaVuSans-50"/>
       <use x="159.033203" xlink:href="#DejaVuSans-53"/>
      </g>
     </g>
    </g>
    <g id="ytick_8">
     <g id="line2d_23">
      <g>
       <use style="stroke:#000000;stroke-width:0.8;" x="450.25625" xlink:href="#m46f374fd91" y="213.876041"/>
      </g>
     </g>
     <g id="text_21">
      <!-- 0.50 -->
      <g style="fill:#006400;" transform="translate(457.25625 217.67526)scale(0.1 -0.1)">
       <use xlink:href="#DejaVuSans-48"/>
       <use x="63.623047" xlink:href="#DejaVuSans-46"/>
       <use x="95.410156" xlink:href="#DejaVuSans-53"/>
       <use x="159.033203" xlink:href="#DejaVuSans-48"/>
      </g>
     </g>
    </g>
    <g id="ytick_9">
     <g id="line2d_24">
      <g>
       <use style="stroke:#000000;stroke-width:0.8;" x="450.25625" xlink:href="#m46f374fd91" y="184.496712"/>
      </g>
     </g>
     <g id="text_22">
      <!-- 0.75 -->
      <g style="fill:#006400;" transform="translate(457.25625 188.29593)scale(0.1 -0.1)">
       <use xlink:href="#DejaVuSans-48"/>
       <use x="63.623047" xlink:href="#DejaVuSans-46"/>
       <use x="95.410156" xlink:href="#DejaVuSans-55"/>
       <use x="159.033203" xlink:href="#DejaVuSans-53"/>
      </g>
     </g>
    </g>
    <g id="ytick_10">
     <g id="line2d_25">
      <g>
       <use style="stroke:#000000;stroke-width:0.8;" x="450.25625" xlink:href="#m46f374fd91" y="155.117382"/>
      </g>
     </g>
     <g id="text_23">
      <!-- 1.00 -->
      <g style="fill:#006400;" transform="translate(457.25625 158.916601)scale(0.1 -0.1)">
       <use xlink:href="#DejaVuSans-49"/>
       <use x="63.623047" xlink:href="#DejaVuSans-46"/>
       <use x="95.410156" xlink:href="#DejaVuSans-48"/>
       <use x="159.033203" xlink:href="#DejaVuSans-48"/>
      </g>
     </g>
    </g>
    <g id="ytick_11">
     <g id="line2d_26">
      <g>
       <use style="stroke:#000000;stroke-width:0.8;" x="450.25625" xlink:href="#m46f374fd91" y="125.738053"/>
      </g>
     </g>
     <g id="text_24">
      <!-- 1.25 -->
      <g style="fill:#006400;" transform="translate(457.25625 129.537271)scale(0.1 -0.1)">
       <use xlink:href="#DejaVuSans-49"/>
       <use x="63.623047" xlink:href="#DejaVuSans-46"/>
       <use x="95.410156" xlink:href="#DejaVuSans-50"/>
       <use x="159.033203" xlink:href="#DejaVuSans-53"/>
      </g>
     </g>
    </g>
    <g id="ytick_12">
     <g id="line2d_27">
      <g>
       <use style="stroke:#000000;stroke-width:0.8;" x="450.25625" xlink:href="#m46f374fd91" y="96.358723"/>
      </g>
     </g>
     <g id="text_25">
      <!-- 1.50 -->
      <g style="fill:#006400;" transform="translate(457.25625 100.157942)scale(0.1 -0.1)">
       <use xlink:href="#DejaVuSans-49"/>
       <use x="63.623047" xlink:href="#DejaVuSans-46"/>
       <use x="95.410156" xlink:href="#DejaVuSans-53"/>
       <use x="159.033203" xlink:href="#DejaVuSans-48"/>
      </g>
     </g>
    </g>
    <g id="ytick_13">
     <g id="line2d_28">
      <g>
       <use style="stroke:#000000;stroke-width:0.8;" x="450.25625" xlink:href="#m46f374fd91" y="66.979393"/>
      </g>
     </g>
     <g id="text_26">
      <!-- 1.75 -->
      <g style="fill:#006400;" transform="translate(457.25625 70.778612)scale(0.1 -0.1)">
       <use xlink:href="#DejaVuSans-49"/>
       <use x="63.623047" xlink:href="#DejaVuSans-46"/>
       <use x="95.410156" xlink:href="#DejaVuSans-55"/>
       <use x="159.033203" xlink:href="#DejaVuSans-53"/>
      </g>
     </g>
    </g>
    <g id="ytick_14">
     <g id="line2d_29">
      <g>
       <use style="stroke:#000000;stroke-width:0.8;" x="450.25625" xlink:href="#m46f374fd91" y="37.600064"/>
      </g>
     </g>
     <g id="text_27">
      <!-- 2.00 -->
      <g style="fill:#006400;" transform="translate(457.25625 41.399282)scale(0.1 -0.1)">
       <use xlink:href="#DejaVuSans-50"/>
       <use x="63.623047" xlink:href="#DejaVuSans-46"/>
       <use x="95.410156" xlink:href="#DejaVuSans-48"/>
       <use x="159.033203" xlink:href="#DejaVuSans-48"/>
      </g>
     </g>
    </g>
    <g id="text_28">
     <!-- Ratio -->
     <g style="fill:#006400;" transform="translate(491.120312 163.615312)rotate(-90)scale(0.1 -0.1)">
      <defs>
       <path d="M 30.609375 48.390625 
Q 23.390625 48.390625 19.1875 42.75 
Q 14.984375 37.109375 14.984375 27.296875 
Q 14.984375 17.484375 19.15625 11.84375 
Q 23.34375 6.203125 30.609375 6.203125 
Q 37.796875 6.203125 41.984375 11.859375 
Q 46.1875 17.53125 46.1875 27.296875 
Q 46.1875 37.015625 41.984375 42.703125 
Q 37.796875 48.390625 30.609375 48.390625 
z
M 30.609375 56 
Q 42.328125 56 49.015625 48.375 
Q 55.71875 40.765625 55.71875 27.296875 
Q 55.71875 13.875 49.015625 6.21875 
Q 42.328125 -1.421875 30.609375 -1.421875 
Q 18.84375 -1.421875 12.171875 6.21875 
Q 5.515625 13.875 5.515625 27.296875 
Q 5.515625 40.765625 12.171875 48.375 
Q 18.84375 56 30.609375 56 
z
" id="DejaVuSans-111"/>
      </defs>
      <use xlink:href="#DejaVuSans-82"/>
      <use x="67.232422" xlink:href="#DejaVuSans-97"/>
      <use x="128.511719" xlink:href="#DejaVuSans-116"/>
      <use x="167.720703" xlink:href="#DejaVuSans-105"/>
      <use x="195.503906" xlink:href="#DejaVuSans-111"/>
     </g>
    </g>
   </g>
   <g id="line2d_30">
    <path clip-path="url(#p9f76f61a4a)" d="M 47.38125 260.882969 
L 48.34497 198.722752 
L 48.55913 186.420911 
L 48.626055 186.579029 
L 48.706365 186.09224 
L 48.974065 182.502765 
L 50.981814 152.823277 
L 51.798299 144.634305 
L 52.494319 139.713648 
L 53.069873 137.071162 
L 53.524963 135.878837 
L 53.872973 135.48736 
L 54.140673 135.483651 
L 54.408373 135.729599 
L 54.756383 136.405152 
L 55.211473 137.847621 
L 55.827183 140.643796 
L 57.834932 150.498184 
L 58.075862 150.725597 
L 58.236482 150.608151 
L 58.437257 150.103621 
L 58.704957 148.711444 
L 59.039582 145.613831 
L 59.441132 139.587948 
L 59.922991 128.70231 
L 60.793016 108.265911 
L 61.074101 105.441596 
L 62.747226 87.193884 
L 63.470015 82.005018 
L 64.058955 79.20332 
L 64.540815 77.865613 
L 64.90221 77.417984 
L 65.16991 77.386975 
L 65.43761 77.605351 
L 65.772235 78.217314 
L 66.200555 79.520142 
L 66.762724 82.021812 
L 67.552439 86.674807 
L 68.944479 94.915963 
L 69.346029 96.085084 
L 69.573574 96.235909 
L 69.734194 96.064566 
L 69.948354 95.423778 
L 70.229438 93.768799 
L 70.590833 90.098867 
L 71.032538 83.068214 
L 71.420703 75.738316 
L 71.501013 76.084995 
L 71.527783 76.11273 
L 71.567938 76.041375 
L 71.715173 75.158343 
L 72.223803 70.196028 
L 73.267833 60.605314 
L 73.977237 56.032196 
L 74.552792 53.639698 
L 74.994497 52.615085 
L 75.329122 52.304049 
L 75.583437 52.331537 
L 75.851137 52.601575 
L 76.199147 53.311421 
L 76.640852 54.766948 
L 77.216406 57.501789 
L 78.019506 62.528478 
L 79.505241 71.944464 
L 79.906791 73.212525 
L 80.147721 73.411291 
L 80.308341 73.254554 
L 80.522501 72.634064 
L 80.803585 71.0196 
L 81.16498 67.472789 
L 81.67361 60.575431 
L 81.794075 61.029858 
L 81.861 60.872758 
L 82.061775 59.570077 
L 84.02937 44.522966 
L 84.591539 42.356868 
L 85.019859 41.460704 
L 85.341099 41.214962 
L 85.595414 41.276176 
L 85.876499 41.601852 
L 86.237894 42.407306 
L 86.706369 44.065723 
L 87.308694 47.111394 
L 88.165333 52.756615 
L 89.530603 61.740532 
L 89.958923 63.251481 
L 90.213238 63.531297 
L 90.373858 63.413114 
L 90.574633 62.89982 
L 90.842333 61.514524 
L 91.190342 58.420046 
L 91.591892 53.864792 
L 91.672202 54.284697 
L 91.725742 54.374127 
L 91.779282 54.272511 
L 91.953287 53.323929 
L 92.676077 47.467425 
L 93.492562 41.854294 
L 94.108272 39.032394 
L 94.590132 37.74415 
L 94.951526 37.313923 
L 95.219226 37.289212 
L 95.486926 37.511002 
L 95.821551 38.127041 
L 96.249871 39.443189 
L 96.798656 41.928465 
L 97.521446 46.335598 
L 99.529195 59.248909 
L 99.86382 60.011612 
L 100.05121 60.043831 
L 100.225215 59.776057 
L 100.466145 58.877308 
L 100.787385 56.63685 
L 101.269245 51.757472 
L 101.376325 52.268406 
L 101.41648 52.307664 
L 101.47002 52.216118 
L 101.644025 51.35097 
L 102.366814 45.984851 
L 103.143144 41.153237 
L 103.732084 38.760838 
L 104.187174 37.729995 
L 104.521799 37.432103 
L 104.776114 37.464696 
L 105.057199 37.757131 
L 105.405208 38.48327 
L 105.860298 40.013666 
L 106.435853 42.8079 
L 107.225568 47.872859 
L 108.885307 58.823632 
L 109.286857 60.063341 
L 109.514402 60.229843 
L 109.675022 60.064457 
L 109.889182 59.434586 
L 110.183652 57.730353 
L 110.585202 53.856884 
L 110.745822 52.419176 
L 110.799362 52.646664 
L 110.906442 53.004694 
L 110.946597 52.95186 
L 111.107217 52.283297 
L 111.669387 48.505582 
L 112.499256 43.568718 
L 113.074811 41.360906 
L 113.516516 40.427365 
L 113.837756 40.170528 
L 114.092071 40.218146 
L 114.373156 40.525286 
L 114.734551 41.30336 
L 115.189641 42.868288 
L 115.77858 45.770417 
L 116.595065 51.05532 
L 118.120955 61.098215 
L 118.53589 62.475022 
L 118.77682 62.701602 
L 118.93744 62.565834 
L 119.138215 62.03205 
L 119.419299 60.537531 
L 119.794079 57.150758 
L 120.035009 54.924508 
L 120.075164 55.099145 
L 120.195629 55.553017 
L 120.235784 55.515063 
L 120.383019 54.999602 
L 120.864879 52.129113 
L 121.708134 47.544208 
L 122.256919 45.662203 
L 122.671854 44.905251 
L 122.979708 44.721939 
L 123.234023 44.812809 
L 123.528493 45.188165 
L 123.903273 46.074136 
L 124.385133 47.849863 
L 125.000843 51.045115 
L 125.911023 57.112699 
L 127.115672 64.916339 
L 127.557377 66.5037 
L 127.811692 66.803819 
L 127.972312 66.704568 
L 128.173087 66.222873 
L 128.440787 64.897697 
L 128.802182 61.80362 
L 129.110037 58.809461 
L 129.163577 59.045101 
L 129.284042 59.479023 
L 129.324197 59.453172 
L 129.458047 59.070642 
L 129.872981 56.942291 
L 130.729621 52.819547 
L 131.251636 51.302023 
L 131.639801 50.751523 
L 131.920886 50.667699 
L 132.175201 50.819205 
L 132.483056 51.287479 
L 132.884606 52.353009 
L 133.393235 54.395079 
L 134.062485 58.094313 
L 135.320675 66.659724 
L 136.05685 70.822667 
L 136.4584 72.020235 
L 136.685945 72.174187 
L 136.846564 72.004407 
L 137.060724 71.373368 
L 137.355194 69.672603 
L 137.743359 65.93341 
L 137.970904 63.812092 
L 138.011059 63.966736 
L 138.171679 64.533475 
L 138.198449 64.515633 
L 138.332299 64.198761 
L 138.733849 62.452178 
L 139.536949 59.20373 
L 140.018809 58.086586 
L 140.366818 57.741705 
L 140.634518 57.7468 
L 140.915603 58.004811 
L 141.263613 58.676789 
L 141.705318 60.068997 
L 142.280873 62.708055 
L 143.070588 67.514617 
L 144.636632 77.258057 
L 145.038182 78.444719 
L 145.265727 78.599433 
L 145.426347 78.432874 
L 145.640507 77.808807 
L 145.921592 76.21833 
L 146.309757 72.52788 
L 146.590842 69.783955 
L 146.630997 69.943883 
L 146.818387 70.570694 
L 146.831772 70.564586 
L 146.965622 70.328176 
L 147.340401 69.020687 
L 148.089961 66.591274 
L 148.531666 65.836711 
L 148.852906 65.668693 
L 149.120606 65.780814 
L 149.428461 66.192807 
L 149.816626 67.13451 
L 150.311871 68.981755 
L 150.95435 72.315974 
L 152.038535 79.363622 
L 152.895175 84.327915 
L 153.323495 85.697902 
L 153.564425 85.91179 
L 153.725045 85.77676 
L 153.92582 85.252113 
L 154.206905 83.777985 
L 154.568299 80.528021 
L 154.943079 76.611527 
L 154.996619 76.811502 
L 155.197394 77.487552 
L 155.317859 77.379495 
L 155.612329 76.660529 
L 156.388659 74.779867 
L 156.776824 74.373688 
L 157.057909 74.361038 
L 157.338994 74.592943 
L 157.687004 75.218834 
L 158.128708 76.537035 
L 158.690878 78.992335 
L 159.467208 83.504655 
L 161.019868 92.730054 
L 161.408032 93.809311 
L 161.635577 93.943252 
L 161.796197 93.765894 
L 162.010357 93.131228 
L 162.304827 91.430232 
L 162.692992 87.644646 
L 163.027617 84.185432 
L 163.067772 84.317699 
L 163.308702 85.179501 
L 163.455937 85.108778 
L 163.790562 84.545985 
L 164.379502 83.67132 
L 164.714127 83.527424 
L 164.995211 83.652316 
L 165.316451 84.082108 
L 165.718001 85.049779 
L 166.226631 86.929571 
L 166.895881 90.360719 
L 169.050865 102.214963 
L 169.318565 102.55791 
L 169.479185 102.485081 
L 169.666575 102.094776 
L 169.92089 100.975211 
L 170.255515 98.362424 
L 170.817685 92.39068 
L 170.91138 92.846789 
L 171.138925 93.539913 
L 171.326315 93.53785 
L 172.330189 93.08316 
L 172.638044 93.364227 
L 172.999439 94.033501 
L 173.454529 95.398358 
L 174.030084 97.896408 
L 174.846569 102.561123 
L 176.185068 110.206069 
L 176.600003 111.409029 
L 176.827548 111.577038 
L 176.988168 111.434206 
L 177.202328 110.85807 
L 177.483413 109.350596 
L 177.844808 106.057246 
L 178.313283 101.095196 
L 178.366823 101.299615 
L 178.661293 102.422982 
L 178.915607 102.581054 
L 179.598242 102.805253 
L 179.946252 103.25508 
L 180.361187 104.201222 
L 180.869817 105.978551 
L 181.525682 109.164336 
L 183.707436 120.56963 
L 183.961751 120.837 
L 184.122371 120.738168 
L 184.323146 120.277409 
L 184.590846 119.006449 
L 184.938856 116.121548 
L 185.501026 110.150547 
L 185.581336 110.470407 
L 185.88919 111.692767 
L 186.250585 112.160471 
L 186.79937 112.879341 
L 187.241075 113.891674 
L 187.76309 115.698981 
L 188.43234 118.909464 
L 190.560554 129.874538 
L 190.828254 130.177721 
L 190.988874 130.089705 
L 191.189649 129.648457 
L 191.457349 128.414003 
L 191.805359 125.593838 
L 192.394299 119.416278 
L 192.487994 119.766913 
L 192.836003 121.226888 
L 193.505253 122.599134 
L 194.040653 124.080018 
L 194.629593 126.42777 
L 195.419308 130.597392 
L 196.864887 138.338579 
L 197.253052 139.333121 
L 197.480597 139.453718 
L 197.641217 139.28405 
L 197.855377 138.681908 
L 198.149847 137.066459 
L 198.524627 133.605928 
L 199.006487 128.74952 
L 199.046642 128.81812 
L 200.318216 133.228846 
L 200.947311 135.710549 
L 201.750411 139.887585 
L 203.182606 147.435924 
L 203.57077 148.430441 
L 203.798315 148.561863 
L 203.958935 148.405477 
L 204.173095 147.829178 
L 204.45418 146.358039 
L 204.82896 143.052829 
L 205.350975 138.024125 
L 205.39113 138.096679 
L 205.63206 139.374678 
L 206.14069 141.310537 
L 206.983944 144.551094 
L 207.813814 148.7979 
L 209.259394 156.294829 
L 209.647559 157.268584 
L 209.875104 157.395056 
L 210.049109 157.216425 
L 210.276654 156.568699 
L 210.571123 154.950445 
L 210.972673 151.281569 
L 211.441148 147.131353 
L 211.454533 147.143354 
L 211.548228 147.493183 
L 212.297788 150.94504 
L 213.221353 155.091855 
L 215.376337 165.565385 
L 215.657422 165.889729 
L 215.831427 165.802756 
L 216.032202 165.383025 
L 216.299902 164.225516 
L 216.661297 161.499203 
L 217.290391 155.979529 
L 217.343931 156.065906 
L 217.544706 157.087138 
L 218.280881 160.573753 
L 219.298141 165.691218 
L 220.703566 172.808768 
L 221.105115 173.83523 
L 221.346045 173.987485 
L 221.52005 173.827329 
L 221.747595 173.225201 
L 222.042065 171.712999 
L 222.443615 168.318929 
L 222.925475 164.504237 
L 222.9924 164.595182 
L 223.193175 165.574392 
L 224.317514 171.233646 
L 226.325264 181.0535 
L 226.659889 181.631348 
L 226.847279 181.638576 
L 227.034669 181.375444 
L 227.275599 180.59104 
L 227.596839 178.700547 
L 228.386553 172.65151 
L 228.480248 172.84048 
L 228.774718 174.355017 
L 231.157248 186.742628 
L 231.679262 188.490905 
L 231.987117 188.893324 
L 232.161122 188.844525 
L 232.361897 188.498926 
L 232.629597 187.50323 
L 232.990992 185.150938 
L 233.673627 180.38988 
L 233.687012 180.397249 
L 233.794092 180.662446 
L 234.168872 182.599929 
L 236.404166 194.065671 
L 236.872641 195.419998 
L 237.153726 195.688092 
L 237.327731 195.591504 
L 237.541891 195.156511 
L 237.822976 194.007939 
L 238.224526 191.262708 
L 238.77331 187.705597 
L 238.85362 187.740474 
L 238.867005 187.765233 
L 239.04101 188.412045 
L 240.21889 194.700689 
L 241.410155 200.486884 
L 241.865244 201.761738 
L 242.146329 202.02749 
L 242.320334 201.938656 
L 242.534494 201.526229 
L 242.815579 200.436311 
L 243.217129 197.856762 
L 243.752529 194.593321 
L 243.832839 194.569099 
L 243.859609 194.600044 
L 244.006844 195.036067 
L 244.502089 197.561649 
L 246.228753 206.19534 
L 246.710613 207.602827 
L 247.005083 207.922863 
L 247.192473 207.852427 
L 247.406633 207.474145 
L 247.687718 206.459834 
L 248.102653 203.97198 
L 248.624668 201.03258 
L 248.718363 200.98088 
L 248.758518 201.021841 
L 248.919137 201.477411 
L 249.387612 203.78149 
L 250.993812 211.646965 
L 251.489057 213.071585 
L 251.783527 213.390571 
L 251.970917 213.331209 
L 252.185077 212.980425 
L 252.466161 212.033103 
L 252.881096 209.726717 
L 253.403111 207.024112 
L 253.523576 206.961346 
L 253.550346 206.987192 
L 253.710966 207.384937 
L 254.112516 209.220976 
L 255.758871 216.987052 
L 256.227345 218.199522 
L 256.50843 218.448007 
L 256.69582 218.365312 
L 256.923365 217.967223 
L 257.23122 216.889744 
L 257.73985 214.09566 
L 258.11463 212.55394 
L 258.235095 212.500648 
L 258.261865 212.523074 
L 258.422485 212.874145 
L 258.78388 214.392899 
L 260.483774 221.996473 
L 260.912094 222.939253 
L 261.179794 223.100492 
L 261.380569 222.961245 
L 261.621499 222.473375 
L 261.956124 221.22168 
L 262.839533 217.608753 
L 262.959998 217.712175 
L 263.174158 218.305412 
L 263.709558 220.676033 
L 264.914208 225.879819 
L 265.396068 227.093818 
L 265.690538 227.36699 
L 265.891313 227.301154 
L 266.118858 226.95492 
L 266.426712 226.023298 
L 267.055807 223.148493 
L 267.363662 222.343574 
L 267.510897 222.371355 
L 267.698287 222.761436 
L 268.086452 224.242025 
L 269.585572 230.300676 
L 270.013891 231.14188 
L 270.281591 231.273654 
L 270.495751 231.122286 
L 270.763451 230.593164 
L 271.138231 229.273991 
L 271.861021 226.692834 
L 272.021641 226.669274 
L 272.195646 226.94693 
L 272.516886 227.987546 
L 274.283705 234.403792 
L 274.631715 234.814314 
L 274.85926 234.795682 
L 275.086805 234.527005 
L 275.39466 233.768597 
L 275.996985 231.497023 
L 276.344995 230.643586 
L 276.519 230.622545 
L 276.70639 230.90651 
L 277.041014 231.926582 
L 278.727524 237.664792 
L 279.075534 238.050949 
L 279.303079 238.033078 
L 279.544009 237.760405 
L 279.865249 237.003267 
L 280.909278 234.196168 
L 281.069898 234.315697 
L 281.324213 234.861631 
L 281.859613 236.698518 
L 282.876873 240.074847 
L 283.318578 240.859452 
L 283.599663 241.001331 
L 283.827208 240.881235 
L 284.108292 240.436004 
L 284.523227 239.282073 
L 285.165707 237.561763 
L 285.379867 237.476888 
L 285.567257 237.67192 
L 285.875112 238.396788 
L 286.704982 241.17539 
L 287.387616 243.035882 
L 287.789166 243.582297 
L 288.056866 243.63605 
L 288.297796 243.449894 
L 288.619036 242.867303 
L 289.770146 240.432865 
L 289.970921 240.609765 
L 290.278776 241.260815 
L 291.028335 243.571937 
L 291.73774 245.420726 
L 292.152675 245.964932 
L 292.43376 246.018207 
L 292.688075 245.825727 
L 293.0227 245.244016 
L 294.0935 243.101724 
L 294.294275 243.193191 
L 294.561974 243.618969 
L 295.057219 244.922839 
L 296.074479 247.570054 
L 296.489414 248.097252 
L 296.783884 248.160024 
L 297.051584 247.972384 
L 297.399594 247.406734 
L 298.430238 245.513715 
L 298.644398 245.574687 
L 298.912098 245.936101 
L 299.380573 247.033657 
L 300.464758 249.607814 
L 300.866308 250.03839 
L 301.160778 250.066152 
L 301.441862 249.851488 
L 301.816642 249.245476 
L 302.713437 247.700546 
L 302.954367 247.700726 
L 303.208682 247.959603 
L 303.610232 248.745679 
L 304.921961 251.52042 
L 305.296741 251.787658 
L 305.577826 251.741143 
L 305.885681 251.447971 
L 306.367541 250.619082 
L 306.969866 249.686708 
L 307.237566 249.611591 
L 307.491881 249.788689 
L 307.853276 250.364729 
L 309.41932 253.221412 
L 309.753945 253.316599 
L 310.048415 253.168956 
L 310.43658 252.68325 
L 311.4003 251.355164 
L 311.668 251.37516 
L 311.962469 251.657457 
L 312.444329 252.502008 
L 313.488359 254.362131 
L 313.889909 254.655275 
L 314.211149 254.630773 
L 314.545774 254.363203 
L 315.094559 253.575941 
L 315.643343 252.933223 
L 315.937813 252.890312 
L 316.232283 253.097081 
L 316.660603 253.723812 
L 317.905408 255.689453 
L 318.293573 255.873056 
L 318.614813 255.789004 
L 319.002977 255.428711 
L 320.100547 254.252531 
L 320.395017 254.318836 
L 320.743027 254.658516 
L 321.398892 255.695555 
L 322.121682 256.689845 
L 322.536616 256.926931 
L 322.884626 256.877431 
L 323.272791 256.573207 
L 324.464056 255.465826 
L 324.771911 255.564235 
L 325.160076 255.953633 
L 326.75289 257.84382 
L 327.114285 257.847437 
L 327.50245 257.613246 
L 328.86772 256.550953 
L 329.202345 256.71322 
L 329.670819 257.224113 
L 330.835314 258.572473 
L 331.250249 258.700364 
L 331.638414 258.578943 
L 332.147044 258.148834 
L 332.909988 257.534435 
L 333.271383 257.52627 
L 333.646163 257.755759 
L 334.261873 258.448396 
L 335.064973 259.269351 
L 335.506678 259.426804 
L 335.908228 259.332698 
L 336.430242 258.945027 
L 337.233342 258.370026 
L 337.608122 258.375736 
L 338.023057 258.628357 
L 338.826157 259.470445 
L 339.468637 259.979347 
L 339.910341 260.062598 
L 340.338661 259.911503 
L 341.114991 259.326649 
L 341.637006 259.093641 
L 342.038556 259.16234 
L 342.520416 259.502988 
L 343.8723 260.586926 
L 344.314005 260.607041 
L 344.795865 260.39265 
L 346.000515 259.745294 
L 346.41545 259.842085 
L 346.964234 260.231638 
L 348.075189 261.051871 
L 348.557049 261.107922 
L 349.052294 260.928298 
L 350.364024 260.323201 
L 350.819113 260.456363 
L 351.488363 260.932403 
L 352.345003 261.478998 
L 352.840248 261.539153 
L 353.362263 261.368462 
L 354.660607 260.830478 
L 355.142467 260.959227 
L 355.878642 261.437944 
L 356.681742 261.873386 
L 357.203757 261.905515 
L 357.779311 261.702516 
L 358.876881 261.276959 
L 359.372126 261.362033 
L 360.054761 261.738638 
L 360.99171 262.209324 
L 361.540495 262.227171 
L 362.182975 262.00132 
L 363.146695 261.66966 
L 363.682095 261.746908 
L 364.431654 262.124004 
L 365.315064 262.504571 
L 365.890619 262.504324 
L 366.626794 262.247851 
L 367.470049 262.011111 
L 368.032218 262.097101 
L 368.915628 262.510241 
L 369.705343 262.770034 
L 370.307668 262.729968 
L 372.275262 262.372049 
L 373.118517 262.714203 
L 373.988542 262.986057 
L 374.631022 262.944386 
L 376.545076 262.621544 
L 377.415101 262.932791 
L 378.325281 263.178727 
L 379.007915 263.119211 
L 380.747965 262.829199 
L 381.577835 263.074765 
L 382.621864 263.342573 
L 383.344654 263.279504 
L 385.017779 263.023803 
L 385.887803 263.25053 
L 386.958603 263.486759 
L 387.734933 263.407763 
L 389.247437 263.190674 
L 390.117462 263.379918 
L 391.295342 263.610901 
L 392.138597 263.516356 
L 393.503866 263.340323 
L 394.414046 263.511733 
L 395.645466 263.717761 
L 396.56903 263.605954 
L 397.813835 263.474668 
L 398.804325 263.648275 
L 399.982204 263.809472 
L 400.999464 263.685277 
L 402.150574 263.593591 
L 403.261528 263.778509 
L 404.372483 263.886776 
L 405.630673 263.728561 
L 406.647932 263.711444 
L 409.365087 263.889251 
L 410.877591 263.792351 
L 413.889215 263.926757 
L 415.21433 263.871583 
L 418.132259 263.993282 
L 419.564454 263.941678 
L 422.361918 264.052016 
L 423.927963 264.003831 
L 426.591577 264.102473 
L 428.304856 264.059074 
L 430.821236 264.145711 
L 432.695135 264.108263 
L 435.077664 264.18083 
L 437.085414 264.15105 
L 439.360863 264.209364 
L 441.475693 264.188121 
L 443.684217 264.23176 
L 445.852586 264.219214 
L 448.047726 264.249177 
L 450.242865 264.246691 
L 450.269635 264.248253 
L 450.269635 264.248253 
" style="fill:none;stroke:#006400;stroke-linecap:square;stroke-width:1.5;"/>
   </g>
   <g id="patch_8">
    <path d="M 47.38125 275.64375 
L 47.38125 25.918125 
" style="fill:none;stroke:#000000;stroke-linecap:square;stroke-linejoin:miter;stroke-width:0.8;"/>
   </g>
   <g id="patch_9">
    <path d="M 450.25625 275.64375 
L 450.25625 25.918125 
" style="fill:none;stroke:#000000;stroke-linecap:square;stroke-linejoin:miter;stroke-width:0.8;"/>
   </g>
   <g id="patch_10">
    <path d="M 47.38125 275.64375 
L 450.25625 275.64375 
" style="fill:none;stroke:#000000;stroke-linecap:square;stroke-linejoin:miter;stroke-width:0.8;"/>
   </g>
   <g id="patch_11">
    <path d="M 47.38125 25.918125 
L 450.25625 25.918125 
" style="fill:none;stroke:#000000;stroke-linecap:square;stroke-linejoin:miter;stroke-width:0.8;"/>
   </g>
  </g>
 </g>
 <defs>
  <clipPath id="p9f76f61a4a">
   <rect height="249.725625" width="402.875" x="47.38125" y="25.918125"/>
  </clipPath>
 </defs>
</svg>
