<?xml version="1.0" encoding="utf-8" standalone="no"?>
<!DOCTYPE svg PUBLIC "-//W3C//DTD SVG 1.1//EN"
  "http://www.w3.org/Graphics/SVG/1.1/DTD/svg11.dtd">
<!-- Created with matplotlib (https://matplotlib.org/) -->
<svg height="316.8pt" version="1.1" viewBox="0 0 504 316.8" width="504pt" xmlns="http://www.w3.org/2000/svg" xmlns:xlink="http://www.w3.org/1999/xlink">
 <defs>
  <style type="text/css">
*{stroke-linecap:butt;stroke-linejoin:round;}
  </style>
 </defs>
 <g id="figure_1">
  <g id="patch_1">
   <path d="M 0 316.8 
L 504 316.8 
L 504 0 
L 0 0 
z
" style="fill:#ffffff;"/>
  </g>
  <g id="axes_1"/>
  <g id="patch_2">
   <path d="M 10.8 306 
L 493.2 306 
L 493.2 10.8 
L 10.8 10.8 
z
" style="fill:#ffffff;"/>
  </g>
  <g id="pane3d_1">
   <g id="patch_3">
    <path d="M 94.121583 176.740253 
L 333.397136 139.13892 
L 338.855803 21.699862 
L 81.830457 59.109408 
" style="fill:#f2f2f2;opacity:0.5;stroke:#f2f2f2;stroke-linejoin:miter;"/>
   </g>
  </g>
  <g id="pane3d_2">
   <g id="patch_4">
    <path d="M 333.397136 139.13892 
L 430.047806 246.929266 
L 443.471978 129.289366 
L 338.855803 21.699862 
" style="fill:#e6e6e6;opacity:0.5;stroke:#e6e6e6;stroke-linejoin:miter;"/>
   </g>
  </g>
  <g id="pane3d_3">
   <g id="patch_5">
    <path d="M 94.121583 176.740253 
L 176.497559 289.904396 
L 430.047806 246.929266 
L 333.397136 139.13892 
" style="fill:#ececec;opacity:0.5;stroke:#ececec;stroke-linejoin:miter;"/>
   </g>
  </g>
  <g id="axis3d_1">
   <g id="line2d_1">
    <path d="M 94.121583 176.740253 
L 176.497559 289.904396 
" style="fill:none;stroke:#000000;stroke-linecap:square;stroke-width:0.8;"/>
   </g>
   <g id="text_1">
    <!-- $\lambda$ -->
    <defs>
     <path d="M 36.71875 67.4375 
L 48.828125 0 
L 39.3125 0 
L 31.84375 40.4375 
L 5.125 0 
L -4.390625 0 
L 29.734375 52.4375 
L 28.03125 62.109375 
Q 26.953125 68.265625 21.734375 68.265625 
L 17.046875 68.265625 
L 18.5 75.984375 
L 24.21875 75.875 
Q 35.203125 75.734375 36.71875 67.4375 
z
" id="DejaVuSans-Oblique-955"/>
    </defs>
    <g transform="translate(100.05807 249.063643)rotate(-306.052129)scale(0.1 -0.1)">
     <use transform="translate(0 0.015625)" xlink:href="#DejaVuSans-Oblique-955"/>
    </g>
   </g>
   <g id="Line3DCollection_1">
    <path d="M 99.750744 184.473322 
L 340.011757 146.515924 
L 345.982397 29.029003 
" style="fill:none;stroke:#b0b0b0;stroke-width:0.8;"/>
    <path d="M 114.499883 204.734978 
L 357.335968 165.836872 
L 364.670519 48.248265 
" style="fill:none;stroke:#b0b0b0;stroke-width:0.8;"/>
    <path d="M 129.6213 225.508051 
L 375.086993 185.633828 
L 383.853683 67.97664 
" style="fill:none;stroke:#b0b0b0;stroke-width:0.8;"/>
    <path d="M 145.12927 246.812153 
L 393.280801 205.924602 
L 403.551824 88.234628 
" style="fill:none;stroke:#b0b0b0;stroke-width:0.8;"/>
    <path d="M 161.038808 268.667909 
L 411.934169 226.727903 
L 423.785961 109.043846 
" style="fill:none;stroke:#b0b0b0;stroke-width:0.8;"/>
   </g>
   <g id="xtick_1">
    <g id="line2d_2">
     <path d="M 101.718405 184.162463 
L 95.813163 185.095397 
" style="fill:none;stroke:#000000;stroke-linecap:square;stroke-width:0.8;"/>
    </g>
    <g id="text_2">
     <!-- 0.7 -->
     <defs>
      <path d="M 31.78125 66.40625 
Q 24.171875 66.40625 20.328125 58.90625 
Q 16.5 51.421875 16.5 36.375 
Q 16.5 21.390625 20.328125 13.890625 
Q 24.171875 6.390625 31.78125 6.390625 
Q 39.453125 6.390625 43.28125 13.890625 
Q 47.125 21.390625 47.125 36.375 
Q 47.125 51.421875 43.28125 58.90625 
Q 39.453125 66.40625 31.78125 66.40625 
z
M 31.78125 74.21875 
Q 44.046875 74.21875 50.515625 64.515625 
Q 56.984375 54.828125 56.984375 36.375 
Q 56.984375 17.96875 50.515625 8.265625 
Q 44.046875 -1.421875 31.78125 -1.421875 
Q 19.53125 -1.421875 13.0625 8.265625 
Q 6.59375 17.96875 6.59375 36.375 
Q 6.59375 54.828125 13.0625 64.515625 
Q 19.53125 74.21875 31.78125 74.21875 
z
" id="DejaVuSans-48"/>
      <path d="M 10.6875 12.40625 
L 21 12.40625 
L 21 0 
L 10.6875 0 
z
" id="DejaVuSans-46"/>
      <path d="M 8.203125 72.90625 
L 55.078125 72.90625 
L 55.078125 68.703125 
L 28.609375 0 
L 18.3125 0 
L 43.21875 64.59375 
L 8.203125 64.59375 
z
" id="DejaVuSans-55"/>
     </defs>
     <g transform="translate(78.493514 200.471534)scale(0.1 -0.1)">
      <use xlink:href="#DejaVuSans-48"/>
      <use x="63.623047" xlink:href="#DejaVuSans-46"/>
      <use x="95.410156" xlink:href="#DejaVuSans-55"/>
     </g>
    </g>
   </g>
   <g id="xtick_2">
    <g id="line2d_3">
     <path d="M 116.489207 204.416323 
L 110.518922 205.372658 
" style="fill:none;stroke:#000000;stroke-linecap:square;stroke-width:0.8;"/>
    </g>
    <g id="text_3">
     <!-- 0.8 -->
     <defs>
      <path d="M 31.78125 34.625 
Q 24.75 34.625 20.71875 30.859375 
Q 16.703125 27.09375 16.703125 20.515625 
Q 16.703125 13.921875 20.71875 10.15625 
Q 24.75 6.390625 31.78125 6.390625 
Q 38.8125 6.390625 42.859375 10.171875 
Q 46.921875 13.96875 46.921875 20.515625 
Q 46.921875 27.09375 42.890625 30.859375 
Q 38.875 34.625 31.78125 34.625 
z
M 21.921875 38.8125 
Q 15.578125 40.375 12.03125 44.71875 
Q 8.5 49.078125 8.5 55.328125 
Q 8.5 64.0625 14.71875 69.140625 
Q 20.953125 74.21875 31.78125 74.21875 
Q 42.671875 74.21875 48.875 69.140625 
Q 55.078125 64.0625 55.078125 55.328125 
Q 55.078125 49.078125 51.53125 44.71875 
Q 48 40.375 41.703125 38.8125 
Q 48.828125 37.15625 52.796875 32.3125 
Q 56.78125 27.484375 56.78125 20.515625 
Q 56.78125 9.90625 50.3125 4.234375 
Q 43.84375 -1.421875 31.78125 -1.421875 
Q 19.734375 -1.421875 13.25 4.234375 
Q 6.78125 9.90625 6.78125 20.515625 
Q 6.78125 27.484375 10.78125 32.3125 
Q 14.796875 37.15625 21.921875 38.8125 
z
M 18.3125 54.390625 
Q 18.3125 48.734375 21.84375 45.5625 
Q 25.390625 42.390625 31.78125 42.390625 
Q 38.140625 42.390625 41.71875 45.5625 
Q 45.3125 48.734375 45.3125 54.390625 
Q 45.3125 60.0625 41.71875 63.234375 
Q 38.140625 66.40625 31.78125 66.40625 
Q 25.390625 66.40625 21.84375 63.234375 
Q 18.3125 60.0625 18.3125 54.390625 
z
" id="DejaVuSans-56"/>
     </defs>
     <g transform="translate(93.038362 220.784163)scale(0.1 -0.1)">
      <use xlink:href="#DejaVuSans-48"/>
      <use x="63.623047" xlink:href="#DejaVuSans-46"/>
      <use x="95.410156" xlink:href="#DejaVuSans-56"/>
     </g>
    </g>
   </g>
   <g id="xtick_3">
    <g id="line2d_4">
     <path d="M 131.63276 225.181303 
L 125.596011 226.161932 
" style="fill:none;stroke:#000000;stroke-linecap:square;stroke-width:0.8;"/>
    </g>
    <g id="text_4">
     <!-- 0.9 -->
     <defs>
      <path d="M 10.984375 1.515625 
L 10.984375 10.5 
Q 14.703125 8.734375 18.5 7.8125 
Q 22.3125 6.890625 25.984375 6.890625 
Q 35.75 6.890625 40.890625 13.453125 
Q 46.046875 20.015625 46.78125 33.40625 
Q 43.953125 29.203125 39.59375 26.953125 
Q 35.25 24.703125 29.984375 24.703125 
Q 19.046875 24.703125 12.671875 31.3125 
Q 6.296875 37.9375 6.296875 49.421875 
Q 6.296875 60.640625 12.9375 67.421875 
Q 19.578125 74.21875 30.609375 74.21875 
Q 43.265625 74.21875 49.921875 64.515625 
Q 56.59375 54.828125 56.59375 36.375 
Q 56.59375 19.140625 48.40625 8.859375 
Q 40.234375 -1.421875 26.421875 -1.421875 
Q 22.703125 -1.421875 18.890625 -0.6875 
Q 15.09375 0.046875 10.984375 1.515625 
z
M 30.609375 32.421875 
Q 37.25 32.421875 41.125 36.953125 
Q 45.015625 41.5 45.015625 49.421875 
Q 45.015625 57.28125 41.125 61.84375 
Q 37.25 66.40625 30.609375 66.40625 
Q 23.96875 66.40625 20.09375 61.84375 
Q 16.21875 57.28125 16.21875 49.421875 
Q 16.21875 41.5 20.09375 36.953125 
Q 23.96875 32.421875 30.609375 32.421875 
z
" id="DejaVuSans-57"/>
     </defs>
     <g transform="translate(107.949352 241.608127)scale(0.1 -0.1)">
      <use xlink:href="#DejaVuSans-48"/>
      <use x="63.623047" xlink:href="#DejaVuSans-46"/>
      <use x="95.410156" xlink:href="#DejaVuSans-57"/>
     </g>
    </g>
   </g>
   <g id="xtick_4">
    <g id="line2d_5">
     <path d="M 147.163356 246.477 
L 141.058672 247.482859 
" style="fill:none;stroke:#000000;stroke-linecap:square;stroke-width:0.8;"/>
    </g>
    <g id="text_5">
     <!-- 1.0 -->
     <defs>
      <path d="M 12.40625 8.296875 
L 28.515625 8.296875 
L 28.515625 63.921875 
L 10.984375 60.40625 
L 10.984375 69.390625 
L 28.421875 72.90625 
L 38.28125 72.90625 
L 38.28125 8.296875 
L 54.390625 8.296875 
L 54.390625 0 
L 12.40625 0 
z
" id="DejaVuSans-49"/>
     </defs>
     <g transform="translate(123.240484 262.96298)scale(0.1 -0.1)">
      <use xlink:href="#DejaVuSans-49"/>
      <use x="63.623047" xlink:href="#DejaVuSans-46"/>
      <use x="95.410156" xlink:href="#DejaVuSans-48"/>
     </g>
    </g>
   </g>
   <g id="xtick_5">
    <g id="line2d_6">
     <path d="M 163.096025 268.324022 
L 156.92189 269.356098 
" style="fill:none;stroke:#000000;stroke-linecap:square;stroke-width:0.8;"/>
    </g>
    <g id="text_6">
     <!-- 1.1 -->
     <g transform="translate(138.926484 284.869287)scale(0.1 -0.1)">
      <use xlink:href="#DejaVuSans-49"/>
      <use x="63.623047" xlink:href="#DejaVuSans-46"/>
      <use x="95.410156" xlink:href="#DejaVuSans-49"/>
     </g>
    </g>
   </g>
  </g>
  <g id="axis3d_2">
   <g id="line2d_7">
    <path d="M 430.047806 246.929266 
L 176.497559 289.904396 
" style="fill:none;stroke:#000000;stroke-linecap:square;stroke-width:0.8;"/>
   </g>
   <g id="text_7">
    <!-- $\omega$ -->
    <defs>
     <path d="M 21.390625 -1.421875 
Q 1.125 -1.421875 6.78125 27.59375 
Q 8.984375 39.0625 19.625 54.6875 
L 29.296875 54.6875 
Q 19.234375 39.0625 17 27.34375 
Q 12.796875 6.203125 23.734375 6.203125 
Q 33.84375 6.203125 38.71875 32.46875 
L 47.015625 32.46875 
Q 41.703125 6.0625 51.8125 6.203125 
Q 62.703125 6.296875 66.796875 27.34375 
Q 69.046875 39.0625 65.140625 54.6875 
L 74.8125 54.6875 
Q 79.296875 39.0625 77.09375 27.59375 
Q 71.53125 -1.46875 51.21875 -1.421875 
Q 37.9375 -1.375 39.109375 13.1875 
Q 34.28125 -1.421875 21.390625 -1.421875 
z
" id="DejaVuSans-Oblique-969"/>
    </defs>
    <g transform="translate(312.598315 299.574602)rotate(-9.61984)scale(0.1 -0.1)">
     <use transform="translate(0 0.3125)" xlink:href="#DejaVuSans-Oblique-969"/>
    </g>
   </g>
   <g id="Line3DCollection_2">
    <path d="M 125.158173 52.803142 
L 134.398966 170.4108 
L 219.235487 282.660593 
" style="fill:none;stroke:#b0b0b0;stroke-width:0.8;"/>
    <path d="M 165.835996 46.882563 
L 172.234462 164.465081 
L 259.361062 275.859567 
" style="fill:none;stroke:#b0b0b0;stroke-width:0.8;"/>
    <path d="M 206.192703 41.008722 
L 209.791822 158.563071 
L 299.171284 269.111992 
" style="fill:none;stroke:#b0b0b0;stroke-width:0.8;"/>
    <path d="M 246.232079 35.181067 
L 247.074101 152.704289 
L 338.669855 262.417239 
" style="fill:none;stroke:#b0b0b0;stroke-width:0.8;"/>
    <path d="M 285.957853 29.399057 
L 284.084312 146.888261 
L 377.860422 255.774691 
" style="fill:none;stroke:#b0b0b0;stroke-width:0.8;"/>
    <path d="M 325.373696 23.662156 
L 320.825421 141.114522 
L 416.746572 249.183739 
" style="fill:none;stroke:#b0b0b0;stroke-width:0.8;"/>
   </g>
   <g id="xtick_6">
    <g id="line2d_8">
     <path d="M 218.50993 281.700586 
L 220.68903 284.58382 
" style="fill:none;stroke:#000000;stroke-linecap:square;stroke-width:0.8;"/>
    </g>
    <g id="text_8">
     <!-- 0.75 -->
     <defs>
      <path d="M 10.796875 72.90625 
L 49.515625 72.90625 
L 49.515625 64.59375 
L 19.828125 64.59375 
L 19.828125 46.734375 
Q 21.96875 47.46875 24.109375 47.828125 
Q 26.265625 48.1875 28.421875 48.1875 
Q 40.625 48.1875 47.75 41.5 
Q 54.890625 34.8125 54.890625 23.390625 
Q 54.890625 11.625 47.5625 5.09375 
Q 40.234375 -1.421875 26.90625 -1.421875 
Q 22.3125 -1.421875 17.546875 -0.640625 
Q 12.796875 0.140625 7.71875 1.703125 
L 7.71875 11.625 
Q 12.109375 9.234375 16.796875 8.0625 
Q 21.484375 6.890625 26.703125 6.890625 
Q 35.15625 6.890625 40.078125 11.328125 
Q 45.015625 15.765625 45.015625 23.390625 
Q 45.015625 31 40.078125 35.4375 
Q 35.15625 39.890625 26.703125 39.890625 
Q 22.75 39.890625 18.8125 39.015625 
Q 14.890625 38.140625 10.796875 36.28125 
z
" id="DejaVuSans-53"/>
     </defs>
     <g transform="translate(213.420107 303.251018)scale(0.1 -0.1)">
      <use xlink:href="#DejaVuSans-48"/>
      <use x="63.623047" xlink:href="#DejaVuSans-46"/>
      <use x="95.410156" xlink:href="#DejaVuSans-55"/>
      <use x="159.033203" xlink:href="#DejaVuSans-53"/>
     </g>
    </g>
   </g>
   <g id="xtick_7">
    <g id="line2d_9">
     <path d="M 258.616109 274.907118 
L 260.853452 277.767641 
" style="fill:none;stroke:#000000;stroke-linecap:square;stroke-width:0.8;"/>
    </g>
    <g id="text_9">
     <!-- 0.80 -->
     <g transform="translate(253.514566 296.40047)scale(0.1 -0.1)">
      <use xlink:href="#DejaVuSans-48"/>
      <use x="63.623047" xlink:href="#DejaVuSans-46"/>
      <use x="95.410156" xlink:href="#DejaVuSans-56"/>
      <use x="159.033203" xlink:href="#DejaVuSans-48"/>
     </g>
    </g>
   </g>
   <g id="xtick_8">
    <g id="line2d_10">
     <path d="M 298.407261 268.167011 
L 300.701866 271.005091 
" style="fill:none;stroke:#000000;stroke-linecap:square;stroke-width:0.8;"/>
    </g>
    <g id="text_10">
     <!-- 0.85 -->
     <g transform="translate(293.293996 289.603747)scale(0.1 -0.1)">
      <use xlink:href="#DejaVuSans-48"/>
      <use x="63.623047" xlink:href="#DejaVuSans-46"/>
      <use x="95.410156" xlink:href="#DejaVuSans-56"/>
      <use x="159.033203" xlink:href="#DejaVuSans-53"/>
     </g>
    </g>
   </g>
   <g id="xtick_9">
    <g id="line2d_11">
     <path d="M 337.887084 261.479639 
L 340.237987 264.295539 
" style="fill:none;stroke:#000000;stroke-linecap:square;stroke-width:0.8;"/>
    </g>
    <g id="text_11">
     <!-- 0.90 -->
     <g transform="translate(332.762095 282.860219)scale(0.1 -0.1)">
      <use xlink:href="#DejaVuSans-48"/>
      <use x="63.623047" xlink:href="#DejaVuSans-46"/>
      <use x="95.410156" xlink:href="#DejaVuSans-57"/>
      <use x="159.033203" xlink:href="#DejaVuSans-48"/>
     </g>
    </g>
   </g>
   <g id="xtick_10">
    <g id="line2d_12">
     <path d="M 377.059217 254.844386 
L 379.465471 257.638365 
" style="fill:none;stroke:#000000;stroke-linecap:square;stroke-width:0.8;"/>
    </g>
    <g id="text_12">
     <!-- 0.95 -->
     <g transform="translate(371.922504 276.169263)scale(0.1 -0.1)">
      <use xlink:href="#DejaVuSans-48"/>
      <use x="63.623047" xlink:href="#DejaVuSans-46"/>
      <use x="95.410156" xlink:href="#DejaVuSans-57"/>
      <use x="159.033203" xlink:href="#DejaVuSans-53"/>
     </g>
    </g>
   </g>
   <g id="xtick_11">
    <g id="line2d_13">
     <path d="M 415.927243 248.260645 
L 418.38792 251.032957 
" style="fill:none;stroke:#000000;stroke-linecap:square;stroke-width:0.8;"/>
    </g>
    <g id="text_13">
     <!-- 1.00 -->
     <g transform="translate(410.778807 269.530266)scale(0.1 -0.1)">
      <use xlink:href="#DejaVuSans-49"/>
      <use x="63.623047" xlink:href="#DejaVuSans-46"/>
      <use x="95.410156" xlink:href="#DejaVuSans-48"/>
      <use x="159.033203" xlink:href="#DejaVuSans-48"/>
     </g>
    </g>
   </g>
  </g>
  <g id="axis3d_3">
   <g id="line2d_14">
    <path d="M 430.047806 246.929266 
L 443.471978 129.289366 
" style="fill:none;stroke:#000000;stroke-linecap:square;stroke-width:0.8;"/>
   </g>
   <g id="text_14">
    <!-- $d$ -->
    <defs>
     <path d="M 41.796875 8.203125 
Q 38.1875 3.46875 33.25 1.015625 
Q 28.328125 -1.421875 22.3125 -1.421875 
Q 14.109375 -1.421875 9.34375 4.171875 
Q 4.59375 9.765625 4.59375 19.484375 
Q 4.59375 27.59375 7.46875 34.9375 
Q 10.359375 42.28125 15.828125 48.09375 
Q 19.4375 51.953125 23.96875 53.96875 
Q 28.515625 56 33.5 56 
Q 38.765625 56 42.796875 53.453125 
Q 46.828125 50.921875 49.03125 46.1875 
L 54.890625 75.984375 
L 63.921875 75.984375 
L 49.125 0 
L 40.09375 0 
z
M 13.921875 21.09375 
Q 13.921875 14.015625 17.109375 10.0625 
Q 20.3125 6.109375 25.984375 6.109375 
Q 30.171875 6.109375 33.765625 8.125 
Q 37.359375 10.15625 40.09375 14.109375 
Q 42.96875 18.21875 44.625 23.578125 
Q 46.296875 28.953125 46.296875 34.1875 
Q 46.296875 40.96875 43.09375 44.765625 
Q 39.890625 48.578125 34.28125 48.578125 
Q 30.03125 48.578125 26.359375 46.578125 
Q 22.703125 44.578125 20.125 40.828125 
Q 17.28125 36.765625 15.59375 31.390625 
Q 13.921875 26.03125 13.921875 21.09375 
z
" id="DejaVuSans-Oblique-100"/>
    </defs>
    <g transform="translate(478.495081 202.201478)scale(0.1 -0.1)">
     <use transform="translate(0 0.015625)" xlink:href="#DejaVuSans-Oblique-100"/>
    </g>
   </g>
   <g id="Line3DCollection_3">
    <path d="M 430.446374 243.436502 
L 333.559991 135.635215 
L 93.755504 173.236732 
" style="fill:none;stroke:#b0b0b0;stroke-width:0.8;"/>
    <path d="M 431.870119 230.959816 
L 334.14134 123.127932 
L 92.44839 160.727147 
" style="fill:none;stroke:#b0b0b0;stroke-width:0.8;"/>
    <path d="M 433.31764 218.274764 
L 334.731767 110.425346 
L 91.120371 148.017491 
" style="fill:none;stroke:#b0b0b0;stroke-width:0.8;"/>
    <path d="M 434.78954 205.376082 
L 335.331486 97.522847 
L 89.770941 135.102926 
" style="fill:none;stroke:#b0b0b0;stroke-width:0.8;"/>
    <path d="M 436.286438 192.258328 
L 335.940719 84.415677 
L 88.399579 121.978455 
" style="fill:none;stroke:#b0b0b0;stroke-width:0.8;"/>
    <path d="M 437.808978 178.915872 
L 336.559693 71.098928 
L 87.005745 108.638919 
" style="fill:none;stroke:#b0b0b0;stroke-width:0.8;"/>
    <path d="M 439.357824 165.342892 
L 337.188643 57.567534 
L 85.588881 95.078989 
" style="fill:none;stroke:#b0b0b0;stroke-width:0.8;"/>
    <path d="M 440.933663 151.53336 
L 337.827814 43.816261 
L 84.148414 81.293156 
" style="fill:none;stroke:#b0b0b0;stroke-width:0.8;"/>
    <path d="M 442.537207 137.481039 
L 338.477456 29.839706 
L 82.683747 67.275729 
" style="fill:none;stroke:#b0b0b0;stroke-width:0.8;"/>
   </g>
   <g id="xtick_12">
    <g id="line2d_15">
     <path d="M 429.618748 242.515638 
L 432.104344 245.281253 
" style="fill:none;stroke:#000000;stroke-linecap:square;stroke-width:0.8;"/>
    </g>
    <g id="text_15">
     <!-- 0.00 -->
     <g transform="translate(439.31505 255.205233)scale(0.1 -0.1)">
      <use xlink:href="#DejaVuSans-48"/>
      <use x="63.623047" xlink:href="#DejaVuSans-46"/>
      <use x="95.410156" xlink:href="#DejaVuSans-48"/>
      <use x="159.033203" xlink:href="#DejaVuSans-48"/>
     </g>
    </g>
   </g>
   <g id="xtick_13">
    <g id="line2d_16">
     <path d="M 431.034858 230.038207 
L 433.543406 232.806086 
" style="fill:none;stroke:#000000;stroke-linecap:square;stroke-width:0.8;"/>
    </g>
    <g id="text_16">
     <!-- 0.25 -->
     <defs>
      <path d="M 19.1875 8.296875 
L 53.609375 8.296875 
L 53.609375 0 
L 7.328125 0 
L 7.328125 8.296875 
Q 12.9375 14.109375 22.625 23.890625 
Q 32.328125 33.6875 34.8125 36.53125 
Q 39.546875 41.84375 41.421875 45.53125 
Q 43.3125 49.21875 43.3125 52.78125 
Q 43.3125 58.59375 39.234375 62.25 
Q 35.15625 65.921875 28.609375 65.921875 
Q 23.96875 65.921875 18.8125 64.3125 
Q 13.671875 62.703125 7.8125 59.421875 
L 7.8125 69.390625 
Q 13.765625 71.78125 18.9375 73 
Q 24.125 74.21875 28.421875 74.21875 
Q 39.75 74.21875 46.484375 68.546875 
Q 53.21875 62.890625 53.21875 53.421875 
Q 53.21875 48.921875 51.53125 44.890625 
Q 49.859375 40.875 45.40625 35.40625 
Q 44.1875 33.984375 37.640625 27.21875 
Q 31.109375 20.453125 19.1875 8.296875 
z
" id="DejaVuSans-50"/>
     </defs>
     <g transform="translate(440.908396 242.732027)scale(0.1 -0.1)">
      <use xlink:href="#DejaVuSans-48"/>
      <use x="63.623047" xlink:href="#DejaVuSans-46"/>
      <use x="95.410156" xlink:href="#DejaVuSans-50"/>
      <use x="159.033203" xlink:href="#DejaVuSans-53"/>
     </g>
    </g>
   </g>
   <g id="xtick_14">
    <g id="line2d_17">
     <path d="M 432.474605 217.352513 
L 435.006527 220.122346 
" style="fill:none;stroke:#000000;stroke-linecap:square;stroke-width:0.8;"/>
    </g>
    <g id="text_17">
     <!-- 0.50 -->
     <g transform="translate(442.528418 230.049989)scale(0.1 -0.1)">
      <use xlink:href="#DejaVuSans-48"/>
      <use x="63.623047" xlink:href="#DejaVuSans-46"/>
      <use x="95.410156" xlink:href="#DejaVuSans-53"/>
      <use x="159.033203" xlink:href="#DejaVuSans-48"/>
     </g>
    </g>
   </g>
   <g id="xtick_15">
    <g id="line2d_18">
     <path d="M 433.938585 204.453298 
L 436.494316 207.224758 
" style="fill:none;stroke:#000000;stroke-linecap:square;stroke-width:0.8;"/>
    </g>
    <g id="text_18">
     <!-- 0.75 -->
     <g transform="translate(444.175792 217.153829)scale(0.1 -0.1)">
      <use xlink:href="#DejaVuSans-48"/>
      <use x="63.623047" xlink:href="#DejaVuSans-46"/>
      <use x="95.410156" xlink:href="#DejaVuSans-55"/>
      <use x="159.033203" xlink:href="#DejaVuSans-53"/>
     </g>
    </g>
   </g>
   <g id="xtick_16">
    <g id="line2d_19">
     <path d="M 435.427415 191.335126 
L 438.007403 194.107868 
" style="fill:none;stroke:#000000;stroke-linecap:square;stroke-width:0.8;"/>
    </g>
    <g id="text_19">
     <!-- 1.00 -->
     <g transform="translate(445.851217 204.038079)scale(0.1 -0.1)">
      <use xlink:href="#DejaVuSans-49"/>
      <use x="63.623047" xlink:href="#DejaVuSans-46"/>
      <use x="95.410156" xlink:href="#DejaVuSans-48"/>
      <use x="159.033203" xlink:href="#DejaVuSans-48"/>
     </g>
    </g>
   </g>
   <g id="xtick_17">
    <g id="line2d_20">
     <path d="M 436.941734 177.992373 
L 439.546438 180.766035 
" style="fill:none;stroke:#000000;stroke-linecap:square;stroke-width:0.8;"/>
    </g>
    <g id="text_20">
     <!-- 1.25 -->
     <g transform="translate(447.555415 190.697082)scale(0.1 -0.1)">
      <use xlink:href="#DejaVuSans-49"/>
      <use x="63.623047" xlink:href="#DejaVuSans-46"/>
      <use x="95.410156" xlink:href="#DejaVuSans-50"/>
      <use x="159.033203" xlink:href="#DejaVuSans-53"/>
     </g>
    </g>
   </g>
   <g id="xtick_18">
    <g id="line2d_21">
     <path d="M 438.482201 164.419222 
L 441.112094 167.193422 
" style="fill:none;stroke:#000000;stroke-linecap:square;stroke-width:0.8;"/>
    </g>
    <g id="text_21">
     <!-- 1.50 -->
     <g transform="translate(449.289135 177.124985)scale(0.1 -0.1)">
      <use xlink:href="#DejaVuSans-49"/>
      <use x="63.623047" xlink:href="#DejaVuSans-46"/>
      <use x="95.410156" xlink:href="#DejaVuSans-53"/>
      <use x="159.033203" xlink:href="#DejaVuSans-48"/>
     </g>
    </g>
   </g>
   <g id="xtick_19">
    <g id="line2d_22">
     <path d="M 440.0495 150.609655 
L 442.705069 153.38399 
" style="fill:none;stroke:#000000;stroke-linecap:square;stroke-width:0.8;"/>
    </g>
    <g id="text_22">
     <!-- 1.75 -->
     <g transform="translate(451.053149 163.315731)scale(0.1 -0.1)">
      <use xlink:href="#DejaVuSans-49"/>
      <use x="63.623047" xlink:href="#DejaVuSans-46"/>
      <use x="95.410156" xlink:href="#DejaVuSans-55"/>
      <use x="159.033203" xlink:href="#DejaVuSans-53"/>
     </g>
    </g>
   </g>
   <g id="xtick_20">
    <g id="line2d_23">
     <path d="M 441.644339 136.557439 
L 444.326083 139.331485 
" style="fill:none;stroke:#000000;stroke-linecap:square;stroke-width:0.8;"/>
    </g>
    <g id="text_23">
     <!-- 2.00 -->
     <g transform="translate(452.848259 149.263049)scale(0.1 -0.1)">
      <use xlink:href="#DejaVuSans-50"/>
      <use x="63.623047" xlink:href="#DejaVuSans-46"/>
      <use x="95.410156" xlink:href="#DejaVuSans-48"/>
      <use x="159.033203" xlink:href="#DejaVuSans-48"/>
     </g>
    </g>
   </g>
  </g>
  <g id="axes_2">
   <g id="line2d_24">
    <path clip-path="url(#p0c892afeba)" d="M 147.145657 179.590342 
L 160.220575 173.502806 
L 174.509788 167.123701 
L 188.294963 161.208509 
L 203.160892 155.063694 
L 219.167592 148.691677 
L 236.37457 142.09813 
L 252.458151 136.157044 
L 269.528446 130.076667 
L 284.946807 124.792772 
L 298.324649 120.40888 
L 309.333009 117.044006 
L 314.927439 115.517813 
L 317.751542 114.846439 
L 320.605987 114.28901 
L 323.522243 113.934356 
L 326.592042 113.981245 
L 330.100968 114.932333 
L 334.909222 118.082858 
L 342.444392 125.379485 
L 351.885469 135.726116 
L 360.609881 145.687739 
L 373.388902 160.752542 
L 381.55996 170.797964 
L 386.974874 177.798226 
L 390.676936 182.895004 
L 393.251616 186.734031 
L 395.047195 189.701056 
L 396.282685 192.039376 
L 397.102384 193.909693 
L 397.605132 195.422324 
L 397.860862 196.655488 
L 397.92043 197.666177 
L 397.821695 198.496904 
L 397.437861 199.474295 
L 396.832452 200.19838 
L 396.055595 200.725827 
L 395.143516 201.097698 
L 393.762457 201.403113 
L 391.833443 201.550034 
L 389.300427 201.472397 
L 386.131141 201.131414 
L 381.824363 200.420188 
L 376.328953 199.276931 
L 368.588975 197.424589 
L 356.974785 194.39265 
L 300.76862 179.424193 
L 284.237853 175.380804 
L 268.516578 171.766473 
L 253.608837 168.566259 
L 239.033486 165.66313 
L 224.825675 163.054562 
L 210.576862 160.658827 
L 195.962425 158.423057 
L 179.975743 156.205417 
L 141.064201 150.954566 
L 135.934008 149.958772 
L 132.437169 149.077815 
L 129.890132 148.21931 
L 128.138529 147.399542 
L 127.017922 146.644536 
L 126.298828 145.899838 
L 125.909537 145.179049 
L 125.776496 144.497822 
L 125.850685 143.764794 
L 126.145874 142.975316 
L 126.772745 141.997672 
L 127.731018 140.9323 
L 129.236796 139.618922 
L 131.233043 138.172454 
L 134.077848 136.393979 
L 138.04237 134.208755 
L 142.971559 131.759745 
L 148.967054 129.021401 
L 156.85544 125.673363 
L 166.306483 121.915362 
L 177.497586 117.712883 
L 190.624464 113.032026 
L 205.901693 107.840635 
L 221.993028 102.609139 
L 240.274486 96.909777 
L 258.950099 91.323501 
L 277.528514 85.996732 
L 293.150621 81.731647 
L 304.900012 78.742905 
L 312.159924 77.106678 
L 317.090834 76.214293 
L 319.598067 75.89787 
L 322.159221 75.743964 
L 324.830978 75.877855 
L 327.756967 76.562515 
L 331.292561 78.3593 
L 336.118097 82.235063 
L 342.624687 88.713119 
L 349.817117 96.506198 
L 356.398711 103.921902 
L 366.414126 115.63965 
L 373.060949 123.821845 
L 377.540961 129.682031 
L 380.618913 134.026816 
L 382.750787 137.343595 
L 384.217676 139.934848 
L 385.200564 141.996191 
L 385.820737 143.659157 
L 386.162356 145.015275 
L 386.285568 146.130124 
L 386.234482 147.051907 
L 385.90116 148.149398 
L 385.329197 148.980875 
L 384.574564 149.60798 
L 383.67719 150.074815 
L 382.308091 150.502724 
L 380.386533 150.799667 
L 377.856591 150.900972 
L 374.687318 150.76985 
L 370.379226 150.332006 
L 364.883751 149.528835 
L 357.149473 148.149458 
L 345.558029 145.825176 
L 289.725246 134.335897 
L 273.416077 131.331122 
L 257.98066 128.705518 
L 242.482984 126.297066 
L 227.040334 124.128531 
L 211.373266 122.156102 
L 193.773986 120.173178 
L 164.351253 116.912419 
L 158.266821 115.986672 
L 154.333427 115.177112 
L 151.864995 114.467986 
L 150.218531 113.786685 
L 149.215535 113.1553 
L 148.628191 112.528853 
L 148.378626 111.919145 
L 148.386853 111.339989 
L 148.621519 110.713803 
L 149.186672 109.934845 
L 150.092216 109.081589 
L 151.551008 108.023553 
L 153.766809 106.712835 
L 156.999241 105.08769 
L 161.579789 103.069009 
L 167.389011 100.762379 
L 175.24072 97.898816 
L 184.919439 94.611329 
L 196.662939 90.852515 
L 210.73733 86.574541 
L 227.43685 81.731806 
L 245.455003 76.728383 
L 264.384905 71.685365 
L 283.727694 66.764768 
L 298.481023 63.2374 
L 307.326293 61.313614 
L 314.14052 60.069416 
L 318.787951 59.503108 
L 321.170061 59.394189 
L 323.634278 59.505476 
L 326.267827 60.005688 
L 329.269942 61.226635 
L 333.037908 63.758965 
L 338.034086 68.241291 
L 344.0862 74.455845 
L 350.234574 81.166907 
L 360.334986 92.730755 
L 367.259783 101.100354 
L 371.951846 107.13038 
L 375.173696 111.598548 
L 377.402336 115.003764 
L 378.935104 117.660397 
L 379.963553 119.772261 
L 380.615702 121.476178 
L 380.980027 122.867042 
L 381.119515 124.01261 
L 381.08017 124.962503 
L 380.896349 125.753866 
L 380.405295 126.703909 
L 379.711747 127.430295 
L 378.861489 127.982924 
L 377.540016 128.510681 
L 376.053941 128.854361 
L 374.0231 129.089203 
L 371.398995 129.159443 
L 367.677575 128.999448 
L 362.788511 128.526349 
L 356.191429 127.629396 
L 346.814082 126.095722 
L 330.949506 123.230033 
L 298.348482 117.318963 
L 280.389439 114.312656 
L 263.879959 111.776471 
L 247.866679 109.546256 
L 231.98906 107.564375 
L 215.584497 105.745163 
L 195.676494 103.77833 
L 175.928317 101.789784 
L 169.222459 100.893882 
L 165.091776 100.127922 
L 162.531356 99.438796 
L 160.99393 98.81479 
L 160.100947 98.233558 
L 159.665157 97.721528 
L 159.503299 97.234606 
L 159.560772 96.707339 
L 159.85246 96.135625 
L 160.49313 95.42223 
L 161.636526 94.534885 
L 163.478677 93.431341 
L 166.269675 92.056592 
L 170.329395 90.339407 
L 176.068502 88.188068 
L 183.382813 85.692763 
L 193.26215 82.568987 
L 205.508418 78.934552 
L 220.457287 74.728981 
L 238.48177 69.895368 
L 258.318336 64.810093 
L 277.656801 60.072826 
L 293.247565 56.454364 
L 303.618792 54.227813 
L 310.05128 53.004355 
L 314.42405 52.317455 
L 318.884506 51.863581 
L 321.172539 51.806924 
L 323.538961 51.959395 
L 326.060015 52.469098 
L 328.900084 53.612584 
L 332.370734 55.859391 
L 336.844391 59.731536 
L 342.273909 65.176773 
L 347.951448 71.284994 
L 357.641136 82.284695 
L 364.451747 90.470426 
L 369.105656 96.427029 
L 372.310371 100.859318 
L 374.528629 104.244714 
L 376.053608 106.889978 
L 377.075531 108.995711 
L 377.721955 110.697143 
L 378.081184 112.088265 
L 378.216126 113.236262 
L 378.172731 114.190353 
L 377.985321 114.987394 
L 377.489678 115.94825 
L 376.7924 116.687711 
L 375.939177 117.255254 
L 374.614802 117.805216 
L 373.126868 118.17324 
L 371.094953 118.440882 
L 368.471111 118.553189 
L 364.752207 118.452701 
L 359.869111 118.057891 
L 353.283579 117.267046 
L 343.92805 115.88521 
L 328.113023 113.278773 
L 295.154492 107.824951 
L 277.340837 105.124665 
L 261.012519 102.868734 
L 244.770182 100.850953 
L 228.358135 99.041235 
L 210.504554 97.302438 
L 179.920376 94.378546 
L 174.204096 93.568739 
L 170.83853 92.887264 
L 168.710756 92.246424 
L 167.502088 91.677096 
L 166.849515 91.159043 
L 166.546496 90.652813 
L 166.511804 90.170064 
L 166.707495 89.646066 
L 167.233438 88.991346 
L 168.106107 88.270683 
L 169.536472 87.372308 
L 171.732872 86.25265 
L 174.96129 84.855021 
L 179.562186 83.106058 
L 185.972971 80.911366 
L 194.758003 78.150362 
L 206.648227 74.670649 
L 221.487296 70.579489 
L 238.387803 66.146647 
L 258.629132 61.076435 
L 278.911836 56.235756 
L 294.002055 52.83566 
L 304.044903 50.751735 
L 310.275292 49.615352 
L 314.511508 48.984812 
L 318.832598 48.578739 
L 321.047371 48.535826 
L 323.332842 48.684353 
L 325.75262 49.150732 
L 328.439181 50.1631 
L 331.63988 52.102643 
L 335.674941 55.426803 
L 340.606025 60.228655 
L 345.931101 65.863103 
L 355.4096 76.525935 
L 362.251243 84.697307 
L 366.965751 90.696691 
L 370.221362 95.173046 
L 372.477774 98.595113 
L 374.030854 101.270031 
L 375.073647 103.400112 
L 375.735828 105.122096 
L 376.107194 106.531105 
L 376.25168 107.695115 
L 376.215958 108.663904 
L 376.034848 109.474713 
L 375.54684 110.455057 
L 374.855716 111.213126 
L 374.007681 111.79877 
L 372.689278 112.372461 
L 371.206679 112.764029 
L 369.180972 113.061094 
L 366.564323 113.20889 
L 362.855061 113.156188 
L 357.984561 112.821867 
L 351.416727 112.110697 
L 342.611051 110.916492 
L 327.906268 108.66989 
L 291.990899 103.131661 
L 274.34252 100.664927 
L 257.734945 98.564909 
L 241.323314 96.713947 
L 224.060452 94.996859 
L 200.735047 92.931403 
L 186.760078 91.597722 
L 180.513318 90.796161 
L 176.757718 90.113238 
L 174.348322 89.459813 
L 172.960729 88.8631 
L 172.214837 88.303682 
L 171.912789 87.808449 
L 171.880685 87.33571 
L 172.080708 86.82211 
L 172.613898 86.179783 
L 173.632683 85.378687 
L 175.331456 84.379303 
L 177.958319 83.12993 
L 181.83077 81.56327 
L 187.356663 79.592217 
L 195.062231 77.104784 
L 204.843603 74.184983 
L 217.966473 70.510626 
L 234.228922 66.201223 
L 252.640552 61.551742 
L 272.86328 56.679621 
L 290.605311 52.635758 
L 302.15038 50.203849 
L 310.187634 48.723618 
L 314.302417 48.114949 
L 318.496066 47.710135 
L 320.640221 47.648912 
L 322.84264 47.751285 
L 325.15103 48.117122 
L 327.662638 48.92186 
L 330.561195 50.460179 
L 334.117434 53.130886 
L 338.502459 57.177755 
L 343.457441 62.270715 
L 348.394124 67.645899 
L 356.704103 77.176103 
L 362.620753 84.38677 
L 366.719712 89.736164 
L 369.563988 93.776082 
L 371.536209 96.896733 
L 372.886044 99.356945 
L 373.778994 101.329877 
L 374.327825 102.934238 
L 374.611572 104.25361 
L 374.687091 105.348349 
L 374.596251 106.26304 
L 374.214839 107.368814 
L 373.605466 108.226034 
L 372.821639 108.89222 
L 371.901565 109.408579 
L 370.510201 109.915223 
L 368.57085 110.326211 
L 366.030743 110.581275 
L 362.861231 110.646324 
L 358.566575 110.479217 
L 353.103292 110.025972 
L 345.434148 109.144969 
L 333.97334 107.576289 
L 277.339084 99.528148 
L 260.267913 97.462282 
L 243.45447 95.652978 
L 225.47917 93.951043 
L 187.936213 90.50408 
L 183.050618 89.761233 
L 180.134834 89.109715 
L 178.362175 88.503216 
L 177.40815 87.977186 
L 176.885417 87.451054 
L 176.717253 87.002395 
L 176.773167 86.515124 
L 177.068378 85.985248 
L 177.719767 85.32206 
L 178.884466 84.49444 
L 180.762863 83.461547 
L 183.610664 82.170067 
L 187.754994 80.550783 
L 193.615856 78.514346 
L 201.734699 75.946294 
L 212.811996 72.701605 
L 226.717425 68.877453 
L 243.871325 64.406168 
L 263.20682 59.607674 
L 280.872566 55.431575 
L 295.135254 52.251498 
L 304.627719 50.311411 
L 310.516616 49.258246 
L 314.520033 48.673757 
L 318.599157 48.28688 
L 320.683145 48.227595 
L 322.820229 48.320473 
L 325.051177 48.653138 
L 327.456843 49.375365 
L 330.187157 50.733819 
L 333.467862 53.068755 
L 337.477869 56.638535 
L 342.07758 61.268845 
L 346.788238 66.337232 
L 354.974392 75.664647 
L 360.92833 82.887966 
L 365.085757 88.289635 
L 367.980487 92.380569 
L 369.99221 95.544121 
L 371.372523 98.039559 
L 372.289209 100.041689 
L 372.856852 101.670735 
L 373.155812 103.011453 
L 373.243892 104.125056 
L 373.163634 105.05675 
L 372.795421 106.185508 
L 372.196991 107.063582 
L 371.422569 107.749166 
L 370.510836 108.283913 
L 369.129472 108.813998 
L 367.201469 109.253163 
L 364.674017 109.541049 
L 361.518629 109.643626 
L 357.241826 109.52414 
L 351.800569 109.128623 
L 344.162591 108.3259 
L 332.750955 106.871282 
L 274.99577 99.190136 
L 257.689656 97.25332 
L 240.330761 95.535237 
L 220.166956 93.775269 
L 197.458315 91.775839 
L 190.756335 90.959506 
L 186.684589 90.248582 
L 184.211876 89.599507 
L 182.774889 89.005306 
L 181.988711 88.447332 
L 181.654993 87.952834 
L 181.595575 87.48044 
L 181.768632 86.966915 
L 182.189953 86.408131 
L 182.997223 85.708476 
L 184.353429 84.835207 
L 186.466365 83.745496 
L 189.60108 82.383647 
L 194.096424 80.677628 
L 200.387035 78.534878 
L 209.032326 75.837498 
L 220.754215 72.43731 
L 235.393271 68.442274 
L 252.057834 64.123368 
L 270.437066 59.583664 
L 286.621994 55.785657 
L 299.018317 53.063851 
L 308.371993 51.230887 
L 314.165162 50.315002 
L 318.110634 49.901157 
L 320.120396 49.806985 
L 322.171217 49.836372 
L 324.29084 50.054258 
L 326.533261 50.568444 
L 328.999263 51.555815 
L 331.854793 53.279929 
L 335.292922 56.027893 
L 339.359956 59.87512 
L 343.783257 64.469054 
L 348.121193 69.227258 
L 355.466356 77.726556 
L 360.790873 84.298314 
L 364.529279 89.260885 
L 367.142627 93.056452 
L 368.959306 96.015998 
L 370.199976 98.366488 
L 371.013814 100.263083 
L 371.503892 101.813781 
L 371.743199 103.095471 
L 371.784657 104.164139 
L 371.667486 105.061426 
L 371.257205 106.153031 
L 370.628186 107.006456 
L 369.831312 107.676272 
L 368.903065 108.20174 
L 367.506411 108.726807 
L 365.566961 109.168061 
L 363.033411 109.466735 
L 359.8779 109.589372 
L 355.608129 109.503133 
L 350.182555 109.155143 
L 342.574039 108.424058 
L 331.2169 107.081403 
L 272.46442 99.817263 
L 254.540428 97.976627 
L 235.962001 96.296195 
L 199.703884 93.104921 
L 194.246051 92.343629 
L 190.901961 91.663486 
L 188.944296 91.065572 
L 187.747178 90.492253 
L 187.114112 89.968159 
L 186.83665 89.454361 
L 186.831091 88.963228 
L 187.062616 88.429147 
L 187.638187 87.76076 
L 188.713211 86.926842 
L 190.485677 85.886486 
L 193.20792 84.586413 
L 197.20224 82.957625 
L 202.881594 80.911352 
L 210.776876 78.334373 
L 220.770637 75.317921 
L 233.154073 71.807525 
L 248.247346 67.75293 
L 264.980496 63.472751 
L 282.959736 59.105589 
L 296.337868 56.057809 
L 305.237446 54.204312 
L 312.624807 52.898065 
L 316.405642 52.400801 
L 320.264896 52.13406 
L 322.24398 52.154364 
L 324.283199 52.345186 
L 326.426329 52.797186 
L 328.752965 53.655103 
L 331.393255 55.132686 
L 334.508787 57.47734 
L 338.179511 60.812578 
L 342.247496 64.936453 
L 346.356705 69.378814 
L 353.565729 77.652037 
L 358.930181 84.233793 
L 362.739124 89.259096 
L 365.416912 93.119623 
L 367.286163 96.135669 
L 368.568763 98.533524 
L 369.416188 100.469851 
L 369.933535 102.054307 
L 370.195359 103.365175 
L 370.255751 104.459519 
L 370.154786 105.37979 
L 369.765023 106.502094 
L 369.153246 107.382923 
L 368.371317 108.077805 
L 367.456372 108.626647 
L 366.075654 109.180989 
L 364.15419 109.656747 
L 361.640479 109.994825 
L 358.506773 110.1617 
L 354.264075 110.130674 
L 348.871284 109.848634 
L 341.308334 109.205803 
L 330.021967 107.990089 
L 298.317412 104.223378 
L 277.572111 101.928071 
L 259.17676 100.114333 
L 239.36663 98.391141 
L 207.748794 95.687874 
L 201.609725 94.916919 
L 197.72325 94.222377 
L 195.356039 93.599327 
L 193.8481 92.989608 
L 193.001403 92.416401 
L 192.61816 91.908149 
L 192.51444 91.422542 
L 192.642132 90.894683 
L 193.016841 90.320423 
L 193.769037 89.601672 
L 195.060519 88.705123 
L 197.097297 87.587355 
L 200.141708 86.192092 
L 204.528415 84.446876 
L 210.685455 82.259106 
L 219.161627 79.511677 
L 229.809892 76.306893 
L 242.923055 72.593561 
L 258.81473 68.330603 
L 276.325428 63.876253 
L 291.708647 60.189228 
L 303.450024 57.604056 
L 310.485509 56.254014 
L 315.90489 55.440815 
L 319.597976 55.116128 
L 321.482013 55.074526 
L 323.407809 55.16133 
L 325.40175 55.437662 
L 327.511447 55.999033 
L 329.817766 56.989874 
L 332.43954 58.604445 
L 335.498254 61.031275 
L 339.012405 64.30848 
L 342.803564 68.203601 
L 346.570591 72.313599 
L 353.153902 79.936835 
L 358.092376 86.064587 
L 361.630342 90.800083 
L 364.132013 94.473228 
L 365.882522 97.364335 
L 367.08228 99.676498 
L 367.870257 101.552787 
L 368.343996 103.094623 
L 368.573306 104.375091 
L 368.60918 105.447864 
L 368.380827 106.752749 
L 367.89286 107.776381 
L 367.20835 108.586015 
L 366.371802 109.229293 
L 365.074414 109.886796 
L 363.617794 110.36808 
L 361.629878 110.783333 
L 359.0646 111.079346 
L 355.896207 111.224654 
L 351.634549 111.193273 
L 345.74577 110.904034 
L 337.693014 110.260976 
L 325.448319 109.032622 
L 272.390546 103.479273 
L 252.410772 101.728329 
L 212.444044 98.329458 
L 207.041007 97.594624 
L 203.503716 96.906489 
L 201.246518 96.250607 
L 199.944548 95.66302 
L 199.221492 95.125607 
L 198.860434 94.598705 
L 198.778614 94.095121 
L 198.930639 93.547671 
L 199.332218 92.952146 
L 200.11834 92.206969 
L 201.452236 91.277897 
L 203.541558 90.120414 
L 206.650436 88.67704 
L 211.115315 86.874045 
L 217.365615 84.617684 
L 225.268162 82.006905 
L 235.864533 78.752242 
L 248.900821 74.991764 
L 263.450286 71.017396 
L 279.166457 66.943897 
L 294.017178 63.327208 
L 303.672963 61.167286 
L 310.391166 59.841223 
L 315.564425 59.022134 
L 319.083682 58.658486 
L 322.692123 58.587637 
L 324.557563 58.742846 
L 326.497577 59.102798 
L 328.560538 59.762695 
L 330.822237 60.857099 
L 333.381201 62.548375 
L 336.317153 64.964631 
L 339.608194 68.087011 
L 343.085004 71.691712 
L 349.67545 79.085575 
L 354.945107 85.461509 
L 358.82635 90.51645 
L 361.609068 94.468074 
L 363.577761 97.582588 
L 364.946048 100.071351 
L 365.865541 102.088172 
L 366.443503 103.743428 
L 366.756783 105.116948 
L 366.861422 106.267341 
L 366.799046 107.238372 
L 366.459109 108.429162 
L 365.890033 109.371605 
L 365.145693 110.123094 
L 364.264619 110.724836 
L 362.924925 111.345501 
L 361.050211 111.899383 
L 358.588432 112.326519 
L 355.512046 112.593097 
L 351.813253 112.686464 
L 346.523357 112.57206 
L 339.592471 112.176689 
L 329.516105 111.354378 
L 311.334602 109.604241 
L 280.992547 106.710152 
L 259.521138 104.899937 
L 221.090073 101.737785 
L 214.868617 100.946357 
L 211.118501 100.26736 
L 208.665232 99.621399 
L 207.081805 98.987413 
L 206.170643 98.390533 
L 205.734551 97.860989 
L 205.583457 97.354984 
L 205.662515 96.805041 
L 205.987096 96.206985 
L 206.679804 95.458921 
L 207.900941 94.526696 
L 209.85423 93.365987 
L 212.798482 91.919662 
L 216.662618 90.274779 
L 222.042421 88.227219 
L 229.400207 85.676432 
L 238.540069 82.741672 
L 250.620208 79.110124 
L 264.15159 75.272867 
L 278.80489 71.338059 
L 292.680427 67.832201 
L 303.277131 65.3671 
L 311.249675 63.752005 
L 316.177941 62.972062 
L 319.52888 62.628982 
L 322.960028 62.559057 
L 324.728195 62.695619 
L 326.557593 63.009958 
L 328.484217 63.576686 
L 330.563008 64.498488 
L 332.865968 65.900032 
L 335.459666 67.892701 
L 338.354181 70.502703 
L 341.456736 73.609603 
L 344.592017 76.974966 
L 350.309723 83.554049 
L 354.820549 89.153492 
L 358.158831 93.637032 
L 360.567256 97.190381 
L 362.275348 100.026452 
L 363.45823 102.317098 
L 364.242846 104.190226 
L 364.720715 105.739486 
L 364.958477 107.033768 
L 365.005389 108.124371 
L 364.796395 109.460627 
L 364.329663 110.518966 
L 363.667416 111.36528 
L 362.853745 112.046469 
L 361.587466 112.755724 
L 360.162454 113.289627 
L 358.214627 113.771398 
L 355.698259 114.147867 
L 352.588091 114.387487 
L 348.403327 114.477579 
L 342.621121 114.349985 
L 334.718876 113.920795 
L 323.222258 113.048696 
L 291.748163 110.328032 
L 266.894009 108.333157 
L 230.782979 105.482863 
L 223.876987 104.681964 
L 219.591199 103.984841 
L 216.711651 103.309911 
L 214.925986 102.689644 
L 213.831059 102.106314 
L 213.18128 101.521099 
L 212.913824 101.02139 
L 212.869684 100.478483 
L 213.063675 99.888288 
L 213.511615 99.246495 
L 214.356202 98.444013 
L 215.762898 97.444706 
L 217.94172 96.201929 
L 221.15899 94.65594 
L 225.752554 92.730879 
L 231.602623 90.528516 
L 239.522222 87.795464 
L 249.277101 84.666545 
L 261.072681 81.112922 
L 275.109998 77.126551 
L 288.854927 73.455212 
L 299.93557 70.703284 
L 308.80466 68.731494 
L 314.951564 67.612746 
L 318.091872 67.194458 
L 321.286988 66.956862 
L 324.571717 67.03694 
L 326.274442 67.27209 
L 328.046009 67.703595 
L 329.922157 68.403901 
L 331.951252 69.463167 
L 334.185792 70.97443 
L 336.657462 72.996352 
L 339.341429 75.503453 
L 342.140871 78.365905 
L 347.544416 84.395686 
L 352.069861 89.890193 
L 355.539679 94.448844 
L 358.096934 98.124556 
L 359.939787 101.083278 
L 361.237085 103.483462 
L 362.117164 105.45103 
L 362.674702 107.081097 
L 362.979456 108.444774 
L 363.083299 109.595483 
L 362.945256 111.008299 
L 362.536601 112.130885 
L 361.923108 113.032406 
L 361.151321 113.762064 
L 359.933115 114.528216 
L 358.549783 115.112559 
L 356.647825 115.650932 
L 354.180359 116.088716 
L 351.12188 116.393679 
L 346.998684 116.561296 
L 341.776213 116.540541 
L 334.477373 116.27026 
L 324.127636 115.645417 
L 305.027788 114.228493 
L 266.210543 111.358293 
L 242.813912 109.593459 
L 234.361352 108.741729 
L 229.118204 108.009499 
L 225.673454 107.325112 
L 223.442063 106.682102 
L 222.001886 106.062404 
L 221.160864 105.494589 
L 220.690653 104.937479 
L 220.509517 104.404976 
L 220.558179 103.826274 
L 220.851787 103.197176 
L 221.508033 102.410827 
L 222.531113 101.545962 
L 224.155096 100.47007 
L 226.596904 99.13407 
L 230.130969 97.475573 
L 235.104246 95.416118 
L 241.370036 93.06816 
L 249.778997 90.167306 
L 260.057387 86.866056 
L 272.394009 83.149302 
L 285.748496 79.372529 
L 297.039068 76.393622 
L 306.544306 74.113801 
L 312.230287 72.931529 
L 316.602815 72.19735 
L 319.570135 71.847685 
L 322.591533 71.69379 
L 325.70354 71.873249 
L 327.319348 72.160526 
L 329.000475 72.638954 
L 330.776002 73.368846 
L 332.681617 74.419294 
L 334.751072 75.854 
L 336.998274 77.704492 
L 339.396442 79.940653 
L 341.872038 82.462695 
L 346.659697 87.798985 
L 350.744819 92.775056 
L 353.944175 97.005991 
L 356.34192 100.483204 
L 358.090896 103.321588 
L 359.332895 105.648239 
L 360.180866 107.570929 
L 360.72067 109.174213 
L 361.016875 110.522902 
L 361.10776 112.173733 
L 360.876239 113.482528 
L 360.403259 114.533272 
L 359.7455 115.385201 
L 358.943672 116.081097 
L 357.701043 116.819658 
L 356.305885 117.390432 
L 354.401316 117.925296 
L 351.942886 118.372087 
L 348.906166 118.69929 
L 344.822719 118.90686 
L 339.185409 118.939761 
L 331.976518 118.74493 
L 321.301359 118.213471 
L 302.130153 116.992502 
L 252.518963 113.575207 
L 243.47336 112.713446 
L 237.767811 111.95649 
L 234.170946 111.278538 
L 231.642696 110.588012 
L 230.11428 109.96621 
L 229.113327 109.329095 
L 228.603261 108.763097 
L 228.385493 108.222038 
L 228.395665 107.634069 
L 228.648683 106.995018 
L 229.160412 106.300511 
L 230.08371 105.433008 
L 231.586198 104.35445 
L 233.879915 103.016168 
L 237.232547 101.356516 
L 241.539469 99.480373 
L 247.437802 97.162531 
L 254.716137 94.537175 
L 264.317599 91.322081 
L 274.909756 88.002797 
L 286.177826 84.683432 
L 297.748404 81.5094 
L 306.570346 79.314253 
L 313.195809 77.897157 
L 317.284899 77.208723 
L 320.05801 76.881276 
L 322.877679 76.730351 
L 325.769846 76.865889 
L 327.260666 77.095928 
L 328.797909 77.477016 
L 330.400074 78.051403 
L 332.090046 78.867689 
L 333.891365 79.974122 
L 335.819749 81.405164 
L 337.870932 83.163385 
L 340.011393 85.206215 
L 344.306755 89.78776 
L 348.188787 94.378513 
L 351.37474 98.48469 
L 353.843223 101.965849 
L 355.689634 104.860531 
L 357.031059 107.260257 
L 357.971351 109.257712 
L 358.593879 110.931612 
L 359.069128 112.969745 
L 359.130326 114.576461 
L 358.885548 115.861243 
L 358.409701 116.900891 
L 357.755901 117.750323 
L 356.962679 118.449636 
L 355.736428 119.199023 
L 354.361458 119.785465 
L 352.485702 120.344336 
L 350.065392 120.824014 
L 347.076528 121.192891 
L 343.058558 121.45678 
L 337.981857 121.565311 
L 330.905614 121.480089 
L 320.90965 121.11606 
L 304.920867 120.283652 
L 273.999703 118.42024 
L 259.075354 117.337911 
L 250.80988 116.529599 
L 245.438926 115.792445 
L 241.883682 115.094678 
L 239.556247 114.434632 
L 238.029628 113.796203 
L 237.031682 113.141129 
L 236.52492 112.558778 
L 236.31064 112.001945 
L 236.324775 111.396835 
L 236.582125 110.739283 
L 237.098404 110.024936 
L 238.026927 109.133169 
L 239.534856 108.025409 
L 241.833219 106.652565 
L 244.844834 105.116092 
L 249.057694 103.219319 
L 254.832489 100.881395 
L 261.958054 98.241422 
L 270.560609 95.283809 
L 280.758618 92.00924 
L 291.583331 88.764842 
L 301.495984 86.022467 
L 308.600761 84.251799 
L 314.787576 82.943961 
L 318.60184 82.332722 
L 321.187322 82.060482 
L 323.815199 81.96326 
L 326.50743 82.138365 
L 327.891516 82.373886 
L 329.313135 82.741833 
L 330.785033 83.273656 
L 332.322088 84.003867 
L 333.93875 84.965421 
L 335.644092 86.181657 
L 337.435161 87.656036 
L 339.291548 89.364061 
L 343.038181 93.252525 
L 346.515964 97.295562 
L 349.466968 101.055163 
L 351.821683 104.342677 
L 353.625597 107.138311 
L 354.963063 109.493278 
L 356.277976 112.349293 
L 356.967437 114.578312 
L 357.200611 116.341522 
L 357.095662 117.75505 
L 356.735479 118.901883 
L 356.179105 119.841867 
L 355.469406 120.618845 
L 354.338288 121.456508 
L 353.044698 122.11807 
L 351.256825 122.757319 
L 348.927832 123.319206 
L 346.032586 123.7703 
L 342.122378 124.125207 
L 337.166855 124.330035 
L 330.712979 124.3632 
L 321.871214 124.17628 
L 308.509941 123.648608 
L 287.942755 122.592499 
L 271.47903 121.556694 
L 261.95884 120.759907 
L 255.55089 120.01216 
L 251.386831 119.321451 
L 248.560764 118.653119 
L 246.631173 117.991205 
L 245.409947 117.365159 
L 244.64054 116.735278 
L 244.240773 116.116138 
L 244.126558 115.523974 
L 244.247023 114.880542 
L 244.617177 114.181636 
L 245.366387 113.309344 
L 246.487698 112.352121 
L 248.227349 111.165033 
L 250.801817 109.697285 
L 254.482344 107.885762 
L 259.13318 105.850446 
L 265.416474 103.356095 
L 273.074022 100.561817 
L 282.213788 97.467912 
L 291.963497 94.399404 
L 300.925832 91.793159 
L 308.477832 89.810803 
L 314.147961 88.532692 
L 318.82601 87.72064 
L 322.413286 87.359456 
L 324.850872 87.323966 
L 327.344917 87.547775 
L 329.93249 88.157873 
L 331.279545 88.660092 
L 332.674017 89.325162 
L 334.123961 90.174572 
L 335.633496 91.222693 
L 337.199273 92.471129 
L 340.434539 95.489145 
L 343.615161 98.922173 
L 346.49571 102.381155 
L 348.927661 105.589042 
L 350.87794 108.425676 
L 352.986827 111.965283 
L 354.303363 114.763088 
L 355.023699 116.979811 
L 355.299408 118.752699 
L 355.240842 120.186384 
L 354.927463 121.358218 
L 354.416885 122.325237 
L 353.751452 123.129856 
L 352.676817 124.004121 
L 351.437024 124.701336 
L 349.713238 125.383451 
L 347.457578 125.994241 
L 344.644489 126.499189 
L 340.836851 126.918967 
L 336.005202 127.197451 
L 329.711186 127.316726 
L 321.098001 127.23441 
L 309.010954 126.872721 
L 292.815599 126.151976 
L 278.890849 125.329842 
L 269.719726 124.586961 
L 263.560871 123.88487 
L 259.333424 123.200605 
L 256.446759 122.534656 
L 254.458379 121.873024 
L 253.182675 121.246182 
L 252.359408 120.614941 
L 251.907449 119.994207 
L 251.743844 119.40045 
L 251.811056 118.755342 
L 252.12367 118.054788 
L 252.801226 117.180823 
L 253.843779 116.222375 
L 255.485061 115.034823 
L 257.936046 113.568332 
L 261.101892 111.934565 
L 265.480503 109.929697 
L 271.420236 107.479015 
L 278.674323 104.744108 
L 287.334646 101.733972 
L 296.558084 98.778714 
L 305.008564 96.313857 
L 311.059896 94.747434 
L 316.323332 93.606636 
L 319.564213 93.07298 
L 322.863607 92.744252 
L 325.100493 92.704232 
L 327.379016 92.879413 
L 329.720903 93.360068 
L 332.160571 94.262804 
L 333.429503 94.911675 
L 334.735952 95.709411 
L 337.455569 97.76646 
L 340.25174 100.365436 
L 342.974784 103.288739 
L 345.458037 106.265559 
L 347.590411 109.085363 
L 350.065484 112.800128 
L 351.747435 115.848361 
L 352.787301 118.31042 
L 353.330782 120.299453 
L 353.494542 121.916939 
L 353.366602 123.243677 
L 353.012318 124.341546 
L 352.480298 125.257495 
L 351.807036 126.027255 
L 350.736619 126.872676 
L 349.512553 127.554963 
L 347.819204 128.231391 
L 345.610509 128.847598 
L 342.86161 129.369093 
L 339.146399 129.819135 
L 334.438594 130.141157 
L 328.316542 130.318925 
L 320.40053 130.318291 
L 309.576353 130.082569 
L 296.385707 129.56861 
L 284.707731 128.907942 
L 276.368141 128.234773 
L 270.577211 127.567135 
L 266.398114 126.876212 
L 263.554029 126.198151 
L 261.604449 125.52148 
L 260.362755 124.878891 
L 259.571345 124.231045 
L 259.14858 123.593681 
L 259.011063 122.983999 
L 259.104704 122.321758 
L 259.443869 121.602966 
L 260.151551 120.706972 
L 261.223445 119.72549 
L 262.895868 118.511267 
L 265.377449 117.015032 
L 268.567036 115.352777 
L 272.959295 113.320527 
L 278.348576 111.065996 
L 285.445508 108.353032 
L 293.125154 105.65535 
L 301.098189 103.085061 
L 308.131786 101.039506 
L 313.750797 99.619296 
L 317.636482 98.812678 
L 321.616874 98.229463 
L 324.661395 98.046831 
L 326.724596 98.116408 
L 328.825121 98.404865 
L 330.979299 98.986946 
L 333.207925 99.94705 
L 335.525234 101.356298 
L 337.916555 103.231049 
L 340.317765 105.495586 
L 342.622627 107.990026 
L 344.721619 110.529233 
L 347.332773 114.113279 
L 349.251438 117.223317 
L 350.544958 119.821088 
L 351.324382 121.962277 
L 351.696492 123.725148 
L 351.749358 125.182849 
L 351.551654 126.396026 
L 351.155932 127.412789 
L 350.60232 128.270734 
L 349.670773 129.217356 
L 348.567151 129.985708 
L 347.004906 130.753171 
L 344.932786 131.460269 
L 342.323417 132.069333 
L 339.170766 132.561729 
L 335.070033 132.964805 
L 329.598278 133.253983 
L 322.796536 133.380009 
L 313.957588 133.315889 
L 303.022693 133.007685 
L 292.502867 132.500681 
L 284.084357 131.886201 
L 277.923212 131.219945 
L 273.676858 130.549007 
L 270.76291 129.885176 
L 268.741862 129.219874 
L 267.431488 128.586635 
L 266.570364 127.947435 
L 266.07867 127.318189 
L 265.874921 126.716132 
L 265.896271 126.062183 
L 266.156498 125.352545 
L 266.670054 124.583331 
L 267.586578 123.626229 
L 269.066142 122.443024 
L 271.054295 121.139253 
L 273.903914 119.540042 
L 277.875655 117.587969 
L 282.788487 115.427378 
L 288.702468 113.061381 
L 295.662041 110.513557 
L 302.905689 108.097118 
L 309.303035 106.183623 
L 314.416083 104.858407 
L 318.850416 103.937323 
L 322.491219 103.436383 
L 325.270779 103.296652 
L 327.149382 103.372085 
L 329.053935 103.631785 
L 330.992764 104.128499 
L 332.975678 104.919184 
L 335.007956 106.051774 
L 337.079249 107.54316 
L 339.152407 109.357459 
L 341.163194 111.402709 
L 343.036372 113.554893 
L 345.456117 116.730769 
L 347.324929 119.619374 
L 348.65304 122.120484 
L 349.508633 124.236387 
L 349.973645 126.011491 
L 350.123432 127.49983 
L 350.020698 128.751768 
L 349.715493 129.810013 
L 349.247157 130.709402 
L 348.421251 131.709002 
L 347.41495 132.526642 
L 345.964541 133.350203 
L 344.353044 134.003303 
L 342.263509 134.616222 
L 339.672663 135.154569 
L 336.180966 135.644275 
L 331.769122 136.027302 
L 326.054693 136.28716 
L 318.714815 136.383173 
L 309.968359 136.273029 
L 300.57804 135.941386 
L 292.348588 135.445165 
L 285.969057 134.853552 
L 281.252228 134.202949 
L 277.948485 133.536002 
L 275.615114 132.847737 
L 274.072196 132.172196 
L 273.133796 131.547501 
L 272.565071 130.931979 
L 272.286878 130.342805 
L 272.226617 129.702775 
L 272.397428 129.008319 
L 272.813034 128.255811 
L 273.606111 127.320039 
L 274.75974 126.298315 
L 276.517084 125.039743 
L 279.079489 123.498134 
L 282.328215 121.799072 
L 286.747388 119.744647 
L 292.102764 117.501998 
L 298.429999 115.098346 
L 305.027458 112.834412 
L 310.85578 111.058093 
L 315.512057 109.840352 
L 319.547596 109.001111 
L 322.857716 108.542804 
L 325.380246 108.401125 
L 327.936248 108.518628 
L 329.661698 108.792959 
L 331.408152 109.267405 
L 333.178567 109.979561 
L 334.971587 110.958253 
L 336.775734 112.211235 
L 338.564243 113.714125 
L 340.295116 115.408462 
L 342.675759 118.129744 
L 344.676697 120.827737 
L 346.23276 123.317695 
L 347.350029 125.518541 
L 348.074584 127.419665 
L 348.465469 129.04492 
L 348.580081 130.430057 
L 348.46842 131.611611 
L 348.171937 132.622476 
L 347.724226 133.490667 
L 346.937917 134.465905 
L 345.979961 135.272316 
L 344.597247 136.093417 
L 343.058133 136.751912 
L 341.058932 137.377189 
L 338.211517 138.001329 
L 334.846753 138.49632 
L 330.603401 138.893263 
L 325.121316 139.173756 
L 318.109739 139.291587 
L 310.18407 139.200231 
L 302.038398 138.891777 
L 294.973221 138.411923 
L 289.600418 137.839152 
L 285.709963 137.222839 
L 282.860374 136.56452 
L 280.885688 135.89729 
L 279.606987 135.258626 
L 278.768107 134.612214 
L 278.290373 133.975211 
L 278.093609 133.365729 
L 278.116262 132.704172 
L 278.371185 131.987202 
L 278.871701 131.211488 
L 279.762104 130.248838 
L 281.194969 129.063304 
L 283.11378 127.763586 
L 285.852753 126.180234 
L 289.649719 124.266673 
L 294.313273 122.17926 
L 299.875256 119.943175 
L 305.713724 117.835024 
L 310.896586 116.170965 
L 315.765372 114.82989 
L 319.402602 114.026363 
L 322.388077 113.552784 
L 325.425705 113.322326 
L 327.731915 113.386215 
L 330.060483 113.734411 
L 331.625466 114.166873 
L 333.199606 114.788329 
L 334.77869 115.616276 
L 336.352333 116.654634 
L 337.901614 117.888023 
L 340.118257 120.020201 
L 342.109233 122.327539 
L 343.784676 124.625647 
L 345.100689 126.781427 
L 346.058513 128.726443 
L 346.687863 130.441328 
L 347.030469 131.934899 
L 347.129545 133.228653 
L 347.024683 134.347812 
L 346.750067 135.316916 
L 346.16862 136.413297 
L 345.390174 137.325707 
L 344.456612 138.089237 
L 343.119965 138.875855 
L 341.328065 139.626827 
L 339.051374 140.300986 
L 336.282551 140.874052 
L 332.666593 141.376753 
L 328.212116 141.759784 
L 322.606633 142.007744 
L 315.991633 142.074456 
L 308.624803 141.924357 
L 301.826411 141.57246 
L 296.321228 141.084024 
L 292.036691 140.496239 
L 288.851236 139.841599 
L 286.609375 139.155288 
L 285.135173 138.476485 
L 284.246168 137.846637 
L 283.715331 137.225288 
L 283.464882 136.630533 
L 283.426489 135.984954 
L 283.612319 135.285525 
L 284.034911 134.52926 
L 284.824282 133.591692 
L 286.126339 132.438853 
L 287.893624 131.177769 
L 290.436079 129.646189 
L 293.976377 127.803721 
L 298.332 125.807662 
L 303.522964 123.692019 
L 308.956494 121.731081 
L 313.759183 120.223929 
L 317.592353 119.213378 
L 320.909586 118.529799 
L 323.625003 118.155884 
L 326.3796 118.017585 
L 328.463276 118.13179 
L 330.556681 118.494161 
L 332.653616 119.16323 
L 334.047643 119.803393 
L 335.430329 120.60621 
L 337.455672 122.100093 
L 339.367715 123.87433 
L 341.093831 125.810332 
L 342.570183 127.778201 
L 343.759176 129.672253 
L 344.652961 131.426249 
L 345.266244 133.009942 
L 345.626221 134.417934 
L 345.7646 135.658952 
L 345.712717 136.748248 
L 345.396479 137.994501 
L 344.850153 139.041228 
L 344.120271 139.923046 
L 343.243724 140.668796 
L 341.985577 141.444976 
L 340.293918 142.194063 
L 338.138504 142.874096 
L 335.511229 143.458816 
L 332.075038 143.978113 
L 327.840631 144.379332 
L 322.519692 144.643142 
L 316.266459 144.715095 
L 309.677178 144.561769 
L 303.645299 144.199535 
L 298.836845 143.697197 
L 295.164819 143.098339 
L 292.496514 142.442012 
L 290.67006 141.768665 
L 289.50923 141.120645 
L 288.771167 140.463439 
L 288.377929 139.815711 
L 288.250277 139.196588 
L 288.336584 138.525771 
L 288.648556 137.80064 
L 289.29671 136.902253 
L 290.273109 135.926449 
L 291.786075 134.733028 
L 294.010528 133.286258 
L 296.836315 131.714461 
L 300.667767 129.853341 
L 305.271588 127.886993 
L 310.11538 126.070265 
L 314.410228 124.675026 
L 318.432925 123.591215 
L 322.036248 122.871386 
L 324.495431 122.571863 
L 326.982983 122.488671 
L 328.857882 122.617368 
L 330.732749 122.954188 
L 332.598308 123.538466 
L 334.439974 124.398664 
L 336.233246 125.538725 
L 337.94066 126.926905 
L 339.514423 128.495839 
L 340.906013 130.157377 
L 342.415701 132.368973 
L 343.497839 134.440362 
L 344.16555 136.293469 
L 344.463043 137.907429 
L 344.445465 139.293423 
L 344.166837 140.476232 
L 343.674825 141.483945 
L 343.009417 142.343189 
L 341.983088 143.243745 
L 340.787175 143.986464 
L 339.182354 144.711179 
L 337.13872 145.37624 
L 334.647751 145.953883 
L 331.390356 146.471537 
L 327.38001 146.873888 
L 322.353314 147.136612 
L 316.796524 147.199778 
L 310.934999 147.0417 
L 305.60567 146.672757 
L 301.418063 146.165999 
L 298.273921 145.570645 
L 296.033741 144.930854 
L 294.534517 144.290438 
L 293.519678 143.622083 
L 292.966649 143.023684 
L 292.660395 142.364834 
L 292.607334 141.735987 
L 292.766234 141.055896 
L 293.221488 140.213203 
L 293.984394 139.298129 
L 295.230557 138.179752 
L 297.122562 136.825711 
L 299.574532 135.357533 
L 302.94274 133.623975 
L 307.024853 131.799339 
L 311.342091 130.120524 
L 315.683289 128.681876 
L 319.314941 127.704017 
L 322.565038 127.060527 
L 325.33867 126.750599 
L 327.57957 126.720029 
L 329.821655 126.95005 
L 331.491765 127.333762 
L 333.139403 127.925311 
L 334.748213 128.736933 
L 336.295101 129.761919 
L 337.749917 130.970345 
L 339.078357 132.311612 
L 340.597622 134.19979 
L 341.781107 136.075786 
L 342.611097 137.839126 
L 343.101823 139.435783 
L 343.286869 140.848108 
L 343.207378 142.080553 
L 342.904473 143.148397 
L 342.415502 144.070755 
L 341.772741 144.866873 
L 340.793977 145.71123 
L 339.418029 146.541862 
L 337.876167 147.211987 
L 335.925246 147.83321 
L 333.253905 148.434906 
L 329.844335 148.944527 
L 325.736486 149.31265 
L 321.031838 149.5065 
L 315.897674 149.498825 
L 310.843915 149.273786 
L 306.562852 148.873229 
L 303.078473 148.32793 
L 300.543347 147.708167 
L 298.807395 147.061874 
L 297.703933 146.435389 
L 297.001942 145.798221 
L 296.626929 145.169934 
L 296.503256 144.569941 
L 296.581028 143.921078 
L 296.929618 143.117528 
L 297.569632 142.245943 
L 298.656131 141.182671 
L 300.149298 140.032142 
L 302.305675 138.655841 
L 305.301186 137.037609 
L 308.956021 135.344608 
L 312.834338 133.798997 
L 316.739117 132.486296 
L 320.006262 131.600803 
L 322.929293 131.01809 
L 325.422297 130.728171 
L 327.434489 130.676885 
L 329.444628 130.835038 
L 331.43281 131.249578 
L 332.894402 131.75226 
L 334.315143 132.428328 
L 335.676865 133.273008 
L 337.362218 134.626082 
L 338.84601 136.161645 
L 340.077145 137.777635 
L 341.023358 139.378752 
L 341.676204 140.894921 
L 342.047679 142.285551 
L 342.162756 143.534188 
L 342.052218 144.640347 
L 341.747648 145.612456 
L 341.278615 146.462983 
L 340.500832 147.375884 
L 339.550649 148.145521 
L 338.232631 148.911475 
L 336.510484 149.628089 
L 334.370395 150.262201 
L 331.531176 150.841357 
L 328.298094 151.270885 
L 324.14754 151.582796 
L 319.505951 151.695266 
L 314.846112 151.587842 
L 310.6035 151.276644 
L 307.10439 150.805277 
L 304.517329 150.247224 
L 302.70727 149.654375 
L 301.418625 149.011808 
L 300.653342 148.411124 
L 300.208658 147.817497 
L 300.000306 147.165178 
L 300.022943 146.54451 
L 300.295602 145.776499 
L 300.844595 144.94471 
L 301.808695 143.932353 
L 303.155795 142.840592 
L 305.118497 141.540804 
L 307.857372 140.023533 
L 311.203116 138.453232 
L 314.748785 137.041733 
L 318.308067 135.869438 
L 321.275102 135.103377 
L 323.919389 134.623299 
L 326.165699 134.409171 
L 328.422273 134.427265 
L 330.21318 134.653263 
L 331.969391 135.101092 
L 333.665342 135.790322 
L 335.268728 136.719209 
L 336.740638 137.857797 
L 338.039372 139.149512 
L 339.12773 140.522699 
L 339.98042 141.906665 
L 340.58781 143.244318 
L 340.954981 144.497377 
L 341.097751 145.645211 
L 341.038047 146.680592 
L 340.800092 147.605048 
L 340.288364 148.614785 
L 339.578427 149.478927 
L 338.707562 150.216105 
L 337.493967 150.957702 
L 335.900764 151.65872 
L 333.912578 152.284722 
L 331.26592 152.860735 
L 327.968779 153.319709 
L 324.09308 153.612717 
L 319.779902 153.701283 
L 315.487299 153.560997 
L 311.845815 153.233295 
L 308.880688 152.759994 
L 306.582018 152.170442 
L 305.025714 151.546211 
L 304.054327 150.937731 
L 303.455847 150.318189 
L 303.159004 149.708054 
L 303.097172 149.040259 
L 303.283254 148.313562 
L 303.729676 147.527376 
L 304.557505 146.572359 
L 305.744064 145.545414 
L 307.496888 144.327908 
L 309.962382 142.915567 
L 312.985495 141.467077 
L 316.191777 140.180877 
L 319.407124 139.129306 
L 322.474594 138.373627 
L 324.863846 137.99208 
L 327.288681 137.844871 
L 329.303676 137.959607 
L 330.888898 138.240571 
L 332.428782 138.709759 
L 333.899396 139.374073 
L 335.272732 140.223831 
L 336.517958 141.230545 
L 337.60466 142.349948 
L 338.702116 143.828208 
L 339.483115 145.304741 
L 339.943651 146.706694 
L 340.101194 147.990683 
L 339.986476 149.138208 
L 339.635717 150.147516 
L 339.085281 151.026281 
L 338.36878 151.786495 
L 337.331258 152.560898 
L 335.929852 153.301908 
L 334.143698 153.971547 
L 331.975412 154.5425 
L 329.193816 155.0332 
L 325.840245 155.384283 
L 322.023208 155.548921 
L 318.157171 155.494593 
L 314.631074 155.234725 
L 311.735268 154.816652 
L 309.469141 154.275472 
L 307.915806 153.692754 
L 306.846179 153.058656 
L 306.246788 152.466216 
L 305.93785 151.882378 
L 305.852355 151.243624 
L 306.002119 150.549419 
L 306.398289 149.799965 
L 307.151071 148.892455 
L 308.382883 147.809381 
L 310.04172 146.658861 
L 312.362991 145.340126 
L 315.190923 144.012077 
L 318.167637 142.864519 
L 321.127897 141.964972 
L 323.926588 141.364753 
L 326.087311 141.106469 
L 328.260557 141.076478 
L 330.048801 141.270014 
L 331.782991 141.694197 
L 333.425818 142.363357 
L 334.934174 143.266619 
L 336.261806 144.363318 
L 337.36557 145.588723 
L 338.21335 146.868661 
L 338.789784 148.135793 
L 339.096983 149.339849 
L 339.151011 150.450017 
L 338.97657 151.451945 
L 338.602136 152.34285 
L 338.056496 153.126968 
L 337.21366 153.93815 
L 336.023068 154.726095 
L 334.456395 155.448617 
L 332.510195 156.074032 
L 330.205546 156.580598 
L 327.346692 156.979688 
L 324.00874 157.21627 
L 320.338198 157.242567 
L 316.958377 157.04766 
L 314.161167 156.682164 
L 311.955583 156.186745 
L 310.42999 155.643132 
L 309.365407 155.046468 
L 308.702157 154.420622 
L 308.37294 153.788276 
L 308.306757 153.170841 
L 308.46482 152.501578 
L 308.856874 151.781623 
L 309.588116 150.914112 
L 310.771687 149.886124 
L 312.352269 148.804872 
L 314.546334 147.583169 
L 317.195955 146.379599 
L 319.958764 145.373733 
L 322.678998 144.626297 
L 325.22383 144.176513 
L 327.168689 144.032361 
L 329.104835 144.104739 
L 330.680464 144.361285 
L 332.190539 144.814026 
L 333.601816 145.464868 
L 334.878356 146.296486 
L 335.984465 147.271992 
L 336.88928 148.340678 
L 337.571467 149.447803 
L 338.022017 150.544268 
L 338.24413 151.592576 
L 338.250763 152.568333 
L 338.061214 153.458651 
L 337.606412 154.408635 
L 336.941107 155.23257 
L 335.948734 156.046705 
L 334.773617 156.719856 
L 333.264063 157.340221 
L 331.206604 157.928083 
L 328.818054 158.37731 
L 325.940351 158.692825 
L 322.681533 158.821157 
L 319.419736 158.725071 
L 316.507037 158.416592 
L 314.194362 157.946498 
L 312.584903 157.40024 
L 311.550503 156.837096 
L 310.897803 156.24428 
L 310.56322 155.6447 
L 310.479447 155.05954 
L 310.606802 154.426206 
L 311.013068 153.658477 
L 311.707375 152.836806 
L 312.824811 151.870036 
L 314.477444 150.761181 
L 316.563828 149.640493 
L 319.053873 148.566518 
L 321.619306 147.706891 
L 324.114412 147.113462 
L 326.419188 146.811369 
L 328.447565 146.787594 
L 330.150311 146.988351 
L 331.775961 147.418414 
L 333.2774 148.081841 
L 334.604669 148.955772 
L 335.71019 149.990342 
L 336.55612 151.11839 
L 337.120846 152.270797 
L 337.401431 153.389823 
L 337.411322 154.435477 
L 337.175248 155.385258 
L 336.72377 156.230304 
L 336.089004 156.97079 
L 335.157941 157.709849 
L 333.896805 158.405417 
L 332.294625 159.022159 
L 330.166125 159.574915 
L 327.736955 159.969526 
L 324.888145 160.204824 
L 321.949154 160.23286 
L 319.07515 160.04235 
L 316.731537 159.676024 
L 314.930491 159.178199 
L 313.734955 158.63405 
L 312.956431 158.040859 
L 312.565384 157.489027 
L 312.410812 156.878466 
L 312.482209 156.28803 
L 312.807375 155.573149 
L 313.400061 154.809792 
L 314.378814 153.914828 
L 315.845488 152.893787 
L 317.709152 151.869291 
L 319.939309 150.896284 
L 322.2381 150.12504 
L 324.472602 149.596604 
L 326.534914 149.326085 
L 328.348842 149.295405 
L 330.120046 149.498826 
L 331.56103 149.879595 
L 332.889059 150.452343 
L 334.063436 151.198629 
L 335.046225 152.08116 
L 335.807138 153.049918 
L 336.327791 154.051896 
L 336.603575 155.040232 
L 336.642578 155.979592 
L 336.462457 156.847291 
L 336.086668 157.631545 
L 335.435589 158.436351 
L 334.594701 159.125384 
L 333.450448 159.781141 
L 331.989944 160.368468 
L 330.041411 160.899265 
L 327.622939 161.30343 
L 325.00695 161.513768 
L 322.148544 161.514039 
L 319.564606 161.29117 
L 317.496481 160.897518 
L 316.04907 160.419083 
L 315.0431 159.867642 
L 314.473753 159.329454 
L 314.187252 158.78565 
L 314.127633 158.18779 
L 314.305504 157.539241 
L 314.729207 156.845102 
L 315.494715 156.029665 
L 316.69658 155.097093 
L 318.266172 154.157416 
L 320.178176 153.256784 
L 322.385771 152.46226 
L 324.587092 151.909935 
L 326.659196 151.626598 
L 328.510215 151.604369 
L 330.084163 151.798733 
L 331.563782 152.210639 
L 332.896131 152.835975 
L 334.029126 153.645101 
L 334.917955 154.585927 
L 335.531915 155.594835 
L 335.858749 156.610426 
L 335.914589 157.448703 
L 335.77635 158.234389 
L 335.393868 159.067766 
L 334.804828 159.803162 
L 333.922727 160.522908 
L 332.722254 161.186806 
L 331.202804 161.760584 
L 329.220416 162.250484 
L 326.989758 162.572504 
L 324.442412 162.715728 
L 321.896192 162.636744 
L 319.652987 162.345687 
L 318.025158 161.930594 
L 316.852746 161.418013 
L 316.150889 160.892457 
L 315.765938 160.344684 
L 315.639573 159.797689 
L 315.732096 159.203338 
L 316.051211 158.566898 
L 316.677301 157.819551 
L 317.697154 156.965829 
L 319.194684 156.029681 
L 321.063062 155.141814 
L 323.052073 154.436989 
L 325.029417 153.956636 
L 326.88463 153.717694 
L 328.537015 153.706213 
L 330.133376 153.917998 
L 331.434304 154.299066 
L 332.599196 154.85634 
L 333.585634 155.564457 
L 334.357962 156.382318 
L 334.891901 157.260638 
L 335.177342 158.151134 
L 335.218311 159.013709 
L 335.030434 159.819732 
L 334.637167 160.551853 
L 333.971646 161.287832 
L 332.998576 161.985264 
L 331.70692 162.605647 
L 330.112642 163.11722 
L 328.101725 163.519043 
L 325.74739 163.74774 
L 323.343411 163.753251 
L 321.182831 163.542749 
L 319.478954 163.167496 
L 318.241645 162.672625 
L 317.496302 162.143662 
L 317.121089 161.633304 
L 316.985593 161.064285 
L 317.078675 160.506886 
L 317.428953 159.844786 
L 318.119005 159.07787 
L 319.232395 158.220169 
L 320.703366 157.380222 
L 322.491951 156.615817 
L 324.353945 156.048239 
L 326.166915 155.707828 
L 327.833412 155.597407 
L 329.464573 155.714888 
L 330.824166 156.030578 
L 332.040759 156.543131 
L 333.060925 157.227204 
L 333.839958 158.037022 
L 334.348169 158.915558 
L 334.561585 159.696124 
L 334.563236 160.45434 
L 334.366313 161.166836 
L 333.923172 161.906145 
L 333.280439 162.554779 
L 332.36379 163.172451 
L 331.163299 163.723729 
L 329.55457 164.2117 
L 327.563186 164.567685 
L 325.425979 164.726527 
L 323.279154 164.674313 
L 321.391232 164.418582 
L 319.949247 164.01062 
L 319.014191 163.535174 
L 318.447412 163.003127 
L 318.212303 162.497022 
L 318.206009 161.940008 
L 318.437291 161.339882 
L 318.971333 160.642711 
L 319.885826 159.860485 
L 321.131078 159.090437 
L 322.8134 158.327458 
L 324.611941 157.759566 
L 326.392899 157.425068 
L 328.045871 157.333233 
L 329.492849 157.459853 
L 330.833577 157.800958 
L 331.88191 158.277984 
L 332.749775 158.894144 
L 333.402053 159.611165 
L 333.816312 160.383455 
L 333.985 161.166361 
L 333.914868 161.922578 
L 333.624139 162.625138 
L 333.065746 163.330888 
L 332.303469 163.936382 
L 331.158729 164.537387 
L 329.726272 165.02586 
L 327.92659 165.394144 
L 325.845105 165.578998 
L 323.761469 165.533046 
L 322.047701 165.287236 
L 320.749883 164.895479 
L 319.921719 164.440363 
L 319.43602 163.933388 
L 319.25354 163.453735 
L 319.284351 162.929131 
L 319.535176 162.368284 
L 320.067778 161.723319 
L 320.949765 161.009898 
L 322.236771 160.266594 
L 323.820899 159.614262 
L 325.480045 159.160477 
L 327.091918 158.931365 
L 328.560102 158.923442 
L 329.955153 159.134724 
L 331.083379 159.516646 
L 332.033692 160.062578 
L 332.759348 160.735577 
L 333.228136 161.48607 
L 333.417608 162.176022 
L 333.395707 162.853565 
L 333.134545 163.569885 
L 332.650964 164.214793 
L 331.895876 164.83203 
L 330.860221 165.383409 
L 329.448071 165.865819 
L 327.689625 166.210362 
L 325.804491 166.352454 
L 323.938402 166.276893 
L 322.344293 165.993224 
L 321.251804 165.587549 
L 320.593762 165.129877 
L 320.254131 164.629745 
L 320.185755 164.115104 
L 320.359831 163.557725 
L 320.780034 162.97175 
L 321.514654 162.321938 
L 322.616003 161.641986 
L 324.109298 160.997671 
L 325.708182 160.552016 
L 327.279605 160.337123 
L 328.715568 160.353155 
L 329.942766 160.567136 
L 331.025981 160.970486 
L 331.902697 161.538575 
L 332.473826 162.153354 
L 332.814816 162.823345 
L 332.918421 163.506961 
L 332.791989 164.168537 
L 332.454658 164.781455 
L 331.865649 165.384663 
L 331.007428 165.939789 
L 329.788363 166.443676 
L 328.222337 166.82652 
L 326.501879 167.018183 
L 324.762967 167.001063 
L 323.246256 166.780506 
L 322.120094 166.406847 
L 321.434289 165.962454 
L 321.100426 165.50535 
L 321.016898 165.034337 
L 321.15534 164.524615 
L 321.562821 163.940738 
L 322.299368 163.302074 
L 323.409225 162.651013 
L 324.793651 162.098997 
L 326.367206 161.720358 
L 327.895354 161.591234 
L 329.261079 161.705321 
L 330.387838 162.01852 
L 331.318321 162.514481 
L 331.941646 163.088621 
L 332.320737 163.734589 
L 332.443225 164.405226 
L 332.315138 165.058609 
L 331.957742 165.662758 
L 331.337828 166.245638 
L 330.447791 166.767453 
L 329.215434 167.218456 
L 327.676603 167.531016 
L 326.035571 167.642919 
L 324.443416 167.538102 
L 323.198683 167.250886 
L 322.386157 166.863176 
L 321.940171 166.438549 
L 321.763975 165.985252 
L 321.812316 165.529177 
L 322.098962 165.002526 
L 322.680906 164.421222 
L 323.602417 163.820618 
L 324.878154 163.265474 
L 326.261319 162.89638 
L 327.727632 162.737603 
L 329.0552 162.823521 
L 330.15465 163.115796 
L 330.983214 163.548578 
L 331.585792 164.103691 
L 331.90803 164.674021 
L 332.00468 165.266747 
L 331.88083 165.846753 
L 331.511461 166.437301 
L 330.871695 166.996966 
L 329.963868 167.484379 
L 328.735329 167.884001 
L 327.242731 168.130166 
L 325.700432 168.167781 
L 324.272717 167.983154 
L 323.282188 167.645452 
L 322.69913 167.230784 
L 322.447267 166.797795 
L 322.439501 166.351113 
L 322.653809 165.874717 
L 323.133862 165.347127 
L 323.987356 164.762408 
L 325.113893 164.258646 
L 326.433772 163.902515 
L 327.742985 163.762498 
L 329.014663 163.850578 
L 330.058118 164.147122 
L 330.824329 164.585133 
L 331.344405 165.139681 
L 331.576778 165.704839 
L 331.569294 166.280778 
L 331.333958 166.83099 
L 330.847967 167.370005 
L 330.103362 167.856901 
L 329.046332 168.276103 
L 327.715236 168.561465 
L 326.222353 168.651827 
L 324.884074 168.521662 
L 323.882967 168.218468 
L 323.28647 167.823142 
L 323.029752 167.39803 
L 323.03128 166.954023 
L 323.26997 166.481839 
L 323.7862 165.968987 
L 324.675674 165.423504 
L 325.821653 164.984208 
L 327.124513 164.72214 
L 328.371672 164.693297 
L 329.445666 164.881143 
L 330.274171 165.23407 
L 330.86944 165.724993 
L 331.171944 166.25551 
L 331.2281 166.766313 
L 331.054615 167.310301 
L 330.660236 167.80739 
L 329.971025 168.297368 
L 328.968498 168.714801 
L 327.698873 168.991665 
L 326.285767 169.066374 
L 325.041101 168.916372 
L 324.184785 168.612878 
L 323.701823 168.230716 
L 323.526854 167.828102 
L 323.585202 167.414746 
L 323.888232 166.949642 
L 324.476232 166.461321 
L 325.427837 165.9749 
L 326.598169 165.629322 
L 327.788522 165.495973 
L 328.935567 165.590797 
L 329.852186 165.891857 
L 330.480029 166.329417 
L 330.815228 166.826166 
L 330.894219 167.318473 
L 330.755064 167.804847 
L 330.380886 168.289561 
L 329.712213 168.759698 
L 328.740436 169.148833 
L 327.525223 169.38908 
L 326.205122 169.42078 
L 325.085966 169.228703 
L 324.36879 168.889488 
L 324.043182 168.506066 
L 323.992014 168.117539 
L 324.167099 167.701016 
L 324.599496 167.252521 
L 325.36407 166.787916 
L 326.417727 166.413135 
L 327.602908 166.231381 
L 328.703712 166.286535 
L 329.59456 166.549655 
L 330.205538 166.955713 
L 330.52397 167.428106 
L 330.581476 167.901365 
L 330.413921 168.366723 
L 330.008512 168.82134 
L 329.317822 169.246285 
L 328.351663 169.57607 
L 327.132448 169.749211 
L 325.940736 169.694923 
L 325.047316 169.442817 
L 324.564033 169.097978 
L 324.399896 168.742071 
L 324.468919 168.346858 
L 324.799136 167.912266 
L 325.416587 167.478914 
L 326.365064 167.094424 
L 327.469995 166.889007 
L 328.519002 166.912849 
L 329.37705 167.144011 
L 329.964245 167.521743 
L 330.260298 167.970371 
L 330.292827 168.423136 
L 330.096147 168.865086 
L 329.662324 169.287207 
L 328.956751 169.665482 
L 327.955289 169.945449 
L 326.813259 170.037001 
L 325.768685 169.903945 
L 325.092233 169.606703 
L 324.805942 169.270076 
L 324.773309 168.924641 
L 324.972565 168.53321 
L 325.470223 168.105863 
L 326.257312 167.728893 
L 327.270601 167.487447 
L 328.269833 167.463396 
L 329.110046 167.645825 
L 329.698077 167.981999 
L 330.001405 168.399118 
L 330.039372 168.829024 
L 329.843942 169.250086 
L 329.411441 169.647281 
L 328.674931 170.007581 
L 327.663461 170.241026 
L 326.569014 170.262181 
L 325.716154 170.072151 
L 325.243606 169.768726 
L 325.088203 169.437238 
L 325.165823 169.090047 
L 325.482743 168.716547 
L 326.128169 168.324645 
L 327.032039 168.041309 
L 328.021953 167.959263 
L 328.882695 168.101559 
L 329.464038 168.399925 
L 329.768724 168.786814 
L 329.80839 169.193426 
L 329.612617 169.592483 
L 329.15069 169.983042 
L 328.423797 170.299925 
L 327.461846 170.480007 
L 326.468868 170.44704 
L 325.751345 170.214929 
L 325.428 169.904111 
L 325.386079 169.585288 
L 325.565948 169.24676 
L 326.041278 168.869949 
L 326.821225 168.55238 
L 327.738098 168.411036 
L 328.617433 168.494018 
L 329.23407 168.759801 
L 329.549851 169.113556 
L 329.602811 169.495783 
L 329.419087 169.873933 
L 328.973822 170.239774 
L 328.240043 170.537771 
L 327.297362 170.677245 
L 326.410696 170.595637 
L 325.845779 170.342973 
L 325.641446 170.037046 
L 325.691817 169.7208 
L 325.982858 169.38413 
L 326.58085 169.05022 
L 327.436954 168.835004 
L 328.288164 168.83756 
L 328.959243 169.0444 
L 329.331201 169.371038 
L 329.420779 169.72604 
L 329.272491 170.085423 
L 328.865369 170.434369 
L 328.17933 170.715193 
L 327.300202 170.838455 
L 326.489466 170.745574 
L 326.000435 170.489243 
L 325.862394 170.201945 
L 325.961398 169.897432 
L 326.319272 169.57206 
L 326.979977 169.285145 
L 327.809343 169.162051 
L 328.556091 169.25741 
L 329.061176 169.531247 
L 329.246102 169.864373 
L 329.187336 170.187977 
L 328.891183 170.519821 
L 328.324689 170.808332 
L 327.514273 170.969332 
L 326.704269 170.913194 
L 326.203845 170.675657 
L 326.065976 170.391107 
L 326.175129 170.102101 
L 326.558681 169.789114 
L 327.237436 169.540143 
L 328.041078 169.480974 
L 328.698057 169.646417 
L 329.036418 169.941053 
L 329.087006 170.255215 
L 328.908616 170.567223 
L 328.470405 170.86301 
L 327.770159 171.064272 
L 326.982141 171.070321 
L 326.432935 170.875661 
L 326.250356 170.60739 
L 326.326447 170.335856 
L 326.650138 170.051658 
L 327.269493 169.813499 
L 328.01283 169.755416 
L 328.617128 169.911046 
L 328.916131 170.189356 
L 328.938105 170.484819 
L 328.724134 170.784894 
L 328.251769 171.048777 
L 327.531469 171.194379 
L 326.832876 171.122784 
L 326.462537 170.888091 
L 326.422673 170.632706 
L 326.618722 170.366466 
L 327.099718 170.111659 
L 327.800263 169.991751 
L 328.44231 170.096993 
L 328.774255 170.347022 
L 328.818626 170.632268 
L 328.625575 170.913112 
L 328.164452 171.164777 
L 327.473538 171.285875 
L 326.841564 171.185308 
L 326.570978 170.950974 
L 326.597273 170.703901 
L 326.877092 170.444512 
L 327.435346 170.242665 
L 328.104635 170.227249 
L 328.571145 170.414897 
L 328.717938 170.68412 
L 328.617513 170.942003 
L 328.264052 171.195594 
L 327.642762 171.353633 
L 327.007719 171.296521 
L 326.704744 171.077384 
L 326.716076 170.847612 
L 326.972348 170.606007 
L 327.509412 170.419654 
L 328.136639 170.426148 
L 328.536498 170.629918 
L 328.611125 170.879909 
L 328.45432 171.124024 
L 328.038236 171.343062 
L 327.415566 171.424103 
L 326.923969 171.289149 
L 326.796274 171.065575 
L 326.920443 170.847316 
L 327.308956 170.637371 
L 327.909314 170.562472 
L 328.380292 170.704748 
L 328.524458 170.938247 
L 328.423123 171.168734 
L 328.067428 171.38633 
L 327.481912 171.480385 
L 327.011827 171.357873 
L 326.89973 171.141861 
L 327.04331 170.932825 
L 327.457924 170.746139 
L 328.021193 170.723272 
L 328.384725 170.899441 
L 328.429933 171.122691 
L 328.241247 171.340206 
L 327.789681 171.507057 
L 327.241762 171.487144 
L 326.99465 171.295713 
L 327.051255 171.100655 
L 327.364363 170.906555 
L 327.89286 170.836811 
L 328.294709 170.982504 
L 328.359589 171.198209 
L 328.179954 171.405387 
L 327.734857 171.556515 
L 327.232884 171.508252 
L 327.068893 171.317649 
L 327.180143 171.131561 
L 327.554798 170.969962 
L 328.050635 170.979957 
L 328.29303 171.164384 
L 328.240617 171.365356 
L 327.945324 171.543898 
L 327.443724 171.59075 
L 327.153214 171.433917 
L 327.19242 171.256855 
L 327.483344 171.089424 
L 327.964312 171.061848 
L 328.230503 171.229063 
L 328.187528 171.418968 
L 327.895166 171.587411 
L 327.424166 171.610469 
L 327.206273 171.446904 
L 327.295323 171.278703 
L 327.643209 171.142133 
L 328.06802 171.189905 
L 328.186494 171.375478 
L 328.04127 171.546096 
L 327.646696 171.65316 
L 327.294479 171.553189 
L 327.293906 171.38922 
L 327.545782 171.240717 
L 327.971094 171.234978 
L 328.141248 171.40313 
L 328.026385 171.566838 
L 327.664165 171.673117 
L 327.336172 171.57678 
L 327.354594 171.421188 
L 327.626773 171.289796 
L 328.012546 171.32717 
L 328.086947 171.497592 
L 327.896514 171.6451 
L 327.507775 171.675131 
L 327.361598 171.523454 
L 327.513258 171.385765 
L 327.885536 171.345442 
L 328.05945 171.496727 
L 327.933949 171.639713 
L 327.580902 171.700103 
L 327.399942 171.564128 
L 327.532866 171.433948 
L 327.880875 171.398438 
L 328.022875 171.543906 
L 328.022041 171.547114 
L 327.868869 171.678525 
L 327.523075 171.694426 
L 327.440529 171.573385 
L 327.452485 171.550913 
L 327.66628 171.440315 
L 327.970988 171.496901 
L 327.949951 171.636433 
L 327.68429 171.72617 
L 327.467405 171.625433 
L 327.467414 171.620477 
L 327.583432 171.505568 
L 327.897792 171.496579 
L 327.959366 171.612583 
L 327.943168 171.637614 
L 327.716714 171.732751 
L 327.49621 171.64601 
L 327.496127 171.639368 
L 327.611604 171.532262 
L 327.90522 171.542642 
L 327.925976 171.648249 
L 327.901421 171.673914 
L 327.647024 171.739145 
L 327.52208 171.651736 
L 327.539039 171.615637 
L 327.746309 171.537147 
L 327.92009 171.621491 
L 327.916404 171.643716 
L 327.763737 171.738922 
L 327.545202 171.680488 
L 327.544547 171.669918 
L 327.662994 171.57629 
L 327.89828 171.627261 
L 327.812952 171.728701 
L 327.570431 171.705197 
L 327.617661 171.619748 
L 327.64283 171.607977 
L 327.877018 171.635284 
L 327.826379 171.724596 
L 327.8043 171.73476 
L 327.585375 171.708092 
L 327.583753 171.70263 
L 327.678243 171.618173 
L 327.865611 171.660531 
L 327.864463 171.683279 
L 327.720586 171.756657 
L 327.599206 171.705759 
L 327.645628 171.650137 
L 327.848877 171.666107 
L 327.850863 171.670898 
L 327.774689 171.749269 
L 327.761245 171.752946 
L 327.61442 171.718869 
L 327.61442 171.718869 
" style="fill:none;stroke:#0000ff;stroke-linecap:square;stroke-width:0.5;"/>
   </g>
   <g id="Path3DCollection_1">
    <defs>
     <path d="M 0 2.236068 
C 0.593012 2.236068 1.161816 2.000462 1.581139 1.581139 
C 2.000462 1.161816 2.236068 0.593012 2.236068 0 
C 2.236068 -0.593012 2.000462 -1.161816 1.581139 -1.581139 
C 1.161816 -2.000462 0.593012 -2.236068 0 -2.236068 
C -0.593012 -2.236068 -1.161816 -2.000462 -1.581139 -1.581139 
C -2.000462 -1.161816 -2.236068 -0.593012 -2.236068 0 
C -2.236068 0.593012 -2.000462 1.161816 -1.581139 1.581139 
C -1.161816 2.000462 -0.593012 2.236068 0 2.236068 
z
" id="ma3481e268a" style="stroke:#ff0000;"/>
    </defs>
    <g clip-path="url(#p0c892afeba)">
     <use style="fill:#ff0000;stroke:#ff0000;" x="327.73303" xlink:href="#ma3481e268a" y="171.760256"/>
    </g>
   </g>
   <g id="text_24">
    <!-- $\omega_0=0.75, \lambda_0=0.75, d_0=0.1$ -->
    <defs>
     <path d="M 10.59375 45.40625 
L 73.1875 45.40625 
L 73.1875 37.203125 
L 10.59375 37.203125 
z
M 10.59375 25.484375 
L 73.1875 25.484375 
L 73.1875 17.1875 
L 10.59375 17.1875 
z
" id="DejaVuSans-61"/>
     <path d="M 11.71875 12.40625 
L 22.015625 12.40625 
L 22.015625 4 
L 14.015625 -11.625 
L 7.71875 -11.625 
L 11.71875 4 
z
" id="DejaVuSans-44"/>
    </defs>
    <g transform="translate(167.52 28.416)scale(0.12 -0.12)">
     <use transform="translate(0 0.015625)" xlink:href="#DejaVuSans-Oblique-969"/>
     <use transform="translate(83.740234 -16.390625)scale(0.7)" xlink:href="#DejaVuSans-48"/>
     <use transform="translate(150.493164 0.015625)" xlink:href="#DejaVuSans-61"/>
     <use transform="translate(253.764648 0.015625)" xlink:href="#DejaVuSans-48"/>
     <use transform="translate(317.387695 0.015625)" xlink:href="#DejaVuSans-46"/>
     <use transform="translate(341.424805 0.015625)" xlink:href="#DejaVuSans-55"/>
     <use transform="translate(405.047852 0.015625)" xlink:href="#DejaVuSans-53"/>
     <use transform="translate(468.670898 0.015625)" xlink:href="#DejaVuSans-44"/>
     <use transform="translate(519.94043 0.015625)" xlink:href="#DejaVuSans-Oblique-955"/>
     <use transform="translate(579.120117 -16.390625)scale(0.7)" xlink:href="#DejaVuSans-48"/>
     <use transform="translate(645.873047 0.015625)" xlink:href="#DejaVuSans-61"/>
     <use transform="translate(749.144531 0.015625)" xlink:href="#DejaVuSans-48"/>
     <use transform="translate(812.767578 0.015625)" xlink:href="#DejaVuSans-46"/>
     <use transform="translate(836.804688 0.015625)" xlink:href="#DejaVuSans-55"/>
     <use transform="translate(900.427734 0.015625)" xlink:href="#DejaVuSans-53"/>
     <use transform="translate(964.050781 0.015625)" xlink:href="#DejaVuSans-44"/>
     <use transform="translate(1015.320312 0.015625)" xlink:href="#DejaVuSans-Oblique-100"/>
     <use transform="translate(1078.796875 -16.390625)scale(0.7)" xlink:href="#DejaVuSans-48"/>
     <use transform="translate(1145.549805 0.015625)" xlink:href="#DejaVuSans-61"/>
     <use transform="translate(1248.821289 0.015625)" xlink:href="#DejaVuSans-48"/>
     <use transform="translate(1312.444336 0.015625)" xlink:href="#DejaVuSans-46"/>
     <use transform="translate(1344.231445 0.015625)" xlink:href="#DejaVuSans-49"/>
    </g>
   </g>
   <g id="Path3DCollection_2">
    <defs>
     <path d="M 0 2.236068 
C 0.593012 2.236068 1.161816 2.000462 1.581139 1.581139 
C 2.000462 1.161816 2.236068 0.593012 2.236068 0 
C 2.236068 -0.593012 2.000462 -1.161816 1.581139 -1.581139 
C 1.161816 -2.000462 0.593012 -2.236068 0 -2.236068 
C -0.593012 -2.236068 -1.161816 -2.000462 -1.581139 -1.581139 
C -2.000462 -1.161816 -2.236068 -0.593012 -2.236068 0 
C -2.236068 0.593012 -2.000462 1.161816 -1.581139 1.581139 
C -1.161816 2.000462 -0.593012 2.236068 0 2.236068 
z
" id="mde9983ec74" style="stroke:#008000;"/>
    </defs>
    <g clip-path="url(#p0c892afeba)">
     <use style="fill:#008000;stroke:#008000;" x="147.145657" xlink:href="#mde9983ec74" y="179.590342"/>
    </g>
   </g>
   <g id="legend_1">
    <g id="patch_6">
     <path d="M 394 63.65625 
L 486.2 63.65625 
Q 488.2 63.65625 488.2 61.65625 
L 488.2 17.8 
Q 488.2 15.8 486.2 15.8 
L 394 15.8 
Q 392 15.8 392 17.8 
L 392 61.65625 
Q 392 63.65625 394 63.65625 
z
" style="fill:#ffffff;opacity:0.8;stroke:#cccccc;stroke-linejoin:miter;"/>
    </g>
    <g id="line2d_25">
     <path d="M 396 23.898438 
L 416 23.898438 
" style="fill:none;stroke:#0000ff;stroke-linecap:square;stroke-width:0.5;"/>
    </g>
    <g id="line2d_26"/>
    <g id="text_25">
     <!-- Transient -->
     <defs>
      <path d="M -0.296875 72.90625 
L 61.375 72.90625 
L 61.375 64.59375 
L 35.5 64.59375 
L 35.5 0 
L 25.59375 0 
L 25.59375 64.59375 
L -0.296875 64.59375 
z
" id="DejaVuSans-84"/>
      <path d="M 41.109375 46.296875 
Q 39.59375 47.171875 37.8125 47.578125 
Q 36.03125 48 33.890625 48 
Q 26.265625 48 22.1875 43.046875 
Q 18.109375 38.09375 18.109375 28.8125 
L 18.109375 0 
L 9.078125 0 
L 9.078125 54.6875 
L 18.109375 54.6875 
L 18.109375 46.1875 
Q 20.953125 51.171875 25.484375 53.578125 
Q 30.03125 56 36.53125 56 
Q 37.453125 56 38.578125 55.875 
Q 39.703125 55.765625 41.0625 55.515625 
z
" id="DejaVuSans-114"/>
      <path d="M 34.28125 27.484375 
Q 23.390625 27.484375 19.1875 25 
Q 14.984375 22.515625 14.984375 16.5 
Q 14.984375 11.71875 18.140625 8.90625 
Q 21.296875 6.109375 26.703125 6.109375 
Q 34.1875 6.109375 38.703125 11.40625 
Q 43.21875 16.703125 43.21875 25.484375 
L 43.21875 27.484375 
z
M 52.203125 31.203125 
L 52.203125 0 
L 43.21875 0 
L 43.21875 8.296875 
Q 40.140625 3.328125 35.546875 0.953125 
Q 30.953125 -1.421875 24.3125 -1.421875 
Q 15.921875 -1.421875 10.953125 3.296875 
Q 6 8.015625 6 15.921875 
Q 6 25.140625 12.171875 29.828125 
Q 18.359375 34.515625 30.609375 34.515625 
L 43.21875 34.515625 
L 43.21875 35.40625 
Q 43.21875 41.609375 39.140625 45 
Q 35.0625 48.390625 27.6875 48.390625 
Q 23 48.390625 18.546875 47.265625 
Q 14.109375 46.140625 10.015625 43.890625 
L 10.015625 52.203125 
Q 14.9375 54.109375 19.578125 55.046875 
Q 24.21875 56 28.609375 56 
Q 40.484375 56 46.34375 49.84375 
Q 52.203125 43.703125 52.203125 31.203125 
z
" id="DejaVuSans-97"/>
      <path d="M 54.890625 33.015625 
L 54.890625 0 
L 45.90625 0 
L 45.90625 32.71875 
Q 45.90625 40.484375 42.875 44.328125 
Q 39.84375 48.1875 33.796875 48.1875 
Q 26.515625 48.1875 22.3125 43.546875 
Q 18.109375 38.921875 18.109375 30.90625 
L 18.109375 0 
L 9.078125 0 
L 9.078125 54.6875 
L 18.109375 54.6875 
L 18.109375 46.1875 
Q 21.34375 51.125 25.703125 53.5625 
Q 30.078125 56 35.796875 56 
Q 45.21875 56 50.046875 50.171875 
Q 54.890625 44.34375 54.890625 33.015625 
z
" id="DejaVuSans-110"/>
      <path d="M 44.28125 53.078125 
L 44.28125 44.578125 
Q 40.484375 46.53125 36.375 47.5 
Q 32.28125 48.484375 27.875 48.484375 
Q 21.1875 48.484375 17.84375 46.4375 
Q 14.5 44.390625 14.5 40.28125 
Q 14.5 37.15625 16.890625 35.375 
Q 19.28125 33.59375 26.515625 31.984375 
L 29.59375 31.296875 
Q 39.15625 29.25 43.1875 25.515625 
Q 47.21875 21.78125 47.21875 15.09375 
Q 47.21875 7.46875 41.1875 3.015625 
Q 35.15625 -1.421875 24.609375 -1.421875 
Q 20.21875 -1.421875 15.453125 -0.5625 
Q 10.6875 0.296875 5.421875 2 
L 5.421875 11.28125 
Q 10.40625 8.6875 15.234375 7.390625 
Q 20.0625 6.109375 24.8125 6.109375 
Q 31.15625 6.109375 34.5625 8.28125 
Q 37.984375 10.453125 37.984375 14.40625 
Q 37.984375 18.0625 35.515625 20.015625 
Q 33.0625 21.96875 24.703125 23.78125 
L 21.578125 24.515625 
Q 13.234375 26.265625 9.515625 29.90625 
Q 5.8125 33.546875 5.8125 39.890625 
Q 5.8125 47.609375 11.28125 51.796875 
Q 16.75 56 26.8125 56 
Q 31.78125 56 36.171875 55.265625 
Q 40.578125 54.546875 44.28125 53.078125 
z
" id="DejaVuSans-115"/>
      <path d="M 9.421875 54.6875 
L 18.40625 54.6875 
L 18.40625 0 
L 9.421875 0 
z
M 9.421875 75.984375 
L 18.40625 75.984375 
L 18.40625 64.59375 
L 9.421875 64.59375 
z
" id="DejaVuSans-105"/>
      <path d="M 56.203125 29.59375 
L 56.203125 25.203125 
L 14.890625 25.203125 
Q 15.484375 15.921875 20.484375 11.0625 
Q 25.484375 6.203125 34.421875 6.203125 
Q 39.59375 6.203125 44.453125 7.46875 
Q 49.3125 8.734375 54.109375 11.28125 
L 54.109375 2.78125 
Q 49.265625 0.734375 44.1875 -0.34375 
Q 39.109375 -1.421875 33.890625 -1.421875 
Q 20.796875 -1.421875 13.15625 6.1875 
Q 5.515625 13.8125 5.515625 26.8125 
Q 5.515625 40.234375 12.765625 48.109375 
Q 20.015625 56 32.328125 56 
Q 43.359375 56 49.78125 48.890625 
Q 56.203125 41.796875 56.203125 29.59375 
z
M 47.21875 32.234375 
Q 47.125 39.59375 43.09375 43.984375 
Q 39.0625 48.390625 32.421875 48.390625 
Q 24.90625 48.390625 20.390625 44.140625 
Q 15.875 39.890625 15.1875 32.171875 
z
" id="DejaVuSans-101"/>
      <path d="M 18.3125 70.21875 
L 18.3125 54.6875 
L 36.8125 54.6875 
L 36.8125 47.703125 
L 18.3125 47.703125 
L 18.3125 18.015625 
Q 18.3125 11.328125 20.140625 9.421875 
Q 21.96875 7.515625 27.59375 7.515625 
L 36.8125 7.515625 
L 36.8125 0 
L 27.59375 0 
Q 17.1875 0 13.234375 3.875 
Q 9.28125 7.765625 9.28125 18.015625 
L 9.28125 47.703125 
L 2.6875 47.703125 
L 2.6875 54.6875 
L 9.28125 54.6875 
L 9.28125 70.21875 
z
" id="DejaVuSans-116"/>
     </defs>
     <g transform="translate(424 27.398438)scale(0.1 -0.1)">
      <use xlink:href="#DejaVuSans-84"/>
      <use x="46.333984" xlink:href="#DejaVuSans-114"/>
      <use x="87.447266" xlink:href="#DejaVuSans-97"/>
      <use x="148.726562" xlink:href="#DejaVuSans-110"/>
      <use x="212.105469" xlink:href="#DejaVuSans-115"/>
      <use x="264.205078" xlink:href="#DejaVuSans-105"/>
      <use x="291.988281" xlink:href="#DejaVuSans-101"/>
      <use x="353.511719" xlink:href="#DejaVuSans-110"/>
      <use x="416.890625" xlink:href="#DejaVuSans-116"/>
     </g>
    </g>
    <g id="Path3DCollection_3">
     <g>
      <use style="fill:#ff0000;stroke:#ff0000;" x="406" xlink:href="#ma3481e268a" y="40.273438"/>
     </g>
    </g>
    <g id="text_26">
     <!-- ($\lambda^*, \omega^*, d^*$) -->
     <defs>
      <path d="M 31 75.875 
Q 24.46875 64.65625 21.28125 53.65625 
Q 18.109375 42.671875 18.109375 31.390625 
Q 18.109375 20.125 21.3125 9.0625 
Q 24.515625 -2 31 -13.1875 
L 23.1875 -13.1875 
Q 15.875 -1.703125 12.234375 9.375 
Q 8.59375 20.453125 8.59375 31.390625 
Q 8.59375 42.28125 12.203125 53.3125 
Q 15.828125 64.359375 23.1875 75.875 
z
" id="DejaVuSans-40"/>
      <path d="M 47.015625 60.890625 
L 29.5 51.421875 
L 47.015625 41.890625 
L 44.1875 37.109375 
L 27.78125 47.015625 
L 27.78125 28.609375 
L 22.21875 28.609375 
L 22.21875 47.015625 
L 5.8125 37.109375 
L 2.984375 41.890625 
L 20.515625 51.421875 
L 2.984375 60.890625 
L 5.8125 65.71875 
L 22.21875 55.8125 
L 22.21875 74.21875 
L 27.78125 74.21875 
L 27.78125 55.8125 
L 44.1875 65.71875 
z
" id="DejaVuSans-42"/>
      <path d="M 8.015625 75.875 
L 15.828125 75.875 
Q 23.140625 64.359375 26.78125 53.3125 
Q 30.421875 42.28125 30.421875 31.390625 
Q 30.421875 20.453125 26.78125 9.375 
Q 23.140625 -1.703125 15.828125 -13.1875 
L 8.015625 -13.1875 
Q 14.5 -2 17.703125 9.0625 
Q 20.90625 20.125 20.90625 31.390625 
Q 20.90625 42.671875 17.703125 53.65625 
Q 14.5 64.65625 8.015625 75.875 
z
" id="DejaVuSans-41"/>
     </defs>
     <g transform="translate(424 42.898438)scale(0.1 -0.1)">
      <use transform="translate(0 0.765625)" xlink:href="#DejaVuSans-40"/>
      <use transform="translate(39.013672 0.765625)" xlink:href="#DejaVuSans-Oblique-955"/>
      <use transform="translate(119.278763 39.046875)scale(0.7)" xlink:href="#DejaVuSans-42"/>
      <use transform="translate(170.650833 0.765625)" xlink:href="#DejaVuSans-44"/>
      <use transform="translate(221.920365 0.765625)" xlink:href="#DejaVuSans-Oblique-969"/>
      <use transform="translate(323.76444 39.046875)scale(0.7)" xlink:href="#DejaVuSans-42"/>
      <use transform="translate(375.13651 0.765625)" xlink:href="#DejaVuSans-44"/>
      <use transform="translate(426.406042 0.765625)" xlink:href="#DejaVuSans-Oblique-100"/>
      <use transform="translate(510.968008 39.046875)scale(0.7)" xlink:href="#DejaVuSans-42"/>
      <use transform="translate(562.340078 0.765625)" xlink:href="#DejaVuSans-41"/>
     </g>
    </g>
    <g id="Path3DCollection_4">
     <g>
      <use style="fill:#008000;stroke:#008000;" x="406" xlink:href="#mde9983ec74" y="54.951563"/>
     </g>
    </g>
    <g id="text_27">
     <!-- ($\lambda_0, \omega_0, d_0$) -->
     <g transform="translate(424 57.576563)scale(0.1 -0.1)">
      <use transform="translate(0 0.015625)" xlink:href="#DejaVuSans-40"/>
      <use transform="translate(39.013672 0.015625)" xlink:href="#DejaVuSans-Oblique-955"/>
      <use transform="translate(98.193359 -16.390625)scale(0.7)" xlink:href="#DejaVuSans-48"/>
      <use transform="translate(145.463867 0.015625)" xlink:href="#DejaVuSans-44"/>
      <use transform="translate(196.733398 0.015625)" xlink:href="#DejaVuSans-Oblique-969"/>
      <use transform="translate(280.473633 -16.390625)scale(0.7)" xlink:href="#DejaVuSans-48"/>
      <use transform="translate(327.744141 0.015625)" xlink:href="#DejaVuSans-44"/>
      <use transform="translate(379.013672 0.015625)" xlink:href="#DejaVuSans-Oblique-100"/>
      <use transform="translate(442.490234 -16.390625)scale(0.7)" xlink:href="#DejaVuSans-48"/>
      <use transform="translate(489.760742 0.015625)" xlink:href="#DejaVuSans-41"/>
     </g>
    </g>
   </g>
  </g>
 </g>
 <defs>
  <clipPath id="p0c892afeba">
   <rect height="295.2" width="482.4" x="10.8" y="10.8"/>
  </clipPath>
 </defs>
</svg>
