<?xml version="1.0" encoding="utf-8" standalone="no"?>
<!DOCTYPE svg PUBLIC "-//W3C//DTD SVG 1.1//EN"
  "http://www.w3.org/Graphics/SVG/1.1/DTD/svg11.dtd">
<!-- Created with matplotlib (https://matplotlib.org/) -->
<svg height="316.8pt" version="1.1" viewBox="0 0 504 316.8" width="504pt" xmlns="http://www.w3.org/2000/svg" xmlns:xlink="http://www.w3.org/1999/xlink">
 <defs>
  <style type="text/css">
*{stroke-linecap:butt;stroke-linejoin:round;}
  </style>
 </defs>
 <g id="figure_1">
  <g id="patch_1">
   <path d="M 0 316.8 
L 504 316.8 
L 504 0 
L 0 0 
z
" style="fill:#ffffff;"/>
  </g>
  <g id="axes_1">
   <g id="patch_2">
    <path d="M 53.74375 275.64375 
L 450.25625 275.64375 
L 450.25625 25.918125 
L 53.74375 25.918125 
z
" style="fill:#ffffff;"/>
   </g>
   <g id="matplotlib.axis_1">
    <g id="xtick_1">
     <g id="line2d_1">
      <defs>
       <path d="M 0 0 
L 0 3.5 
" id="m0432d363e6" style="stroke:#000000;stroke-width:0.8;"/>
      </defs>
      <g>
       <use style="stroke:#000000;stroke-width:0.8;" x="53.74375" xlink:href="#m0432d363e6" y="275.64375"/>
      </g>
     </g>
     <g id="text_1">
      <!-- 0 -->
      <defs>
       <path d="M 31.78125 66.40625 
Q 24.171875 66.40625 20.328125 58.90625 
Q 16.5 51.421875 16.5 36.375 
Q 16.5 21.390625 20.328125 13.890625 
Q 24.171875 6.390625 31.78125 6.390625 
Q 39.453125 6.390625 43.28125 13.890625 
Q 47.125 21.390625 47.125 36.375 
Q 47.125 51.421875 43.28125 58.90625 
Q 39.453125 66.40625 31.78125 66.40625 
z
M 31.78125 74.21875 
Q 44.046875 74.21875 50.515625 64.515625 
Q 56.984375 54.828125 56.984375 36.375 
Q 56.984375 17.96875 50.515625 8.265625 
Q 44.046875 -1.421875 31.78125 -1.421875 
Q 19.53125 -1.421875 13.0625 8.265625 
Q 6.59375 17.96875 6.59375 36.375 
Q 6.59375 54.828125 13.0625 64.515625 
Q 19.53125 74.21875 31.78125 74.21875 
z
" id="DejaVuSans-48"/>
      </defs>
      <g transform="translate(50.5625 290.242188)scale(0.1 -0.1)">
       <use xlink:href="#DejaVuSans-48"/>
      </g>
     </g>
    </g>
    <g id="xtick_2">
     <g id="line2d_2">
      <g>
       <use style="stroke:#000000;stroke-width:0.8;" x="119.611802" xlink:href="#m0432d363e6" y="275.64375"/>
      </g>
     </g>
     <g id="text_2">
      <!-- 50 -->
      <defs>
       <path d="M 10.796875 72.90625 
L 49.515625 72.90625 
L 49.515625 64.59375 
L 19.828125 64.59375 
L 19.828125 46.734375 
Q 21.96875 47.46875 24.109375 47.828125 
Q 26.265625 48.1875 28.421875 48.1875 
Q 40.625 48.1875 47.75 41.5 
Q 54.890625 34.8125 54.890625 23.390625 
Q 54.890625 11.625 47.5625 5.09375 
Q 40.234375 -1.421875 26.90625 -1.421875 
Q 22.3125 -1.421875 17.546875 -0.640625 
Q 12.796875 0.140625 7.71875 1.703125 
L 7.71875 11.625 
Q 12.109375 9.234375 16.796875 8.0625 
Q 21.484375 6.890625 26.703125 6.890625 
Q 35.15625 6.890625 40.078125 11.328125 
Q 45.015625 15.765625 45.015625 23.390625 
Q 45.015625 31 40.078125 35.4375 
Q 35.15625 39.890625 26.703125 39.890625 
Q 22.75 39.890625 18.8125 39.015625 
Q 14.890625 38.140625 10.796875 36.28125 
z
" id="DejaVuSans-53"/>
      </defs>
      <g transform="translate(113.249302 290.242188)scale(0.1 -0.1)">
       <use xlink:href="#DejaVuSans-53"/>
       <use x="63.623047" xlink:href="#DejaVuSans-48"/>
      </g>
     </g>
    </g>
    <g id="xtick_3">
     <g id="line2d_3">
      <g>
       <use style="stroke:#000000;stroke-width:0.8;" x="185.479854" xlink:href="#m0432d363e6" y="275.64375"/>
      </g>
     </g>
     <g id="text_3">
      <!-- 100 -->
      <defs>
       <path d="M 12.40625 8.296875 
L 28.515625 8.296875 
L 28.515625 63.921875 
L 10.984375 60.40625 
L 10.984375 69.390625 
L 28.421875 72.90625 
L 38.28125 72.90625 
L 38.28125 8.296875 
L 54.390625 8.296875 
L 54.390625 0 
L 12.40625 0 
z
" id="DejaVuSans-49"/>
      </defs>
      <g transform="translate(175.936104 290.242188)scale(0.1 -0.1)">
       <use xlink:href="#DejaVuSans-49"/>
       <use x="63.623047" xlink:href="#DejaVuSans-48"/>
       <use x="127.246094" xlink:href="#DejaVuSans-48"/>
      </g>
     </g>
    </g>
    <g id="xtick_4">
     <g id="line2d_4">
      <g>
       <use style="stroke:#000000;stroke-width:0.8;" x="251.347906" xlink:href="#m0432d363e6" y="275.64375"/>
      </g>
     </g>
     <g id="text_4">
      <!-- 150 -->
      <g transform="translate(241.804156 290.242188)scale(0.1 -0.1)">
       <use xlink:href="#DejaVuSans-49"/>
       <use x="63.623047" xlink:href="#DejaVuSans-53"/>
       <use x="127.246094" xlink:href="#DejaVuSans-48"/>
      </g>
     </g>
    </g>
    <g id="xtick_5">
     <g id="line2d_5">
      <g>
       <use style="stroke:#000000;stroke-width:0.8;" x="317.215958" xlink:href="#m0432d363e6" y="275.64375"/>
      </g>
     </g>
     <g id="text_5">
      <!-- 200 -->
      <defs>
       <path d="M 19.1875 8.296875 
L 53.609375 8.296875 
L 53.609375 0 
L 7.328125 0 
L 7.328125 8.296875 
Q 12.9375 14.109375 22.625 23.890625 
Q 32.328125 33.6875 34.8125 36.53125 
Q 39.546875 41.84375 41.421875 45.53125 
Q 43.3125 49.21875 43.3125 52.78125 
Q 43.3125 58.59375 39.234375 62.25 
Q 35.15625 65.921875 28.609375 65.921875 
Q 23.96875 65.921875 18.8125 64.3125 
Q 13.671875 62.703125 7.8125 59.421875 
L 7.8125 69.390625 
Q 13.765625 71.78125 18.9375 73 
Q 24.125 74.21875 28.421875 74.21875 
Q 39.75 74.21875 46.484375 68.546875 
Q 53.21875 62.890625 53.21875 53.421875 
Q 53.21875 48.921875 51.53125 44.890625 
Q 49.859375 40.875 45.40625 35.40625 
Q 44.1875 33.984375 37.640625 27.21875 
Q 31.109375 20.453125 19.1875 8.296875 
z
" id="DejaVuSans-50"/>
      </defs>
      <g transform="translate(307.672208 290.242188)scale(0.1 -0.1)">
       <use xlink:href="#DejaVuSans-50"/>
       <use x="63.623047" xlink:href="#DejaVuSans-48"/>
       <use x="127.246094" xlink:href="#DejaVuSans-48"/>
      </g>
     </g>
    </g>
    <g id="xtick_6">
     <g id="line2d_6">
      <g>
       <use style="stroke:#000000;stroke-width:0.8;" x="383.08401" xlink:href="#m0432d363e6" y="275.64375"/>
      </g>
     </g>
     <g id="text_6">
      <!-- 250 -->
      <g transform="translate(373.54026 290.242188)scale(0.1 -0.1)">
       <use xlink:href="#DejaVuSans-50"/>
       <use x="63.623047" xlink:href="#DejaVuSans-53"/>
       <use x="127.246094" xlink:href="#DejaVuSans-48"/>
      </g>
     </g>
    </g>
    <g id="xtick_7">
     <g id="line2d_7">
      <g>
       <use style="stroke:#000000;stroke-width:0.8;" x="448.952063" xlink:href="#m0432d363e6" y="275.64375"/>
      </g>
     </g>
     <g id="text_7">
      <!-- 300 -->
      <defs>
       <path d="M 40.578125 39.3125 
Q 47.65625 37.796875 51.625 33 
Q 55.609375 28.21875 55.609375 21.1875 
Q 55.609375 10.40625 48.1875 4.484375 
Q 40.765625 -1.421875 27.09375 -1.421875 
Q 22.515625 -1.421875 17.65625 -0.515625 
Q 12.796875 0.390625 7.625 2.203125 
L 7.625 11.71875 
Q 11.71875 9.328125 16.59375 8.109375 
Q 21.484375 6.890625 26.8125 6.890625 
Q 36.078125 6.890625 40.9375 10.546875 
Q 45.796875 14.203125 45.796875 21.1875 
Q 45.796875 27.640625 41.28125 31.265625 
Q 36.765625 34.90625 28.71875 34.90625 
L 20.21875 34.90625 
L 20.21875 43.015625 
L 29.109375 43.015625 
Q 36.375 43.015625 40.234375 45.921875 
Q 44.09375 48.828125 44.09375 54.296875 
Q 44.09375 59.90625 40.109375 62.90625 
Q 36.140625 65.921875 28.71875 65.921875 
Q 24.65625 65.921875 20.015625 65.03125 
Q 15.375 64.15625 9.8125 62.3125 
L 9.8125 71.09375 
Q 15.4375 72.65625 20.34375 73.4375 
Q 25.25 74.21875 29.59375 74.21875 
Q 40.828125 74.21875 47.359375 69.109375 
Q 53.90625 64.015625 53.90625 55.328125 
Q 53.90625 49.265625 50.4375 45.09375 
Q 46.96875 40.921875 40.578125 39.3125 
z
" id="DejaVuSans-51"/>
      </defs>
      <g transform="translate(439.408313 290.242188)scale(0.1 -0.1)">
       <use xlink:href="#DejaVuSans-51"/>
       <use x="63.623047" xlink:href="#DejaVuSans-48"/>
       <use x="127.246094" xlink:href="#DejaVuSans-48"/>
      </g>
     </g>
    </g>
    <g id="text_8">
     <!-- Time (years) -->
     <defs>
      <path d="M -0.296875 72.90625 
L 61.375 72.90625 
L 61.375 64.59375 
L 35.5 64.59375 
L 35.5 0 
L 25.59375 0 
L 25.59375 64.59375 
L -0.296875 64.59375 
z
" id="DejaVuSans-84"/>
      <path d="M 9.421875 54.6875 
L 18.40625 54.6875 
L 18.40625 0 
L 9.421875 0 
z
M 9.421875 75.984375 
L 18.40625 75.984375 
L 18.40625 64.59375 
L 9.421875 64.59375 
z
" id="DejaVuSans-105"/>
      <path d="M 52 44.1875 
Q 55.375 50.25 60.0625 53.125 
Q 64.75 56 71.09375 56 
Q 79.640625 56 84.28125 50.015625 
Q 88.921875 44.046875 88.921875 33.015625 
L 88.921875 0 
L 79.890625 0 
L 79.890625 32.71875 
Q 79.890625 40.578125 77.09375 44.375 
Q 74.3125 48.1875 68.609375 48.1875 
Q 61.625 48.1875 57.5625 43.546875 
Q 53.515625 38.921875 53.515625 30.90625 
L 53.515625 0 
L 44.484375 0 
L 44.484375 32.71875 
Q 44.484375 40.625 41.703125 44.40625 
Q 38.921875 48.1875 33.109375 48.1875 
Q 26.21875 48.1875 22.15625 43.53125 
Q 18.109375 38.875 18.109375 30.90625 
L 18.109375 0 
L 9.078125 0 
L 9.078125 54.6875 
L 18.109375 54.6875 
L 18.109375 46.1875 
Q 21.1875 51.21875 25.484375 53.609375 
Q 29.78125 56 35.6875 56 
Q 41.65625 56 45.828125 52.96875 
Q 50 49.953125 52 44.1875 
z
" id="DejaVuSans-109"/>
      <path d="M 56.203125 29.59375 
L 56.203125 25.203125 
L 14.890625 25.203125 
Q 15.484375 15.921875 20.484375 11.0625 
Q 25.484375 6.203125 34.421875 6.203125 
Q 39.59375 6.203125 44.453125 7.46875 
Q 49.3125 8.734375 54.109375 11.28125 
L 54.109375 2.78125 
Q 49.265625 0.734375 44.1875 -0.34375 
Q 39.109375 -1.421875 33.890625 -1.421875 
Q 20.796875 -1.421875 13.15625 6.1875 
Q 5.515625 13.8125 5.515625 26.8125 
Q 5.515625 40.234375 12.765625 48.109375 
Q 20.015625 56 32.328125 56 
Q 43.359375 56 49.78125 48.890625 
Q 56.203125 41.796875 56.203125 29.59375 
z
M 47.21875 32.234375 
Q 47.125 39.59375 43.09375 43.984375 
Q 39.0625 48.390625 32.421875 48.390625 
Q 24.90625 48.390625 20.390625 44.140625 
Q 15.875 39.890625 15.1875 32.171875 
z
" id="DejaVuSans-101"/>
      <path id="DejaVuSans-32"/>
      <path d="M 31 75.875 
Q 24.46875 64.65625 21.28125 53.65625 
Q 18.109375 42.671875 18.109375 31.390625 
Q 18.109375 20.125 21.3125 9.0625 
Q 24.515625 -2 31 -13.1875 
L 23.1875 -13.1875 
Q 15.875 -1.703125 12.234375 9.375 
Q 8.59375 20.453125 8.59375 31.390625 
Q 8.59375 42.28125 12.203125 53.3125 
Q 15.828125 64.359375 23.1875 75.875 
z
" id="DejaVuSans-40"/>
      <path d="M 32.171875 -5.078125 
Q 28.375 -14.84375 24.75 -17.8125 
Q 21.140625 -20.796875 15.09375 -20.796875 
L 7.90625 -20.796875 
L 7.90625 -13.28125 
L 13.1875 -13.28125 
Q 16.890625 -13.28125 18.9375 -11.515625 
Q 21 -9.765625 23.484375 -3.21875 
L 25.09375 0.875 
L 2.984375 54.6875 
L 12.5 54.6875 
L 29.59375 11.921875 
L 46.6875 54.6875 
L 56.203125 54.6875 
z
" id="DejaVuSans-121"/>
      <path d="M 34.28125 27.484375 
Q 23.390625 27.484375 19.1875 25 
Q 14.984375 22.515625 14.984375 16.5 
Q 14.984375 11.71875 18.140625 8.90625 
Q 21.296875 6.109375 26.703125 6.109375 
Q 34.1875 6.109375 38.703125 11.40625 
Q 43.21875 16.703125 43.21875 25.484375 
L 43.21875 27.484375 
z
M 52.203125 31.203125 
L 52.203125 0 
L 43.21875 0 
L 43.21875 8.296875 
Q 40.140625 3.328125 35.546875 0.953125 
Q 30.953125 -1.421875 24.3125 -1.421875 
Q 15.921875 -1.421875 10.953125 3.296875 
Q 6 8.015625 6 15.921875 
Q 6 25.140625 12.171875 29.828125 
Q 18.359375 34.515625 30.609375 34.515625 
L 43.21875 34.515625 
L 43.21875 35.40625 
Q 43.21875 41.609375 39.140625 45 
Q 35.0625 48.390625 27.6875 48.390625 
Q 23 48.390625 18.546875 47.265625 
Q 14.109375 46.140625 10.015625 43.890625 
L 10.015625 52.203125 
Q 14.9375 54.109375 19.578125 55.046875 
Q 24.21875 56 28.609375 56 
Q 40.484375 56 46.34375 49.84375 
Q 52.203125 43.703125 52.203125 31.203125 
z
" id="DejaVuSans-97"/>
      <path d="M 41.109375 46.296875 
Q 39.59375 47.171875 37.8125 47.578125 
Q 36.03125 48 33.890625 48 
Q 26.265625 48 22.1875 43.046875 
Q 18.109375 38.09375 18.109375 28.8125 
L 18.109375 0 
L 9.078125 0 
L 9.078125 54.6875 
L 18.109375 54.6875 
L 18.109375 46.1875 
Q 20.953125 51.171875 25.484375 53.578125 
Q 30.03125 56 36.53125 56 
Q 37.453125 56 38.578125 55.875 
Q 39.703125 55.765625 41.0625 55.515625 
z
" id="DejaVuSans-114"/>
      <path d="M 44.28125 53.078125 
L 44.28125 44.578125 
Q 40.484375 46.53125 36.375 47.5 
Q 32.28125 48.484375 27.875 48.484375 
Q 21.1875 48.484375 17.84375 46.4375 
Q 14.5 44.390625 14.5 40.28125 
Q 14.5 37.15625 16.890625 35.375 
Q 19.28125 33.59375 26.515625 31.984375 
L 29.59375 31.296875 
Q 39.15625 29.25 43.1875 25.515625 
Q 47.21875 21.78125 47.21875 15.09375 
Q 47.21875 7.46875 41.1875 3.015625 
Q 35.15625 -1.421875 24.609375 -1.421875 
Q 20.21875 -1.421875 15.453125 -0.5625 
Q 10.6875 0.296875 5.421875 2 
L 5.421875 11.28125 
Q 10.40625 8.6875 15.234375 7.390625 
Q 20.0625 6.109375 24.8125 6.109375 
Q 31.15625 6.109375 34.5625 8.28125 
Q 37.984375 10.453125 37.984375 14.40625 
Q 37.984375 18.0625 35.515625 20.015625 
Q 33.0625 21.96875 24.703125 23.78125 
L 21.578125 24.515625 
Q 13.234375 26.265625 9.515625 29.90625 
Q 5.8125 33.546875 5.8125 39.890625 
Q 5.8125 47.609375 11.28125 51.796875 
Q 16.75 56 26.8125 56 
Q 31.78125 56 36.171875 55.265625 
Q 40.578125 54.546875 44.28125 53.078125 
z
" id="DejaVuSans-115"/>
      <path d="M 8.015625 75.875 
L 15.828125 75.875 
Q 23.140625 64.359375 26.78125 53.3125 
Q 30.421875 42.28125 30.421875 31.390625 
Q 30.421875 20.453125 26.78125 9.375 
Q 23.140625 -1.703125 15.828125 -13.1875 
L 8.015625 -13.1875 
Q 14.5 -2 17.703125 9.0625 
Q 20.90625 20.125 20.90625 31.390625 
Q 20.90625 42.671875 17.703125 53.65625 
Q 14.5 64.65625 8.015625 75.875 
z
" id="DejaVuSans-41"/>
     </defs>
     <g transform="translate(220.515625 303.920313)scale(0.1 -0.1)">
      <use xlink:href="#DejaVuSans-84"/>
      <use x="57.958984" xlink:href="#DejaVuSans-105"/>
      <use x="85.742188" xlink:href="#DejaVuSans-109"/>
      <use x="183.154297" xlink:href="#DejaVuSans-101"/>
      <use x="244.677734" xlink:href="#DejaVuSans-32"/>
      <use x="276.464844" xlink:href="#DejaVuSans-40"/>
      <use x="315.478516" xlink:href="#DejaVuSans-121"/>
      <use x="374.658203" xlink:href="#DejaVuSans-101"/>
      <use x="436.181641" xlink:href="#DejaVuSans-97"/>
      <use x="497.460938" xlink:href="#DejaVuSans-114"/>
      <use x="538.574219" xlink:href="#DejaVuSans-115"/>
      <use x="590.673828" xlink:href="#DejaVuSans-41"/>
     </g>
    </g>
   </g>
   <g id="matplotlib.axis_2">
    <g id="ytick_1">
     <g id="line2d_8">
      <defs>
       <path d="M 0 0 
L -3.5 0 
" id="mf5ff2056eb" style="stroke:#000000;stroke-width:0.8;"/>
      </defs>
      <g>
       <use style="stroke:#000000;stroke-width:0.8;" x="53.74375" xlink:href="#mf5ff2056eb" y="269.737006"/>
      </g>
     </g>
     <g id="text_9">
      <!-- 0.70 -->
      <defs>
       <path d="M 10.6875 12.40625 
L 21 12.40625 
L 21 0 
L 10.6875 0 
z
" id="DejaVuSans-46"/>
       <path d="M 8.203125 72.90625 
L 55.078125 72.90625 
L 55.078125 68.703125 
L 28.609375 0 
L 18.3125 0 
L 43.21875 64.59375 
L 8.203125 64.59375 
z
" id="DejaVuSans-55"/>
      </defs>
      <g transform="translate(24.478125 273.536225)scale(0.1 -0.1)">
       <use xlink:href="#DejaVuSans-48"/>
       <use x="63.623047" xlink:href="#DejaVuSans-46"/>
       <use x="95.410156" xlink:href="#DejaVuSans-55"/>
       <use x="159.033203" xlink:href="#DejaVuSans-48"/>
      </g>
     </g>
    </g>
    <g id="ytick_2">
     <g id="line2d_9">
      <g>
       <use style="stroke:#000000;stroke-width:0.8;" x="53.74375" xlink:href="#mf5ff2056eb" y="230.270458"/>
      </g>
     </g>
     <g id="text_10">
      <!-- 0.75 -->
      <g transform="translate(24.478125 234.069676)scale(0.1 -0.1)">
       <use xlink:href="#DejaVuSans-48"/>
       <use x="63.623047" xlink:href="#DejaVuSans-46"/>
       <use x="95.410156" xlink:href="#DejaVuSans-55"/>
       <use x="159.033203" xlink:href="#DejaVuSans-53"/>
      </g>
     </g>
    </g>
    <g id="ytick_3">
     <g id="line2d_10">
      <g>
       <use style="stroke:#000000;stroke-width:0.8;" x="53.74375" xlink:href="#mf5ff2056eb" y="190.803909"/>
      </g>
     </g>
     <g id="text_11">
      <!-- 0.80 -->
      <defs>
       <path d="M 31.78125 34.625 
Q 24.75 34.625 20.71875 30.859375 
Q 16.703125 27.09375 16.703125 20.515625 
Q 16.703125 13.921875 20.71875 10.15625 
Q 24.75 6.390625 31.78125 6.390625 
Q 38.8125 6.390625 42.859375 10.171875 
Q 46.921875 13.96875 46.921875 20.515625 
Q 46.921875 27.09375 42.890625 30.859375 
Q 38.875 34.625 31.78125 34.625 
z
M 21.921875 38.8125 
Q 15.578125 40.375 12.03125 44.71875 
Q 8.5 49.078125 8.5 55.328125 
Q 8.5 64.0625 14.71875 69.140625 
Q 20.953125 74.21875 31.78125 74.21875 
Q 42.671875 74.21875 48.875 69.140625 
Q 55.078125 64.0625 55.078125 55.328125 
Q 55.078125 49.078125 51.53125 44.71875 
Q 48 40.375 41.703125 38.8125 
Q 48.828125 37.15625 52.796875 32.3125 
Q 56.78125 27.484375 56.78125 20.515625 
Q 56.78125 9.90625 50.3125 4.234375 
Q 43.84375 -1.421875 31.78125 -1.421875 
Q 19.734375 -1.421875 13.25 4.234375 
Q 6.78125 9.90625 6.78125 20.515625 
Q 6.78125 27.484375 10.78125 32.3125 
Q 14.796875 37.15625 21.921875 38.8125 
z
M 18.3125 54.390625 
Q 18.3125 48.734375 21.84375 45.5625 
Q 25.390625 42.390625 31.78125 42.390625 
Q 38.140625 42.390625 41.71875 45.5625 
Q 45.3125 48.734375 45.3125 54.390625 
Q 45.3125 60.0625 41.71875 63.234375 
Q 38.140625 66.40625 31.78125 66.40625 
Q 25.390625 66.40625 21.84375 63.234375 
Q 18.3125 60.0625 18.3125 54.390625 
z
" id="DejaVuSans-56"/>
      </defs>
      <g transform="translate(24.478125 194.603128)scale(0.1 -0.1)">
       <use xlink:href="#DejaVuSans-48"/>
       <use x="63.623047" xlink:href="#DejaVuSans-46"/>
       <use x="95.410156" xlink:href="#DejaVuSans-56"/>
       <use x="159.033203" xlink:href="#DejaVuSans-48"/>
      </g>
     </g>
    </g>
    <g id="ytick_4">
     <g id="line2d_11">
      <g>
       <use style="stroke:#000000;stroke-width:0.8;" x="53.74375" xlink:href="#mf5ff2056eb" y="151.33736"/>
      </g>
     </g>
     <g id="text_12">
      <!-- 0.85 -->
      <g transform="translate(24.478125 155.136579)scale(0.1 -0.1)">
       <use xlink:href="#DejaVuSans-48"/>
       <use x="63.623047" xlink:href="#DejaVuSans-46"/>
       <use x="95.410156" xlink:href="#DejaVuSans-56"/>
       <use x="159.033203" xlink:href="#DejaVuSans-53"/>
      </g>
     </g>
    </g>
    <g id="ytick_5">
     <g id="line2d_12">
      <g>
       <use style="stroke:#000000;stroke-width:0.8;" x="53.74375" xlink:href="#mf5ff2056eb" y="111.870812"/>
      </g>
     </g>
     <g id="text_13">
      <!-- 0.90 -->
      <defs>
       <path d="M 10.984375 1.515625 
L 10.984375 10.5 
Q 14.703125 8.734375 18.5 7.8125 
Q 22.3125 6.890625 25.984375 6.890625 
Q 35.75 6.890625 40.890625 13.453125 
Q 46.046875 20.015625 46.78125 33.40625 
Q 43.953125 29.203125 39.59375 26.953125 
Q 35.25 24.703125 29.984375 24.703125 
Q 19.046875 24.703125 12.671875 31.3125 
Q 6.296875 37.9375 6.296875 49.421875 
Q 6.296875 60.640625 12.9375 67.421875 
Q 19.578125 74.21875 30.609375 74.21875 
Q 43.265625 74.21875 49.921875 64.515625 
Q 56.59375 54.828125 56.59375 36.375 
Q 56.59375 19.140625 48.40625 8.859375 
Q 40.234375 -1.421875 26.421875 -1.421875 
Q 22.703125 -1.421875 18.890625 -0.6875 
Q 15.09375 0.046875 10.984375 1.515625 
z
M 30.609375 32.421875 
Q 37.25 32.421875 41.125 36.953125 
Q 45.015625 41.5 45.015625 49.421875 
Q 45.015625 57.28125 41.125 61.84375 
Q 37.25 66.40625 30.609375 66.40625 
Q 23.96875 66.40625 20.09375 61.84375 
Q 16.21875 57.28125 16.21875 49.421875 
Q 16.21875 41.5 20.09375 36.953125 
Q 23.96875 32.421875 30.609375 32.421875 
z
" id="DejaVuSans-57"/>
      </defs>
      <g transform="translate(24.478125 115.67003)scale(0.1 -0.1)">
       <use xlink:href="#DejaVuSans-48"/>
       <use x="63.623047" xlink:href="#DejaVuSans-46"/>
       <use x="95.410156" xlink:href="#DejaVuSans-57"/>
       <use x="159.033203" xlink:href="#DejaVuSans-48"/>
      </g>
     </g>
    </g>
    <g id="ytick_6">
     <g id="line2d_13">
      <g>
       <use style="stroke:#000000;stroke-width:0.8;" x="53.74375" xlink:href="#mf5ff2056eb" y="72.404263"/>
      </g>
     </g>
     <g id="text_14">
      <!-- 0.95 -->
      <g transform="translate(24.478125 76.203482)scale(0.1 -0.1)">
       <use xlink:href="#DejaVuSans-48"/>
       <use x="63.623047" xlink:href="#DejaVuSans-46"/>
       <use x="95.410156" xlink:href="#DejaVuSans-57"/>
       <use x="159.033203" xlink:href="#DejaVuSans-53"/>
      </g>
     </g>
    </g>
    <g id="ytick_7">
     <g id="line2d_14">
      <g>
       <use style="stroke:#000000;stroke-width:0.8;" x="53.74375" xlink:href="#mf5ff2056eb" y="32.937714"/>
      </g>
     </g>
     <g id="text_15">
      <!-- 1.00 -->
      <g transform="translate(24.478125 36.736933)scale(0.1 -0.1)">
       <use xlink:href="#DejaVuSans-49"/>
       <use x="63.623047" xlink:href="#DejaVuSans-46"/>
       <use x="95.410156" xlink:href="#DejaVuSans-48"/>
       <use x="159.033203" xlink:href="#DejaVuSans-48"/>
      </g>
     </g>
    </g>
    <g id="text_16">
     <!-- Rates -->
     <defs>
      <path d="M 44.390625 34.1875 
Q 47.5625 33.109375 50.5625 29.59375 
Q 53.5625 26.078125 56.59375 19.921875 
L 66.609375 0 
L 56 0 
L 46.6875 18.703125 
Q 43.0625 26.03125 39.671875 28.421875 
Q 36.28125 30.8125 30.421875 30.8125 
L 19.671875 30.8125 
L 19.671875 0 
L 9.8125 0 
L 9.8125 72.90625 
L 32.078125 72.90625 
Q 44.578125 72.90625 50.734375 67.671875 
Q 56.890625 62.453125 56.890625 51.90625 
Q 56.890625 45.015625 53.6875 40.46875 
Q 50.484375 35.9375 44.390625 34.1875 
z
M 19.671875 64.796875 
L 19.671875 38.921875 
L 32.078125 38.921875 
Q 39.203125 38.921875 42.84375 42.21875 
Q 46.484375 45.515625 46.484375 51.90625 
Q 46.484375 58.296875 42.84375 61.546875 
Q 39.203125 64.796875 32.078125 64.796875 
z
" id="DejaVuSans-82"/>
      <path d="M 18.3125 70.21875 
L 18.3125 54.6875 
L 36.8125 54.6875 
L 36.8125 47.703125 
L 18.3125 47.703125 
L 18.3125 18.015625 
Q 18.3125 11.328125 20.140625 9.421875 
Q 21.96875 7.515625 27.59375 7.515625 
L 36.8125 7.515625 
L 36.8125 0 
L 27.59375 0 
Q 17.1875 0 13.234375 3.875 
Q 9.28125 7.765625 9.28125 18.015625 
L 9.28125 47.703125 
L 2.6875 47.703125 
L 2.6875 54.6875 
L 9.28125 54.6875 
L 9.28125 70.21875 
z
" id="DejaVuSans-116"/>
     </defs>
     <g transform="translate(18.398438 164.848125)rotate(-90)scale(0.1 -0.1)">
      <use xlink:href="#DejaVuSans-82"/>
      <use x="67.232422" xlink:href="#DejaVuSans-97"/>
      <use x="128.511719" xlink:href="#DejaVuSans-116"/>
      <use x="167.720703" xlink:href="#DejaVuSans-101"/>
      <use x="229.244141" xlink:href="#DejaVuSans-115"/>
     </g>
    </g>
   </g>
   <g id="line2d_15">
    <path clip-path="url(#p0b13051aef)" d="M 53.74375 111.870812 
L 57.379666 223.413099 
L 58.841937 261.882212 
L 59.026368 264.292585 
L 59.052715 264.203902 
L 59.118583 262.403512 
L 59.184451 253.227032 
L 59.276666 187.424116 
L 59.487444 90.753854 
L 59.711396 71.149508 
L 59.909 67.756797 
L 59.935347 67.721691 
L 59.988041 67.846619 
L 60.119777 69.042828 
L 60.396423 74.095948 
L 60.989236 89.92761 
L 62.767673 145.688912 
L 65.31018 222.471971 
L 66.680235 258.298372 
L 66.851492 260.414834 
L 66.891013 260.187065 
L 66.956881 257.765858 
L 67.022749 246.514956 
L 67.141312 159.959555 
L 67.35209 88.684172 
L 67.576041 73.122814 
L 67.773645 70.747568 
L 67.839513 70.965026 
L 67.997596 72.673088 
L 68.326937 79.327359 
L 69.038312 99.248927 
L 74.17602 251.799006 
L 74.479013 256.518285 
L 74.492186 256.481444 
L 74.544881 255.654004 
L 74.623923 249.166539 
L 74.702964 215.919784 
L 74.966436 95.769666 
L 75.190388 78.337345 
L 75.387992 75.384943 
L 75.414339 75.378176 
L 75.440686 75.434446 
L 75.546075 76.180533 
L 75.7832 79.919607 
L 76.270624 91.908707 
L 77.482596 128.652575 
L 80.538874 221.085338 
L 81.711325 251.006269 
L 81.856235 252.533061 
L 81.895755 252.310757 
L 81.961624 250.223675 
L 82.040665 238.667082 
L 82.172401 160.423091 
L 82.396353 96.41012 
L 82.620304 82.886905 
L 82.804735 80.928608 
L 82.870603 81.136548 
L 83.028686 82.793911 
L 83.358026 89.289404 
L 84.056228 108.425207 
L 88.811901 246.675778 
L 88.969984 248.428814 
L 89.009505 248.256185 
L 89.075373 246.509043 
L 89.154415 237.641771 
L 89.259804 189.000731 
L 89.496929 106.2968 
L 89.734054 89.446801 
L 89.931658 86.938779 
L 89.984352 87.034043 
L 90.116088 88.125881 
L 90.392734 92.898507 
L 90.959199 107.329651 
L 92.56638 155.883036 
L 94.977151 226.333073 
L 95.728046 243.61029 
L 95.820262 244.217075 
L 95.859783 243.983253 
L 95.938824 241.452222 
L 96.031039 227.964438 
L 96.571157 96.410987 
L 96.781935 93.092017 
L 96.808282 93.072846 
L 96.847803 93.155625 
L 96.966366 94.05303 
L 97.216664 98.056201 
L 97.730435 110.52126 
L 99.047796 149.405373 
L 101.642997 224.834817 
L 102.314852 239.533322 
L 102.38072 239.925756 
L 102.433414 239.670523 
L 102.512456 237.295774 
L 102.604671 226.08358 
L 102.762754 163.241144 
L 102.999879 112.262648 
L 103.237004 100.52214 
L 103.395088 99.106086 
L 103.421435 99.12534 
L 103.51365 99.597355 
L 103.711254 102.129122 
L 104.119636 110.874524 
L 105.028615 136.214669 
L 108.282497 229.070601 
L 108.677705 235.58094 
L 108.690879 235.595494 
L 108.717226 235.52677 
L 108.783094 234.53132 
L 108.87531 229.003514 
L 108.980698 206.416292 
L 109.336386 117.156305 
L 109.573511 106.217557 
L 109.731594 104.889854 
L 109.757942 104.912529 
L 109.850157 105.382347 
L 110.047761 107.866439 
L 110.456143 116.449994 
L 111.351948 141.00925 
L 114.395052 226.264152 
L 114.737566 231.257183 
L 114.777087 231.156793 
L 114.856129 229.737201 
L 114.961518 222.182729 
L 115.093254 190.456524 
L 115.396247 124.116804 
L 115.633372 112.119313 
L 115.817802 110.334106 
L 115.830976 110.33846 
L 115.910018 110.627386 
L 116.081275 112.432732 
L 116.423788 118.878469 
L 117.148337 137.555994 
L 120.415392 225.787689 
L 120.560302 226.960246 
L 120.599823 226.837044 
L 120.678865 225.479293 
L 120.784253 218.978379 
L 120.91599 193.824502 
L 121.258503 127.553847 
L 121.495628 116.932846 
L 121.680059 115.390291 
L 121.745927 115.57045 
L 121.90401 117.000583 
L 122.220177 122.459204 
L 122.865684 138.281374 
L 126.106392 222.525661 
L 126.159086 222.7293 
L 126.211781 222.555775 
L 126.303996 220.752347 
L 126.422559 212.599196 
L 126.593816 179.175209 
L 126.896809 131.559072 
L 127.147107 121.331643 
L 127.318364 120.036194 
L 127.331538 120.044064 
L 127.410579 120.331118 
L 127.581836 122.047149 
L 127.92435 128.18013 
L 128.635725 145.753021 
L 131.415357 217.434522 
L 131.57344 218.602456 
L 131.599788 218.552258 
L 131.678829 217.682546 
L 131.797392 212.866317 
L 131.942301 195.316365 
L 132.403378 131.532014 
L 132.640503 124.914303 
L 132.772239 124.276624 
L 132.798586 124.310674 
L 132.903975 124.857031 
L 133.127926 127.600544 
L 133.562656 136.288467 
L 134.511155 160.693313 
L 136.447676 210.262035 
L 136.777016 214.551853 
L 136.803364 214.598598 
L 136.842885 214.516773 
L 136.921926 213.618658 
L 137.040489 209.218637 
L 137.198572 192.721577 
L 137.685996 134.578364 
L 137.923121 128.672119 
L 138.041683 128.121674 
L 138.081204 128.166194 
L 138.186593 128.71519 
L 138.410544 131.390099 
L 138.845273 139.846433 
L 139.793773 163.667154 
L 141.519516 206.491958 
L 141.848856 210.671552 
L 141.888377 210.740784 
L 141.927898 210.643984 
L 142.020113 209.536379 
L 142.15185 204.446078 
L 142.33628 185.568428 
L 142.771009 139.301086 
L 143.021308 132.389633 
L 143.166218 131.597027 
L 143.192565 131.614002 
L 143.28478 131.977197 
L 143.482384 133.973037 
L 143.864419 140.651946 
L 144.641662 158.978604 
L 146.538662 204.280981 
L 146.815308 207.031525 
L 146.841655 207.038711 
L 146.868002 206.976681 
L 146.960217 206.06925 
L 147.091953 201.959956 
L 147.276384 187.141706 
L 147.803328 140.105139 
L 148.053627 135.096748 
L 148.159016 134.728005 
L 148.198537 134.770413 
L 148.317099 135.367315 
L 148.554224 138.106262 
L 149.002127 146.448061 
L 149.990148 170.043868 
L 151.294335 199.793442 
L 151.623675 203.466515 
L 151.663196 203.518128 
L 151.702717 203.433145 
L 151.794932 202.555288 
L 151.939842 198.325164 
L 152.137446 184.082593 
L 152.664391 142.890694 
L 152.914689 137.983337 
L 153.033252 137.543297 
L 153.072773 137.582721 
L 153.191335 138.14498 
L 153.415286 140.566363 
L 153.836842 147.958594 
L 154.745821 168.713399 
L 156.023661 196.729187 
L 156.339828 200.095011 
L 156.392522 200.172908 
L 156.432043 200.088745 
L 156.524258 199.291572 
L 156.669168 195.644737 
L 156.866772 183.917401 
L 157.472758 143.927675 
L 157.723057 140.270016 
L 157.815272 140.072425 
L 157.854793 140.125803 
L 157.973356 140.69579 
L 158.210481 143.224052 
L 158.64521 150.697525 
L 159.606883 172.005163 
L 160.660772 193.754086 
L 160.976939 196.932767 
L 161.029633 197.01554 
L 161.082328 196.901999 
L 161.187717 195.927712 
L 161.3458 191.864307 
L 161.569751 179.1402 
L 162.109869 147.146875 
L 162.373342 142.725661 
L 162.491904 142.338862 
L 162.531425 142.370327 
L 162.636814 142.777677 
L 162.847591 144.69674 
L 163.2428 150.793244 
L 164.04639 167.431106 
L 165.232015 191.071983 
L 165.548182 193.981302 
L 165.600876 194.044155 
L 165.640397 193.975688 
L 165.745786 193.202579 
L 165.903869 189.912257 
L 166.12782 179.622011 
L 166.760154 147.806026 
L 167.010452 144.594812 
L 167.115841 144.373571 
L 167.155362 144.421823 
L 167.273925 144.925844 
L 167.51105 147.185593 
L 167.932605 153.745002 
L 168.881105 172.910424 
L 169.750563 188.681583 
L 170.053556 191.205408 
L 170.106251 191.262619 
L 170.145772 191.201683 
L 170.251161 190.52062 
L 170.409244 187.695716 
L 170.646369 178.428996 
L 171.331397 148.883447 
L 171.581695 146.316317 
L 171.660737 146.194987 
L 171.713431 146.258269 
L 171.845167 146.844183 
L 172.095466 149.247371 
L 172.543369 156.116582 
L 174.479889 188.538651 
L 174.558931 188.668187 
L 174.598452 188.615775 
L 174.703841 188.020787 
L 174.861924 185.594743 
L 175.099049 177.810098 
L 175.849945 149.908618 
L 176.100244 147.883092 
L 176.166112 147.831859 
L 176.205632 147.879408 
L 176.337369 148.40714 
L 176.574494 150.487082 
L 177.009223 156.672179 
L 178.893049 186.147983 
L 178.972091 186.25597 
L 179.011611 186.203969 
L 179.117 185.661887 
L 179.288257 183.270354 
L 179.538556 175.908946 
L 180.289452 151.333909 
L 180.53975 149.368876 
L 180.618792 149.297339 
L 180.658313 149.342889 
L 180.790049 149.836448 
L 181.027174 151.784475 
L 181.448729 157.411089 
L 183.253514 183.883526 
L 183.345729 184.023488 
L 183.38525 183.978807 
L 183.490639 183.504469 
L 183.661896 181.437162 
L 183.912195 175.180281 
L 184.728958 152.137719 
L 184.966083 150.651605 
L 185.045125 150.619237 
L 185.071472 150.652035 
L 185.203208 151.105966 
L 185.440333 152.91623 
L 185.861889 158.193629 
L 187.574458 181.757148 
L 187.693021 181.962442 
L 187.732542 181.919331 
L 187.83793 181.489613 
L 188.009187 179.669283 
L 188.27266 173.919782 
L 189.115771 153.117787 
L 189.352896 151.819485 
L 189.431937 151.801129 
L 189.458285 151.834614 
L 189.590021 152.267714 
L 189.827146 153.967547 
L 190.248701 158.923515 
L 191.869055 179.785162 
L 192.013965 180.067336 
L 192.040312 180.047725 
L 192.145701 179.719386 
L 192.316958 178.226158 
L 192.567257 173.730701 
L 193.542104 153.504184 
L 193.752882 152.844759 
L 193.845097 152.94662 
L 194.00318 153.575079 
L 194.279826 155.751515 
L 194.780423 161.815093 
L 196.005569 177.174697 
L 196.269041 178.31063 
L 196.348083 178.304514 
L 196.37443 178.260194 
L 196.506166 177.690539 
L 196.70377 175.641709 
L 197.019937 169.531908 
L 197.718138 155.684695 
L 197.994784 153.907102 
L 198.113347 153.801587 
L 198.139694 153.824563 
L 198.27143 154.166266 
L 198.508555 155.58455 
L 198.916937 159.685757 
L 200.445076 176.474942 
L 200.603159 176.739963 
L 200.629506 176.722513 
L 200.734895 176.455847 
L 200.906152 175.291052 
L 201.169624 171.669668 
L 202.210339 155.09207 
L 202.421117 154.651235 
L 202.526506 154.802771 
L 202.710937 155.562735 
L 203.027103 157.988297 
L 203.619916 164.625825 
L 204.489374 173.863661 
L 204.792367 175.233562 
L 204.897756 175.279288 
L 204.924103 175.249417 
L 205.055839 174.831187 
L 205.253443 173.306359 
L 205.56961 168.768024 
L 206.3732 156.61987 
L 206.636673 155.464195 
L 206.742061 155.428652 
L 206.768409 155.453894 
L 206.913318 155.814484 
L 207.163617 157.186592 
L 207.585172 160.957429 
L 208.88936 173.429033 
L 209.126485 173.974952 
L 209.231874 173.853301 
L 209.389957 173.187688 
L 209.627082 171.057848 
L 210.061811 164.594716 
L 210.601929 157.619252 
L 210.891749 156.202147 
L 211.023485 156.113472 
L 211.049832 156.133328 
L 211.194742 156.446235 
L 211.44504 157.681738 
L 211.866596 161.13304 
L 213.144436 172.291947 
L 213.381561 172.779191 
L 213.48695 172.668331 
L 213.645033 172.075374 
L 213.895332 170.065284 
L 214.343235 164.166629 
L 214.883353 158.053335 
L 215.173172 156.807071 
L 215.318082 156.74352 
L 215.331255 156.754614 
L 215.476165 157.046446 
L 215.726464 158.185528 
L 216.148019 161.364914 
L 217.373165 171.188958 
L 217.623464 171.696416 
L 217.742026 171.582708 
L 217.913283 170.968278 
L 218.176755 168.984635 
L 218.7037 162.736521 
L 219.17795 158.31795 
L 219.454595 157.340435 
L 219.599505 157.30943 
L 219.612679 157.321705 
L 219.770762 157.648663 
L 220.034234 158.828014 
L 220.482137 162.053844 
L 221.562373 170.062123 
L 221.839019 170.711231 
L 221.957581 170.658698 
L 222.115665 170.241563 
L 222.35279 168.861945 
L 222.761172 164.861798 
L 223.406679 158.892542 
L 223.696498 157.864289 
L 223.854581 157.804653 
L 223.867755 157.814551 
L 224.025838 158.097483 
L 224.28931 159.153522 
L 224.737213 162.085104 
L 225.791102 169.210422 
L 226.067748 169.825189 
L 226.199484 169.778028 
L 226.357567 169.39914 
L 226.607866 168.080048 
L 227.029421 164.383707 
L 227.661755 159.23382 
L 227.951574 158.310946 
L 228.122831 158.263566 
L 228.280914 158.517222 
L 228.544387 159.473722 
L 228.979116 162.05407 
L 230.033005 168.502184 
L 230.30965 169.03478 
L 230.45456 168.964416 
L 230.625817 168.541987 
L 230.889289 167.194472 
L 231.389886 163.148106 
L 231.930005 159.461973 
L 232.219824 158.693213 
L 232.391081 158.681436 
L 232.562338 158.967722 
L 232.838984 159.95559 
L 233.313234 162.633058 
L 234.209039 167.659521 
L 234.512032 168.305699 
L 234.670115 168.277606 
L 234.841372 167.934944 
L 235.104845 166.789616 
L 235.579095 163.45079 
L 236.171907 159.764409 
L 236.461727 159.06121 
L 236.632983 159.041257 
L 236.817414 159.320685 
L 237.09406 160.229915 
L 237.581483 162.75043 
L 238.437768 167.079677 
L 238.740761 167.665333 
L 238.898844 167.643216 
L 239.070101 167.341893 
L 239.333574 166.333179 
L 239.79465 163.476543 
L 240.41381 160.023687 
L 240.716803 159.378765 
L 240.88806 159.376842 
L 241.07249 159.644189 
L 241.36231 160.536217 
L 241.87608 162.994793 
L 242.653323 166.526918 
L 242.956316 167.083916 
L 243.127573 167.07291 
L 243.312004 166.774524 
L 243.58865 165.795627 
L 244.102421 162.913969 
L 244.668886 160.208315 
L 244.958705 159.673434 
L 245.143136 159.681334 
L 245.34074 159.966658 
L 245.643733 160.863163 
L 246.223372 163.449874 
L 246.882052 166.072804 
L 247.185045 166.571776 
L 247.369476 166.551032 
L 247.56708 166.235608 
L 247.8569 165.262632 
L 248.489233 162.06113 
L 248.963483 160.279694 
L 249.240129 159.919899 
L 249.424559 159.980399 
L 249.648511 160.34619 
L 250.004198 161.443902 
L 251.334733 166.052259 
L 251.54551 166.123347 
L 251.729941 165.935098 
L 251.993413 165.273458 
L 252.441316 163.389355 
L 253.139517 160.620017 
L 253.44251 160.175088 
L 253.640114 160.198537 
L 253.864066 160.501298 
L 254.20658 161.418589 
L 255.602982 165.682023 
L 255.81376 165.69282 
L 256.024538 165.430866 
L 256.327531 164.61626 
L 257.671239 160.394747 
L 257.882017 160.416437 
L 258.119142 160.719091 
L 258.47483 161.609063 
L 259.779017 165.280275 
L 260.016142 165.338741 
L 260.22692 165.133019 
L 260.516739 164.481161 
L 261.070031 162.538183 
L 261.623322 160.915853 
L 261.926315 160.581465 
L 262.137093 160.622343 
L 262.387392 160.938613 
L 262.769427 161.851179 
L 263.941878 164.900367 
L 264.20535 165.021201 
L 264.416128 164.875762 
L 264.692774 164.373038 
L 265.167024 162.950652 
L 265.838878 161.086707 
L 266.155044 160.759197 
L 266.378996 160.799872 
L 266.642468 161.113853 
L 267.037676 161.990602 
L 268.131086 164.582038 
L 268.407732 164.730501 
L 268.631683 164.609374 
L 268.921503 164.145624 
L 269.408926 162.840794 
L 270.08078 161.196076 
L 270.396947 160.915437 
L 270.634072 160.968873 
L 270.910718 161.291877 
L 271.345447 162.206618 
L 272.30712 164.282512 
L 272.610114 164.468815 
L 272.847238 164.370056 
L 273.137058 163.967638 
L 273.624482 162.815672 
L 274.309509 161.313431 
L 274.63885 161.056697 
L 274.889148 161.12188 
L 275.192141 161.471476 
L 275.679565 162.44834 
L 276.483155 164.013582 
L 276.812495 164.233626 
L 277.062794 164.155309 
L 277.365787 163.784561 
L 277.866384 162.727365 
L 278.551412 161.402415 
L 278.880752 161.184431 
L 279.144224 161.260109 
L 279.460391 161.611879 
L 280.000509 162.619416 
L 280.711884 163.832109 
L 281.054398 164.027341 
L 281.31787 163.935515 
L 281.634037 163.561374 
L 282.213675 162.433481 
L 282.806488 161.47085 
L 283.135828 161.29915 
L 283.412474 161.394083 
L 283.754988 161.773597 
L 284.440016 162.966565 
L 284.993307 163.716197 
L 285.322648 163.841975 
L 285.612467 163.708276 
L 285.981328 163.2444 
L 287.232821 161.433013 
L 287.535814 161.434347 
L 287.865154 161.685471 
L 288.365752 162.403728 
L 289.182515 163.536615 
L 289.538203 163.677625 
L 289.841196 163.55585 
L 290.223231 163.121981 
L 291.448376 161.530005 
L 291.764543 161.525741 
L 292.107057 161.763211 
L 292.634001 162.451881 
L 293.411244 163.406722 
L 293.780105 163.530162 
L 294.096272 163.401762 
L 294.504654 162.962776 
L 295.624411 161.633133 
L 295.966925 161.600823 
L 296.322612 161.808845 
L 296.86273 162.437558 
L 297.639973 163.290902 
L 298.022008 163.3984 
L 298.364522 163.255891 
L 298.812425 162.793626 
L 299.787272 161.735346 
L 300.156133 161.668403 
L 300.524994 161.841693 
L 301.051938 162.378433 
L 301.895049 163.201973 
L 302.277084 163.279346 
L 302.645945 163.117247 
L 303.159716 162.604666 
L 303.97648 161.816281 
L 304.371688 161.735241 
L 304.753723 161.891982 
L 305.307015 162.40054 
L 306.123778 163.108425 
L 306.53216 163.172456 
L 306.927369 162.994183 
L 307.533355 162.421224 
L 308.218382 161.863437 
L 308.626764 161.800517 
L 309.035146 161.970887 
L 309.693827 162.542682 
L 310.378855 163.035414 
L 310.80041 163.073984 
L 311.221966 162.876368 
L 312.84232 161.854381 
L 313.277049 162.01638 
L 314.001597 162.585862 
L 314.647104 162.972317 
L 315.081833 162.981943 
L 315.54291 162.754507 
L 316.939313 161.901195 
L 317.387215 161.991491 
L 317.993201 162.380766 
L 318.849486 162.896611 
L 319.310562 162.911231 
L 319.797986 162.690823 
L 321.154868 161.947237 
L 321.629118 162.032728 
L 322.287798 162.4207 
L 323.104562 162.842599 
L 323.591986 162.83654 
L 324.132104 162.588186 
L 325.291382 161.996813 
L 325.778805 162.038483 
L 326.397965 162.339846 
L 327.359638 162.793204 
L 327.860236 162.772397 
L 328.466222 162.500075 
L 329.48059 162.037954 
L 330.007534 162.06994 
L 330.679388 162.368173 
L 331.601541 162.746201 
L 332.141659 162.711702 
L 332.826687 162.412447 
L 333.709319 162.069306 
L 334.26261 162.104828 
L 335.000332 162.409993 
L 335.856617 162.705557 
L 336.423082 162.657295 
L 337.239846 162.317775 
L 338.003916 162.090755 
L 338.596728 162.156923 
L 340.625464 162.62859 
L 341.468575 162.319101 
L 342.272165 162.114547 
L 342.904499 162.197953 
L 344.735631 162.617939 
L 345.4997 162.393477 
L 346.487721 162.138896 
L 347.146401 162.216633 
L 348.964359 162.587733 
L 349.794297 162.365042 
L 350.755971 162.158831 
L 351.467345 162.252922 
L 353.100873 162.570063 
L 353.917637 162.393155 
L 355.02422 162.177616 
L 355.78829 162.284964 
L 357.276908 162.548521 
L 358.120019 162.393996 
L 359.29247 162.195212 
L 360.122408 162.31576 
L 361.479289 162.527269 
L 362.375095 162.381654 
L 363.56072 162.211552 
L 364.469699 162.344618 
L 365.708018 162.507317 
L 366.669692 162.363068 
L 367.842143 162.227118 
L 368.869685 162.378429 
L 370.002615 162.486913 
L 371.122372 162.319254 
L 372.176261 162.244608 
L 373.533143 162.441661 
L 374.50799 162.450166 
L 376.87924 162.303345 
L 378.684025 162.443275 
L 381.266052 162.328507 
L 382.860059 162.436239 
L 385.666038 162.351664 
L 387.128309 162.423673 
L 389.86842 162.348112 
L 391.422906 162.410775 
L 394.018107 162.340024 
L 395.730676 162.398343 
L 398.194142 162.336067 
L 400.038447 162.387267 
L 402.396523 162.335133 
L 404.359391 162.376632 
L 406.612079 162.33547 
L 408.680336 162.367406 
L 410.867155 162.338265 
L 413.00128 162.359526 
L 415.148578 162.342122 
L 417.30905 162.353639 
L 419.469522 162.347271 
L 421.643168 162.347574 
L 423.829987 162.353174 
L 426.02998 162.340548 
L 428.256321 162.360074 
L 430.548529 162.331361 
L 433.064688 162.371202 
L 442.997591 162.34078 
L 447.713743 162.332762 
L 450.269424 162.362204 
L 450.269424 162.362204 
" style="fill:none;stroke:#1f77b4;stroke-linecap:square;stroke-width:1.5;"/>
   </g>
   <g id="line2d_16">
    <path clip-path="url(#p0b13051aef)" d="M 53.74375 111.870812 
L 54.968896 143.235927 
L 55.759312 158.503404 
L 56.286257 164.988725 
L 56.615597 166.861036 
L 56.760507 167.012979 
L 56.786854 166.990919 
L 56.905417 166.688664 
L 57.089847 165.502463 
L 57.353319 162.068777 
L 57.669486 154.685989 
L 58.038347 140.391445 
L 58.446729 115.279589 
L 58.907805 71.784378 
L 59.263493 37.26929 
L 59.303014 37.830167 
L 59.632354 47.92897 
L 61.700611 111.203937 
L 62.886236 141.225928 
L 63.650305 155.691814 
L 64.164076 161.788298 
L 64.480242 163.453178 
L 64.598805 163.565977 
L 64.638326 163.534195 
L 64.770062 163.159495 
L 64.967666 161.748941 
L 65.231138 158.037147 
L 65.560479 149.827683 
L 65.942513 134.013977 
L 66.364069 106.361279 
L 66.851492 57.870384 
L 67.088617 37.44373 
L 67.128138 37.835823 
L 67.378437 45.182322 
L 69.57843 111.958857 
L 70.685013 139.162585 
L 71.409562 152.165151 
L 71.883812 157.284836 
L 72.173631 158.556452 
L 72.27902 158.590946 
L 72.305367 158.560177 
L 72.437103 158.15449 
L 72.634707 156.687899 
L 72.89818 152.883314 
L 73.22752 144.531567 
L 73.609555 128.534957 
L 74.03111 100.74546 
L 74.544881 50.115599 
L 74.729311 37.682661 
L 74.755659 37.951104 
L 74.953263 43.400294 
L 77.35086 114.893019 
L 78.338881 137.698482 
L 78.984388 148.116894 
L 79.405943 151.9122 
L 79.656242 152.642481 
L 79.748457 152.569595 
L 79.893367 152.037485 
L 80.104144 150.248973 
L 80.38079 145.778392 
L 80.723304 136.177918 
L 81.118512 118.039901 
L 81.553242 86.951274 
L 82.119707 37.962321 
L 82.198749 39.217242 
L 82.712519 54.942148 
L 84.438262 105.85977 
L 85.45263 129.901218 
L 86.111311 140.971756 
L 86.54604 145.167002 
L 86.809512 146.066484 
L 86.914901 146.007915 
L 87.059811 145.486932 
L 87.270589 143.713333 
L 87.547234 139.263681 
L 87.889748 129.705464 
L 88.284957 111.69016 
L 88.732859 79.912866 
L 89.24663 38.30471 
L 89.312498 39.052291 
L 89.628665 48.133742 
L 91.552012 104.294805 
L 92.487338 125.551714 
L 93.106498 135.233764 
L 93.501706 138.596877 
L 93.738831 139.21184 
L 93.831047 139.11513 
L 93.975956 138.538722 
L 94.199908 136.510763 
L 94.489727 131.496801 
L 94.832241 121.348806 
L 95.227449 102.559733 
L 95.688526 69.033246 
L 96.110081 38.690345 
L 96.136428 38.82128 
L 96.268164 41.641098 
L 97.506484 78.630868 
L 98.705282 109.886069 
L 99.469352 124.640416 
L 99.969949 130.603422 
L 100.272942 132.184833 
L 100.391504 132.290035 
L 100.417852 132.269943 
L 100.536414 131.971592 
L 100.720845 130.777276 
L 100.984317 127.313978 
L 101.313657 119.521016 
L 101.695692 104.544999 
L 102.130421 78.029335 
L 102.696886 39.133246 
L 102.749581 39.519914 
L 102.947185 44.296048 
L 105.278914 107.534268 
L 105.963942 119.682716 
L 106.411844 124.361726 
L 106.68849 125.479704 
L 106.780706 125.490628 
L 106.807053 125.457417 
L 106.938789 125.034877 
L 107.136393 123.531536 
L 107.413039 119.417532 
L 107.755553 110.444729 
L 108.150761 93.572699 
L 108.625011 62.727613 
L 109.033393 39.624151 
L 109.099261 40.308217 
L 109.362733 46.921365 
L 111.299254 98.929133 
L 112.023802 112.363298 
L 112.498052 117.635317 
L 112.787872 118.942774 
L 112.893261 118.980747 
L 112.919608 118.950184 
L 113.051344 118.542332 
L 113.248948 117.067239 
L 113.525594 113.013355 
L 113.868108 104.177738 
L 114.263316 87.655281 
L 114.763913 56.279422 
L 115.093254 40.17124 
L 115.106427 40.155114 
L 115.132775 40.265563 
L 115.251337 42.205353 
L 115.778281 56.524675 
L 117.12199 91.522109 
L 117.859712 105.561979 
L 118.347135 111.250527 
L 118.650129 112.763191 
L 118.755517 112.845852 
L 118.795038 112.811714 
L 118.926774 112.425126 
L 119.124379 110.991825 
L 119.401024 107.026245 
L 119.743538 98.383325 
L 120.15192 81.664375 
L 120.942337 40.737757 
L 121.047726 41.693824 
L 121.337545 48.523097 
L 123.076462 92.022214 
L 123.721969 102.60014 
L 124.143524 106.4132 
L 124.380649 107.123929 
L 124.486038 107.048267 
L 124.630948 106.507099 
L 124.841725 104.723164 
L 125.131545 100.068873 
L 125.487232 90.273833 
L 125.921961 71.303109 
L 126.580642 41.357206 
L 126.593816 41.383977 
L 126.672857 42.129109 
L 126.923156 47.461976 
L 128.806982 91.73401 
L 129.360274 99.262547 
L 129.715961 101.61147 
L 129.887218 101.862775 
L 129.900392 101.855537 
L 130.005781 101.652345 
L 130.177038 100.736745 
L 130.427336 97.947617 
L 130.743503 91.595454 
L 131.138711 78.528457 
L 131.705176 50.859661 
L 131.994996 42.043606 
L 132.021343 42.019175 
L 132.04769 42.111006 
L 132.166253 43.548764 
L 132.535114 51.88371 
L 133.94469 84.367283 
L 134.550676 93.46839 
L 134.945885 96.587941 
L 135.169836 97.067778 
L 135.275225 96.918282 
L 135.433308 96.196545 
L 135.670433 93.878879 
L 135.973426 88.471533 
L 136.355461 77.205515 
L 136.895579 53.501765 
L 137.224919 42.910285 
L 137.277614 42.702452 
L 137.330308 42.899887 
L 137.475218 44.813726 
L 137.936294 55.121703 
L 139.121919 81.023416 
L 139.714732 89.521347 
L 140.096766 92.330545 
L 140.307544 92.725725 
L 140.412933 92.568025 
L 140.58419 91.75562 
L 140.821315 89.379701 
L 141.137482 83.66509 
L 141.53269 71.989714 
L 142.388975 43.416715 
L 142.428495 43.521561 
L 142.547058 44.706404 
L 142.876398 51.082316 
L 144.325495 80.761692 
L 144.839266 86.888967 
L 145.168606 88.679018 
L 145.313516 88.816223 
L 145.339863 88.794014 
L 145.471599 88.452319 
L 145.669204 87.17026 
L 145.945849 83.658385 
L 146.301537 75.870622 
L 146.775787 59.867247 
L 147.276384 44.560237 
L 147.368599 44.151385 
L 147.40812 44.257052 
L 147.539856 45.50257 
L 147.869196 51.493245 
L 149.278773 78.606306 
L 149.766196 83.84821 
L 150.069189 85.24281 
L 150.187752 85.32019 
L 150.214099 85.298408 
L 150.345835 84.965806 
L 150.543439 83.723277 
L 150.820085 80.337878 
L 151.175773 72.905244 
L 151.689543 56.666109 
L 152.124273 45.332457 
L 152.216488 44.89408 
L 152.269182 44.996498 
L 152.400918 46.108749 
L 152.717085 51.355954 
L 154.153009 77.038802 
L 154.600911 81.197605 
L 154.877557 82.181227 
L 154.982946 82.180877 
L 154.99612 82.165195 
L 155.127856 81.808789 
L 155.338634 80.439291 
L 155.628453 76.806449 
L 156.010488 68.731416 
L 156.972161 45.644313 
L 156.998508 45.659736 
L 157.090724 46.087358 
L 157.301502 48.590379 
L 157.894314 59.349548 
L 158.750599 73.424665 
L 159.224849 78.114429 
L 159.527842 79.370183 
L 159.646404 79.420592 
L 159.672751 79.395315 
L 159.804487 79.060676 
L 160.015265 77.762354 
L 160.305085 74.323799 
L 160.687119 66.762077 
L 161.635619 46.396617 
L 161.688314 46.442299 
L 161.701487 46.480425 
L 161.833223 47.35721 
L 162.123043 51.280196 
L 163.651182 74.358511 
L 164.020043 76.640878 
L 164.230821 76.966144 
L 164.349383 76.794997 
L 164.533814 75.980953 
L 164.797286 73.580618 
L 165.152973 67.931568 
L 165.732612 54.292479 
L 166.114647 47.630649 
L 166.246383 47.131717 
L 166.285904 47.177096 
L 166.404466 47.769705 
L 166.654765 50.573153 
L 167.524223 64.322036 
L 168.143383 71.887619 
L 168.525418 74.35828 
L 168.749369 74.784091 
L 168.867931 74.662137 
L 169.039188 74.028554 
L 169.289487 72.070801 
L 169.632001 67.340345 
L 170.172119 56.095022 
L 170.620022 48.496001 
L 170.778105 47.858154 
L 170.804452 47.873163 
L 170.896667 48.167742 
L 171.094272 49.801499 
L 171.542174 55.96539 
L 172.503848 68.952284 
L 172.938577 72.161151 
L 173.202049 72.840326 
L 173.320612 72.785184 
L 173.478695 72.335525 
L 173.71582 70.810845 
L 174.04516 66.952449 
L 174.532584 58.136147 
L 175.085876 49.224141 
L 175.270306 48.56747 
L 175.28348 48.576231 
L 175.375695 48.824199 
L 175.560126 50.130873 
L 175.955334 54.942492 
L 177.022396 68.175356 
L 177.417605 70.652999 
L 177.65473 71.133017 
L 177.773292 71.051527 
L 177.931375 70.586719 
L 178.1685 69.092323 
L 178.497841 65.419478 
L 179.037959 56.387362 
L 179.512209 49.886911 
L 179.696639 49.249382 
L 179.709813 49.252 
L 179.802028 49.435386 
L 179.973285 50.433376 
L 180.315799 54.029164 
L 181.527771 67.631589 
L 181.883459 69.371012 
L 182.094236 69.613864 
L 182.225972 69.434583 
L 182.423577 68.660822 
L 182.700222 66.533809 
L 183.095431 61.542905 
L 183.951715 50.244655 
L 184.109799 49.908103 
L 184.136146 49.928434 
L 184.254708 50.264258 
L 184.47866 51.782325 
L 184.95291 56.9396 
L 185.809194 65.811134 
L 186.204403 67.91795 
L 186.441528 68.276364 
L 186.573264 68.144869 
L 186.757694 67.541658 
L 187.03434 65.701704 
L 187.429549 61.286137 
L 188.31218 50.861324 
L 188.470264 50.53212 
L 188.496611 50.543768 
L 188.602 50.766161 
L 188.799604 51.829825 
L 189.194812 55.494164 
L 190.222354 65.262536 
L 190.591215 66.873259 
L 190.801993 67.08479 
L 190.933729 66.927479 
L 191.131333 66.255632 
L 191.421152 64.322437 
L 191.855882 59.616788 
L 192.593604 51.689016 
L 192.817555 51.126186 
L 192.922944 51.268593 
L 193.107375 52.052329 
L 193.449888 54.732499 
L 194.661861 64.975645 
L 194.978027 65.956839 
L 195.149284 66.02023 
L 195.294194 65.797053 
L 195.518145 64.939389 
L 195.834312 62.701431 
L 196.37443 56.933402 
L 196.888201 52.309064 
L 197.125326 51.685845 
L 197.230715 51.7802 
L 197.401972 52.363349 
L 197.704965 54.35323 
L 199.101367 64.641487 
L 199.36484 65.101733 
L 199.509749 65.034922 
L 199.69418 64.605547 
L 199.957652 63.324608 
L 200.35286 60.114408 
L 201.248666 52.535613 
L 201.459444 52.214222 
L 201.578006 52.378748 
L 201.77561 53.127063 
L 202.144471 55.596067 
L 203.237881 63.322774 
L 203.567221 64.215494 
L 203.751652 64.25824 
L 203.909735 64.015089 
L 204.14686 63.161755 
L 204.489374 60.975099 
L 205.648652 52.750817 
L 205.780388 52.720615 
L 205.793561 52.732343 
L 205.951645 53.066894 
L 206.215117 54.285725 
L 206.781582 58.277528 
L 207.453436 62.426184 
L 207.79595 63.431747 
L 208.006728 63.540798 
L 208.164811 63.34706 
L 208.401936 62.609672 
L 208.74445 60.676045 
L 209.930075 53.197367 
L 210.074985 53.185836 
L 210.233068 53.485447 
L 210.49654 54.575288 
L 211.049832 58.091106 
L 211.721686 61.881648 
L 212.0642 62.798467 
L 212.274978 62.892923 
L 212.446235 62.685903 
L 212.68336 61.979548 
L 213.039047 60.103172 
L 214.14563 53.682652 
L 214.330061 53.593414 
L 214.488144 53.832964 
L 214.738443 54.710797 
L 215.225867 57.432747 
L 215.989936 61.431255 
L 216.33245 62.246252 
L 216.543228 62.314754 
L 216.727658 62.085178 
L 216.977957 61.347713 
L 217.359991 59.414455 
L 218.334839 54.188937 
L 218.55879 53.967632 
L 218.7037 54.104949 
L 218.927651 54.697872 
L 219.322859 56.518072 
L 220.31088 61.210366 
L 220.627047 61.783119 
L 220.824651 61.789391 
L 221.022255 61.512254 
L 221.298901 60.666914 
L 221.73363 58.499953 
L 222.497699 54.735666 
L 222.761172 54.328059 
L 222.919255 54.394177 
L 223.130033 54.814793 
L 223.472547 56.107504 
L 224.671345 61.07005 
L 224.947991 61.366833 
L 225.132422 61.289085 
L 225.356373 60.894558 
L 225.685713 59.77142 
L 226.989901 54.662604 
L 227.161158 54.705309 
L 227.371935 55.066156 
L 227.714449 56.207573 
L 228.939595 60.73963 
L 229.203067 60.967392 
L 229.400671 60.868377 
L 229.637796 60.444842 
L 229.993484 59.264943 
L 231.139588 55.032807 
L 231.350366 54.962358 
L 231.534796 55.158776 
L 231.811442 55.833892 
L 232.364734 57.929688 
L 233.023414 60.118694 
L 233.352754 60.581924 
L 233.563532 60.580771 
L 233.787484 60.315973 
L 234.10365 59.517181 
L 234.683289 57.269493 
L 235.223407 55.530063 
L 235.500053 55.225614 
L 235.684483 55.294722 
L 235.921608 55.676912 
L 236.303643 56.7973 
L 237.331185 59.979761 
L 237.634178 60.285983 
L 237.844956 60.238066 
L 238.082081 59.926139 
L 238.424594 59.05197 
L 239.64974 55.513401 
L 239.860518 55.492042 
L 240.084469 55.735039 
L 240.41381 56.490595 
L 241.731171 59.927578 
L 241.994643 60.002971 
L 242.218594 59.825158 
L 242.521587 59.255633 
L 243.035358 57.711872 
L 243.680865 55.967377 
L 243.970684 55.699306 
L 244.181462 55.768282 
L 244.444934 56.140139 
L 244.879664 57.229873 
L 245.762295 59.452534 
L 246.091636 59.752956 
L 246.328761 59.705328 
L 246.592233 59.39351 
L 246.974268 58.539584 
L 248.028156 56.005362 
L 248.291629 55.904176 
L 248.528754 56.072801 
L 248.858094 56.645832 
L 250.26767 59.511744 
L 250.531142 59.504274 
L 250.794615 59.249491 
L 251.176649 58.510525 
L 252.283233 56.160712 
L 252.546705 56.092923 
L 252.797003 56.276375 
L 253.152691 56.871729 
L 254.417358 59.273185 
L 254.707177 59.329451 
L 254.970649 59.144772 
L 255.326337 58.583082 
L 256.604177 56.271467 
L 256.867649 56.292713 
L 257.157468 56.578173 
L 257.618545 57.418961 
L 258.47483 58.960273 
L 258.817343 59.163079 
L 259.093989 59.0786 
L 259.423329 58.703993 
L 259.963447 57.672124 
L 260.608954 56.575737 
L 260.938295 56.401256 
L 261.21494 56.512824 
L 261.557454 56.930672 
L 262.993378 58.997542 
L 263.283197 58.953333 
L 263.612538 58.646953 
L 264.126308 57.794515 
L 264.837683 56.693929 
L 265.167024 56.536875 
L 265.456843 56.644074 
L 265.825704 57.06201 
L 267.169412 58.8444 
L 267.485579 58.830555 
L 267.814919 58.573674 
L 268.315517 57.846895 
L 269.079586 56.789302 
L 269.4221 56.65919 
L 269.725093 56.781041 
L 270.120301 57.213103 
L 271.332273 58.698126 
L 271.674787 58.722638 
L 272.017301 58.50438 
L 272.517898 57.867277 
L 273.321488 56.876335 
L 273.677176 56.770579 
L 274.006516 56.914165 
L 274.454419 57.395397 
L 275.468787 58.548356 
L 275.837648 58.626686 
L 276.193336 58.460172 
L 276.667586 57.94997 
L 277.589738 56.941114 
L 277.945426 56.873681 
L 278.301113 57.044266 
L 278.814884 57.583447 
L 279.657995 58.437559 
L 280.053203 58.529567 
L 280.422064 58.378156 
L 280.922662 57.890862 
L 281.805294 57.028109 
L 282.187328 56.963532 
L 282.569363 57.141738 
L 283.149002 57.710376 
L 283.886724 58.35969 
L 284.295106 58.440085 
L 284.690314 58.27946 
L 285.243606 57.772297 
L 286.020849 57.105644 
L 286.416057 57.042236 
L 286.811266 57.209949 
L 287.443599 57.773654 
L 288.1418 58.301662 
L 288.563356 58.356404 
L 288.984911 58.175033 
L 289.669939 57.57866 
L 290.302272 57.149473 
L 290.710654 57.124293 
L 291.145383 57.331161 
L 292.699869 58.295156 
L 293.134599 58.168788 
L 293.753758 57.711387 
L 294.517828 57.212683 
L 294.952557 57.18909 
L 295.426807 57.404979 
L 296.875904 58.23256 
L 297.323807 58.136822 
L 297.942966 57.739313 
L 298.75973 57.261655 
L 299.220807 57.25279 
L 299.734577 57.485601 
L 301.025591 58.171764 
L 301.499841 58.110169 
L 302.105827 57.778919 
L 303.014806 57.303178 
L 303.50223 57.313631 
L 304.068695 57.570986 
L 305.188452 58.114771 
L 305.689049 58.078788 
L 306.308209 57.786062 
L 307.269883 57.341661 
L 307.783653 57.36907 
L 308.42916 57.658373 
L 309.390834 58.068112 
L 309.930952 58.035569 
L 310.602806 57.741934 
L 311.511785 57.379039 
L 312.051903 57.415697 
L 312.776452 57.723645 
L 313.64591 58.033547 
L 314.212375 57.987098 
L 315.002792 57.656487 
L 315.793208 57.408816 
L 316.372847 57.471679 
L 317.400389 57.885968 
L 318.072243 58.007419 
L 318.691403 57.881725 
L 320.259062 57.440273 
L 320.917743 57.598407 
L 322.248278 57.976153 
L 322.893784 57.871251 
L 324.540486 57.473436 
L 325.265034 57.651187 
L 326.437486 57.947308 
L 327.122513 57.85377 
L 328.795562 57.501391 
L 329.585979 57.687145 
L 330.679388 57.922539 
L 331.403937 57.824894 
L 332.997944 57.521996 
L 333.827881 57.693958 
L 334.947638 57.90043 
L 335.738055 57.786912 
L 337.160805 57.538956 
L 338.017089 57.686289 
L 339.229061 57.879792 
L 340.085346 57.751117 
L 341.37636 57.557167 
L 342.285339 57.698411 
L 343.497311 57.860916 
L 344.445811 57.718386 
L 345.631436 57.574774 
L 346.63263 57.724326 
L 347.778735 57.843142 
L 348.858971 57.682362 
L 349.939207 57.593142 
L 351.151179 57.77274 
L 352.17872 57.818749 
L 354.945179 57.699103 
L 356.328408 57.812439 
L 359.463727 57.742189 
L 360.662526 57.795336 
L 363.442157 57.70749 
L 364.904428 57.785601 
L 367.697234 57.711343 
L 369.199025 57.773609 
L 371.846921 57.703587 
L 373.493622 57.762823 
L 376.022955 57.699986 
L 377.814566 57.751444 
L 380.19899 57.697333 
L 382.135511 57.741299 
L 384.414545 57.698247 
L 386.456455 57.732434 
L 388.656448 57.700824 
L 390.777399 57.72484 
L 392.937871 57.705296 
L 395.08517 57.719207 
L 397.258815 57.711053 
L 399.419287 57.713293 
L 401.592933 57.716298 
L 403.792926 57.706893 
L 406.006093 57.723466 
L 408.271954 57.698681 
L 410.656377 57.734029 
L 415.991689 57.723431 
L 419.601259 57.732445 
L 443.735313 57.71259 
L 450.269424 57.711614 
L 450.269424 57.711614 
" style="fill:none;stroke:#ff7f0e;stroke-linecap:square;stroke-width:1.5;"/>
   </g>
   <g id="patch_3">
    <path d="M 53.74375 275.64375 
L 53.74375 25.918125 
" style="fill:none;stroke:#000000;stroke-linecap:square;stroke-linejoin:miter;stroke-width:0.8;"/>
   </g>
   <g id="patch_4">
    <path d="M 450.25625 275.64375 
L 450.25625 25.918125 
" style="fill:none;stroke:#000000;stroke-linecap:square;stroke-linejoin:miter;stroke-width:0.8;"/>
   </g>
   <g id="patch_5">
    <path d="M 53.74375 275.64375 
L 450.25625 275.64375 
" style="fill:none;stroke:#000000;stroke-linecap:square;stroke-linejoin:miter;stroke-width:0.8;"/>
   </g>
   <g id="patch_6">
    <path d="M 53.74375 25.918125 
L 450.25625 25.918125 
" style="fill:none;stroke:#000000;stroke-linecap:square;stroke-linejoin:miter;stroke-width:0.8;"/>
   </g>
   <g id="text_17">
    <!-- $\omega_0=0.9, \lambda_0=0.9, d_0=2$ -->
    <defs>
     <path d="M 21.390625 -1.421875 
Q 1.125 -1.421875 6.78125 27.59375 
Q 8.984375 39.0625 19.625 54.6875 
L 29.296875 54.6875 
Q 19.234375 39.0625 17 27.34375 
Q 12.796875 6.203125 23.734375 6.203125 
Q 33.84375 6.203125 38.71875 32.46875 
L 47.015625 32.46875 
Q 41.703125 6.0625 51.8125 6.203125 
Q 62.703125 6.296875 66.796875 27.34375 
Q 69.046875 39.0625 65.140625 54.6875 
L 74.8125 54.6875 
Q 79.296875 39.0625 77.09375 27.59375 
Q 71.53125 -1.46875 51.21875 -1.421875 
Q 37.9375 -1.375 39.109375 13.1875 
Q 34.28125 -1.421875 21.390625 -1.421875 
z
" id="DejaVuSans-Oblique-969"/>
     <path d="M 10.59375 45.40625 
L 73.1875 45.40625 
L 73.1875 37.203125 
L 10.59375 37.203125 
z
M 10.59375 25.484375 
L 73.1875 25.484375 
L 73.1875 17.1875 
L 10.59375 17.1875 
z
" id="DejaVuSans-61"/>
     <path d="M 11.71875 12.40625 
L 22.015625 12.40625 
L 22.015625 4 
L 14.015625 -11.625 
L 7.71875 -11.625 
L 11.71875 4 
z
" id="DejaVuSans-44"/>
     <path d="M 36.71875 67.4375 
L 48.828125 0 
L 39.3125 0 
L 31.84375 40.4375 
L 5.125 0 
L -4.390625 0 
L 29.734375 52.4375 
L 28.03125 62.109375 
Q 26.953125 68.265625 21.734375 68.265625 
L 17.046875 68.265625 
L 18.5 75.984375 
L 24.21875 75.875 
Q 35.203125 75.734375 36.71875 67.4375 
z
" id="DejaVuSans-Oblique-955"/>
     <path d="M 41.796875 8.203125 
Q 38.1875 3.46875 33.25 1.015625 
Q 28.328125 -1.421875 22.3125 -1.421875 
Q 14.109375 -1.421875 9.34375 4.171875 
Q 4.59375 9.765625 4.59375 19.484375 
Q 4.59375 27.59375 7.46875 34.9375 
Q 10.359375 42.28125 15.828125 48.09375 
Q 19.4375 51.953125 23.96875 53.96875 
Q 28.515625 56 33.5 56 
Q 38.765625 56 42.796875 53.453125 
Q 46.828125 50.921875 49.03125 46.1875 
L 54.890625 75.984375 
L 63.921875 75.984375 
L 49.125 0 
L 40.09375 0 
z
M 13.921875 21.09375 
Q 13.921875 14.015625 17.109375 10.0625 
Q 20.3125 6.109375 25.984375 6.109375 
Q 30.171875 6.109375 33.765625 8.125 
Q 37.359375 10.15625 40.09375 14.109375 
Q 42.96875 18.21875 44.625 23.578125 
Q 46.296875 28.953125 46.296875 34.1875 
Q 46.296875 40.96875 43.09375 44.765625 
Q 39.890625 48.578125 34.28125 48.578125 
Q 30.03125 48.578125 26.359375 46.578125 
Q 22.703125 44.578125 20.125 40.828125 
Q 17.28125 36.765625 15.59375 31.390625 
Q 13.921875 26.03125 13.921875 21.09375 
z
" id="DejaVuSans-Oblique-100"/>
    </defs>
    <g transform="translate(179.94 19.918125)scale(0.12 -0.12)">
     <use transform="translate(0 0.015625)" xlink:href="#DejaVuSans-Oblique-969"/>
     <use transform="translate(83.740234 -16.390625)scale(0.7)" xlink:href="#DejaVuSans-48"/>
     <use transform="translate(150.493164 0.015625)" xlink:href="#DejaVuSans-61"/>
     <use transform="translate(253.764648 0.015625)" xlink:href="#DejaVuSans-48"/>
     <use transform="translate(317.387695 0.015625)" xlink:href="#DejaVuSans-46"/>
     <use transform="translate(349.174805 0.015625)" xlink:href="#DejaVuSans-57"/>
     <use transform="translate(412.797852 0.015625)" xlink:href="#DejaVuSans-44"/>
     <use transform="translate(464.067383 0.015625)" xlink:href="#DejaVuSans-Oblique-955"/>
     <use transform="translate(523.24707 -16.390625)scale(0.7)" xlink:href="#DejaVuSans-48"/>
     <use transform="translate(590 0.015625)" xlink:href="#DejaVuSans-61"/>
     <use transform="translate(693.271484 0.015625)" xlink:href="#DejaVuSans-48"/>
     <use transform="translate(756.894531 0.015625)" xlink:href="#DejaVuSans-46"/>
     <use transform="translate(788.681641 0.015625)" xlink:href="#DejaVuSans-57"/>
     <use transform="translate(852.304688 0.015625)" xlink:href="#DejaVuSans-44"/>
     <use transform="translate(903.574219 0.015625)" xlink:href="#DejaVuSans-Oblique-100"/>
     <use transform="translate(967.050781 -16.390625)scale(0.7)" xlink:href="#DejaVuSans-48"/>
     <use transform="translate(1033.803711 0.015625)" xlink:href="#DejaVuSans-61"/>
     <use transform="translate(1137.075195 0.015625)" xlink:href="#DejaVuSans-50"/>
    </g>
   </g>
   <g id="legend_1">
    <g id="patch_7">
     <path d="M 402.85625 77.9525 
L 443.25625 77.9525 
Q 445.25625 77.9525 445.25625 75.9525 
L 445.25625 32.918125 
Q 445.25625 30.918125 443.25625 30.918125 
L 402.85625 30.918125 
Q 400.85625 30.918125 400.85625 32.918125 
L 400.85625 75.9525 
Q 400.85625 77.9525 402.85625 77.9525 
z
" style="fill:#ffffff;opacity:0.8;stroke:#cccccc;stroke-linejoin:miter;"/>
    </g>
    <g id="line2d_17">
     <path d="M 404.85625 39.016562 
L 424.85625 39.016562 
" style="fill:none;stroke:#1f77b4;stroke-linecap:square;stroke-width:1.5;"/>
    </g>
    <g id="line2d_18"/>
    <g id="text_18">
     <!-- $\omega$ -->
     <g transform="translate(432.85625 42.516562)scale(0.1 -0.1)">
      <use transform="translate(0 0.3125)" xlink:href="#DejaVuSans-Oblique-969"/>
     </g>
    </g>
    <g id="line2d_19">
     <path d="M 404.85625 53.694687 
L 424.85625 53.694687 
" style="fill:none;stroke:#ff7f0e;stroke-linecap:square;stroke-width:1.5;"/>
    </g>
    <g id="line2d_20"/>
    <g id="text_19">
     <!-- $\lambda$ -->
     <g transform="translate(432.85625 57.194687)scale(0.1 -0.1)">
      <use transform="translate(0 0.015625)" xlink:href="#DejaVuSans-Oblique-955"/>
     </g>
    </g>
    <g id="line2d_21">
     <path d="M 404.85625 68.372812 
L 424.85625 68.372812 
" style="fill:none;stroke:#2ca02c;stroke-linecap:square;stroke-width:1.5;"/>
    </g>
    <g id="line2d_22"/>
    <g id="text_20">
     <!-- $d$ -->
     <g transform="translate(432.85625 71.872812)scale(0.1 -0.1)">
      <use transform="translate(0 0.015625)" xlink:href="#DejaVuSans-Oblique-100"/>
     </g>
    </g>
   </g>
  </g>
  <g id="axes_2">
   <g id="matplotlib.axis_3">
    <g id="ytick_8">
     <g id="line2d_23">
      <defs>
       <path d="M 0 0 
L 3.5 0 
" id="mf8769d0637" style="stroke:#000000;stroke-width:0.8;"/>
      </defs>
      <g>
       <use style="stroke:#000000;stroke-width:0.8;" x="450.25625" xlink:href="#mf8769d0637" y="272.552161"/>
      </g>
     </g>
     <g id="text_21">
      <!-- 0.00 -->
      <g style="fill:#2ca02c;" transform="translate(457.25625 276.35138)scale(0.1 -0.1)">
       <use xlink:href="#DejaVuSans-48"/>
       <use x="63.623047" xlink:href="#DejaVuSans-46"/>
       <use x="95.410156" xlink:href="#DejaVuSans-48"/>
       <use x="159.033203" xlink:href="#DejaVuSans-48"/>
      </g>
     </g>
    </g>
    <g id="ytick_9">
     <g id="line2d_24">
      <g>
       <use style="stroke:#000000;stroke-width:0.8;" x="450.25625" xlink:href="#mf8769d0637" y="243.141803"/>
      </g>
     </g>
     <g id="text_22">
      <!-- 0.25 -->
      <g style="fill:#2ca02c;" transform="translate(457.25625 246.941021)scale(0.1 -0.1)">
       <use xlink:href="#DejaVuSans-48"/>
       <use x="63.623047" xlink:href="#DejaVuSans-46"/>
       <use x="95.410156" xlink:href="#DejaVuSans-50"/>
       <use x="159.033203" xlink:href="#DejaVuSans-53"/>
      </g>
     </g>
    </g>
    <g id="ytick_10">
     <g id="line2d_25">
      <g>
       <use style="stroke:#000000;stroke-width:0.8;" x="450.25625" xlink:href="#mf8769d0637" y="213.731444"/>
      </g>
     </g>
     <g id="text_23">
      <!-- 0.50 -->
      <g style="fill:#2ca02c;" transform="translate(457.25625 217.530662)scale(0.1 -0.1)">
       <use xlink:href="#DejaVuSans-48"/>
       <use x="63.623047" xlink:href="#DejaVuSans-46"/>
       <use x="95.410156" xlink:href="#DejaVuSans-53"/>
       <use x="159.033203" xlink:href="#DejaVuSans-48"/>
      </g>
     </g>
    </g>
    <g id="ytick_11">
     <g id="line2d_26">
      <g>
       <use style="stroke:#000000;stroke-width:0.8;" x="450.25625" xlink:href="#mf8769d0637" y="184.321085"/>
      </g>
     </g>
     <g id="text_24">
      <!-- 0.75 -->
      <g style="fill:#2ca02c;" transform="translate(457.25625 188.120303)scale(0.1 -0.1)">
       <use xlink:href="#DejaVuSans-48"/>
       <use x="63.623047" xlink:href="#DejaVuSans-46"/>
       <use x="95.410156" xlink:href="#DejaVuSans-55"/>
       <use x="159.033203" xlink:href="#DejaVuSans-53"/>
      </g>
     </g>
    </g>
    <g id="ytick_12">
     <g id="line2d_27">
      <g>
       <use style="stroke:#000000;stroke-width:0.8;" x="450.25625" xlink:href="#mf8769d0637" y="154.910726"/>
      </g>
     </g>
     <g id="text_25">
      <!-- 1.00 -->
      <g style="fill:#2ca02c;" transform="translate(457.25625 158.709944)scale(0.1 -0.1)">
       <use xlink:href="#DejaVuSans-49"/>
       <use x="63.623047" xlink:href="#DejaVuSans-46"/>
       <use x="95.410156" xlink:href="#DejaVuSans-48"/>
       <use x="159.033203" xlink:href="#DejaVuSans-48"/>
      </g>
     </g>
    </g>
    <g id="ytick_13">
     <g id="line2d_28">
      <g>
       <use style="stroke:#000000;stroke-width:0.8;" x="450.25625" xlink:href="#mf8769d0637" y="125.500367"/>
      </g>
     </g>
     <g id="text_26">
      <!-- 1.25 -->
      <g style="fill:#2ca02c;" transform="translate(457.25625 129.299585)scale(0.1 -0.1)">
       <use xlink:href="#DejaVuSans-49"/>
       <use x="63.623047" xlink:href="#DejaVuSans-46"/>
       <use x="95.410156" xlink:href="#DejaVuSans-50"/>
       <use x="159.033203" xlink:href="#DejaVuSans-53"/>
      </g>
     </g>
    </g>
    <g id="ytick_14">
     <g id="line2d_29">
      <g>
       <use style="stroke:#000000;stroke-width:0.8;" x="450.25625" xlink:href="#mf8769d0637" y="96.090008"/>
      </g>
     </g>
     <g id="text_27">
      <!-- 1.50 -->
      <g style="fill:#2ca02c;" transform="translate(457.25625 99.889226)scale(0.1 -0.1)">
       <use xlink:href="#DejaVuSans-49"/>
       <use x="63.623047" xlink:href="#DejaVuSans-46"/>
       <use x="95.410156" xlink:href="#DejaVuSans-53"/>
       <use x="159.033203" xlink:href="#DejaVuSans-48"/>
      </g>
     </g>
    </g>
    <g id="ytick_15">
     <g id="line2d_30">
      <g>
       <use style="stroke:#000000;stroke-width:0.8;" x="450.25625" xlink:href="#mf8769d0637" y="66.679649"/>
      </g>
     </g>
     <g id="text_28">
      <!-- 1.75 -->
      <g style="fill:#2ca02c;" transform="translate(457.25625 70.478867)scale(0.1 -0.1)">
       <use xlink:href="#DejaVuSans-49"/>
       <use x="63.623047" xlink:href="#DejaVuSans-46"/>
       <use x="95.410156" xlink:href="#DejaVuSans-55"/>
       <use x="159.033203" xlink:href="#DejaVuSans-53"/>
      </g>
     </g>
    </g>
    <g id="ytick_16">
     <g id="line2d_31">
      <g>
       <use style="stroke:#000000;stroke-width:0.8;" x="450.25625" xlink:href="#mf8769d0637" y="37.26929"/>
      </g>
     </g>
     <g id="text_29">
      <!-- 2.00 -->
      <g style="fill:#2ca02c;" transform="translate(457.25625 41.068509)scale(0.1 -0.1)">
       <use xlink:href="#DejaVuSans-50"/>
       <use x="63.623047" xlink:href="#DejaVuSans-46"/>
       <use x="95.410156" xlink:href="#DejaVuSans-48"/>
       <use x="159.033203" xlink:href="#DejaVuSans-48"/>
      </g>
     </g>
    </g>
    <g id="text_30">
     <!-- Ratio -->
     <defs>
      <path d="M 30.609375 48.390625 
Q 23.390625 48.390625 19.1875 42.75 
Q 14.984375 37.109375 14.984375 27.296875 
Q 14.984375 17.484375 19.15625 11.84375 
Q 23.34375 6.203125 30.609375 6.203125 
Q 37.796875 6.203125 41.984375 11.859375 
Q 46.1875 17.53125 46.1875 27.296875 
Q 46.1875 37.015625 41.984375 42.703125 
Q 37.796875 48.390625 30.609375 48.390625 
z
M 30.609375 56 
Q 42.328125 56 49.015625 48.375 
Q 55.71875 40.765625 55.71875 27.296875 
Q 55.71875 13.875 49.015625 6.21875 
Q 42.328125 -1.421875 30.609375 -1.421875 
Q 18.84375 -1.421875 12.171875 6.21875 
Q 5.515625 13.875 5.515625 27.296875 
Q 5.515625 40.765625 12.171875 48.375 
Q 18.84375 56 30.609375 56 
z
" id="DejaVuSans-111"/>
     </defs>
     <g style="fill:#2ca02c;" transform="translate(491.120312 163.615312)rotate(-90)scale(0.1 -0.1)">
      <use xlink:href="#DejaVuSans-82"/>
      <use x="67.232422" xlink:href="#DejaVuSans-97"/>
      <use x="128.511719" xlink:href="#DejaVuSans-116"/>
      <use x="167.720703" xlink:href="#DejaVuSans-105"/>
      <use x="195.503906" xlink:href="#DejaVuSans-111"/>
     </g>
    </g>
   </g>
   <g id="line2d_32">
    <path clip-path="url(#p0b13051aef)" d="M 53.74375 37.26929 
L 54.099437 38.019599 
L 54.54734 39.533562 
L 55.126979 42.363208 
L 55.904222 47.395067 
L 57.616791 58.829874 
L 57.998826 59.98317 
L 58.222778 60.139716 
L 58.380861 59.975205 
L 58.591639 59.366416 
L 58.894632 57.690348 
L 59.197625 55.765778 
L 59.250319 55.952209 
L 59.474271 56.789714 
L 59.592833 56.697051 
L 59.882652 56.052971 
L 60.607201 54.470577 
L 60.976062 54.147804 
L 61.252708 54.178062 
L 61.529354 54.451131 
L 61.885041 55.160586 
L 62.332944 56.61287 
L 62.899409 59.272158 
L 63.676652 64.103468 
L 65.270659 74.262376 
L 65.665867 75.438107 
L 65.889819 75.587504 
L 66.047902 75.420246 
L 66.25868 74.804152 
L 66.548499 73.164847 
L 67.035923 69.260437 
L 67.128138 69.723593 
L 67.325742 70.331613 
L 67.470652 70.265198 
L 67.799992 69.716036 
L 68.379631 68.86745 
L 68.708971 68.738382 
L 68.985617 68.875947 
L 69.301784 69.320952 
L 69.696992 70.309899 
L 70.197589 72.223514 
L 70.85627 75.721666 
L 72.081416 83.780342 
L 72.805964 87.731215 
L 73.187999 88.820695 
L 73.41195 88.960946 
L 73.570034 88.789928 
L 73.780811 88.169255 
L 74.070631 86.510597 
L 74.479013 82.654173 
L 74.676617 81.155916 
L 74.716138 81.294177 
L 74.992784 82.332663 
L 75.164041 82.32218 
L 75.59877 81.918399 
L 75.993978 81.717541 
L 76.283797 81.809951 
L 76.58679 82.160318 
L 76.968825 82.988101 
L 77.443075 84.605763 
L 78.062235 87.605245 
L 78.997561 93.424994 
L 80.025103 99.456622 
L 80.446658 100.822834 
L 80.696957 101.059018 
L 80.85504 100.930685 
L 81.052644 100.424358 
L 81.32929 98.996897 
L 81.698151 95.718686 
L 82.067012 92.180585 
L 82.106533 92.292222 
L 82.435873 93.53207 
L 82.672998 93.619212 
L 83.331679 93.702082 
L 83.661019 94.059135 
L 84.043054 94.840288 
L 84.517304 96.375208 
L 85.12329 99.179971 
L 86.019096 104.5487 
L 87.112505 110.828025 
L 87.534061 112.132981 
L 87.771186 112.33776 
L 87.929269 112.208242 
L 88.140047 111.655416 
L 88.416693 110.191903 
L 88.785554 106.853122 
L 89.193936 102.735924 
L 89.24663 102.881638 
L 89.602318 104.293204 
L 89.958005 104.65539 
L 90.445429 105.176605 
L 90.853811 105.989332 
L 91.328061 107.469221 
L 91.920873 110.106908 
L 92.790331 115.143068 
L 93.936435 121.598591 
L 94.357991 122.86116 
L 94.595116 123.047422 
L 94.753199 122.907744 
L 94.963977 122.344001 
L 95.240623 120.870171 
L 95.609484 117.52042 
L 96.057387 113.002731 
L 96.110081 113.156791 
L 96.54481 114.901372 
L 97.769956 117.650727 
L 98.349595 120.014475 
L 99.126838 124.22881 
L 100.575935 132.199196 
L 100.95797 133.182184 
L 101.168748 133.293385 
L 101.326831 133.129175 
L 101.537609 132.533608 
L 101.827428 130.927345 
L 102.209463 127.339295 
L 102.644192 123.04151 
L 102.683713 123.12217 
L 103.500477 126.072696 
L 104.145983 128.00306 
L 104.778317 130.701993 
L 105.647775 135.52934 
L 106.807053 141.784684 
L 107.215435 142.945914 
L 107.45256 143.120791 
L 107.610643 142.981145 
L 107.821421 142.427864 
L 108.098067 140.987731 
L 108.466928 137.72346 
L 108.967525 132.844326 
L 109.007046 132.915061 
L 109.270518 134.322569 
L 109.771115 136.114706 
L 110.548358 138.984721 
L 111.312428 142.812282 
L 113.024997 151.765479 
L 113.367511 152.46312 
L 113.565115 152.488985 
L 113.736372 152.242328 
L 113.973497 151.431622 
L 114.289663 149.409557 
L 114.737566 144.806902 
L 115.040559 142.372661 
L 115.053733 142.380766 
L 115.145948 142.725497 
L 115.804629 145.781659 
L 116.726781 149.753472 
L 117.754323 155.436436 
L 118.689649 160.179951 
L 119.098031 161.295905 
L 119.335156 161.461227 
L 119.506413 161.302975 
L 119.717191 160.740359 
L 120.00701 159.226363 
L 120.389045 155.87718 
L 120.876469 151.579044 
L 120.902816 151.597919 
L 121.008205 152.012402 
L 121.877663 156.201209 
L 122.826163 160.95403 
L 124.380649 168.960587 
L 124.762684 169.852872 
L 124.973462 169.940636 
L 125.144718 169.75164 
L 125.36867 169.103523 
L 125.671663 167.426078 
L 126.093218 163.605923 
L 126.5016 160.418345 
L 126.567468 160.524545 
L 126.79142 161.685821 
L 127.766267 166.547513 
L 130.071649 177.696242 
L 130.335121 177.963385 
L 130.506378 177.864232 
L 130.717156 177.400526 
L 130.993801 176.155239 
L 131.362663 173.335995 
L 131.942301 168.854528 
L 131.955475 168.862725 
L 132.04769 169.117255 
L 132.535114 171.734461 
L 135.196183 184.964302 
L 135.51235 185.474203 
L 135.69678 185.463381 
L 135.881211 185.184659 
L 136.13151 184.327544 
L 136.46085 182.304991 
L 137.198572 176.858578 
L 137.26444 176.954065 
L 137.448871 177.776619 
L 140.017725 191.182406 
L 140.452454 192.362107 
L 140.702752 192.560679 
L 140.874009 192.441793 
L 141.084787 191.971921 
L 141.374607 190.690081 
L 141.782988 187.692517 
L 142.270412 184.430774 
L 142.33628 184.438197 
L 142.362627 184.482225 
L 142.520711 185.079387 
L 143.719509 191.595282 
L 144.931481 197.629496 
L 145.379384 198.899429 
L 145.642856 199.150617 
L 145.814113 199.064318 
L 146.024891 198.650511 
L 146.301537 197.548201 
L 146.696745 194.918986 
L 147.236863 191.532892 
L 147.315905 191.545682 
L 147.329078 191.565487 
L 147.487162 192.08819 
L 148.145842 195.602382 
L 149.739849 203.666478 
L 150.200925 204.996323 
L 150.477571 205.279989 
L 150.662002 205.195965 
L 150.87278 204.795381 
L 151.162599 203.674 
L 151.584155 200.971775 
L 152.071578 198.194615 
L 152.15062 198.16615 
L 152.190141 198.211639 
L 152.348224 198.694751 
L 152.861995 201.331388 
L 154.429654 209.19829 
L 154.917078 210.639822 
L 155.206897 210.961279 
L 155.391328 210.898883 
L 155.602106 210.538854 
L 155.891925 209.507125 
L 156.313481 207.016747 
L 156.800904 204.412591 
L 156.906293 204.354925 
L 156.93264 204.378995 
L 157.07755 204.734769 
L 157.446411 206.450817 
L 159.158981 214.775216 
L 159.620057 215.984728 
L 159.896703 216.219754 
L 160.081133 216.12179 
L 160.305085 215.697356 
L 160.608078 214.569654 
L 161.135022 211.51525 
L 161.477536 210.132168 
L 161.582925 210.103515 
L 161.609272 210.129099 
L 161.767355 210.506582 
L 162.14939 212.209949 
L 163.769744 219.764361 
L 164.217647 220.856464 
L 164.494293 221.059206 
L 164.691897 220.93347 
L 164.929022 220.454956 
L 165.258362 219.195697 
L 166.154168 215.402268 
L 166.285904 215.571993 
L 166.536202 216.414688 
L 167.36614 220.395345 
L 168.261945 224.174964 
L 168.723022 225.289151 
L 168.999668 225.502919 
L 169.197272 225.400461 
L 169.434397 224.970823 
L 169.763737 223.823643 
L 170.672716 220.293069 
L 170.804452 220.42073 
L 171.028404 221.057814 
L 171.608042 223.620329 
L 172.688278 228.17544 
L 173.162528 229.327817 
L 173.452348 229.569283 
L 173.649952 229.487861 
L 173.887077 229.103894 
L 174.216417 228.062427 
L 175.151744 224.785825 
L 175.296653 224.92046 
L 175.533778 225.558732 
L 176.113417 227.979307 
L 177.127785 232.007912 
L 177.588862 233.057649 
L 177.878681 233.280958 
L 178.089459 233.188146 
L 178.339757 232.778666 
L 178.682271 231.720487 
L 179.525382 228.912503 
L 179.683466 228.953503 
L 179.88107 229.33294 
L 180.276278 230.712561 
L 181.672681 235.874152 
L 182.081063 236.565462 
L 182.344535 236.648283 
L 182.568486 236.462755 
L 182.858306 235.86705 
L 183.306208 234.329725 
L 183.833153 232.743156 
L 184.030757 232.660016 
L 184.202014 232.868702 
L 184.505007 233.69152 
L 185.506201 237.449423 
L 186.112187 239.162259 
L 186.481049 239.66566 
L 186.731347 239.698546 
L 186.968472 239.475019 
L 187.271465 238.835369 
L 187.890625 236.824136 
L 188.246312 236.094496 
L 188.430743 236.086095 
L 188.628347 236.360621 
L 188.970861 237.304541 
L 190.551694 242.152754 
L 190.894208 242.473698 
L 191.131333 242.429274 
L 191.394805 242.10933 
L 191.763666 241.232667 
L 192.58043 239.185156 
L 192.778034 239.175802 
L 192.988812 239.449202 
L 193.3445 240.362952 
L 194.859465 244.666626 
L 195.201979 244.967458 
L 195.452277 244.918937 
L 195.715749 244.612526 
L 196.097784 243.765449 
L 196.875027 241.992158 
L 197.085805 241.957652 
L 197.296583 242.184422 
L 197.639097 242.956698 
L 199.233103 247.029303 
L 199.54927 247.217699 
L 199.799569 247.124654 
L 200.089388 246.749822 
L 200.550465 245.711356 
L 201.130103 244.543146 
L 201.367228 244.463494 
L 201.578006 244.640759 
L 201.907346 245.278305 
L 203.619916 249.145336 
L 203.909735 249.219779 
L 204.173207 249.054981 
L 204.515721 248.534779 
L 205.56961 246.718756 
L 205.793561 246.803194 
L 206.070207 247.193413 
L 206.583978 248.396395 
L 207.519304 250.529612 
L 207.927686 250.970429 
L 208.217506 251.004811 
L 208.507325 250.794151 
L 208.88936 250.194745 
L 209.745645 248.781336 
L 209.995943 248.771957 
L 210.259415 249.028882 
L 210.667797 249.804347 
L 211.91929 252.353205 
L 212.288151 252.611248 
L 212.577971 252.5631 
L 212.894137 252.262176 
L 213.407908 251.398403 
L 213.948026 250.630673 
L 214.224672 250.567184 
L 214.488144 250.760169 
L 214.870179 251.372914 
L 216.279755 253.900793 
L 216.622269 254.043415 
L 216.925262 253.931014 
L 217.294123 253.520351 
L 218.348012 252.180593 
L 218.611484 252.238719 
L 218.927651 252.574585 
L 219.480943 253.564961 
L 220.324054 254.984566 
L 220.732436 255.285308 
L 221.048602 255.268925 
L 221.391116 255.008779 
L 221.970755 254.211264 
L 222.484526 253.661619 
L 222.787519 253.635029 
L 223.090512 253.859479 
L 223.551588 254.536974 
L 224.644998 256.208437 
L 225.040206 256.418879 
L 225.369547 256.353931 
L 225.751581 256.02705 
L 226.884512 254.895085 
L 227.187505 254.984559 
L 227.556366 255.361898 
L 229.216241 257.3958 
L 229.571928 257.363376 
L 229.967137 257.074253 
L 231.152762 256.028638 
L 231.468928 256.130558 
L 231.87731 256.536799 
L 233.352754 258.239032 
L 233.721616 258.264905 
L 234.10365 258.060783 
L 234.841372 257.324167 
L 235.302449 257.044344 
L 235.644963 257.088491 
L 236.040171 257.398133 
L 237.739567 259.045171 
L 238.121601 258.976002 
L 238.595851 258.632129 
L 239.504831 257.939704 
L 239.860518 257.960538 
L 240.255726 258.222892 
L 241.046143 259.102974 
L 241.678476 259.632535 
L 242.100032 259.720378 
L 242.521587 259.569772 
L 243.219789 259.013144 
L 243.759907 258.718184 
L 244.141941 258.755349 
L 244.576671 259.044292 
L 246.14433 260.304579 
L 246.565886 260.259859 
L 247.079657 259.957457 
L 247.988636 259.409358 
L 248.397018 259.447256 
L 248.858094 259.734574 
L 250.333538 260.81748 
L 250.781441 260.787129 
L 251.321559 260.501806 
L 252.230538 260.015357 
L 252.665267 260.061325 
L 253.165865 260.36112 
L 254.496399 261.259698 
L 254.970649 261.254861 
L 255.523941 261.003411 
L 256.485614 260.546607 
L 256.933517 260.601665 
L 257.486809 260.919295 
L 258.65926 261.643595 
L 259.159857 261.661771 
L 259.726323 261.441091 
L 260.753864 261.012859 
L 261.241288 261.09094 
L 261.873621 261.450826 
L 262.848468 261.984141 
L 263.375413 262.011381 
L 263.981399 261.797334 
L 264.995767 261.424632 
L 265.509537 261.507143 
L 266.220912 261.885958 
L 267.103544 262.297059 
L 267.656836 262.30534 
L 268.32869 262.068377 
L 269.224496 261.786497 
L 269.764614 261.867345 
L 270.568204 262.260383 
L 271.384968 262.573199 
L 271.964607 262.554763 
L 272.794544 262.262395 
L 273.532266 262.1017 
L 274.111905 262.213846 
L 276.061599 262.80751 
L 276.799322 262.603223 
L 277.734648 262.379582 
L 278.353808 262.482766 
L 280.290328 263.007198 
L 281.093919 262.801861 
L 282.002898 262.622498 
L 282.661578 262.737947 
L 284.426842 263.188392 
L 285.217259 263.026497 
L 286.271148 262.835668 
L 286.982522 262.964633 
L 288.576529 263.341651 
L 289.38012 263.209525 
L 290.539397 263.022597 
L 291.31664 263.165785 
L 292.752564 263.472283 
L 293.582501 263.358391 
L 294.820821 263.18707 
L 295.663932 263.343762 
L 296.968119 263.584937 
L 297.850751 263.473917 
L 299.08907 263.330618 
L 300.024397 263.5003 
L 301.223195 263.682391 
L 302.184869 263.562608 
L 303.344147 263.45536 
L 304.371688 263.630986 
L 305.504619 263.765968 
L 306.598028 263.628494 
L 307.665091 263.56894 
L 308.982452 263.786792 
L 309.983646 263.826138 
L 312.473459 263.734464 
L 314.12016 263.896262 
L 316.96566 263.84818 
L 318.335715 263.951982 
L 321.286604 263.920289 
L 322.643486 263.995701 
L 325.383597 263.954153 
L 326.924909 264.034355 
L 329.559631 263.993601 
L 331.219506 264.066841 
L 333.748839 264.029668 
L 335.54045 264.093158 
L 337.924874 264.060217 
L 339.861395 264.115629 
L 342.127256 264.089187 
L 344.182339 264.13498 
L 346.382332 264.118093 
L 348.503283 264.151794 
L 350.663755 264.144681 
L 352.811054 264.16719 
L 354.984699 264.169713 
L 357.158345 264.178994 
L 359.331991 264.192294 
L 361.531984 264.188674 
L 363.758324 264.214448 
L 366.037359 264.194042 
L 368.513997 264.239355 
L 374.613379 264.216072 
L 380.040906 264.23359 
L 385.771427 264.266401 
L 419.509043 264.287168 
L 450.269424 264.289345 
L 450.269424 264.289345 
" style="fill:none;stroke:#2ca02c;stroke-linecap:square;stroke-width:1.5;"/>
   </g>
   <g id="patch_8">
    <path d="M 53.74375 275.64375 
L 53.74375 25.918125 
" style="fill:none;stroke:#000000;stroke-linecap:square;stroke-linejoin:miter;stroke-width:0.8;"/>
   </g>
   <g id="patch_9">
    <path d="M 450.25625 275.64375 
L 450.25625 25.918125 
" style="fill:none;stroke:#000000;stroke-linecap:square;stroke-linejoin:miter;stroke-width:0.8;"/>
   </g>
   <g id="patch_10">
    <path d="M 53.74375 275.64375 
L 450.25625 275.64375 
" style="fill:none;stroke:#000000;stroke-linecap:square;stroke-linejoin:miter;stroke-width:0.8;"/>
   </g>
   <g id="patch_11">
    <path d="M 53.74375 25.918125 
L 450.25625 25.918125 
" style="fill:none;stroke:#000000;stroke-linecap:square;stroke-linejoin:miter;stroke-width:0.8;"/>
   </g>
  </g>
 </g>
 <defs>
  <clipPath id="p0b13051aef">
   <rect height="249.725625" width="396.5125" x="53.74375" y="25.918125"/>
  </clipPath>
 </defs>
</svg>
